<?xml version="1.0" encoding="UTF-8" standalone="no"?>
<!DOCTYPE svg PUBLIC "-//W3C//DTD SVG 1.1//EN"
 "http://www.w3.org/Graphics/SVG/1.1/DTD/svg11.dtd">
<!-- Generated by graphviz version 2.43.0 (0)
 -->
<!-- Title: ABLForcingAlgorithm.C Pages: 1 -->
<svg width="2649pt" height="95pt"
 viewBox="0.00 0.00 2648.50 95.00" xmlns="http://www.w3.org/2000/svg" xmlns:xlink="http://www.w3.org/1999/xlink">
<g id="graph0" class="graph" transform="scale(1 1) rotate(0) translate(4 91)">
<title>ABLForcingAlgorithm.C</title>
<polygon fill="white" stroke="transparent" points="-4,4 -4,-91 2644.5,-91 2644.5,4 -4,4"/>
<!-- Node1 -->
<g id="node1" class="node">
<title>Node1</title>
<g id="a_node1"><a xlink:title=" ">
<polygon fill="#bfbfbf" stroke="black" points="1302.5,-67.5 1302.5,-86.5 1430.5,-86.5 1430.5,-67.5 1302.5,-67.5"/>
<text text-anchor="middle" x="1366.5" y="-74.5" font-family="Helvetica,sans-Serif" font-size="10.00">ABLForcingAlgorithm.C</text>
</a>
</g>
</g>
<!-- Node2 -->
<g id="node2" class="node">
<title>Node2</title>
<g id="a_node2"><a xlink:title=" ">
<polygon fill="white" stroke="#bfbfbf" points="0,-6 0,-25 193,-25 193,-6 0,-6"/>
<text text-anchor="middle" x="96.5" y="-13" font-family="Helvetica,sans-Serif" font-size="10.00">wind_energy/ABLForcingAlgorithm.h</text>
</a>
</g>
</g>
<!-- Node1&#45;&gt;Node2 -->
<g id="edge1" class="edge">
<title>Node1&#45;&gt;Node2</title>
<path fill="none" stroke="midnightblue" d="M1302.27,-75.74C1126.02,-74.55 620.13,-67.9 201.5,-31 188.28,-29.83 174.18,-28.18 160.73,-26.39"/>
<polygon fill="midnightblue" stroke="midnightblue" points="160.99,-22.9 150.61,-25.01 160.05,-29.83 160.99,-22.9"/>
</g>
<!-- Node3 -->
<g id="node3" class="node">
<title>Node3</title>
<g id="a_node3"><a xlink:title=" ">
<polygon fill="white" stroke="#bfbfbf" points="211,-6 211,-25 294,-25 294,-6 211,-6"/>
<text text-anchor="middle" x="252.5" y="-13" font-family="Helvetica,sans-Serif" font-size="10.00">NaluParsing.h</text>
</a>
</g>
</g>
<!-- Node1&#45;&gt;Node3 -->
<g id="edge2" class="edge">
<title>Node1&#45;&gt;Node3</title>
<path fill="none" stroke="midnightblue" d="M1302.27,-75.3C1102.93,-72.82 496.59,-62.77 302.5,-31 297.63,-30.2 292.56,-29.08 287.6,-27.82"/>
<polygon fill="midnightblue" stroke="midnightblue" points="288.24,-24.37 277.67,-25.07 286.37,-31.11 288.24,-24.37"/>
</g>
<!-- Node4 -->
<g id="node4" class="node">
<title>Node4</title>
<g id="a_node4"><a xlink:title=" ">
<polygon fill="white" stroke="#bfbfbf" points="312,-6 312,-25 369,-25 369,-6 312,-6"/>
<text text-anchor="middle" x="340.5" y="-13" font-family="Helvetica,sans-Serif" font-size="10.00">Realm.h</text>
</a>
</g>
</g>
<!-- Node1&#45;&gt;Node4 -->
<g id="edge3" class="edge">
<title>Node1&#45;&gt;Node4</title>
<path fill="none" stroke="midnightblue" d="M1302.43,-75.74C1112.7,-74.54 555.96,-67.9 378.5,-31 375.42,-30.36 372.26,-29.5 369.14,-28.52"/>
<polygon fill="midnightblue" stroke="midnightblue" points="370.07,-25.14 359.47,-25.1 367.73,-31.74 370.07,-25.14"/>
</g>
<!-- Node5 -->
<g id="node5" class="node">
<title>Node5</title>
<g id="a_node5"><a xlink:title=" ">
<polygon fill="white" stroke="#bfbfbf" points="387.5,-6 387.5,-25 473.5,-25 473.5,-6 387.5,-6"/>
<text text-anchor="middle" x="430.5" y="-13" font-family="Helvetica,sans-Serif" font-size="10.00">xfer/Transfer.h</text>
</a>
</g>
</g>
<!-- Node1&#45;&gt;Node5 -->
<g id="edge4" class="edge">
<title>Node1&#45;&gt;Node5</title>
<path fill="none" stroke="midnightblue" d="M1302.19,-74.57C1126.4,-70.37 640.43,-56.71 482.5,-31 477.31,-30.16 471.91,-28.99 466.62,-27.67"/>
<polygon fill="midnightblue" stroke="midnightblue" points="467.27,-24.22 456.7,-25.02 465.46,-30.99 467.27,-24.22"/>
</g>
<!-- Node6 -->
<g id="node6" class="node">
<title>Node6</title>
<g id="a_node6"><a xlink:title=" ">
<polygon fill="white" stroke="#bfbfbf" points="491.5,-6 491.5,-25 583.5,-25 583.5,-6 491.5,-6"/>
<text text-anchor="middle" x="537.5" y="-13" font-family="Helvetica,sans-Serif" font-size="10.00">xfer/Transfers.h</text>
</a>
</g>
</g>
<!-- Node1&#45;&gt;Node6 -->
<g id="edge5" class="edge">
<title>Node1&#45;&gt;Node6</title>
<path fill="none" stroke="midnightblue" d="M1302.32,-76.58C1169.14,-76.84 853.37,-72.54 592.5,-31 586.95,-30.12 581.16,-28.91 575.49,-27.57"/>
<polygon fill="midnightblue" stroke="midnightblue" points="576.09,-24.11 565.53,-25.04 574.37,-30.89 576.09,-24.11"/>
</g>
<!-- Node7 -->
<g id="node7" class="node">
<title>Node7</title>
<g id="a_node7"><a xlink:title=" ">
<polygon fill="white" stroke="#bfbfbf" points="601.5,-6 601.5,-25 743.5,-25 743.5,-6 601.5,-6"/>
<text text-anchor="middle" x="672.5" y="-13" font-family="Helvetica,sans-Serif" font-size="10.00">utils/LinearInterpolation.h</text>
</a>
</g>
</g>
<!-- Node1&#45;&gt;Node7 -->
<g id="edge6" class="edge">
<title>Node1&#45;&gt;Node7</title>
<path fill="none" stroke="midnightblue" d="M1302.19,-73.54C1190.17,-68.74 952.11,-56.33 752.5,-31 743.45,-29.85 733.87,-28.36 724.61,-26.77"/>
<polygon fill="midnightblue" stroke="midnightblue" points="725.18,-23.32 714.72,-25.02 723.96,-30.21 725.18,-23.32"/>
</g>
<!-- Node8 -->
<g id="node8" class="node">
<title>Node8</title>
<g id="a_node8"><a xlink:title=" ">
<polygon fill="white" stroke="#bfbfbf" points="761.5,-6 761.5,-25 943.5,-25 943.5,-6 761.5,-6"/>
<text text-anchor="middle" x="852.5" y="-13" font-family="Helvetica,sans-Serif" font-size="10.00">wind_energy/BdyLayerStatistics.h</text>
</a>
</g>
</g>
<!-- Node1&#45;&gt;Node8 -->
<g id="edge7" class="edge">
<title>Node1&#45;&gt;Node8</title>
<path fill="none" stroke="midnightblue" d="M1302.23,-69.73C1220.76,-61.62 1076.04,-46.67 952.5,-31 941.64,-29.62 930.13,-28.06 918.94,-26.47"/>
<polygon fill="midnightblue" stroke="midnightblue" points="919.17,-22.97 908.78,-25.02 918.18,-29.9 919.17,-22.97"/>
</g>
<!-- Node9 -->
<g id="node9" class="node">
<title>Node9</title>
<g id="a_node9"><a xlink:title=" ">
<polygon fill="white" stroke="#bfbfbf" points="962,-6 962,-25 1121,-25 1121,-6 962,-6"/>
<text text-anchor="middle" x="1041.5" y="-13" font-family="Helvetica,sans-Serif" font-size="10.00">stk_mesh/base/BulkData.hpp</text>
</a>
</g>
</g>
<!-- Node1&#45;&gt;Node9 -->
<g id="edge8" class="edge">
<title>Node1&#45;&gt;Node9</title>
<path fill="none" stroke="midnightblue" d="M1319.94,-67.48C1261.41,-56.76 1161.02,-38.38 1098.12,-26.87"/>
<polygon fill="midnightblue" stroke="midnightblue" points="1098.45,-23.37 1087.98,-25.01 1097.18,-30.25 1098.45,-23.37"/>
</g>
<!-- Node10 -->
<g id="node10" class="node">
<title>Node10</title>
<g id="a_node10"><a xlink:title=" ">
<polygon fill="white" stroke="#bfbfbf" points="1139,-6 1139,-25 1280,-25 1280,-6 1139,-6"/>
<text text-anchor="middle" x="1209.5" y="-13" font-family="Helvetica,sans-Serif" font-size="10.00">stk_mesh/base/Entity.hpp</text>
</a>
</g>
</g>
<!-- Node1&#45;&gt;Node10 -->
<g id="edge9" class="edge">
<title>Node1&#45;&gt;Node10</title>
<path fill="none" stroke="midnightblue" d="M1344.01,-67.48C1317.19,-57.31 1272.18,-40.26 1241.69,-28.7"/>
<polygon fill="midnightblue" stroke="midnightblue" points="1242.54,-25.28 1231.95,-25.01 1240.06,-31.83 1242.54,-25.28"/>
</g>
<!-- Node11 -->
<g id="node11" class="node">
<title>Node11</title>
<g id="a_node11"><a xlink:title=" ">
<polygon fill="white" stroke="#bfbfbf" points="1298,-6 1298,-25 1435,-25 1435,-6 1298,-6"/>
<text text-anchor="middle" x="1366.5" y="-13" font-family="Helvetica,sans-Serif" font-size="10.00">stk_mesh/base/Field.hpp</text>
</a>
</g>
</g>
<!-- Node1&#45;&gt;Node11 -->
<g id="edge10" class="edge">
<title>Node1&#45;&gt;Node11</title>
<path fill="none" stroke="midnightblue" d="M1366.5,-67.48C1366.5,-59.08 1366.5,-45.98 1366.5,-35.16"/>
<polygon fill="midnightblue" stroke="midnightblue" points="1370,-35.01 1366.5,-25.01 1363,-35.01 1370,-35.01"/>
</g>
<!-- Node12 -->
<g id="node12" class="node">
<title>Node12</title>
<g id="a_node12"><a xlink:title=" ">
<polygon fill="white" stroke="#bfbfbf" points="1453.5,-6 1453.5,-25 1623.5,-25 1623.5,-6 1453.5,-6"/>
<text text-anchor="middle" x="1538.5" y="-13" font-family="Helvetica,sans-Serif" font-size="10.00">stk_mesh/base/GetBuckets.hpp</text>
</a>
</g>
</g>
<!-- Node1&#45;&gt;Node12 -->
<g id="edge11" class="edge">
<title>Node1&#45;&gt;Node12</title>
<path fill="none" stroke="midnightblue" d="M1391.14,-67.48C1420.78,-57.22 1470.68,-39.96 1504.1,-28.4"/>
<polygon fill="midnightblue" stroke="midnightblue" points="1505.6,-31.59 1513.9,-25.01 1503.31,-24.97 1505.6,-31.59"/>
</g>
<!-- Node13 -->
<g id="node13" class="node">
<title>Node13</title>
<g id="a_node13"><a xlink:title=" ">
<polygon fill="white" stroke="#bfbfbf" points="1642,-6 1642,-25 1795,-25 1795,-6 1642,-6"/>
<text text-anchor="middle" x="1718.5" y="-13" font-family="Helvetica,sans-Serif" font-size="10.00">stk_mesh/base/Selector.hpp</text>
</a>
</g>
</g>
<!-- Node1&#45;&gt;Node13 -->
<g id="edge12" class="edge">
<title>Node1&#45;&gt;Node13</title>
<path fill="none" stroke="midnightblue" d="M1416.93,-67.48C1480.58,-56.72 1589.94,-38.23 1658.02,-26.72"/>
<polygon fill="midnightblue" stroke="midnightblue" points="1658.88,-30.13 1668.16,-25.01 1657.72,-23.22 1658.88,-30.13"/>
</g>
<!-- Node14 -->
<g id="node14" class="node">
<title>Node14</title>
<g id="a_node14"><a xlink:title=" ">
<polygon fill="white" stroke="#bfbfbf" points="1813.5,-6 1813.5,-25 1975.5,-25 1975.5,-6 1813.5,-6"/>
<text text-anchor="middle" x="1894.5" y="-13" font-family="Helvetica,sans-Serif" font-size="10.00">stk_mesh/base/MetaData.hpp</text>
</a>
</g>
</g>
<!-- Node1&#45;&gt;Node14 -->
<g id="edge13" class="edge">
<title>Node1&#45;&gt;Node14</title>
<path fill="none" stroke="midnightblue" d="M1430.83,-70.55C1516.34,-63.05 1672.06,-48.46 1804.5,-31 1814.27,-29.71 1824.61,-28.19 1834.66,-26.63"/>
<polygon fill="midnightblue" stroke="midnightblue" points="1835.26,-30.08 1844.59,-25.06 1834.17,-23.17 1835.26,-30.08"/>
</g>
<!-- Node15 -->
<g id="node15" class="node">
<title>Node15</title>
<g id="a_node15"><a xlink:title=" ">
<polygon fill="white" stroke="#bfbfbf" points="1994,-6 1994,-25 2127,-25 2127,-6 1994,-6"/>
<text text-anchor="middle" x="2060.5" y="-13" font-family="Helvetica,sans-Serif" font-size="10.00">stk_mesh/base/Part.hpp</text>
</a>
</g>
</g>
<!-- Node1&#45;&gt;Node15 -->
<g id="edge14" class="edge">
<title>Node1&#45;&gt;Node15</title>
<path fill="none" stroke="midnightblue" d="M1430.8,-73.77C1543.41,-69.32 1783.45,-57.41 1984.5,-31 1992.92,-29.89 2001.82,-28.45 2010.45,-26.9"/>
<polygon fill="midnightblue" stroke="midnightblue" points="2011.22,-30.32 2020.41,-25.05 2009.94,-23.44 2011.22,-30.32"/>
</g>
<!-- Node16 -->
<g id="node16" class="node">
<title>Node16</title>
<g id="a_node16"><a xlink:title=" ">
<polygon fill="white" stroke="#bfbfbf" points="2145,-6 2145,-25 2266,-25 2266,-6 2145,-6"/>
<text text-anchor="middle" x="2205.5" y="-13" font-family="Helvetica,sans-Serif" font-size="10.00">stk_io/IossBridge.hpp</text>
</a>
</g>
</g>
<!-- Node1&#45;&gt;Node16 -->
<g id="edge15" class="edge">
<title>Node1&#45;&gt;Node16</title>
<path fill="none" stroke="midnightblue" d="M1430.69,-75.47C1563.19,-73.66 1876.35,-65.74 2136.5,-31 2144.09,-29.99 2152.1,-28.6 2159.86,-27.09"/>
<polygon fill="midnightblue" stroke="midnightblue" points="2160.77,-30.47 2169.86,-25.04 2159.36,-23.62 2160.77,-30.47"/>
</g>
<!-- Node17 -->
<g id="node17" class="node">
<title>Node17</title>
<g id="a_node17"><a xlink:title=" ">
<polygon fill="white" stroke="#bfbfbf" points="2284,-0.5 2284,-30.5 2415,-30.5 2415,-0.5 2284,-0.5"/>
<text text-anchor="start" x="2292" y="-18.5" font-family="Helvetica,sans-Serif" font-size="10.00">stk_util/parallel/Parallel</text>
<text text-anchor="middle" x="2349.5" y="-7.5" font-family="Helvetica,sans-Serif" font-size="10.00">Reduce.hpp</text>
</a>
</g>
</g>
<!-- Node1&#45;&gt;Node17 -->
<g id="edge16" class="edge">
<title>Node1&#45;&gt;Node17</title>
<path fill="none" stroke="midnightblue" d="M1430.69,-75.99C1578.14,-75.29 1952.47,-69.6 2273.84,-31.09"/>
<polygon fill="midnightblue" stroke="midnightblue" points="2274.3,-34.56 2283.81,-29.88 2273.46,-27.61 2274.3,-34.56"/>
</g>
<!-- Node18 -->
<g id="node18" class="node">
<title>Node18</title>
<g id="a_node18"><a xlink:title=" ">
<polygon fill="white" stroke="#bfbfbf" points="2433,-6 2433,-25 2488,-25 2488,-6 2433,-6"/>
<text text-anchor="middle" x="2460.5" y="-13" font-family="Helvetica,sans-Serif" font-size="10.00">fstream</text>
</a>
</g>
</g>
<!-- Node1&#45;&gt;Node18 -->
<g id="edge17" class="edge">
<title>Node1&#45;&gt;Node18</title>
<path fill="none" stroke="midnightblue" d="M1430.52,-76.12C1629.2,-76.03 2233.34,-72.28 2424.5,-31 2427.34,-30.39 2430.25,-29.57 2433.11,-28.63"/>
<polygon fill="midnightblue" stroke="midnightblue" points="2434.41,-31.88 2442.57,-25.12 2431.97,-25.32 2434.41,-31.88"/>
</g>
<!-- Node19 -->
<g id="node19" class="node">
<title>Node19</title>
<g id="a_node19"><a xlink:title=" ">
<polygon fill="white" stroke="#bfbfbf" points="2506.5,-6 2506.5,-25 2566.5,-25 2566.5,-6 2506.5,-6"/>
<text text-anchor="middle" x="2536.5" y="-13" font-family="Helvetica,sans-Serif" font-size="10.00">iostream</text>
</a>
</g>
</g>
<!-- Node1&#45;&gt;Node19 -->
<g id="edge18" class="edge">
<title>Node1&#45;&gt;Node19</title>
<path fill="none" stroke="midnightblue" d="M1430.83,-76.1C1638.76,-76.01 2291.22,-72.36 2497.5,-31 2500.76,-30.35 2504.1,-29.46 2507.4,-28.45"/>
<polygon fill="midnightblue" stroke="midnightblue" points="2508.71,-31.7 2517.01,-25.12 2506.42,-25.08 2508.71,-31.7"/>
</g>
<!-- Node20 -->
<g id="node20" class="node">
<title>Node20</title>
<g id="a_node20"><a xlink:title=" ">
<polygon fill="white" stroke="#bfbfbf" points="2584.5,-6 2584.5,-25 2640.5,-25 2640.5,-6 2584.5,-6"/>
<text text-anchor="middle" x="2612.5" y="-13" font-family="Helvetica,sans-Serif" font-size="10.00">iomanip</text>
</a>
</g>
</g>
<!-- Node1&#45;&gt;Node20 -->
<g id="edge19" class="edge">
<title>Node1&#45;&gt;Node20</title>
<path fill="none" stroke="midnightblue" d="M1430.69,-76.44C1647.85,-77.49 2353.81,-77.18 2575.5,-31 2578.51,-30.37 2581.59,-29.53 2584.63,-28.55"/>
<polygon fill="midnightblue" stroke="midnightblue" points="2585.85,-31.84 2594.05,-25.13 2583.46,-25.26 2585.85,-31.84"/>
</g>
</g>
</svg>
