<?xml version="1.0" encoding="UTF-8" standalone="no"?>
<!DOCTYPE svg PUBLIC "-//W3C//DTD SVG 1.1//EN"
 "http://www.w3.org/Graphics/SVG/1.1/DTD/svg11.dtd">
<!-- Generated by graphviz version 2.43.0 (0)
 -->
<!-- Title: ABLWallFrictionVelAlg.C Pages: 1 -->
<svg width="2287pt" height="95pt"
 viewBox="0.00 0.00 2287.00 95.00" xmlns="http://www.w3.org/2000/svg" xmlns:xlink="http://www.w3.org/1999/xlink">
<g id="graph0" class="graph" transform="scale(1 1) rotate(0) translate(4 91)">
<title>ABLWallFrictionVelAlg.C</title>
<polygon fill="white" stroke="transparent" points="-4,4 -4,-91 2283,-91 2283,4 -4,4"/>
<!-- Node1 -->
<g id="node1" class="node">
<title>Node1</title>
<g id="a_node1"><a xlink:title=" ">
<polygon fill="#bfbfbf" stroke="black" points="1192,-67.5 1192,-86.5 1324,-86.5 1324,-67.5 1192,-67.5"/>
<text text-anchor="middle" x="1258" y="-74.5" font-family="Helvetica,sans-Serif" font-size="10.00">ABLWallFrictionVelAlg.C</text>
</a>
</g>
</g>
<!-- Node2 -->
<g id="node2" class="node">
<title>Node2</title>
<g id="a_node2"><a xlink:title=" ">
<polygon fill="white" stroke="#bfbfbf" points="0,-0.5 0,-30.5 170,-30.5 170,-0.5 0,-0.5"/>
<text text-anchor="start" x="8" y="-18.5" font-family="Helvetica,sans-Serif" font-size="10.00">ngp_algorithms/ABLWallFriction</text>
<text text-anchor="middle" x="85" y="-7.5" font-family="Helvetica,sans-Serif" font-size="10.00">VelAlg.h</text>
</a>
</g>
</g>
<!-- Node1&#45;&gt;Node2 -->
<g id="edge1" class="edge">
<title>Node1&#45;&gt;Node2</title>
<path fill="none" stroke="midnightblue" d="M1191.83,-75.8C1024.21,-74.74 569.16,-68.45 180.05,-31.02"/>
<polygon fill="midnightblue" stroke="midnightblue" points="180.29,-27.53 170,-30.05 179.62,-34.5 180.29,-27.53"/>
</g>
<!-- Node3 -->
<g id="node3" class="node">
<title>Node3</title>
<g id="a_node3"><a xlink:title=" ">
<polygon fill="white" stroke="#bfbfbf" points="188.5,-6 188.5,-25 289.5,-25 289.5,-6 188.5,-6"/>
<text text-anchor="middle" x="239" y="-13" font-family="Helvetica,sans-Serif" font-size="10.00">BuildTemplates.h</text>
</a>
</g>
</g>
<!-- Node1&#45;&gt;Node3 -->
<g id="edge2" class="edge">
<title>Node1&#45;&gt;Node3</title>
<path fill="none" stroke="midnightblue" d="M1191.94,-74.57C1004.4,-70.26 471.07,-56.08 298,-31 291.7,-30.09 285.09,-28.8 278.66,-27.36"/>
<polygon fill="midnightblue" stroke="midnightblue" points="279.33,-23.92 268.79,-25.01 277.71,-30.73 279.33,-23.92"/>
</g>
<!-- Node4 -->
<g id="node4" class="node">
<title>Node4</title>
<g id="a_node4"><a xlink:title=" ">
<polygon fill="white" stroke="#bfbfbf" points="307.5,-6 307.5,-25 490.5,-25 490.5,-6 307.5,-6"/>
<text text-anchor="middle" x="399" y="-13" font-family="Helvetica,sans-Serif" font-size="10.00">master_element/MasterElement.h</text>
</a>
</g>
</g>
<!-- Node1&#45;&gt;Node4 -->
<g id="edge3" class="edge">
<title>Node1&#45;&gt;Node4</title>
<path fill="none" stroke="midnightblue" d="M1191.95,-73.93C1060.12,-69.39 755.1,-56.84 500,-31 487.88,-29.77 474.99,-28.16 462.61,-26.45"/>
<polygon fill="midnightblue" stroke="midnightblue" points="462.75,-22.94 452.36,-25.01 461.78,-29.87 462.75,-22.94"/>
</g>
<!-- Node5 -->
<g id="node5" class="node">
<title>Node5</title>
<g id="a_node5"><a xlink:title=" ">
<polygon fill="white" stroke="#bfbfbf" points="509,-0.5 509,-30.5 683,-30.5 683,-0.5 509,-0.5"/>
<text text-anchor="start" x="517" y="-18.5" font-family="Helvetica,sans-Serif" font-size="10.00">master_element/MasterElement</text>
<text text-anchor="middle" x="596" y="-7.5" font-family="Helvetica,sans-Serif" font-size="10.00">Repo.h</text>
</a>
</g>
</g>
<!-- Node1&#45;&gt;Node5 -->
<g id="edge4" class="edge">
<title>Node1&#45;&gt;Node5</title>
<path fill="none" stroke="midnightblue" d="M1191.63,-72.25C1087.61,-66.03 879.66,-52.24 693.08,-31.07"/>
<polygon fill="midnightblue" stroke="midnightblue" points="693.42,-27.59 683.09,-29.93 692.62,-34.54 693.42,-27.59"/>
</g>
<!-- Node6 -->
<g id="node6" class="node">
<title>Node6</title>
<g id="a_node6"><a xlink:title=" ">
<polygon fill="white" stroke="#bfbfbf" points="701,-6 701,-25 839,-25 839,-6 701,-6"/>
<text text-anchor="middle" x="770" y="-13" font-family="Helvetica,sans-Serif" font-size="10.00">ngp_utils/NgpLoopUtils.h</text>
</a>
</g>
</g>
<!-- Node1&#45;&gt;Node6 -->
<g id="edge5" class="edge">
<title>Node1&#45;&gt;Node6</title>
<path fill="none" stroke="midnightblue" d="M1191.77,-70.26C1110.55,-62.87 968.78,-48.83 848,-31 839.86,-29.8 831.28,-28.37 822.9,-26.88"/>
<polygon fill="midnightblue" stroke="midnightblue" points="823.28,-23.4 812.82,-25.05 822.03,-30.28 823.28,-23.4"/>
</g>
<!-- Node7 -->
<g id="node7" class="node">
<title>Node7</title>
<g id="a_node7"><a xlink:title=" ">
<polygon fill="white" stroke="#bfbfbf" points="857,-6 857,-25 991,-25 991,-6 857,-6"/>
<text text-anchor="middle" x="924" y="-13" font-family="Helvetica,sans-Serif" font-size="10.00">ngp_utils/NgpFieldOps.h</text>
</a>
</g>
</g>
<!-- Node1&#45;&gt;Node7 -->
<g id="edge6" class="edge">
<title>Node1&#45;&gt;Node7</title>
<path fill="none" stroke="midnightblue" d="M1207.53,-67.44C1155.49,-58.56 1072.01,-44.15 1000,-31 992.91,-29.71 985.46,-28.32 978.11,-26.93"/>
<polygon fill="midnightblue" stroke="midnightblue" points="978.66,-23.47 968.18,-25.05 977.36,-30.35 978.66,-23.47"/>
</g>
<!-- Node8 -->
<g id="node8" class="node">
<title>Node8</title>
<g id="a_node8"><a xlink:title=" ">
<polygon fill="white" stroke="#bfbfbf" points="1009.5,-6 1009.5,-25 1160.5,-25 1160.5,-6 1009.5,-6"/>
<text text-anchor="middle" x="1085" y="-13" font-family="Helvetica,sans-Serif" font-size="10.00">ngp_utils/NgpReduceUtils.h</text>
</a>
</g>
</g>
<!-- Node1&#45;&gt;Node8 -->
<g id="edge7" class="edge">
<title>Node1&#45;&gt;Node8</title>
<path fill="none" stroke="midnightblue" d="M1233.21,-67.48C1203.41,-57.22 1153.21,-39.96 1119.6,-28.4"/>
<polygon fill="midnightblue" stroke="midnightblue" points="1120.34,-24.95 1109.74,-25.01 1118.06,-31.57 1120.34,-24.95"/>
</g>
<!-- Node9 -->
<g id="node9" class="node">
<title>Node9</title>
<g id="a_node9"><a xlink:title=" ">
<polygon fill="white" stroke="#bfbfbf" points="1179,-6 1179,-25 1337,-25 1337,-6 1179,-6"/>
<text text-anchor="middle" x="1258" y="-13" font-family="Helvetica,sans-Serif" font-size="10.00">ngp_utils/NgpFieldManager.h</text>
</a>
</g>
</g>
<!-- Node1&#45;&gt;Node9 -->
<g id="edge8" class="edge">
<title>Node1&#45;&gt;Node9</title>
<path fill="none" stroke="midnightblue" d="M1258,-67.48C1258,-59.08 1258,-45.98 1258,-35.16"/>
<polygon fill="midnightblue" stroke="midnightblue" points="1261.5,-35.01 1258,-25.01 1254.5,-35.01 1261.5,-35.01"/>
</g>
<!-- Node10 -->
<g id="node10" class="node">
<title>Node10</title>
<g id="a_node10"><a xlink:title=" ">
<polygon fill="white" stroke="#bfbfbf" points="1354.5,-6 1354.5,-25 1411.5,-25 1411.5,-6 1354.5,-6"/>
<text text-anchor="middle" x="1383" y="-13" font-family="Helvetica,sans-Serif" font-size="10.00">Realm.h</text>
</a>
</g>
</g>
<!-- Node1&#45;&gt;Node10 -->
<g id="edge9" class="edge">
<title>Node1&#45;&gt;Node10</title>
<path fill="none" stroke="midnightblue" d="M1275.91,-67.48C1296.89,-57.49 1331.85,-40.85 1356.09,-29.31"/>
<polygon fill="midnightblue" stroke="midnightblue" points="1357.6,-32.47 1365.12,-25.01 1354.59,-26.15 1357.6,-32.47"/>
</g>
<!-- Node11 -->
<g id="node11" class="node">
<title>Node11</title>
<g id="a_node11"><a xlink:title=" ">
<polygon fill="white" stroke="#bfbfbf" points="1429.5,-6 1429.5,-25 1520.5,-25 1520.5,-6 1429.5,-6"/>
<text text-anchor="middle" x="1475" y="-13" font-family="Helvetica,sans-Serif" font-size="10.00">ScratchViews.h</text>
</a>
</g>
</g>
<!-- Node1&#45;&gt;Node11 -->
<g id="edge10" class="edge">
<title>Node1&#45;&gt;Node11</title>
<path fill="none" stroke="midnightblue" d="M1289.09,-67.48C1327.28,-57 1392.17,-39.21 1434.3,-27.66"/>
<polygon fill="midnightblue" stroke="midnightblue" points="1435.25,-31.03 1443.97,-25.01 1433.4,-24.28 1435.25,-31.03"/>
</g>
<!-- Node12 -->
<g id="node12" class="node">
<title>Node12</title>
<g id="a_node12"><a xlink:title=" ">
<polygon fill="white" stroke="#bfbfbf" points="1538.5,-6 1538.5,-25 1641.5,-25 1641.5,-6 1538.5,-6"/>
<text text-anchor="middle" x="1590" y="-13" font-family="Helvetica,sans-Serif" font-size="10.00">SolutionOptions.h</text>
</a>
</g>
</g>
<!-- Node1&#45;&gt;Node12 -->
<g id="edge11" class="edge">
<title>Node1&#45;&gt;Node12</title>
<path fill="none" stroke="midnightblue" d="M1317.12,-67.49C1372.38,-59.24 1457.06,-45.83 1530,-31 1535.38,-29.91 1541.01,-28.67 1546.58,-27.39"/>
<polygon fill="midnightblue" stroke="midnightblue" points="1547.53,-30.76 1556.46,-25.06 1545.92,-23.95 1547.53,-30.76"/>
</g>
<!-- Node13 -->
<g id="node13" class="node">
<title>Node13</title>
<g id="a_node13"><a xlink:title=" ">
<polygon fill="white" stroke="#bfbfbf" points="1659.5,-6 1659.5,-25 1762.5,-25 1762.5,-6 1659.5,-6"/>
<text text-anchor="middle" x="1711" y="-13" font-family="Helvetica,sans-Serif" font-size="10.00">utils/StkHelpers.h</text>
</a>
</g>
</g>
<!-- Node1&#45;&gt;Node13 -->
<g id="edge12" class="edge">
<title>Node1&#45;&gt;Node13</title>
<path fill="none" stroke="midnightblue" d="M1324.07,-70.94C1402.45,-64.35 1536.89,-51.24 1651,-31 1656.81,-29.97 1662.9,-28.71 1668.88,-27.37"/>
<polygon fill="midnightblue" stroke="midnightblue" points="1669.83,-30.74 1678.77,-25.06 1668.24,-23.93 1669.83,-30.74"/>
</g>
<!-- Node14 -->
<g id="node14" class="node">
<title>Node14</title>
<g id="a_node14"><a xlink:title=" ">
<polygon fill="white" stroke="#bfbfbf" points="1781,-6 1781,-25 1945,-25 1945,-6 1781,-6"/>
<text text-anchor="middle" x="1863" y="-13" font-family="Helvetica,sans-Serif" font-size="10.00">wind_energy/MoninObukhov.h</text>
</a>
</g>
</g>
<!-- Node1&#45;&gt;Node14 -->
<g id="edge13" class="edge">
<title>Node1&#45;&gt;Node14</title>
<path fill="none" stroke="midnightblue" d="M1324.29,-71.7C1422.34,-65 1611.75,-50.76 1772,-31 1782.23,-29.74 1793.07,-28.19 1803.57,-26.59"/>
<polygon fill="midnightblue" stroke="midnightblue" points="1804.16,-30.04 1813.5,-25.04 1803.08,-23.12 1804.16,-30.04"/>
</g>
<!-- Node15 -->
<g id="node15" class="node">
<title>Node15</title>
<g id="a_node15"><a xlink:title=" ">
<polygon fill="white" stroke="#bfbfbf" points="1963.5,-6 1963.5,-25 2100.5,-25 2100.5,-6 1963.5,-6"/>
<text text-anchor="middle" x="2032" y="-13" font-family="Helvetica,sans-Serif" font-size="10.00">stk_mesh/base/Field.hpp</text>
</a>
</g>
</g>
<!-- Node1&#45;&gt;Node15 -->
<g id="edge14" class="edge">
<title>Node1&#45;&gt;Node15</title>
<path fill="none" stroke="midnightblue" d="M1324.46,-74.34C1448.59,-70.65 1723.91,-59.72 1954,-31 1962.84,-29.9 1972.19,-28.43 1981.23,-26.84"/>
<polygon fill="midnightblue" stroke="midnightblue" points="1982.04,-30.25 1991.26,-25.02 1980.79,-23.36 1982.04,-30.25"/>
</g>
<!-- Node16 -->
<g id="node16" class="node">
<title>Node16</title>
<g id="a_node16"><a xlink:title=" ">
<polygon fill="white" stroke="#bfbfbf" points="2119,-6 2119,-25 2279,-25 2279,-6 2119,-6"/>
<text text-anchor="middle" x="2199" y="-13" font-family="Helvetica,sans-Serif" font-size="10.00">stk_mesh/base/NgpMesh.hpp</text>
</a>
</g>
</g>
<!-- Node1&#45;&gt;Node16 -->
<g id="edge15" class="edge">
<title>Node1&#45;&gt;Node16</title>
<path fill="none" stroke="midnightblue" d="M1324.21,-74.95C1467.75,-72.14 1818.21,-62.38 2110,-31 2120.5,-29.87 2131.64,-28.33 2142.36,-26.67"/>
<polygon fill="midnightblue" stroke="midnightblue" points="2143.15,-30.09 2152.48,-25.06 2142.05,-23.18 2143.15,-30.09"/>
</g>
</g>
</svg>
