<?xml version="1.0" encoding="UTF-8" standalone="no"?>
<!DOCTYPE svg PUBLIC "-//W3C//DTD SVG 1.1//EN"
 "http://www.w3.org/Graphics/SVG/1.1/DTD/svg11.dtd">
<!-- Generated by graphviz version 2.43.0 (0)
 -->
<!-- Title: ABLWallFluxesAlg.C Pages: 1 -->
<!--zoomable 95 -->
<svg id="main" version="1.1" xmlns="http://www.w3.org/2000/svg" xmlns:xlink="http://www.w3.org/1999/xlink" xml:space="preserve" onload="init(evt)">
<style type="text/css"><![CDATA[
.edge:hover path { stroke: red; }
.edge:hover polygon { stroke: red; fill: red; }
]]></style>
<script type="text/javascript"><![CDATA[
var edges = document.getElementsByTagName('g');
if (edges && edges.length) {
  for (var i=0;i<edges.length;i++) {
    if (edges[i].id.substr(0,4)=='edge') {
      edges[i].setAttribute('class','edge');
    }
  }
}
]]></script>
        <defs>
                <circle id="rim" cx="0" cy="0" r="7"/>
                <circle id="rim2" cx="0" cy="0" r="3.5"/>
                <g id="zoomPlus">
                        <use xlink:href="#rim" fill="#404040">
                                <set attributeName="fill" to="#808080" begin="zoomplus.mouseover" end="zoomplus.mouseout"/>
                        </use>
                        <path d="M-4,0h8M0,-4v8" fill="none" stroke="white" stroke-width="1.5" pointer-events="none"/>
                </g>
                <g id="zoomMin">
                        <use xlink:href="#rim" fill="#404040">
                                <set attributeName="fill" to="#808080" begin="zoomminus.mouseover" end="zoomminus.mouseout"/>
                        </use>
                        <path d="M-4,0h8" fill="none" stroke="white" stroke-width="1.5" pointer-events="none"/>
                </g>
                <g id="dirArrow">
                        <path fill="none" stroke="white" stroke-width="1.5" d="M0,-3.0v7 M-2.5,-0.5L0,-3.0L2.5,-0.5"/>
                </g>
               <g id="resetDef">
                       <use xlink:href="#rim2" fill="#404040">
                               <set attributeName="fill" to="#808080" begin="reset.mouseover" end="reset.mouseout"/>
                       </use>
               </g>
        </defs>

<script type="text/javascript">
var viewWidth = 2643;
var viewHeight = 95;
var sectionId = 'dynsection-0';
</script>
<script xlink:href="svgpan.js"/>
<svg id="graph" class="graph">
<g id="viewport">
<title>ABLWallFluxesAlg.C</title>
<polygon fill="white" stroke="transparent" points="-4,4 -4,-91 2639,-91 2639,4 -4,4"/>
<!-- Node1 -->
<g id="node1" class="node">
<title>Node1</title>
<g id="a_node1"><a xlink:title=" ">
<polygon fill="#bfbfbf" stroke="black" points="1322.5,-67.5 1322.5,-86.5 1435.5,-86.5 1435.5,-67.5 1322.5,-67.5"/>
<text text-anchor="middle" x="1379" y="-74.5" font-family="Helvetica,sans-Serif" font-size="10.00">ABLWallFluxesAlg.C</text>
</a>
</g>
</g>
<!-- Node2 -->
<g id="node2" class="node">
<title>Node2</title>
<g id="a_node2"><a xlink:title=" ">
<polygon fill="white" stroke="#bfbfbf" points="0,-0.5 0,-30.5 166,-30.5 166,-0.5 0,-0.5"/>
<text text-anchor="start" x="8" y="-18.5" font-family="Helvetica,sans-Serif" font-size="10.00">ngp_algorithms/ABLWallFluxes</text>
<text text-anchor="middle" x="83" y="-7.5" font-family="Helvetica,sans-Serif" font-size="10.00">Alg.h</text>
</a>
</g>
</g>
<!-- Node1&#45;&gt;Node2 -->
<g id="edge1" class="edge">
<title>Node1&#45;&gt;Node2</title>
<path fill="none" stroke="midnightblue" d="M1322.42,-76.27C1151.19,-76.58 623.4,-73.82 176.4,-31.05"/>
<polygon fill="midnightblue" stroke="midnightblue" points="176.48,-27.54 166.19,-30.07 175.81,-34.51 176.48,-27.54"/>
</g>
<!-- Node3 -->
<g id="node3" class="node">
<title>Node3</title>
<g id="a_node3"><a xlink:title=" ">
<polygon fill="white" stroke="#bfbfbf" points="184.5,-6 184.5,-25 285.5,-25 285.5,-6 184.5,-6"/>
<text text-anchor="middle" x="235" y="-13" font-family="Helvetica,sans-Serif" font-size="10.00">BuildTemplates.h</text>
</a>
</g>
</g>
<!-- Node1&#45;&gt;Node3 -->
<g id="edge2" class="edge">
<title>Node1&#45;&gt;Node3</title>
<path fill="none" stroke="midnightblue" d="M1322.24,-75.14C1128.69,-71.98 495.47,-59.64 294,-31 287.7,-30.1 281.08,-28.82 274.66,-27.39"/>
<polygon fill="midnightblue" stroke="midnightblue" points="275.33,-23.95 264.79,-25.05 273.71,-30.76 275.33,-23.95"/>
</g>
<!-- Node4 -->
<g id="node4" class="node">
<title>Node4</title>
<g id="a_node4"><a xlink:title=" ">
<polygon fill="white" stroke="#bfbfbf" points="303.5,-6 303.5,-25 486.5,-25 486.5,-6 303.5,-6"/>
<text text-anchor="middle" x="395" y="-13" font-family="Helvetica,sans-Serif" font-size="10.00">master_element/MasterElement.h</text>
</a>
</g>
</g>
<!-- Node1&#45;&gt;Node4 -->
<g id="edge3" class="edge">
<title>Node1&#45;&gt;Node4</title>
<path fill="none" stroke="midnightblue" d="M1322.31,-74.91C1181.95,-71.83 807.1,-61.19 496,-31 483.62,-29.8 470.43,-28.16 457.81,-26.43"/>
<polygon fill="midnightblue" stroke="midnightblue" points="458.22,-22.95 447.83,-25.02 457.24,-29.88 458.22,-22.95"/>
</g>
<!-- Node5 -->
<g id="node5" class="node">
<title>Node5</title>
<g id="a_node5"><a xlink:title=" ">
<polygon fill="white" stroke="#bfbfbf" points="505,-0.5 505,-30.5 679,-30.5 679,-0.5 505,-0.5"/>
<text text-anchor="start" x="513" y="-18.5" font-family="Helvetica,sans-Serif" font-size="10.00">master_element/MasterElement</text>
<text text-anchor="middle" x="592" y="-7.5" font-family="Helvetica,sans-Serif" font-size="10.00">Repo.h</text>
</a>
</g>
</g>
<!-- Node1&#45;&gt;Node5 -->
<g id="edge4" class="edge">
<title>Node1&#45;&gt;Node5</title>
<path fill="none" stroke="midnightblue" d="M1322.43,-73.94C1205.91,-69.36 930.53,-56.69 689.1,-31.06"/>
<polygon fill="midnightblue" stroke="midnightblue" points="689.4,-27.57 679.08,-29.98 688.65,-34.53 689.4,-27.57"/>
</g>
<!-- Node6 -->
<g id="node6" class="node">
<title>Node6</title>
<g id="a_node6"><a xlink:title=" ">
<polygon fill="white" stroke="#bfbfbf" points="697,-6 697,-25 835,-25 835,-6 697,-6"/>
<text text-anchor="middle" x="766" y="-13" font-family="Helvetica,sans-Serif" font-size="10.00">ngp_utils/NgpLoopUtils.h</text>
</a>
</g>
</g>
<!-- Node1&#45;&gt;Node6 -->
<g id="edge5" class="edge">
<title>Node1&#45;&gt;Node6</title>
<path fill="none" stroke="midnightblue" d="M1322.18,-73.09C1224.24,-67.66 1017.44,-54.36 844,-31 835.46,-29.85 826.44,-28.4 817.69,-26.86"/>
<polygon fill="midnightblue" stroke="midnightblue" points="818.03,-23.36 807.57,-25.02 816.79,-30.25 818.03,-23.36"/>
</g>
<!-- Node7 -->
<g id="node7" class="node">
<title>Node7</title>
<g id="a_node7"><a xlink:title=" ">
<polygon fill="white" stroke="#bfbfbf" points="853,-6 853,-25 987,-25 987,-6 853,-6"/>
<text text-anchor="middle" x="920" y="-13" font-family="Helvetica,sans-Serif" font-size="10.00">ngp_utils/NgpFieldOps.h</text>
</a>
</g>
</g>
<!-- Node1&#45;&gt;Node7 -->
<g id="edge6" class="edge">
<title>Node1&#45;&gt;Node7</title>
<path fill="none" stroke="midnightblue" d="M1322.37,-70.63C1247.48,-63.23 1111.47,-48.78 996,-31 988.16,-29.79 979.89,-28.37 971.81,-26.9"/>
<polygon fill="midnightblue" stroke="midnightblue" points="972.19,-23.41 961.72,-25.02 970.91,-30.29 972.19,-23.41"/>
</g>
<!-- Node8 -->
<g id="node8" class="node">
<title>Node8</title>
<g id="a_node8"><a xlink:title=" ">
<polygon fill="white" stroke="#bfbfbf" points="1005.5,-6 1005.5,-25 1156.5,-25 1156.5,-6 1005.5,-6"/>
<text text-anchor="middle" x="1081" y="-13" font-family="Helvetica,sans-Serif" font-size="10.00">ngp_utils/NgpReduceUtils.h</text>
</a>
</g>
</g>
<!-- Node1&#45;&gt;Node8 -->
<g id="edge7" class="edge">
<title>Node1&#45;&gt;Node8</title>
<path fill="none" stroke="midnightblue" d="M1336.3,-67.48C1282.86,-56.8 1191.35,-38.53 1133.63,-27.01"/>
<polygon fill="midnightblue" stroke="midnightblue" points="1134.11,-23.53 1123.62,-25.01 1132.74,-30.4 1134.11,-23.53"/>
</g>
<!-- Node9 -->
<g id="node9" class="node">
<title>Node9</title>
<g id="a_node9"><a xlink:title=" ">
<polygon fill="white" stroke="#bfbfbf" points="1175,-6 1175,-25 1333,-25 1333,-6 1175,-6"/>
<text text-anchor="middle" x="1254" y="-13" font-family="Helvetica,sans-Serif" font-size="10.00">ngp_utils/NgpFieldManager.h</text>
</a>
</g>
</g>
<!-- Node1&#45;&gt;Node9 -->
<g id="edge8" class="edge">
<title>Node1&#45;&gt;Node9</title>
<path fill="none" stroke="midnightblue" d="M1361.09,-67.48C1340.11,-57.49 1305.15,-40.85 1280.91,-29.31"/>
<polygon fill="midnightblue" stroke="midnightblue" points="1282.41,-26.15 1271.88,-25.01 1279.4,-32.47 1282.41,-26.15"/>
</g>
<!-- Node10 -->
<g id="node10" class="node">
<title>Node10</title>
<g id="a_node10"><a xlink:title=" ">
<polygon fill="white" stroke="#bfbfbf" points="1350.5,-6 1350.5,-25 1407.5,-25 1407.5,-6 1350.5,-6"/>
<text text-anchor="middle" x="1379" y="-13" font-family="Helvetica,sans-Serif" font-size="10.00">Realm.h</text>
</a>
</g>
</g>
<!-- Node1&#45;&gt;Node10 -->
<g id="edge9" class="edge">
<title>Node1&#45;&gt;Node10</title>
<path fill="none" stroke="midnightblue" d="M1379,-67.48C1379,-59.08 1379,-45.98 1379,-35.16"/>
<polygon fill="midnightblue" stroke="midnightblue" points="1382.5,-35.01 1379,-25.01 1375.5,-35.01 1382.5,-35.01"/>
</g>
<!-- Node11 -->
<g id="node11" class="node">
<title>Node11</title>
<g id="a_node11"><a xlink:title=" ">
<polygon fill="white" stroke="#bfbfbf" points="1425.5,-6 1425.5,-25 1516.5,-25 1516.5,-6 1425.5,-6"/>
<text text-anchor="middle" x="1471" y="-13" font-family="Helvetica,sans-Serif" font-size="10.00">ScratchViews.h</text>
</a>
</g>
</g>
<!-- Node1&#45;&gt;Node11 -->
<g id="edge10" class="edge">
<title>Node1&#45;&gt;Node11</title>
<path fill="none" stroke="midnightblue" d="M1392.18,-67.48C1407.07,-57.84 1431.54,-42.02 1449.27,-30.55"/>
<polygon fill="midnightblue" stroke="midnightblue" points="1451.35,-33.38 1457.84,-25.01 1447.55,-27.5 1451.35,-33.38"/>
</g>
<!-- Node12 -->
<g id="node12" class="node">
<title>Node12</title>
<g id="a_node12"><a xlink:title=" ">
<polygon fill="white" stroke="#bfbfbf" points="1534.5,-6 1534.5,-25 1637.5,-25 1637.5,-6 1534.5,-6"/>
<text text-anchor="middle" x="1586" y="-13" font-family="Helvetica,sans-Serif" font-size="10.00">SolutionOptions.h</text>
</a>
</g>
</g>
<!-- Node1&#45;&gt;Node12 -->
<g id="edge11" class="edge">
<title>Node1&#45;&gt;Node12</title>
<path fill="none" stroke="midnightblue" d="M1408.66,-67.48C1444.93,-57.05 1506.46,-39.36 1546.66,-27.81"/>
<polygon fill="midnightblue" stroke="midnightblue" points="1547.75,-31.14 1556.4,-25.01 1545.82,-24.41 1547.75,-31.14"/>
</g>
<!-- Node13 -->
<g id="node13" class="node">
<title>Node13</title>
<g id="a_node13"><a xlink:title=" ">
<polygon fill="white" stroke="#bfbfbf" points="1655.5,-6 1655.5,-25 1758.5,-25 1758.5,-6 1655.5,-6"/>
<text text-anchor="middle" x="1707" y="-13" font-family="Helvetica,sans-Serif" font-size="10.00">utils/StkHelpers.h</text>
</a>
</g>
</g>
<!-- Node1&#45;&gt;Node13 -->
<g id="edge12" class="edge">
<title>Node1&#45;&gt;Node13</title>
<path fill="none" stroke="midnightblue" d="M1435.68,-67.67C1490.07,-59.4 1574.43,-45.84 1647,-31 1652.38,-29.9 1658.01,-28.66 1663.58,-27.38"/>
<polygon fill="midnightblue" stroke="midnightblue" points="1664.53,-30.75 1673.46,-25.05 1662.92,-23.94 1664.53,-30.75"/>
</g>
<!-- Node14 -->
<g id="node14" class="node">
<title>Node14</title>
<g id="a_node14"><a xlink:title=" ">
<polygon fill="white" stroke="#bfbfbf" points="1777,-6 1777,-25 1941,-25 1941,-6 1777,-6"/>
<text text-anchor="middle" x="1859" y="-13" font-family="Helvetica,sans-Serif" font-size="10.00">wind_energy/MoninObukhov.h</text>
</a>
</g>
</g>
<!-- Node1&#45;&gt;Node14 -->
<g id="edge13" class="edge">
<title>Node1&#45;&gt;Node14</title>
<path fill="none" stroke="midnightblue" d="M1435.79,-70.2C1511.63,-62.28 1650.13,-47.2 1768,-31 1777.75,-29.66 1788.06,-28.13 1798.11,-26.57"/>
<polygon fill="midnightblue" stroke="midnightblue" points="1798.7,-30.02 1808.04,-25.01 1797.62,-23.11 1798.7,-30.02"/>
</g>
<!-- Node15 -->
<g id="node15" class="node">
<title>Node15</title>
<g id="a_node15"><a xlink:title=" ">
<polygon fill="white" stroke="#bfbfbf" points="1959,-6 1959,-25 2141,-25 2141,-6 1959,-6"/>
<text text-anchor="middle" x="2050" y="-13" font-family="Helvetica,sans-Serif" font-size="10.00">wind_energy/BdyLayerStatistics.h</text>
</a>
</g>
</g>
<!-- Node1&#45;&gt;Node15 -->
<g id="edge14" class="edge">
<title>Node1&#45;&gt;Node15</title>
<path fill="none" stroke="midnightblue" d="M1435.85,-72.75C1538.65,-66.61 1762.23,-51.99 1950,-31 1961.53,-29.71 1973.77,-28.12 1985.6,-26.47"/>
<polygon fill="midnightblue" stroke="midnightblue" points="1986.44,-29.89 1995.85,-25.01 1985.46,-22.96 1986.44,-29.89"/>
</g>
<!-- Node16 -->
<g id="node16" class="node">
<title>Node16</title>
<g id="a_node16"><a xlink:title=" ">
<polygon fill="white" stroke="#bfbfbf" points="2159,-6 2159,-25 2301,-25 2301,-6 2159,-6"/>
<text text-anchor="middle" x="2230" y="-13" font-family="Helvetica,sans-Serif" font-size="10.00">utils/LinearInterpolation.h</text>
</a>
</g>
</g>
<!-- Node1&#45;&gt;Node16 -->
<g id="edge15" class="edge">
<title>Node1&#45;&gt;Node16</title>
<path fill="none" stroke="midnightblue" d="M1435.79,-75.03C1563.73,-72.35 1884.06,-62.74 2150,-31 2159.16,-29.91 2168.86,-28.43 2178.22,-26.83"/>
<polygon fill="midnightblue" stroke="midnightblue" points="2178.97,-30.25 2188.21,-25.06 2177.75,-23.36 2178.97,-30.25"/>
</g>
<!-- Node17 -->
<g id="node17" class="node">
<title>Node17</title>
<g id="a_node17"><a xlink:title=" ">
<polygon fill="white" stroke="#bfbfbf" points="2319.5,-6 2319.5,-25 2456.5,-25 2456.5,-6 2319.5,-6"/>
<text text-anchor="middle" x="2388" y="-13" font-family="Helvetica,sans-Serif" font-size="10.00">stk_mesh/base/Field.hpp</text>
</a>
</g>
</g>
<!-- Node1&#45;&gt;Node17 -->
<g id="edge16" class="edge">
<title>Node1&#45;&gt;Node17</title>
<path fill="none" stroke="midnightblue" d="M1435.63,-75.93C1581.22,-75.17 1980.3,-69.43 2310,-31 2318.95,-29.96 2328.41,-28.5 2337.55,-26.91"/>
<polygon fill="midnightblue" stroke="midnightblue" points="2338.46,-30.3 2347.67,-25.07 2337.21,-23.41 2338.46,-30.3"/>
</g>
<!-- Node18 -->
<g id="node18" class="node">
<title>Node18</title>
<g id="a_node18"><a xlink:title=" ">
<polygon fill="white" stroke="#bfbfbf" points="2475,-6 2475,-25 2635,-25 2635,-6 2475,-6"/>
<text text-anchor="middle" x="2555" y="-13" font-family="Helvetica,sans-Serif" font-size="10.00">stk_mesh/base/NgpMesh.hpp</text>
</a>
</g>
</g>
<!-- Node1&#45;&gt;Node18 -->
<g id="edge17" class="edge">
<title>Node1&#45;&gt;Node18</title>
<path fill="none" stroke="midnightblue" d="M1435.75,-76.05C1597.29,-75.67 2073.28,-70.97 2466,-31 2476.85,-29.9 2488.39,-28.32 2499.43,-26.61"/>
<polygon fill="midnightblue" stroke="midnightblue" points="2500.09,-30.05 2509.41,-25.01 2498.98,-23.14 2500.09,-30.05"/>
</g>
</g>
</svg>
        <g id="navigator" transform="translate(0 0)" fill="#404254">
                <rect fill="#f2f5e9" fill-opacity="0.5" stroke="#606060" stroke-width=".5" x="0" y="0" width="60" height="60"/>
                <use id="zoomplus" xlink:href="#zoomPlus" x="17" y="9" onmousedown="handleZoom(evt,'in')"/>
                <use id="zoomminus" xlink:href="#zoomMin" x="42" y="9" onmousedown="handleZoom(evt,'out')"/>
                <use id="reset" xlink:href="#resetDef" x="30" y="36" onmousedown="handleReset()"/>
                <g id="arrowUp" xlink:href="#dirArrow" transform="translate(30 24)" onmousedown="handlePan(0,-1)">
                  <use xlink:href="#rim" fill="#404040">
                        <set attributeName="fill" to="#808080" begin="arrowUp.mouseover" end="arrowUp.mouseout"/>
                  </use>
                  <path fill="none" stroke="white" stroke-width="1.5" d="M0,-3.0v7 M-2.5,-0.5L0,-3.0L2.5,-0.5"/>
                </g>
                <g id="arrowRight" xlink:href="#dirArrow" transform="rotate(90) translate(36 -43)" onmousedown="handlePan(1,0)">
                  <use xlink:href="#rim" fill="#404040">
                        <set attributeName="fill" to="#808080" begin="arrowRight.mouseover" end="arrowRight.mouseout"/>
                  </use>
                  <path fill="none" stroke="white" stroke-width="1.5" d="M0,-3.0v7 M-2.5,-0.5L0,-3.0L2.5,-0.5"/>
                </g>
                <g id="arrowDown" xlink:href="#dirArrow" transform="rotate(180) translate(-30 -48)" onmousedown="handlePan(0,1)">
                  <use xlink:href="#rim" fill="#404040">
                        <set attributeName="fill" to="#808080" begin="arrowDown.mouseover" end="arrowDown.mouseout"/>
                  </use>
                  <path fill="none" stroke="white" stroke-width="1.5" d="M0,-3.0v7 M-2.5,-0.5L0,-3.0L2.5,-0.5"/>
                </g>
                <g id="arrowLeft" xlink:href="#dirArrow" transform="rotate(270) translate(-36 17)" onmousedown="handlePan(-1,0)">
                  <use xlink:href="#rim" fill="#404040">
                        <set attributeName="fill" to="#808080" begin="arrowLeft.mouseover" end="arrowLeft.mouseout"/>
                  </use>
                  <path fill="none" stroke="white" stroke-width="1.5" d="M0,-3.0v7 M-2.5,-0.5L0,-3.0L2.5,-0.5"/>
                </g>
        </g>
        <svg viewBox="0 0 15 15" width="100%" height="30px" preserveAspectRatio="xMaxYMin meet">
         <g id="arrow_out" transform="scale(0.3 0.3)">
          <a xlink:href="_a_b_l_wall_fluxes_alg_8_c__incl_org.svg" target="_base">
           <rect id="button" ry="5" rx="5" y="6" x="6" height="38" width="38"
                fill="#f2f5e9" fill-opacity="0.5" stroke="#606060" stroke-width="1.0"/>
           <path id="arrow"
             d="M 11.500037,31.436501 C 11.940474,20.09759 22.043105,11.32322 32.158766,21.979434 L 37.068811,17.246167 C 37.068811,17.246167 37.088388,32 37.088388,32 L 22.160133,31.978069 C 22.160133,31.978069 26.997745,27.140456 26.997745,27.140456 C 18.528582,18.264221 13.291696,25.230495 11.500037,31.436501 z"
             style="fill:#404040;"/>
          </a>
         </g>
        </svg>
</svg>
