<?xml version="1.0" encoding="UTF-8" standalone="no"?>
<!DOCTYPE svg PUBLIC "-//W3C//DTD SVG 1.1//EN"
 "http://www.w3.org/Graphics/SVG/1.1/DTD/svg11.dtd">
<!-- Generated by graphviz version 2.43.0 (0)
 -->
<!-- Title: AMSAvgMdotEdgeAlg.C Pages: 1 -->
<svg width="1028pt" height="95pt"
 viewBox="0.00 0.00 1027.50 95.00" xmlns="http://www.w3.org/2000/svg" xmlns:xlink="http://www.w3.org/1999/xlink">
<g id="graph0" class="graph" transform="scale(1 1) rotate(0) translate(4 91)">
<title>AMSAvgMdotEdgeAlg.C</title>
<polygon fill="white" stroke="transparent" points="-4,4 -4,-91 1023.5,-91 1023.5,4 -4,4"/>
<!-- Node1 -->
<g id="node1" class="node">
<title>Node1</title>
<g id="a_node1"><a xlink:title=" ">
<polygon fill="#bfbfbf" stroke="black" points="501,-67.5 501,-86.5 632,-86.5 632,-67.5 501,-67.5"/>
<text text-anchor="middle" x="566.5" y="-74.5" font-family="Helvetica,sans-Serif" font-size="10.00">AMSAvgMdotEdgeAlg.C</text>
</a>
</g>
</g>
<!-- Node2 -->
<g id="node2" class="node">
<title>Node2</title>
<g id="a_node2"><a xlink:title=" ">
<polygon fill="white" stroke="#bfbfbf" points="0,-0.5 0,-30.5 161,-30.5 161,-0.5 0,-0.5"/>
<text text-anchor="start" x="8" y="-18.5" font-family="Helvetica,sans-Serif" font-size="10.00">ngp_algorithms/AMSAvgMdot</text>
<text text-anchor="middle" x="80.5" y="-7.5" font-family="Helvetica,sans-Serif" font-size="10.00">EdgeAlg.h</text>
</a>
</g>
</g>
<!-- Node1&#45;&gt;Node2 -->
<g id="edge1" class="edge">
<title>Node1&#45;&gt;Node2</title>
<path fill="none" stroke="midnightblue" d="M500.87,-69.49C424.29,-61.68 293.64,-47.69 171.34,-31.08"/>
<polygon fill="midnightblue" stroke="midnightblue" points="171.81,-27.61 161.43,-29.72 170.86,-34.54 171.81,-27.61"/>
</g>
<!-- Node3 -->
<g id="node3" class="node">
<title>Node3</title>
<g id="a_node3"><a xlink:title=" ">
<polygon fill="white" stroke="#bfbfbf" points="179.5,-6 179.5,-25 317.5,-25 317.5,-6 179.5,-6"/>
<text text-anchor="middle" x="248.5" y="-13" font-family="Helvetica,sans-Serif" font-size="10.00">ngp_utils/NgpLoopUtils.h</text>
</a>
</g>
</g>
<!-- Node1&#45;&gt;Node3 -->
<g id="edge2" class="edge">
<title>Node1&#45;&gt;Node3</title>
<path fill="none" stroke="midnightblue" d="M520.94,-67.48C463.67,-56.76 365.45,-38.38 303.9,-26.87"/>
<polygon fill="midnightblue" stroke="midnightblue" points="304.45,-23.41 293.98,-25.01 303.16,-30.29 304.45,-23.41"/>
</g>
<!-- Node4 -->
<g id="node4" class="node">
<title>Node4</title>
<g id="a_node4"><a xlink:title=" ">
<polygon fill="white" stroke="#bfbfbf" points="335.5,-6 335.5,-25 469.5,-25 469.5,-6 335.5,-6"/>
<text text-anchor="middle" x="402.5" y="-13" font-family="Helvetica,sans-Serif" font-size="10.00">ngp_utils/NgpFieldOps.h</text>
</a>
</g>
</g>
<!-- Node1&#45;&gt;Node4 -->
<g id="edge3" class="edge">
<title>Node1&#45;&gt;Node4</title>
<path fill="none" stroke="midnightblue" d="M543,-67.48C514.87,-57.27 467.57,-40.11 435.71,-28.55"/>
<polygon fill="midnightblue" stroke="midnightblue" points="436.55,-25.13 425.95,-25.01 434.16,-31.71 436.55,-25.13"/>
</g>
<!-- Node5 -->
<g id="node5" class="node">
<title>Node5</title>
<g id="a_node5"><a xlink:title=" ">
<polygon fill="white" stroke="#bfbfbf" points="487.5,-6 487.5,-25 645.5,-25 645.5,-6 487.5,-6"/>
<text text-anchor="middle" x="566.5" y="-13" font-family="Helvetica,sans-Serif" font-size="10.00">ngp_utils/NgpFieldManager.h</text>
</a>
</g>
</g>
<!-- Node1&#45;&gt;Node5 -->
<g id="edge4" class="edge">
<title>Node1&#45;&gt;Node5</title>
<path fill="none" stroke="midnightblue" d="M566.5,-67.48C566.5,-59.08 566.5,-45.98 566.5,-35.16"/>
<polygon fill="midnightblue" stroke="midnightblue" points="570,-35.01 566.5,-25.01 563,-35.01 570,-35.01"/>
</g>
<!-- Node6 -->
<g id="node6" class="node">
<title>Node6</title>
<g id="a_node6"><a xlink:title=" ">
<polygon fill="white" stroke="#bfbfbf" points="663,-6 663,-25 720,-25 720,-6 663,-6"/>
<text text-anchor="middle" x="691.5" y="-13" font-family="Helvetica,sans-Serif" font-size="10.00">Realm.h</text>
</a>
</g>
</g>
<!-- Node1&#45;&gt;Node6 -->
<g id="edge5" class="edge">
<title>Node1&#45;&gt;Node6</title>
<path fill="none" stroke="midnightblue" d="M584.41,-67.48C605.39,-57.49 640.35,-40.85 664.59,-29.31"/>
<polygon fill="midnightblue" stroke="midnightblue" points="666.1,-32.47 673.62,-25.01 663.09,-26.15 666.1,-32.47"/>
</g>
<!-- Node7 -->
<g id="node7" class="node">
<title>Node7</title>
<g id="a_node7"><a xlink:title=" ">
<polygon fill="white" stroke="#bfbfbf" points="738,-6 738,-25 841,-25 841,-6 738,-6"/>
<text text-anchor="middle" x="789.5" y="-13" font-family="Helvetica,sans-Serif" font-size="10.00">utils/StkHelpers.h</text>
</a>
</g>
</g>
<!-- Node1&#45;&gt;Node7 -->
<g id="edge6" class="edge">
<title>Node1&#45;&gt;Node7</title>
<path fill="none" stroke="midnightblue" d="M598.45,-67.48C637.7,-57 704.38,-39.21 747.67,-27.66"/>
<polygon fill="midnightblue" stroke="midnightblue" points="748.85,-30.97 757.61,-25.01 747.04,-24.21 748.85,-30.97"/>
</g>
<!-- Node8 -->
<g id="node8" class="node">
<title>Node8</title>
<g id="a_node8"><a xlink:title=" ">
<polygon fill="white" stroke="#bfbfbf" points="859.5,-6 859.5,-25 1019.5,-25 1019.5,-6 859.5,-6"/>
<text text-anchor="middle" x="939.5" y="-13" font-family="Helvetica,sans-Serif" font-size="10.00">stk_mesh/base/NgpMesh.hpp</text>
</a>
</g>
</g>
<!-- Node1&#45;&gt;Node8 -->
<g id="edge7" class="edge">
<title>Node1&#45;&gt;Node8</title>
<path fill="none" stroke="midnightblue" d="M620.69,-67.49C677.85,-58.49 770.53,-43.85 850.5,-31 859.15,-29.61 868.27,-28.14 877.24,-26.68"/>
<polygon fill="midnightblue" stroke="midnightblue" points="877.96,-30.11 887.27,-25.05 876.84,-23.2 877.96,-30.11"/>
</g>
</g>
</svg>
