<?xml version="1.0" encoding="UTF-8" standalone="no"?>
<!DOCTYPE svg PUBLIC "-//W3C//DTD SVG 1.1//EN"
 "http://www.w3.org/Graphics/SVG/1.1/DTD/svg11.dtd">
<!-- Generated by graphviz version 2.43.0 (0)
 -->
<!-- Title: AMSAlgDriver.C Pages: 1 -->
<svg width="2283pt" height="95pt"
 viewBox="0.00 0.00 2283.00 95.00" xmlns="http://www.w3.org/2000/svg" xmlns:xlink="http://www.w3.org/1999/xlink">
<g id="graph0" class="graph" transform="scale(1 1) rotate(0) translate(4 91)">
<title>AMSAlgDriver.C</title>
<polygon fill="white" stroke="transparent" points="-4,4 -4,-91 2279,-91 2279,4 -4,4"/>
<!-- Node1 -->
<g id="node1" class="node">
<title>Node1</title>
<g id="a_node1"><a xlink:title=" ">
<polygon fill="#bfbfbf" stroke="black" points="951.5,-67.5 951.5,-86.5 1045.5,-86.5 1045.5,-67.5 951.5,-67.5"/>
<text text-anchor="middle" x="998.5" y="-74.5" font-family="Helvetica,sans-Serif" font-size="10.00">AMSAlgDriver.C</text>
</a>
</g>
</g>
<!-- Node2 -->
<g id="node2" class="node">
<title>Node2</title>
<g id="a_node2"><a xlink:title=" ">
<polygon fill="white" stroke="#bfbfbf" points="0,-6 0,-25 93,-25 93,-6 0,-6"/>
<text text-anchor="middle" x="46.5" y="-13" font-family="Helvetica,sans-Serif" font-size="10.00">AMSAlgDriver.h</text>
</a>
</g>
</g>
<!-- Node1&#45;&gt;Node2 -->
<g id="edge1" class="edge">
<title>Node1&#45;&gt;Node2</title>
<path fill="none" stroke="midnightblue" d="M951.33,-74.9C791.13,-70.95 268.59,-56.4 102.5,-31 96.65,-30.11 90.52,-28.85 84.56,-27.46"/>
<polygon fill="midnightblue" stroke="midnightblue" points="85.31,-24.04 74.76,-25.01 83.61,-30.83 85.31,-24.04"/>
</g>
<!-- Node3 -->
<g id="node3" class="node">
<title>Node3</title>
<g id="a_node3"><a xlink:title=" ">
<polygon fill="white" stroke="#bfbfbf" points="111.5,-0.5 111.5,-30.5 285.5,-30.5 285.5,-0.5 111.5,-0.5"/>
<text text-anchor="start" x="119.5" y="-18.5" font-family="Helvetica,sans-Serif" font-size="10.00">master_element/MasterElement</text>
<text text-anchor="middle" x="198.5" y="-7.5" font-family="Helvetica,sans-Serif" font-size="10.00">Repo.h</text>
</a>
</g>
</g>
<!-- Node1&#45;&gt;Node3 -->
<g id="edge2" class="edge">
<title>Node1&#45;&gt;Node3</title>
<path fill="none" stroke="midnightblue" d="M951.42,-74.39C839.56,-70.27 548.89,-57.79 295.71,-31.07"/>
<polygon fill="midnightblue" stroke="midnightblue" points="295.89,-27.57 285.58,-29.99 295.15,-34.53 295.89,-27.57"/>
</g>
<!-- Node4 -->
<g id="node4" class="node">
<title>Node4</title>
<g id="a_node4"><a xlink:title=" ">
<polygon fill="white" stroke="#bfbfbf" points="304,-6 304,-25 361,-25 361,-6 304,-6"/>
<text text-anchor="middle" x="332.5" y="-13" font-family="Helvetica,sans-Serif" font-size="10.00">Realm.h</text>
</a>
</g>
</g>
<!-- Node1&#45;&gt;Node4 -->
<g id="edge3" class="edge">
<title>Node1&#45;&gt;Node4</title>
<path fill="none" stroke="midnightblue" d="M951.25,-74.46C824.72,-70.06 480.29,-56.06 369.5,-31 366.5,-30.32 363.43,-29.44 360.39,-28.45"/>
<polygon fill="midnightblue" stroke="midnightblue" points="361.57,-25.15 350.98,-25 359.17,-31.73 361.57,-25.15"/>
</g>
<!-- Node5 -->
<g id="node5" class="node">
<title>Node5</title>
<g id="a_node5"><a xlink:title=" ">
<polygon fill="white" stroke="#bfbfbf" points="379,-6 379,-25 482,-25 482,-6 379,-6"/>
<text text-anchor="middle" x="430.5" y="-13" font-family="Helvetica,sans-Serif" font-size="10.00">SolutionOptions.h</text>
</a>
</g>
</g>
<!-- Node1&#45;&gt;Node5 -->
<g id="edge4" class="edge">
<title>Node1&#45;&gt;Node5</title>
<path fill="none" stroke="midnightblue" d="M951.28,-74.16C861.18,-70.14 658.69,-58.61 490.5,-31 484.54,-30.02 478.29,-28.77 472.18,-27.41"/>
<polygon fill="midnightblue" stroke="midnightblue" points="472.61,-23.92 462.08,-25.06 471.03,-30.74 472.61,-23.92"/>
</g>
<!-- Node6 -->
<g id="node6" class="node">
<title>Node6</title>
<g id="a_node6"><a xlink:title=" ">
<polygon fill="white" stroke="#bfbfbf" points="500,-6 500,-25 603,-25 603,-6 500,-6"/>
<text text-anchor="middle" x="551.5" y="-13" font-family="Helvetica,sans-Serif" font-size="10.00">utils/StkHelpers.h</text>
</a>
</g>
</g>
<!-- Node1&#45;&gt;Node6 -->
<g id="edge5" class="edge">
<title>Node1&#45;&gt;Node6</title>
<path fill="none" stroke="midnightblue" d="M951.3,-72.29C878.3,-66.16 733.75,-52.4 612.5,-31 606.59,-29.96 600.41,-28.69 594.33,-27.35"/>
<polygon fill="midnightblue" stroke="midnightblue" points="594.81,-23.87 584.28,-25.04 593.24,-30.69 594.81,-23.87"/>
</g>
<!-- Node7 -->
<g id="node7" class="node">
<title>Node7</title>
<g id="a_node7"><a xlink:title=" ">
<polygon fill="white" stroke="#bfbfbf" points="621.5,-6 621.5,-25 741.5,-25 741.5,-6 621.5,-6"/>
<text text-anchor="middle" x="681.5" y="-13" font-family="Helvetica,sans-Serif" font-size="10.00">ngp_utils/NgpTypes.h</text>
</a>
</g>
</g>
<!-- Node1&#45;&gt;Node7 -->
<g id="edge6" class="edge">
<title>Node1&#45;&gt;Node7</title>
<path fill="none" stroke="midnightblue" d="M951.35,-67.84C901.4,-59.11 820.28,-44.66 750.5,-31 744.27,-29.78 737.74,-28.46 731.27,-27.13"/>
<polygon fill="midnightblue" stroke="midnightblue" points="731.74,-23.65 721.23,-25.05 730.31,-30.51 731.74,-23.65"/>
</g>
<!-- Node8 -->
<g id="node8" class="node">
<title>Node8</title>
<g id="a_node8"><a xlink:title=" ">
<polygon fill="white" stroke="#bfbfbf" points="760,-6 760,-25 901,-25 901,-6 760,-6"/>
<text text-anchor="middle" x="830.5" y="-13" font-family="Helvetica,sans-Serif" font-size="10.00">ngp_utils/NgpFieldBLAS.h</text>
</a>
</g>
</g>
<!-- Node1&#45;&gt;Node8 -->
<g id="edge7" class="edge">
<title>Node1&#45;&gt;Node8</title>
<path fill="none" stroke="midnightblue" d="M974.43,-67.48C945.49,-57.22 896.74,-39.96 864.1,-28.4"/>
<polygon fill="midnightblue" stroke="midnightblue" points="865.12,-25.05 854.53,-25.01 862.78,-31.65 865.12,-25.05"/>
</g>
<!-- Node9 -->
<g id="node9" class="node">
<title>Node9</title>
<g id="a_node9"><a xlink:title=" ">
<polygon fill="white" stroke="#bfbfbf" points="919.5,-6 919.5,-25 1077.5,-25 1077.5,-6 919.5,-6"/>
<text text-anchor="middle" x="998.5" y="-13" font-family="Helvetica,sans-Serif" font-size="10.00">ngp_utils/NgpFieldManager.h</text>
</a>
</g>
</g>
<!-- Node1&#45;&gt;Node9 -->
<g id="edge8" class="edge">
<title>Node1&#45;&gt;Node9</title>
<path fill="none" stroke="midnightblue" d="M998.5,-67.48C998.5,-59.08 998.5,-45.98 998.5,-35.16"/>
<polygon fill="midnightblue" stroke="midnightblue" points="1002,-35.01 998.5,-25.01 995,-35.01 1002,-35.01"/>
</g>
<!-- Node10 -->
<g id="node10" class="node">
<title>Node10</title>
<g id="a_node10"><a xlink:title=" ">
<polygon fill="white" stroke="#bfbfbf" points="1095.5,-0.5 1095.5,-30.5 1253.5,-30.5 1253.5,-0.5 1095.5,-0.5"/>
<text text-anchor="start" x="1103.5" y="-18.5" font-family="Helvetica,sans-Serif" font-size="10.00">ngp_algorithms/MetricTensor</text>
<text text-anchor="middle" x="1174.5" y="-7.5" font-family="Helvetica,sans-Serif" font-size="10.00">ElemAlg.h</text>
</a>
</g>
</g>
<!-- Node1&#45;&gt;Node10 -->
<g id="edge9" class="edge">
<title>Node1&#45;&gt;Node10</title>
<path fill="none" stroke="midnightblue" d="M1023.72,-67.48C1049.56,-58.74 1090.47,-44.91 1123.16,-33.86"/>
<polygon fill="midnightblue" stroke="midnightblue" points="1124.67,-37.04 1133.02,-30.52 1122.43,-30.41 1124.67,-37.04"/>
</g>
<!-- Node11 -->
<g id="node11" class="node">
<title>Node11</title>
<g id="a_node11"><a xlink:title=" ">
<polygon fill="white" stroke="#bfbfbf" points="1271.5,-6 1271.5,-25 1431.5,-25 1431.5,-6 1271.5,-6"/>
<text text-anchor="middle" x="1351.5" y="-13" font-family="Helvetica,sans-Serif" font-size="10.00">stk_mesh/base/NgpMesh.hpp</text>
</a>
</g>
</g>
<!-- Node1&#45;&gt;Node11 -->
<g id="edge10" class="edge">
<title>Node1&#45;&gt;Node11</title>
<path fill="none" stroke="midnightblue" d="M1045.74,-68.04C1109.04,-57.37 1221.44,-38.42 1290.9,-26.71"/>
<polygon fill="midnightblue" stroke="midnightblue" points="1291.55,-30.15 1300.83,-25.04 1290.39,-23.25 1291.55,-30.15"/>
</g>
<!-- Node12 -->
<g id="node12" class="node">
<title>Node12</title>
<g id="a_node12"><a xlink:title=" ">
<polygon fill="white" stroke="#bfbfbf" points="1450,-6 1450,-25 1609,-25 1609,-6 1450,-6"/>
<text text-anchor="middle" x="1529.5" y="-13" font-family="Helvetica,sans-Serif" font-size="10.00">stk_mesh/base/BulkData.hpp</text>
</a>
</g>
</g>
<!-- Node1&#45;&gt;Node12 -->
<g id="edge11" class="edge">
<title>Node1&#45;&gt;Node12</title>
<path fill="none" stroke="midnightblue" d="M1045.71,-72.13C1126.66,-65.29 1297.12,-49.96 1440.5,-31 1450.28,-29.71 1460.63,-28.17 1470.69,-26.59"/>
<polygon fill="midnightblue" stroke="midnightblue" points="1471.29,-30.04 1480.61,-25.01 1470.19,-23.13 1471.29,-30.04"/>
</g>
<!-- Node13 -->
<g id="node13" class="node">
<title>Node13</title>
<g id="a_node13"><a xlink:title=" ">
<polygon fill="white" stroke="#bfbfbf" points="1627,-6 1627,-25 1764,-25 1764,-6 1627,-6"/>
<text text-anchor="middle" x="1695.5" y="-13" font-family="Helvetica,sans-Serif" font-size="10.00">stk_mesh/base/Field.hpp</text>
</a>
</g>
</g>
<!-- Node1&#45;&gt;Node13 -->
<g id="edge12" class="edge">
<title>Node1&#45;&gt;Node13</title>
<path fill="none" stroke="midnightblue" d="M1045.74,-74.4C1149.66,-70.49 1405.8,-58.66 1618.5,-31 1627.03,-29.89 1636.05,-28.44 1644.79,-26.9"/>
<polygon fill="midnightblue" stroke="midnightblue" points="1645.67,-30.29 1654.88,-25.04 1644.41,-23.41 1645.67,-30.29"/>
</g>
<!-- Node14 -->
<g id="node14" class="node">
<title>Node14</title>
<g id="a_node14"><a xlink:title=" ">
<polygon fill="white" stroke="#bfbfbf" points="1782,-6 1782,-25 1955,-25 1955,-6 1782,-6"/>
<text text-anchor="middle" x="1868.5" y="-13" font-family="Helvetica,sans-Serif" font-size="10.00">stk_mesh/base/FieldParallel.hpp</text>
</a>
</g>
</g>
<!-- Node1&#45;&gt;Node14 -->
<g id="edge13" class="edge">
<title>Node1&#45;&gt;Node14</title>
<path fill="none" stroke="midnightblue" d="M1045.8,-74.79C1167.05,-71.36 1498.72,-59.88 1773.5,-31 1784.79,-29.81 1796.8,-28.23 1808.33,-26.55"/>
<polygon fill="midnightblue" stroke="midnightblue" points="1808.95,-30 1818.32,-25.05 1807.92,-23.07 1808.95,-30"/>
</g>
<!-- Node15 -->
<g id="node15" class="node">
<title>Node15</title>
<g id="a_node15"><a xlink:title=" ">
<polygon fill="white" stroke="#bfbfbf" points="1973.5,-6 1973.5,-25 2135.5,-25 2135.5,-6 1973.5,-6"/>
<text text-anchor="middle" x="2054.5" y="-13" font-family="Helvetica,sans-Serif" font-size="10.00">stk_mesh/base/MetaData.hpp</text>
</a>
</g>
</g>
<!-- Node1&#45;&gt;Node15 -->
<g id="edge14" class="edge">
<title>Node1&#45;&gt;Node15</title>
<path fill="none" stroke="midnightblue" d="M1045.89,-75.69C1186.41,-74.36 1612.97,-67.39 1964.5,-31 1975.35,-29.88 1986.88,-28.31 1997.93,-26.61"/>
<polygon fill="midnightblue" stroke="midnightblue" points="1998.59,-30.05 2007.92,-25.03 1997.5,-23.14 1998.59,-30.05"/>
</g>
<!-- Node16 -->
<g id="node16" class="node">
<title>Node16</title>
<g id="a_node16"><a xlink:title=" ">
<polygon fill="white" stroke="#bfbfbf" points="2154,-6 2154,-25 2275,-25 2275,-6 2154,-6"/>
<text text-anchor="middle" x="2214.5" y="-13" font-family="Helvetica,sans-Serif" font-size="10.00">stk_io/IossBridge.hpp</text>
</a>
</g>
</g>
<!-- Node1&#45;&gt;Node16 -->
<g id="edge15" class="edge">
<title>Node1&#45;&gt;Node16</title>
<path fill="none" stroke="midnightblue" d="M1045.61,-75.19C1233.08,-71.8 1926.48,-57.68 2144.5,-31 2152.56,-30.01 2161.07,-28.59 2169.27,-27"/>
<polygon fill="midnightblue" stroke="midnightblue" points="2169.97,-30.43 2179.08,-25.02 2168.58,-23.57 2169.97,-30.43"/>
</g>
</g>
</svg>
