<?xml version="1.0" encoding="UTF-8" standalone="no"?>
<!DOCTYPE svg PUBLIC "-//W3C//DTD SVG 1.1//EN"
 "http://www.w3.org/Graphics/SVG/1.1/DTD/svg11.dtd">
<!-- Generated by graphviz version 2.43.0 (0)
 -->
<!-- Title: AMSMomentumEdgePecletAlg.C Pages: 1 -->
<svg width="1885pt" height="95pt"
 viewBox="0.00 0.00 1885.00 95.00" xmlns="http://www.w3.org/2000/svg" xmlns:xlink="http://www.w3.org/1999/xlink">
<g id="graph0" class="graph" transform="scale(1 1) rotate(0) translate(4 91)">
<title>AMSMomentumEdgePecletAlg.C</title>
<polygon fill="white" stroke="transparent" points="-4,4 -4,-91 1881,-91 1881,4 -4,4"/>
<!-- Node1 -->
<g id="node1" class="node">
<title>Node1</title>
<g id="a_node1"><a xlink:title=" ">
<polygon fill="#bfbfbf" stroke="black" points="730,-67.5 730,-86.5 904,-86.5 904,-67.5 730,-67.5"/>
<text text-anchor="middle" x="817" y="-74.5" font-family="Helvetica,sans-Serif" font-size="10.00">AMSMomentumEdgePecletAlg.C</text>
</a>
</g>
</g>
<!-- Node2 -->
<g id="node2" class="node">
<title>Node2</title>
<g id="a_node2"><a xlink:title=" ">
<polygon fill="white" stroke="#bfbfbf" points="0,-0.5 0,-30.5 162,-30.5 162,-0.5 0,-0.5"/>
<text text-anchor="start" x="8" y="-18.5" font-family="Helvetica,sans-Serif" font-size="10.00">edge_kernels/AMSMomentum</text>
<text text-anchor="middle" x="81" y="-7.5" font-family="Helvetica,sans-Serif" font-size="10.00">EdgePecletAlg.h</text>
</a>
</g>
</g>
<!-- Node1&#45;&gt;Node2 -->
<g id="edge1" class="edge">
<title>Node1&#45;&gt;Node2</title>
<path fill="none" stroke="midnightblue" d="M729.78,-72.42C607.45,-66.85 377.77,-54.35 172.46,-31.1"/>
<polygon fill="midnightblue" stroke="midnightblue" points="172.72,-27.61 162.39,-29.95 171.93,-34.56 172.72,-27.61"/>
</g>
<!-- Node3 -->
<g id="node3" class="node">
<title>Node3</title>
<g id="a_node3"><a xlink:title=" ">
<polygon fill="white" stroke="#bfbfbf" points="180.5,-6 180.5,-25 237.5,-25 237.5,-6 180.5,-6"/>
<text text-anchor="middle" x="209" y="-13" font-family="Helvetica,sans-Serif" font-size="10.00">Realm.h</text>
</a>
</g>
</g>
<!-- Node1&#45;&gt;Node3 -->
<g id="edge2" class="edge">
<title>Node1&#45;&gt;Node3</title>
<path fill="none" stroke="midnightblue" d="M729.73,-72.27C593.22,-65.9 335.52,-51.59 246,-31 243.16,-30.35 240.26,-29.52 237.38,-28.58"/>
<polygon fill="midnightblue" stroke="midnightblue" points="238.46,-25.25 227.86,-25.13 236.07,-31.83 238.46,-25.25"/>
</g>
<!-- Node4 -->
<g id="node4" class="node">
<title>Node4</title>
<g id="a_node4"><a xlink:title=" ">
<polygon fill="white" stroke="#bfbfbf" points="255.5,-6 255.5,-25 358.5,-25 358.5,-6 255.5,-6"/>
<text text-anchor="middle" x="307" y="-13" font-family="Helvetica,sans-Serif" font-size="10.00">SolutionOptions.h</text>
</a>
</g>
</g>
<!-- Node1&#45;&gt;Node4 -->
<g id="edge3" class="edge">
<title>Node1&#45;&gt;Node4</title>
<path fill="none" stroke="midnightblue" d="M729.84,-70.85C638.84,-64.64 492.2,-52.28 367,-31 361.11,-30 354.94,-28.75 348.9,-27.4"/>
<polygon fill="midnightblue" stroke="midnightblue" points="349.44,-23.93 338.9,-25.07 347.85,-30.75 349.44,-23.93"/>
</g>
<!-- Node5 -->
<g id="node5" class="node">
<title>Node5</title>
<g id="a_node5"><a xlink:title=" ">
<polygon fill="white" stroke="#bfbfbf" points="376.5,-6 376.5,-25 435.5,-25 435.5,-6 376.5,-6"/>
<text text-anchor="middle" x="406" y="-13" font-family="Helvetica,sans-Serif" font-size="10.00">Enums.h</text>
</a>
</g>
</g>
<!-- Node1&#45;&gt;Node5 -->
<g id="edge4" class="edge">
<title>Node1&#45;&gt;Node5</title>
<path fill="none" stroke="midnightblue" d="M729.9,-71.28C653.85,-65.78 540.93,-54.29 445,-31 442.01,-30.27 438.93,-29.39 435.88,-28.41"/>
<polygon fill="midnightblue" stroke="midnightblue" points="436.96,-25.08 426.36,-25.1 434.66,-31.69 436.96,-25.08"/>
</g>
<!-- Node6 -->
<g id="node6" class="node">
<title>Node6</title>
<g id="a_node6"><a xlink:title=" ">
<polygon fill="white" stroke="#bfbfbf" points="454,-6 454,-25 498,-25 498,-6 454,-6"/>
<text text-anchor="middle" x="476" y="-13" font-family="Helvetica,sans-Serif" font-size="10.00">string</text>
</a>
</g>
</g>
<!-- Node1&#45;&gt;Node6 -->
<g id="edge5" class="edge">
<title>Node1&#45;&gt;Node6</title>
<path fill="none" stroke="midnightblue" d="M729.67,-70.2C666.73,-64.37 580.33,-52.95 507,-31 505.12,-30.44 503.21,-29.78 501.31,-29.06"/>
<polygon fill="midnightblue" stroke="midnightblue" points="502.63,-25.82 492.06,-25.1 499.87,-32.25 502.63,-25.82"/>
</g>
<!-- Node7 -->
<g id="node7" class="node">
<title>Node7</title>
<g id="a_node7"><a xlink:title=" ">
<polygon fill="white" stroke="#bfbfbf" points="516.5,-6 516.5,-25 673.5,-25 673.5,-6 516.5,-6"/>
<text text-anchor="middle" x="595" y="-13" font-family="Helvetica,sans-Serif" font-size="10.00">stk_mesh/base/NgpField.hpp</text>
</a>
</g>
</g>
<!-- Node1&#45;&gt;Node7 -->
<g id="edge6" class="edge">
<title>Node1&#45;&gt;Node7</title>
<path fill="none" stroke="midnightblue" d="M785.19,-67.48C746.12,-57 679.74,-39.21 636.64,-27.66"/>
<polygon fill="midnightblue" stroke="midnightblue" points="637.31,-24.22 626.75,-25.01 635.5,-30.98 637.31,-24.22"/>
</g>
<!-- Node8 -->
<g id="node8" class="node">
<title>Node8</title>
<g id="a_node8"><a xlink:title=" ">
<polygon fill="white" stroke="#bfbfbf" points="692,-6 692,-25 812,-25 812,-6 692,-6"/>
<text text-anchor="middle" x="752" y="-13" font-family="Helvetica,sans-Serif" font-size="10.00">ngp_utils/NgpTypes.h</text>
</a>
</g>
</g>
<!-- Node1&#45;&gt;Node8 -->
<g id="edge7" class="edge">
<title>Node1&#45;&gt;Node8</title>
<path fill="none" stroke="midnightblue" d="M807.69,-67.48C797.55,-58.2 781.14,-43.17 768.75,-31.83"/>
<polygon fill="midnightblue" stroke="midnightblue" points="771.04,-29.18 761.3,-25.01 766.31,-34.34 771.04,-29.18"/>
</g>
<!-- Node9 -->
<g id="node9" class="node">
<title>Node9</title>
<g id="a_node9"><a xlink:title=" ">
<polygon fill="white" stroke="#bfbfbf" points="830.5,-6 830.5,-25 935.5,-25 935.5,-6 830.5,-6"/>
<text text-anchor="middle" x="883" y="-13" font-family="Helvetica,sans-Serif" font-size="10.00">EquationSystem.h</text>
</a>
</g>
</g>
<!-- Node1&#45;&gt;Node9 -->
<g id="edge8" class="edge">
<title>Node1&#45;&gt;Node9</title>
<path fill="none" stroke="midnightblue" d="M826.46,-67.48C836.75,-58.2 853.42,-43.17 865.99,-31.83"/>
<polygon fill="midnightblue" stroke="midnightblue" points="868.48,-34.3 873.56,-25.01 863.79,-29.11 868.48,-34.3"/>
</g>
<!-- Node10 -->
<g id="node10" class="node">
<title>Node10</title>
<g id="a_node10"><a xlink:title=" ">
<polygon fill="white" stroke="#bfbfbf" points="954,-6 954,-25 1092,-25 1092,-6 954,-6"/>
<text text-anchor="middle" x="1023" y="-13" font-family="Helvetica,sans-Serif" font-size="10.00">ngp_utils/NgpFieldUtils.h</text>
</a>
</g>
</g>
<!-- Node1&#45;&gt;Node10 -->
<g id="edge9" class="edge">
<title>Node1&#45;&gt;Node10</title>
<path fill="none" stroke="midnightblue" d="M846.51,-67.48C882.62,-57.05 943.85,-39.36 983.85,-27.81"/>
<polygon fill="midnightblue" stroke="midnightblue" points="984.9,-31.15 993.54,-25.01 982.96,-24.42 984.9,-31.15"/>
</g>
<!-- Node11 -->
<g id="node11" class="node">
<title>Node11</title>
<g id="a_node11"><a xlink:title=" ">
<polygon fill="white" stroke="#bfbfbf" points="1110,-6 1110,-25 1248,-25 1248,-6 1110,-6"/>
<text text-anchor="middle" x="1179" y="-13" font-family="Helvetica,sans-Serif" font-size="10.00">ngp_utils/NgpLoopUtils.h</text>
</a>
</g>
</g>
<!-- Node1&#45;&gt;Node11 -->
<g id="edge10" class="edge">
<title>Node1&#45;&gt;Node11</title>
<path fill="none" stroke="midnightblue" d="M873.65,-67.48C931.03,-58.74 1022.28,-44.55 1101,-31 1108.46,-29.72 1116.3,-28.32 1124.03,-26.91"/>
<polygon fill="midnightblue" stroke="midnightblue" points="1124.88,-30.31 1134.08,-25.06 1123.61,-23.43 1124.88,-30.31"/>
</g>
<!-- Node12 -->
<g id="node12" class="node">
<title>Node12</title>
<g id="a_node12"><a xlink:title=" ">
<polygon fill="white" stroke="#bfbfbf" points="1266.5,-6 1266.5,-25 1439.5,-25 1439.5,-6 1266.5,-6"/>
<text text-anchor="middle" x="1353" y="-13" font-family="Helvetica,sans-Serif" font-size="10.00">stk_mesh/base/FieldParallel.hpp</text>
</a>
</g>
</g>
<!-- Node1&#45;&gt;Node12 -->
<g id="edge11" class="edge">
<title>Node1&#45;&gt;Node12</title>
<path fill="none" stroke="midnightblue" d="M904.38,-68.31C993.27,-60.19 1134.92,-46.45 1257,-31 1267.63,-29.65 1278.89,-28.08 1289.83,-26.48"/>
<polygon fill="midnightblue" stroke="midnightblue" points="1290.37,-29.94 1299.75,-25.01 1289.34,-23.02 1290.37,-29.94"/>
</g>
<!-- Node13 -->
<g id="node13" class="node">
<title>Node13</title>
<g id="a_node13"><a xlink:title=" ">
<polygon fill="white" stroke="#bfbfbf" points="1457.5,-6 1457.5,-25 1620.5,-25 1620.5,-6 1457.5,-6"/>
<text text-anchor="middle" x="1539" y="-13" font-family="Helvetica,sans-Serif" font-size="10.00">stk_mesh/base/FieldBLAS.hpp</text>
</a>
</g>
</g>
<!-- Node1&#45;&gt;Node13 -->
<g id="edge12" class="edge">
<title>Node1&#45;&gt;Node13</title>
<path fill="none" stroke="midnightblue" d="M904.12,-72.24C1026.22,-66.42 1255.05,-53.48 1449,-31 1459.36,-29.8 1470.36,-28.25 1480.97,-26.62"/>
<polygon fill="midnightblue" stroke="midnightblue" points="1481.67,-30.06 1491,-25.04 1480.58,-23.14 1481.67,-30.06"/>
</g>
<!-- Node14 -->
<g id="node14" class="node">
<title>Node14</title>
<g id="a_node14"><a xlink:title=" ">
<polygon fill="white" stroke="#bfbfbf" points="1639,-6 1639,-25 1733,-25 1733,-6 1639,-6"/>
<text text-anchor="middle" x="1686" y="-13" font-family="Helvetica,sans-Serif" font-size="10.00">utils/AMSUtils.h</text>
</a>
</g>
</g>
<!-- Node1&#45;&gt;Node14 -->
<g id="edge13" class="edge">
<title>Node1&#45;&gt;Node14</title>
<path fill="none" stroke="midnightblue" d="M904.22,-76.81C1053.71,-76.94 1368.1,-71.74 1630,-31 1635.79,-30.1 1641.84,-28.86 1647.74,-27.48"/>
<polygon fill="midnightblue" stroke="midnightblue" points="1648.6,-30.87 1657.45,-25.06 1646.9,-24.08 1648.6,-30.87"/>
</g>
<!-- Node15 -->
<g id="node15" class="node">
<title>Node15</title>
<g id="a_node15"><a xlink:title=" ">
<polygon fill="white" stroke="#bfbfbf" points="1751,-6 1751,-25 1877,-25 1877,-6 1751,-6"/>
<text text-anchor="middle" x="1814" y="-13" font-family="Helvetica,sans-Serif" font-size="10.00">EigenDecomposition.h</text>
</a>
</g>
</g>
<!-- Node1&#45;&gt;Node15 -->
<g id="edge14" class="edge">
<title>Node1&#45;&gt;Node15</title>
<path fill="none" stroke="midnightblue" d="M904.09,-76.11C1068.52,-75.35 1435.66,-69.08 1742,-31 1750.19,-29.98 1758.83,-28.55 1767.19,-26.99"/>
<polygon fill="midnightblue" stroke="midnightblue" points="1768.04,-30.38 1777.18,-25.02 1766.69,-23.52 1768.04,-30.38"/>
</g>
</g>
</svg>
