<?xml version="1.0" encoding="UTF-8" standalone="no"?>
<!DOCTYPE svg PUBLIC "-//W3C//DTD SVG 1.1//EN"
 "http://www.w3.org/Graphics/SVG/1.1/DTD/svg11.dtd">
<!-- Generated by graphviz version 2.43.0 (0)
 -->
<!-- Title: ActuatorParsing.C Pages: 1 -->
<svg width="711pt" height="84pt"
 viewBox="0.00 0.00 710.50 84.00" xmlns="http://www.w3.org/2000/svg" xmlns:xlink="http://www.w3.org/1999/xlink">
<g id="graph0" class="graph" transform="scale(1 1) rotate(0) translate(4 80)">
<title>ActuatorParsing.C</title>
<polygon fill="white" stroke="transparent" points="-4,4 -4,-80 706.5,-80 706.5,4 -4,4"/>
<!-- Node1 -->
<g id="node1" class="node">
<title>Node1</title>
<g id="a_node1"><a xlink:title=" ">
<polygon fill="#bfbfbf" stroke="black" points="389.5,-56.5 389.5,-75.5 492.5,-75.5 492.5,-56.5 389.5,-56.5"/>
<text text-anchor="middle" x="441" y="-63.5" font-family="Helvetica,sans-Serif" font-size="10.00">ActuatorParsing.C</text>
</a>
</g>
</g>
<!-- Node2 -->
<g id="node2" class="node">
<title>Node2</title>
<g id="a_node2"><a xlink:title=" ">
<polygon fill="white" stroke="#bfbfbf" points="0,-0.5 0,-19.5 170,-19.5 170,-0.5 0,-0.5"/>
<text text-anchor="middle" x="85" y="-7.5" font-family="Helvetica,sans-Serif" font-size="10.00">aero/actuator/ActuatorParsing.h</text>
</a>
</g>
</g>
<!-- Node1&#45;&gt;Node2 -->
<g id="edge1" class="edge">
<title>Node1&#45;&gt;Node2</title>
<path fill="none" stroke="midnightblue" d="M389.23,-57.15C326.41,-47.62 220.36,-31.53 151.53,-21.09"/>
<polygon fill="midnightblue" stroke="midnightblue" points="151.65,-17.57 141.24,-19.53 150.6,-24.49 151.65,-17.57"/>
</g>
<!-- Node3 -->
<g id="node3" class="node">
<title>Node3</title>
<g id="a_node3"><a xlink:title=" ">
<polygon fill="white" stroke="#bfbfbf" points="188.5,-0.5 188.5,-19.5 345.5,-19.5 345.5,-0.5 188.5,-0.5"/>
<text text-anchor="middle" x="267" y="-7.5" font-family="Helvetica,sans-Serif" font-size="10.00">aero/actuator/ActuatorBulk.h</text>
</a>
</g>
</g>
<!-- Node1&#45;&gt;Node3 -->
<g id="edge2" class="edge">
<title>Node1&#45;&gt;Node3</title>
<path fill="none" stroke="midnightblue" d="M413.43,-56.44C383.9,-47.28 336.88,-32.69 304.12,-22.52"/>
<polygon fill="midnightblue" stroke="midnightblue" points="305.03,-19.14 294.44,-19.52 302.96,-25.82 305.03,-19.14"/>
</g>
<!-- Node4 -->
<g id="node4" class="node">
<title>Node4</title>
<g id="a_node4"><a xlink:title=" ">
<polygon fill="white" stroke="#bfbfbf" points="364,-0.5 364,-19.5 518,-19.5 518,-0.5 364,-0.5"/>
<text text-anchor="middle" x="441" y="-7.5" font-family="Helvetica,sans-Serif" font-size="10.00">aero/actuator/ActuatorInfo.h</text>
</a>
</g>
</g>
<!-- Node1&#45;&gt;Node4 -->
<g id="edge3" class="edge">
<title>Node1&#45;&gt;Node4</title>
<path fill="none" stroke="midnightblue" d="M441,-56.08C441,-49.01 441,-38.86 441,-29.99"/>
<polygon fill="midnightblue" stroke="midnightblue" points="444.5,-29.75 441,-19.75 437.5,-29.75 444.5,-29.75"/>
</g>
<!-- Node5 -->
<g id="node5" class="node">
<title>Node5</title>
<g id="a_node5"><a xlink:title=" ">
<polygon fill="white" stroke="#bfbfbf" points="536.5,-0.5 536.5,-19.5 601.5,-19.5 601.5,-0.5 536.5,-0.5"/>
<text text-anchor="middle" x="569" y="-7.5" font-family="Helvetica,sans-Serif" font-size="10.00">stdexcept</text>
</a>
</g>
</g>
<!-- Node1&#45;&gt;Node5 -->
<g id="edge4" class="edge">
<title>Node1&#45;&gt;Node5</title>
<path fill="none" stroke="midnightblue" d="M461.28,-56.44C482.35,-47.56 515.52,-33.56 539.49,-23.45"/>
<polygon fill="midnightblue" stroke="midnightblue" points="540.96,-26.63 548.81,-19.52 538.24,-20.18 540.96,-26.63"/>
</g>
<!-- Node6 -->
<g id="node6" class="node">
<title>Node6</title>
<g id="a_node6"><a xlink:title=" ">
<polygon fill="white" stroke="#bfbfbf" points="619.5,-0.5 619.5,-19.5 702.5,-19.5 702.5,-0.5 619.5,-0.5"/>
<text text-anchor="middle" x="661" y="-7.5" font-family="Helvetica,sans-Serif" font-size="10.00">NaluParsing.h</text>
</a>
</g>
</g>
<!-- Node1&#45;&gt;Node6 -->
<g id="edge5" class="edge">
<title>Node1&#45;&gt;Node6</title>
<path fill="none" stroke="midnightblue" d="M475.86,-56.44C513.92,-47.1 574.96,-32.12 616.46,-21.93"/>
<polygon fill="midnightblue" stroke="midnightblue" points="617.43,-25.3 626.3,-19.52 615.76,-18.5 617.43,-25.3"/>
</g>
</g>
</svg>
