<?xml version="1.0" encoding="UTF-8" standalone="no"?>
<!DOCTYPE svg PUBLIC "-//W3C//DTD SVG 1.1//EN"
 "http://www.w3.org/Graphics/SVG/1.1/DTD/svg11.dtd">
<!-- Generated by graphviz version 2.43.0 (0)
 -->
<!-- Title: ActuatorFunctorsFAST.C Pages: 1 -->
<svg width="914pt" height="95pt"
 viewBox="0.00 0.00 913.50 95.00" xmlns="http://www.w3.org/2000/svg" xmlns:xlink="http://www.w3.org/1999/xlink">
<g id="graph0" class="graph" transform="scale(1 1) rotate(0) translate(4 91)">
<title>ActuatorFunctorsFAST.C</title>
<polygon fill="white" stroke="transparent" points="-4,4 -4,-91 909.5,-91 909.5,4 -4,4"/>
<!-- Node1 -->
<g id="node1" class="node">
<title>Node1</title>
<g id="a_node1"><a xlink:title=" ">
<polygon fill="#bfbfbf" stroke="black" points="479,-67.5 479,-86.5 610,-86.5 610,-67.5 479,-67.5"/>
<text text-anchor="middle" x="544.5" y="-74.5" font-family="Helvetica,sans-Serif" font-size="10.00">ActuatorFunctorsFAST.C</text>
</a>
</g>
</g>
<!-- Node2 -->
<g id="node2" class="node">
<title>Node2</title>
<g id="a_node2"><a xlink:title=" ">
<polygon fill="white" stroke="#bfbfbf" points="0,-0.5 0,-30.5 167,-30.5 167,-0.5 0,-0.5"/>
<text text-anchor="start" x="8" y="-18.5" font-family="Helvetica,sans-Serif" font-size="10.00">aero/actuator/ActuatorFunctors</text>
<text text-anchor="middle" x="83.5" y="-7.5" font-family="Helvetica,sans-Serif" font-size="10.00">FAST.h</text>
</a>
</g>
</g>
<!-- Node1&#45;&gt;Node2 -->
<g id="edge1" class="edge">
<title>Node1&#45;&gt;Node2</title>
<path fill="none" stroke="midnightblue" d="M478.75,-68.68C407.05,-60.55 288.63,-46.65 177.28,-31.22"/>
<polygon fill="midnightblue" stroke="midnightblue" points="177.61,-27.73 167.22,-29.82 176.64,-34.67 177.61,-27.73"/>
</g>
<!-- Node3 -->
<g id="node3" class="node">
<title>Node3</title>
<g id="a_node3"><a xlink:title=" ">
<polygon fill="white" stroke="#bfbfbf" points="185,-6 185,-25 358,-25 358,-6 185,-6"/>
<text text-anchor="middle" x="271.5" y="-13" font-family="Helvetica,sans-Serif" font-size="10.00">aero/actuator/UtilitiesActuator.h</text>
</a>
</g>
</g>
<!-- Node1&#45;&gt;Node3 -->
<g id="edge2" class="edge">
<title>Node1&#45;&gt;Node3</title>
<path fill="none" stroke="midnightblue" d="M505.39,-67.48C456.63,-56.85 373.29,-38.68 320.38,-27.15"/>
<polygon fill="midnightblue" stroke="midnightblue" points="321.06,-23.72 310.54,-25.01 319.57,-30.56 321.06,-23.72"/>
</g>
<!-- Node4 -->
<g id="node4" class="node">
<title>Node4</title>
<g id="a_node4"><a xlink:title=" ">
<polygon fill="white" stroke="#bfbfbf" points="376,-6 376,-25 535,-25 535,-6 376,-6"/>
<text text-anchor="middle" x="455.5" y="-13" font-family="Helvetica,sans-Serif" font-size="10.00">stk_mesh/base/BulkData.hpp</text>
</a>
</g>
</g>
<!-- Node1&#45;&gt;Node4 -->
<g id="edge3" class="edge">
<title>Node1&#45;&gt;Node4</title>
<path fill="none" stroke="midnightblue" d="M531.75,-67.48C517.47,-57.93 494.1,-42.31 476.99,-30.87"/>
<polygon fill="midnightblue" stroke="midnightblue" points="478.49,-27.66 468.23,-25.01 474.6,-33.48 478.49,-27.66"/>
</g>
<!-- Node5 -->
<g id="node5" class="node">
<title>Node5</title>
<g id="a_node5"><a xlink:title=" ">
<polygon fill="white" stroke="#bfbfbf" points="553.5,-6 553.5,-25 715.5,-25 715.5,-6 553.5,-6"/>
<text text-anchor="middle" x="634.5" y="-13" font-family="Helvetica,sans-Serif" font-size="10.00">stk_mesh/base/MetaData.hpp</text>
</a>
</g>
</g>
<!-- Node1&#45;&gt;Node5 -->
<g id="edge4" class="edge">
<title>Node1&#45;&gt;Node5</title>
<path fill="none" stroke="midnightblue" d="M557.39,-67.48C571.96,-57.84 595.9,-42.02 613.25,-30.55"/>
<polygon fill="midnightblue" stroke="midnightblue" points="615.22,-33.44 621.63,-25.01 611.36,-27.6 615.22,-33.44"/>
</g>
<!-- Node6 -->
<g id="node6" class="node">
<title>Node6</title>
<g id="a_node6"><a xlink:title=" ">
<polygon fill="white" stroke="#bfbfbf" points="734,-6 734,-25 799,-25 799,-6 734,-6"/>
<text text-anchor="middle" x="766.5" y="-13" font-family="Helvetica,sans-Serif" font-size="10.00">NaluEnv.h</text>
</a>
</g>
</g>
<!-- Node1&#45;&gt;Node6 -->
<g id="edge5" class="edge">
<title>Node1&#45;&gt;Node6</title>
<path fill="none" stroke="midnightblue" d="M582.69,-67.48C619.3,-59.06 676.02,-45.4 724.5,-31 727.27,-30.18 730.13,-29.28 733,-28.36"/>
<polygon fill="midnightblue" stroke="midnightblue" points="734.25,-31.63 742.63,-25.15 732.04,-24.99 734.25,-31.63"/>
</g>
<!-- Node7 -->
<g id="node7" class="node">
<title>Node7</title>
<g id="a_node7"><a xlink:title=" ">
<polygon fill="white" stroke="#bfbfbf" points="817.5,-6 817.5,-25 905.5,-25 905.5,-6 817.5,-6"/>
<text text-anchor="middle" x="861.5" y="-13" font-family="Helvetica,sans-Serif" font-size="10.00">FieldTypeDef.h</text>
</a>
</g>
</g>
<!-- Node1&#45;&gt;Node7 -->
<g id="edge6" class="edge">
<title>Node1&#45;&gt;Node7</title>
<path fill="none" stroke="midnightblue" d="M604.59,-67.48C658.31,-59.45 739.05,-46.38 808.5,-31 812.97,-30.01 817.63,-28.88 822.24,-27.7"/>
<polygon fill="midnightblue" stroke="midnightblue" points="823.42,-31.01 832.19,-25.07 821.63,-24.24 823.42,-31.01"/>
</g>
</g>
</svg>
