<?xml version="1.0" encoding="UTF-8" standalone="no"?>
<!DOCTYPE svg PUBLIC "-//W3C//DTD SVG 1.1//EN"
 "http://www.w3.org/Graphics/SVG/1.1/DTD/svg11.dtd">
<!-- Generated by graphviz version 2.43.0 (0)
 -->
<!-- Title: ActuatorSearch.C Pages: 1 -->
<svg width="735pt" height="84pt"
 viewBox="0.00 0.00 734.50 84.00" xmlns="http://www.w3.org/2000/svg" xmlns:xlink="http://www.w3.org/1999/xlink">
<g id="graph0" class="graph" transform="scale(1 1) rotate(0) translate(4 80)">
<title>ActuatorSearch.C</title>
<polygon fill="white" stroke="transparent" points="-4,4 -4,-80 730.5,-80 730.5,4 -4,4"/>
<!-- Node1 -->
<g id="node1" class="node">
<title>Node1</title>
<g id="a_node1"><a xlink:title=" ">
<polygon fill="#bfbfbf" stroke="black" points="357.5,-56.5 357.5,-75.5 458.5,-75.5 458.5,-56.5 357.5,-56.5"/>
<text text-anchor="middle" x="408" y="-63.5" font-family="Helvetica,sans-Serif" font-size="10.00">ActuatorSearch.C</text>
</a>
</g>
</g>
<!-- Node2 -->
<g id="node2" class="node">
<title>Node2</title>
<g id="a_node2"><a xlink:title=" ">
<polygon fill="white" stroke="#bfbfbf" points="0,-0.5 0,-19.5 168,-19.5 168,-0.5 0,-0.5"/>
<text text-anchor="middle" x="84" y="-7.5" font-family="Helvetica,sans-Serif" font-size="10.00">aero/actuator/ActuatorSearch.h</text>
</a>
</g>
</g>
<!-- Node1&#45;&gt;Node2 -->
<g id="edge1" class="edge">
<title>Node1&#45;&gt;Node2</title>
<path fill="none" stroke="midnightblue" d="M357.38,-56.56C299.97,-46.99 206.4,-31.4 145.01,-21.17"/>
<polygon fill="midnightblue" stroke="midnightblue" points="145.51,-17.7 135.07,-19.51 144.36,-24.61 145.51,-17.7"/>
</g>
<!-- Node3 -->
<g id="node3" class="node">
<title>Node3</title>
<g id="a_node3"><a xlink:title=" ">
<polygon fill="white" stroke="#bfbfbf" points="186,-0.5 186,-19.5 346,-19.5 346,-0.5 186,-0.5"/>
<text text-anchor="middle" x="266" y="-7.5" font-family="Helvetica,sans-Serif" font-size="10.00">stk_search/CoarseSearch.hpp</text>
</a>
</g>
</g>
<!-- Node1&#45;&gt;Node3 -->
<g id="edge2" class="edge">
<title>Node1&#45;&gt;Node3</title>
<path fill="none" stroke="midnightblue" d="M385.5,-56.44C361.92,-47.48 324.68,-33.31 298.04,-23.18"/>
<polygon fill="midnightblue" stroke="midnightblue" points="298.99,-19.8 288.4,-19.52 296.5,-26.34 298.99,-19.8"/>
</g>
<!-- Node4 -->
<g id="node4" class="node">
<title>Node4</title>
<g id="a_node4"><a xlink:title=" ">
<polygon fill="white" stroke="#bfbfbf" points="364,-0.5 364,-19.5 452,-19.5 452,-0.5 364,-0.5"/>
<text text-anchor="middle" x="408" y="-7.5" font-family="Helvetica,sans-Serif" font-size="10.00">FieldTypeDef.h</text>
</a>
</g>
</g>
<!-- Node1&#45;&gt;Node4 -->
<g id="edge3" class="edge">
<title>Node1&#45;&gt;Node4</title>
<path fill="none" stroke="midnightblue" d="M408,-56.08C408,-49.01 408,-38.86 408,-29.99"/>
<polygon fill="midnightblue" stroke="midnightblue" points="411.5,-29.75 408,-19.75 404.5,-29.75 411.5,-29.75"/>
</g>
<!-- Node5 -->
<g id="node5" class="node">
<title>Node5</title>
<g id="a_node5"><a xlink:title=" ">
<polygon fill="white" stroke="#bfbfbf" points="470.5,-0.5 470.5,-19.5 535.5,-19.5 535.5,-0.5 470.5,-0.5"/>
<text text-anchor="middle" x="503" y="-7.5" font-family="Helvetica,sans-Serif" font-size="10.00">NaluEnv.h</text>
</a>
</g>
</g>
<!-- Node1&#45;&gt;Node5 -->
<g id="edge4" class="edge">
<title>Node1&#45;&gt;Node5</title>
<path fill="none" stroke="midnightblue" d="M423.26,-56.32C438.22,-47.82 461.25,-34.73 478.73,-24.8"/>
<polygon fill="midnightblue" stroke="midnightblue" points="480.81,-27.64 487.77,-19.65 477.35,-21.55 480.81,-27.64"/>
</g>
<!-- Node6 -->
<g id="node6" class="node">
<title>Node6</title>
<g id="a_node6"><a xlink:title=" ">
<polygon fill="white" stroke="#bfbfbf" points="553.5,-0.5 553.5,-19.5 726.5,-19.5 726.5,-0.5 553.5,-0.5"/>
<text text-anchor="middle" x="640" y="-7.5" font-family="Helvetica,sans-Serif" font-size="10.00">aero/actuator/UtilitiesActuator.h</text>
</a>
</g>
</g>
<!-- Node1&#45;&gt;Node6 -->
<g id="edge5" class="edge">
<title>Node1&#45;&gt;Node6</title>
<path fill="none" stroke="midnightblue" d="M444.76,-56.44C485.06,-47.06 549.81,-31.99 593.58,-21.8"/>
<polygon fill="midnightblue" stroke="midnightblue" points="594.46,-25.19 603.41,-19.52 592.88,-18.37 594.46,-25.19"/>
</g>
</g>
</svg>
