<?xml version="1.0" encoding="UTF-8" standalone="no"?>
<!DOCTYPE svg PUBLIC "-//W3C//DTD SVG 1.1//EN"
 "http://www.w3.org/Graphics/SVG/1.1/DTD/svg11.dtd">
<!-- Generated by graphviz version 2.43.0 (0)
 -->
<!-- Title: ActuatorModel.C Pages: 1 -->
<svg width="1063pt" height="95pt"
 viewBox="0.00 0.00 1062.50 95.00" xmlns="http://www.w3.org/2000/svg" xmlns:xlink="http://www.w3.org/1999/xlink">
<g id="graph0" class="graph" transform="scale(1 1) rotate(0) translate(4 91)">
<title>ActuatorModel.C</title>
<polygon fill="white" stroke="transparent" points="-4,4 -4,-91 1058.5,-91 1058.5,4 -4,4"/>
<!-- Node1 -->
<g id="node1" class="node">
<title>Node1</title>
<g id="a_node1"><a xlink:title=" ">
<polygon fill="#bfbfbf" stroke="black" points="576,-67.5 576,-86.5 674,-86.5 674,-67.5 576,-67.5"/>
<text text-anchor="middle" x="625" y="-74.5" font-family="Helvetica,sans-Serif" font-size="10.00">ActuatorModel.C</text>
</a>
</g>
</g>
<!-- Node2 -->
<g id="node2" class="node">
<title>Node2</title>
<g id="a_node2"><a xlink:title=" ">
<polygon fill="white" stroke="#bfbfbf" points="0,-6 0,-25 170,-25 170,-6 0,-6"/>
<text text-anchor="middle" x="85" y="-13" font-family="Helvetica,sans-Serif" font-size="10.00">aero/actuator/ActuatorParsing.h</text>
</a>
</g>
</g>
<!-- Node1&#45;&gt;Node2 -->
<g id="edge1" class="edge">
<title>Node1&#45;&gt;Node2</title>
<path fill="none" stroke="midnightblue" d="M575.74,-71.88C493.42,-64.81 322.78,-49.33 179,-31 168.7,-29.69 157.78,-28.14 147.18,-26.56"/>
<polygon fill="midnightblue" stroke="midnightblue" points="147.55,-23.08 137.14,-25.04 146.5,-30 147.55,-23.08"/>
</g>
<!-- Node3 -->
<g id="node3" class="node">
<title>Node3</title>
<g id="a_node3"><a xlink:title=" ">
<polygon fill="white" stroke="#bfbfbf" points="188.5,-6 188.5,-25 353.5,-25 353.5,-6 188.5,-6"/>
<text text-anchor="middle" x="271" y="-13" font-family="Helvetica,sans-Serif" font-size="10.00">aero/actuator/ActuatorModel.h</text>
</a>
</g>
</g>
<!-- Node1&#45;&gt;Node3 -->
<g id="edge2" class="edge">
<title>Node1&#45;&gt;Node3</title>
<path fill="none" stroke="midnightblue" d="M575.78,-67.73C512.08,-57.02 401.11,-38.37 332.09,-26.77"/>
<polygon fill="midnightblue" stroke="midnightblue" points="332.25,-23.25 321.81,-25.04 331.09,-30.15 332.25,-23.25"/>
</g>
<!-- Node4 -->
<g id="node4" class="node">
<title>Node4</title>
<g id="a_node4"><a xlink:title=" ">
<polygon fill="white" stroke="#bfbfbf" points="371.5,-0.5 371.5,-30.5 532.5,-30.5 532.5,-0.5 371.5,-0.5"/>
<text text-anchor="start" x="379.5" y="-18.5" font-family="Helvetica,sans-Serif" font-size="10.00">aero/actuator/ActuatorParsing</text>
<text text-anchor="middle" x="452" y="-7.5" font-family="Helvetica,sans-Serif" font-size="10.00">Simple.h</text>
</a>
</g>
</g>
<!-- Node1&#45;&gt;Node4 -->
<g id="edge3" class="edge">
<title>Node1&#45;&gt;Node4</title>
<path fill="none" stroke="midnightblue" d="M600.21,-67.48C574.81,-58.74 534.6,-44.91 502.46,-33.86"/>
<polygon fill="midnightblue" stroke="midnightblue" points="503.37,-30.47 492.77,-30.52 501.09,-37.09 503.37,-30.47"/>
</g>
<!-- Node5 -->
<g id="node5" class="node">
<title>Node5</title>
<g id="a_node5"><a xlink:title=" ">
<polygon fill="white" stroke="#bfbfbf" points="551,-0.5 551,-30.5 699,-30.5 699,-0.5 551,-0.5"/>
<text text-anchor="start" x="559" y="-18.5" font-family="Helvetica,sans-Serif" font-size="10.00">aero/actuator/ActuatorBulk</text>
<text text-anchor="middle" x="625" y="-7.5" font-family="Helvetica,sans-Serif" font-size="10.00">Simple.h</text>
</a>
</g>
</g>
<!-- Node1&#45;&gt;Node5 -->
<g id="edge4" class="edge">
<title>Node1&#45;&gt;Node5</title>
<path fill="none" stroke="midnightblue" d="M625,-67.48C625,-60.47 625,-50.19 625,-40.7"/>
<polygon fill="midnightblue" stroke="midnightblue" points="628.5,-40.52 625,-30.52 621.5,-40.52 628.5,-40.52"/>
</g>
<!-- Node6 -->
<g id="node6" class="node">
<title>Node6</title>
<g id="a_node6"><a xlink:title=" ">
<polygon fill="white" stroke="#bfbfbf" points="717.5,-0.5 717.5,-30.5 890.5,-30.5 890.5,-0.5 717.5,-0.5"/>
<text text-anchor="start" x="725.5" y="-18.5" font-family="Helvetica,sans-Serif" font-size="10.00">aero/actuator/ActuatorExecutors</text>
<text text-anchor="middle" x="804" y="-7.5" font-family="Helvetica,sans-Serif" font-size="10.00">SimpleNgp.h</text>
</a>
</g>
</g>
<!-- Node1&#45;&gt;Node6 -->
<g id="edge5" class="edge">
<title>Node1&#45;&gt;Node6</title>
<path fill="none" stroke="midnightblue" d="M650.65,-67.48C677.04,-58.7 718.9,-44.79 752.22,-33.71"/>
<polygon fill="midnightblue" stroke="midnightblue" points="753.43,-37 761.81,-30.52 751.22,-30.36 753.43,-37"/>
</g>
<!-- Node7 -->
<g id="node7" class="node">
<title>Node7</title>
<g id="a_node7"><a xlink:title=" ">
<polygon fill="white" stroke="#bfbfbf" points="909,-6 909,-25 953,-25 953,-6 909,-6"/>
<text text-anchor="middle" x="931" y="-13" font-family="Helvetica,sans-Serif" font-size="10.00">string</text>
</a>
</g>
</g>
<!-- Node1&#45;&gt;Node7 -->
<g id="edge6" class="edge">
<title>Node1&#45;&gt;Node7</title>
<path fill="none" stroke="midnightblue" d="M674.12,-72.07C729.86,-66.67 823.04,-54.79 900,-31 901.87,-30.42 903.78,-29.75 905.68,-29.02"/>
<polygon fill="midnightblue" stroke="midnightblue" points="907.12,-32.21 914.92,-25.04 904.36,-25.78 907.12,-32.21"/>
</g>
<!-- Node8 -->
<g id="node8" class="node">
<title>Node8</title>
<g id="a_node8"><a xlink:title=" ">
<polygon fill="white" stroke="#bfbfbf" points="971.5,-6 971.5,-25 1054.5,-25 1054.5,-6 971.5,-6"/>
<text text-anchor="middle" x="1013" y="-13" font-family="Helvetica,sans-Serif" font-size="10.00">NaluParsing.h</text>
</a>
</g>
</g>
<!-- Node1&#45;&gt;Node8 -->
<g id="edge7" class="edge">
<title>Node1&#45;&gt;Node8</title>
<path fill="none" stroke="midnightblue" d="M674.21,-71.67C740.18,-65.37 860.72,-52.05 962,-31 966.48,-30.07 971.15,-28.95 975.75,-27.76"/>
<polygon fill="midnightblue" stroke="midnightblue" points="976.93,-31.07 985.65,-25.06 975.09,-24.31 976.93,-31.07"/>
</g>
</g>
</svg>
