<?xml version="1.0" encoding="UTF-8" standalone="no"?>
<!DOCTYPE svg PUBLIC "-//W3C//DTD SVG 1.1//EN"
 "http://www.w3.org/Graphics/SVG/1.1/DTD/svg11.dtd">
<!-- Generated by graphviz version 2.43.0 (0)
 -->
<!-- Title: ActuatorFunctorsSimple.C Pages: 1 -->
<svg width="1277pt" height="95pt"
 viewBox="0.00 0.00 1277.00 95.00" xmlns="http://www.w3.org/2000/svg" xmlns:xlink="http://www.w3.org/1999/xlink">
<g id="graph0" class="graph" transform="scale(1 1) rotate(0) translate(4 91)">
<title>ActuatorFunctorsSimple.C</title>
<polygon fill="white" stroke="transparent" points="-4,4 -4,-91 1273,-91 1273,4 -4,4"/>
<!-- Node1 -->
<g id="node1" class="node">
<title>Node1</title>
<g id="a_node1"><a xlink:title=" ">
<polygon fill="#bfbfbf" stroke="black" points="742,-67.5 742,-86.5 885,-86.5 885,-67.5 742,-67.5"/>
<text text-anchor="middle" x="813.5" y="-74.5" font-family="Helvetica,sans-Serif" font-size="10.00">ActuatorFunctorsSimple.C</text>
</a>
</g>
</g>
<!-- Node2 -->
<g id="node2" class="node">
<title>Node2</title>
<g id="a_node2"><a xlink:title=" ">
<polygon fill="white" stroke="#bfbfbf" points="0,-0.5 0,-30.5 167,-30.5 167,-0.5 0,-0.5"/>
<text text-anchor="start" x="8" y="-18.5" font-family="Helvetica,sans-Serif" font-size="10.00">aero/actuator/ActuatorFunctors</text>
<text text-anchor="middle" x="83.5" y="-7.5" font-family="Helvetica,sans-Serif" font-size="10.00">Simple.h</text>
</a>
</g>
</g>
<!-- Node1&#45;&gt;Node2 -->
<g id="edge1" class="edge">
<title>Node1&#45;&gt;Node2</title>
<path fill="none" stroke="midnightblue" d="M741.56,-72.94C625.06,-67.55 387.72,-54.71 177.2,-31.13"/>
<polygon fill="midnightblue" stroke="midnightblue" points="177.53,-27.65 167.2,-30 176.74,-34.6 177.53,-27.65"/>
</g>
<!-- Node3 -->
<g id="node3" class="node">
<title>Node3</title>
<g id="a_node3"><a xlink:title=" ">
<polygon fill="white" stroke="#bfbfbf" points="185,-6 185,-25 358,-25 358,-6 185,-6"/>
<text text-anchor="middle" x="271.5" y="-13" font-family="Helvetica,sans-Serif" font-size="10.00">aero/actuator/UtilitiesActuator.h</text>
</a>
</g>
</g>
<!-- Node1&#45;&gt;Node3 -->
<g id="edge2" class="edge">
<title>Node1&#45;&gt;Node3</title>
<path fill="none" stroke="midnightblue" d="M741.76,-69.92C653.36,-62.16 498.62,-47.72 366.5,-31 356.09,-29.68 345.06,-28.14 334.34,-26.55"/>
<polygon fill="midnightblue" stroke="midnightblue" points="334.6,-23.06 324.19,-25.03 333.57,-29.98 334.6,-23.06"/>
</g>
<!-- Node4 -->
<g id="node4" class="node">
<title>Node4</title>
<g id="a_node4"><a xlink:title=" ">
<polygon fill="white" stroke="#bfbfbf" points="376,-6 376,-25 535,-25 535,-6 376,-6"/>
<text text-anchor="middle" x="455.5" y="-13" font-family="Helvetica,sans-Serif" font-size="10.00">stk_mesh/base/BulkData.hpp</text>
</a>
</g>
</g>
<!-- Node1&#45;&gt;Node4 -->
<g id="edge3" class="edge">
<title>Node1&#45;&gt;Node4</title>
<path fill="none" stroke="midnightblue" d="M762.21,-67.48C697.34,-56.69 585.79,-38.15 516.59,-26.65"/>
<polygon fill="midnightblue" stroke="midnightblue" points="517.14,-23.2 506.7,-25.01 515.99,-30.1 517.14,-23.2"/>
</g>
<!-- Node5 -->
<g id="node5" class="node">
<title>Node5</title>
<g id="a_node5"><a xlink:title=" ">
<polygon fill="white" stroke="#bfbfbf" points="553.5,-6 553.5,-25 715.5,-25 715.5,-6 553.5,-6"/>
<text text-anchor="middle" x="634.5" y="-13" font-family="Helvetica,sans-Serif" font-size="10.00">stk_mesh/base/MetaData.hpp</text>
</a>
</g>
</g>
<!-- Node1&#45;&gt;Node5 -->
<g id="edge4" class="edge">
<title>Node1&#45;&gt;Node5</title>
<path fill="none" stroke="midnightblue" d="M787.85,-67.48C756.88,-57.18 704.63,-39.81 669.85,-28.25"/>
<polygon fill="midnightblue" stroke="midnightblue" points="670.69,-24.84 660.1,-25.01 668.48,-31.48 670.69,-24.84"/>
</g>
<!-- Node6 -->
<g id="node6" class="node">
<title>Node6</title>
<g id="a_node6"><a xlink:title=" ">
<polygon fill="white" stroke="#bfbfbf" points="734,-6 734,-25 799,-25 799,-6 734,-6"/>
<text text-anchor="middle" x="766.5" y="-13" font-family="Helvetica,sans-Serif" font-size="10.00">NaluEnv.h</text>
</a>
</g>
</g>
<!-- Node1&#45;&gt;Node6 -->
<g id="edge5" class="edge">
<title>Node1&#45;&gt;Node6</title>
<path fill="none" stroke="midnightblue" d="M806.77,-67.48C799.72,-58.55 788.47,-44.31 779.65,-33.14"/>
<polygon fill="midnightblue" stroke="midnightblue" points="782.17,-30.69 773.22,-25.01 776.67,-35.03 782.17,-30.69"/>
</g>
<!-- Node7 -->
<g id="node7" class="node">
<title>Node7</title>
<g id="a_node7"><a xlink:title=" ">
<polygon fill="white" stroke="#bfbfbf" points="817.5,-6 817.5,-25 905.5,-25 905.5,-6 817.5,-6"/>
<text text-anchor="middle" x="861.5" y="-13" font-family="Helvetica,sans-Serif" font-size="10.00">FieldTypeDef.h</text>
</a>
</g>
</g>
<!-- Node1&#45;&gt;Node7 -->
<g id="edge6" class="edge">
<title>Node1&#45;&gt;Node7</title>
<path fill="none" stroke="midnightblue" d="M820.38,-67.48C827.65,-58.46 839.3,-44.02 848.34,-32.81"/>
<polygon fill="midnightblue" stroke="midnightblue" points="851.08,-34.99 854.64,-25.01 845.63,-30.59 851.08,-34.99"/>
</g>
<!-- Node8 -->
<g id="node8" class="node">
<title>Node8</title>
<g id="a_node8"><a xlink:title=" ">
<polygon fill="white" stroke="#bfbfbf" points="923.5,-6 923.5,-25 1065.5,-25 1065.5,-6 923.5,-6"/>
<text text-anchor="middle" x="994.5" y="-13" font-family="Helvetica,sans-Serif" font-size="10.00">utils/LinearInterpolation.h</text>
</a>
</g>
</g>
<!-- Node1&#45;&gt;Node8 -->
<g id="edge7" class="edge">
<title>Node1&#45;&gt;Node8</title>
<path fill="none" stroke="midnightblue" d="M839.43,-67.48C870.75,-57.18 923.59,-39.81 958.76,-28.25"/>
<polygon fill="midnightblue" stroke="midnightblue" points="960.21,-31.46 968.62,-25.01 958.02,-24.81 960.21,-31.46"/>
</g>
<!-- Node9 -->
<g id="node9" class="node">
<title>Node9</title>
<g id="a_node9"><a xlink:title=" ">
<polygon fill="white" stroke="#bfbfbf" points="1084,-6 1084,-25 1131,-25 1131,-6 1084,-6"/>
<text text-anchor="middle" x="1107.5" y="-13" font-family="Helvetica,sans-Serif" font-size="10.00">cmath</text>
</a>
</g>
</g>
<!-- Node1&#45;&gt;Node9 -->
<g id="edge8" class="edge">
<title>Node1&#45;&gt;Node9</title>
<path fill="none" stroke="midnightblue" d="M885.2,-68.41C938.25,-61.65 1011.87,-49.85 1074.5,-31 1076.43,-30.42 1078.4,-29.75 1080.37,-29.03"/>
<polygon fill="midnightblue" stroke="midnightblue" points="1082.03,-32.14 1089.99,-25.14 1079.41,-25.65 1082.03,-32.14"/>
</g>
<!-- Node10 -->
<g id="node10" class="node">
<title>Node10</title>
<g id="a_node10"><a xlink:title=" ">
<polygon fill="white" stroke="#bfbfbf" points="1149.5,-6 1149.5,-25 1193.5,-25 1193.5,-6 1149.5,-6"/>
<text text-anchor="middle" x="1171.5" y="-13" font-family="Helvetica,sans-Serif" font-size="10.00">string</text>
</a>
</g>
</g>
<!-- Node1&#45;&gt;Node10 -->
<g id="edge9" class="edge">
<title>Node1&#45;&gt;Node10</title>
<path fill="none" stroke="midnightblue" d="M885.28,-72.33C952.42,-67.45 1054.9,-56.28 1140.5,-31 1142.38,-30.44 1144.29,-29.79 1146.19,-29.08"/>
<polygon fill="midnightblue" stroke="midnightblue" points="1147.63,-32.27 1155.45,-25.12 1144.88,-25.83 1147.63,-32.27"/>
</g>
<!-- Node11 -->
<g id="node11" class="node">
<title>Node11</title>
<g id="a_node11"><a xlink:title=" ">
<polygon fill="white" stroke="#bfbfbf" points="1212,-6 1212,-25 1269,-25 1269,-6 1212,-6"/>
<text text-anchor="middle" x="1240.5" y="-13" font-family="Helvetica,sans-Serif" font-size="10.00">ostream</text>
</a>
</g>
</g>
<!-- Node1&#45;&gt;Node11 -->
<g id="edge10" class="edge">
<title>Node1&#45;&gt;Node11</title>
<path fill="none" stroke="midnightblue" d="M885.07,-73.07C963.83,-68.61 1093.7,-57.61 1202.5,-31 1205.33,-30.31 1208.23,-29.46 1211.11,-28.53"/>
<polygon fill="midnightblue" stroke="midnightblue" points="1212.43,-31.78 1220.68,-25.13 1210.09,-25.18 1212.43,-31.78"/>
</g>
</g>
</svg>
