<?xml version="1.0" encoding="UTF-8" standalone="no"?>
<!DOCTYPE svg PUBLIC "-//W3C//DTD SVG 1.1//EN"
 "http://www.w3.org/Graphics/SVG/1.1/DTD/svg11.dtd">
<!-- Generated by graphviz version 2.43.0 (0)
 -->
<!-- Title: ActuatorBladeDistributor.C Pages: 1 -->
<svg width="412pt" height="95pt"
 viewBox="0.00 0.00 411.50 95.00" xmlns="http://www.w3.org/2000/svg" xmlns:xlink="http://www.w3.org/1999/xlink">
<g id="graph0" class="graph" transform="scale(1 1) rotate(0) translate(4 91)">
<title>ActuatorBladeDistributor.C</title>
<polygon fill="white" stroke="transparent" points="-4,4 -4,-91 407.5,-91 407.5,4 -4,4"/>
<!-- Node1 -->
<g id="node1" class="node">
<title>Node1</title>
<g id="a_node1"><a xlink:title=" ">
<polygon fill="#bfbfbf" stroke="black" points="173,-67.5 173,-86.5 319,-86.5 319,-67.5 173,-67.5"/>
<text text-anchor="middle" x="246" y="-74.5" font-family="Helvetica,sans-Serif" font-size="10.00">ActuatorBladeDistributor.C</text>
</a>
</g>
</g>
<!-- Node2 -->
<g id="node2" class="node">
<title>Node2</title>
<g id="a_node2"><a xlink:title=" ">
<polygon fill="white" stroke="#bfbfbf" points="0,-0.5 0,-30.5 154,-30.5 154,-0.5 0,-0.5"/>
<text text-anchor="start" x="8" y="-18.5" font-family="Helvetica,sans-Serif" font-size="10.00">aero/actuator/ActuatorBlade</text>
<text text-anchor="middle" x="77" y="-7.5" font-family="Helvetica,sans-Serif" font-size="10.00">Distributor.h</text>
</a>
</g>
</g>
<!-- Node1&#45;&gt;Node2 -->
<g id="edge1" class="edge">
<title>Node1&#45;&gt;Node2</title>
<path fill="none" stroke="midnightblue" d="M221.79,-67.48C196.97,-58.74 157.69,-44.91 126.29,-33.86"/>
<polygon fill="midnightblue" stroke="midnightblue" points="127.42,-30.54 116.83,-30.52 125.1,-37.15 127.42,-30.54"/>
</g>
<!-- Node3 -->
<g id="node3" class="node">
<title>Node3</title>
<g id="a_node3"><a xlink:title=" ">
<polygon fill="white" stroke="#bfbfbf" points="172,-0.5 172,-30.5 320,-30.5 320,-0.5 172,-0.5"/>
<text text-anchor="start" x="180" y="-18.5" font-family="Helvetica,sans-Serif" font-size="10.00">aero/actuator/ActuatorBulk</text>
<text text-anchor="middle" x="246" y="-7.5" font-family="Helvetica,sans-Serif" font-size="10.00">Simple.h</text>
</a>
</g>
</g>
<!-- Node1&#45;&gt;Node3 -->
<g id="edge2" class="edge">
<title>Node1&#45;&gt;Node3</title>
<path fill="none" stroke="midnightblue" d="M246,-67.48C246,-60.47 246,-50.19 246,-40.7"/>
<polygon fill="midnightblue" stroke="midnightblue" points="249.5,-40.52 246,-30.52 242.5,-40.52 249.5,-40.52"/>
</g>
<!-- Node4 -->
<g id="node4" class="node">
<title>Node4</title>
<g id="a_node4"><a xlink:title=" ">
<polygon fill="white" stroke="#bfbfbf" points="338.5,-6 338.5,-25 403.5,-25 403.5,-6 338.5,-6"/>
<text text-anchor="middle" x="371" y="-13" font-family="Helvetica,sans-Serif" font-size="10.00">NaluEnv.h</text>
</a>
</g>
</g>
<!-- Node1&#45;&gt;Node4 -->
<g id="edge3" class="edge">
<title>Node1&#45;&gt;Node4</title>
<path fill="none" stroke="midnightblue" d="M263.91,-67.48C284.89,-57.49 319.85,-40.85 344.09,-29.31"/>
<polygon fill="midnightblue" stroke="midnightblue" points="345.6,-32.47 353.12,-25.01 342.59,-26.15 345.6,-32.47"/>
</g>
</g>
</svg>
