<?xml version="1.0" encoding="UTF-8" standalone="no"?>
<!DOCTYPE svg PUBLIC "-//W3C//DTD SVG 1.1//EN"
 "http://www.w3.org/Graphics/SVG/1.1/DTD/svg11.dtd">
<!-- Generated by graphviz version 2.43.0 (0)
 -->
<!-- Title: ActuatorBulkFAST.C Pages: 1 -->
<svg width="616pt" height="95pt"
 viewBox="0.00 0.00 615.50 95.00" xmlns="http://www.w3.org/2000/svg" xmlns:xlink="http://www.w3.org/1999/xlink">
<g id="graph0" class="graph" transform="scale(1 1) rotate(0) translate(4 91)">
<title>ActuatorBulkFAST.C</title>
<polygon fill="white" stroke="transparent" points="-4,4 -4,-91 611.5,-91 611.5,4 -4,4"/>
<!-- Node1 -->
<g id="node1" class="node">
<title>Node1</title>
<g id="a_node1"><a xlink:title=" ">
<polygon fill="#bfbfbf" stroke="black" points="291,-67.5 291,-86.5 403,-86.5 403,-67.5 291,-67.5"/>
<text text-anchor="middle" x="347" y="-74.5" font-family="Helvetica,sans-Serif" font-size="10.00">ActuatorBulkFAST.C</text>
</a>
</g>
</g>
<!-- Node2 -->
<g id="node2" class="node">
<title>Node2</title>
<g id="a_node2"><a xlink:title=" ">
<polygon fill="white" stroke="#bfbfbf" points="0,-0.5 0,-30.5 148,-30.5 148,-0.5 0,-0.5"/>
<text text-anchor="start" x="8" y="-18.5" font-family="Helvetica,sans-Serif" font-size="10.00">aero/actuator/ActuatorBulk</text>
<text text-anchor="middle" x="74" y="-7.5" font-family="Helvetica,sans-Serif" font-size="10.00">FAST.h</text>
</a>
</g>
</g>
<!-- Node1&#45;&gt;Node2 -->
<g id="edge1" class="edge">
<title>Node1&#45;&gt;Node2</title>
<path fill="none" stroke="midnightblue" d="M307.89,-67.48C266.42,-58.44 199.93,-43.95 148.43,-32.72"/>
<polygon fill="midnightblue" stroke="midnightblue" points="148.86,-29.23 138.34,-30.52 147.37,-36.07 148.86,-29.23"/>
</g>
<!-- Node3 -->
<g id="node3" class="node">
<title>Node3</title>
<g id="a_node3"><a xlink:title=" ">
<polygon fill="white" stroke="#bfbfbf" points="166.5,-6 166.5,-25 339.5,-25 339.5,-6 166.5,-6"/>
<text text-anchor="middle" x="253" y="-13" font-family="Helvetica,sans-Serif" font-size="10.00">aero/actuator/UtilitiesActuator.h</text>
</a>
</g>
</g>
<!-- Node1&#45;&gt;Node3 -->
<g id="edge2" class="edge">
<title>Node1&#45;&gt;Node3</title>
<path fill="none" stroke="midnightblue" d="M333.53,-67.48C318.32,-57.84 293.31,-42.02 275.2,-30.55"/>
<polygon fill="midnightblue" stroke="midnightblue" points="276.76,-27.4 266.44,-25.01 273.02,-33.31 276.76,-27.4"/>
</g>
<!-- Node4 -->
<g id="node4" class="node">
<title>Node4</title>
<g id="a_node4"><a xlink:title=" ">
<polygon fill="white" stroke="#bfbfbf" points="357.5,-0.5 357.5,-30.5 524.5,-30.5 524.5,-0.5 357.5,-0.5"/>
<text text-anchor="start" x="365.5" y="-18.5" font-family="Helvetica,sans-Serif" font-size="10.00">aero/actuator/ActuatorFunctors</text>
<text text-anchor="middle" x="441" y="-7.5" font-family="Helvetica,sans-Serif" font-size="10.00">FAST.h</text>
</a>
</g>
</g>
<!-- Node1&#45;&gt;Node4 -->
<g id="edge3" class="edge">
<title>Node1&#45;&gt;Node4</title>
<path fill="none" stroke="midnightblue" d="M360.47,-67.48C373.44,-59.27 393.51,-46.56 410.38,-35.88"/>
<polygon fill="midnightblue" stroke="midnightblue" points="412.27,-38.83 418.85,-30.52 408.52,-32.91 412.27,-38.83"/>
</g>
<!-- Node5 -->
<g id="node5" class="node">
<title>Node5</title>
<g id="a_node5"><a xlink:title=" ">
<polygon fill="white" stroke="#bfbfbf" points="542.5,-6 542.5,-25 607.5,-25 607.5,-6 542.5,-6"/>
<text text-anchor="middle" x="575" y="-13" font-family="Helvetica,sans-Serif" font-size="10.00">NaluEnv.h</text>
</a>
</g>
</g>
<!-- Node1&#45;&gt;Node5 -->
<g id="edge4" class="edge">
<title>Node1&#45;&gt;Node5</title>
<path fill="none" stroke="midnightblue" d="M387.81,-67.46C425.91,-59.18 484.21,-45.75 534,-31 536.78,-30.18 539.65,-29.27 542.52,-28.33"/>
<polygon fill="midnightblue" stroke="midnightblue" points="543.81,-31.59 552.15,-25.05 541.56,-24.96 543.81,-31.59"/>
</g>
</g>
</svg>
