<?xml version="1.0" encoding="UTF-8" standalone="no"?>
<!DOCTYPE svg PUBLIC "-//W3C//DTD SVG 1.1//EN"
 "http://www.w3.org/Graphics/SVG/1.1/DTD/svg11.dtd">
<!-- Generated by graphviz version 2.43.0 (0)
 -->
<!-- Title: AssembleScalarEigenEdgeSolverAlgorithm.C Pages: 1 -->
<svg width="2034pt" height="106pt"
 viewBox="0.00 0.00 2033.50 106.00" xmlns="http://www.w3.org/2000/svg" xmlns:xlink="http://www.w3.org/1999/xlink">
<g id="graph0" class="graph" transform="scale(1 1) rotate(0) translate(4 102)">
<title>AssembleScalarEigenEdgeSolverAlgorithm.C</title>
<polygon fill="white" stroke="transparent" points="-4,4 -4,-102 2029.5,-102 2029.5,4 -4,4"/>
<!-- Node1 -->
<g id="node1" class="node">
<title>Node1</title>
<g id="a_node1"><a xlink:title=" ">
<polygon fill="#bfbfbf" stroke="black" points="750,-67.5 750,-97.5 926,-97.5 926,-67.5 750,-67.5"/>
<text text-anchor="start" x="758" y="-85.5" font-family="Helvetica,sans-Serif" font-size="10.00">AssembleScalarEigenEdgeSolver</text>
<text text-anchor="middle" x="838" y="-74.5" font-family="Helvetica,sans-Serif" font-size="10.00">Algorithm.C</text>
</a>
</g>
</g>
<!-- Node2 -->
<g id="node2" class="node">
<title>Node2</title>
<g id="a_node2"><a xlink:title=" ">
<polygon fill="white" stroke="#bfbfbf" points="0,-0.5 0,-30.5 176,-30.5 176,-0.5 0,-0.5"/>
<text text-anchor="start" x="8" y="-18.5" font-family="Helvetica,sans-Serif" font-size="10.00">AssembleScalarEigenEdgeSolver</text>
<text text-anchor="middle" x="88" y="-7.5" font-family="Helvetica,sans-Serif" font-size="10.00">Algorithm.h</text>
</a>
</g>
</g>
<!-- Node1&#45;&gt;Node2 -->
<g id="edge1" class="edge">
<title>Node1&#45;&gt;Node2</title>
<path fill="none" stroke="midnightblue" d="M749.88,-76.68C626.28,-69.48 394.17,-54.33 186.44,-31.11"/>
<polygon fill="midnightblue" stroke="midnightblue" points="186.58,-27.61 176.25,-29.96 185.8,-34.56 186.58,-27.61"/>
</g>
<!-- Node3 -->
<g id="node3" class="node">
<title>Node3</title>
<g id="a_node3"><a xlink:title=" ">
<polygon fill="white" stroke="#bfbfbf" points="194.5,-6 194.5,-25 253.5,-25 253.5,-6 194.5,-6"/>
<text text-anchor="middle" x="224" y="-13" font-family="Helvetica,sans-Serif" font-size="10.00">Enums.h</text>
</a>
</g>
</g>
<!-- Node1&#45;&gt;Node3 -->
<g id="edge2" class="edge">
<title>Node1&#45;&gt;Node3</title>
<path fill="none" stroke="midnightblue" d="M749.98,-81.31C635.97,-79.35 431.74,-70.03 262,-31 259,-30.31 255.92,-29.43 252.87,-28.46"/>
<polygon fill="midnightblue" stroke="midnightblue" points="253.99,-25.14 243.4,-25.09 251.65,-31.74 253.99,-25.14"/>
</g>
<!-- Node4 -->
<g id="node4" class="node">
<title>Node4</title>
<g id="a_node4"><a xlink:title=" ">
<polygon fill="white" stroke="#bfbfbf" points="271.5,-6 271.5,-25 376.5,-25 376.5,-6 271.5,-6"/>
<text text-anchor="middle" x="324" y="-13" font-family="Helvetica,sans-Serif" font-size="10.00">EquationSystem.h</text>
</a>
</g>
</g>
<!-- Node1&#45;&gt;Node4 -->
<g id="edge3" class="edge">
<title>Node1&#45;&gt;Node4</title>
<path fill="none" stroke="midnightblue" d="M749.65,-74.75C658.21,-67.03 511.48,-52.6 386,-31 379.85,-29.94 373.4,-28.64 367.08,-27.27"/>
<polygon fill="midnightblue" stroke="midnightblue" points="367.84,-23.85 357.32,-25.06 366.3,-30.68 367.84,-23.85"/>
</g>
<!-- Node5 -->
<g id="node5" class="node">
<title>Node5</title>
<g id="a_node5"><a xlink:title=" ">
<polygon fill="white" stroke="#bfbfbf" points="395,-6 395,-25 483,-25 483,-6 395,-6"/>
<text text-anchor="middle" x="439" y="-13" font-family="Helvetica,sans-Serif" font-size="10.00">FieldTypeDef.h</text>
</a>
</g>
</g>
<!-- Node1&#45;&gt;Node5 -->
<g id="edge4" class="edge">
<title>Node1&#45;&gt;Node5</title>
<path fill="none" stroke="midnightblue" d="M749.67,-71.63C679.44,-63.05 578.91,-49.16 492,-31 487.29,-30.02 482.37,-28.86 477.52,-27.63"/>
<polygon fill="midnightblue" stroke="midnightblue" points="478.29,-24.21 467.73,-25.05 476.5,-30.98 478.29,-24.21"/>
</g>
<!-- Node6 -->
<g id="node6" class="node">
<title>Node6</title>
<g id="a_node6"><a xlink:title=" ">
<polygon fill="white" stroke="#bfbfbf" points="501,-6 501,-25 593,-25 593,-6 501,-6"/>
<text text-anchor="middle" x="547" y="-13" font-family="Helvetica,sans-Serif" font-size="10.00">LinearSystem.h</text>
</a>
</g>
</g>
<!-- Node1&#45;&gt;Node6 -->
<g id="edge5" class="edge">
<title>Node1&#45;&gt;Node6</title>
<path fill="none" stroke="midnightblue" d="M768.36,-67.49C721.26,-57.8 657.73,-44.3 602,-31 597.56,-29.94 592.93,-28.79 588.32,-27.62"/>
<polygon fill="midnightblue" stroke="midnightblue" points="588.91,-24.15 578.35,-25.04 587.15,-30.93 588.91,-24.15"/>
</g>
<!-- Node7 -->
<g id="node7" class="node">
<title>Node7</title>
<g id="a_node7"><a xlink:title=" ">
<polygon fill="white" stroke="#bfbfbf" points="611.5,-6 611.5,-25 676.5,-25 676.5,-6 611.5,-6"/>
<text text-anchor="middle" x="644" y="-13" font-family="Helvetica,sans-Serif" font-size="10.00">NaluEnv.h</text>
</a>
</g>
</g>
<!-- Node1&#45;&gt;Node7 -->
<g id="edge6" class="edge">
<title>Node1&#45;&gt;Node7</title>
<path fill="none" stroke="midnightblue" d="M794.72,-67.49C764.04,-57.48 721.92,-43.62 685,-31 682.56,-30.17 680.05,-29.3 677.51,-28.42"/>
<polygon fill="midnightblue" stroke="midnightblue" points="678.41,-25.02 667.82,-25.02 676.1,-31.63 678.41,-25.02"/>
</g>
<!-- Node8 -->
<g id="node8" class="node">
<title>Node8</title>
<g id="a_node8"><a xlink:title=" ">
<polygon fill="white" stroke="#bfbfbf" points="694.5,-6 694.5,-25 791.5,-25 791.5,-6 694.5,-6"/>
<text text-anchor="middle" x="743" y="-13" font-family="Helvetica,sans-Serif" font-size="10.00">PecletFunction.h</text>
</a>
</g>
</g>
<!-- Node1&#45;&gt;Node8 -->
<g id="edge7" class="edge">
<title>Node1&#45;&gt;Node8</title>
<path fill="none" stroke="midnightblue" d="M817.39,-67.4C801.6,-56.6 779.91,-41.76 764.03,-30.89"/>
<polygon fill="midnightblue" stroke="midnightblue" points="765.66,-27.77 755.43,-25.01 761.71,-33.54 765.66,-27.77"/>
</g>
<!-- Node9 -->
<g id="node9" class="node">
<title>Node9</title>
<g id="a_node9"><a xlink:title=" ">
<polygon fill="white" stroke="#bfbfbf" points="809.5,-6 809.5,-25 866.5,-25 866.5,-6 809.5,-6"/>
<text text-anchor="middle" x="838" y="-13" font-family="Helvetica,sans-Serif" font-size="10.00">Realm.h</text>
</a>
</g>
</g>
<!-- Node1&#45;&gt;Node9 -->
<g id="edge8" class="edge">
<title>Node1&#45;&gt;Node9</title>
<path fill="none" stroke="midnightblue" d="M838,-67.4C838,-58.06 838,-45.71 838,-35.52"/>
<polygon fill="midnightblue" stroke="midnightblue" points="841.5,-35.19 838,-25.19 834.5,-35.19 841.5,-35.19"/>
</g>
<!-- Node10 -->
<g id="node10" class="node">
<title>Node10</title>
<g id="a_node10"><a xlink:title=" ">
<polygon fill="white" stroke="#bfbfbf" points="884.5,-6 884.5,-25 987.5,-25 987.5,-6 884.5,-6"/>
<text text-anchor="middle" x="936" y="-13" font-family="Helvetica,sans-Serif" font-size="10.00">SolutionOptions.h</text>
</a>
</g>
</g>
<!-- Node1&#45;&gt;Node10 -->
<g id="edge9" class="edge">
<title>Node1&#45;&gt;Node10</title>
<path fill="none" stroke="midnightblue" d="M859.26,-67.4C875.7,-56.5 898.34,-41.48 914.77,-30.58"/>
<polygon fill="midnightblue" stroke="midnightblue" points="916.78,-33.45 923.17,-25.01 912.91,-27.62 916.78,-33.45"/>
</g>
<!-- Node11 -->
<g id="node11" class="node">
<title>Node11</title>
<g id="a_node11"><a xlink:title=" ">
<polygon fill="white" stroke="#bfbfbf" points="1005.5,-6 1005.5,-25 1164.5,-25 1164.5,-6 1005.5,-6"/>
<text text-anchor="middle" x="1085" y="-13" font-family="Helvetica,sans-Serif" font-size="10.00">stk_mesh/base/BulkData.hpp</text>
</a>
</g>
</g>
<!-- Node1&#45;&gt;Node11 -->
<g id="edge10" class="edge">
<title>Node1&#45;&gt;Node11</title>
<path fill="none" stroke="midnightblue" d="M891.29,-67.48C936.62,-55.55 1000.85,-38.64 1042.72,-27.63"/>
<polygon fill="midnightblue" stroke="midnightblue" points="1043.81,-30.96 1052.59,-25.03 1042.03,-24.19 1043.81,-30.96"/>
</g>
<!-- Node12 -->
<g id="node12" class="node">
<title>Node12</title>
<g id="a_node12"><a xlink:title=" ">
<polygon fill="white" stroke="#bfbfbf" points="1182.5,-6 1182.5,-25 1319.5,-25 1319.5,-6 1182.5,-6"/>
<text text-anchor="middle" x="1251" y="-13" font-family="Helvetica,sans-Serif" font-size="10.00">stk_mesh/base/Field.hpp</text>
</a>
</g>
</g>
<!-- Node1&#45;&gt;Node12 -->
<g id="edge11" class="edge">
<title>Node1&#45;&gt;Node12</title>
<path fill="none" stroke="midnightblue" d="M926.22,-69.15C994.07,-59.43 1090.1,-45.2 1174,-31 1181.46,-29.74 1189.31,-28.34 1197.04,-26.92"/>
<polygon fill="midnightblue" stroke="midnightblue" points="1197.88,-30.33 1207.07,-25.06 1196.6,-23.44 1197.88,-30.33"/>
</g>
<!-- Node13 -->
<g id="node13" class="node">
<title>Node13</title>
<g id="a_node13"><a xlink:title=" ">
<polygon fill="white" stroke="#bfbfbf" points="1338,-6 1338,-25 1508,-25 1508,-6 1338,-6"/>
<text text-anchor="middle" x="1423" y="-13" font-family="Helvetica,sans-Serif" font-size="10.00">stk_mesh/base/GetBuckets.hpp</text>
</a>
</g>
</g>
<!-- Node1&#45;&gt;Node13 -->
<g id="edge12" class="edge">
<title>Node1&#45;&gt;Node13</title>
<path fill="none" stroke="midnightblue" d="M926.41,-73.76C1024.83,-64.84 1188.55,-49.04 1329,-31 1339.3,-29.68 1350.22,-28.13 1360.82,-26.55"/>
<polygon fill="midnightblue" stroke="midnightblue" points="1361.5,-29.98 1370.86,-25.02 1360.45,-23.06 1361.5,-29.98"/>
</g>
<!-- Node14 -->
<g id="node14" class="node">
<title>Node14</title>
<g id="a_node14"><a xlink:title=" ">
<polygon fill="white" stroke="#bfbfbf" points="1526,-6 1526,-25 1694,-25 1694,-6 1526,-6"/>
<text text-anchor="middle" x="1610" y="-13" font-family="Helvetica,sans-Serif" font-size="10.00">stk_mesh/base/GetEntities.hpp</text>
</a>
</g>
</g>
<!-- Node1&#45;&gt;Node14 -->
<g id="edge13" class="edge">
<title>Node1&#45;&gt;Node14</title>
<path fill="none" stroke="midnightblue" d="M926.11,-77.22C1055.81,-70.39 1305.62,-55.3 1517,-31 1527.69,-29.77 1539.03,-28.22 1549.98,-26.58"/>
<polygon fill="midnightblue" stroke="midnightblue" points="1550.55,-30.04 1559.9,-25.07 1549.49,-23.12 1550.55,-30.04"/>
</g>
<!-- Node15 -->
<g id="node15" class="node">
<title>Node15</title>
<g id="a_node15"><a xlink:title=" ">
<polygon fill="white" stroke="#bfbfbf" points="1712,-6 1712,-25 1874,-25 1874,-6 1712,-6"/>
<text text-anchor="middle" x="1793" y="-13" font-family="Helvetica,sans-Serif" font-size="10.00">stk_mesh/base/MetaData.hpp</text>
</a>
</g>
</g>
<!-- Node1&#45;&gt;Node15 -->
<g id="edge14" class="edge">
<title>Node1&#45;&gt;Node15</title>
<path fill="none" stroke="midnightblue" d="M926.04,-79.31C1082.7,-74.75 1420,-61.98 1703,-31 1713.72,-29.83 1725.11,-28.25 1736.05,-26.57"/>
<polygon fill="midnightblue" stroke="midnightblue" points="1736.62,-30.02 1745.95,-25 1735.52,-23.11 1736.62,-30.02"/>
</g>
<!-- Node16 -->
<g id="node16" class="node">
<title>Node16</title>
<g id="a_node16"><a xlink:title=" ">
<polygon fill="white" stroke="#bfbfbf" points="1892.5,-6 1892.5,-25 2025.5,-25 2025.5,-6 1892.5,-6"/>
<text text-anchor="middle" x="1959" y="-13" font-family="Helvetica,sans-Serif" font-size="10.00">stk_mesh/base/Part.hpp</text>
</a>
</g>
</g>
<!-- Node1&#45;&gt;Node16 -->
<g id="edge15" class="edge">
<title>Node1&#45;&gt;Node16</title>
<path fill="none" stroke="midnightblue" d="M926.08,-81.4C1106.36,-80.29 1530.16,-72.97 1883,-31 1891.82,-29.95 1901.15,-28.48 1910.15,-26.87"/>
<polygon fill="midnightblue" stroke="midnightblue" points="1910.92,-30.28 1920.11,-25.01 1909.64,-23.4 1910.92,-30.28"/>
</g>
</g>
</svg>
