<?xml version="1.0" encoding="UTF-8" standalone="no"?>
<!DOCTYPE svg PUBLIC "-//W3C//DTD SVG 1.1//EN"
 "http://www.w3.org/Graphics/SVG/1.1/DTD/svg11.dtd">
<!-- Generated by graphviz version 2.43.0 (0)
 -->
<!-- Title: AssembleEdgeSolverAlgorithm.C Pages: 1 -->
<svg width="494pt" height="84pt"
 viewBox="0.00 0.00 493.50 84.00" xmlns="http://www.w3.org/2000/svg" xmlns:xlink="http://www.w3.org/1999/xlink">
<g id="graph0" class="graph" transform="scale(1 1) rotate(0) translate(4 80)">
<title>AssembleEdgeSolverAlgorithm.C</title>
<polygon fill="white" stroke="transparent" points="-4,4 -4,-80 489.5,-80 489.5,4 -4,4"/>
<!-- Node1 -->
<g id="node1" class="node">
<title>Node1</title>
<g id="a_node1"><a xlink:title=" ">
<polygon fill="#bfbfbf" stroke="black" points="216.5,-56.5 216.5,-75.5 393.5,-75.5 393.5,-56.5 216.5,-56.5"/>
<text text-anchor="middle" x="305" y="-63.5" font-family="Helvetica,sans-Serif" font-size="10.00">AssembleEdgeSolverAlgorithm.C</text>
</a>
</g>
</g>
<!-- Node2 -->
<g id="node2" class="node">
<title>Node2</title>
<g id="a_node2"><a xlink:title=" ">
<polygon fill="white" stroke="#bfbfbf" points="0,-0.5 0,-19.5 176,-19.5 176,-0.5 0,-0.5"/>
<text text-anchor="middle" x="88" y="-7.5" font-family="Helvetica,sans-Serif" font-size="10.00">AssembleEdgeSolverAlgorithm.h</text>
</a>
</g>
</g>
<!-- Node1&#45;&gt;Node2 -->
<g id="edge1" class="edge">
<title>Node1&#45;&gt;Node2</title>
<path fill="none" stroke="midnightblue" d="M270.62,-56.44C233.08,-47.1 172.87,-32.12 131.93,-21.93"/>
<polygon fill="midnightblue" stroke="midnightblue" points="132.77,-18.53 122.22,-19.52 131.08,-25.33 132.77,-18.53"/>
</g>
<!-- Node3 -->
<g id="node3" class="node">
<title>Node3</title>
<g id="a_node3"><a xlink:title=" ">
<polygon fill="white" stroke="#bfbfbf" points="194.5,-0.5 194.5,-19.5 299.5,-19.5 299.5,-0.5 194.5,-0.5"/>
<text text-anchor="middle" x="247" y="-7.5" font-family="Helvetica,sans-Serif" font-size="10.00">EquationSystem.h</text>
</a>
</g>
</g>
<!-- Node1&#45;&gt;Node3 -->
<g id="edge2" class="edge">
<title>Node1&#45;&gt;Node3</title>
<path fill="none" stroke="midnightblue" d="M295.68,-56.32C287.11,-48.34 274.19,-36.31 263.81,-26.65"/>
<polygon fill="midnightblue" stroke="midnightblue" points="266.19,-24.09 256.49,-19.83 261.42,-29.21 266.19,-24.09"/>
</g>
<!-- Node4 -->
<g id="node4" class="node">
<title>Node4</title>
<g id="a_node4"><a xlink:title=" ">
<polygon fill="white" stroke="#bfbfbf" points="318,-0.5 318,-19.5 410,-19.5 410,-0.5 318,-0.5"/>
<text text-anchor="middle" x="364" y="-7.5" font-family="Helvetica,sans-Serif" font-size="10.00">LinearSystem.h</text>
</a>
</g>
</g>
<!-- Node1&#45;&gt;Node4 -->
<g id="edge3" class="edge">
<title>Node1&#45;&gt;Node4</title>
<path fill="none" stroke="midnightblue" d="M314.48,-56.32C323.2,-48.34 336.34,-36.31 346.9,-26.65"/>
<polygon fill="midnightblue" stroke="midnightblue" points="349.33,-29.17 354.35,-19.83 344.61,-24 349.33,-29.17"/>
</g>
<!-- Node5 -->
<g id="node5" class="node">
<title>Node5</title>
<g id="a_node5"><a xlink:title=" ">
<polygon fill="white" stroke="#bfbfbf" points="428.5,-0.5 428.5,-19.5 485.5,-19.5 485.5,-0.5 428.5,-0.5"/>
<text text-anchor="middle" x="457" y="-7.5" font-family="Helvetica,sans-Serif" font-size="10.00">Realm.h</text>
</a>
</g>
</g>
<!-- Node1&#45;&gt;Node5 -->
<g id="edge4" class="edge">
<title>Node1&#45;&gt;Node5</title>
<path fill="none" stroke="midnightblue" d="M329.08,-56.44C354.54,-47.4 394.89,-33.06 423.46,-22.92"/>
<polygon fill="midnightblue" stroke="midnightblue" points="424.78,-26.16 433.03,-19.52 422.43,-19.57 424.78,-26.16"/>
</g>
</g>
</svg>
