<?xml version="1.0" encoding="UTF-8" standalone="no"?>
<!DOCTYPE svg PUBLIC "-//W3C//DTD SVG 1.1//EN"
 "http://www.w3.org/Graphics/SVG/1.1/DTD/svg11.dtd">
<!-- Generated by graphviz version 2.43.0 (0)
 -->
<!-- Title: AssemblePNGNonConformalSolverAlgorithm.C Pages: 1 -->
<svg width="2032pt" height="106pt"
 viewBox="0.00 0.00 2032.00 106.00" xmlns="http://www.w3.org/2000/svg" xmlns:xlink="http://www.w3.org/1999/xlink">
<g id="graph0" class="graph" transform="scale(1 1) rotate(0) translate(4 102)">
<title>AssemblePNGNonConformalSolverAlgorithm.C</title>
<polygon fill="white" stroke="transparent" points="-4,4 -4,-102 2028,-102 2028,4 -4,4"/>
<!-- Node1 -->
<g id="node1" class="node">
<title>Node1</title>
<g id="a_node1"><a xlink:title=" ">
<polygon fill="#bfbfbf" stroke="black" points="788,-67.5 788,-97.5 975,-97.5 975,-67.5 788,-67.5"/>
<text text-anchor="start" x="796" y="-85.5" font-family="Helvetica,sans-Serif" font-size="10.00">AssemblePNGNonConformalSolver</text>
<text text-anchor="middle" x="881.5" y="-74.5" font-family="Helvetica,sans-Serif" font-size="10.00">Algorithm.C</text>
</a>
</g>
</g>
<!-- Node2 -->
<g id="node2" class="node">
<title>Node2</title>
<g id="a_node2"><a xlink:title=" ">
<polygon fill="white" stroke="#bfbfbf" points="0,-0.5 0,-30.5 187,-30.5 187,-0.5 0,-0.5"/>
<text text-anchor="start" x="8" y="-18.5" font-family="Helvetica,sans-Serif" font-size="10.00">AssemblePNGNonConformalSolver</text>
<text text-anchor="middle" x="93.5" y="-7.5" font-family="Helvetica,sans-Serif" font-size="10.00">Algorithm.h</text>
</a>
</g>
</g>
<!-- Node1&#45;&gt;Node2 -->
<g id="edge1" class="edge">
<title>Node1&#45;&gt;Node2</title>
<path fill="none" stroke="midnightblue" d="M787.84,-76.62C657.59,-69.38 414.2,-54.23 197.12,-31.13"/>
<polygon fill="midnightblue" stroke="midnightblue" points="197.44,-27.65 187.13,-30.06 196.7,-34.61 197.44,-27.65"/>
</g>
<!-- Node3 -->
<g id="node3" class="node">
<title>Node3</title>
<g id="a_node3"><a xlink:title=" ">
<polygon fill="white" stroke="#bfbfbf" points="205,-6 205,-25 310,-25 310,-6 205,-6"/>
<text text-anchor="middle" x="257.5" y="-13" font-family="Helvetica,sans-Serif" font-size="10.00">EquationSystem.h</text>
</a>
</g>
</g>
<!-- Node1&#45;&gt;Node3 -->
<g id="edge2" class="edge">
<title>Node1&#45;&gt;Node3</title>
<path fill="none" stroke="midnightblue" d="M787.53,-77.09C675.52,-70.9 482.95,-57.32 319.5,-31 313.2,-29.98 306.58,-28.69 300.12,-27.29"/>
<polygon fill="midnightblue" stroke="midnightblue" points="300.68,-23.83 290.15,-25.04 299.13,-30.66 300.68,-23.83"/>
</g>
<!-- Node4 -->
<g id="node4" class="node">
<title>Node4</title>
<g id="a_node4"><a xlink:title=" ">
<polygon fill="white" stroke="#bfbfbf" points="328.5,-6 328.5,-25 386.5,-25 386.5,-6 328.5,-6"/>
<text text-anchor="middle" x="357.5" y="-13" font-family="Helvetica,sans-Serif" font-size="10.00">DgInfo.h</text>
</a>
</g>
</g>
<!-- Node1&#45;&gt;Node4 -->
<g id="edge3" class="edge">
<title>Node1&#45;&gt;Node4</title>
<path fill="none" stroke="midnightblue" d="M787.57,-78.98C688.78,-74.66 529.38,-62.92 395.5,-31 392.51,-30.29 389.43,-29.39 386.39,-28.41"/>
<polygon fill="midnightblue" stroke="midnightblue" points="387.51,-25.09 376.91,-25.02 385.15,-31.68 387.51,-25.09"/>
</g>
<!-- Node5 -->
<g id="node5" class="node">
<title>Node5</title>
<g id="a_node5"><a xlink:title=" ">
<polygon fill="white" stroke="#bfbfbf" points="404.5,-6 404.5,-25 492.5,-25 492.5,-6 404.5,-6"/>
<text text-anchor="middle" x="448.5" y="-13" font-family="Helvetica,sans-Serif" font-size="10.00">FieldTypeDef.h</text>
</a>
</g>
</g>
<!-- Node1&#45;&gt;Node5 -->
<g id="edge4" class="edge">
<title>Node1&#45;&gt;Node5</title>
<path fill="none" stroke="midnightblue" d="M788,-72.63C710.72,-64.45 598.37,-50.59 501.5,-31 496.73,-30.03 491.75,-28.88 486.84,-27.64"/>
<polygon fill="midnightblue" stroke="midnightblue" points="487.5,-24.2 476.94,-25.04 485.72,-30.97 487.5,-24.2"/>
</g>
<!-- Node6 -->
<g id="node6" class="node">
<title>Node6</title>
<g id="a_node6"><a xlink:title=" ">
<polygon fill="white" stroke="#bfbfbf" points="510.5,-6 510.5,-25 602.5,-25 602.5,-6 510.5,-6"/>
<text text-anchor="middle" x="556.5" y="-13" font-family="Helvetica,sans-Serif" font-size="10.00">LinearSystem.h</text>
</a>
</g>
</g>
<!-- Node1&#45;&gt;Node6 -->
<g id="edge5" class="edge">
<title>Node1&#45;&gt;Node6</title>
<path fill="none" stroke="midnightblue" d="M797.86,-67.48C744.37,-58.11 673.61,-44.98 611.5,-31 606.81,-29.94 601.91,-28.77 597.06,-27.55"/>
<polygon fill="midnightblue" stroke="midnightblue" points="597.79,-24.12 587.24,-25.03 596.05,-30.9 597.79,-24.12"/>
</g>
<!-- Node7 -->
<g id="node7" class="node">
<title>Node7</title>
<g id="a_node7"><a xlink:title=" ">
<polygon fill="white" stroke="#bfbfbf" points="621,-6 621,-25 736,-25 736,-6 621,-6"/>
<text text-anchor="middle" x="678.5" y="-13" font-family="Helvetica,sans-Serif" font-size="10.00">NonConformalInfo.h</text>
</a>
</g>
</g>
<!-- Node1&#45;&gt;Node7 -->
<g id="edge6" class="edge">
<title>Node1&#45;&gt;Node7</title>
<path fill="none" stroke="midnightblue" d="M837.45,-67.4C800.73,-55.64 749.05,-39.09 714.7,-28.09"/>
<polygon fill="midnightblue" stroke="midnightblue" points="715.66,-24.72 705.07,-25.01 713.52,-31.39 715.66,-24.72"/>
</g>
<!-- Node8 -->
<g id="node8" class="node">
<title>Node8</title>
<g id="a_node8"><a xlink:title=" ">
<polygon fill="white" stroke="#bfbfbf" points="754.5,-6 754.5,-25 892.5,-25 892.5,-6 754.5,-6"/>
<text text-anchor="middle" x="823.5" y="-13" font-family="Helvetica,sans-Serif" font-size="10.00">NonConformalManager.h</text>
</a>
</g>
</g>
<!-- Node1&#45;&gt;Node8 -->
<g id="edge7" class="edge">
<title>Node1&#45;&gt;Node8</title>
<path fill="none" stroke="midnightblue" d="M868.91,-67.4C859.87,-57.26 847.65,-43.57 838.17,-32.94"/>
<polygon fill="midnightblue" stroke="midnightblue" points="840.53,-30.33 831.26,-25.19 835.3,-34.99 840.53,-30.33"/>
</g>
<!-- Node9 -->
<g id="node9" class="node">
<title>Node9</title>
<g id="a_node9"><a xlink:title=" ">
<polygon fill="white" stroke="#bfbfbf" points="911,-6 911,-25 968,-25 968,-6 911,-6"/>
<text text-anchor="middle" x="939.5" y="-13" font-family="Helvetica,sans-Serif" font-size="10.00">Realm.h</text>
</a>
</g>
</g>
<!-- Node1&#45;&gt;Node9 -->
<g id="edge8" class="edge">
<title>Node1&#45;&gt;Node9</title>
<path fill="none" stroke="midnightblue" d="M894.09,-67.4C903.13,-57.26 915.35,-43.57 924.83,-32.94"/>
<polygon fill="midnightblue" stroke="midnightblue" points="927.7,-34.99 931.74,-25.19 922.47,-30.33 927.7,-34.99"/>
</g>
<!-- Node10 -->
<g id="node10" class="node">
<title>Node10</title>
<g id="a_node10"><a xlink:title=" ">
<polygon fill="white" stroke="#bfbfbf" points="986,-6 986,-25 1169,-25 1169,-6 986,-6"/>
<text text-anchor="middle" x="1077.5" y="-13" font-family="Helvetica,sans-Serif" font-size="10.00">master_element/MasterElement.h</text>
</a>
</g>
</g>
<!-- Node1&#45;&gt;Node10 -->
<g id="edge9" class="edge">
<title>Node1&#45;&gt;Node10</title>
<path fill="none" stroke="midnightblue" d="M924.03,-67.4C959.33,-55.69 1008.96,-39.23 1042.12,-28.23"/>
<polygon fill="midnightblue" stroke="midnightblue" points="1043.46,-31.48 1051.85,-25.01 1041.25,-24.83 1043.46,-31.48"/>
</g>
<!-- Node11 -->
<g id="node11" class="node">
<title>Node11</title>
<g id="a_node11"><a xlink:title=" ">
<polygon fill="white" stroke="#bfbfbf" points="1187,-6 1187,-25 1346,-25 1346,-6 1187,-6"/>
<text text-anchor="middle" x="1266.5" y="-13" font-family="Helvetica,sans-Serif" font-size="10.00">stk_mesh/base/BulkData.hpp</text>
</a>
</g>
</g>
<!-- Node1&#45;&gt;Node11 -->
<g id="edge10" class="edge">
<title>Node1&#45;&gt;Node11</title>
<path fill="none" stroke="midnightblue" d="M964.57,-67.48C1037.17,-55.22 1140.86,-37.71 1205.89,-26.73"/>
<polygon fill="midnightblue" stroke="midnightblue" points="1206.71,-30.14 1215.98,-25.03 1205.54,-23.24 1206.71,-30.14"/>
</g>
<!-- Node12 -->
<g id="node12" class="node">
<title>Node12</title>
<g id="a_node12"><a xlink:title=" ">
<polygon fill="white" stroke="#bfbfbf" points="1364,-6 1364,-25 1501,-25 1501,-6 1364,-6"/>
<text text-anchor="middle" x="1432.5" y="-13" font-family="Helvetica,sans-Serif" font-size="10.00">stk_mesh/base/Field.hpp</text>
</a>
</g>
</g>
<!-- Node1&#45;&gt;Node12 -->
<g id="edge11" class="edge">
<title>Node1&#45;&gt;Node12</title>
<path fill="none" stroke="midnightblue" d="M975.31,-73.73C1071.14,-65.28 1224.09,-50.34 1355.5,-31 1363.63,-29.8 1372.22,-28.36 1380.58,-26.86"/>
<polygon fill="midnightblue" stroke="midnightblue" points="1381.44,-30.26 1390.64,-25.01 1380.17,-23.38 1381.44,-30.26"/>
</g>
<!-- Node13 -->
<g id="node13" class="node">
<title>Node13</title>
<g id="a_node13"><a xlink:title=" ">
<polygon fill="white" stroke="#bfbfbf" points="1519,-6 1519,-25 1692,-25 1692,-6 1519,-6"/>
<text text-anchor="middle" x="1605.5" y="-13" font-family="Helvetica,sans-Serif" font-size="10.00">stk_mesh/base/FieldParallel.hpp</text>
</a>
</g>
</g>
<!-- Node1&#45;&gt;Node13 -->
<g id="edge12" class="edge">
<title>Node1&#45;&gt;Node13</title>
<path fill="none" stroke="midnightblue" d="M975.22,-76.07C1098.3,-68.46 1321.02,-53.04 1510.5,-31 1521.28,-29.75 1532.73,-28.19 1543.79,-26.57"/>
<polygon fill="midnightblue" stroke="midnightblue" points="1544.45,-30.01 1553.82,-25.07 1543.41,-23.09 1544.45,-30.01"/>
</g>
<!-- Node14 -->
<g id="node14" class="node">
<title>Node14</title>
<g id="a_node14"><a xlink:title=" ">
<polygon fill="white" stroke="#bfbfbf" points="1710.5,-6 1710.5,-25 1872.5,-25 1872.5,-6 1710.5,-6"/>
<text text-anchor="middle" x="1791.5" y="-13" font-family="Helvetica,sans-Serif" font-size="10.00">stk_mesh/base/MetaData.hpp</text>
</a>
</g>
</g>
<!-- Node1&#45;&gt;Node14 -->
<g id="edge13" class="edge">
<title>Node1&#45;&gt;Node14</title>
<path fill="none" stroke="midnightblue" d="M975.22,-78.72C1127.8,-73.53 1439.25,-60.13 1701.5,-31 1711.99,-29.83 1723.12,-28.29 1733.85,-26.65"/>
<polygon fill="midnightblue" stroke="midnightblue" points="1734.64,-30.07 1743.98,-25.05 1733.55,-23.15 1734.64,-30.07"/>
</g>
<!-- Node15 -->
<g id="node15" class="node">
<title>Node15</title>
<g id="a_node15"><a xlink:title=" ">
<polygon fill="white" stroke="#bfbfbf" points="1891,-6 1891,-25 2024,-25 2024,-6 1891,-6"/>
<text text-anchor="middle" x="1957.5" y="-13" font-family="Helvetica,sans-Serif" font-size="10.00">stk_mesh/base/Part.hpp</text>
</a>
</g>
</g>
<!-- Node1&#45;&gt;Node15 -->
<g id="edge14" class="edge">
<title>Node1&#45;&gt;Node15</title>
<path fill="none" stroke="midnightblue" d="M975.27,-81.07C1152.79,-79.31 1549.91,-70.81 1881.5,-31 1890.22,-29.95 1899.45,-28.49 1908.35,-26.9"/>
<polygon fill="midnightblue" stroke="midnightblue" points="1909.03,-30.34 1918.22,-25.07 1907.74,-23.46 1909.03,-30.34"/>
</g>
</g>
</svg>
