<?xml version="1.0" encoding="UTF-8" standalone="no"?>
<!DOCTYPE svg PUBLIC "-//W3C//DTD SVG 1.1//EN"
 "http://www.w3.org/Graphics/SVG/1.1/DTD/svg11.dtd">
<!-- Generated by graphviz version 2.43.0 (0)
 -->
<!-- Title: AssemblePNGElemSolverAlgorithm.C Pages: 1 -->
<svg width="1990pt" height="95pt"
 viewBox="0.00 0.00 1989.50 95.00" xmlns="http://www.w3.org/2000/svg" xmlns:xlink="http://www.w3.org/1999/xlink">
<g id="graph0" class="graph" transform="scale(1 1) rotate(0) translate(4 91)">
<title>AssemblePNGElemSolverAlgorithm.C</title>
<polygon fill="white" stroke="transparent" points="-4,4 -4,-91 1985.5,-91 1985.5,4 -4,4"/>
<!-- Node1 -->
<g id="node1" class="node">
<title>Node1</title>
<g id="a_node1"><a xlink:title=" ">
<polygon fill="#bfbfbf" stroke="black" points="745.5,-67.5 745.5,-86.5 944.5,-86.5 944.5,-67.5 745.5,-67.5"/>
<text text-anchor="middle" x="845" y="-74.5" font-family="Helvetica,sans-Serif" font-size="10.00">AssemblePNGElemSolverAlgorithm.C</text>
</a>
</g>
</g>
<!-- Node2 -->
<g id="node2" class="node">
<title>Node2</title>
<g id="a_node2"><a xlink:title=" ">
<polygon fill="white" stroke="#bfbfbf" points="0,-6 0,-25 198,-25 198,-6 0,-6"/>
<text text-anchor="middle" x="99" y="-13" font-family="Helvetica,sans-Serif" font-size="10.00">AssemblePNGElemSolverAlgorithm.h</text>
</a>
</g>
</g>
<!-- Node1&#45;&gt;Node2 -->
<g id="edge1" class="edge">
<title>Node1&#45;&gt;Node2</title>
<path fill="none" stroke="midnightblue" d="M745.37,-70.92C619.69,-64.07 397,-50.44 207,-31 194.3,-29.7 180.8,-28.08 167.79,-26.4"/>
<polygon fill="midnightblue" stroke="midnightblue" points="167.87,-22.88 157.49,-25.04 166.95,-29.82 167.87,-22.88"/>
</g>
<!-- Node3 -->
<g id="node3" class="node">
<title>Node3</title>
<g id="a_node3"><a xlink:title=" ">
<polygon fill="white" stroke="#bfbfbf" points="216.5,-6 216.5,-25 321.5,-25 321.5,-6 216.5,-6"/>
<text text-anchor="middle" x="269" y="-13" font-family="Helvetica,sans-Serif" font-size="10.00">EquationSystem.h</text>
</a>
</g>
</g>
<!-- Node1&#45;&gt;Node3 -->
<g id="edge2" class="edge">
<title>Node1&#45;&gt;Node3</title>
<path fill="none" stroke="midnightblue" d="M745.47,-71.49C641.55,-65.81 474.07,-53.87 331,-31 324.7,-29.99 318.08,-28.7 311.62,-27.31"/>
<polygon fill="midnightblue" stroke="midnightblue" points="312.17,-23.84 301.65,-25.05 310.63,-30.67 312.17,-23.84"/>
</g>
<!-- Node4 -->
<g id="node4" class="node">
<title>Node4</title>
<g id="a_node4"><a xlink:title=" ">
<polygon fill="white" stroke="#bfbfbf" points="340,-6 340,-25 444,-25 444,-6 340,-6"/>
<text text-anchor="middle" x="392" y="-13" font-family="Helvetica,sans-Serif" font-size="10.00">SolverAlgorithm.h</text>
</a>
</g>
</g>
<!-- Node1&#45;&gt;Node4 -->
<g id="edge3" class="edge">
<title>Node1&#45;&gt;Node4</title>
<path fill="none" stroke="midnightblue" d="M745.45,-67.87C665.93,-60.59 551.84,-48.36 453,-31 447.09,-29.96 440.9,-28.7 434.83,-27.36"/>
<polygon fill="midnightblue" stroke="midnightblue" points="435.3,-23.88 424.78,-25.05 433.74,-30.7 435.3,-23.88"/>
</g>
<!-- Node5 -->
<g id="node5" class="node">
<title>Node5</title>
<g id="a_node5"><a xlink:title=" ">
<polygon fill="white" stroke="#bfbfbf" points="462,-6 462,-25 550,-25 550,-6 462,-6"/>
<text text-anchor="middle" x="506" y="-13" font-family="Helvetica,sans-Serif" font-size="10.00">FieldTypeDef.h</text>
</a>
</g>
</g>
<!-- Node1&#45;&gt;Node5 -->
<g id="edge4" class="edge">
<title>Node1&#45;&gt;Node5</title>
<path fill="none" stroke="midnightblue" d="M777,-67.46C718.81,-59.64 632.96,-46.88 559,-31 554.35,-30 549.5,-28.84 544.7,-27.62"/>
<polygon fill="midnightblue" stroke="midnightblue" points="545.58,-24.23 535.02,-25.06 543.79,-31 545.58,-24.23"/>
</g>
<!-- Node6 -->
<g id="node6" class="node">
<title>Node6</title>
<g id="a_node6"><a xlink:title=" ">
<polygon fill="white" stroke="#bfbfbf" points="568,-6 568,-25 660,-25 660,-6 568,-6"/>
<text text-anchor="middle" x="614" y="-13" font-family="Helvetica,sans-Serif" font-size="10.00">LinearSystem.h</text>
</a>
</g>
</g>
<!-- Node1&#45;&gt;Node6 -->
<g id="edge5" class="edge">
<title>Node1&#45;&gt;Node6</title>
<path fill="none" stroke="midnightblue" d="M811.24,-67.45C775.8,-58.45 718.45,-43.84 669,-31 664.86,-29.93 660.55,-28.8 656.24,-27.67"/>
<polygon fill="midnightblue" stroke="midnightblue" points="656.83,-24.21 646.27,-25.05 655.05,-30.98 656.83,-24.21"/>
</g>
<!-- Node7 -->
<g id="node7" class="node">
<title>Node7</title>
<g id="a_node7"><a xlink:title=" ">
<polygon fill="white" stroke="#bfbfbf" points="678.5,-6 678.5,-25 735.5,-25 735.5,-6 678.5,-6"/>
<text text-anchor="middle" x="707" y="-13" font-family="Helvetica,sans-Serif" font-size="10.00">Realm.h</text>
</a>
</g>
</g>
<!-- Node1&#45;&gt;Node7 -->
<g id="edge6" class="edge">
<title>Node1&#45;&gt;Node7</title>
<path fill="none" stroke="midnightblue" d="M825.23,-67.48C801.86,-57.4 762.79,-40.55 736,-29"/>
<polygon fill="midnightblue" stroke="midnightblue" points="737.3,-25.75 726.74,-25.01 734.53,-32.18 737.3,-25.75"/>
</g>
<!-- Node8 -->
<g id="node8" class="node">
<title>Node8</title>
<g id="a_node8"><a xlink:title=" ">
<polygon fill="white" stroke="#bfbfbf" points="753.5,-6 753.5,-25 936.5,-25 936.5,-6 753.5,-6"/>
<text text-anchor="middle" x="845" y="-13" font-family="Helvetica,sans-Serif" font-size="10.00">master_element/MasterElement.h</text>
</a>
</g>
</g>
<!-- Node1&#45;&gt;Node8 -->
<g id="edge7" class="edge">
<title>Node1&#45;&gt;Node8</title>
<path fill="none" stroke="midnightblue" d="M845,-67.48C845,-59.08 845,-45.98 845,-35.16"/>
<polygon fill="midnightblue" stroke="midnightblue" points="848.5,-35.01 845,-25.01 841.5,-35.01 848.5,-35.01"/>
</g>
<!-- Node9 -->
<g id="node9" class="node">
<title>Node9</title>
<g id="a_node9"><a xlink:title=" ">
<polygon fill="white" stroke="#bfbfbf" points="955,-0.5 955,-30.5 1129,-30.5 1129,-0.5 955,-0.5"/>
<text text-anchor="start" x="963" y="-18.5" font-family="Helvetica,sans-Serif" font-size="10.00">master_element/MasterElement</text>
<text text-anchor="middle" x="1042" y="-7.5" font-family="Helvetica,sans-Serif" font-size="10.00">Repo.h</text>
</a>
</g>
</g>
<!-- Node1&#45;&gt;Node9 -->
<g id="edge8" class="edge">
<title>Node1&#45;&gt;Node9</title>
<path fill="none" stroke="midnightblue" d="M873.23,-67.48C902.52,-58.63 949.13,-44.55 985.95,-33.43"/>
<polygon fill="midnightblue" stroke="midnightblue" points="987.01,-36.76 995.57,-30.52 984.99,-30.06 987.01,-36.76"/>
</g>
<!-- Node10 -->
<g id="node10" class="node">
<title>Node10</title>
<g id="a_node10"><a xlink:title=" ">
<polygon fill="white" stroke="#bfbfbf" points="1147.5,-6 1147.5,-25 1306.5,-25 1306.5,-6 1147.5,-6"/>
<text text-anchor="middle" x="1227" y="-13" font-family="Helvetica,sans-Serif" font-size="10.00">stk_mesh/base/BulkData.hpp</text>
</a>
</g>
</g>
<!-- Node1&#45;&gt;Node10 -->
<g id="edge9" class="edge">
<title>Node1&#45;&gt;Node10</title>
<path fill="none" stroke="midnightblue" d="M901.47,-67.48C960.49,-58.55 1055.78,-44.01 1138,-31 1146.76,-29.61 1156.01,-28.13 1165.09,-26.66"/>
<polygon fill="midnightblue" stroke="midnightblue" points="1165.93,-30.07 1175.24,-25.01 1164.81,-23.16 1165.93,-30.07"/>
</g>
<!-- Node11 -->
<g id="node11" class="node">
<title>Node11</title>
<g id="a_node11"><a xlink:title=" ">
<polygon fill="white" stroke="#bfbfbf" points="1324.5,-6 1324.5,-25 1461.5,-25 1461.5,-6 1324.5,-6"/>
<text text-anchor="middle" x="1393" y="-13" font-family="Helvetica,sans-Serif" font-size="10.00">stk_mesh/base/Field.hpp</text>
</a>
</g>
</g>
<!-- Node1&#45;&gt;Node11 -->
<g id="edge10" class="edge">
<title>Node1&#45;&gt;Node11</title>
<path fill="none" stroke="midnightblue" d="M944.55,-69.13C1040.09,-61.91 1188.31,-49.08 1316,-31 1324.33,-29.82 1333.12,-28.37 1341.67,-26.84"/>
<polygon fill="midnightblue" stroke="midnightblue" points="1342.35,-30.27 1351.55,-25.02 1341.09,-23.39 1342.35,-30.27"/>
</g>
<!-- Node12 -->
<g id="node12" class="node">
<title>Node12</title>
<g id="a_node12"><a xlink:title=" ">
<polygon fill="white" stroke="#bfbfbf" points="1480,-6 1480,-25 1650,-25 1650,-6 1480,-6"/>
<text text-anchor="middle" x="1565" y="-13" font-family="Helvetica,sans-Serif" font-size="10.00">stk_mesh/base/GetBuckets.hpp</text>
</a>
</g>
</g>
<!-- Node1&#45;&gt;Node12 -->
<g id="edge11" class="edge">
<title>Node1&#45;&gt;Node12</title>
<path fill="none" stroke="midnightblue" d="M944.7,-71.34C1068.42,-64.98 1285.72,-51.91 1471,-31 1481.93,-29.77 1493.54,-28.19 1504.73,-26.54"/>
<polygon fill="midnightblue" stroke="midnightblue" points="1505.49,-29.96 1514.85,-25.01 1504.44,-23.04 1505.49,-29.96"/>
</g>
<!-- Node13 -->
<g id="node13" class="node">
<title>Node13</title>
<g id="a_node13"><a xlink:title=" ">
<polygon fill="white" stroke="#bfbfbf" points="1668,-6 1668,-25 1830,-25 1830,-6 1668,-6"/>
<text text-anchor="middle" x="1749" y="-13" font-family="Helvetica,sans-Serif" font-size="10.00">stk_mesh/base/MetaData.hpp</text>
</a>
</g>
</g>
<!-- Node1&#45;&gt;Node13 -->
<g id="edge12" class="edge">
<title>Node1&#45;&gt;Node13</title>
<path fill="none" stroke="midnightblue" d="M944.58,-73.85C1098.27,-69.77 1402.36,-58.69 1659,-31 1669.72,-29.84 1681.11,-28.27 1692.06,-26.6"/>
<polygon fill="midnightblue" stroke="midnightblue" points="1692.62,-30.05 1701.95,-25.03 1691.52,-23.14 1692.62,-30.05"/>
</g>
<!-- Node14 -->
<g id="node14" class="node">
<title>Node14</title>
<g id="a_node14"><a xlink:title=" ">
<polygon fill="white" stroke="#bfbfbf" points="1848.5,-6 1848.5,-25 1981.5,-25 1981.5,-6 1848.5,-6"/>
<text text-anchor="middle" x="1915" y="-13" font-family="Helvetica,sans-Serif" font-size="10.00">stk_mesh/base/Part.hpp</text>
</a>
</g>
</g>
<!-- Node1&#45;&gt;Node14 -->
<g id="edge13" class="edge">
<title>Node1&#45;&gt;Node14</title>
<path fill="none" stroke="midnightblue" d="M944.85,-76.2C1124.41,-75.51 1513.45,-69.23 1839,-31 1847.82,-29.96 1857.15,-28.5 1866.15,-26.89"/>
<polygon fill="midnightblue" stroke="midnightblue" points="1866.92,-30.3 1876.11,-25.03 1865.64,-23.42 1866.92,-30.3"/>
</g>
</g>
</svg>
