<?xml version="1.0" encoding="UTF-8" standalone="no"?>
<!DOCTYPE svg PUBLIC "-//W3C//DTD SVG 1.1//EN"
 "http://www.w3.org/Graphics/SVG/1.1/DTD/svg11.dtd">
<!-- Generated by graphviz version 2.43.0 (0)
 -->
<!-- Title: AssembleWallDistNonConformalAlgorithm.C Pages: 1 -->
<svg width="1524pt" height="106pt"
 viewBox="0.00 0.00 1523.50 106.00" xmlns="http://www.w3.org/2000/svg" xmlns:xlink="http://www.w3.org/1999/xlink">
<g id="graph0" class="graph" transform="scale(1 1) rotate(0) translate(4 102)">
<title>AssembleWallDistNonConformalAlgorithm.C</title>
<polygon fill="white" stroke="transparent" points="-4,4 -4,-102 1519.5,-102 1519.5,4 -4,4"/>
<!-- Node1 -->
<g id="node1" class="node">
<title>Node1</title>
<g id="a_node1"><a xlink:title=" ">
<polygon fill="#bfbfbf" stroke="black" points="619,-67.5 619,-97.5 795,-97.5 795,-67.5 619,-67.5"/>
<text text-anchor="start" x="627" y="-85.5" font-family="Helvetica,sans-Serif" font-size="10.00">AssembleWallDistNonConformal</text>
<text text-anchor="middle" x="707" y="-74.5" font-family="Helvetica,sans-Serif" font-size="10.00">Algorithm.C</text>
</a>
</g>
</g>
<!-- Node2 -->
<g id="node2" class="node">
<title>Node2</title>
<g id="a_node2"><a xlink:title=" ">
<polygon fill="white" stroke="#bfbfbf" points="0,-0.5 0,-30.5 176,-30.5 176,-0.5 0,-0.5"/>
<text text-anchor="start" x="8" y="-18.5" font-family="Helvetica,sans-Serif" font-size="10.00">AssembleWallDistNonConformal</text>
<text text-anchor="middle" x="88" y="-7.5" font-family="Helvetica,sans-Serif" font-size="10.00">Algorithm.h</text>
</a>
</g>
</g>
<!-- Node1&#45;&gt;Node2 -->
<g id="edge1" class="edge">
<title>Node1&#45;&gt;Node2</title>
<path fill="none" stroke="midnightblue" d="M618.64,-74.36C516.84,-65.82 344.3,-50.36 185.93,-31.07"/>
<polygon fill="midnightblue" stroke="midnightblue" points="186.35,-27.6 176,-29.86 185.5,-34.55 186.35,-27.6"/>
</g>
<!-- Node3 -->
<g id="node3" class="node">
<title>Node3</title>
<g id="a_node3"><a xlink:title=" ">
<polygon fill="white" stroke="#bfbfbf" points="194,-6 194,-25 252,-25 252,-6 194,-6"/>
<text text-anchor="middle" x="223" y="-13" font-family="Helvetica,sans-Serif" font-size="10.00">DgInfo.h</text>
</a>
</g>
</g>
<!-- Node1&#45;&gt;Node3 -->
<g id="edge2" class="edge">
<title>Node1&#45;&gt;Node3</title>
<path fill="none" stroke="midnightblue" d="M618.69,-78.05C527.88,-72.98 382.9,-60.66 261,-31 258.17,-30.31 255.27,-29.47 252.38,-28.54"/>
<polygon fill="midnightblue" stroke="midnightblue" points="253.41,-25.19 242.82,-25.14 251.07,-31.79 253.41,-25.19"/>
</g>
<!-- Node4 -->
<g id="node4" class="node">
<title>Node4</title>
<g id="a_node4"><a xlink:title=" ">
<polygon fill="white" stroke="#bfbfbf" points="270.5,-6 270.5,-25 375.5,-25 375.5,-6 270.5,-6"/>
<text text-anchor="middle" x="323" y="-13" font-family="Helvetica,sans-Serif" font-size="10.00">EquationSystem.h</text>
</a>
</g>
</g>
<!-- Node1&#45;&gt;Node4 -->
<g id="edge3" class="edge">
<title>Node1&#45;&gt;Node4</title>
<path fill="none" stroke="midnightblue" d="M618.88,-69.48C553.99,-60.19 463.73,-46.36 385,-31 379.23,-29.87 373.18,-28.59 367.22,-27.26"/>
<polygon fill="midnightblue" stroke="midnightblue" points="367.86,-23.82 357.34,-25.01 366.31,-30.65 367.86,-23.82"/>
</g>
<!-- Node5 -->
<g id="node5" class="node">
<title>Node5</title>
<g id="a_node5"><a xlink:title=" ">
<polygon fill="white" stroke="#bfbfbf" points="394,-6 394,-25 486,-25 486,-6 394,-6"/>
<text text-anchor="middle" x="440" y="-13" font-family="Helvetica,sans-Serif" font-size="10.00">LinearSystem.h</text>
</a>
</g>
</g>
<!-- Node1&#45;&gt;Node5 -->
<g id="edge4" class="edge">
<title>Node1&#45;&gt;Node5</title>
<path fill="none" stroke="midnightblue" d="M646.14,-67.41C603.71,-57.49 545.83,-43.75 495,-31 490.68,-29.92 486.18,-28.76 481.69,-27.6"/>
<polygon fill="midnightblue" stroke="midnightblue" points="482.52,-24.2 471.96,-25.06 480.75,-30.98 482.52,-24.2"/>
</g>
<!-- Node6 -->
<g id="node6" class="node">
<title>Node6</title>
<g id="a_node6"><a xlink:title=" ">
<polygon fill="white" stroke="#bfbfbf" points="504.5,-6 504.5,-25 619.5,-25 619.5,-6 504.5,-6"/>
<text text-anchor="middle" x="562" y="-13" font-family="Helvetica,sans-Serif" font-size="10.00">NonConformalInfo.h</text>
</a>
</g>
</g>
<!-- Node1&#45;&gt;Node6 -->
<g id="edge5" class="edge">
<title>Node1&#45;&gt;Node6</title>
<path fill="none" stroke="midnightblue" d="M675.54,-67.4C650.1,-55.99 614.6,-40.08 590.1,-29.1"/>
<polygon fill="midnightblue" stroke="midnightblue" points="591.53,-25.9 580.98,-25.01 588.67,-32.29 591.53,-25.9"/>
</g>
<!-- Node7 -->
<g id="node7" class="node">
<title>Node7</title>
<g id="a_node7"><a xlink:title=" ">
<polygon fill="white" stroke="#bfbfbf" points="638,-6 638,-25 776,-25 776,-6 638,-6"/>
<text text-anchor="middle" x="707" y="-13" font-family="Helvetica,sans-Serif" font-size="10.00">NonConformalManager.h</text>
</a>
</g>
</g>
<!-- Node1&#45;&gt;Node7 -->
<g id="edge6" class="edge">
<title>Node1&#45;&gt;Node7</title>
<path fill="none" stroke="midnightblue" d="M707,-67.4C707,-58.06 707,-45.71 707,-35.52"/>
<polygon fill="midnightblue" stroke="midnightblue" points="710.5,-35.19 707,-25.19 703.5,-35.19 710.5,-35.19"/>
</g>
<!-- Node8 -->
<g id="node8" class="node">
<title>Node8</title>
<g id="a_node8"><a xlink:title=" ">
<polygon fill="white" stroke="#bfbfbf" points="794.5,-6 794.5,-25 851.5,-25 851.5,-6 794.5,-6"/>
<text text-anchor="middle" x="823" y="-13" font-family="Helvetica,sans-Serif" font-size="10.00">Realm.h</text>
</a>
</g>
</g>
<!-- Node1&#45;&gt;Node8 -->
<g id="edge7" class="edge">
<title>Node1&#45;&gt;Node8</title>
<path fill="none" stroke="midnightblue" d="M732.17,-67.4C751.98,-56.29 779.42,-40.92 798.94,-29.98"/>
<polygon fill="midnightblue" stroke="midnightblue" points="800.81,-32.95 807.82,-25.01 797.38,-26.84 800.81,-32.95"/>
</g>
<!-- Node9 -->
<g id="node9" class="node">
<title>Node9</title>
<g id="a_node9"><a xlink:title=" ">
<polygon fill="white" stroke="#bfbfbf" points="870,-6 870,-25 1032,-25 1032,-6 870,-6"/>
<text text-anchor="middle" x="951" y="-13" font-family="Helvetica,sans-Serif" font-size="10.00">stk_mesh/base/MetaData.hpp</text>
</a>
</g>
</g>
<!-- Node1&#45;&gt;Node9 -->
<g id="edge8" class="edge">
<title>Node1&#45;&gt;Node9</title>
<path fill="none" stroke="midnightblue" d="M759.64,-67.48C804.42,-55.55 867.87,-38.64 909.23,-27.63"/>
<polygon fill="midnightblue" stroke="midnightblue" points="910.22,-30.98 918.98,-25.03 908.42,-24.22 910.22,-30.98"/>
</g>
<!-- Node10 -->
<g id="node10" class="node">
<title>Node10</title>
<g id="a_node10"><a xlink:title=" ">
<polygon fill="white" stroke="#bfbfbf" points="1050.5,-6 1050.5,-25 1209.5,-25 1209.5,-6 1050.5,-6"/>
<text text-anchor="middle" x="1130" y="-13" font-family="Helvetica,sans-Serif" font-size="10.00">stk_mesh/base/BulkData.hpp</text>
</a>
</g>
</g>
<!-- Node1&#45;&gt;Node10 -->
<g id="edge9" class="edge">
<title>Node1&#45;&gt;Node10</title>
<path fill="none" stroke="midnightblue" d="M795.3,-68.43C862.65,-58.39 957.72,-44.08 1041,-31 1049.76,-29.62 1059.01,-28.15 1068.09,-26.68"/>
<polygon fill="midnightblue" stroke="midnightblue" points="1068.94,-30.09 1078.25,-25.03 1067.82,-23.18 1068.94,-30.09"/>
</g>
<!-- Node11 -->
<g id="node11" class="node">
<title>Node11</title>
<g id="a_node11"><a xlink:title=" ">
<polygon fill="white" stroke="#bfbfbf" points="1227.5,-6 1227.5,-25 1360.5,-25 1360.5,-6 1227.5,-6"/>
<text text-anchor="middle" x="1294" y="-13" font-family="Helvetica,sans-Serif" font-size="10.00">stk_mesh/base/Part.hpp</text>
</a>
</g>
</g>
<!-- Node1&#45;&gt;Node11 -->
<g id="edge10" class="edge">
<title>Node1&#45;&gt;Node11</title>
<path fill="none" stroke="midnightblue" d="M795.18,-75.3C897.45,-67.53 1070.95,-52.57 1219,-31 1227.02,-29.83 1235.49,-28.39 1243.74,-26.88"/>
<polygon fill="midnightblue" stroke="midnightblue" points="1244.46,-30.31 1253.64,-25.02 1243.16,-23.43 1244.46,-30.31"/>
</g>
<!-- Node12 -->
<g id="node12" class="node">
<title>Node12</title>
<g id="a_node12"><a xlink:title=" ">
<polygon fill="white" stroke="#bfbfbf" points="1378.5,-6 1378.5,-25 1515.5,-25 1515.5,-6 1378.5,-6"/>
<text text-anchor="middle" x="1447" y="-13" font-family="Helvetica,sans-Serif" font-size="10.00">stk_mesh/base/Field.hpp</text>
</a>
</g>
</g>
<!-- Node1&#45;&gt;Node12 -->
<g id="edge11" class="edge">
<title>Node1&#45;&gt;Node12</title>
<path fill="none" stroke="midnightblue" d="M795.26,-77.87C922.62,-71.94 1165.14,-58.01 1370,-31 1378.53,-29.88 1387.55,-28.42 1396.29,-26.87"/>
<polygon fill="midnightblue" stroke="midnightblue" points="1397.17,-30.27 1406.37,-25.02 1395.91,-23.38 1397.17,-30.27"/>
</g>
</g>
</svg>
