<?xml version="1.0" encoding="UTF-8" standalone="no"?>
<!DOCTYPE svg PUBLIC "-//W3C//DTD SVG 1.1//EN"
 "http://www.w3.org/Graphics/SVG/1.1/DTD/svg11.dtd">
<!-- Generated by graphviz version 2.43.0 (0)
 -->
<!-- Title: AssembleMomentumEdgeWallFunctionSolverAlgorithm.C Pages: 1 -->
<!--zoomable 106 -->
<svg id="main" version="1.1" xmlns="http://www.w3.org/2000/svg" xmlns:xlink="http://www.w3.org/1999/xlink" xml:space="preserve" onload="init(evt)">
<style type="text/css"><![CDATA[
.edge:hover path { stroke: red; }
.edge:hover polygon { stroke: red; fill: red; }
]]></style>
<script type="text/javascript"><![CDATA[
var edges = document.getElementsByTagName('g');
if (edges && edges.length) {
  for (var i=0;i<edges.length;i++) {
    if (edges[i].id.substr(0,4)=='edge') {
      edges[i].setAttribute('class','edge');
    }
  }
}
]]></script>
        <defs>
                <circle id="rim" cx="0" cy="0" r="7"/>
                <circle id="rim2" cx="0" cy="0" r="3.5"/>
                <g id="zoomPlus">
                        <use xlink:href="#rim" fill="#404040">
                                <set attributeName="fill" to="#808080" begin="zoomplus.mouseover" end="zoomplus.mouseout"/>
                        </use>
                        <path d="M-4,0h8M0,-4v8" fill="none" stroke="white" stroke-width="1.5" pointer-events="none"/>
                </g>
                <g id="zoomMin">
                        <use xlink:href="#rim" fill="#404040">
                                <set attributeName="fill" to="#808080" begin="zoomminus.mouseover" end="zoomminus.mouseout"/>
                        </use>
                        <path d="M-4,0h8" fill="none" stroke="white" stroke-width="1.5" pointer-events="none"/>
                </g>
                <g id="dirArrow">
                        <path fill="none" stroke="white" stroke-width="1.5" d="M0,-3.0v7 M-2.5,-0.5L0,-3.0L2.5,-0.5"/>
                </g>
               <g id="resetDef">
                       <use xlink:href="#rim2" fill="#404040">
                               <set attributeName="fill" to="#808080" begin="reset.mouseover" end="reset.mouseout"/>
                       </use>
               </g>
        </defs>

<script type="text/javascript">
var viewWidth = 2400;
var viewHeight = 106;
var sectionId = 'dynsection-0';
</script>
<script xlink:href="svgpan.js"/>
<svg id="graph" class="graph">
<g id="viewport">
<title>AssembleMomentumEdgeWallFunctionSolverAlgorithm.C</title>
<polygon fill="white" stroke="transparent" points="-4,4 -4,-102 2395.5,-102 2395.5,4 -4,4"/>
<!-- Node1 -->
<g id="node1" class="node">
<title>Node1</title>
<g id="a_node1"><a xlink:title=" ">
<polygon fill="#bfbfbf" stroke="black" points="1019,-67.5 1019,-97.5 1185,-97.5 1185,-67.5 1019,-67.5"/>
<text text-anchor="start" x="1027" y="-85.5" font-family="Helvetica,sans-Serif" font-size="10.00">AssembleMomentumEdgeWall</text>
<text text-anchor="middle" x="1102" y="-74.5" font-family="Helvetica,sans-Serif" font-size="10.00">FunctionSolverAlgorithm.C</text>
</a>
</g>
</g>
<!-- Node2 -->
<g id="node2" class="node">
<title>Node2</title>
<g id="a_node2"><a xlink:title=" ">
<polygon fill="white" stroke="#bfbfbf" points="0,-0.5 0,-30.5 166,-30.5 166,-0.5 0,-0.5"/>
<text text-anchor="start" x="8" y="-18.5" font-family="Helvetica,sans-Serif" font-size="10.00">AssembleMomentumEdgeWall</text>
<text text-anchor="middle" x="83" y="-7.5" font-family="Helvetica,sans-Serif" font-size="10.00">FunctionSolverAlgorithm.h</text>
</a>
</g>
</g>
<!-- Node1&#45;&gt;Node2 -->
<g id="edge1" class="edge">
<title>Node1&#45;&gt;Node2</title>
<path fill="none" stroke="midnightblue" d="M1018.99,-79.81C858.28,-75.93 493.3,-64.08 176.5,-31.08"/>
<polygon fill="midnightblue" stroke="midnightblue" points="176.51,-27.57 166.19,-30 175.77,-34.53 176.51,-27.57"/>
</g>
<!-- Node3 -->
<g id="node3" class="node">
<title>Node3</title>
<g id="a_node3"><a xlink:title=" ">
<polygon fill="white" stroke="#bfbfbf" points="184,-6 184,-25 288,-25 288,-6 184,-6"/>
<text text-anchor="middle" x="236" y="-13" font-family="Helvetica,sans-Serif" font-size="10.00">SolverAlgorithm.h</text>
</a>
</g>
</g>
<!-- Node1&#45;&gt;Node3 -->
<g id="edge2" class="edge">
<title>Node1&#45;&gt;Node3</title>
<path fill="none" stroke="midnightblue" d="M1018.94,-80.95C872.38,-78.94 558.59,-70 297,-31 290.64,-30.05 283.97,-28.77 277.47,-27.36"/>
<polygon fill="midnightblue" stroke="midnightblue" points="277.99,-23.89 267.46,-25.06 276.42,-30.71 277.99,-23.89"/>
</g>
<!-- Node4 -->
<g id="node4" class="node">
<title>Node4</title>
<g id="a_node4"><a xlink:title=" ">
<polygon fill="white" stroke="#bfbfbf" points="306.5,-6 306.5,-25 411.5,-25 411.5,-6 306.5,-6"/>
<text text-anchor="middle" x="359" y="-13" font-family="Helvetica,sans-Serif" font-size="10.00">EquationSystem.h</text>
</a>
</g>
</g>
<!-- Node1&#45;&gt;Node4 -->
<g id="edge3" class="edge">
<title>Node1&#45;&gt;Node4</title>
<path fill="none" stroke="midnightblue" d="M1018.98,-79.51C890.25,-75.48 635.02,-63.76 421,-31 414.62,-30.02 407.92,-28.74 401.38,-27.33"/>
<polygon fill="midnightblue" stroke="midnightblue" points="401.84,-23.85 391.31,-25.06 400.3,-30.68 401.84,-23.85"/>
</g>
<!-- Node5 -->
<g id="node5" class="node">
<title>Node5</title>
<g id="a_node5"><a xlink:title=" ">
<polygon fill="white" stroke="#bfbfbf" points="430,-6 430,-25 522,-25 522,-6 430,-6"/>
<text text-anchor="middle" x="476" y="-13" font-family="Helvetica,sans-Serif" font-size="10.00">LinearSystem.h</text>
</a>
</g>
</g>
<!-- Node1&#45;&gt;Node5 -->
<g id="edge4" class="edge">
<title>Node1&#45;&gt;Node5</title>
<path fill="none" stroke="midnightblue" d="M1018.69,-78.56C906.98,-73.6 702.8,-61.02 531,-31 525.59,-30.05 519.93,-28.84 514.39,-27.51"/>
<polygon fill="midnightblue" stroke="midnightblue" points="515.18,-24.09 504.63,-25.03 513.46,-30.88 515.18,-24.09"/>
</g>
<!-- Node6 -->
<g id="node6" class="node">
<title>Node6</title>
<g id="a_node6"><a xlink:title=" ">
<polygon fill="white" stroke="#bfbfbf" points="540,-6 540,-25 628,-25 628,-6 540,-6"/>
<text text-anchor="middle" x="584" y="-13" font-family="Helvetica,sans-Serif" font-size="10.00">FieldTypeDef.h</text>
</a>
</g>
</g>
<!-- Node1&#45;&gt;Node6 -->
<g id="edge5" class="edge">
<title>Node1&#45;&gt;Node6</title>
<path fill="none" stroke="midnightblue" d="M1018.68,-76.46C925.17,-69.87 769.23,-56.1 637,-31 631.97,-30.05 626.73,-28.86 621.58,-27.57"/>
<polygon fill="midnightblue" stroke="midnightblue" points="622.42,-24.17 611.86,-25.01 620.64,-30.94 622.42,-24.17"/>
</g>
<!-- Node7 -->
<g id="node7" class="node">
<title>Node7</title>
<g id="a_node7"><a xlink:title=" ">
<polygon fill="white" stroke="#bfbfbf" points="646.5,-6 646.5,-25 703.5,-25 703.5,-6 646.5,-6"/>
<text text-anchor="middle" x="675" y="-13" font-family="Helvetica,sans-Serif" font-size="10.00">Realm.h</text>
</a>
</g>
</g>
<!-- Node1&#45;&gt;Node7 -->
<g id="edge6" class="edge">
<title>Node1&#45;&gt;Node7</title>
<path fill="none" stroke="midnightblue" d="M1018.72,-76.63C938.99,-70.6 815.83,-57.64 712,-31 709.34,-30.32 706.6,-29.49 703.89,-28.59"/>
<polygon fill="midnightblue" stroke="midnightblue" points="704.89,-25.23 694.29,-25.09 702.48,-31.81 704.89,-25.23"/>
</g>
<!-- Node8 -->
<g id="node8" class="node">
<title>Node8</title>
<g id="a_node8"><a xlink:title=" ">
<polygon fill="white" stroke="#bfbfbf" points="721.5,-6 721.5,-25 904.5,-25 904.5,-6 721.5,-6"/>
<text text-anchor="middle" x="813" y="-13" font-family="Helvetica,sans-Serif" font-size="10.00">master_element/MasterElement.h</text>
</a>
</g>
</g>
<!-- Node1&#45;&gt;Node8 -->
<g id="edge7" class="edge">
<title>Node1&#45;&gt;Node8</title>
<path fill="none" stroke="midnightblue" d="M1039.65,-67.48C986.05,-55.42 909.86,-38.29 860.93,-27.28"/>
<polygon fill="midnightblue" stroke="midnightblue" points="861.44,-23.81 850.92,-25.03 859.91,-30.64 861.44,-23.81"/>
</g>
<!-- Node9 -->
<g id="node9" class="node">
<title>Node9</title>
<g id="a_node9"><a xlink:title=" ">
<polygon fill="white" stroke="#bfbfbf" points="923,-0.5 923,-30.5 1097,-30.5 1097,-0.5 923,-0.5"/>
<text text-anchor="start" x="931" y="-18.5" font-family="Helvetica,sans-Serif" font-size="10.00">master_element/MasterElement</text>
<text text-anchor="middle" x="1010" y="-7.5" font-family="Helvetica,sans-Serif" font-size="10.00">Repo.h</text>
</a>
</g>
</g>
<!-- Node1&#45;&gt;Node9 -->
<g id="edge8" class="edge">
<title>Node1&#45;&gt;Node9</title>
<path fill="none" stroke="midnightblue" d="M1082.04,-67.4C1069.26,-58.37 1052.48,-46.51 1038.33,-36.52"/>
<polygon fill="midnightblue" stroke="midnightblue" points="1040.11,-33.49 1029.92,-30.58 1036.07,-39.21 1040.11,-33.49"/>
</g>
<!-- Node10 -->
<g id="node10" class="node">
<title>Node10</title>
<g id="a_node10"><a xlink:title=" ">
<polygon fill="white" stroke="#bfbfbf" points="1115.5,-6 1115.5,-25 1274.5,-25 1274.5,-6 1115.5,-6"/>
<text text-anchor="middle" x="1195" y="-13" font-family="Helvetica,sans-Serif" font-size="10.00">stk_mesh/base/BulkData.hpp</text>
</a>
</g>
</g>
<!-- Node1&#45;&gt;Node10 -->
<g id="edge9" class="edge">
<title>Node1&#45;&gt;Node10</title>
<path fill="none" stroke="midnightblue" d="M1122.18,-67.4C1137.63,-56.6 1158.86,-41.76 1174.42,-30.89"/>
<polygon fill="midnightblue" stroke="midnightblue" points="1176.64,-33.6 1182.83,-25.01 1172.63,-27.87 1176.64,-33.6"/>
</g>
<!-- Node11 -->
<g id="node11" class="node">
<title>Node11</title>
<g id="a_node11"><a xlink:title=" ">
<polygon fill="white" stroke="#bfbfbf" points="1292.5,-6 1292.5,-25 1429.5,-25 1429.5,-6 1292.5,-6"/>
<text text-anchor="middle" x="1361" y="-13" font-family="Helvetica,sans-Serif" font-size="10.00">stk_mesh/base/Field.hpp</text>
</a>
</g>
</g>
<!-- Node1&#45;&gt;Node11 -->
<g id="edge10" class="edge">
<title>Node1&#45;&gt;Node11</title>
<path fill="none" stroke="midnightblue" d="M1157.88,-67.48C1205.62,-55.5 1273.33,-38.5 1317.22,-27.49"/>
<polygon fill="midnightblue" stroke="midnightblue" points="1318.17,-30.86 1327.02,-25.03 1316.47,-24.07 1318.17,-30.86"/>
</g>
<!-- Node12 -->
<g id="node12" class="node">
<title>Node12</title>
<g id="a_node12"><a xlink:title=" ">
<polygon fill="white" stroke="#bfbfbf" points="1447.5,-6 1447.5,-25 1620.5,-25 1620.5,-6 1447.5,-6"/>
<text text-anchor="middle" x="1534" y="-13" font-family="Helvetica,sans-Serif" font-size="10.00">stk_mesh/base/FieldParallel.hpp</text>
</a>
</g>
</g>
<!-- Node1&#45;&gt;Node12 -->
<g id="edge11" class="edge">
<title>Node1&#45;&gt;Node12</title>
<path fill="none" stroke="midnightblue" d="M1185.11,-69.11C1253.32,-58.93 1352.43,-44.09 1439,-31 1448.43,-29.57 1458.38,-28.06 1468.15,-26.57"/>
<polygon fill="midnightblue" stroke="midnightblue" points="1468.89,-30 1478.24,-25.04 1467.83,-23.08 1468.89,-30"/>
</g>
<!-- Node13 -->
<g id="node13" class="node">
<title>Node13</title>
<g id="a_node13"><a xlink:title=" ">
<polygon fill="white" stroke="#bfbfbf" points="1639,-6 1639,-25 1809,-25 1809,-6 1639,-6"/>
<text text-anchor="middle" x="1724" y="-13" font-family="Helvetica,sans-Serif" font-size="10.00">stk_mesh/base/GetBuckets.hpp</text>
</a>
</g>
</g>
<!-- Node1&#45;&gt;Node13 -->
<g id="edge12" class="edge">
<title>Node1&#45;&gt;Node13</title>
<path fill="none" stroke="midnightblue" d="M1185.38,-75.02C1289.58,-66.58 1473.29,-50.56 1630,-31 1640.43,-29.7 1651.49,-28.15 1662.21,-26.55"/>
<polygon fill="midnightblue" stroke="midnightblue" points="1663,-29.97 1672.36,-25.01 1661.95,-23.05 1663,-29.97"/>
</g>
<!-- Node14 -->
<g id="node14" class="node">
<title>Node14</title>
<g id="a_node14"><a xlink:title=" ">
<polygon fill="white" stroke="#bfbfbf" points="1827,-6 1827,-25 1995,-25 1995,-6 1827,-6"/>
<text text-anchor="middle" x="1911" y="-13" font-family="Helvetica,sans-Serif" font-size="10.00">stk_mesh/base/GetEntities.hpp</text>
</a>
</g>
</g>
<!-- Node1&#45;&gt;Node14 -->
<g id="edge13" class="edge">
<title>Node1&#45;&gt;Node14</title>
<path fill="none" stroke="midnightblue" d="M1185.17,-77.91C1318.85,-71.63 1589.7,-56.8 1818,-31 1828.82,-29.78 1840.3,-28.21 1851.37,-26.56"/>
<polygon fill="midnightblue" stroke="midnightblue" points="1852.04,-30 1861.39,-25.03 1850.98,-23.08 1852.04,-30"/>
</g>
<!-- Node15 -->
<g id="node15" class="node">
<title>Node15</title>
<g id="a_node15"><a xlink:title=" ">
<polygon fill="white" stroke="#bfbfbf" points="2013,-6 2013,-25 2175,-25 2175,-6 2013,-6"/>
<text text-anchor="middle" x="2094" y="-13" font-family="Helvetica,sans-Serif" font-size="10.00">stk_mesh/base/MetaData.hpp</text>
</a>
</g>
</g>
<!-- Node1&#45;&gt;Node15 -->
<g id="edge14" class="edge">
<title>Node1&#45;&gt;Node15</title>
<path fill="none" stroke="midnightblue" d="M1185.24,-79.73C1344.6,-75.69 1703.64,-63.52 2004,-31 2014.72,-29.84 2026.11,-28.27 2037.06,-26.59"/>
<polygon fill="midnightblue" stroke="midnightblue" points="2037.62,-30.04 2046.95,-25.03 2036.52,-23.13 2037.62,-30.04"/>
</g>
<!-- Node16 -->
<g id="node16" class="node">
<title>Node16</title>
<g id="a_node16"><a xlink:title=" ">
<polygon fill="white" stroke="#bfbfbf" points="2193.5,-6 2193.5,-25 2326.5,-25 2326.5,-6 2193.5,-6"/>
<text text-anchor="middle" x="2260" y="-13" font-family="Helvetica,sans-Serif" font-size="10.00">stk_mesh/base/Part.hpp</text>
</a>
</g>
</g>
<!-- Node1&#45;&gt;Node16 -->
<g id="edge15" class="edge">
<title>Node1&#45;&gt;Node16</title>
<path fill="none" stroke="midnightblue" d="M1185.13,-81.63C1366.94,-81.03 1813.29,-74.79 2184,-31 2192.82,-29.96 2202.15,-28.49 2211.15,-26.88"/>
<polygon fill="midnightblue" stroke="midnightblue" points="2211.92,-30.29 2221.11,-25.02 2210.64,-23.41 2211.92,-30.29"/>
</g>
<!-- Node17 -->
<g id="node17" class="node">
<title>Node17</title>
<g id="a_node17"><a xlink:title=" ">
<polygon fill="white" stroke="#bfbfbf" points="2344.5,-6 2344.5,-25 2391.5,-25 2391.5,-6 2344.5,-6"/>
<text text-anchor="middle" x="2368" y="-13" font-family="Helvetica,sans-Serif" font-size="10.00">cmath</text>
</a>
</g>
</g>
<!-- Node1&#45;&gt;Node17 -->
<g id="edge16" class="edge">
<title>Node1&#45;&gt;Node17</title>
<path fill="none" stroke="midnightblue" d="M1185.35,-79.94C1444.41,-74.82 2224.91,-57.38 2336,-31 2338.22,-30.47 2340.47,-29.79 2342.7,-29.01"/>
<polygon fill="midnightblue" stroke="midnightblue" points="2344.23,-32.17 2352.15,-25.13 2341.57,-25.69 2344.23,-32.17"/>
</g>
</g>
</svg>
        <g id="navigator" transform="translate(0 0)" fill="#404254">
                <rect fill="#f2f5e9" fill-opacity="0.5" stroke="#606060" stroke-width=".5" x="0" y="0" width="60" height="60"/>
                <use id="zoomplus" xlink:href="#zoomPlus" x="17" y="9" onmousedown="handleZoom(evt,'in')"/>
                <use id="zoomminus" xlink:href="#zoomMin" x="42" y="9" onmousedown="handleZoom(evt,'out')"/>
                <use id="reset" xlink:href="#resetDef" x="30" y="36" onmousedown="handleReset()"/>
                <g id="arrowUp" xlink:href="#dirArrow" transform="translate(30 24)" onmousedown="handlePan(0,-1)">
                  <use xlink:href="#rim" fill="#404040">
                        <set attributeName="fill" to="#808080" begin="arrowUp.mouseover" end="arrowUp.mouseout"/>
                  </use>
                  <path fill="none" stroke="white" stroke-width="1.5" d="M0,-3.0v7 M-2.5,-0.5L0,-3.0L2.5,-0.5"/>
                </g>
                <g id="arrowRight" xlink:href="#dirArrow" transform="rotate(90) translate(36 -43)" onmousedown="handlePan(1,0)">
                  <use xlink:href="#rim" fill="#404040">
                        <set attributeName="fill" to="#808080" begin="arrowRight.mouseover" end="arrowRight.mouseout"/>
                  </use>
                  <path fill="none" stroke="white" stroke-width="1.5" d="M0,-3.0v7 M-2.5,-0.5L0,-3.0L2.5,-0.5"/>
                </g>
                <g id="arrowDown" xlink:href="#dirArrow" transform="rotate(180) translate(-30 -48)" onmousedown="handlePan(0,1)">
                  <use xlink:href="#rim" fill="#404040">
                        <set attributeName="fill" to="#808080" begin="arrowDown.mouseover" end="arrowDown.mouseout"/>
                  </use>
                  <path fill="none" stroke="white" stroke-width="1.5" d="M0,-3.0v7 M-2.5,-0.5L0,-3.0L2.5,-0.5"/>
                </g>
                <g id="arrowLeft" xlink:href="#dirArrow" transform="rotate(270) translate(-36 17)" onmousedown="handlePan(-1,0)">
                  <use xlink:href="#rim" fill="#404040">
                        <set attributeName="fill" to="#808080" begin="arrowLeft.mouseover" end="arrowLeft.mouseout"/>
                  </use>
                  <path fill="none" stroke="white" stroke-width="1.5" d="M0,-3.0v7 M-2.5,-0.5L0,-3.0L2.5,-0.5"/>
                </g>
        </g>
        <svg viewBox="0 0 15 15" width="100%" height="30px" preserveAspectRatio="xMaxYMin meet">
         <g id="arrow_out" transform="scale(0.3 0.3)">
          <a xlink:href="_assemble_momentum_edge_wall_function_solver_algorithm_8_c__incl_org.svg" target="_base">
           <rect id="button" ry="5" rx="5" y="6" x="6" height="38" width="38"
                fill="#f2f5e9" fill-opacity="0.5" stroke="#606060" stroke-width="1.0"/>
           <path id="arrow"
             d="M 11.500037,31.436501 C 11.940474,20.09759 22.043105,11.32322 32.158766,21.979434 L 37.068811,17.246167 C 37.068811,17.246167 37.088388,32 37.088388,32 L 22.160133,31.978069 C 22.160133,31.978069 26.997745,27.140456 26.997745,27.140456 C 18.528582,18.264221 13.291696,25.230495 11.500037,31.436501 z"
             style="fill:#404040;"/>
          </a>
         </g>
        </svg>
</svg>
