<?xml version="1.0" encoding="UTF-8" standalone="no"?>
<!DOCTYPE svg PUBLIC "-//W3C//DTD SVG 1.1//EN"
 "http://www.w3.org/Graphics/SVG/1.1/DTD/svg11.dtd">
<!-- Generated by graphviz version 2.43.0 (0)
 -->
<!-- Title: AssembleOversetWallDistAlgorithm.C Pages: 1 -->
<svg width="2522pt" height="95pt"
 viewBox="0.00 0.00 2521.50 95.00" xmlns="http://www.w3.org/2000/svg" xmlns:xlink="http://www.w3.org/1999/xlink">
<g id="graph0" class="graph" transform="scale(1 1) rotate(0) translate(4 91)">
<title>AssembleOversetWallDistAlgorithm.C</title>
<polygon fill="white" stroke="transparent" points="-4,4 -4,-91 2517.5,-91 2517.5,4 -4,4"/>
<!-- Node1 -->
<g id="node1" class="node">
<title>Node1</title>
<g id="a_node1"><a xlink:title=" ">
<polygon fill="#bfbfbf" stroke="black" points="1001.5,-67.5 1001.5,-86.5 1202.5,-86.5 1202.5,-67.5 1001.5,-67.5"/>
<text text-anchor="middle" x="1102" y="-74.5" font-family="Helvetica,sans-Serif" font-size="10.00">AssembleOversetWallDistAlgorithm.C</text>
</a>
</g>
</g>
<!-- Node2 -->
<g id="node2" class="node">
<title>Node2</title>
<g id="a_node2"><a xlink:title=" ">
<polygon fill="white" stroke="#bfbfbf" points="0,-0.5 0,-30.5 164,-30.5 164,-0.5 0,-0.5"/>
<text text-anchor="start" x="8" y="-18.5" font-family="Helvetica,sans-Serif" font-size="10.00">overset/AssembleOversetWall</text>
<text text-anchor="middle" x="82" y="-7.5" font-family="Helvetica,sans-Serif" font-size="10.00">DistAlgorithm.h</text>
</a>
</g>
</g>
<!-- Node1&#45;&gt;Node2 -->
<g id="edge1" class="edge">
<title>Node1&#45;&gt;Node2</title>
<path fill="none" stroke="midnightblue" d="M1001.37,-74.73C832.44,-71.81 481,-62.32 174.26,-31.05"/>
<polygon fill="midnightblue" stroke="midnightblue" points="174.59,-27.57 164.29,-30.03 173.88,-34.53 174.59,-27.57"/>
</g>
<!-- Node3 -->
<g id="node3" class="node">
<title>Node3</title>
<g id="a_node3"><a xlink:title=" ">
<polygon fill="white" stroke="#bfbfbf" points="182.5,-6 182.5,-25 287.5,-25 287.5,-6 182.5,-6"/>
<text text-anchor="middle" x="235" y="-13" font-family="Helvetica,sans-Serif" font-size="10.00">EquationSystem.h</text>
</a>
</g>
</g>
<!-- Node1&#45;&gt;Node3 -->
<g id="edge2" class="edge">
<title>Node1&#45;&gt;Node3</title>
<path fill="none" stroke="midnightblue" d="M1001.36,-75.97C848.42,-74.67 548.64,-67.18 297,-31 290.31,-30.04 283.28,-28.71 276.45,-27.24"/>
<polygon fill="midnightblue" stroke="midnightblue" points="277.18,-23.82 266.66,-25.02 275.64,-30.65 277.18,-23.82"/>
</g>
<!-- Node4 -->
<g id="node4" class="node">
<title>Node4</title>
<g id="a_node4"><a xlink:title=" ">
<polygon fill="white" stroke="#bfbfbf" points="306,-6 306,-25 394,-25 394,-6 306,-6"/>
<text text-anchor="middle" x="350" y="-13" font-family="Helvetica,sans-Serif" font-size="10.00">FieldTypeDef.h</text>
</a>
</g>
</g>
<!-- Node1&#45;&gt;Node4 -->
<g id="edge3" class="edge">
<title>Node1&#45;&gt;Node4</title>
<path fill="none" stroke="midnightblue" d="M1001.43,-75.9C864.96,-74.32 613.95,-66.27 403,-31 397.78,-30.13 392.34,-28.95 387.01,-27.65"/>
<polygon fill="midnightblue" stroke="midnightblue" points="387.56,-24.17 377,-25.02 385.78,-30.94 387.56,-24.17"/>
</g>
<!-- Node5 -->
<g id="node5" class="node">
<title>Node5</title>
<g id="a_node5"><a xlink:title=" ">
<polygon fill="white" stroke="#bfbfbf" points="412,-6 412,-25 504,-25 504,-6 412,-6"/>
<text text-anchor="middle" x="458" y="-13" font-family="Helvetica,sans-Serif" font-size="10.00">LinearSystem.h</text>
</a>
</g>
</g>
<!-- Node1&#45;&gt;Node5 -->
<g id="edge4" class="edge">
<title>Node1&#45;&gt;Node5</title>
<path fill="none" stroke="midnightblue" d="M1001.28,-73.86C883.46,-70.07 682.9,-59.64 513,-31 507.52,-30.08 501.8,-28.86 496.2,-27.52"/>
<polygon fill="midnightblue" stroke="midnightblue" points="496.89,-24.08 486.33,-25.02 495.16,-30.87 496.89,-24.08"/>
</g>
<!-- Node6 -->
<g id="node6" class="node">
<title>Node6</title>
<g id="a_node6"><a xlink:title=" ">
<polygon fill="white" stroke="#bfbfbf" points="522.5,-6 522.5,-25 587.5,-25 587.5,-6 522.5,-6"/>
<text text-anchor="middle" x="555" y="-13" font-family="Helvetica,sans-Serif" font-size="10.00">NaluEnv.h</text>
</a>
</g>
</g>
<!-- Node1&#45;&gt;Node6 -->
<g id="edge5" class="edge">
<title>Node1&#45;&gt;Node6</title>
<path fill="none" stroke="midnightblue" d="M1001.03,-74.45C898.09,-71.15 734.31,-61.1 596,-31 592.58,-30.25 589.05,-29.3 585.56,-28.24"/>
<polygon fill="midnightblue" stroke="midnightblue" points="586.58,-24.89 575.99,-25.06 584.37,-31.54 586.58,-24.89"/>
</g>
<!-- Node7 -->
<g id="node7" class="node">
<title>Node7</title>
<g id="a_node7"><a xlink:title=" ">
<polygon fill="white" stroke="#bfbfbf" points="605.5,-6 605.5,-25 662.5,-25 662.5,-6 605.5,-6"/>
<text text-anchor="middle" x="634" y="-13" font-family="Helvetica,sans-Serif" font-size="10.00">Realm.h</text>
</a>
</g>
</g>
<!-- Node1&#45;&gt;Node7 -->
<g id="edge6" class="edge">
<title>Node1&#45;&gt;Node7</title>
<path fill="none" stroke="midnightblue" d="M1001.27,-72.85C913.33,-68.36 782.79,-57.46 672,-31 669.01,-30.29 665.93,-29.39 662.89,-28.41"/>
<polygon fill="midnightblue" stroke="midnightblue" points="664.01,-25.09 653.42,-25.02 661.65,-31.68 664.01,-25.09"/>
</g>
<!-- Node8 -->
<g id="node8" class="node">
<title>Node8</title>
<g id="a_node8"><a xlink:title=" ">
<polygon fill="white" stroke="#bfbfbf" points="681,-6 681,-25 785,-25 785,-6 681,-6"/>
<text text-anchor="middle" x="733" y="-13" font-family="Helvetica,sans-Serif" font-size="10.00">SolverAlgorithm.h</text>
</a>
</g>
</g>
<!-- Node1&#45;&gt;Node8 -->
<g id="edge7" class="edge">
<title>Node1&#45;&gt;Node8</title>
<path fill="none" stroke="midnightblue" d="M1031.37,-67.48C968.75,-59.5 874.94,-46.5 794,-31 788.25,-29.9 782.22,-28.62 776.28,-27.29"/>
<polygon fill="midnightblue" stroke="midnightblue" points="776.98,-23.85 766.45,-25.01 775.4,-30.67 776.98,-23.85"/>
</g>
<!-- Node9 -->
<g id="node9" class="node">
<title>Node9</title>
<g id="a_node9"><a xlink:title=" ">
<polygon fill="white" stroke="#bfbfbf" points="803,-6 803,-25 901,-25 901,-6 803,-6"/>
<text text-anchor="middle" x="852" y="-13" font-family="Helvetica,sans-Serif" font-size="10.00">TimeIntegrator.h</text>
</a>
</g>
</g>
<!-- Node1&#45;&gt;Node9 -->
<g id="edge8" class="edge">
<title>Node1&#45;&gt;Node9</title>
<path fill="none" stroke="midnightblue" d="M1064.8,-67.45C1026.09,-58.52 963.74,-44.01 910,-31 905.33,-29.87 900.45,-28.67 895.59,-27.47"/>
<polygon fill="midnightblue" stroke="midnightblue" points="896.26,-24.03 885.72,-25.02 894.58,-30.83 896.26,-24.03"/>
</g>
<!-- Node10 -->
<g id="node10" class="node">
<title>Node10</title>
<g id="a_node10"><a xlink:title=" ">
<polygon fill="white" stroke="#bfbfbf" points="919.5,-6 919.5,-25 1102.5,-25 1102.5,-6 919.5,-6"/>
<text text-anchor="middle" x="1011" y="-13" font-family="Helvetica,sans-Serif" font-size="10.00">master_element/MasterElement.h</text>
</a>
</g>
</g>
<!-- Node1&#45;&gt;Node10 -->
<g id="edge9" class="edge">
<title>Node1&#45;&gt;Node10</title>
<path fill="none" stroke="midnightblue" d="M1088.96,-67.48C1074.23,-57.84 1050.03,-42.02 1032.49,-30.55"/>
<polygon fill="midnightblue" stroke="midnightblue" points="1034.3,-27.55 1024.01,-25.01 1030.47,-33.41 1034.3,-27.55"/>
</g>
<!-- Node11 -->
<g id="node11" class="node">
<title>Node11</title>
<g id="a_node11"><a xlink:title=" ">
<polygon fill="white" stroke="#bfbfbf" points="1121,-6 1121,-25 1267,-25 1267,-6 1121,-6"/>
<text text-anchor="middle" x="1194" y="-13" font-family="Helvetica,sans-Serif" font-size="10.00">overset/OversetManager.h</text>
</a>
</g>
</g>
<!-- Node1&#45;&gt;Node11 -->
<g id="edge10" class="edge">
<title>Node1&#45;&gt;Node11</title>
<path fill="none" stroke="midnightblue" d="M1115.18,-67.48C1130.07,-57.84 1154.54,-42.02 1172.27,-30.55"/>
<polygon fill="midnightblue" stroke="midnightblue" points="1174.35,-33.38 1180.84,-25.01 1170.55,-27.5 1174.35,-33.38"/>
</g>
<!-- Node12 -->
<g id="node12" class="node">
<title>Node12</title>
<g id="a_node12"><a xlink:title=" ">
<polygon fill="white" stroke="#bfbfbf" points="1285,-6 1285,-25 1407,-25 1407,-6 1285,-6"/>
<text text-anchor="middle" x="1346" y="-13" font-family="Helvetica,sans-Serif" font-size="10.00">overset/OversetInfo.h</text>
</a>
</g>
</g>
<!-- Node1&#45;&gt;Node12 -->
<g id="edge11" class="edge">
<title>Node1&#45;&gt;Node12</title>
<path fill="none" stroke="midnightblue" d="M1136.96,-67.48C1180.17,-56.94 1253.79,-38.99 1301.13,-27.44"/>
<polygon fill="midnightblue" stroke="midnightblue" points="1302.22,-30.78 1311.11,-25.01 1300.56,-23.98 1302.22,-30.78"/>
</g>
<!-- Node13 -->
<g id="node13" class="node">
<title>Node13</title>
<g id="a_node13"><a xlink:title=" ">
<polygon fill="white" stroke="#bfbfbf" points="1425.5,-6 1425.5,-25 1584.5,-25 1584.5,-6 1425.5,-6"/>
<text text-anchor="middle" x="1505" y="-13" font-family="Helvetica,sans-Serif" font-size="10.00">stk_mesh/base/BulkData.hpp</text>
</a>
</g>
</g>
<!-- Node1&#45;&gt;Node13 -->
<g id="edge12" class="edge">
<title>Node1&#45;&gt;Node13</title>
<path fill="none" stroke="midnightblue" d="M1164.01,-67.47C1227.39,-58.67 1328.63,-44.38 1416,-31 1424.98,-29.63 1434.46,-28.13 1443.75,-26.64"/>
<polygon fill="midnightblue" stroke="midnightblue" points="1444.41,-30.08 1453.73,-25.03 1443.3,-23.16 1444.41,-30.08"/>
</g>
<!-- Node14 -->
<g id="node14" class="node">
<title>Node14</title>
<g id="a_node14"><a xlink:title=" ">
<polygon fill="white" stroke="#bfbfbf" points="1602.5,-6 1602.5,-25 1739.5,-25 1739.5,-6 1602.5,-6"/>
<text text-anchor="middle" x="1671" y="-13" font-family="Helvetica,sans-Serif" font-size="10.00">stk_mesh/base/Field.hpp</text>
</a>
</g>
</g>
<!-- Node1&#45;&gt;Node14 -->
<g id="edge13" class="edge">
<title>Node1&#45;&gt;Node14</title>
<path fill="none" stroke="midnightblue" d="M1202.67,-69.6C1302.34,-62.6 1459.14,-49.82 1594,-31 1602.33,-29.84 1611.12,-28.39 1619.67,-26.87"/>
<polygon fill="midnightblue" stroke="midnightblue" points="1620.36,-30.3 1629.56,-25.05 1619.09,-23.41 1620.36,-30.3"/>
</g>
<!-- Node15 -->
<g id="node15" class="node">
<title>Node15</title>
<g id="a_node15"><a xlink:title=" ">
<polygon fill="white" stroke="#bfbfbf" points="1757.5,-6 1757.5,-25 1930.5,-25 1930.5,-6 1757.5,-6"/>
<text text-anchor="middle" x="1844" y="-13" font-family="Helvetica,sans-Serif" font-size="10.00">stk_mesh/base/FieldParallel.hpp</text>
</a>
</g>
</g>
<!-- Node1&#45;&gt;Node15 -->
<g id="edge14" class="edge">
<title>Node1&#45;&gt;Node15</title>
<path fill="none" stroke="midnightblue" d="M1202.54,-71.57C1329.96,-65.36 1556.23,-52.38 1749,-31 1760.16,-29.76 1772.01,-28.17 1783.43,-26.5"/>
<polygon fill="midnightblue" stroke="midnightblue" points="1783.95,-29.97 1793.32,-25.02 1782.91,-23.04 1783.95,-29.97"/>
</g>
<!-- Node16 -->
<g id="node16" class="node">
<title>Node16</title>
<g id="a_node16"><a xlink:title=" ">
<polygon fill="white" stroke="#bfbfbf" points="1949,-6 1949,-25 2117,-25 2117,-6 1949,-6"/>
<text text-anchor="middle" x="2033" y="-13" font-family="Helvetica,sans-Serif" font-size="10.00">stk_mesh/base/GetEntities.hpp</text>
</a>
</g>
</g>
<!-- Node1&#45;&gt;Node16 -->
<g id="edge15" class="edge">
<title>Node1&#45;&gt;Node16</title>
<path fill="none" stroke="midnightblue" d="M1202.55,-73.88C1360.12,-69.82 1674.64,-58.74 1940,-31 1951.07,-29.84 1962.84,-28.27 1974.15,-26.59"/>
<polygon fill="midnightblue" stroke="midnightblue" points="1975.02,-30 1984.37,-25.03 1973.96,-23.08 1975.02,-30"/>
</g>
<!-- Node17 -->
<g id="node17" class="node">
<title>Node17</title>
<g id="a_node17"><a xlink:title=" ">
<polygon fill="white" stroke="#bfbfbf" points="2135,-6 2135,-25 2297,-25 2297,-6 2135,-6"/>
<text text-anchor="middle" x="2216" y="-13" font-family="Helvetica,sans-Serif" font-size="10.00">stk_mesh/base/MetaData.hpp</text>
</a>
</g>
</g>
<!-- Node1&#45;&gt;Node17 -->
<g id="edge16" class="edge">
<title>Node1&#45;&gt;Node17</title>
<path fill="none" stroke="midnightblue" d="M1202.57,-75.44C1386.39,-73.55 1788.76,-65.46 2126,-31 2136.85,-29.89 2148.38,-28.33 2159.44,-26.64"/>
<polygon fill="midnightblue" stroke="midnightblue" points="2160.09,-30.08 2169.42,-25.06 2159,-23.16 2160.09,-30.08"/>
</g>
<!-- Node18 -->
<g id="node18" class="node">
<title>Node18</title>
<g id="a_node18"><a xlink:title=" ">
<polygon fill="white" stroke="#bfbfbf" points="2315.5,-6 2315.5,-25 2448.5,-25 2448.5,-6 2315.5,-6"/>
<text text-anchor="middle" x="2382" y="-13" font-family="Helvetica,sans-Serif" font-size="10.00">stk_mesh/base/Part.hpp</text>
</a>
</g>
</g>
<!-- Node1&#45;&gt;Node18 -->
<g id="edge17" class="edge">
<title>Node1&#45;&gt;Node18</title>
<path fill="none" stroke="midnightblue" d="M1202.77,-74.2C1452.19,-69.41 2093.48,-55.1 2306,-31 2314.92,-29.99 2324.37,-28.52 2333.45,-26.89"/>
<polygon fill="midnightblue" stroke="midnightblue" points="2334.32,-30.29 2343.51,-25.01 2333.04,-23.41 2334.32,-30.29"/>
</g>
<!-- Node19 -->
<g id="node19" class="node">
<title>Node19</title>
<g id="a_node19"><a xlink:title=" ">
<polygon fill="white" stroke="#bfbfbf" points="2466.5,-6 2466.5,-25 2513.5,-25 2513.5,-6 2466.5,-6"/>
<text text-anchor="middle" x="2490" y="-13" font-family="Helvetica,sans-Serif" font-size="10.00">cmath</text>
</a>
</g>
</g>
<!-- Node1&#45;&gt;Node19 -->
<g id="edge18" class="edge">
<title>Node1&#45;&gt;Node19</title>
<path fill="none" stroke="midnightblue" d="M1202.53,-74.93C1495.78,-71.48 2337.11,-59.22 2458,-31 2460.36,-30.45 2462.75,-29.72 2465.11,-28.89"/>
<polygon fill="midnightblue" stroke="midnightblue" points="2466.58,-32.07 2474.48,-25.01 2463.9,-25.6 2466.58,-32.07"/>
</g>
</g>
</svg>
