<?xml version="1.0" encoding="UTF-8" standalone="no"?>
<!DOCTYPE svg PUBLIC "-//W3C//DTD SVG 1.1//EN"
 "http://www.w3.org/Graphics/SVG/1.1/DTD/svg11.dtd">
<!-- Generated by graphviz version 2.43.0 (0)
 -->
<!-- Title: AssembleNodalGradNonConformalAlgorithm.C Pages: 1 -->
<svg width="2122pt" height="106pt"
 viewBox="0.00 0.00 2122.00 106.00" xmlns="http://www.w3.org/2000/svg" xmlns:xlink="http://www.w3.org/1999/xlink">
<g id="graph0" class="graph" transform="scale(1 1) rotate(0) translate(4 102)">
<title>AssembleNodalGradNonConformalAlgorithm.C</title>
<polygon fill="white" stroke="transparent" points="-4,4 -4,-102 2118,-102 2118,4 -4,4"/>
<!-- Node1 -->
<g id="node1" class="node">
<title>Node1</title>
<g id="a_node1"><a xlink:title=" ">
<polygon fill="#bfbfbf" stroke="black" points="815,-67.5 815,-97.5 1002,-97.5 1002,-67.5 815,-67.5"/>
<text text-anchor="start" x="823" y="-85.5" font-family="Helvetica,sans-Serif" font-size="10.00">AssembleNodalGradNonConformal</text>
<text text-anchor="middle" x="908.5" y="-74.5" font-family="Helvetica,sans-Serif" font-size="10.00">Algorithm.C</text>
</a>
</g>
</g>
<!-- Node2 -->
<g id="node2" class="node">
<title>Node2</title>
<g id="a_node2"><a xlink:title=" ">
<polygon fill="white" stroke="#bfbfbf" points="0,-0.5 0,-30.5 187,-30.5 187,-0.5 0,-0.5"/>
<text text-anchor="start" x="8" y="-18.5" font-family="Helvetica,sans-Serif" font-size="10.00">AssembleNodalGradNonConformal</text>
<text text-anchor="middle" x="93.5" y="-7.5" font-family="Helvetica,sans-Serif" font-size="10.00">Algorithm.h</text>
</a>
</g>
</g>
<!-- Node1&#45;&gt;Node2 -->
<g id="edge1" class="edge">
<title>Node1&#45;&gt;Node2</title>
<path fill="none" stroke="midnightblue" d="M814.73,-76.92C680.39,-69.89 425.17,-54.82 197.36,-31.04"/>
<polygon fill="midnightblue" stroke="midnightblue" points="197.53,-27.54 187.22,-29.97 196.79,-34.5 197.53,-27.54"/>
</g>
<!-- Node3 -->
<g id="node3" class="node">
<title>Node3</title>
<g id="a_node3"><a xlink:title=" ">
<polygon fill="white" stroke="#bfbfbf" points="205.5,-6 205.5,-25 279.5,-25 279.5,-6 205.5,-6"/>
<text text-anchor="middle" x="242.5" y="-13" font-family="Helvetica,sans-Serif" font-size="10.00">Algorithm.h</text>
</a>
</g>
</g>
<!-- Node1&#45;&gt;Node3 -->
<g id="edge2" class="edge">
<title>Node1&#45;&gt;Node3</title>
<path fill="none" stroke="midnightblue" d="M814.91,-80.38C692.75,-77.44 472.78,-67.07 288.5,-31 284.34,-30.19 280.03,-29.13 275.78,-27.95"/>
<polygon fill="midnightblue" stroke="midnightblue" points="276.7,-24.57 266.11,-25.06 274.69,-31.28 276.7,-24.57"/>
</g>
<!-- Node4 -->
<g id="node4" class="node">
<title>Node4</title>
<g id="a_node4"><a xlink:title=" ">
<polygon fill="white" stroke="#bfbfbf" points="297.5,-6 297.5,-25 355.5,-25 355.5,-6 297.5,-6"/>
<text text-anchor="middle" x="326.5" y="-13" font-family="Helvetica,sans-Serif" font-size="10.00">DgInfo.h</text>
</a>
</g>
</g>
<!-- Node1&#45;&gt;Node4 -->
<g id="edge3" class="edge">
<title>Node1&#45;&gt;Node4</title>
<path fill="none" stroke="midnightblue" d="M814.87,-80.5C705.48,-77.57 519.71,-67.1 364.5,-31 361.5,-30.3 358.42,-29.42 355.38,-28.44"/>
<polygon fill="midnightblue" stroke="midnightblue" points="356.5,-25.13 345.9,-25.07 354.15,-31.72 356.5,-25.13"/>
</g>
<!-- Node5 -->
<g id="node5" class="node">
<title>Node5</title>
<g id="a_node5"><a xlink:title=" ">
<polygon fill="white" stroke="#bfbfbf" points="373.5,-6 373.5,-25 461.5,-25 461.5,-6 373.5,-6"/>
<text text-anchor="middle" x="417.5" y="-13" font-family="Helvetica,sans-Serif" font-size="10.00">FieldTypeDef.h</text>
</a>
</g>
</g>
<!-- Node1&#45;&gt;Node5 -->
<g id="edge4" class="edge">
<title>Node1&#45;&gt;Node5</title>
<path fill="none" stroke="midnightblue" d="M814.74,-74.85C725.62,-67.54 588.12,-53.73 470.5,-31 465.66,-30.06 460.62,-28.92 455.65,-27.68"/>
<polygon fill="midnightblue" stroke="midnightblue" points="456.2,-24.21 445.64,-25.06 454.43,-30.98 456.2,-24.21"/>
</g>
<!-- Node6 -->
<g id="node6" class="node">
<title>Node6</title>
<g id="a_node6"><a xlink:title=" ">
<polygon fill="white" stroke="#bfbfbf" points="479.5,-6 479.5,-25 571.5,-25 571.5,-6 479.5,-6"/>
<text text-anchor="middle" x="525.5" y="-13" font-family="Helvetica,sans-Serif" font-size="10.00">LinearSystem.h</text>
</a>
</g>
</g>
<!-- Node1&#45;&gt;Node6 -->
<g id="edge5" class="edge">
<title>Node1&#45;&gt;Node6</title>
<path fill="none" stroke="midnightblue" d="M814.72,-69.73C748.87,-60.81 658.9,-47.32 580.5,-31 575.68,-30 570.65,-28.83 565.67,-27.61"/>
<polygon fill="midnightblue" stroke="midnightblue" points="566.18,-24.13 555.62,-25.05 564.45,-30.91 566.18,-24.13"/>
</g>
<!-- Node7 -->
<g id="node7" class="node">
<title>Node7</title>
<g id="a_node7"><a xlink:title=" ">
<polygon fill="white" stroke="#bfbfbf" points="590,-6 590,-25 705,-25 705,-6 590,-6"/>
<text text-anchor="middle" x="647.5" y="-13" font-family="Helvetica,sans-Serif" font-size="10.00">NonConformalInfo.h</text>
</a>
</g>
</g>
<!-- Node1&#45;&gt;Node7 -->
<g id="edge6" class="edge">
<title>Node1&#45;&gt;Node7</title>
<path fill="none" stroke="midnightblue" d="M852.19,-67.48C804.08,-55.5 735.84,-38.5 691.62,-27.49"/>
<polygon fill="midnightblue" stroke="midnightblue" points="692.3,-24.05 681.75,-25.03 690.6,-30.84 692.3,-24.05"/>
</g>
<!-- Node8 -->
<g id="node8" class="node">
<title>Node8</title>
<g id="a_node8"><a xlink:title=" ">
<polygon fill="white" stroke="#bfbfbf" points="723.5,-6 723.5,-25 861.5,-25 861.5,-6 723.5,-6"/>
<text text-anchor="middle" x="792.5" y="-13" font-family="Helvetica,sans-Serif" font-size="10.00">NonConformalManager.h</text>
</a>
</g>
</g>
<!-- Node1&#45;&gt;Node8 -->
<g id="edge7" class="edge">
<title>Node1&#45;&gt;Node8</title>
<path fill="none" stroke="midnightblue" d="M883.33,-67.4C863.52,-56.29 836.08,-40.92 816.56,-29.98"/>
<polygon fill="midnightblue" stroke="midnightblue" points="818.12,-26.84 807.68,-25.01 814.69,-32.95 818.12,-26.84"/>
</g>
<!-- Node9 -->
<g id="node9" class="node">
<title>Node9</title>
<g id="a_node9"><a xlink:title=" ">
<polygon fill="white" stroke="#bfbfbf" points="880,-6 880,-25 937,-25 937,-6 880,-6"/>
<text text-anchor="middle" x="908.5" y="-13" font-family="Helvetica,sans-Serif" font-size="10.00">Realm.h</text>
</a>
</g>
</g>
<!-- Node1&#45;&gt;Node9 -->
<g id="edge8" class="edge">
<title>Node1&#45;&gt;Node9</title>
<path fill="none" stroke="midnightblue" d="M908.5,-67.4C908.5,-58.06 908.5,-45.71 908.5,-35.52"/>
<polygon fill="midnightblue" stroke="midnightblue" points="912,-35.19 908.5,-25.19 905,-35.19 912,-35.19"/>
</g>
<!-- Node10 -->
<g id="node10" class="node">
<title>Node10</title>
<g id="a_node10"><a xlink:title=" ">
<polygon fill="white" stroke="#bfbfbf" points="955,-6 955,-25 1058,-25 1058,-6 955,-6"/>
<text text-anchor="middle" x="1006.5" y="-13" font-family="Helvetica,sans-Serif" font-size="10.00">SolutionOptions.h</text>
</a>
</g>
</g>
<!-- Node1&#45;&gt;Node10 -->
<g id="edge9" class="edge">
<title>Node1&#45;&gt;Node10</title>
<path fill="none" stroke="midnightblue" d="M929.76,-67.4C946.2,-56.5 968.84,-41.48 985.27,-30.58"/>
<polygon fill="midnightblue" stroke="midnightblue" points="987.28,-33.45 993.67,-25.01 983.41,-27.62 987.28,-33.45"/>
</g>
<!-- Node11 -->
<g id="node11" class="node">
<title>Node11</title>
<g id="a_node11"><a xlink:title=" ">
<polygon fill="white" stroke="#bfbfbf" points="1076,-6 1076,-25 1259,-25 1259,-6 1076,-6"/>
<text text-anchor="middle" x="1167.5" y="-13" font-family="Helvetica,sans-Serif" font-size="10.00">master_element/MasterElement.h</text>
</a>
</g>
</g>
<!-- Node1&#45;&gt;Node11 -->
<g id="edge10" class="edge">
<title>Node1&#45;&gt;Node11</title>
<path fill="none" stroke="midnightblue" d="M964.38,-67.48C1012.12,-55.5 1079.83,-38.5 1123.72,-27.49"/>
<polygon fill="midnightblue" stroke="midnightblue" points="1124.67,-30.86 1133.52,-25.03 1122.97,-24.07 1124.67,-30.86"/>
</g>
<!-- Node12 -->
<g id="node12" class="node">
<title>Node12</title>
<g id="a_node12"><a xlink:title=" ">
<polygon fill="white" stroke="#bfbfbf" points="1277,-6 1277,-25 1436,-25 1436,-6 1277,-6"/>
<text text-anchor="middle" x="1356.5" y="-13" font-family="Helvetica,sans-Serif" font-size="10.00">stk_mesh/base/BulkData.hpp</text>
</a>
</g>
</g>
<!-- Node1&#45;&gt;Node12 -->
<g id="edge11" class="edge">
<title>Node1&#45;&gt;Node12</title>
<path fill="none" stroke="midnightblue" d="M1002.2,-68.98C1074.91,-59.12 1178.19,-44.77 1268.5,-31 1277.29,-29.66 1286.56,-28.19 1295.65,-26.72"/>
<polygon fill="midnightblue" stroke="midnightblue" points="1296.5,-30.13 1305.81,-25.07 1295.38,-23.22 1296.5,-30.13"/>
</g>
<!-- Node13 -->
<g id="node13" class="node">
<title>Node13</title>
<g id="a_node13"><a xlink:title=" ">
<polygon fill="white" stroke="#bfbfbf" points="1454,-6 1454,-25 1591,-25 1591,-6 1454,-6"/>
<text text-anchor="middle" x="1522.5" y="-13" font-family="Helvetica,sans-Serif" font-size="10.00">stk_mesh/base/Field.hpp</text>
</a>
</g>
</g>
<!-- Node1&#45;&gt;Node13 -->
<g id="edge12" class="edge">
<title>Node1&#45;&gt;Node13</title>
<path fill="none" stroke="midnightblue" d="M1002.42,-75.31C1109.85,-67.61 1290.88,-52.78 1445.5,-31 1453.83,-29.83 1462.62,-28.38 1471.17,-26.85"/>
<polygon fill="midnightblue" stroke="midnightblue" points="1471.85,-30.28 1481.06,-25.03 1470.59,-23.4 1471.85,-30.28"/>
</g>
<!-- Node14 -->
<g id="node14" class="node">
<title>Node14</title>
<g id="a_node14"><a xlink:title=" ">
<polygon fill="white" stroke="#bfbfbf" points="1609,-6 1609,-25 1782,-25 1782,-6 1609,-6"/>
<text text-anchor="middle" x="1695.5" y="-13" font-family="Helvetica,sans-Serif" font-size="10.00">stk_mesh/base/FieldParallel.hpp</text>
</a>
</g>
</g>
<!-- Node1&#45;&gt;Node14 -->
<g id="edge13" class="edge">
<title>Node1&#45;&gt;Node14</title>
<path fill="none" stroke="midnightblue" d="M1002.18,-77C1135.4,-70.08 1387.13,-55.03 1600.5,-31 1611.42,-29.77 1623,-28.21 1634.19,-26.58"/>
<polygon fill="midnightblue" stroke="midnightblue" points="1634.95,-30.01 1644.32,-25.07 1633.92,-23.08 1634.95,-30.01"/>
</g>
<!-- Node15 -->
<g id="node15" class="node">
<title>Node15</title>
<g id="a_node15"><a xlink:title=" ">
<polygon fill="white" stroke="#bfbfbf" points="1800.5,-6 1800.5,-25 1962.5,-25 1962.5,-6 1800.5,-6"/>
<text text-anchor="middle" x="1881.5" y="-13" font-family="Helvetica,sans-Serif" font-size="10.00">stk_mesh/base/MetaData.hpp</text>
</a>
</g>
</g>
<!-- Node1&#45;&gt;Node15 -->
<g id="edge14" class="edge">
<title>Node1&#45;&gt;Node15</title>
<path fill="none" stroke="midnightblue" d="M1002.21,-79.3C1163.74,-74.8 1504.9,-62.2 1791.5,-31 1802.22,-29.83 1813.61,-28.26 1824.55,-26.58"/>
<polygon fill="midnightblue" stroke="midnightblue" points="1825.12,-30.03 1834.45,-25.01 1824.02,-23.12 1825.12,-30.03"/>
</g>
<!-- Node16 -->
<g id="node16" class="node">
<title>Node16</title>
<g id="a_node16"><a xlink:title=" ">
<polygon fill="white" stroke="#bfbfbf" points="1981,-6 1981,-25 2114,-25 2114,-6 1981,-6"/>
<text text-anchor="middle" x="2047.5" y="-13" font-family="Helvetica,sans-Serif" font-size="10.00">stk_mesh/base/Part.hpp</text>
</a>
</g>
</g>
<!-- Node1&#45;&gt;Node16 -->
<g id="edge15" class="edge">
<title>Node1&#45;&gt;Node16</title>
<path fill="none" stroke="midnightblue" d="M1002.36,-81.48C1188.08,-80.45 1615.33,-73.22 1971.5,-31 1980.32,-29.95 1989.65,-28.48 1998.65,-26.87"/>
<polygon fill="midnightblue" stroke="midnightblue" points="1999.42,-30.29 2008.61,-25.01 1998.14,-23.41 1999.42,-30.29"/>
</g>
</g>
</svg>
