<?xml version="1.0" encoding="UTF-8" standalone="no"?>
<!DOCTYPE svg PUBLIC "-//W3C//DTD SVG 1.1//EN"
 "http://www.w3.org/Graphics/SVG/1.1/DTD/svg11.dtd">
<!-- Generated by graphviz version 2.43.0 (0)
 -->
<!-- Title: AssembleOversetDecoupledAlgorithm.C Pages: 1 -->
<svg width="1231pt" height="106pt"
 viewBox="0.00 0.00 1230.50 106.00" xmlns="http://www.w3.org/2000/svg" xmlns:xlink="http://www.w3.org/1999/xlink">
<g id="graph0" class="graph" transform="scale(1 1) rotate(0) translate(4 102)">
<title>AssembleOversetDecoupledAlgorithm.C</title>
<polygon fill="white" stroke="transparent" points="-4,4 -4,-102 1226.5,-102 1226.5,4 -4,4"/>
<!-- Node1 -->
<g id="node1" class="node">
<title>Node1</title>
<g id="a_node1"><a xlink:title=" ">
<polygon fill="#bfbfbf" stroke="black" points="608.5,-67.5 608.5,-97.5 763.5,-97.5 763.5,-67.5 608.5,-67.5"/>
<text text-anchor="start" x="616.5" y="-85.5" font-family="Helvetica,sans-Serif" font-size="10.00">AssembleOversetDecoupled</text>
<text text-anchor="middle" x="686" y="-74.5" font-family="Helvetica,sans-Serif" font-size="10.00">Algorithm.C</text>
</a>
</g>
</g>
<!-- Node2 -->
<g id="node2" class="node">
<title>Node2</title>
<g id="a_node2"><a xlink:title=" ">
<polygon fill="white" stroke="#bfbfbf" points="0,-0.5 0,-30.5 194,-30.5 194,-0.5 0,-0.5"/>
<text text-anchor="start" x="8" y="-18.5" font-family="Helvetica,sans-Serif" font-size="10.00">overset/AssembleOversetDecoupled</text>
<text text-anchor="middle" x="97" y="-7.5" font-family="Helvetica,sans-Serif" font-size="10.00">Algorithm.h</text>
</a>
</g>
</g>
<!-- Node1&#45;&gt;Node2 -->
<g id="edge1" class="edge">
<title>Node1&#45;&gt;Node2</title>
<path fill="none" stroke="midnightblue" d="M608.12,-74.13C514.72,-65.11 353.18,-48.96 204.27,-31.13"/>
<polygon fill="midnightblue" stroke="midnightblue" points="204.38,-27.62 194.03,-29.9 203.54,-34.57 204.38,-27.62"/>
</g>
<!-- Node3 -->
<g id="node3" class="node">
<title>Node3</title>
<g id="a_node3"><a xlink:title=" ">
<polygon fill="white" stroke="#bfbfbf" points="212,-6 212,-25 358,-25 358,-6 212,-6"/>
<text text-anchor="middle" x="285" y="-13" font-family="Helvetica,sans-Serif" font-size="10.00">overset/OversetManager.h</text>
</a>
</g>
</g>
<!-- Node1&#45;&gt;Node3 -->
<g id="edge2" class="edge">
<title>Node1&#45;&gt;Node3</title>
<path fill="none" stroke="midnightblue" d="M608.26,-69.59C543.63,-59.6 449.26,-44.78 367,-31 358.99,-29.66 350.55,-28.21 342.25,-26.76"/>
<polygon fill="midnightblue" stroke="midnightblue" points="342.69,-23.28 332.24,-25 341.48,-30.18 342.69,-23.28"/>
</g>
<!-- Node4 -->
<g id="node4" class="node">
<title>Node4</title>
<g id="a_node4"><a xlink:title=" ">
<polygon fill="white" stroke="#bfbfbf" points="376,-6 376,-25 498,-25 498,-6 376,-6"/>
<text text-anchor="middle" x="437" y="-13" font-family="Helvetica,sans-Serif" font-size="10.00">overset/OversetInfo.h</text>
</a>
</g>
</g>
<!-- Node1&#45;&gt;Node4 -->
<g id="edge3" class="edge">
<title>Node1&#45;&gt;Node4</title>
<path fill="none" stroke="midnightblue" d="M632.28,-67.48C586.48,-55.52 521.56,-38.57 479.36,-27.56"/>
<polygon fill="midnightblue" stroke="midnightblue" points="480.23,-24.17 469.67,-25.03 478.46,-30.94 480.23,-24.17"/>
</g>
<!-- Node5 -->
<g id="node5" class="node">
<title>Node5</title>
<g id="a_node5"><a xlink:title=" ">
<polygon fill="white" stroke="#bfbfbf" points="516.5,-6 516.5,-25 621.5,-25 621.5,-6 516.5,-6"/>
<text text-anchor="middle" x="569" y="-13" font-family="Helvetica,sans-Serif" font-size="10.00">EquationSystem.h</text>
</a>
</g>
</g>
<!-- Node1&#45;&gt;Node5 -->
<g id="edge4" class="edge">
<title>Node1&#45;&gt;Node5</title>
<path fill="none" stroke="midnightblue" d="M660.61,-67.4C640.63,-56.29 612.96,-40.92 593.27,-29.98"/>
<polygon fill="midnightblue" stroke="midnightblue" points="594.75,-26.8 584.31,-25.01 591.35,-32.92 594.75,-26.8"/>
</g>
<!-- Node6 -->
<g id="node6" class="node">
<title>Node6</title>
<g id="a_node6"><a xlink:title=" ">
<polygon fill="white" stroke="#bfbfbf" points="640,-6 640,-25 732,-25 732,-6 640,-6"/>
<text text-anchor="middle" x="686" y="-13" font-family="Helvetica,sans-Serif" font-size="10.00">LinearSystem.h</text>
</a>
</g>
</g>
<!-- Node1&#45;&gt;Node6 -->
<g id="edge5" class="edge">
<title>Node1&#45;&gt;Node6</title>
<path fill="none" stroke="midnightblue" d="M686,-67.4C686,-58.06 686,-45.71 686,-35.52"/>
<polygon fill="midnightblue" stroke="midnightblue" points="689.5,-35.19 686,-25.19 682.5,-35.19 689.5,-35.19"/>
</g>
<!-- Node7 -->
<g id="node7" class="node">
<title>Node7</title>
<g id="a_node7"><a xlink:title=" ">
<polygon fill="white" stroke="#bfbfbf" points="750.5,-6 750.5,-25 815.5,-25 815.5,-6 750.5,-6"/>
<text text-anchor="middle" x="783" y="-13" font-family="Helvetica,sans-Serif" font-size="10.00">NaluEnv.h</text>
</a>
</g>
</g>
<!-- Node1&#45;&gt;Node7 -->
<g id="edge6" class="edge">
<title>Node1&#45;&gt;Node7</title>
<path fill="none" stroke="midnightblue" d="M707.05,-67.4C723.31,-56.5 745.72,-41.48 761.98,-30.58"/>
<polygon fill="midnightblue" stroke="midnightblue" points="763.95,-33.48 770.3,-25.01 760.05,-27.67 763.95,-33.48"/>
</g>
<!-- Node8 -->
<g id="node8" class="node">
<title>Node8</title>
<g id="a_node8"><a xlink:title=" ">
<polygon fill="white" stroke="#bfbfbf" points="833.5,-6 833.5,-25 890.5,-25 890.5,-6 833.5,-6"/>
<text text-anchor="middle" x="862" y="-13" font-family="Helvetica,sans-Serif" font-size="10.00">Realm.h</text>
</a>
</g>
</g>
<!-- Node1&#45;&gt;Node8 -->
<g id="edge7" class="edge">
<title>Node1&#45;&gt;Node8</title>
<path fill="none" stroke="midnightblue" d="M725.64,-67.4C753.5,-57.41 791.61,-43.61 825,-31 826.89,-30.29 828.83,-29.55 830.78,-28.8"/>
<polygon fill="midnightblue" stroke="midnightblue" points="832.45,-31.9 840.51,-25.03 829.92,-25.38 832.45,-31.9"/>
</g>
<!-- Node9 -->
<g id="node9" class="node">
<title>Node9</title>
<g id="a_node9"><a xlink:title=" ">
<polygon fill="white" stroke="#bfbfbf" points="908.5,-6 908.5,-25 1067.5,-25 1067.5,-6 908.5,-6"/>
<text text-anchor="middle" x="988" y="-13" font-family="Helvetica,sans-Serif" font-size="10.00">stk_mesh/base/BulkData.hpp</text>
</a>
</g>
</g>
<!-- Node1&#45;&gt;Node9 -->
<g id="edge8" class="edge">
<title>Node1&#45;&gt;Node9</title>
<path fill="none" stroke="midnightblue" d="M751.16,-67.48C807.4,-55.37 887.44,-38.14 938.55,-27.14"/>
<polygon fill="midnightblue" stroke="midnightblue" points="939.33,-30.55 948.37,-25.03 937.86,-23.71 939.33,-30.55"/>
</g>
<!-- Node10 -->
<g id="node10" class="node">
<title>Node10</title>
<g id="a_node10"><a xlink:title=" ">
<polygon fill="white" stroke="#bfbfbf" points="1085.5,-6 1085.5,-25 1222.5,-25 1222.5,-6 1085.5,-6"/>
<text text-anchor="middle" x="1154" y="-13" font-family="Helvetica,sans-Serif" font-size="10.00">stk_mesh/base/Field.hpp</text>
</a>
</g>
</g>
<!-- Node1&#45;&gt;Node10 -->
<g id="edge9" class="edge">
<title>Node1&#45;&gt;Node10</title>
<path fill="none" stroke="midnightblue" d="M763.71,-72.8C842.75,-63.64 968.67,-48.18 1077,-31 1084.75,-29.77 1092.91,-28.36 1100.91,-26.91"/>
<polygon fill="midnightblue" stroke="midnightblue" points="1101.71,-30.32 1110.91,-25.07 1100.44,-23.44 1101.71,-30.32"/>
</g>
</g>
</svg>
