<?xml version="1.0" encoding="UTF-8" standalone="no"?>
<!DOCTYPE svg PUBLIC "-//W3C//DTD SVG 1.1//EN"
 "http://www.w3.org/Graphics/SVG/1.1/DTD/svg11.dtd">
<!-- Generated by graphviz version 2.43.0 (0)
 -->
<!-- Title: AssembleNodalGradUNonConformalAlgorithm.C Pages: 1 -->
<svg width="2129pt" height="106pt"
 viewBox="0.00 0.00 2128.50 106.00" xmlns="http://www.w3.org/2000/svg" xmlns:xlink="http://www.w3.org/1999/xlink">
<g id="graph0" class="graph" transform="scale(1 1) rotate(0) translate(4 102)">
<title>AssembleNodalGradUNonConformalAlgorithm.C</title>
<polygon fill="white" stroke="transparent" points="-4,4 -4,-102 2124.5,-102 2124.5,4 -4,4"/>
<!-- Node1 -->
<g id="node1" class="node">
<title>Node1</title>
<g id="a_node1"><a xlink:title=" ">
<polygon fill="#bfbfbf" stroke="black" points="818,-67.5 818,-97.5 1012,-97.5 1012,-67.5 818,-67.5"/>
<text text-anchor="start" x="826" y="-85.5" font-family="Helvetica,sans-Serif" font-size="10.00">AssembleNodalGradUNonConformal</text>
<text text-anchor="middle" x="915" y="-74.5" font-family="Helvetica,sans-Serif" font-size="10.00">Algorithm.C</text>
</a>
</g>
</g>
<!-- Node2 -->
<g id="node2" class="node">
<title>Node2</title>
<g id="a_node2"><a xlink:title=" ">
<polygon fill="white" stroke="#bfbfbf" points="0,-0.5 0,-30.5 194,-30.5 194,-0.5 0,-0.5"/>
<text text-anchor="start" x="8" y="-18.5" font-family="Helvetica,sans-Serif" font-size="10.00">AssembleNodalGradUNonConformal</text>
<text text-anchor="middle" x="97" y="-7.5" font-family="Helvetica,sans-Serif" font-size="10.00">Algorithm.h</text>
</a>
</g>
</g>
<!-- Node1&#45;&gt;Node2 -->
<g id="edge1" class="edge">
<title>Node1&#45;&gt;Node2</title>
<path fill="none" stroke="midnightblue" d="M817.8,-76.62C682.57,-69.37 429.79,-54.2 204.06,-31.07"/>
<polygon fill="midnightblue" stroke="midnightblue" points="204.32,-27.57 194.02,-30.03 203.6,-34.54 204.32,-27.57"/>
</g>
<!-- Node3 -->
<g id="node3" class="node">
<title>Node3</title>
<g id="a_node3"><a xlink:title=" ">
<polygon fill="white" stroke="#bfbfbf" points="212,-6 212,-25 286,-25 286,-6 212,-6"/>
<text text-anchor="middle" x="249" y="-13" font-family="Helvetica,sans-Serif" font-size="10.00">Algorithm.h</text>
</a>
</g>
</g>
<!-- Node1&#45;&gt;Node3 -->
<g id="edge2" class="edge">
<title>Node1&#45;&gt;Node3</title>
<path fill="none" stroke="midnightblue" d="M817.96,-80.3C695.14,-77.25 477.56,-66.74 295,-31 290.84,-30.19 286.53,-29.13 282.28,-27.95"/>
<polygon fill="midnightblue" stroke="midnightblue" points="283.2,-24.57 272.61,-25.06 281.19,-31.28 283.2,-24.57"/>
</g>
<!-- Node4 -->
<g id="node4" class="node">
<title>Node4</title>
<g id="a_node4"><a xlink:title=" ">
<polygon fill="white" stroke="#bfbfbf" points="304,-6 304,-25 362,-25 362,-6 304,-6"/>
<text text-anchor="middle" x="333" y="-13" font-family="Helvetica,sans-Serif" font-size="10.00">DgInfo.h</text>
</a>
</g>
</g>
<!-- Node1&#45;&gt;Node4 -->
<g id="edge3" class="edge">
<title>Node1&#45;&gt;Node4</title>
<path fill="none" stroke="midnightblue" d="M817.93,-80.4C708.12,-77.35 524.59,-66.73 371,-31 368,-30.3 364.92,-29.42 361.88,-28.44"/>
<polygon fill="midnightblue" stroke="midnightblue" points="363,-25.13 352.4,-25.07 360.65,-31.72 363,-25.13"/>
</g>
<!-- Node5 -->
<g id="node5" class="node">
<title>Node5</title>
<g id="a_node5"><a xlink:title=" ">
<polygon fill="white" stroke="#bfbfbf" points="380,-6 380,-25 468,-25 468,-6 380,-6"/>
<text text-anchor="middle" x="424" y="-13" font-family="Helvetica,sans-Serif" font-size="10.00">FieldTypeDef.h</text>
</a>
</g>
</g>
<!-- Node1&#45;&gt;Node5 -->
<g id="edge4" class="edge">
<title>Node1&#45;&gt;Node5</title>
<path fill="none" stroke="midnightblue" d="M817.8,-74.56C728.61,-67.19 593.11,-53.44 477,-31 472.16,-30.06 467.12,-28.92 462.15,-27.68"/>
<polygon fill="midnightblue" stroke="midnightblue" points="462.7,-24.21 452.14,-25.06 460.93,-30.98 462.7,-24.21"/>
</g>
<!-- Node6 -->
<g id="node6" class="node">
<title>Node6</title>
<g id="a_node6"><a xlink:title=" ">
<polygon fill="white" stroke="#bfbfbf" points="486,-6 486,-25 578,-25 578,-6 486,-6"/>
<text text-anchor="middle" x="532" y="-13" font-family="Helvetica,sans-Serif" font-size="10.00">LinearSystem.h</text>
</a>
</g>
</g>
<!-- Node1&#45;&gt;Node6 -->
<g id="edge5" class="edge">
<title>Node1&#45;&gt;Node6</title>
<path fill="none" stroke="midnightblue" d="M817.64,-69.24C752.13,-60.32 663.99,-47.03 587,-31 582.18,-30 577.15,-28.83 572.17,-27.61"/>
<polygon fill="midnightblue" stroke="midnightblue" points="572.68,-24.13 562.12,-25.05 570.95,-30.91 572.68,-24.13"/>
</g>
<!-- Node7 -->
<g id="node7" class="node">
<title>Node7</title>
<g id="a_node7"><a xlink:title=" ">
<polygon fill="white" stroke="#bfbfbf" points="596.5,-6 596.5,-25 711.5,-25 711.5,-6 596.5,-6"/>
<text text-anchor="middle" x="654" y="-13" font-family="Helvetica,sans-Serif" font-size="10.00">NonConformalInfo.h</text>
</a>
</g>
</g>
<!-- Node1&#45;&gt;Node7 -->
<g id="edge6" class="edge">
<title>Node1&#45;&gt;Node7</title>
<path fill="none" stroke="midnightblue" d="M858.69,-67.48C810.58,-55.5 742.34,-38.5 698.12,-27.49"/>
<polygon fill="midnightblue" stroke="midnightblue" points="698.8,-24.05 688.25,-25.03 697.1,-30.84 698.8,-24.05"/>
</g>
<!-- Node8 -->
<g id="node8" class="node">
<title>Node8</title>
<g id="a_node8"><a xlink:title=" ">
<polygon fill="white" stroke="#bfbfbf" points="730,-6 730,-25 868,-25 868,-6 730,-6"/>
<text text-anchor="middle" x="799" y="-13" font-family="Helvetica,sans-Serif" font-size="10.00">NonConformalManager.h</text>
</a>
</g>
</g>
<!-- Node1&#45;&gt;Node8 -->
<g id="edge7" class="edge">
<title>Node1&#45;&gt;Node8</title>
<path fill="none" stroke="midnightblue" d="M889.83,-67.4C870.02,-56.29 842.58,-40.92 823.06,-29.98"/>
<polygon fill="midnightblue" stroke="midnightblue" points="824.62,-26.84 814.18,-25.01 821.19,-32.95 824.62,-26.84"/>
</g>
<!-- Node9 -->
<g id="node9" class="node">
<title>Node9</title>
<g id="a_node9"><a xlink:title=" ">
<polygon fill="white" stroke="#bfbfbf" points="886.5,-6 886.5,-25 943.5,-25 943.5,-6 886.5,-6"/>
<text text-anchor="middle" x="915" y="-13" font-family="Helvetica,sans-Serif" font-size="10.00">Realm.h</text>
</a>
</g>
</g>
<!-- Node1&#45;&gt;Node9 -->
<g id="edge8" class="edge">
<title>Node1&#45;&gt;Node9</title>
<path fill="none" stroke="midnightblue" d="M915,-67.4C915,-58.06 915,-45.71 915,-35.52"/>
<polygon fill="midnightblue" stroke="midnightblue" points="918.5,-35.19 915,-25.19 911.5,-35.19 918.5,-35.19"/>
</g>
<!-- Node10 -->
<g id="node10" class="node">
<title>Node10</title>
<g id="a_node10"><a xlink:title=" ">
<polygon fill="white" stroke="#bfbfbf" points="961.5,-6 961.5,-25 1064.5,-25 1064.5,-6 961.5,-6"/>
<text text-anchor="middle" x="1013" y="-13" font-family="Helvetica,sans-Serif" font-size="10.00">SolutionOptions.h</text>
</a>
</g>
</g>
<!-- Node1&#45;&gt;Node10 -->
<g id="edge9" class="edge">
<title>Node1&#45;&gt;Node10</title>
<path fill="none" stroke="midnightblue" d="M936.26,-67.4C952.7,-56.5 975.34,-41.48 991.77,-30.58"/>
<polygon fill="midnightblue" stroke="midnightblue" points="993.78,-33.45 1000.17,-25.01 989.91,-27.62 993.78,-33.45"/>
</g>
<!-- Node11 -->
<g id="node11" class="node">
<title>Node11</title>
<g id="a_node11"><a xlink:title=" ">
<polygon fill="white" stroke="#bfbfbf" points="1082.5,-6 1082.5,-25 1265.5,-25 1265.5,-6 1082.5,-6"/>
<text text-anchor="middle" x="1174" y="-13" font-family="Helvetica,sans-Serif" font-size="10.00">master_element/MasterElement.h</text>
</a>
</g>
</g>
<!-- Node1&#45;&gt;Node11 -->
<g id="edge10" class="edge">
<title>Node1&#45;&gt;Node11</title>
<path fill="none" stroke="midnightblue" d="M970.88,-67.48C1018.62,-55.5 1086.33,-38.5 1130.22,-27.49"/>
<polygon fill="midnightblue" stroke="midnightblue" points="1131.17,-30.86 1140.02,-25.03 1129.47,-24.07 1131.17,-30.86"/>
</g>
<!-- Node12 -->
<g id="node12" class="node">
<title>Node12</title>
<g id="a_node12"><a xlink:title=" ">
<polygon fill="white" stroke="#bfbfbf" points="1283.5,-6 1283.5,-25 1442.5,-25 1442.5,-6 1283.5,-6"/>
<text text-anchor="middle" x="1363" y="-13" font-family="Helvetica,sans-Serif" font-size="10.00">stk_mesh/base/BulkData.hpp</text>
</a>
</g>
</g>
<!-- Node1&#45;&gt;Node12 -->
<g id="edge11" class="edge">
<title>Node1&#45;&gt;Node12</title>
<path fill="none" stroke="midnightblue" d="M1012.12,-68.52C1084.62,-58.67 1186.09,-44.56 1275,-31 1283.79,-29.66 1293.06,-28.19 1302.15,-26.72"/>
<polygon fill="midnightblue" stroke="midnightblue" points="1303,-30.13 1312.31,-25.07 1301.88,-23.22 1303,-30.13"/>
</g>
<!-- Node13 -->
<g id="node13" class="node">
<title>Node13</title>
<g id="a_node13"><a xlink:title=" ">
<polygon fill="white" stroke="#bfbfbf" points="1460.5,-6 1460.5,-25 1597.5,-25 1597.5,-6 1460.5,-6"/>
<text text-anchor="middle" x="1529" y="-13" font-family="Helvetica,sans-Serif" font-size="10.00">stk_mesh/base/Field.hpp</text>
</a>
</g>
</g>
<!-- Node1&#45;&gt;Node13 -->
<g id="edge12" class="edge">
<title>Node1&#45;&gt;Node13</title>
<path fill="none" stroke="midnightblue" d="M1012.33,-75.06C1120.15,-67.3 1299,-52.55 1452,-31 1460.33,-29.83 1469.12,-28.38 1477.67,-26.85"/>
<polygon fill="midnightblue" stroke="midnightblue" points="1478.35,-30.28 1487.56,-25.03 1477.09,-23.4 1478.35,-30.28"/>
</g>
<!-- Node14 -->
<g id="node14" class="node">
<title>Node14</title>
<g id="a_node14"><a xlink:title=" ">
<polygon fill="white" stroke="#bfbfbf" points="1615.5,-6 1615.5,-25 1788.5,-25 1788.5,-6 1615.5,-6"/>
<text text-anchor="middle" x="1702" y="-13" font-family="Helvetica,sans-Serif" font-size="10.00">stk_mesh/base/FieldParallel.hpp</text>
</a>
</g>
</g>
<!-- Node1&#45;&gt;Node14 -->
<g id="edge13" class="edge">
<title>Node1&#45;&gt;Node14</title>
<path fill="none" stroke="midnightblue" d="M1012.06,-76.83C1146.14,-69.83 1395.43,-54.83 1607,-31 1617.92,-29.77 1629.5,-28.21 1640.69,-26.58"/>
<polygon fill="midnightblue" stroke="midnightblue" points="1641.45,-30.01 1650.82,-25.07 1640.42,-23.08 1641.45,-30.01"/>
</g>
<!-- Node15 -->
<g id="node15" class="node">
<title>Node15</title>
<g id="a_node15"><a xlink:title=" ">
<polygon fill="white" stroke="#bfbfbf" points="1807,-6 1807,-25 1969,-25 1969,-6 1807,-6"/>
<text text-anchor="middle" x="1888" y="-13" font-family="Helvetica,sans-Serif" font-size="10.00">stk_mesh/base/MetaData.hpp</text>
</a>
</g>
</g>
<!-- Node1&#45;&gt;Node15 -->
<g id="edge14" class="edge">
<title>Node1&#45;&gt;Node15</title>
<path fill="none" stroke="midnightblue" d="M1012.28,-79.2C1175.24,-74.61 1513.5,-61.97 1798,-31 1808.72,-29.83 1820.11,-28.26 1831.05,-26.58"/>
<polygon fill="midnightblue" stroke="midnightblue" points="1831.62,-30.03 1840.95,-25.01 1830.52,-23.12 1831.62,-30.03"/>
</g>
<!-- Node16 -->
<g id="node16" class="node">
<title>Node16</title>
<g id="a_node16"><a xlink:title=" ">
<polygon fill="white" stroke="#bfbfbf" points="1987.5,-6 1987.5,-25 2120.5,-25 2120.5,-6 1987.5,-6"/>
<text text-anchor="middle" x="2054" y="-13" font-family="Helvetica,sans-Serif" font-size="10.00">stk_mesh/base/Part.hpp</text>
</a>
</g>
</g>
<!-- Node1&#45;&gt;Node16 -->
<g id="edge15" class="edge">
<title>Node1&#45;&gt;Node16</title>
<path fill="none" stroke="midnightblue" d="M1012.11,-81.46C1199.53,-80.36 1623.9,-72.98 1978,-31 1986.82,-29.95 1996.15,-28.48 2005.15,-26.87"/>
<polygon fill="midnightblue" stroke="midnightblue" points="2005.92,-30.29 2015.11,-25.01 2004.64,-23.41 2005.92,-30.29"/>
</g>
</g>
</svg>
