<?xml version="1.0" encoding="UTF-8" standalone="no"?>
<!DOCTYPE svg PUBLIC "-//W3C//DTD SVG 1.1//EN"
 "http://www.w3.org/Graphics/SVG/1.1/DTD/svg11.dtd">
<!-- Generated by graphviz version 2.43.0 (0)
 -->
<!-- Title: AssembleOversetPressureAlgorithm.C Pages: 1 -->
<svg width="2542pt" height="95pt"
 viewBox="0.00 0.00 2542.00 95.00" xmlns="http://www.w3.org/2000/svg" xmlns:xlink="http://www.w3.org/1999/xlink">
<g id="graph0" class="graph" transform="scale(1 1) rotate(0) translate(4 91)">
<title>AssembleOversetPressureAlgorithm.C</title>
<polygon fill="white" stroke="transparent" points="-4,4 -4,-91 2538,-91 2538,4 -4,4"/>
<!-- Node1 -->
<g id="node1" class="node">
<title>Node1</title>
<g id="a_node1"><a xlink:title=" ">
<polygon fill="#bfbfbf" stroke="black" points="1021,-67.5 1021,-86.5 1224,-86.5 1224,-67.5 1021,-67.5"/>
<text text-anchor="middle" x="1122.5" y="-74.5" font-family="Helvetica,sans-Serif" font-size="10.00">AssembleOversetPressureAlgorithm.C</text>
</a>
</g>
</g>
<!-- Node2 -->
<g id="node2" class="node">
<title>Node2</title>
<g id="a_node2"><a xlink:title=" ">
<polygon fill="white" stroke="#bfbfbf" points="0,-0.5 0,-30.5 185,-30.5 185,-0.5 0,-0.5"/>
<text text-anchor="start" x="8" y="-18.5" font-family="Helvetica,sans-Serif" font-size="10.00">overset/AssembleOversetPressure</text>
<text text-anchor="middle" x="92.5" y="-7.5" font-family="Helvetica,sans-Serif" font-size="10.00">Algorithm.h</text>
</a>
</g>
</g>
<!-- Node1&#45;&gt;Node2 -->
<g id="edge1" class="edge">
<title>Node1&#45;&gt;Node2</title>
<path fill="none" stroke="midnightblue" d="M1020.89,-74.21C851.72,-70.53 501.46,-59.97 195.6,-31.14"/>
<polygon fill="midnightblue" stroke="midnightblue" points="195.48,-27.62 185.2,-30.15 194.82,-34.58 195.48,-27.62"/>
</g>
<!-- Node3 -->
<g id="node3" class="node">
<title>Node3</title>
<g id="a_node3"><a xlink:title=" ">
<polygon fill="white" stroke="#bfbfbf" points="203,-6 203,-25 308,-25 308,-6 203,-6"/>
<text text-anchor="middle" x="255.5" y="-13" font-family="Helvetica,sans-Serif" font-size="10.00">EquationSystem.h</text>
</a>
</g>
</g>
<!-- Node1&#45;&gt;Node3 -->
<g id="edge2" class="edge">
<title>Node1&#45;&gt;Node3</title>
<path fill="none" stroke="midnightblue" d="M1020.91,-75.97C867.68,-74.64 568.62,-67.1 317.5,-31 310.81,-30.04 303.78,-28.71 296.95,-27.24"/>
<polygon fill="midnightblue" stroke="midnightblue" points="297.68,-23.82 287.16,-25.02 296.14,-30.65 297.68,-23.82"/>
</g>
<!-- Node4 -->
<g id="node4" class="node">
<title>Node4</title>
<g id="a_node4"><a xlink:title=" ">
<polygon fill="white" stroke="#bfbfbf" points="326.5,-6 326.5,-25 414.5,-25 414.5,-6 326.5,-6"/>
<text text-anchor="middle" x="370.5" y="-13" font-family="Helvetica,sans-Serif" font-size="10.00">FieldTypeDef.h</text>
</a>
</g>
</g>
<!-- Node1&#45;&gt;Node4 -->
<g id="edge3" class="edge">
<title>Node1&#45;&gt;Node4</title>
<path fill="none" stroke="midnightblue" d="M1020.77,-75.89C884.04,-74.27 633.85,-66.17 423.5,-31 418.28,-30.13 412.84,-28.95 407.51,-27.65"/>
<polygon fill="midnightblue" stroke="midnightblue" points="408.06,-24.17 397.5,-25.02 406.28,-30.94 408.06,-24.17"/>
</g>
<!-- Node5 -->
<g id="node5" class="node">
<title>Node5</title>
<g id="a_node5"><a xlink:title=" ">
<polygon fill="white" stroke="#bfbfbf" points="432.5,-6 432.5,-25 524.5,-25 524.5,-6 432.5,-6"/>
<text text-anchor="middle" x="478.5" y="-13" font-family="Helvetica,sans-Serif" font-size="10.00">LinearSystem.h</text>
</a>
</g>
</g>
<!-- Node1&#45;&gt;Node5 -->
<g id="edge4" class="edge">
<title>Node1&#45;&gt;Node5</title>
<path fill="none" stroke="midnightblue" d="M1020.99,-73.83C903.07,-70.02 703.02,-59.58 533.5,-31 528.02,-30.08 522.3,-28.86 516.7,-27.52"/>
<polygon fill="midnightblue" stroke="midnightblue" points="517.39,-24.08 506.83,-25.02 515.66,-30.87 517.39,-24.08"/>
</g>
<!-- Node6 -->
<g id="node6" class="node">
<title>Node6</title>
<g id="a_node6"><a xlink:title=" ">
<polygon fill="white" stroke="#bfbfbf" points="543,-6 543,-25 608,-25 608,-6 543,-6"/>
<text text-anchor="middle" x="575.5" y="-13" font-family="Helvetica,sans-Serif" font-size="10.00">NaluEnv.h</text>
</a>
</g>
</g>
<!-- Node1&#45;&gt;Node6 -->
<g id="edge5" class="edge">
<title>Node1&#45;&gt;Node6</title>
<path fill="none" stroke="midnightblue" d="M1020.57,-74.42C917.57,-71.09 754.38,-61.01 616.5,-31 613.08,-30.25 609.55,-29.3 606.06,-28.24"/>
<polygon fill="midnightblue" stroke="midnightblue" points="607.08,-24.89 596.49,-25.06 604.87,-31.54 607.08,-24.89"/>
</g>
<!-- Node7 -->
<g id="node7" class="node">
<title>Node7</title>
<g id="a_node7"><a xlink:title=" ">
<polygon fill="white" stroke="#bfbfbf" points="626,-6 626,-25 683,-25 683,-6 626,-6"/>
<text text-anchor="middle" x="654.5" y="-13" font-family="Helvetica,sans-Serif" font-size="10.00">Realm.h</text>
</a>
</g>
</g>
<!-- Node1&#45;&gt;Node7 -->
<g id="edge6" class="edge">
<title>Node1&#45;&gt;Node7</title>
<path fill="none" stroke="midnightblue" d="M1020.9,-72.81C932.97,-68.29 802.92,-57.37 692.5,-31 689.51,-30.29 686.43,-29.39 683.39,-28.41"/>
<polygon fill="midnightblue" stroke="midnightblue" points="684.51,-25.09 673.92,-25.02 682.15,-31.68 684.51,-25.09"/>
</g>
<!-- Node8 -->
<g id="node8" class="node">
<title>Node8</title>
<g id="a_node8"><a xlink:title=" ">
<polygon fill="white" stroke="#bfbfbf" points="701.5,-6 701.5,-25 805.5,-25 805.5,-6 701.5,-6"/>
<text text-anchor="middle" x="753.5" y="-13" font-family="Helvetica,sans-Serif" font-size="10.00">SolverAlgorithm.h</text>
</a>
</g>
</g>
<!-- Node1&#45;&gt;Node8 -->
<g id="edge7" class="edge">
<title>Node1&#45;&gt;Node8</title>
<path fill="none" stroke="midnightblue" d="M1051.87,-67.48C989.25,-59.5 895.44,-46.5 814.5,-31 808.75,-29.9 802.72,-28.62 796.78,-27.29"/>
<polygon fill="midnightblue" stroke="midnightblue" points="797.48,-23.85 786.95,-25.01 795.9,-30.67 797.48,-23.85"/>
</g>
<!-- Node9 -->
<g id="node9" class="node">
<title>Node9</title>
<g id="a_node9"><a xlink:title=" ">
<polygon fill="white" stroke="#bfbfbf" points="823.5,-6 823.5,-25 921.5,-25 921.5,-6 823.5,-6"/>
<text text-anchor="middle" x="872.5" y="-13" font-family="Helvetica,sans-Serif" font-size="10.00">TimeIntegrator.h</text>
</a>
</g>
</g>
<!-- Node1&#45;&gt;Node9 -->
<g id="edge8" class="edge">
<title>Node1&#45;&gt;Node9</title>
<path fill="none" stroke="midnightblue" d="M1085.3,-67.45C1046.59,-58.52 984.24,-44.01 930.5,-31 925.83,-29.87 920.95,-28.67 916.09,-27.47"/>
<polygon fill="midnightblue" stroke="midnightblue" points="916.76,-24.03 906.22,-25.02 915.08,-30.83 916.76,-24.03"/>
</g>
<!-- Node10 -->
<g id="node10" class="node">
<title>Node10</title>
<g id="a_node10"><a xlink:title=" ">
<polygon fill="white" stroke="#bfbfbf" points="940,-6 940,-25 1123,-25 1123,-6 940,-6"/>
<text text-anchor="middle" x="1031.5" y="-13" font-family="Helvetica,sans-Serif" font-size="10.00">master_element/MasterElement.h</text>
</a>
</g>
</g>
<!-- Node1&#45;&gt;Node10 -->
<g id="edge9" class="edge">
<title>Node1&#45;&gt;Node10</title>
<path fill="none" stroke="midnightblue" d="M1109.46,-67.48C1094.73,-57.84 1070.53,-42.02 1052.99,-30.55"/>
<polygon fill="midnightblue" stroke="midnightblue" points="1054.8,-27.55 1044.51,-25.01 1050.97,-33.41 1054.8,-27.55"/>
</g>
<!-- Node11 -->
<g id="node11" class="node">
<title>Node11</title>
<g id="a_node11"><a xlink:title=" ">
<polygon fill="white" stroke="#bfbfbf" points="1141.5,-6 1141.5,-25 1287.5,-25 1287.5,-6 1141.5,-6"/>
<text text-anchor="middle" x="1214.5" y="-13" font-family="Helvetica,sans-Serif" font-size="10.00">overset/OversetManager.h</text>
</a>
</g>
</g>
<!-- Node1&#45;&gt;Node11 -->
<g id="edge10" class="edge">
<title>Node1&#45;&gt;Node11</title>
<path fill="none" stroke="midnightblue" d="M1135.68,-67.48C1150.57,-57.84 1175.04,-42.02 1192.77,-30.55"/>
<polygon fill="midnightblue" stroke="midnightblue" points="1194.85,-33.38 1201.34,-25.01 1191.05,-27.5 1194.85,-33.38"/>
</g>
<!-- Node12 -->
<g id="node12" class="node">
<title>Node12</title>
<g id="a_node12"><a xlink:title=" ">
<polygon fill="white" stroke="#bfbfbf" points="1305.5,-6 1305.5,-25 1427.5,-25 1427.5,-6 1305.5,-6"/>
<text text-anchor="middle" x="1366.5" y="-13" font-family="Helvetica,sans-Serif" font-size="10.00">overset/OversetInfo.h</text>
</a>
</g>
</g>
<!-- Node1&#45;&gt;Node12 -->
<g id="edge11" class="edge">
<title>Node1&#45;&gt;Node12</title>
<path fill="none" stroke="midnightblue" d="M1157.46,-67.48C1200.67,-56.94 1274.29,-38.99 1321.63,-27.44"/>
<polygon fill="midnightblue" stroke="midnightblue" points="1322.72,-30.78 1331.61,-25.01 1321.06,-23.98 1322.72,-30.78"/>
</g>
<!-- Node13 -->
<g id="node13" class="node">
<title>Node13</title>
<g id="a_node13"><a xlink:title=" ">
<polygon fill="white" stroke="#bfbfbf" points="1446,-6 1446,-25 1605,-25 1605,-6 1446,-6"/>
<text text-anchor="middle" x="1525.5" y="-13" font-family="Helvetica,sans-Serif" font-size="10.00">stk_mesh/base/BulkData.hpp</text>
</a>
</g>
</g>
<!-- Node1&#45;&gt;Node13 -->
<g id="edge12" class="edge">
<title>Node1&#45;&gt;Node13</title>
<path fill="none" stroke="midnightblue" d="M1184.51,-67.47C1247.89,-58.67 1349.13,-44.38 1436.5,-31 1445.48,-29.63 1454.96,-28.13 1464.25,-26.64"/>
<polygon fill="midnightblue" stroke="midnightblue" points="1464.91,-30.08 1474.23,-25.03 1463.8,-23.16 1464.91,-30.08"/>
</g>
<!-- Node14 -->
<g id="node14" class="node">
<title>Node14</title>
<g id="a_node14"><a xlink:title=" ">
<polygon fill="white" stroke="#bfbfbf" points="1623,-6 1623,-25 1760,-25 1760,-6 1623,-6"/>
<text text-anchor="middle" x="1691.5" y="-13" font-family="Helvetica,sans-Serif" font-size="10.00">stk_mesh/base/Field.hpp</text>
</a>
</g>
</g>
<!-- Node1&#45;&gt;Node14 -->
<g id="edge13" class="edge">
<title>Node1&#45;&gt;Node14</title>
<path fill="none" stroke="midnightblue" d="M1224.12,-69.53C1323.83,-62.52 1480.07,-49.76 1614.5,-31 1622.83,-29.84 1631.62,-28.39 1640.17,-26.87"/>
<polygon fill="midnightblue" stroke="midnightblue" points="1640.86,-30.3 1650.06,-25.05 1639.59,-23.41 1640.86,-30.3"/>
</g>
<!-- Node15 -->
<g id="node15" class="node">
<title>Node15</title>
<g id="a_node15"><a xlink:title=" ">
<polygon fill="white" stroke="#bfbfbf" points="1778,-6 1778,-25 1951,-25 1951,-6 1778,-6"/>
<text text-anchor="middle" x="1864.5" y="-13" font-family="Helvetica,sans-Serif" font-size="10.00">stk_mesh/base/FieldParallel.hpp</text>
</a>
</g>
</g>
<!-- Node1&#45;&gt;Node15 -->
<g id="edge14" class="edge">
<title>Node1&#45;&gt;Node15</title>
<path fill="none" stroke="midnightblue" d="M1224.15,-71.51C1351.77,-65.29 1577.29,-52.32 1769.5,-31 1780.66,-29.76 1792.51,-28.17 1803.93,-26.5"/>
<polygon fill="midnightblue" stroke="midnightblue" points="1804.45,-29.97 1813.82,-25.02 1803.41,-23.04 1804.45,-29.97"/>
</g>
<!-- Node16 -->
<g id="node16" class="node">
<title>Node16</title>
<g id="a_node16"><a xlink:title=" ">
<polygon fill="white" stroke="#bfbfbf" points="1969.5,-6 1969.5,-25 2137.5,-25 2137.5,-6 1969.5,-6"/>
<text text-anchor="middle" x="2053.5" y="-13" font-family="Helvetica,sans-Serif" font-size="10.00">stk_mesh/base/GetEntities.hpp</text>
</a>
</g>
</g>
<!-- Node1&#45;&gt;Node16 -->
<g id="edge15" class="edge">
<title>Node1&#45;&gt;Node16</title>
<path fill="none" stroke="midnightblue" d="M1224.02,-73.86C1381.9,-69.77 1695.68,-58.68 1960.5,-31 1971.57,-29.84 1983.34,-28.27 1994.65,-26.59"/>
<polygon fill="midnightblue" stroke="midnightblue" points="1995.52,-30 2004.87,-25.03 1994.46,-23.08 1995.52,-30"/>
</g>
<!-- Node17 -->
<g id="node17" class="node">
<title>Node17</title>
<g id="a_node17"><a xlink:title=" ">
<polygon fill="white" stroke="#bfbfbf" points="2155.5,-6 2155.5,-25 2317.5,-25 2317.5,-6 2155.5,-6"/>
<text text-anchor="middle" x="2236.5" y="-13" font-family="Helvetica,sans-Serif" font-size="10.00">stk_mesh/base/MetaData.hpp</text>
</a>
</g>
</g>
<!-- Node1&#45;&gt;Node17 -->
<g id="edge16" class="edge">
<title>Node1&#45;&gt;Node17</title>
<path fill="none" stroke="midnightblue" d="M1224.16,-75.43C1408.48,-73.52 1809.93,-65.39 2146.5,-31 2157.35,-29.89 2168.88,-28.33 2179.94,-26.64"/>
<polygon fill="midnightblue" stroke="midnightblue" points="2180.59,-30.08 2189.92,-25.06 2179.5,-23.16 2180.59,-30.08"/>
</g>
<!-- Node18 -->
<g id="node18" class="node">
<title>Node18</title>
<g id="a_node18"><a xlink:title=" ">
<polygon fill="white" stroke="#bfbfbf" points="2336,-6 2336,-25 2469,-25 2469,-6 2336,-6"/>
<text text-anchor="middle" x="2402.5" y="-13" font-family="Helvetica,sans-Serif" font-size="10.00">stk_mesh/base/Part.hpp</text>
</a>
</g>
</g>
<!-- Node1&#45;&gt;Node18 -->
<g id="edge17" class="edge">
<title>Node1&#45;&gt;Node18</title>
<path fill="none" stroke="midnightblue" d="M1224.19,-74.18C1474.26,-69.38 2114.24,-55.08 2326.5,-31 2335.42,-29.99 2344.87,-28.52 2353.95,-26.89"/>
<polygon fill="midnightblue" stroke="midnightblue" points="2354.82,-30.29 2364.01,-25.01 2353.54,-23.41 2354.82,-30.29"/>
</g>
<!-- Node19 -->
<g id="node19" class="node">
<title>Node19</title>
<g id="a_node19"><a xlink:title=" ">
<polygon fill="white" stroke="#bfbfbf" points="2487,-6 2487,-25 2534,-25 2534,-6 2487,-6"/>
<text text-anchor="middle" x="2510.5" y="-13" font-family="Helvetica,sans-Serif" font-size="10.00">cmath</text>
</a>
</g>
</g>
<!-- Node1&#45;&gt;Node19 -->
<g id="edge18" class="edge">
<title>Node1&#45;&gt;Node19</title>
<path fill="none" stroke="midnightblue" d="M1224.08,-74.91C1518.27,-71.45 2357.75,-59.18 2478.5,-31 2480.86,-30.45 2483.25,-29.72 2485.61,-28.89"/>
<polygon fill="midnightblue" stroke="midnightblue" points="2487.08,-32.07 2494.98,-25.01 2484.4,-25.6 2487.08,-32.07"/>
</g>
</g>
</svg>
