<?xml version="1.0" encoding="UTF-8" standalone="no"?>
<!DOCTYPE svg PUBLIC "-//W3C//DTD SVG 1.1//EN"
 "http://www.w3.org/Graphics/SVG/1.1/DTD/svg11.dtd">
<!-- Generated by graphviz version 2.43.0 (0)
 -->
<!-- Title: AssembleFaceElemSolverAlgorithm.C Pages: 1 -->
<svg width="2973pt" height="84pt"
 viewBox="0.00 0.00 2973.00 84.00" xmlns="http://www.w3.org/2000/svg" xmlns:xlink="http://www.w3.org/1999/xlink">
<g id="graph0" class="graph" transform="scale(1 1) rotate(0) translate(4 80)">
<title>AssembleFaceElemSolverAlgorithm.C</title>
<polygon fill="white" stroke="transparent" points="-4,4 -4,-80 2969,-80 2969,4 -4,4"/>
<!-- Node1 -->
<g id="node1" class="node">
<title>Node1</title>
<g id="a_node1"><a xlink:title=" ">
<polygon fill="#bfbfbf" stroke="black" points="1280.5,-56.5 1280.5,-75.5 1480.5,-75.5 1480.5,-56.5 1280.5,-56.5"/>
<text text-anchor="middle" x="1380.5" y="-63.5" font-family="Helvetica,sans-Serif" font-size="10.00">AssembleFaceElemSolverAlgorithm.C</text>
</a>
</g>
</g>
<!-- Node2 -->
<g id="node2" class="node">
<title>Node2</title>
<g id="a_node2"><a xlink:title=" ">
<polygon fill="white" stroke="#bfbfbf" points="0,-0.5 0,-19.5 199,-19.5 199,-0.5 0,-0.5"/>
<text text-anchor="middle" x="99.5" y="-7.5" font-family="Helvetica,sans-Serif" font-size="10.00">AssembleFaceElemSolverAlgorithm.h</text>
</a>
</g>
</g>
<!-- Node1&#45;&gt;Node2 -->
<g id="edge1" class="edge">
<title>Node1&#45;&gt;Node2</title>
<path fill="none" stroke="midnightblue" d="M1280.39,-62.67C1079.42,-57.67 612.26,-44.36 209.33,-20.09"/>
<polygon fill="midnightblue" stroke="midnightblue" points="209.42,-16.59 199.23,-19.47 209,-23.57 209.42,-16.59"/>
</g>
<!-- Node3 -->
<g id="node3" class="node">
<title>Node3</title>
<g id="a_node3"><a xlink:title=" ">
<polygon fill="white" stroke="#bfbfbf" points="217,-0.5 217,-19.5 322,-19.5 322,-0.5 217,-0.5"/>
<text text-anchor="middle" x="269.5" y="-7.5" font-family="Helvetica,sans-Serif" font-size="10.00">EquationSystem.h</text>
</a>
</g>
</g>
<!-- Node1&#45;&gt;Node3 -->
<g id="edge2" class="edge">
<title>Node1&#45;&gt;Node3</title>
<path fill="none" stroke="midnightblue" d="M1280.47,-64.08C1095.41,-61.63 686.93,-52.77 332.43,-19.98"/>
<polygon fill="midnightblue" stroke="midnightblue" points="332.5,-16.47 322.22,-19.02 331.85,-23.44 332.5,-16.47"/>
</g>
<!-- Node4 -->
<g id="node4" class="node">
<title>Node4</title>
<g id="a_node4"><a xlink:title=" ">
<polygon fill="white" stroke="#bfbfbf" points="340.5,-0.5 340.5,-19.5 444.5,-19.5 444.5,-0.5 340.5,-0.5"/>
<text text-anchor="middle" x="392.5" y="-7.5" font-family="Helvetica,sans-Serif" font-size="10.00">SolverAlgorithm.h</text>
</a>
</g>
</g>
<!-- Node1&#45;&gt;Node4 -->
<g id="edge3" class="edge">
<title>Node1&#45;&gt;Node4</title>
<path fill="none" stroke="midnightblue" d="M1280.47,-63.35C1112.09,-59.87 761.22,-49.57 454.67,-20.02"/>
<polygon fill="midnightblue" stroke="midnightblue" points="454.99,-16.53 444.7,-19.05 454.32,-23.5 454.99,-16.53"/>
</g>
<!-- Node5 -->
<g id="node5" class="node">
<title>Node5</title>
<g id="a_node5"><a xlink:title=" ">
<polygon fill="white" stroke="#bfbfbf" points="463,-0.5 463,-19.5 646,-19.5 646,-0.5 463,-0.5"/>
<text text-anchor="middle" x="554.5" y="-7.5" font-family="Helvetica,sans-Serif" font-size="10.00">master_element/MasterElement.h</text>
</a>
</g>
</g>
<!-- Node1&#45;&gt;Node5 -->
<g id="edge4" class="edge">
<title>Node1&#45;&gt;Node5</title>
<path fill="none" stroke="midnightblue" d="M1280.46,-59.64C1142.61,-52.07 886.2,-37.3 656.38,-20.05"/>
<polygon fill="midnightblue" stroke="midnightblue" points="656.38,-16.54 646.15,-19.28 655.86,-23.52 656.38,-16.54"/>
</g>
<!-- Node6 -->
<g id="node6" class="node">
<title>Node6</title>
<g id="a_node6"><a xlink:title=" ">
<polygon fill="white" stroke="#bfbfbf" points="664.5,-0.5 664.5,-19.5 752.5,-19.5 752.5,-0.5 664.5,-0.5"/>
<text text-anchor="middle" x="708.5" y="-7.5" font-family="Helvetica,sans-Serif" font-size="10.00">FieldTypeDef.h</text>
</a>
</g>
</g>
<!-- Node1&#45;&gt;Node6 -->
<g id="edge5" class="edge">
<title>Node1&#45;&gt;Node6</title>
<path fill="none" stroke="midnightblue" d="M1280.24,-60.66C1159.74,-54.79 951.24,-42.49 762.8,-20.05"/>
<polygon fill="midnightblue" stroke="midnightblue" points="763.05,-16.55 752.7,-18.83 762.21,-23.5 763.05,-16.55"/>
</g>
<!-- Node7 -->
<g id="node7" class="node">
<title>Node7</title>
<g id="a_node7"><a xlink:title=" ">
<polygon fill="white" stroke="#bfbfbf" points="770.5,-0.5 770.5,-19.5 862.5,-19.5 862.5,-0.5 770.5,-0.5"/>
<text text-anchor="middle" x="816.5" y="-7.5" font-family="Helvetica,sans-Serif" font-size="10.00">LinearSystem.h</text>
</a>
</g>
</g>
<!-- Node1&#45;&gt;Node7 -->
<g id="edge6" class="edge">
<title>Node1&#45;&gt;Node7</title>
<path fill="none" stroke="midnightblue" d="M1280.3,-58.34C1179.79,-51.16 1020.35,-38.4 872.83,-20.08"/>
<polygon fill="midnightblue" stroke="midnightblue" points="873.04,-16.58 862.68,-18.81 872.16,-23.53 873.04,-16.58"/>
</g>
<!-- Node8 -->
<g id="node8" class="node">
<title>Node8</title>
<g id="a_node8"><a xlink:title=" ">
<polygon fill="white" stroke="#bfbfbf" points="881,-0.5 881,-19.5 938,-19.5 938,-0.5 881,-0.5"/>
<text text-anchor="middle" x="909.5" y="-7.5" font-family="Helvetica,sans-Serif" font-size="10.00">Realm.h</text>
</a>
</g>
</g>
<!-- Node1&#45;&gt;Node8 -->
<g id="edge7" class="edge">
<title>Node1&#45;&gt;Node8</title>
<path fill="none" stroke="midnightblue" d="M1280.43,-58.49C1194.54,-52 1067.33,-40.28 948.14,-20.09"/>
<polygon fill="midnightblue" stroke="midnightblue" points="948.55,-16.61 938.1,-18.36 947.37,-23.51 948.55,-16.61"/>
</g>
<!-- Node9 -->
<g id="node9" class="node">
<title>Node9</title>
<g id="a_node9"><a xlink:title=" ">
<polygon fill="white" stroke="#bfbfbf" points="956,-0.5 956,-19.5 1059,-19.5 1059,-0.5 956,-0.5"/>
<text text-anchor="middle" x="1007.5" y="-7.5" font-family="Helvetica,sans-Serif" font-size="10.00">SolutionOptions.h</text>
</a>
</g>
</g>
<!-- Node1&#45;&gt;Node9 -->
<g id="edge8" class="edge">
<title>Node1&#45;&gt;Node9</title>
<path fill="none" stroke="midnightblue" d="M1320.97,-56.47C1260.33,-47.77 1163.28,-33.81 1069.07,-20.08"/>
<polygon fill="midnightblue" stroke="midnightblue" points="1069.48,-16.6 1059.08,-18.62 1068.47,-23.53 1069.48,-16.6"/>
</g>
<!-- Node10 -->
<g id="node10" class="node">
<title>Node10</title>
<g id="a_node10"><a xlink:title=" ">
<polygon fill="white" stroke="#bfbfbf" points="1077.5,-0.5 1077.5,-19.5 1175.5,-19.5 1175.5,-0.5 1077.5,-0.5"/>
<text text-anchor="middle" x="1126.5" y="-7.5" font-family="Helvetica,sans-Serif" font-size="10.00">TimeIntegrator.h</text>
</a>
</g>
</g>
<!-- Node1&#45;&gt;Node10 -->
<g id="edge9" class="edge">
<title>Node1&#45;&gt;Node10</title>
<path fill="none" stroke="midnightblue" d="M1340.25,-56.44C1295.85,-47 1224.35,-31.8 1176.41,-21.61"/>
<polygon fill="midnightblue" stroke="midnightblue" points="1177.07,-18.17 1166.56,-19.52 1175.61,-25.02 1177.07,-18.17"/>
</g>
<!-- Node11 -->
<g id="node11" class="node">
<title>Node11</title>
<g id="a_node11"><a xlink:title=" ">
<polygon fill="white" stroke="#bfbfbf" points="1194,-0.5 1194,-19.5 1283,-19.5 1283,-0.5 1194,-0.5"/>
<text text-anchor="middle" x="1238.5" y="-7.5" font-family="Helvetica,sans-Serif" font-size="10.00">kernel/Kernel.h</text>
</a>
</g>
</g>
<!-- Node1&#45;&gt;Node11 -->
<g id="edge10" class="edge">
<title>Node1&#45;&gt;Node11</title>
<path fill="none" stroke="midnightblue" d="M1358,-56.44C1334.42,-47.48 1297.18,-33.31 1270.54,-23.18"/>
<polygon fill="midnightblue" stroke="midnightblue" points="1271.49,-19.8 1260.9,-19.52 1269,-26.34 1271.49,-19.8"/>
</g>
<!-- Node12 -->
<g id="node12" class="node">
<title>Node12</title>
<g id="a_node12"><a xlink:title=" ">
<polygon fill="white" stroke="#bfbfbf" points="1301,-0.5 1301,-19.5 1460,-19.5 1460,-0.5 1301,-0.5"/>
<text text-anchor="middle" x="1380.5" y="-7.5" font-family="Helvetica,sans-Serif" font-size="10.00">stk_mesh/base/BulkData.hpp</text>
</a>
</g>
</g>
<!-- Node1&#45;&gt;Node12 -->
<g id="edge11" class="edge">
<title>Node1&#45;&gt;Node12</title>
<path fill="none" stroke="midnightblue" d="M1380.5,-56.08C1380.5,-49.01 1380.5,-38.86 1380.5,-29.99"/>
<polygon fill="midnightblue" stroke="midnightblue" points="1384,-29.75 1380.5,-19.75 1377,-29.75 1384,-29.75"/>
</g>
<!-- Node13 -->
<g id="node13" class="node">
<title>Node13</title>
<g id="a_node13"><a xlink:title=" ">
<polygon fill="white" stroke="#bfbfbf" points="1478,-0.5 1478,-19.5 1615,-19.5 1615,-0.5 1478,-0.5"/>
<text text-anchor="middle" x="1546.5" y="-7.5" font-family="Helvetica,sans-Serif" font-size="10.00">stk_mesh/base/Field.hpp</text>
</a>
</g>
</g>
<!-- Node1&#45;&gt;Node13 -->
<g id="edge12" class="edge">
<title>Node1&#45;&gt;Node13</title>
<path fill="none" stroke="midnightblue" d="M1406.8,-56.44C1434.85,-47.32 1479.44,-32.81 1510.68,-22.65"/>
<polygon fill="midnightblue" stroke="midnightblue" points="1511.89,-25.94 1520.32,-19.52 1509.73,-19.28 1511.89,-25.94"/>
</g>
<!-- Node14 -->
<g id="node14" class="node">
<title>Node14</title>
<g id="a_node14"><a xlink:title=" ">
<polygon fill="white" stroke="#bfbfbf" points="1633.5,-0.5 1633.5,-19.5 1803.5,-19.5 1803.5,-0.5 1633.5,-0.5"/>
<text text-anchor="middle" x="1718.5" y="-7.5" font-family="Helvetica,sans-Serif" font-size="10.00">stk_mesh/base/GetBuckets.hpp</text>
</a>
</g>
</g>
<!-- Node1&#45;&gt;Node14 -->
<g id="edge13" class="edge">
<title>Node1&#45;&gt;Node14</title>
<path fill="none" stroke="midnightblue" d="M1434.06,-56.44C1494.13,-46.85 1591.49,-31.29 1655.26,-21.1"/>
<polygon fill="midnightblue" stroke="midnightblue" points="1655.87,-24.55 1665.19,-19.52 1654.77,-17.64 1655.87,-24.55"/>
</g>
<!-- Node15 -->
<g id="node15" class="node">
<title>Node15</title>
<g id="a_node15"><a xlink:title=" ">
<polygon fill="white" stroke="#bfbfbf" points="1821.5,-0.5 1821.5,-19.5 1989.5,-19.5 1989.5,-0.5 1821.5,-0.5"/>
<text text-anchor="middle" x="1905.5" y="-7.5" font-family="Helvetica,sans-Serif" font-size="10.00">stk_mesh/base/GetEntities.hpp</text>
</a>
</g>
</g>
<!-- Node1&#45;&gt;Node15 -->
<g id="edge14" class="edge">
<title>Node1&#45;&gt;Node15</title>
<path fill="none" stroke="midnightblue" d="M1463.4,-56.47C1558.38,-46.7 1713.63,-30.74 1812.61,-20.55"/>
<polygon fill="midnightblue" stroke="midnightblue" points="1813.01,-24.03 1822.6,-19.53 1812.3,-17.07 1813.01,-24.03"/>
</g>
<!-- Node16 -->
<g id="node16" class="node">
<title>Node16</title>
<g id="a_node16"><a xlink:title=" ">
<polygon fill="white" stroke="#bfbfbf" points="2007.5,-0.5 2007.5,-19.5 2169.5,-19.5 2169.5,-0.5 2007.5,-0.5"/>
<text text-anchor="middle" x="2088.5" y="-7.5" font-family="Helvetica,sans-Serif" font-size="10.00">stk_mesh/base/MetaData.hpp</text>
</a>
</g>
</g>
<!-- Node1&#45;&gt;Node16 -->
<g id="edge15" class="edge">
<title>Node1&#45;&gt;Node16</title>
<path fill="none" stroke="midnightblue" d="M1480.65,-58.54C1600.78,-50.6 1808.57,-36.28 1996.98,-20.11"/>
<polygon fill="midnightblue" stroke="midnightblue" points="1997.41,-23.59 2007.07,-19.24 1996.81,-16.61 1997.41,-23.59"/>
</g>
<!-- Node17 -->
<g id="node17" class="node">
<title>Node17</title>
<g id="a_node17"><a xlink:title=" ">
<polygon fill="white" stroke="#bfbfbf" points="2188,-0.5 2188,-19.5 2321,-19.5 2321,-0.5 2188,-0.5"/>
<text text-anchor="middle" x="2254.5" y="-7.5" font-family="Helvetica,sans-Serif" font-size="10.00">stk_mesh/base/Part.hpp</text>
</a>
</g>
</g>
<!-- Node1&#45;&gt;Node17 -->
<g id="edge16" class="edge">
<title>Node1&#45;&gt;Node17</title>
<path fill="none" stroke="midnightblue" d="M1480.79,-61.33C1630.17,-55.41 1920.17,-42.23 2177.5,-20.03"/>
<polygon fill="midnightblue" stroke="midnightblue" points="2178.14,-23.49 2187.8,-19.13 2177.53,-16.51 2178.14,-23.49"/>
</g>
<!-- Node18 -->
<g id="node18" class="node">
<title>Node18</title>
<g id="a_node18"><a xlink:title=" ">
<polygon fill="white" stroke="#bfbfbf" points="2339,-0.5 2339,-19.5 2484,-19.5 2484,-0.5 2339,-0.5"/>
<text text-anchor="middle" x="2411.5" y="-7.5" font-family="Helvetica,sans-Serif" font-size="10.00">stk_topology/topology.hpp</text>
</a>
</g>
</g>
<!-- Node1&#45;&gt;Node18 -->
<g id="edge17" class="edge">
<title>Node1&#45;&gt;Node18</title>
<path fill="none" stroke="midnightblue" d="M1480.82,-62.34C1652.39,-57.32 2013.39,-44.75 2328.42,-20.12"/>
<polygon fill="midnightblue" stroke="midnightblue" points="2328.97,-23.59 2338.66,-19.31 2328.42,-16.61 2328.97,-23.59"/>
</g>
<!-- Node19 -->
<g id="node19" class="node">
<title>Node19</title>
<g id="a_node19"><a xlink:title=" ">
<polygon fill="white" stroke="#bfbfbf" points="2502.5,-0.5 2502.5,-19.5 2606.5,-19.5 2606.5,-0.5 2502.5,-0.5"/>
<text text-anchor="middle" x="2554.5" y="-7.5" font-family="Helvetica,sans-Serif" font-size="10.00">KokkosInterface.h</text>
</a>
</g>
</g>
<!-- Node1&#45;&gt;Node19 -->
<g id="edge18" class="edge">
<title>Node1&#45;&gt;Node19</title>
<path fill="none" stroke="midnightblue" d="M1480.51,-64.51C1673.98,-62.77 2113.12,-55.05 2492.23,-20.01"/>
<polygon fill="midnightblue" stroke="midnightblue" points="2492.67,-23.49 2502.3,-19.07 2492.02,-16.52 2492.67,-23.49"/>
</g>
<!-- Node20 -->
<g id="node20" class="node">
<title>Node20</title>
<g id="a_node20"><a xlink:title=" ">
<polygon fill="white" stroke="#bfbfbf" points="2624.5,-0.5 2624.5,-19.5 2718.5,-19.5 2718.5,-0.5 2624.5,-0.5"/>
<text text-anchor="middle" x="2671.5" y="-7.5" font-family="Helvetica,sans-Serif" font-size="10.00">SimdInterface.h</text>
</a>
</g>
</g>
<!-- Node1&#45;&gt;Node20 -->
<g id="edge19" class="edge">
<title>Node1&#45;&gt;Node20</title>
<path fill="none" stroke="midnightblue" d="M1480.83,-65.51C1689.9,-65.68 2187.54,-61.32 2614.13,-20"/>
<polygon fill="midnightblue" stroke="midnightblue" points="2614.58,-23.48 2624.2,-19.02 2613.9,-16.51 2614.58,-23.48"/>
</g>
<!-- Node21 -->
<g id="node21" class="node">
<title>Node21</title>
<g id="a_node21"><a xlink:title=" ">
<polygon fill="white" stroke="#bfbfbf" points="2737,-0.5 2737,-19.5 2828,-19.5 2828,-0.5 2737,-0.5"/>
<text text-anchor="middle" x="2782.5" y="-7.5" font-family="Helvetica,sans-Serif" font-size="10.00">ScratchViews.h</text>
</a>
</g>
</g>
<!-- Node1&#45;&gt;Node21 -->
<g id="edge20" class="edge">
<title>Node1&#45;&gt;Node21</title>
<path fill="none" stroke="midnightblue" d="M1480.72,-63.33C1746.56,-58.63 2466.44,-44.11 2726.76,-19.89"/>
<polygon fill="midnightblue" stroke="midnightblue" points="2727.32,-23.36 2736.94,-18.92 2726.65,-16.39 2727.32,-23.36"/>
</g>
<!-- Node22 -->
<g id="node22" class="node">
<title>Node22</title>
<g id="a_node22"><a xlink:title=" ">
<polygon fill="white" stroke="#bfbfbf" points="2846,-0.5 2846,-19.5 2965,-19.5 2965,-0.5 2846,-0.5"/>
<text text-anchor="middle" x="2905.5" y="-7.5" font-family="Helvetica,sans-Serif" font-size="10.00">CopyAndInterleave.h</text>
</a>
</g>
</g>
<!-- Node1&#45;&gt;Node22 -->
<g id="edge21" class="edge">
<title>Node1&#45;&gt;Node22</title>
<path fill="none" stroke="midnightblue" d="M1480.5,-65.38C1715.35,-65.51 2320.56,-61.48 2835.59,-20.07"/>
<polygon fill="midnightblue" stroke="midnightblue" points="2836.15,-23.54 2845.83,-19.24 2835.58,-16.56 2836.15,-23.54"/>
</g>
</g>
</svg>
