<?xml version="1.0" encoding="UTF-8" standalone="no"?>
<!DOCTYPE svg PUBLIC "-//W3C//DTD SVG 1.1//EN"
 "http://www.w3.org/Graphics/SVG/1.1/DTD/svg11.dtd">
<!-- Generated by graphviz version 2.43.0 (0)
 -->
<!-- Title: AssembleElemSolverAlgorithm.C Pages: 1 -->
<svg width="2944pt" height="84pt"
 viewBox="0.00 0.00 2944.00 84.00" xmlns="http://www.w3.org/2000/svg" xmlns:xlink="http://www.w3.org/1999/xlink">
<g id="graph0" class="graph" transform="scale(1 1) rotate(0) translate(4 80)">
<title>AssembleElemSolverAlgorithm.C</title>
<polygon fill="white" stroke="transparent" points="-4,4 -4,-80 2940,-80 2940,4 -4,4"/>
<!-- Node1 -->
<g id="node1" class="node">
<title>Node1</title>
<g id="a_node1"><a xlink:title=" ">
<polygon fill="#bfbfbf" stroke="black" points="1233.5,-56.5 1233.5,-75.5 1411.5,-75.5 1411.5,-56.5 1233.5,-56.5"/>
<text text-anchor="middle" x="1322.5" y="-63.5" font-family="Helvetica,sans-Serif" font-size="10.00">AssembleElemSolverAlgorithm.C</text>
</a>
</g>
</g>
<!-- Node2 -->
<g id="node2" class="node">
<title>Node2</title>
<g id="a_node2"><a xlink:title=" ">
<polygon fill="white" stroke="#bfbfbf" points="0,-0.5 0,-19.5 177,-19.5 177,-0.5 0,-0.5"/>
<text text-anchor="middle" x="88.5" y="-7.5" font-family="Helvetica,sans-Serif" font-size="10.00">AssembleElemSolverAlgorithm.h</text>
</a>
</g>
</g>
<!-- Node1&#45;&gt;Node2 -->
<g id="edge1" class="edge">
<title>Node1&#45;&gt;Node2</title>
<path fill="none" stroke="midnightblue" d="M1233.23,-63.07C1042.97,-58.62 583.25,-46 187.26,-20.08"/>
<polygon fill="midnightblue" stroke="midnightblue" points="187.24,-16.57 177.03,-19.41 186.78,-23.56 187.24,-16.57"/>
</g>
<!-- Node3 -->
<g id="node3" class="node">
<title>Node3</title>
<g id="a_node3"><a xlink:title=" ">
<polygon fill="white" stroke="#bfbfbf" points="195,-0.5 195,-19.5 300,-19.5 300,-0.5 195,-0.5"/>
<text text-anchor="middle" x="247.5" y="-7.5" font-family="Helvetica,sans-Serif" font-size="10.00">EquationSystem.h</text>
</a>
</g>
</g>
<!-- Node1&#45;&gt;Node3 -->
<g id="edge2" class="edge">
<title>Node1&#45;&gt;Node3</title>
<path fill="none" stroke="midnightblue" d="M1233.2,-64.02C1058.14,-61.45 657.45,-52.35 310.22,-19.96"/>
<polygon fill="midnightblue" stroke="midnightblue" points="310.51,-16.47 300.22,-19.02 309.85,-23.44 310.51,-16.47"/>
</g>
<!-- Node4 -->
<g id="node4" class="node">
<title>Node4</title>
<g id="a_node4"><a xlink:title=" ">
<polygon fill="white" stroke="#bfbfbf" points="318.5,-0.5 318.5,-19.5 422.5,-19.5 422.5,-0.5 318.5,-0.5"/>
<text text-anchor="middle" x="370.5" y="-7.5" font-family="Helvetica,sans-Serif" font-size="10.00">SolverAlgorithm.h</text>
</a>
</g>
</g>
<!-- Node1&#45;&gt;Node4 -->
<g id="edge3" class="edge">
<title>Node1&#45;&gt;Node4</title>
<path fill="none" stroke="midnightblue" d="M1233.45,-63.33C1074.65,-59.73 731.97,-49.15 432.88,-20.04"/>
<polygon fill="midnightblue" stroke="midnightblue" points="433,-16.53 422.7,-19.04 432.31,-23.5 433,-16.53"/>
</g>
<!-- Node5 -->
<g id="node5" class="node">
<title>Node5</title>
<g id="a_node5"><a xlink:title=" ">
<polygon fill="white" stroke="#bfbfbf" points="441,-0.5 441,-19.5 624,-19.5 624,-0.5 441,-0.5"/>
<text text-anchor="middle" x="532.5" y="-7.5" font-family="Helvetica,sans-Serif" font-size="10.00">master_element/MasterElement.h</text>
</a>
</g>
</g>
<!-- Node1&#45;&gt;Node5 -->
<g id="edge4" class="edge">
<title>Node1&#45;&gt;Node5</title>
<path fill="none" stroke="midnightblue" d="M1233.26,-59.85C1103.85,-52.23 856.27,-37.08 634.36,-20.05"/>
<polygon fill="midnightblue" stroke="midnightblue" points="634.39,-16.54 624.15,-19.26 633.85,-23.52 634.39,-16.54"/>
</g>
<!-- Node6 -->
<g id="node6" class="node">
<title>Node6</title>
<g id="a_node6"><a xlink:title=" ">
<polygon fill="white" stroke="#bfbfbf" points="642.5,-0.5 642.5,-19.5 730.5,-19.5 730.5,-0.5 642.5,-0.5"/>
<text text-anchor="middle" x="686.5" y="-7.5" font-family="Helvetica,sans-Serif" font-size="10.00">FieldTypeDef.h</text>
</a>
</g>
</g>
<!-- Node1&#45;&gt;Node6 -->
<g id="edge5" class="edge">
<title>Node1&#45;&gt;Node6</title>
<path fill="none" stroke="midnightblue" d="M1233.36,-60.65C1120.84,-54.59 921.18,-41.95 740.65,-20.03"/>
<polygon fill="midnightblue" stroke="midnightblue" points="741.05,-16.56 730.7,-18.82 740.2,-23.51 741.05,-16.56"/>
</g>
<!-- Node7 -->
<g id="node7" class="node">
<title>Node7</title>
<g id="a_node7"><a xlink:title=" ">
<polygon fill="white" stroke="#bfbfbf" points="748.5,-0.5 748.5,-19.5 840.5,-19.5 840.5,-0.5 748.5,-0.5"/>
<text text-anchor="middle" x="794.5" y="-7.5" font-family="Helvetica,sans-Serif" font-size="10.00">LinearSystem.h</text>
</a>
</g>
</g>
<!-- Node1&#45;&gt;Node7 -->
<g id="edge6" class="edge">
<title>Node1&#45;&gt;Node7</title>
<path fill="none" stroke="midnightblue" d="M1233.38,-58.32C1140.38,-50.94 990.09,-37.86 850.7,-20.08"/>
<polygon fill="midnightblue" stroke="midnightblue" points="851.05,-16.59 840.68,-18.79 850.15,-23.54 851.05,-16.59"/>
</g>
<!-- Node8 -->
<g id="node8" class="node">
<title>Node8</title>
<g id="a_node8"><a xlink:title=" ">
<polygon fill="white" stroke="#bfbfbf" points="859,-0.5 859,-19.5 916,-19.5 916,-0.5 859,-0.5"/>
<text text-anchor="middle" x="887.5" y="-7.5" font-family="Helvetica,sans-Serif" font-size="10.00">Realm.h</text>
</a>
</g>
</g>
<!-- Node1&#45;&gt;Node8 -->
<g id="edge7" class="edge">
<title>Node1&#45;&gt;Node8</title>
<path fill="none" stroke="midnightblue" d="M1233.12,-58.14C1154.52,-51.36 1036.91,-39.4 926.12,-20.1"/>
<polygon fill="midnightblue" stroke="midnightblue" points="926.56,-16.63 916.11,-18.34 925.35,-23.52 926.56,-16.63"/>
</g>
<!-- Node9 -->
<g id="node9" class="node">
<title>Node9</title>
<g id="a_node9"><a xlink:title=" ">
<polygon fill="white" stroke="#bfbfbf" points="934,-0.5 934,-19.5 1037,-19.5 1037,-0.5 934,-0.5"/>
<text text-anchor="middle" x="985.5" y="-7.5" font-family="Helvetica,sans-Serif" font-size="10.00">SolutionOptions.h</text>
</a>
</g>
</g>
<!-- Node1&#45;&gt;Node9 -->
<g id="edge8" class="edge">
<title>Node1&#45;&gt;Node9</title>
<path fill="none" stroke="midnightblue" d="M1269.1,-56.44C1208.76,-46.78 1110.71,-31.06 1047.16,-20.88"/>
<polygon fill="midnightblue" stroke="midnightblue" points="1047.69,-17.42 1037.27,-19.29 1046.59,-24.33 1047.69,-17.42"/>
</g>
<!-- Node10 -->
<g id="node10" class="node">
<title>Node10</title>
<g id="a_node10"><a xlink:title=" ">
<polygon fill="white" stroke="#bfbfbf" points="1055.5,-0.5 1055.5,-19.5 1153.5,-19.5 1153.5,-0.5 1055.5,-0.5"/>
<text text-anchor="middle" x="1104.5" y="-7.5" font-family="Helvetica,sans-Serif" font-size="10.00">TimeIntegrator.h</text>
</a>
</g>
</g>
<!-- Node1&#45;&gt;Node10 -->
<g id="edge9" class="edge">
<title>Node1&#45;&gt;Node10</title>
<path fill="none" stroke="midnightblue" d="M1287.96,-56.44C1250.25,-47.1 1189.76,-32.12 1148.64,-21.93"/>
<polygon fill="midnightblue" stroke="midnightblue" points="1149.43,-18.52 1138.88,-19.52 1147.75,-25.32 1149.43,-18.52"/>
</g>
<!-- Node11 -->
<g id="node11" class="node">
<title>Node11</title>
<g id="a_node11"><a xlink:title=" ">
<polygon fill="white" stroke="#bfbfbf" points="1172,-0.5 1172,-19.5 1261,-19.5 1261,-0.5 1172,-0.5"/>
<text text-anchor="middle" x="1216.5" y="-7.5" font-family="Helvetica,sans-Serif" font-size="10.00">kernel/Kernel.h</text>
</a>
</g>
</g>
<!-- Node1&#45;&gt;Node11 -->
<g id="edge10" class="edge">
<title>Node1&#45;&gt;Node11</title>
<path fill="none" stroke="midnightblue" d="M1305.47,-56.32C1288.47,-47.66 1262.12,-34.24 1242.51,-24.25"/>
<polygon fill="midnightblue" stroke="midnightblue" points="1243.99,-21.08 1233.49,-19.65 1240.81,-27.31 1243.99,-21.08"/>
</g>
<!-- Node12 -->
<g id="node12" class="node">
<title>Node12</title>
<g id="a_node12"><a xlink:title=" ">
<polygon fill="white" stroke="#bfbfbf" points="1278.5,-0.5 1278.5,-19.5 1366.5,-19.5 1366.5,-0.5 1278.5,-0.5"/>
<text text-anchor="middle" x="1322.5" y="-7.5" font-family="Helvetica,sans-Serif" font-size="10.00">NGPInstance.h</text>
</a>
</g>
</g>
<!-- Node1&#45;&gt;Node12 -->
<g id="edge11" class="edge">
<title>Node1&#45;&gt;Node12</title>
<path fill="none" stroke="midnightblue" d="M1322.5,-56.08C1322.5,-49.01 1322.5,-38.86 1322.5,-29.99"/>
<polygon fill="midnightblue" stroke="midnightblue" points="1326,-29.75 1322.5,-19.75 1319,-29.75 1326,-29.75"/>
</g>
<!-- Node13 -->
<g id="node13" class="node">
<title>Node13</title>
<g id="a_node13"><a xlink:title=" ">
<polygon fill="white" stroke="#bfbfbf" points="1384,-0.5 1384,-19.5 1543,-19.5 1543,-0.5 1384,-0.5"/>
<text text-anchor="middle" x="1463.5" y="-7.5" font-family="Helvetica,sans-Serif" font-size="10.00">stk_mesh/base/BulkData.hpp</text>
</a>
</g>
</g>
<!-- Node1&#45;&gt;Node13 -->
<g id="edge12" class="edge">
<title>Node1&#45;&gt;Node13</title>
<path fill="none" stroke="midnightblue" d="M1344.84,-56.44C1368.25,-47.48 1405.24,-33.31 1431.69,-23.18"/>
<polygon fill="midnightblue" stroke="midnightblue" points="1433.18,-26.36 1441.26,-19.52 1430.67,-19.82 1433.18,-26.36"/>
</g>
<!-- Node14 -->
<g id="node14" class="node">
<title>Node14</title>
<g id="a_node14"><a xlink:title=" ">
<polygon fill="white" stroke="#bfbfbf" points="1561,-0.5 1561,-19.5 1698,-19.5 1698,-0.5 1561,-0.5"/>
<text text-anchor="middle" x="1629.5" y="-7.5" font-family="Helvetica,sans-Serif" font-size="10.00">stk_mesh/base/Field.hpp</text>
</a>
</g>
</g>
<!-- Node1&#45;&gt;Node14 -->
<g id="edge13" class="edge">
<title>Node1&#45;&gt;Node14</title>
<path fill="none" stroke="midnightblue" d="M1371.15,-56.44C1425.37,-46.9 1513.05,-31.48 1570.98,-21.29"/>
<polygon fill="midnightblue" stroke="midnightblue" points="1571.84,-24.7 1581.08,-19.52 1570.63,-17.8 1571.84,-24.7"/>
</g>
<!-- Node15 -->
<g id="node15" class="node">
<title>Node15</title>
<g id="a_node15"><a xlink:title=" ">
<polygon fill="white" stroke="#bfbfbf" points="1716.5,-0.5 1716.5,-19.5 1886.5,-19.5 1886.5,-0.5 1716.5,-0.5"/>
<text text-anchor="middle" x="1801.5" y="-7.5" font-family="Helvetica,sans-Serif" font-size="10.00">stk_mesh/base/GetBuckets.hpp</text>
</a>
</g>
</g>
<!-- Node1&#45;&gt;Node15 -->
<g id="edge14" class="edge">
<title>Node1&#45;&gt;Node15</title>
<path fill="none" stroke="midnightblue" d="M1398.13,-56.47C1484.53,-46.73 1625.58,-30.83 1715.93,-20.65"/>
<polygon fill="midnightblue" stroke="midnightblue" points="1716.32,-24.12 1725.87,-19.53 1715.54,-17.17 1716.32,-24.12"/>
</g>
<!-- Node16 -->
<g id="node16" class="node">
<title>Node16</title>
<g id="a_node16"><a xlink:title=" ">
<polygon fill="white" stroke="#bfbfbf" points="1904.5,-0.5 1904.5,-19.5 2072.5,-19.5 2072.5,-0.5 1904.5,-0.5"/>
<text text-anchor="middle" x="1988.5" y="-7.5" font-family="Helvetica,sans-Serif" font-size="10.00">stk_mesh/base/GetEntities.hpp</text>
</a>
</g>
</g>
<!-- Node1&#45;&gt;Node16 -->
<g id="edge15" class="edge">
<title>Node1&#45;&gt;Node16</title>
<path fill="none" stroke="midnightblue" d="M1411.87,-58.48C1522.54,-50.3 1717.14,-35.55 1894.33,-20.09"/>
<polygon fill="midnightblue" stroke="midnightblue" points="1894.7,-23.57 1904.36,-19.21 1894.09,-16.6 1894.7,-23.57"/>
</g>
<!-- Node17 -->
<g id="node17" class="node">
<title>Node17</title>
<g id="a_node17"><a xlink:title=" ">
<polygon fill="white" stroke="#bfbfbf" points="2090.5,-0.5 2090.5,-19.5 2252.5,-19.5 2252.5,-0.5 2090.5,-0.5"/>
<text text-anchor="middle" x="2171.5" y="-7.5" font-family="Helvetica,sans-Serif" font-size="10.00">stk_mesh/base/MetaData.hpp</text>
</a>
</g>
</g>
<!-- Node1&#45;&gt;Node17 -->
<g id="edge16" class="edge">
<title>Node1&#45;&gt;Node17</title>
<path fill="none" stroke="midnightblue" d="M1411.68,-60.88C1551.66,-54.16 1831.75,-39.67 2079.78,-20.11"/>
<polygon fill="midnightblue" stroke="midnightblue" points="2080.39,-23.57 2090.08,-19.29 2079.83,-16.59 2080.39,-23.57"/>
</g>
<!-- Node18 -->
<g id="node18" class="node">
<title>Node18</title>
<g id="a_node18"><a xlink:title=" ">
<polygon fill="white" stroke="#bfbfbf" points="2271,-0.5 2271,-19.5 2404,-19.5 2404,-0.5 2271,-0.5"/>
<text text-anchor="middle" x="2337.5" y="-7.5" font-family="Helvetica,sans-Serif" font-size="10.00">stk_mesh/base/Part.hpp</text>
</a>
</g>
</g>
<!-- Node1&#45;&gt;Node18 -->
<g id="edge17" class="edge">
<title>Node1&#45;&gt;Node18</title>
<path fill="none" stroke="midnightblue" d="M1411.64,-62.81C1576.83,-58.28 1941.87,-46.15 2260.44,-20.02"/>
<polygon fill="midnightblue" stroke="midnightblue" points="2261.12,-23.48 2270.8,-19.17 2260.54,-16.5 2261.12,-23.48"/>
</g>
<!-- Node19 -->
<g id="node19" class="node">
<title>Node19</title>
<g id="a_node19"><a xlink:title=" ">
<polygon fill="white" stroke="#bfbfbf" points="2422,-0.5 2422,-19.5 2567,-19.5 2567,-0.5 2422,-0.5"/>
<text text-anchor="middle" x="2494.5" y="-7.5" font-family="Helvetica,sans-Serif" font-size="10.00">stk_topology/topology.hpp</text>
</a>
</g>
</g>
<!-- Node1&#45;&gt;Node19 -->
<g id="edge18" class="edge">
<title>Node1&#45;&gt;Node19</title>
<path fill="none" stroke="midnightblue" d="M1411.72,-63.42C1596.41,-59.68 2034.28,-48.46 2411.64,-20.09"/>
<polygon fill="midnightblue" stroke="midnightblue" points="2411.96,-23.58 2421.66,-19.33 2411.43,-16.6 2411.96,-23.58"/>
</g>
<!-- Node20 -->
<g id="node20" class="node">
<title>Node20</title>
<g id="a_node20"><a xlink:title=" ">
<polygon fill="white" stroke="#bfbfbf" points="2585.5,-0.5 2585.5,-19.5 2689.5,-19.5 2689.5,-0.5 2585.5,-0.5"/>
<text text-anchor="middle" x="2637.5" y="-7.5" font-family="Helvetica,sans-Serif" font-size="10.00">KokkosInterface.h</text>
</a>
</g>
</g>
<!-- Node1&#45;&gt;Node20 -->
<g id="edge19" class="edge">
<title>Node1&#45;&gt;Node20</title>
<path fill="none" stroke="midnightblue" d="M1411.66,-65.18C1615.83,-64.86 2133.08,-59.9 2575.2,-20.01"/>
<polygon fill="midnightblue" stroke="midnightblue" points="2575.66,-23.48 2585.3,-19.09 2575.03,-16.51 2575.66,-23.48"/>
</g>
<!-- Node21 -->
<g id="node21" class="node">
<title>Node21</title>
<g id="a_node21"><a xlink:title=" ">
<polygon fill="white" stroke="#bfbfbf" points="2708,-0.5 2708,-19.5 2799,-19.5 2799,-0.5 2708,-0.5"/>
<text text-anchor="middle" x="2753.5" y="-7.5" font-family="Helvetica,sans-Serif" font-size="10.00">ScratchViews.h</text>
</a>
</g>
</g>
<!-- Node1&#45;&gt;Node21 -->
<g id="edge20" class="edge">
<title>Node1&#45;&gt;Node21</title>
<path fill="none" stroke="midnightblue" d="M1411.84,-63.59C1672.16,-59.25 2428.01,-44.9 2697.78,-19.89"/>
<polygon fill="midnightblue" stroke="midnightblue" points="2698.32,-23.36 2707.94,-18.92 2697.65,-16.39 2698.32,-23.36"/>
</g>
<!-- Node22 -->
<g id="node22" class="node">
<title>Node22</title>
<g id="a_node22"><a xlink:title=" ">
<polygon fill="white" stroke="#bfbfbf" points="2817,-0.5 2817,-19.5 2936,-19.5 2936,-0.5 2817,-0.5"/>
<text text-anchor="middle" x="2876.5" y="-7.5" font-family="Helvetica,sans-Serif" font-size="10.00">CopyAndInterleave.h</text>
</a>
</g>
</g>
<!-- Node1&#45;&gt;Node22 -->
<g id="edge21" class="edge">
<title>Node1&#45;&gt;Node22</title>
<path fill="none" stroke="midnightblue" d="M1411.87,-65.44C1641.68,-65.91 2272.08,-62.89 2806.6,-20.07"/>
<polygon fill="midnightblue" stroke="midnightblue" points="2807.15,-23.54 2816.83,-19.24 2806.58,-16.56 2807.15,-23.54"/>
</g>
</g>
</svg>
