<?xml version="1.0" encoding="UTF-8" standalone="no"?>
<!DOCTYPE svg PUBLIC "-//W3C//DTD SVG 1.1//EN"
 "http://www.w3.org/Graphics/SVG/1.1/DTD/svg11.dtd">
<!-- Generated by graphviz version 2.43.0 (0)
 -->
<!-- Title: AssembleMomentumNonConformalSolverAlgorithm.C Pages: 1 -->
<svg width="2240pt" height="106pt"
 viewBox="0.00 0.00 2240.00 106.00" xmlns="http://www.w3.org/2000/svg" xmlns:xlink="http://www.w3.org/1999/xlink">
<g id="graph0" class="graph" transform="scale(1 1) rotate(0) translate(4 102)">
<title>AssembleMomentumNonConformalSolverAlgorithm.C</title>
<polygon fill="white" stroke="transparent" points="-4,4 -4,-102 2236,-102 2236,4 -4,4"/>
<!-- Node1 -->
<g id="node1" class="node">
<title>Node1</title>
<g id="a_node1"><a xlink:title=" ">
<polygon fill="#bfbfbf" stroke="black" points="873,-67.5 873,-97.5 1064,-97.5 1064,-67.5 873,-67.5"/>
<text text-anchor="start" x="881" y="-85.5" font-family="Helvetica,sans-Serif" font-size="10.00">AssembleMomentumNonConformal</text>
<text text-anchor="middle" x="968.5" y="-74.5" font-family="Helvetica,sans-Serif" font-size="10.00">SolverAlgorithm.C</text>
</a>
</g>
</g>
<!-- Node2 -->
<g id="node2" class="node">
<title>Node2</title>
<g id="a_node2"><a xlink:title=" ">
<polygon fill="white" stroke="#bfbfbf" points="0,-0.5 0,-30.5 191,-30.5 191,-0.5 0,-0.5"/>
<text text-anchor="start" x="8" y="-18.5" font-family="Helvetica,sans-Serif" font-size="10.00">AssembleMomentumNonConformal</text>
<text text-anchor="middle" x="95.5" y="-7.5" font-family="Helvetica,sans-Serif" font-size="10.00">SolverAlgorithm.h</text>
</a>
</g>
</g>
<!-- Node1&#45;&gt;Node2 -->
<g id="edge1" class="edge">
<title>Node1&#45;&gt;Node2</title>
<path fill="none" stroke="midnightblue" d="M872.7,-77.46C729.03,-70.89 449.03,-56.17 201.51,-31.16"/>
<polygon fill="midnightblue" stroke="midnightblue" points="201.54,-27.65 191.24,-30.12 200.83,-34.61 201.54,-27.65"/>
</g>
<!-- Node3 -->
<g id="node3" class="node">
<title>Node3</title>
<g id="a_node3"><a xlink:title=" ">
<polygon fill="white" stroke="#bfbfbf" points="209,-6 209,-25 314,-25 314,-6 209,-6"/>
<text text-anchor="middle" x="261.5" y="-13" font-family="Helvetica,sans-Serif" font-size="10.00">EquationSystem.h</text>
</a>
</g>
</g>
<!-- Node1&#45;&gt;Node3 -->
<g id="edge2" class="edge">
<title>Node1&#45;&gt;Node3</title>
<path fill="none" stroke="midnightblue" d="M872.9,-78.54C746.51,-73.6 517.18,-61.05 323.5,-31 317.12,-30.01 310.42,-28.72 303.89,-27.31"/>
<polygon fill="midnightblue" stroke="midnightblue" points="304.34,-23.83 293.82,-25.04 302.8,-30.65 304.34,-23.83"/>
</g>
<!-- Node4 -->
<g id="node4" class="node">
<title>Node4</title>
<g id="a_node4"><a xlink:title=" ">
<polygon fill="white" stroke="#bfbfbf" points="332.5,-6 332.5,-25 390.5,-25 390.5,-6 332.5,-6"/>
<text text-anchor="middle" x="361.5" y="-13" font-family="Helvetica,sans-Serif" font-size="10.00">DgInfo.h</text>
</a>
</g>
</g>
<!-- Node1&#45;&gt;Node4 -->
<g id="edge3" class="edge">
<title>Node1&#45;&gt;Node4</title>
<path fill="none" stroke="midnightblue" d="M872.86,-81.01C758.77,-78.61 562.94,-68.67 399.5,-31 396.5,-30.31 393.42,-29.43 390.37,-28.45"/>
<polygon fill="midnightblue" stroke="midnightblue" points="391.5,-25.14 380.9,-25.08 389.15,-31.73 391.5,-25.14"/>
</g>
<!-- Node5 -->
<g id="node5" class="node">
<title>Node5</title>
<g id="a_node5"><a xlink:title=" ">
<polygon fill="white" stroke="#bfbfbf" points="408.5,-6 408.5,-25 496.5,-25 496.5,-6 408.5,-6"/>
<text text-anchor="middle" x="452.5" y="-13" font-family="Helvetica,sans-Serif" font-size="10.00">FieldTypeDef.h</text>
</a>
</g>
</g>
<!-- Node1&#45;&gt;Node5 -->
<g id="edge4" class="edge">
<title>Node1&#45;&gt;Node5</title>
<path fill="none" stroke="midnightblue" d="M872.97,-75.52C778.89,-68.59 631.41,-54.93 505.5,-31 500.47,-30.04 495.23,-28.85 490.08,-27.57"/>
<polygon fill="midnightblue" stroke="midnightblue" points="490.92,-24.17 480.36,-25.01 489.14,-30.94 490.92,-24.17"/>
</g>
<!-- Node6 -->
<g id="node6" class="node">
<title>Node6</title>
<g id="a_node6"><a xlink:title=" ">
<polygon fill="white" stroke="#bfbfbf" points="514.5,-6 514.5,-25 606.5,-25 606.5,-6 514.5,-6"/>
<text text-anchor="middle" x="560.5" y="-13" font-family="Helvetica,sans-Serif" font-size="10.00">LinearSystem.h</text>
</a>
</g>
</g>
<!-- Node1&#45;&gt;Node6 -->
<g id="edge5" class="edge">
<title>Node1&#45;&gt;Node6</title>
<path fill="none" stroke="midnightblue" d="M872.85,-70.85C801.54,-62.18 701.96,-48.52 615.5,-31 610.49,-29.98 605.25,-28.79 600.09,-27.52"/>
<polygon fill="midnightblue" stroke="midnightblue" points="600.88,-24.11 590.32,-25.03 599.15,-30.89 600.88,-24.11"/>
</g>
<!-- Node7 -->
<g id="node7" class="node">
<title>Node7</title>
<g id="a_node7"><a xlink:title=" ">
<polygon fill="white" stroke="#bfbfbf" points="625,-6 625,-25 690,-25 690,-6 625,-6"/>
<text text-anchor="middle" x="657.5" y="-13" font-family="Helvetica,sans-Serif" font-size="10.00">NaluEnv.h</text>
</a>
</g>
</g>
<!-- Node1&#45;&gt;Node7 -->
<g id="edge6" class="edge">
<title>Node1&#45;&gt;Node7</title>
<path fill="none" stroke="midnightblue" d="M873.67,-67.46C821.53,-58.82 755.95,-46.43 698.5,-31 695.53,-30.2 692.47,-29.29 689.43,-28.33"/>
<polygon fill="midnightblue" stroke="midnightblue" points="690.45,-24.98 679.86,-25.11 688.22,-31.61 690.45,-24.98"/>
</g>
<!-- Node8 -->
<g id="node8" class="node">
<title>Node8</title>
<g id="a_node8"><a xlink:title=" ">
<polygon fill="white" stroke="#bfbfbf" points="708,-6 708,-25 823,-25 823,-6 708,-6"/>
<text text-anchor="middle" x="765.5" y="-13" font-family="Helvetica,sans-Serif" font-size="10.00">NonConformalInfo.h</text>
</a>
</g>
</g>
<!-- Node1&#45;&gt;Node8 -->
<g id="edge7" class="edge">
<title>Node1&#45;&gt;Node8</title>
<path fill="none" stroke="midnightblue" d="M924.45,-67.4C887.73,-55.64 836.05,-39.09 801.7,-28.09"/>
<polygon fill="midnightblue" stroke="midnightblue" points="802.66,-24.72 792.07,-25.01 800.52,-31.39 802.66,-24.72"/>
</g>
<!-- Node9 -->
<g id="node9" class="node">
<title>Node9</title>
<g id="a_node9"><a xlink:title=" ">
<polygon fill="white" stroke="#bfbfbf" points="841.5,-6 841.5,-25 979.5,-25 979.5,-6 841.5,-6"/>
<text text-anchor="middle" x="910.5" y="-13" font-family="Helvetica,sans-Serif" font-size="10.00">NonConformalManager.h</text>
</a>
</g>
</g>
<!-- Node1&#45;&gt;Node9 -->
<g id="edge8" class="edge">
<title>Node1&#45;&gt;Node9</title>
<path fill="none" stroke="midnightblue" d="M955.91,-67.4C946.87,-57.26 934.65,-43.57 925.17,-32.94"/>
<polygon fill="midnightblue" stroke="midnightblue" points="927.53,-30.33 918.26,-25.19 922.3,-34.99 927.53,-30.33"/>
</g>
<!-- Node10 -->
<g id="node10" class="node">
<title>Node10</title>
<g id="a_node10"><a xlink:title=" ">
<polygon fill="white" stroke="#bfbfbf" points="998,-6 998,-25 1055,-25 1055,-6 998,-6"/>
<text text-anchor="middle" x="1026.5" y="-13" font-family="Helvetica,sans-Serif" font-size="10.00">Realm.h</text>
</a>
</g>
</g>
<!-- Node1&#45;&gt;Node10 -->
<g id="edge9" class="edge">
<title>Node1&#45;&gt;Node10</title>
<path fill="none" stroke="midnightblue" d="M981.09,-67.4C990.13,-57.26 1002.35,-43.57 1011.83,-32.94"/>
<polygon fill="midnightblue" stroke="midnightblue" points="1014.7,-34.99 1018.74,-25.19 1009.47,-30.33 1014.7,-34.99"/>
</g>
<!-- Node11 -->
<g id="node11" class="node">
<title>Node11</title>
<g id="a_node11"><a xlink:title=" ">
<polygon fill="white" stroke="#bfbfbf" points="1073,-6 1073,-25 1176,-25 1176,-6 1073,-6"/>
<text text-anchor="middle" x="1124.5" y="-13" font-family="Helvetica,sans-Serif" font-size="10.00">SolutionOptions.h</text>
</a>
</g>
</g>
<!-- Node1&#45;&gt;Node11 -->
<g id="edge10" class="edge">
<title>Node1&#45;&gt;Node11</title>
<path fill="none" stroke="midnightblue" d="M1002.35,-67.4C1029.84,-55.94 1068.25,-39.94 1094.61,-28.95"/>
<polygon fill="midnightblue" stroke="midnightblue" points="1096.2,-32.08 1104.08,-25.01 1093.51,-25.62 1096.2,-32.08"/>
</g>
<!-- Node12 -->
<g id="node12" class="node">
<title>Node12</title>
<g id="a_node12"><a xlink:title=" ">
<polygon fill="white" stroke="#bfbfbf" points="1194,-6 1194,-25 1377,-25 1377,-6 1194,-6"/>
<text text-anchor="middle" x="1285.5" y="-13" font-family="Helvetica,sans-Serif" font-size="10.00">master_element/MasterElement.h</text>
</a>
</g>
</g>
<!-- Node1&#45;&gt;Node12 -->
<g id="edge11" class="edge">
<title>Node1&#45;&gt;Node12</title>
<path fill="none" stroke="midnightblue" d="M1036.89,-67.48C1096.06,-55.34 1180.3,-38.07 1233.93,-27.07"/>
<polygon fill="midnightblue" stroke="midnightblue" points="1234.81,-30.47 1243.91,-25.03 1233.41,-23.61 1234.81,-30.47"/>
</g>
<!-- Node13 -->
<g id="node13" class="node">
<title>Node13</title>
<g id="a_node13"><a xlink:title=" ">
<polygon fill="white" stroke="#bfbfbf" points="1395,-6 1395,-25 1554,-25 1554,-6 1395,-6"/>
<text text-anchor="middle" x="1474.5" y="-13" font-family="Helvetica,sans-Serif" font-size="10.00">stk_mesh/base/BulkData.hpp</text>
</a>
</g>
</g>
<!-- Node1&#45;&gt;Node13 -->
<g id="edge12" class="edge">
<title>Node1&#45;&gt;Node13</title>
<path fill="none" stroke="midnightblue" d="M1064.11,-71.13C1148.94,-61.66 1276.15,-46.75 1386.5,-31 1395.83,-29.67 1405.7,-28.15 1415.32,-26.61"/>
<polygon fill="midnightblue" stroke="midnightblue" points="1415.91,-30.06 1425.22,-25 1414.79,-23.15 1415.91,-30.06"/>
</g>
<!-- Node14 -->
<g id="node14" class="node">
<title>Node14</title>
<g id="a_node14"><a xlink:title=" ">
<polygon fill="white" stroke="#bfbfbf" points="1572,-6 1572,-25 1709,-25 1709,-6 1572,-6"/>
<text text-anchor="middle" x="1640.5" y="-13" font-family="Helvetica,sans-Serif" font-size="10.00">stk_mesh/base/Field.hpp</text>
</a>
</g>
</g>
<!-- Node1&#45;&gt;Node14 -->
<g id="edge13" class="edge">
<title>Node1&#45;&gt;Node14</title>
<path fill="none" stroke="midnightblue" d="M1064.15,-76.38C1181.98,-69.38 1388.1,-54.9 1563.5,-31 1571.93,-29.85 1580.83,-28.4 1589.48,-26.86"/>
<polygon fill="midnightblue" stroke="midnightblue" points="1590.26,-30.27 1599.47,-25.03 1589,-23.39 1590.26,-30.27"/>
</g>
<!-- Node15 -->
<g id="node15" class="node">
<title>Node15</title>
<g id="a_node15"><a xlink:title=" ">
<polygon fill="white" stroke="#bfbfbf" points="1727,-6 1727,-25 1900,-25 1900,-6 1727,-6"/>
<text text-anchor="middle" x="1813.5" y="-13" font-family="Helvetica,sans-Serif" font-size="10.00">stk_mesh/base/FieldParallel.hpp</text>
</a>
</g>
</g>
<!-- Node1&#45;&gt;Node15 -->
<g id="edge14" class="edge">
<title>Node1&#45;&gt;Node15</title>
<path fill="none" stroke="midnightblue" d="M1064.03,-77.65C1206.77,-71.31 1484.02,-56.74 1718.5,-31 1729.66,-29.77 1741.52,-28.19 1752.93,-26.52"/>
<polygon fill="midnightblue" stroke="midnightblue" points="1753.45,-29.99 1762.82,-25.04 1752.41,-23.06 1753.45,-29.99"/>
</g>
<!-- Node16 -->
<g id="node16" class="node">
<title>Node16</title>
<g id="a_node16"><a xlink:title=" ">
<polygon fill="white" stroke="#bfbfbf" points="1918.5,-6 1918.5,-25 2080.5,-25 2080.5,-6 1918.5,-6"/>
<text text-anchor="middle" x="1999.5" y="-13" font-family="Helvetica,sans-Serif" font-size="10.00">stk_mesh/base/MetaData.hpp</text>
</a>
</g>
</g>
<!-- Node1&#45;&gt;Node16 -->
<g id="edge15" class="edge">
<title>Node1&#45;&gt;Node16</title>
<path fill="none" stroke="midnightblue" d="M1064.27,-79.71C1234.7,-75.79 1601.64,-63.97 1909.5,-31 1920.22,-29.85 1931.61,-28.29 1942.56,-26.61"/>
<polygon fill="midnightblue" stroke="midnightblue" points="1943.12,-30.06 1952.45,-25.05 1942.03,-23.15 1943.12,-30.06"/>
</g>
<!-- Node17 -->
<g id="node17" class="node">
<title>Node17</title>
<g id="a_node17"><a xlink:title=" ">
<polygon fill="white" stroke="#bfbfbf" points="2099,-6 2099,-25 2232,-25 2232,-6 2099,-6"/>
<text text-anchor="middle" x="2165.5" y="-13" font-family="Helvetica,sans-Serif" font-size="10.00">stk_mesh/base/Part.hpp</text>
</a>
</g>
</g>
<!-- Node1&#45;&gt;Node17 -->
<g id="edge16" class="edge">
<title>Node1&#45;&gt;Node17</title>
<path fill="none" stroke="midnightblue" d="M1064.1,-81.81C1258.11,-81.41 1711.71,-75.32 2089.5,-31 2098.32,-29.97 2107.65,-28.5 2116.65,-26.89"/>
<polygon fill="midnightblue" stroke="midnightblue" points="2117.42,-30.31 2126.61,-25.03 2116.14,-23.42 2117.42,-30.31"/>
</g>
</g>
</svg>
