<?xml version="1.0" encoding="UTF-8" standalone="no"?>
<!DOCTYPE svg PUBLIC "-//W3C//DTD SVG 1.1//EN"
 "http://www.w3.org/Graphics/SVG/1.1/DTD/svg11.dtd">
<!-- Generated by graphviz version 2.43.0 (0)
 -->
<!-- Title: AssembleContinuityNonConformalSolverAlgorithm.C Pages: 1 -->
<svg width="2230pt" height="106pt"
 viewBox="0.00 0.00 2230.00 106.00" xmlns="http://www.w3.org/2000/svg" xmlns:xlink="http://www.w3.org/1999/xlink">
<g id="graph0" class="graph" transform="scale(1 1) rotate(0) translate(4 102)">
<title>AssembleContinuityNonConformalSolverAlgorithm.C</title>
<polygon fill="white" stroke="transparent" points="-4,4 -4,-102 2226,-102 2226,4 -4,4"/>
<!-- Node1 -->
<g id="node1" class="node">
<title>Node1</title>
<g id="a_node1"><a xlink:title=" ">
<polygon fill="#bfbfbf" stroke="black" points="870,-67.5 870,-97.5 1055,-97.5 1055,-67.5 870,-67.5"/>
<text text-anchor="start" x="878" y="-85.5" font-family="Helvetica,sans-Serif" font-size="10.00">AssembleContinuityNonConformal</text>
<text text-anchor="middle" x="962.5" y="-74.5" font-family="Helvetica,sans-Serif" font-size="10.00">SolverAlgorithm.C</text>
</a>
</g>
</g>
<!-- Node2 -->
<g id="node2" class="node">
<title>Node2</title>
<g id="a_node2"><a xlink:title=" ">
<polygon fill="white" stroke="#bfbfbf" points="0,-0.5 0,-30.5 185,-30.5 185,-0.5 0,-0.5"/>
<text text-anchor="start" x="8" y="-18.5" font-family="Helvetica,sans-Serif" font-size="10.00">AssembleContinuityNonConformal</text>
<text text-anchor="middle" x="92.5" y="-7.5" font-family="Helvetica,sans-Serif" font-size="10.00">SolverAlgorithm.h</text>
</a>
</g>
</g>
<!-- Node1&#45;&gt;Node2 -->
<g id="edge1" class="edge">
<title>Node1&#45;&gt;Node2</title>
<path fill="none" stroke="midnightblue" d="M869.97,-77.73C727.25,-71.4 444.6,-56.83 195.18,-31.13"/>
<polygon fill="midnightblue" stroke="midnightblue" points="195.51,-27.64 185.2,-30.09 194.79,-34.61 195.51,-27.64"/>
</g>
<!-- Node3 -->
<g id="node3" class="node">
<title>Node3</title>
<g id="a_node3"><a xlink:title=" ">
<polygon fill="white" stroke="#bfbfbf" points="203,-6 203,-25 308,-25 308,-6 203,-6"/>
<text text-anchor="middle" x="255.5" y="-13" font-family="Helvetica,sans-Serif" font-size="10.00">EquationSystem.h</text>
</a>
</g>
</g>
<!-- Node1&#45;&gt;Node3 -->
<g id="edge2" class="edge">
<title>Node1&#45;&gt;Node3</title>
<path fill="none" stroke="midnightblue" d="M869.87,-78.66C744.13,-73.8 512.71,-61.29 317.5,-31 311.12,-30.01 304.42,-28.72 297.89,-27.31"/>
<polygon fill="midnightblue" stroke="midnightblue" points="298.34,-23.83 287.82,-25.04 296.8,-30.65 298.34,-23.83"/>
</g>
<!-- Node4 -->
<g id="node4" class="node">
<title>Node4</title>
<g id="a_node4"><a xlink:title=" ">
<polygon fill="white" stroke="#bfbfbf" points="326.5,-6 326.5,-25 384.5,-25 384.5,-6 326.5,-6"/>
<text text-anchor="middle" x="355.5" y="-13" font-family="Helvetica,sans-Serif" font-size="10.00">DgInfo.h</text>
</a>
</g>
</g>
<!-- Node1&#45;&gt;Node4 -->
<g id="edge3" class="edge">
<title>Node1&#45;&gt;Node4</title>
<path fill="none" stroke="midnightblue" d="M869.63,-81.07C755.96,-78.77 558.27,-68.98 393.5,-31 390.5,-30.31 387.42,-29.43 384.37,-28.45"/>
<polygon fill="midnightblue" stroke="midnightblue" points="385.5,-25.14 374.9,-25.08 383.15,-31.73 385.5,-25.14"/>
</g>
<!-- Node5 -->
<g id="node5" class="node">
<title>Node5</title>
<g id="a_node5"><a xlink:title=" ">
<polygon fill="white" stroke="#bfbfbf" points="402.5,-6 402.5,-25 490.5,-25 490.5,-6 402.5,-6"/>
<text text-anchor="middle" x="446.5" y="-13" font-family="Helvetica,sans-Serif" font-size="10.00">FieldTypeDef.h</text>
</a>
</g>
</g>
<!-- Node1&#45;&gt;Node5 -->
<g id="edge4" class="edge">
<title>Node1&#45;&gt;Node5</title>
<path fill="none" stroke="midnightblue" d="M869.62,-75.71C775.68,-68.85 626.6,-55.16 499.5,-31 494.47,-30.04 489.23,-28.85 484.08,-27.57"/>
<polygon fill="midnightblue" stroke="midnightblue" points="484.92,-24.17 474.36,-25.01 483.14,-30.94 484.92,-24.17"/>
</g>
<!-- Node6 -->
<g id="node6" class="node">
<title>Node6</title>
<g id="a_node6"><a xlink:title=" ">
<polygon fill="white" stroke="#bfbfbf" points="508.5,-6 508.5,-25 600.5,-25 600.5,-6 508.5,-6"/>
<text text-anchor="middle" x="554.5" y="-13" font-family="Helvetica,sans-Serif" font-size="10.00">LinearSystem.h</text>
</a>
</g>
</g>
<!-- Node1&#45;&gt;Node6 -->
<g id="edge5" class="edge">
<title>Node1&#45;&gt;Node6</title>
<path fill="none" stroke="midnightblue" d="M869.84,-71.22C798.34,-62.57 697.18,-48.77 609.5,-31 604.49,-29.98 599.25,-28.79 594.09,-27.52"/>
<polygon fill="midnightblue" stroke="midnightblue" points="594.88,-24.11 584.32,-25.03 593.15,-30.89 594.88,-24.11"/>
</g>
<!-- Node7 -->
<g id="node7" class="node">
<title>Node7</title>
<g id="a_node7"><a xlink:title=" ">
<polygon fill="white" stroke="#bfbfbf" points="619,-6 619,-25 684,-25 684,-6 619,-6"/>
<text text-anchor="middle" x="651.5" y="-13" font-family="Helvetica,sans-Serif" font-size="10.00">NaluEnv.h</text>
</a>
</g>
</g>
<!-- Node1&#45;&gt;Node7 -->
<g id="edge6" class="edge">
<title>Node1&#45;&gt;Node7</title>
<path fill="none" stroke="midnightblue" d="M869.85,-67.82C817.37,-59.16 750.76,-46.65 692.5,-31 689.53,-30.2 686.47,-29.29 683.43,-28.33"/>
<polygon fill="midnightblue" stroke="midnightblue" points="684.45,-24.98 673.86,-25.11 682.22,-31.61 684.45,-24.98"/>
</g>
<!-- Node8 -->
<g id="node8" class="node">
<title>Node8</title>
<g id="a_node8"><a xlink:title=" ">
<polygon fill="white" stroke="#bfbfbf" points="702,-6 702,-25 817,-25 817,-6 702,-6"/>
<text text-anchor="middle" x="759.5" y="-13" font-family="Helvetica,sans-Serif" font-size="10.00">NonConformalInfo.h</text>
</a>
</g>
</g>
<!-- Node1&#45;&gt;Node8 -->
<g id="edge7" class="edge">
<title>Node1&#45;&gt;Node8</title>
<path fill="none" stroke="midnightblue" d="M918.45,-67.4C881.73,-55.64 830.05,-39.09 795.7,-28.09"/>
<polygon fill="midnightblue" stroke="midnightblue" points="796.66,-24.72 786.07,-25.01 794.52,-31.39 796.66,-24.72"/>
</g>
<!-- Node9 -->
<g id="node9" class="node">
<title>Node9</title>
<g id="a_node9"><a xlink:title=" ">
<polygon fill="white" stroke="#bfbfbf" points="835.5,-6 835.5,-25 973.5,-25 973.5,-6 835.5,-6"/>
<text text-anchor="middle" x="904.5" y="-13" font-family="Helvetica,sans-Serif" font-size="10.00">NonConformalManager.h</text>
</a>
</g>
</g>
<!-- Node1&#45;&gt;Node9 -->
<g id="edge8" class="edge">
<title>Node1&#45;&gt;Node9</title>
<path fill="none" stroke="midnightblue" d="M949.91,-67.4C940.87,-57.26 928.65,-43.57 919.17,-32.94"/>
<polygon fill="midnightblue" stroke="midnightblue" points="921.53,-30.33 912.26,-25.19 916.3,-34.99 921.53,-30.33"/>
</g>
<!-- Node10 -->
<g id="node10" class="node">
<title>Node10</title>
<g id="a_node10"><a xlink:title=" ">
<polygon fill="white" stroke="#bfbfbf" points="992,-6 992,-25 1049,-25 1049,-6 992,-6"/>
<text text-anchor="middle" x="1020.5" y="-13" font-family="Helvetica,sans-Serif" font-size="10.00">Realm.h</text>
</a>
</g>
</g>
<!-- Node1&#45;&gt;Node10 -->
<g id="edge9" class="edge">
<title>Node1&#45;&gt;Node10</title>
<path fill="none" stroke="midnightblue" d="M975.09,-67.4C984.13,-57.26 996.35,-43.57 1005.83,-32.94"/>
<polygon fill="midnightblue" stroke="midnightblue" points="1008.7,-34.99 1012.74,-25.19 1003.47,-30.33 1008.7,-34.99"/>
</g>
<!-- Node11 -->
<g id="node11" class="node">
<title>Node11</title>
<g id="a_node11"><a xlink:title=" ">
<polygon fill="white" stroke="#bfbfbf" points="1067.5,-6 1067.5,-25 1165.5,-25 1165.5,-6 1067.5,-6"/>
<text text-anchor="middle" x="1116.5" y="-13" font-family="Helvetica,sans-Serif" font-size="10.00">TimeIntegrator.h</text>
</a>
</g>
</g>
<!-- Node1&#45;&gt;Node11 -->
<g id="edge10" class="edge">
<title>Node1&#45;&gt;Node11</title>
<path fill="none" stroke="midnightblue" d="M995.92,-67.4C1023.06,-55.94 1060.97,-39.94 1087,-28.95"/>
<polygon fill="midnightblue" stroke="midnightblue" points="1088.49,-32.12 1096.34,-25.01 1085.77,-25.67 1088.49,-32.12"/>
</g>
<!-- Node12 -->
<g id="node12" class="node">
<title>Node12</title>
<g id="a_node12"><a xlink:title=" ">
<polygon fill="white" stroke="#bfbfbf" points="1184,-6 1184,-25 1367,-25 1367,-6 1184,-6"/>
<text text-anchor="middle" x="1275.5" y="-13" font-family="Helvetica,sans-Serif" font-size="10.00">master_element/MasterElement.h</text>
</a>
</g>
</g>
<!-- Node1&#45;&gt;Node12 -->
<g id="edge11" class="edge">
<title>Node1&#45;&gt;Node12</title>
<path fill="none" stroke="midnightblue" d="M1030.03,-67.48C1088.45,-55.34 1171.63,-38.07 1224.58,-27.07"/>
<polygon fill="midnightblue" stroke="midnightblue" points="1225.35,-30.49 1234.43,-25.03 1223.93,-23.64 1225.35,-30.49"/>
</g>
<!-- Node13 -->
<g id="node13" class="node">
<title>Node13</title>
<g id="a_node13"><a xlink:title=" ">
<polygon fill="white" stroke="#bfbfbf" points="1385,-6 1385,-25 1544,-25 1544,-6 1385,-6"/>
<text text-anchor="middle" x="1464.5" y="-13" font-family="Helvetica,sans-Serif" font-size="10.00">stk_mesh/base/BulkData.hpp</text>
</a>
</g>
</g>
<!-- Node1&#45;&gt;Node13 -->
<g id="edge12" class="edge">
<title>Node1&#45;&gt;Node13</title>
<path fill="none" stroke="midnightblue" d="M1055.14,-71.33C1139.14,-61.83 1266.3,-46.79 1376.5,-31 1385.62,-29.69 1395.25,-28.21 1404.66,-26.71"/>
<polygon fill="midnightblue" stroke="midnightblue" points="1405.45,-30.12 1414.76,-25.07 1404.33,-23.21 1405.45,-30.12"/>
</g>
<!-- Node14 -->
<g id="node14" class="node">
<title>Node14</title>
<g id="a_node14"><a xlink:title=" ">
<polygon fill="white" stroke="#bfbfbf" points="1562,-6 1562,-25 1699,-25 1699,-6 1562,-6"/>
<text text-anchor="middle" x="1630.5" y="-13" font-family="Helvetica,sans-Serif" font-size="10.00">stk_mesh/base/Field.hpp</text>
</a>
</g>
</g>
<!-- Node1&#45;&gt;Node14 -->
<g id="edge13" class="edge">
<title>Node1&#45;&gt;Node14</title>
<path fill="none" stroke="midnightblue" d="M1055.2,-76.48C1171.85,-69.5 1378.13,-54.94 1553.5,-31 1561.93,-29.85 1570.83,-28.4 1579.48,-26.86"/>
<polygon fill="midnightblue" stroke="midnightblue" points="1580.26,-30.27 1589.47,-25.02 1579,-23.39 1580.26,-30.27"/>
</g>
<!-- Node15 -->
<g id="node15" class="node">
<title>Node15</title>
<g id="a_node15"><a xlink:title=" ">
<polygon fill="white" stroke="#bfbfbf" points="1717,-6 1717,-25 1890,-25 1890,-6 1717,-6"/>
<text text-anchor="middle" x="1803.5" y="-13" font-family="Helvetica,sans-Serif" font-size="10.00">stk_mesh/base/FieldParallel.hpp</text>
</a>
</g>
</g>
<!-- Node1&#45;&gt;Node15 -->
<g id="edge14" class="edge">
<title>Node1&#45;&gt;Node15</title>
<path fill="none" stroke="midnightblue" d="M1055.18,-77.73C1196.44,-71.41 1473.98,-56.79 1708.5,-31 1719.66,-29.77 1731.52,-28.19 1742.93,-26.52"/>
<polygon fill="midnightblue" stroke="midnightblue" points="1743.45,-29.98 1752.82,-25.04 1742.41,-23.06 1743.45,-29.98"/>
</g>
<!-- Node16 -->
<g id="node16" class="node">
<title>Node16</title>
<g id="a_node16"><a xlink:title=" ">
<polygon fill="white" stroke="#bfbfbf" points="1908.5,-6 1908.5,-25 2070.5,-25 2070.5,-6 1908.5,-6"/>
<text text-anchor="middle" x="1989.5" y="-13" font-family="Helvetica,sans-Serif" font-size="10.00">stk_mesh/base/MetaData.hpp</text>
</a>
</g>
</g>
<!-- Node1&#45;&gt;Node16 -->
<g id="edge15" class="edge">
<title>Node1&#45;&gt;Node16</title>
<path fill="none" stroke="midnightblue" d="M1055.19,-79.76C1223.7,-75.86 1591.33,-64.04 1899.5,-31 1910.22,-29.85 1921.61,-28.29 1932.56,-26.61"/>
<polygon fill="midnightblue" stroke="midnightblue" points="1933.12,-30.06 1942.45,-25.04 1932.03,-23.15 1933.12,-30.06"/>
</g>
<!-- Node17 -->
<g id="node17" class="node">
<title>Node17</title>
<g id="a_node17"><a xlink:title=" ">
<polygon fill="white" stroke="#bfbfbf" points="2089,-6 2089,-25 2222,-25 2222,-6 2089,-6"/>
<text text-anchor="middle" x="2155.5" y="-13" font-family="Helvetica,sans-Serif" font-size="10.00">stk_mesh/base/Part.hpp</text>
</a>
</g>
</g>
<!-- Node1&#45;&gt;Node17 -->
<g id="edge16" class="edge">
<title>Node1&#45;&gt;Node17</title>
<path fill="none" stroke="midnightblue" d="M1055.17,-81.79C1247.02,-81.4 1701.38,-75.39 2079.5,-31 2088.32,-29.96 2097.65,-28.5 2106.65,-26.89"/>
<polygon fill="midnightblue" stroke="midnightblue" points="2107.42,-30.3 2116.61,-25.03 2106.14,-23.42 2107.42,-30.3"/>
</g>
</g>
</svg>
