<?xml version="1.0" encoding="UTF-8" standalone="no"?>
<!DOCTYPE svg PUBLIC "-//W3C//DTD SVG 1.1//EN"
 "http://www.w3.org/Graphics/SVG/1.1/DTD/svg11.dtd">
<!-- Generated by graphviz version 2.43.0 (0)
 -->
<!-- Title: AuxFunctionAlgorithm.C Pages: 1 -->
<svg width="1397pt" height="84pt"
 viewBox="0.00 0.00 1396.50 84.00" xmlns="http://www.w3.org/2000/svg" xmlns:xlink="http://www.w3.org/1999/xlink">
<g id="graph0" class="graph" transform="scale(1 1) rotate(0) translate(4 80)">
<title>AuxFunctionAlgorithm.C</title>
<polygon fill="white" stroke="transparent" points="-4,4 -4,-80 1392.5,-80 1392.5,4 -4,4"/>
<!-- Node1 -->
<g id="node1" class="node">
<title>Node1</title>
<g id="a_node1"><a xlink:title=" ">
<polygon fill="#bfbfbf" stroke="black" points="478,-56.5 478,-75.5 612,-75.5 612,-56.5 478,-56.5"/>
<text text-anchor="middle" x="545" y="-63.5" font-family="Helvetica,sans-Serif" font-size="10.00">AuxFunctionAlgorithm.C</text>
</a>
</g>
</g>
<!-- Node2 -->
<g id="node2" class="node">
<title>Node2</title>
<g id="a_node2"><a xlink:title=" ">
<polygon fill="white" stroke="#bfbfbf" points="0,-0.5 0,-19.5 134,-19.5 134,-0.5 0,-0.5"/>
<text text-anchor="middle" x="67" y="-7.5" font-family="Helvetica,sans-Serif" font-size="10.00">AuxFunctionAlgorithm.h</text>
</a>
</g>
</g>
<!-- Node1&#45;&gt;Node2 -->
<g id="edge1" class="edge">
<title>Node1&#45;&gt;Node2</title>
<path fill="none" stroke="midnightblue" d="M477.77,-57.61C400.03,-49.03 267.93,-34.36 144.17,-20.13"/>
<polygon fill="midnightblue" stroke="midnightblue" points="144.47,-16.64 134.13,-18.97 143.67,-23.59 144.47,-16.64"/>
</g>
<!-- Node3 -->
<g id="node3" class="node">
<title>Node3</title>
<g id="a_node3"><a xlink:title=" ">
<polygon fill="white" stroke="#bfbfbf" points="152,-0.5 152,-19.5 238,-19.5 238,-0.5 152,-0.5"/>
<text text-anchor="middle" x="195" y="-7.5" font-family="Helvetica,sans-Serif" font-size="10.00">AuxFunction.h</text>
</a>
</g>
</g>
<!-- Node1&#45;&gt;Node3 -->
<g id="edge2" class="edge">
<title>Node1&#45;&gt;Node3</title>
<path fill="none" stroke="midnightblue" d="M486.14,-56.49C428.16,-48.03 336.79,-34.46 248.08,-20.15"/>
<polygon fill="midnightblue" stroke="midnightblue" points="248.55,-16.68 238.12,-18.54 247.43,-23.59 248.55,-16.68"/>
</g>
<!-- Node4 -->
<g id="node4" class="node">
<title>Node4</title>
<g id="a_node4"><a xlink:title=" ">
<polygon fill="white" stroke="#bfbfbf" points="256,-0.5 256,-19.5 344,-19.5 344,-0.5 256,-0.5"/>
<text text-anchor="middle" x="300" y="-7.5" font-family="Helvetica,sans-Serif" font-size="10.00">FieldTypeDef.h</text>
</a>
</g>
</g>
<!-- Node1&#45;&gt;Node4 -->
<g id="edge3" class="edge">
<title>Node1&#45;&gt;Node4</title>
<path fill="none" stroke="midnightblue" d="M506.18,-56.44C463.44,-47.02 394.67,-31.87 348.43,-21.68"/>
<polygon fill="midnightblue" stroke="midnightblue" points="349.16,-18.25 338.64,-19.52 347.65,-25.09 349.16,-18.25"/>
</g>
<!-- Node5 -->
<g id="node5" class="node">
<title>Node5</title>
<g id="a_node5"><a xlink:title=" ">
<polygon fill="white" stroke="#bfbfbf" points="362.5,-0.5 362.5,-19.5 419.5,-19.5 419.5,-0.5 362.5,-0.5"/>
<text text-anchor="middle" x="391" y="-7.5" font-family="Helvetica,sans-Serif" font-size="10.00">Realm.h</text>
</a>
</g>
</g>
<!-- Node1&#45;&gt;Node5 -->
<g id="edge4" class="edge">
<title>Node1&#45;&gt;Node5</title>
<path fill="none" stroke="midnightblue" d="M520.6,-56.44C494.8,-47.4 453.92,-33.06 424.98,-22.92"/>
<polygon fill="midnightblue" stroke="midnightblue" points="425.88,-19.52 415.29,-19.52 423.57,-26.13 425.88,-19.52"/>
</g>
<!-- Node6 -->
<g id="node6" class="node">
<title>Node6</title>
<g id="a_node6"><a xlink:title=" ">
<polygon fill="white" stroke="#bfbfbf" points="438,-0.5 438,-19.5 516,-19.5 516,-0.5 438,-0.5"/>
<text text-anchor="middle" x="477" y="-7.5" font-family="Helvetica,sans-Serif" font-size="10.00">Simulation.h</text>
</a>
</g>
</g>
<!-- Node1&#45;&gt;Node6 -->
<g id="edge5" class="edge">
<title>Node1&#45;&gt;Node6</title>
<path fill="none" stroke="midnightblue" d="M534.07,-56.32C523.83,-48.18 508.28,-35.84 496,-26.09"/>
<polygon fill="midnightblue" stroke="midnightblue" points="498.13,-23.31 488.12,-19.83 493.78,-28.79 498.13,-23.31"/>
</g>
<!-- Node7 -->
<g id="node7" class="node">
<title>Node7</title>
<g id="a_node7"><a xlink:title=" ">
<polygon fill="white" stroke="#bfbfbf" points="534.5,-0.5 534.5,-19.5 693.5,-19.5 693.5,-0.5 534.5,-0.5"/>
<text text-anchor="middle" x="614" y="-7.5" font-family="Helvetica,sans-Serif" font-size="10.00">stk_mesh/base/BulkData.hpp</text>
</a>
</g>
</g>
<!-- Node1&#45;&gt;Node7 -->
<g id="edge6" class="edge">
<title>Node1&#45;&gt;Node7</title>
<path fill="none" stroke="midnightblue" d="M556.09,-56.32C566.49,-48.18 582.26,-35.84 594.72,-26.09"/>
<polygon fill="midnightblue" stroke="midnightblue" points="596.99,-28.75 602.71,-19.83 592.68,-23.24 596.99,-28.75"/>
</g>
<!-- Node8 -->
<g id="node8" class="node">
<title>Node8</title>
<g id="a_node8"><a xlink:title=" ">
<polygon fill="white" stroke="#bfbfbf" points="711.5,-0.5 711.5,-19.5 848.5,-19.5 848.5,-0.5 711.5,-0.5"/>
<text text-anchor="middle" x="780" y="-7.5" font-family="Helvetica,sans-Serif" font-size="10.00">stk_mesh/base/Field.hpp</text>
</a>
</g>
</g>
<!-- Node1&#45;&gt;Node8 -->
<g id="edge7" class="edge">
<title>Node1&#45;&gt;Node8</title>
<path fill="none" stroke="midnightblue" d="M582.24,-56.44C623.06,-47.06 688.64,-31.99 732.98,-21.8"/>
<polygon fill="midnightblue" stroke="midnightblue" points="733.98,-25.17 742.94,-19.52 732.41,-18.34 733.98,-25.17"/>
</g>
<!-- Node9 -->
<g id="node9" class="node">
<title>Node9</title>
<g id="a_node9"><a xlink:title=" ">
<polygon fill="white" stroke="#bfbfbf" points="867,-0.5 867,-19.5 1037,-19.5 1037,-0.5 867,-0.5"/>
<text text-anchor="middle" x="952" y="-7.5" font-family="Helvetica,sans-Serif" font-size="10.00">stk_mesh/base/GetBuckets.hpp</text>
</a>
</g>
</g>
<!-- Node1&#45;&gt;Node9 -->
<g id="edge8" class="edge">
<title>Node1&#45;&gt;Node9</title>
<path fill="none" stroke="midnightblue" d="M609.49,-56.44C682.43,-46.77 800.99,-31.04 877.74,-20.85"/>
<polygon fill="midnightblue" stroke="midnightblue" points="878.36,-24.3 887.81,-19.52 877.44,-17.36 878.36,-24.3"/>
</g>
<!-- Node10 -->
<g id="node10" class="node">
<title>Node10</title>
<g id="a_node10"><a xlink:title=" ">
<polygon fill="white" stroke="#bfbfbf" points="1055,-0.5 1055,-19.5 1217,-19.5 1217,-0.5 1055,-0.5"/>
<text text-anchor="middle" x="1136" y="-7.5" font-family="Helvetica,sans-Serif" font-size="10.00">stk_mesh/base/MetaData.hpp</text>
</a>
</g>
</g>
<!-- Node1&#45;&gt;Node10 -->
<g id="edge9" class="edge">
<title>Node1&#45;&gt;Node10</title>
<path fill="none" stroke="midnightblue" d="M612.28,-59.17C706.49,-50.97 883.37,-35.38 1044.47,-20.14"/>
<polygon fill="midnightblue" stroke="midnightblue" points="1044.94,-23.61 1054.57,-19.18 1044.28,-16.64 1044.94,-23.61"/>
</g>
<!-- Node11 -->
<g id="node11" class="node">
<title>Node11</title>
<g id="a_node11"><a xlink:title=" ">
<polygon fill="white" stroke="#bfbfbf" points="1235.5,-0.5 1235.5,-19.5 1388.5,-19.5 1388.5,-0.5 1235.5,-0.5"/>
<text text-anchor="middle" x="1312" y="-7.5" font-family="Helvetica,sans-Serif" font-size="10.00">stk_mesh/base/Selector.hpp</text>
</a>
</g>
</g>
<!-- Node1&#45;&gt;Node11 -->
<g id="edge10" class="edge">
<title>Node1&#45;&gt;Node11</title>
<path fill="none" stroke="midnightblue" d="M612.24,-61.41C732.72,-54.8 993.61,-39.62 1224.83,-20.07"/>
<polygon fill="midnightblue" stroke="midnightblue" points="1225.45,-23.53 1235.12,-19.19 1224.86,-16.55 1225.45,-23.53"/>
</g>
</g>
</svg>
