<?xml version="1.0" encoding="UTF-8" standalone="no"?>
<!DOCTYPE svg PUBLIC "-//W3C//DTD SVG 1.1//EN"
 "http://www.w3.org/Graphics/SVG/1.1/DTD/svg11.dtd">
<!-- Generated by graphviz version 2.43.0 (0)
 -->
<!-- Title: BLTGammaM2015NodeKernel.C Pages: 1 -->
<svg width="1035pt" height="95pt"
 viewBox="0.00 0.00 1034.50 95.00" xmlns="http://www.w3.org/2000/svg" xmlns:xlink="http://www.w3.org/1999/xlink">
<g id="graph0" class="graph" transform="scale(1 1) rotate(0) translate(4 91)">
<title>BLTGammaM2015NodeKernel.C</title>
<polygon fill="white" stroke="transparent" points="-4,4 -4,-91 1030.5,-91 1030.5,4 -4,4"/>
<!-- Node1 -->
<g id="node1" class="node">
<title>Node1</title>
<g id="a_node1"><a xlink:title=" ">
<polygon fill="#bfbfbf" stroke="black" points="406.5,-67.5 406.5,-86.5 578.5,-86.5 578.5,-67.5 406.5,-67.5"/>
<text text-anchor="middle" x="492.5" y="-74.5" font-family="Helvetica,sans-Serif" font-size="10.00">BLTGammaM2015NodeKernel.C</text>
</a>
</g>
</g>
<!-- Node2 -->
<g id="node2" class="node">
<title>Node2</title>
<g id="a_node2"><a xlink:title=" ">
<polygon fill="white" stroke="#bfbfbf" points="0,-0.5 0,-30.5 173,-30.5 173,-0.5 0,-0.5"/>
<text text-anchor="start" x="8" y="-18.5" font-family="Helvetica,sans-Serif" font-size="10.00">node_kernels/BLTGammaM2015</text>
<text text-anchor="middle" x="86.5" y="-7.5" font-family="Helvetica,sans-Serif" font-size="10.00">NodeKernel.h</text>
</a>
</g>
</g>
<!-- Node1&#45;&gt;Node2 -->
<g id="edge1" class="edge">
<title>Node1&#45;&gt;Node2</title>
<path fill="none" stroke="midnightblue" d="M432.57,-67.47C372.13,-58.83 275.85,-44.99 183.32,-31.26"/>
<polygon fill="midnightblue" stroke="midnightblue" points="183.62,-27.77 173.22,-29.76 182.59,-34.7 183.62,-27.77"/>
</g>
<!-- Node3 -->
<g id="node3" class="node">
<title>Node3</title>
<g id="a_node3"><a xlink:title=" ">
<polygon fill="white" stroke="#bfbfbf" points="191,-6 191,-25 248,-25 248,-6 191,-6"/>
<text text-anchor="middle" x="219.5" y="-13" font-family="Helvetica,sans-Serif" font-size="10.00">Realm.h</text>
</a>
</g>
</g>
<!-- Node1&#45;&gt;Node3 -->
<g id="edge2" class="edge">
<title>Node1&#45;&gt;Node3</title>
<path fill="none" stroke="midnightblue" d="M431.14,-67.49C383.07,-60.06 314.81,-47.83 256.5,-31 253.92,-30.25 251.26,-29.4 248.62,-28.49"/>
<polygon fill="midnightblue" stroke="midnightblue" points="249.83,-25.2 239.24,-25.01 247.4,-31.77 249.83,-25.2"/>
</g>
<!-- Node4 -->
<g id="node4" class="node">
<title>Node4</title>
<g id="a_node4"><a xlink:title=" ">
<polygon fill="white" stroke="#bfbfbf" points="266,-6 266,-25 369,-25 369,-6 266,-6"/>
<text text-anchor="middle" x="317.5" y="-13" font-family="Helvetica,sans-Serif" font-size="10.00">SolutionOptions.h</text>
</a>
</g>
</g>
<!-- Node1&#45;&gt;Node4 -->
<g id="edge3" class="edge">
<title>Node1&#45;&gt;Node4</title>
<path fill="none" stroke="midnightblue" d="M467.43,-67.48C437.15,-57.18 386.06,-39.81 352.06,-28.25"/>
<polygon fill="midnightblue" stroke="midnightblue" points="353.12,-24.91 342.53,-25.01 350.87,-31.54 353.12,-24.91"/>
</g>
<!-- Node5 -->
<g id="node5" class="node">
<title>Node5</title>
<g id="a_node5"><a xlink:title=" ">
<polygon fill="white" stroke="#bfbfbf" points="387.5,-6 387.5,-25 481.5,-25 481.5,-6 387.5,-6"/>
<text text-anchor="middle" x="434.5" y="-13" font-family="Helvetica,sans-Serif" font-size="10.00">SimdInterface.h</text>
</a>
</g>
</g>
<!-- Node1&#45;&gt;Node5 -->
<g id="edge4" class="edge">
<title>Node1&#45;&gt;Node5</title>
<path fill="none" stroke="midnightblue" d="M484.19,-67.48C475.32,-58.37 461.05,-43.74 450.08,-32.48"/>
<polygon fill="midnightblue" stroke="midnightblue" points="452.28,-29.73 442.79,-25.01 447.27,-34.61 452.28,-29.73"/>
</g>
<!-- Node6 -->
<g id="node6" class="node">
<title>Node6</title>
<g id="a_node6"><a xlink:title=" ">
<polygon fill="white" stroke="#bfbfbf" points="500,-6 500,-25 603,-25 603,-6 500,-6"/>
<text text-anchor="middle" x="551.5" y="-13" font-family="Helvetica,sans-Serif" font-size="10.00">utils/StkHelpers.h</text>
</a>
</g>
</g>
<!-- Node1&#45;&gt;Node6 -->
<g id="edge5" class="edge">
<title>Node1&#45;&gt;Node6</title>
<path fill="none" stroke="midnightblue" d="M500.95,-67.48C510.07,-58.28 524.77,-43.46 535.98,-32.16"/>
<polygon fill="midnightblue" stroke="midnightblue" points="538.51,-34.57 543.06,-25.01 533.54,-29.65 538.51,-34.57"/>
</g>
<!-- Node7 -->
<g id="node7" class="node">
<title>Node7</title>
<g id="a_node7"><a xlink:title=" ">
<polygon fill="white" stroke="#bfbfbf" points="621,-6 621,-25 686,-25 686,-6 621,-6"/>
<text text-anchor="middle" x="653.5" y="-13" font-family="Helvetica,sans-Serif" font-size="10.00">NaluEnv.h</text>
</a>
</g>
</g>
<!-- Node1&#45;&gt;Node7 -->
<g id="edge6" class="edge">
<title>Node1&#45;&gt;Node7</title>
<path fill="none" stroke="midnightblue" d="M515.57,-67.48C543.18,-57.27 589.62,-40.11 620.9,-28.55"/>
<polygon fill="midnightblue" stroke="midnightblue" points="622.31,-31.76 630.48,-25.01 619.88,-25.19 622.31,-31.76"/>
</g>
<!-- Node8 -->
<g id="node8" class="node">
<title>Node8</title>
<g id="a_node8"><a xlink:title=" ">
<polygon fill="white" stroke="#bfbfbf" points="704.5,-6 704.5,-25 866.5,-25 866.5,-6 704.5,-6"/>
<text text-anchor="middle" x="785.5" y="-13" font-family="Helvetica,sans-Serif" font-size="10.00">stk_mesh/base/MetaData.hpp</text>
</a>
</g>
</g>
<!-- Node1&#45;&gt;Node8 -->
<g id="edge7" class="edge">
<title>Node1&#45;&gt;Node8</title>
<path fill="none" stroke="midnightblue" d="M534.48,-67.48C587.02,-56.8 677,-38.53 733.75,-27.01"/>
<polygon fill="midnightblue" stroke="midnightblue" points="734.49,-30.43 743.6,-25.01 733.1,-23.57 734.49,-30.43"/>
</g>
<!-- Node9 -->
<g id="node9" class="node">
<title>Node9</title>
<g id="a_node9"><a xlink:title=" ">
<polygon fill="white" stroke="#bfbfbf" points="884.5,-6 884.5,-25 1026.5,-25 1026.5,-6 884.5,-6"/>
<text text-anchor="middle" x="955.5" y="-13" font-family="Helvetica,sans-Serif" font-size="10.00">stk_mesh/base/Types.hpp</text>
</a>
</g>
</g>
<!-- Node1&#45;&gt;Node9 -->
<g id="edge8" class="edge">
<title>Node1&#45;&gt;Node9</title>
<path fill="none" stroke="midnightblue" d="M578.27,-67.47C656.02,-59.37 773.69,-46.19 875.5,-31 883.83,-29.76 892.62,-28.31 901.21,-26.81"/>
<polygon fill="midnightblue" stroke="midnightblue" points="901.92,-30.24 911.15,-25.05 900.69,-23.35 901.92,-30.24"/>
</g>
</g>
</svg>
