<?xml version="1.0" encoding="UTF-8" standalone="no"?>
<!DOCTYPE svg PUBLIC "-//W3C//DTD SVG 1.1//EN"
 "http://www.w3.org/Graphics/SVG/1.1/DTD/svg11.dtd">
<!-- Generated by graphviz version 2.43.0 (0)
 -->
<!-- Title: BdyLayerStatistics.C Pages: 1 -->
<svg width="2751pt" height="95pt"
 viewBox="0.00 0.00 2751.00 95.00" xmlns="http://www.w3.org/2000/svg" xmlns:xlink="http://www.w3.org/1999/xlink">
<g id="graph0" class="graph" transform="scale(1 1) rotate(0) translate(4 91)">
<title>BdyLayerStatistics.C</title>
<polygon fill="white" stroke="transparent" points="-4,4 -4,-91 2747,-91 2747,4 -4,4"/>
<!-- Node1 -->
<g id="node1" class="node">
<title>Node1</title>
<g id="a_node1"><a xlink:title=" ">
<polygon fill="#bfbfbf" stroke="black" points="1437.5,-67.5 1437.5,-86.5 1554.5,-86.5 1554.5,-67.5 1437.5,-67.5"/>
<text text-anchor="middle" x="1496" y="-74.5" font-family="Helvetica,sans-Serif" font-size="10.00">BdyLayerStatistics.C</text>
</a>
</g>
</g>
<!-- Node2 -->
<g id="node2" class="node">
<title>Node2</title>
<g id="a_node2"><a xlink:title=" ">
<polygon fill="white" stroke="#bfbfbf" points="0,-6 0,-25 182,-25 182,-6 0,-6"/>
<text text-anchor="middle" x="91" y="-13" font-family="Helvetica,sans-Serif" font-size="10.00">wind_energy/BdyLayerStatistics.h</text>
</a>
</g>
</g>
<!-- Node1&#45;&gt;Node2 -->
<g id="edge1" class="edge">
<title>Node1&#45;&gt;Node2</title>
<path fill="none" stroke="midnightblue" d="M1437.33,-76.26C1253.25,-76.6 670.81,-73.93 191,-31 178.45,-29.88 165.08,-28.24 152.33,-26.47"/>
<polygon fill="midnightblue" stroke="midnightblue" points="152.66,-22.99 142.26,-25.03 151.66,-29.92 152.66,-22.99"/>
</g>
<!-- Node3 -->
<g id="node3" class="node">
<title>Node3</title>
<g id="a_node3"><a xlink:title=" ">
<polygon fill="white" stroke="#bfbfbf" points="200,-6 200,-25 390,-25 390,-6 200,-6"/>
<text text-anchor="middle" x="295" y="-13" font-family="Helvetica,sans-Serif" font-size="10.00">wind_energy/BdyHeightAlgorithm.h</text>
</a>
</g>
</g>
<!-- Node1&#45;&gt;Node3 -->
<g id="edge2" class="edge">
<title>Node1&#45;&gt;Node3</title>
<path fill="none" stroke="midnightblue" d="M1437.3,-75.6C1272.99,-74.06 794.59,-66.61 399,-31 385.98,-29.83 372.09,-28.17 358.84,-26.4"/>
<polygon fill="midnightblue" stroke="midnightblue" points="359.25,-22.92 348.86,-25.03 358.29,-29.86 359.25,-22.92"/>
</g>
<!-- Node4 -->
<g id="node4" class="node">
<title>Node4</title>
<g id="a_node4"><a xlink:title=" ">
<polygon fill="white" stroke="#bfbfbf" points="408,-6 408,-25 546,-25 546,-6 408,-6"/>
<text text-anchor="middle" x="477" y="-13" font-family="Helvetica,sans-Serif" font-size="10.00">ngp_utils/NgpLoopUtils.h</text>
</a>
</g>
</g>
<!-- Node1&#45;&gt;Node4 -->
<g id="edge3" class="edge">
<title>Node1&#45;&gt;Node4</title>
<path fill="none" stroke="midnightblue" d="M1437.41,-75.96C1289.15,-75.26 887.23,-69.64 555,-31 545.86,-29.94 536.17,-28.44 526.85,-26.81"/>
<polygon fill="midnightblue" stroke="midnightblue" points="527.39,-23.35 516.92,-25 526.13,-30.24 527.39,-23.35"/>
</g>
<!-- Node5 -->
<g id="node5" class="node">
<title>Node5</title>
<g id="a_node5"><a xlink:title=" ">
<polygon fill="white" stroke="#bfbfbf" points="564,-6 564,-25 702,-25 702,-6 564,-6"/>
<text text-anchor="middle" x="633" y="-13" font-family="Helvetica,sans-Serif" font-size="10.00">ngp_utils/NgpFieldUtils.h</text>
</a>
</g>
</g>
<!-- Node1&#45;&gt;Node5 -->
<g id="edge4" class="edge">
<title>Node1&#45;&gt;Node5</title>
<path fill="none" stroke="midnightblue" d="M1437.18,-75.17C1306.26,-72.76 981.02,-63.7 711,-31 702.06,-29.92 692.6,-28.44 683.46,-26.84"/>
<polygon fill="midnightblue" stroke="midnightblue" points="683.8,-23.35 673.33,-25 682.55,-30.24 683.8,-23.35"/>
</g>
<!-- Node6 -->
<g id="node6" class="node">
<title>Node6</title>
<g id="a_node6"><a xlink:title=" ">
<polygon fill="white" stroke="#bfbfbf" points="720,-6 720,-25 878,-25 878,-6 720,-6"/>
<text text-anchor="middle" x="799" y="-13" font-family="Helvetica,sans-Serif" font-size="10.00">ngp_utils/NgpFieldManager.h</text>
</a>
</g>
</g>
<!-- Node1&#45;&gt;Node6 -->
<g id="edge5" class="edge">
<title>Node1&#45;&gt;Node6</title>
<path fill="none" stroke="midnightblue" d="M1437.47,-73.42C1328.74,-68.24 1088.34,-54.98 887,-31 876.97,-29.81 866.33,-28.28 856.05,-26.66"/>
<polygon fill="midnightblue" stroke="midnightblue" points="856.36,-23.17 845.93,-25.03 855.24,-30.08 856.36,-23.17"/>
</g>
<!-- Node7 -->
<g id="node7" class="node">
<title>Node7</title>
<g id="a_node7"><a xlink:title=" ">
<polygon fill="white" stroke="#bfbfbf" points="896.5,-6 896.5,-25 979.5,-25 979.5,-6 896.5,-6"/>
<text text-anchor="middle" x="938" y="-13" font-family="Helvetica,sans-Serif" font-size="10.00">NaluParsing.h</text>
</a>
</g>
</g>
<!-- Node1&#45;&gt;Node7 -->
<g id="edge6" class="edge">
<title>Node1&#45;&gt;Node7</title>
<path fill="none" stroke="midnightblue" d="M1437.21,-74.49C1342.07,-71.21 1148.78,-61.14 988,-31 983.31,-30.12 978.42,-28.99 973.62,-27.74"/>
<polygon fill="midnightblue" stroke="midnightblue" points="974.55,-24.37 963.98,-25.07 972.68,-31.11 974.55,-24.37"/>
</g>
<!-- Node8 -->
<g id="node8" class="node">
<title>Node8</title>
<g id="a_node8"><a xlink:title=" ">
<polygon fill="white" stroke="#bfbfbf" points="997.5,-6 997.5,-25 1054.5,-25 1054.5,-6 997.5,-6"/>
<text text-anchor="middle" x="1026" y="-13" font-family="Helvetica,sans-Serif" font-size="10.00">Realm.h</text>
</a>
</g>
</g>
<!-- Node1&#45;&gt;Node8 -->
<g id="edge7" class="edge">
<title>Node1&#45;&gt;Node8</title>
<path fill="none" stroke="midnightblue" d="M1437.19,-74.71C1353.3,-71.79 1194.93,-62.23 1064,-31 1061.01,-30.29 1057.93,-29.39 1054.89,-28.41"/>
<polygon fill="midnightblue" stroke="midnightblue" points="1056.01,-25.09 1045.41,-25.02 1053.65,-31.68 1056.01,-25.09"/>
</g>
<!-- Node9 -->
<g id="node9" class="node">
<title>Node9</title>
<g id="a_node9"><a xlink:title=" ">
<polygon fill="white" stroke="#bfbfbf" points="1073,-6 1073,-25 1273,-25 1273,-6 1073,-6"/>
<text text-anchor="middle" x="1173" y="-13" font-family="Helvetica,sans-Serif" font-size="10.00">TurbulenceAveragingPostProcessing.h</text>
</a>
</g>
</g>
<!-- Node1&#45;&gt;Node9 -->
<g id="edge8" class="edge">
<title>Node1&#45;&gt;Node9</title>
<path fill="none" stroke="midnightblue" d="M1449.72,-67.48C1391.56,-56.76 1291.79,-38.38 1229.27,-26.87"/>
<polygon fill="midnightblue" stroke="midnightblue" points="1229.66,-23.38 1219.19,-25.01 1228.39,-30.26 1229.66,-23.38"/>
</g>
<!-- Node10 -->
<g id="node10" class="node">
<title>Node10</title>
<g id="a_node10"><a xlink:title=" ">
<polygon fill="white" stroke="#bfbfbf" points="1291.5,-6 1291.5,-25 1384.5,-25 1384.5,-6 1291.5,-6"/>
<text text-anchor="middle" x="1338" y="-13" font-family="Helvetica,sans-Serif" font-size="10.00">AveragingInfo.h</text>
</a>
</g>
</g>
<!-- Node1&#45;&gt;Node10 -->
<g id="edge9" class="edge">
<title>Node1&#45;&gt;Node10</title>
<path fill="none" stroke="midnightblue" d="M1473.36,-67.48C1446.26,-57.27 1400.69,-40.11 1370,-28.55"/>
<polygon fill="midnightblue" stroke="midnightblue" points="1371.19,-25.26 1360.6,-25.01 1368.72,-31.81 1371.19,-25.26"/>
</g>
<!-- Node11 -->
<g id="node11" class="node">
<title>Node11</title>
<g id="a_node11"><a xlink:title=" ">
<polygon fill="white" stroke="#bfbfbf" points="1402.5,-6 1402.5,-25 1467.5,-25 1467.5,-6 1402.5,-6"/>
<text text-anchor="middle" x="1435" y="-13" font-family="Helvetica,sans-Serif" font-size="10.00">NaluEnv.h</text>
</a>
</g>
</g>
<!-- Node1&#45;&gt;Node11 -->
<g id="edge10" class="edge">
<title>Node1&#45;&gt;Node11</title>
<path fill="none" stroke="midnightblue" d="M1487.26,-67.48C1477.84,-58.28 1462.64,-43.46 1451.05,-32.16"/>
<polygon fill="midnightblue" stroke="midnightblue" points="1453.33,-29.49 1443.72,-25.01 1448.44,-34.5 1453.33,-29.49"/>
</g>
<!-- Node12 -->
<g id="node12" class="node">
<title>Node12</title>
<g id="a_node12"><a xlink:title=" ">
<polygon fill="white" stroke="#bfbfbf" points="1486,-6 1486,-25 1628,-25 1628,-6 1486,-6"/>
<text text-anchor="middle" x="1557" y="-13" font-family="Helvetica,sans-Serif" font-size="10.00">utils/LinearInterpolation.h</text>
</a>
</g>
</g>
<!-- Node1&#45;&gt;Node12 -->
<g id="edge11" class="edge">
<title>Node1&#45;&gt;Node12</title>
<path fill="none" stroke="midnightblue" d="M1504.74,-67.48C1514.16,-58.28 1529.36,-43.46 1540.95,-32.16"/>
<polygon fill="midnightblue" stroke="midnightblue" points="1543.56,-34.5 1548.28,-25.01 1538.67,-29.49 1543.56,-34.5"/>
</g>
<!-- Node13 -->
<g id="node13" class="node">
<title>Node13</title>
<g id="a_node13"><a xlink:title=" ">
<polygon fill="white" stroke="#bfbfbf" points="1646,-6 1646,-25 1808,-25 1808,-6 1646,-6"/>
<text text-anchor="middle" x="1727" y="-13" font-family="Helvetica,sans-Serif" font-size="10.00">stk_mesh/base/MetaData.hpp</text>
</a>
</g>
</g>
<!-- Node1&#45;&gt;Node13 -->
<g id="edge12" class="edge">
<title>Node1&#45;&gt;Node13</title>
<path fill="none" stroke="midnightblue" d="M1529.1,-67.48C1569.92,-56.96 1639.41,-39.06 1684.24,-27.51"/>
<polygon fill="midnightblue" stroke="midnightblue" points="1685.15,-30.89 1693.96,-25.01 1683.41,-24.11 1685.15,-30.89"/>
</g>
<!-- Node14 -->
<g id="node14" class="node">
<title>Node14</title>
<g id="a_node14"><a xlink:title=" ">
<polygon fill="white" stroke="#bfbfbf" points="1826.5,-6 1826.5,-25 1985.5,-25 1985.5,-6 1826.5,-6"/>
<text text-anchor="middle" x="1906" y="-13" font-family="Helvetica,sans-Serif" font-size="10.00">stk_mesh/base/BulkData.hpp</text>
</a>
</g>
</g>
<!-- Node1&#45;&gt;Node14 -->
<g id="edge13" class="edge">
<title>Node1&#45;&gt;Node14</title>
<path fill="none" stroke="midnightblue" d="M1554.63,-68.18C1619.03,-59.5 1725.47,-44.87 1817,-31 1825.98,-29.64 1835.46,-28.15 1844.75,-26.66"/>
<polygon fill="midnightblue" stroke="midnightblue" points="1845.42,-30.1 1854.73,-25.05 1844.3,-23.19 1845.42,-30.1"/>
</g>
<!-- Node15 -->
<g id="node15" class="node">
<title>Node15</title>
<g id="a_node15"><a xlink:title=" ">
<polygon fill="white" stroke="#bfbfbf" points="2003.5,-6 2003.5,-25 2140.5,-25 2140.5,-6 2003.5,-6"/>
<text text-anchor="middle" x="2072" y="-13" font-family="Helvetica,sans-Serif" font-size="10.00">stk_mesh/base/Field.hpp</text>
</a>
</g>
</g>
<!-- Node1&#45;&gt;Node15 -->
<g id="edge14" class="edge">
<title>Node1&#45;&gt;Node15</title>
<path fill="none" stroke="midnightblue" d="M1554.59,-72.55C1648.04,-66.63 1836.47,-53.02 1995,-31 2003.33,-29.84 2012.12,-28.4 2020.68,-26.88"/>
<polygon fill="midnightblue" stroke="midnightblue" points="2021.36,-30.31 2030.56,-25.06 2020.09,-23.42 2021.36,-30.31"/>
</g>
<!-- Node16 -->
<g id="node16" class="node">
<title>Node16</title>
<g id="a_node16"><a xlink:title=" ">
<polygon fill="white" stroke="#bfbfbf" points="2158.5,-0.5 2158.5,-30.5 2289.5,-30.5 2289.5,-0.5 2158.5,-0.5"/>
<text text-anchor="start" x="2166.5" y="-18.5" font-family="Helvetica,sans-Serif" font-size="10.00">stk_util/parallel/Parallel</text>
<text text-anchor="middle" x="2224" y="-7.5" font-family="Helvetica,sans-Serif" font-size="10.00">Reduce.hpp</text>
</a>
</g>
</g>
<!-- Node1&#45;&gt;Node16 -->
<g id="edge15" class="edge">
<title>Node1&#45;&gt;Node16</title>
<path fill="none" stroke="midnightblue" d="M1554.87,-74.41C1668.06,-70.82 1924.03,-60.11 2148.32,-31.12"/>
<polygon fill="midnightblue" stroke="midnightblue" points="2148.84,-34.58 2158.3,-29.81 2147.93,-27.64 2148.84,-34.58"/>
</g>
<!-- Node17 -->
<g id="node17" class="node">
<title>Node17</title>
<g id="a_node17"><a xlink:title=" ">
<polygon fill="white" stroke="#bfbfbf" points="2308,-6 2308,-25 2468,-25 2468,-6 2308,-6"/>
<text text-anchor="middle" x="2388" y="-13" font-family="Helvetica,sans-Serif" font-size="10.00">stk_mesh/base/NgpMesh.hpp</text>
</a>
</g>
</g>
<!-- Node1&#45;&gt;Node17 -->
<g id="edge16" class="edge">
<title>Node1&#45;&gt;Node17</title>
<path fill="none" stroke="midnightblue" d="M1554.61,-74.83C1687.43,-71.73 2021.39,-61.31 2299,-31 2309.5,-29.85 2320.64,-28.31 2331.36,-26.65"/>
<polygon fill="midnightblue" stroke="midnightblue" points="2332.15,-30.06 2341.47,-25.03 2331.05,-23.15 2332.15,-30.06"/>
</g>
<!-- Node18 -->
<g id="node18" class="node">
<title>Node18</title>
<g id="a_node18"><a xlink:title=" ">
<polygon fill="white" stroke="#bfbfbf" points="2486,-6 2486,-25 2542,-25 2542,-6 2486,-6"/>
<text text-anchor="middle" x="2514" y="-13" font-family="Helvetica,sans-Serif" font-size="10.00">netcdf.h</text>
</a>
</g>
</g>
<!-- Node1&#45;&gt;Node18 -->
<g id="edge17" class="edge">
<title>Node1&#45;&gt;Node18</title>
<path fill="none" stroke="midnightblue" d="M1554.7,-75.82C1738.22,-74.85 2299.4,-68.79 2477,-31 2480.01,-30.36 2483.09,-29.5 2486.13,-28.53"/>
<polygon fill="midnightblue" stroke="midnightblue" points="2487.34,-31.81 2495.54,-25.1 2484.95,-25.23 2487.34,-31.81"/>
</g>
<!-- Node19 -->
<g id="node19" class="node">
<title>Node19</title>
<g id="a_node19"><a xlink:title=" ">
<polygon fill="white" stroke="#bfbfbf" points="2560.5,-6 2560.5,-25 2607.5,-25 2607.5,-6 2560.5,-6"/>
<text text-anchor="middle" x="2584" y="-13" font-family="Helvetica,sans-Serif" font-size="10.00">cmath</text>
</a>
</g>
</g>
<!-- Node1&#45;&gt;Node19 -->
<g id="edge18" class="edge">
<title>Node1&#45;&gt;Node19</title>
<path fill="none" stroke="midnightblue" d="M1554.75,-76.34C1747.52,-77.02 2359.37,-75.53 2551,-31 2553.37,-30.45 2555.77,-29.73 2558.15,-28.91"/>
<polygon fill="midnightblue" stroke="midnightblue" points="2559.64,-32.09 2567.63,-25.12 2557.04,-25.59 2559.64,-32.09"/>
</g>
<!-- Node20 -->
<g id="node20" class="node">
<title>Node20</title>
<g id="a_node20"><a xlink:title=" ">
<polygon fill="white" stroke="#bfbfbf" points="2625.5,-6 2625.5,-25 2680.5,-25 2680.5,-6 2625.5,-6"/>
<text text-anchor="middle" x="2653" y="-13" font-family="Helvetica,sans-Serif" font-size="10.00">fstream</text>
</a>
</g>
</g>
<!-- Node1&#45;&gt;Node20 -->
<g id="edge19" class="edge">
<title>Node1&#45;&gt;Node20</title>
<path fill="none" stroke="midnightblue" d="M1554.84,-76.28C1755.43,-76.83 2411.45,-75.14 2617,-31 2619.84,-30.39 2622.75,-29.57 2625.61,-28.64"/>
<polygon fill="midnightblue" stroke="midnightblue" points="2626.91,-31.89 2635.07,-25.13 2624.48,-25.33 2626.91,-31.89"/>
</g>
<!-- Node21 -->
<g id="node21" class="node">
<title>Node21</title>
<g id="a_node21"><a xlink:title=" ">
<polygon fill="white" stroke="#bfbfbf" points="2699,-6 2699,-25 2743,-25 2743,-6 2699,-6"/>
<text text-anchor="middle" x="2721" y="-13" font-family="Helvetica,sans-Serif" font-size="10.00">string</text>
</a>
</g>
</g>
<!-- Node1&#45;&gt;Node21 -->
<g id="edge20" class="edge">
<title>Node1&#45;&gt;Node21</title>
<path fill="none" stroke="midnightblue" d="M1554.76,-75.16C1779.75,-71.74 2579.3,-57.81 2690,-31 2691.99,-30.52 2694.01,-29.9 2696.01,-29.2"/>
<polygon fill="midnightblue" stroke="midnightblue" points="2697.81,-32.24 2705.67,-25.14 2695.1,-25.78 2697.81,-32.24"/>
</g>
</g>
</svg>
