<?xml version="1.0" encoding="UTF-8" standalone="no"?>
<!DOCTYPE svg PUBLIC "-//W3C//DTD SVG 1.1//EN"
 "http://www.w3.org/Graphics/SVG/1.1/DTD/svg11.dtd">
<!-- Generated by graphviz version 2.43.0 (0)
 -->
<!-- Title: BoundaryLayerPerturbationAuxFunction.C Pages: 1 -->
<svg width="468pt" height="106pt"
 viewBox="0.00 0.00 467.50 106.00" xmlns="http://www.w3.org/2000/svg" xmlns:xlink="http://www.w3.org/1999/xlink">
<g id="graph0" class="graph" transform="scale(1 1) rotate(0) translate(4 102)">
<title>BoundaryLayerPerturbationAuxFunction.C</title>
<polygon fill="white" stroke="transparent" points="-4,4 -4,-102 463.5,-102 463.5,4 -4,4"/>
<!-- Node1 -->
<g id="node1" class="node">
<title>Node1</title>
<g id="a_node1"><a xlink:title=" ">
<polygon fill="#bfbfbf" stroke="black" points="213,-67.5 213,-97.5 363,-97.5 363,-67.5 213,-67.5"/>
<text text-anchor="start" x="221" y="-85.5" font-family="Helvetica,sans-Serif" font-size="10.00">BoundaryLayerPerturbation</text>
<text text-anchor="middle" x="288" y="-74.5" font-family="Helvetica,sans-Serif" font-size="10.00">AuxFunction.C</text>
</a>
</g>
</g>
<!-- Node2 -->
<g id="node2" class="node">
<title>Node2</title>
<g id="a_node2"><a xlink:title=" ">
<polygon fill="white" stroke="#bfbfbf" points="0,-0.5 0,-30.5 164,-30.5 164,-0.5 0,-0.5"/>
<text text-anchor="start" x="8" y="-18.5" font-family="Helvetica,sans-Serif" font-size="10.00">user_functions/BoundaryLayer</text>
<text text-anchor="middle" x="82" y="-7.5" font-family="Helvetica,sans-Serif" font-size="10.00">PerturbationAuxFunction.h</text>
</a>
</g>
</g>
<!-- Node1&#45;&gt;Node2 -->
<g id="edge1" class="edge">
<title>Node1&#45;&gt;Node2</title>
<path fill="none" stroke="midnightblue" d="M243.55,-67.48C212.12,-57.56 169.79,-44.2 136.35,-33.65"/>
<polygon fill="midnightblue" stroke="midnightblue" points="137.31,-30.28 126.72,-30.61 135.2,-36.96 137.31,-30.28"/>
</g>
<!-- Node3 -->
<g id="node3" class="node">
<title>Node3</title>
<g id="a_node3"><a xlink:title=" ">
<polygon fill="white" stroke="#bfbfbf" points="182,-6 182,-25 246,-25 246,-6 182,-6"/>
<text text-anchor="middle" x="214" y="-13" font-family="Helvetica,sans-Serif" font-size="10.00">algorithm</text>
</a>
</g>
</g>
<!-- Node1&#45;&gt;Node3 -->
<g id="edge2" class="edge">
<title>Node1&#45;&gt;Node3</title>
<path fill="none" stroke="midnightblue" d="M271.94,-67.4C260.06,-56.96 243.89,-42.75 231.64,-32"/>
<polygon fill="midnightblue" stroke="midnightblue" points="233.72,-29.16 223.9,-25.19 229.1,-34.42 233.72,-29.16"/>
</g>
<!-- Node4 -->
<g id="node4" class="node">
<title>Node4</title>
<g id="a_node4"><a xlink:title=" ">
<polygon fill="white" stroke="#bfbfbf" points="264.5,-6 264.5,-25 311.5,-25 311.5,-6 264.5,-6"/>
<text text-anchor="middle" x="288" y="-13" font-family="Helvetica,sans-Serif" font-size="10.00">cmath</text>
</a>
</g>
</g>
<!-- Node1&#45;&gt;Node4 -->
<g id="edge3" class="edge">
<title>Node1&#45;&gt;Node4</title>
<path fill="none" stroke="midnightblue" d="M288,-67.4C288,-58.06 288,-45.71 288,-35.52"/>
<polygon fill="midnightblue" stroke="midnightblue" points="291.5,-35.19 288,-25.19 284.5,-35.19 291.5,-35.19"/>
</g>
<!-- Node5 -->
<g id="node5" class="node">
<title>Node5</title>
<g id="a_node5"><a xlink:title=" ">
<polygon fill="white" stroke="#bfbfbf" points="329.5,-6 329.5,-25 376.5,-25 376.5,-6 329.5,-6"/>
<text text-anchor="middle" x="353" y="-13" font-family="Helvetica,sans-Serif" font-size="10.00">vector</text>
</a>
</g>
</g>
<!-- Node1&#45;&gt;Node5 -->
<g id="edge4" class="edge">
<title>Node1&#45;&gt;Node5</title>
<path fill="none" stroke="midnightblue" d="M302.1,-67.4C312.44,-57.06 326.48,-43.02 337.19,-32.31"/>
<polygon fill="midnightblue" stroke="midnightblue" points="339.71,-34.74 344.31,-25.19 334.76,-29.79 339.71,-34.74"/>
</g>
<!-- Node6 -->
<g id="node6" class="node">
<title>Node6</title>
<g id="a_node6"><a xlink:title=" ">
<polygon fill="white" stroke="#bfbfbf" points="394.5,-6 394.5,-25 459.5,-25 459.5,-6 394.5,-6"/>
<text text-anchor="middle" x="427" y="-13" font-family="Helvetica,sans-Serif" font-size="10.00">stdexcept</text>
</a>
</g>
</g>
<!-- Node1&#45;&gt;Node6 -->
<g id="edge5" class="edge">
<title>Node1&#45;&gt;Node6</title>
<path fill="none" stroke="midnightblue" d="M318.16,-67.4C342.44,-56.04 376.28,-40.22 399.75,-29.24"/>
<polygon fill="midnightblue" stroke="midnightblue" points="401.23,-32.41 408.81,-25.01 398.27,-26.07 401.23,-32.41"/>
</g>
</g>
</svg>
