<?xml version="1.0" encoding="UTF-8" standalone="no"?>
<!DOCTYPE svg PUBLIC "-//W3C//DTD SVG 1.1//EN"
 "http://www.w3.org/Graphics/SVG/1.1/DTD/svg11.dtd">
<!-- Generated by graphviz version 2.43.0 (0)
 -->
<!-- Title: CalcLoads.C Pages: 1 -->
<svg width="2112pt" height="95pt"
 viewBox="0.00 0.00 2112.00 95.00" xmlns="http://www.w3.org/2000/svg" xmlns:xlink="http://www.w3.org/1999/xlink">
<g id="graph0" class="graph" transform="scale(1 1) rotate(0) translate(4 91)">
<title>CalcLoads.C</title>
<polygon fill="white" stroke="transparent" points="-4,4 -4,-91 2108,-91 2108,4 -4,4"/>
<!-- Node1 -->
<g id="node1" class="node">
<title>Node1</title>
<g id="a_node1"><a xlink:title=" ">
<polygon fill="#bfbfbf" stroke="black" points="1102.5,-67.5 1102.5,-86.5 1178.5,-86.5 1178.5,-67.5 1102.5,-67.5"/>
<text text-anchor="middle" x="1140.5" y="-74.5" font-family="Helvetica,sans-Serif" font-size="10.00">CalcLoads.C</text>
</a>
</g>
</g>
<!-- Node2 -->
<g id="node2" class="node">
<title>Node2</title>
<g id="a_node2"><a xlink:title=" ">
<polygon fill="white" stroke="#bfbfbf" points="0,-6 0,-25 115,-25 115,-6 0,-6"/>
<text text-anchor="middle" x="57.5" y="-13" font-family="Helvetica,sans-Serif" font-size="10.00">aero/fsi/CalcLoads.h</text>
</a>
</g>
</g>
<!-- Node1&#45;&gt;Node2 -->
<g id="edge1" class="edge">
<title>Node1&#45;&gt;Node2</title>
<path fill="none" stroke="midnightblue" d="M1102.33,-75.17C941.57,-71.56 319.08,-56.18 124.5,-31 117.03,-30.03 109.16,-28.66 101.55,-27.14"/>
<polygon fill="midnightblue" stroke="midnightblue" points="102.24,-23.71 91.74,-25.07 100.8,-30.56 102.24,-23.71"/>
</g>
<!-- Node3 -->
<g id="node3" class="node">
<title>Node3</title>
<g id="a_node3"><a xlink:title=" ">
<polygon fill="white" stroke="#bfbfbf" points="133.5,-6 133.5,-25 207.5,-25 207.5,-6 133.5,-6"/>
<text text-anchor="middle" x="170.5" y="-13" font-family="Helvetica,sans-Serif" font-size="10.00">Algorithm.h</text>
</a>
</g>
</g>
<!-- Node1&#45;&gt;Node3 -->
<g id="edge2" class="edge">
<title>Node1&#45;&gt;Node3</title>
<path fill="none" stroke="midnightblue" d="M1102.44,-75.45C950.98,-73.04 390.9,-62.2 216.5,-31 212.23,-30.24 207.81,-29.19 203.47,-28"/>
<polygon fill="midnightblue" stroke="midnightblue" points="204.19,-24.57 193.61,-25.06 202.19,-31.27 204.19,-24.57"/>
</g>
<!-- Node4 -->
<g id="node4" class="node">
<title>Node4</title>
<g id="a_node4"><a xlink:title=" ">
<polygon fill="white" stroke="#bfbfbf" points="225.5,-6 225.5,-25 313.5,-25 313.5,-6 225.5,-6"/>
<text text-anchor="middle" x="269.5" y="-13" font-family="Helvetica,sans-Serif" font-size="10.00">FieldTypeDef.h</text>
</a>
</g>
</g>
<!-- Node1&#45;&gt;Node4 -->
<g id="edge3" class="edge">
<title>Node1&#45;&gt;Node4</title>
<path fill="none" stroke="midnightblue" d="M1102.38,-74.98C962.22,-71.04 475.7,-55.88 322.5,-31 317.28,-30.15 311.83,-28.99 306.5,-27.69"/>
<polygon fill="midnightblue" stroke="midnightblue" points="307.05,-24.22 296.49,-25.07 305.28,-30.99 307.05,-24.22"/>
</g>
<!-- Node5 -->
<g id="node5" class="node">
<title>Node5</title>
<g id="a_node5"><a xlink:title=" ">
<polygon fill="white" stroke="#bfbfbf" points="332,-6 332,-25 515,-25 515,-6 332,-6"/>
<text text-anchor="middle" x="423.5" y="-13" font-family="Helvetica,sans-Serif" font-size="10.00">master_element/MasterElement.h</text>
</a>
</g>
</g>
<!-- Node1&#45;&gt;Node5 -->
<g id="edge4" class="edge">
<title>Node1&#45;&gt;Node5</title>
<path fill="none" stroke="midnightblue" d="M1102.21,-74.13C1005.3,-69.2 742.51,-54.58 524.5,-31 512.67,-29.72 500.09,-28.11 487.97,-26.44"/>
<polygon fill="midnightblue" stroke="midnightblue" points="488.32,-22.95 477.93,-25.02 487.34,-29.88 488.32,-22.95"/>
</g>
<!-- Node6 -->
<g id="node6" class="node">
<title>Node6</title>
<g id="a_node6"><a xlink:title=" ">
<polygon fill="white" stroke="#bfbfbf" points="533.5,-0.5 533.5,-30.5 707.5,-30.5 707.5,-0.5 533.5,-0.5"/>
<text text-anchor="start" x="541.5" y="-18.5" font-family="Helvetica,sans-Serif" font-size="10.00">master_element/MasterElement</text>
<text text-anchor="middle" x="620.5" y="-7.5" font-family="Helvetica,sans-Serif" font-size="10.00">Repo.h</text>
</a>
</g>
</g>
<!-- Node1&#45;&gt;Node6 -->
<g id="edge5" class="edge">
<title>Node1&#45;&gt;Node6</title>
<path fill="none" stroke="midnightblue" d="M1102.43,-72.53C1029.78,-65.78 866.14,-49.99 717.8,-31.13"/>
<polygon fill="midnightblue" stroke="midnightblue" points="717.96,-27.62 707.6,-29.83 717.07,-34.57 717.96,-27.62"/>
</g>
<!-- Node7 -->
<g id="node7" class="node">
<title>Node7</title>
<g id="a_node7"><a xlink:title=" ">
<polygon fill="white" stroke="#bfbfbf" points="726,-6 726,-25 791,-25 791,-6 726,-6"/>
<text text-anchor="middle" x="758.5" y="-13" font-family="Helvetica,sans-Serif" font-size="10.00">NaluEnv.h</text>
</a>
</g>
</g>
<!-- Node1&#45;&gt;Node7 -->
<g id="edge6" class="edge">
<title>Node1&#45;&gt;Node7</title>
<path fill="none" stroke="midnightblue" d="M1102.44,-73.58C1038.93,-68.96 907.65,-56.96 799.5,-31 796.27,-30.22 792.94,-29.29 789.64,-28.27"/>
<polygon fill="midnightblue" stroke="midnightblue" points="790.54,-24.88 779.95,-25.03 788.33,-31.52 790.54,-24.88"/>
</g>
<!-- Node8 -->
<g id="node8" class="node">
<title>Node8</title>
<g id="a_node8"><a xlink:title=" ">
<polygon fill="white" stroke="#bfbfbf" points="809,-6 809,-25 968,-25 968,-6 809,-6"/>
<text text-anchor="middle" x="888.5" y="-13" font-family="Helvetica,sans-Serif" font-size="10.00">stk_mesh/base/BulkData.hpp</text>
</a>
</g>
</g>
<!-- Node1&#45;&gt;Node8 -->
<g id="edge7" class="edge">
<title>Node1&#45;&gt;Node8</title>
<path fill="none" stroke="midnightblue" d="M1104.39,-67.48C1059.67,-56.92 983.42,-38.91 934.53,-27.37"/>
<polygon fill="midnightblue" stroke="midnightblue" points="935.08,-23.9 924.54,-25.01 933.47,-30.71 935.08,-23.9"/>
</g>
<!-- Node9 -->
<g id="node9" class="node">
<title>Node9</title>
<g id="a_node9"><a xlink:title=" ">
<polygon fill="white" stroke="#bfbfbf" points="986,-6 986,-25 1123,-25 1123,-6 986,-6"/>
<text text-anchor="middle" x="1054.5" y="-13" font-family="Helvetica,sans-Serif" font-size="10.00">stk_mesh/base/Field.hpp</text>
</a>
</g>
</g>
<!-- Node1&#45;&gt;Node9 -->
<g id="edge8" class="edge">
<title>Node1&#45;&gt;Node9</title>
<path fill="none" stroke="midnightblue" d="M1128.18,-67.48C1114.38,-57.93 1091.8,-42.31 1075.27,-30.87"/>
<polygon fill="midnightblue" stroke="midnightblue" points="1077.01,-27.82 1066.8,-25.01 1073.03,-33.58 1077.01,-27.82"/>
</g>
<!-- Node10 -->
<g id="node10" class="node">
<title>Node10</title>
<g id="a_node10"><a xlink:title=" ">
<polygon fill="white" stroke="#bfbfbf" points="1141.5,-6 1141.5,-25 1311.5,-25 1311.5,-6 1141.5,-6"/>
<text text-anchor="middle" x="1226.5" y="-13" font-family="Helvetica,sans-Serif" font-size="10.00">stk_mesh/base/GetBuckets.hpp</text>
</a>
</g>
</g>
<!-- Node1&#45;&gt;Node10 -->
<g id="edge9" class="edge">
<title>Node1&#45;&gt;Node10</title>
<path fill="none" stroke="midnightblue" d="M1152.82,-67.48C1166.62,-57.93 1189.2,-42.31 1205.73,-30.87"/>
<polygon fill="midnightblue" stroke="midnightblue" points="1207.97,-33.58 1214.2,-25.01 1203.99,-27.82 1207.97,-33.58"/>
</g>
<!-- Node11 -->
<g id="node11" class="node">
<title>Node11</title>
<g id="a_node11"><a xlink:title=" ">
<polygon fill="white" stroke="#bfbfbf" points="1329.5,-6 1329.5,-25 1497.5,-25 1497.5,-6 1329.5,-6"/>
<text text-anchor="middle" x="1413.5" y="-13" font-family="Helvetica,sans-Serif" font-size="10.00">stk_mesh/base/GetEntities.hpp</text>
</a>
</g>
</g>
<!-- Node1&#45;&gt;Node11 -->
<g id="edge10" class="edge">
<title>Node1&#45;&gt;Node11</title>
<path fill="none" stroke="midnightblue" d="M1178.75,-67.66C1227.27,-57.09 1311.04,-38.83 1364.29,-27.23"/>
<polygon fill="midnightblue" stroke="midnightblue" points="1365.16,-30.62 1374.19,-25.07 1363.67,-23.78 1365.16,-30.62"/>
</g>
<!-- Node12 -->
<g id="node12" class="node">
<title>Node12</title>
<g id="a_node12"><a xlink:title=" ">
<polygon fill="white" stroke="#bfbfbf" points="1515.5,-6 1515.5,-25 1677.5,-25 1677.5,-6 1515.5,-6"/>
<text text-anchor="middle" x="1596.5" y="-13" font-family="Helvetica,sans-Serif" font-size="10.00">stk_mesh/base/MetaData.hpp</text>
</a>
</g>
</g>
<!-- Node1&#45;&gt;Node12 -->
<g id="edge11" class="edge">
<title>Node1&#45;&gt;Node12</title>
<path fill="none" stroke="midnightblue" d="M1178.76,-71.77C1245.43,-64.3 1387.18,-47.94 1506.5,-31 1515.92,-29.66 1525.88,-28.15 1535.6,-26.63"/>
<polygon fill="midnightblue" stroke="midnightblue" points="1536.29,-30.06 1545.62,-25.04 1535.2,-23.15 1536.29,-30.06"/>
</g>
<!-- Node13 -->
<g id="node13" class="node">
<title>Node13</title>
<g id="a_node13"><a xlink:title=" ">
<polygon fill="white" stroke="#bfbfbf" points="1696,-6 1696,-25 1829,-25 1829,-6 1696,-6"/>
<text text-anchor="middle" x="1762.5" y="-13" font-family="Helvetica,sans-Serif" font-size="10.00">stk_mesh/base/Part.hpp</text>
</a>
</g>
</g>
<!-- Node1&#45;&gt;Node13 -->
<g id="edge12" class="edge">
<title>Node1&#45;&gt;Node13</title>
<path fill="none" stroke="midnightblue" d="M1178.71,-74.25C1267.94,-69.86 1496.84,-56.83 1686.5,-31 1694.82,-29.87 1703.61,-28.42 1712.15,-26.88"/>
<polygon fill="midnightblue" stroke="midnightblue" points="1712.81,-30.32 1722.01,-25.05 1711.53,-23.44 1712.81,-30.32"/>
</g>
<!-- Node14 -->
<g id="node14" class="node">
<title>Node14</title>
<g id="a_node14"><a xlink:title=" ">
<polygon fill="white" stroke="#bfbfbf" points="1847,-6 1847,-25 1902,-25 1902,-6 1847,-6"/>
<text text-anchor="middle" x="1874.5" y="-13" font-family="Helvetica,sans-Serif" font-size="10.00">fstream</text>
</a>
</g>
</g>
<!-- Node1&#45;&gt;Node14 -->
<g id="edge13" class="edge">
<title>Node1&#45;&gt;Node14</title>
<path fill="none" stroke="midnightblue" d="M1178.68,-75.13C1305.4,-72.01 1711.21,-59.95 1838.5,-31 1841.33,-30.36 1844.23,-29.52 1847.1,-28.57"/>
<polygon fill="midnightblue" stroke="midnightblue" points="1848.41,-31.81 1856.55,-25.04 1845.96,-25.26 1848.41,-31.81"/>
</g>
<!-- Node15 -->
<g id="node15" class="node">
<title>Node15</title>
<g id="a_node15"><a xlink:title=" ">
<polygon fill="white" stroke="#bfbfbf" points="1920.5,-6 1920.5,-25 1976.5,-25 1976.5,-6 1920.5,-6"/>
<text text-anchor="middle" x="1948.5" y="-13" font-family="Helvetica,sans-Serif" font-size="10.00">iomanip</text>
</a>
</g>
</g>
<!-- Node1&#45;&gt;Node15 -->
<g id="edge14" class="edge">
<title>Node1&#45;&gt;Node15</title>
<path fill="none" stroke="midnightblue" d="M1178.84,-75.35C1314.22,-72.83 1769.4,-62.17 1911.5,-31 1914.5,-30.34 1917.58,-29.47 1920.62,-28.49"/>
<polygon fill="midnightblue" stroke="midnightblue" points="1921.84,-31.77 1930.03,-25.05 1919.44,-25.19 1921.84,-31.77"/>
</g>
<!-- Node16 -->
<g id="node16" class="node">
<title>Node16</title>
<g id="a_node16"><a xlink:title=" ">
<polygon fill="white" stroke="#bfbfbf" points="1994.5,-6 1994.5,-25 2038.5,-25 2038.5,-6 1994.5,-6"/>
<text text-anchor="middle" x="2016.5" y="-13" font-family="Helvetica,sans-Serif" font-size="10.00">string</text>
</a>
</g>
</g>
<!-- Node1&#45;&gt;Node16 -->
<g id="edge15" class="edge">
<title>Node1&#45;&gt;Node16</title>
<path fill="none" stroke="midnightblue" d="M1178.57,-75.9C1322,-75.23 1829.45,-70.07 1985.5,-31 1987.49,-30.5 1989.5,-29.88 1991.5,-29.16"/>
<polygon fill="midnightblue" stroke="midnightblue" points="1993.31,-32.2 2001.16,-25.09 1990.59,-25.75 1993.31,-32.2"/>
</g>
<!-- Node17 -->
<g id="node17" class="node">
<title>Node17</title>
<g id="a_node17"><a xlink:title=" ">
<polygon fill="white" stroke="#bfbfbf" points="2057,-6 2057,-25 2104,-25 2104,-6 2057,-6"/>
<text text-anchor="middle" x="2080.5" y="-13" font-family="Helvetica,sans-Serif" font-size="10.00">vector</text>
</a>
</g>
</g>
<!-- Node1&#45;&gt;Node17 -->
<g id="edge16" class="edge">
<title>Node1&#45;&gt;Node17</title>
<path fill="none" stroke="midnightblue" d="M1178.74,-75.95C1328.94,-75.45 1878.52,-70.88 2047.5,-31 2049.86,-30.44 2052.27,-29.72 2054.65,-28.9"/>
<polygon fill="midnightblue" stroke="midnightblue" points="2056.14,-32.07 2064.12,-25.1 2053.54,-25.57 2056.14,-32.07"/>
</g>
</g>
</svg>
