<?xml version="1.0" encoding="UTF-8" standalone="no"?>
<!DOCTYPE svg PUBLIC "-//W3C//DTD SVG 1.1//EN"
 "http://www.w3.org/Graphics/SVG/1.1/DTD/svg11.dtd">
<!-- Generated by graphviz version 2.43.0 (0)
 -->
<!-- Title: ChienKEpsilonEquationSystem.C Pages: 1 -->
<svg width="3837pt" height="95pt"
 viewBox="0.00 0.00 3836.50 95.00" xmlns="http://www.w3.org/2000/svg" xmlns:xlink="http://www.w3.org/1999/xlink">
<g id="graph0" class="graph" transform="scale(1 1) rotate(0) translate(4 91)">
<title>ChienKEpsilonEquationSystem.C</title>
<polygon fill="white" stroke="transparent" points="-4,4 -4,-91 3832.5,-91 3832.5,4 -4,4"/>
<!-- Node1 -->
<g id="node1" class="node">
<title>Node1</title>
<g id="a_node1"><a xlink:title=" ">
<polygon fill="#bfbfbf" stroke="black" points="1835.5,-67.5 1835.5,-86.5 2011.5,-86.5 2011.5,-67.5 1835.5,-67.5"/>
<text text-anchor="middle" x="1923.5" y="-74.5" font-family="Helvetica,sans-Serif" font-size="10.00">ChienKEpsilonEquationSystem.C</text>
</a>
</g>
</g>
<!-- Node2 -->
<g id="node2" class="node">
<title>Node2</title>
<g id="a_node2"><a xlink:title=" ">
<polygon fill="white" stroke="#bfbfbf" points="0,-6 0,-25 175,-25 175,-6 0,-6"/>
<text text-anchor="middle" x="87.5" y="-13" font-family="Helvetica,sans-Serif" font-size="10.00">ChienKEpsilonEquationSystem.h</text>
</a>
</g>
</g>
<!-- Node1&#45;&gt;Node2 -->
<g id="edge1" class="edge">
<title>Node1&#45;&gt;Node2</title>
<path fill="none" stroke="midnightblue" d="M1835.28,-75.17C1528.53,-72.04 509.35,-59.71 183.5,-31 171.43,-29.94 158.57,-28.33 146.32,-26.56"/>
<polygon fill="midnightblue" stroke="midnightblue" points="146.6,-23.07 136.2,-25.05 145.57,-29.99 146.6,-23.07"/>
</g>
<!-- Node3 -->
<g id="node3" class="node">
<title>Node3</title>
<g id="a_node3"><a xlink:title=" ">
<polygon fill="white" stroke="#bfbfbf" points="193,-6 193,-25 296,-25 296,-6 193,-6"/>
<text text-anchor="middle" x="244.5" y="-13" font-family="Helvetica,sans-Serif" font-size="10.00">AlgorithmDriver.h</text>
</a>
</g>
</g>
<!-- Node1&#45;&gt;Node3 -->
<g id="edge2" class="edge">
<title>Node1&#45;&gt;Node3</title>
<path fill="none" stroke="midnightblue" d="M1835.28,-75.98C1542.42,-75.53 604.13,-70.92 304.5,-31 298.02,-30.14 291.21,-28.86 284.61,-27.42"/>
<polygon fill="midnightblue" stroke="midnightblue" points="285.02,-23.92 274.48,-25.05 283.42,-30.73 285.02,-23.92"/>
</g>
<!-- Node4 -->
<g id="node4" class="node">
<title>Node4</title>
<g id="a_node4"><a xlink:title=" ">
<polygon fill="white" stroke="#bfbfbf" points="314,-6 314,-25 409,-25 409,-6 314,-6"/>
<text text-anchor="middle" x="361.5" y="-13" font-family="Helvetica,sans-Serif" font-size="10.00">FieldFunctions.h</text>
</a>
</g>
</g>
<!-- Node1&#45;&gt;Node4 -->
<g id="edge3" class="edge">
<title>Node1&#45;&gt;Node4</title>
<path fill="none" stroke="midnightblue" d="M1835.13,-75.95C1555.74,-75.38 693.77,-70.39 417.5,-31 411.58,-30.16 405.38,-28.92 399.35,-27.52"/>
<polygon fill="midnightblue" stroke="midnightblue" points="400,-24.07 389.45,-25.05 398.31,-30.86 400,-24.07"/>
</g>
<!-- Node5 -->
<g id="node5" class="node">
<title>Node5</title>
<g id="a_node5"><a xlink:title=" ">
<polygon fill="white" stroke="#bfbfbf" points="427,-6 427,-25 610,-25 610,-6 427,-6"/>
<text text-anchor="middle" x="518.5" y="-13" font-family="Helvetica,sans-Serif" font-size="10.00">master_element/MasterElement.h</text>
</a>
</g>
</g>
<!-- Node1&#45;&gt;Node5 -->
<g id="edge4" class="edge">
<title>Node1&#45;&gt;Node5</title>
<path fill="none" stroke="midnightblue" d="M1835.15,-76.24C1624.36,-76.09 1075.57,-71.49 619.5,-31 606.83,-29.88 593.32,-28.24 580.44,-26.47"/>
<polygon fill="midnightblue" stroke="midnightblue" points="580.67,-22.97 570.28,-25.03 579.69,-29.9 580.67,-22.97"/>
</g>
<!-- Node6 -->
<g id="node6" class="node">
<title>Node6</title>
<g id="a_node6"><a xlink:title=" ">
<polygon fill="white" stroke="#bfbfbf" points="628.5,-0.5 628.5,-30.5 802.5,-30.5 802.5,-0.5 628.5,-0.5"/>
<text text-anchor="start" x="636.5" y="-18.5" font-family="Helvetica,sans-Serif" font-size="10.00">master_element/MasterElement</text>
<text text-anchor="middle" x="715.5" y="-7.5" font-family="Helvetica,sans-Serif" font-size="10.00">Repo.h</text>
</a>
</g>
</g>
<!-- Node1&#45;&gt;Node6 -->
<g id="edge5" class="edge">
<title>Node1&#45;&gt;Node6</title>
<path fill="none" stroke="midnightblue" d="M1835.34,-75.71C1648.57,-74.37 1199.14,-67.39 812.55,-31.02"/>
<polygon fill="midnightblue" stroke="midnightblue" points="812.86,-27.54 802.57,-30.08 812.19,-34.5 812.86,-27.54"/>
</g>
<!-- Node7 -->
<g id="node7" class="node">
<title>Node7</title>
<g id="a_node7"><a xlink:title=" ">
<polygon fill="white" stroke="#bfbfbf" points="821,-6 821,-25 886,-25 886,-6 821,-6"/>
<text text-anchor="middle" x="853.5" y="-13" font-family="Helvetica,sans-Serif" font-size="10.00">NaluEnv.h</text>
</a>
</g>
</g>
<!-- Node1&#45;&gt;Node7 -->
<g id="edge6" class="edge">
<title>Node1&#45;&gt;Node7</title>
<path fill="none" stroke="midnightblue" d="M1835.15,-75.48C1619.99,-73.69 1073.44,-65.75 894.5,-31 890.98,-30.32 887.36,-29.39 883.8,-28.33"/>
<polygon fill="midnightblue" stroke="midnightblue" points="884.62,-24.92 874.03,-25.1 882.42,-31.56 884.62,-24.92"/>
</g>
<!-- Node8 -->
<g id="node8" class="node">
<title>Node8</title>
<g id="a_node8"><a xlink:title=" ">
<polygon fill="white" stroke="#bfbfbf" points="904,-6 904,-25 987,-25 987,-6 904,-6"/>
<text text-anchor="middle" x="945.5" y="-13" font-family="Helvetica,sans-Serif" font-size="10.00">NaluParsing.h</text>
</a>
</g>
</g>
<!-- Node1&#45;&gt;Node8 -->
<g id="edge7" class="edge">
<title>Node1&#45;&gt;Node8</title>
<path fill="none" stroke="midnightblue" d="M1835.28,-74.29C1636.03,-70 1156.19,-57.22 996.5,-31 991.41,-30.16 986.1,-29 980.91,-27.69"/>
<polygon fill="midnightblue" stroke="midnightblue" points="981.75,-24.29 971.19,-25.04 979.91,-31.04 981.75,-24.29"/>
</g>
<!-- Node9 -->
<g id="node9" class="node">
<title>Node9</title>
<g id="a_node9"><a xlink:title=" ">
<polygon fill="white" stroke="#bfbfbf" points="1005.5,-0.5 1005.5,-30.5 1165.5,-30.5 1165.5,-0.5 1005.5,-0.5"/>
<text text-anchor="start" x="1013.5" y="-18.5" font-family="Helvetica,sans-Serif" font-size="10.00">TotalDissipationRateEquation</text>
<text text-anchor="middle" x="1085.5" y="-7.5" font-family="Helvetica,sans-Serif" font-size="10.00">System.h</text>
</a>
</g>
</g>
<!-- Node1&#45;&gt;Node9 -->
<g id="edge8" class="edge">
<title>Node1&#45;&gt;Node9</title>
<path fill="none" stroke="midnightblue" d="M1835.33,-73.6C1696.97,-69.19 1420.26,-57.79 1175.65,-31.05"/>
<polygon fill="midnightblue" stroke="midnightblue" points="1175.82,-27.55 1165.5,-29.93 1175.06,-34.5 1175.82,-27.55"/>
</g>
<!-- Node10 -->
<g id="node10" class="node">
<title>Node10</title>
<g id="a_node10"><a xlink:title=" ">
<polygon fill="white" stroke="#bfbfbf" points="1184,-6 1184,-25 1287,-25 1287,-6 1184,-6"/>
<text text-anchor="middle" x="1235.5" y="-13" font-family="Helvetica,sans-Serif" font-size="10.00">SolutionOptions.h</text>
</a>
</g>
</g>
<!-- Node1&#45;&gt;Node10 -->
<g id="edge9" class="edge">
<title>Node1&#45;&gt;Node10</title>
<path fill="none" stroke="midnightblue" d="M1835.36,-74.28C1713.38,-70.85 1486.54,-60.72 1295.5,-31 1289.25,-30.03 1282.68,-28.73 1276.29,-27.31"/>
<polygon fill="midnightblue" stroke="midnightblue" points="1276.98,-23.88 1266.45,-25.01 1275.39,-30.7 1276.98,-23.88"/>
</g>
<!-- Node11 -->
<g id="node11" class="node">
<title>Node11</title>
<g id="a_node11"><a xlink:title=" ">
<polygon fill="white" stroke="#bfbfbf" points="1305,-0.5 1305,-30.5 1452,-30.5 1452,-0.5 1305,-0.5"/>
<text text-anchor="start" x="1313" y="-18.5" font-family="Helvetica,sans-Serif" font-size="10.00">TurbKineticEnergyEquation</text>
<text text-anchor="middle" x="1378.5" y="-7.5" font-family="Helvetica,sans-Serif" font-size="10.00">System.h</text>
</a>
</g>
</g>
<!-- Node1&#45;&gt;Node11 -->
<g id="edge10" class="edge">
<title>Node1&#45;&gt;Node11</title>
<path fill="none" stroke="midnightblue" d="M1835.36,-69.49C1744.31,-62.3 1597.89,-49.43 1462.37,-31.19"/>
<polygon fill="midnightblue" stroke="midnightblue" points="1462.59,-27.69 1452.21,-29.81 1461.65,-34.63 1462.59,-27.69"/>
</g>
<!-- Node12 -->
<g id="node12" class="node">
<title>Node12</title>
<g id="a_node12"><a xlink:title=" ">
<polygon fill="white" stroke="#bfbfbf" points="1470,-6 1470,-25 1527,-25 1527,-6 1470,-6"/>
<text text-anchor="middle" x="1498.5" y="-13" font-family="Helvetica,sans-Serif" font-size="10.00">Realm.h</text>
</a>
</g>
</g>
<!-- Node1&#45;&gt;Node12 -->
<g id="edge11" class="edge">
<title>Node1&#45;&gt;Node12</title>
<path fill="none" stroke="midnightblue" d="M1835.17,-71.99C1756.01,-66.92 1637.18,-55.65 1536.5,-31 1533.67,-30.31 1530.77,-29.46 1527.89,-28.53"/>
<polygon fill="midnightblue" stroke="midnightblue" points="1528.91,-25.18 1518.32,-25.13 1526.57,-31.78 1528.91,-25.18"/>
</g>
<!-- Node13 -->
<g id="node13" class="node">
<title>Node13</title>
<g id="a_node13"><a xlink:title=" ">
<polygon fill="white" stroke="#bfbfbf" points="1545.5,-6 1545.5,-25 1633.5,-25 1633.5,-6 1545.5,-6"/>
<text text-anchor="middle" x="1589.5" y="-13" font-family="Helvetica,sans-Serif" font-size="10.00">FieldTypeDef.h</text>
</a>
</g>
</g>
<!-- Node1&#45;&gt;Node13 -->
<g id="edge12" class="edge">
<title>Node1&#45;&gt;Node13</title>
<path fill="none" stroke="midnightblue" d="M1857.55,-67.49C1800.36,-59.63 1715.54,-46.79 1642.5,-31 1637.85,-29.99 1633,-28.83 1628.2,-27.61"/>
<polygon fill="midnightblue" stroke="midnightblue" points="1629.08,-24.22 1618.52,-25.05 1627.29,-30.99 1629.08,-24.22"/>
</g>
<!-- Node14 -->
<g id="node14" class="node">
<title>Node14</title>
<g id="a_node14"><a xlink:title=" ">
<polygon fill="white" stroke="#bfbfbf" points="1651.5,-0.5 1651.5,-30.5 1811.5,-30.5 1811.5,-0.5 1651.5,-0.5"/>
<text text-anchor="start" x="1659.5" y="-18.5" font-family="Helvetica,sans-Serif" font-size="10.00">ngp_algorithms/GeometryAlg</text>
<text text-anchor="middle" x="1731.5" y="-7.5" font-family="Helvetica,sans-Serif" font-size="10.00">Driver.h</text>
</a>
</g>
</g>
<!-- Node1&#45;&gt;Node14 -->
<g id="edge13" class="edge">
<title>Node1&#45;&gt;Node14</title>
<path fill="none" stroke="midnightblue" d="M1895.99,-67.48C1867.56,-58.66 1822.4,-44.67 1786.58,-33.57"/>
<polygon fill="midnightblue" stroke="midnightblue" points="1787.34,-30.14 1776.75,-30.52 1785.27,-36.83 1787.34,-30.14"/>
</g>
<!-- Node15 -->
<g id="node15" class="node">
<title>Node15</title>
<g id="a_node15"><a xlink:title=" ">
<polygon fill="white" stroke="#bfbfbf" points="1829.5,-0.5 1829.5,-30.5 2017.5,-30.5 2017.5,-0.5 1829.5,-0.5"/>
<text text-anchor="start" x="1837.5" y="-18.5" font-family="Helvetica,sans-Serif" font-size="10.00">ngp_algorithms/WallFuncGeometry</text>
<text text-anchor="middle" x="1923.5" y="-7.5" font-family="Helvetica,sans-Serif" font-size="10.00">Alg.h</text>
</a>
</g>
</g>
<!-- Node1&#45;&gt;Node15 -->
<g id="edge14" class="edge">
<title>Node1&#45;&gt;Node15</title>
<path fill="none" stroke="midnightblue" d="M1923.5,-67.48C1923.5,-60.47 1923.5,-50.19 1923.5,-40.7"/>
<polygon fill="midnightblue" stroke="midnightblue" points="1927,-40.52 1923.5,-30.52 1920,-40.52 1927,-40.52"/>
</g>
<!-- Node16 -->
<g id="node16" class="node">
<title>Node16</title>
<g id="a_node16"><a xlink:title=" ">
<polygon fill="white" stroke="#bfbfbf" points="2035.5,-6 2035.5,-25 2173.5,-25 2173.5,-6 2035.5,-6"/>
<text text-anchor="middle" x="2104.5" y="-13" font-family="Helvetica,sans-Serif" font-size="10.00">ngp_utils/NgpLoopUtils.h</text>
</a>
</g>
</g>
<!-- Node1&#45;&gt;Node16 -->
<g id="edge15" class="edge">
<title>Node1&#45;&gt;Node16</title>
<path fill="none" stroke="midnightblue" d="M1949.43,-67.48C1980.75,-57.18 2033.59,-39.81 2068.76,-28.25"/>
<polygon fill="midnightblue" stroke="midnightblue" points="2070.21,-31.46 2078.62,-25.01 2068.02,-24.81 2070.21,-31.46"/>
</g>
<!-- Node17 -->
<g id="node17" class="node">
<title>Node17</title>
<g id="a_node17"><a xlink:title=" ">
<polygon fill="white" stroke="#bfbfbf" points="2191.5,-6 2191.5,-25 2329.5,-25 2329.5,-6 2191.5,-6"/>
<text text-anchor="middle" x="2260.5" y="-13" font-family="Helvetica,sans-Serif" font-size="10.00">ngp_utils/NgpFieldUtils.h</text>
</a>
</g>
</g>
<!-- Node1&#45;&gt;Node17 -->
<g id="edge16" class="edge">
<title>Node1&#45;&gt;Node17</title>
<path fill="none" stroke="midnightblue" d="M1973.67,-67.46C2025.86,-58.54 2109.96,-44.04 2182.5,-31 2189.85,-29.68 2197.59,-28.27 2205.22,-26.86"/>
<polygon fill="midnightblue" stroke="midnightblue" points="2205.95,-30.28 2215.15,-25.02 2204.68,-23.4 2205.95,-30.28"/>
</g>
<!-- Node18 -->
<g id="node18" class="node">
<title>Node18</title>
<g id="a_node18"><a xlink:title=" ">
<polygon fill="white" stroke="#bfbfbf" points="2348,-6 2348,-25 2489,-25 2489,-6 2348,-6"/>
<text text-anchor="middle" x="2418.5" y="-13" font-family="Helvetica,sans-Serif" font-size="10.00">ngp_utils/NgpFieldBLAS.h</text>
</a>
</g>
</g>
<!-- Node1&#45;&gt;Node18 -->
<g id="edge17" class="edge">
<title>Node1&#45;&gt;Node18</title>
<path fill="none" stroke="midnightblue" d="M2011.57,-68.29C2095.73,-60.48 2226.07,-47.26 2338.5,-31 2346.93,-29.78 2355.84,-28.33 2364.53,-26.82"/>
<polygon fill="midnightblue" stroke="midnightblue" points="2365.34,-30.23 2374.58,-25.04 2364.12,-23.34 2365.34,-30.23"/>
</g>
<!-- Node19 -->
<g id="node19" class="node">
<title>Node19</title>
<g id="a_node19"><a xlink:title=" ">
<polygon fill="white" stroke="#bfbfbf" points="2507.5,-6 2507.5,-25 2659.5,-25 2659.5,-6 2507.5,-6"/>
<text text-anchor="middle" x="2583.5" y="-13" font-family="Helvetica,sans-Serif" font-size="10.00">stk_util/parallel/Parallel.hpp</text>
</a>
</g>
</g>
<!-- Node1&#45;&gt;Node19 -->
<g id="edge18" class="edge">
<title>Node1&#45;&gt;Node19</title>
<path fill="none" stroke="midnightblue" d="M2011.91,-71.58C2125.02,-65.35 2326.84,-52.31 2498.5,-31 2508.09,-29.81 2518.25,-28.3 2528.09,-26.7"/>
<polygon fill="midnightblue" stroke="midnightblue" points="2528.89,-30.11 2538.18,-25.02 2527.74,-23.21 2528.89,-30.11"/>
</g>
<!-- Node20 -->
<g id="node20" class="node">
<title>Node20</title>
<g id="a_node20"><a xlink:title=" ">
<polygon fill="white" stroke="#bfbfbf" points="2678,-6 2678,-25 2781,-25 2781,-6 2678,-6"/>
<text text-anchor="middle" x="2729.5" y="-13" font-family="Helvetica,sans-Serif" font-size="10.00">utils/StkHelpers.h</text>
</a>
</g>
</g>
<!-- Node1&#45;&gt;Node20 -->
<g id="edge19" class="edge">
<title>Node1&#45;&gt;Node20</title>
<path fill="none" stroke="midnightblue" d="M2011.74,-75.6C2151.73,-73.85 2432.97,-65.84 2668.5,-31 2674.86,-30.06 2681.53,-28.78 2688.03,-27.37"/>
<polygon fill="midnightblue" stroke="midnightblue" points="2689.08,-30.72 2698.04,-25.08 2687.51,-23.9 2689.08,-30.72"/>
</g>
<!-- Node21 -->
<g id="node21" class="node">
<title>Node21</title>
<g id="a_node21"><a xlink:title=" ">
<polygon fill="white" stroke="#bfbfbf" points="2799,-6 2799,-25 2958,-25 2958,-6 2799,-6"/>
<text text-anchor="middle" x="2878.5" y="-13" font-family="Helvetica,sans-Serif" font-size="10.00">stk_mesh/base/BulkData.hpp</text>
</a>
</g>
</g>
<!-- Node1&#45;&gt;Node21 -->
<g id="edge20" class="edge">
<title>Node1&#45;&gt;Node21</title>
<path fill="none" stroke="midnightblue" d="M2011.75,-74.66C2168.79,-71.56 2506.9,-61.63 2790.5,-31 2800.88,-29.88 2811.9,-28.34 2822.5,-26.69"/>
<polygon fill="midnightblue" stroke="midnightblue" points="2823.19,-30.12 2832.5,-25.07 2822.07,-23.21 2823.19,-30.12"/>
</g>
<!-- Node22 -->
<g id="node22" class="node">
<title>Node22</title>
<g id="a_node22"><a xlink:title=" ">
<polygon fill="white" stroke="#bfbfbf" points="2976,-6 2976,-25 3113,-25 3113,-6 2976,-6"/>
<text text-anchor="middle" x="3044.5" y="-13" font-family="Helvetica,sans-Serif" font-size="10.00">stk_mesh/base/Field.hpp</text>
</a>
</g>
</g>
<!-- Node1&#45;&gt;Node22 -->
<g id="edge21" class="edge">
<title>Node1&#45;&gt;Node22</title>
<path fill="none" stroke="midnightblue" d="M2011.83,-76.44C2192.11,-76.41 2615.15,-71.56 2967.5,-31 2976.43,-29.97 2985.89,-28.51 2995,-26.9"/>
<polygon fill="midnightblue" stroke="midnightblue" points="2995.9,-30.29 3005.1,-25.04 2994.63,-23.41 2995.9,-30.29"/>
</g>
<!-- Node23 -->
<g id="node23" class="node">
<title>Node23</title>
<g id="a_node23"><a xlink:title=" ">
<polygon fill="white" stroke="#bfbfbf" points="3131,-6 3131,-25 3304,-25 3304,-6 3131,-6"/>
<text text-anchor="middle" x="3217.5" y="-13" font-family="Helvetica,sans-Serif" font-size="10.00">stk_mesh/base/FieldParallel.hpp</text>
</a>
</g>
</g>
<!-- Node1&#45;&gt;Node23 -->
<g id="edge22" class="edge">
<title>Node1&#45;&gt;Node23</title>
<path fill="none" stroke="midnightblue" d="M2011.73,-76.12C2210.48,-75.65 2708.26,-70.26 3122.5,-31 3134.31,-29.88 3146.88,-28.27 3158.89,-26.51"/>
<polygon fill="midnightblue" stroke="midnightblue" points="3159.45,-29.97 3168.81,-25.02 3158.41,-23.05 3159.45,-29.97"/>
</g>
<!-- Node24 -->
<g id="node24" class="node">
<title>Node24</title>
<g id="a_node24"><a xlink:title=" ">
<polygon fill="white" stroke="#bfbfbf" points="3322.5,-6 3322.5,-25 3484.5,-25 3484.5,-6 3322.5,-6"/>
<text text-anchor="middle" x="3403.5" y="-13" font-family="Helvetica,sans-Serif" font-size="10.00">stk_mesh/base/MetaData.hpp</text>
</a>
</g>
</g>
<!-- Node1&#45;&gt;Node24 -->
<g id="edge23" class="edge">
<title>Node1&#45;&gt;Node24</title>
<path fill="none" stroke="midnightblue" d="M2011.86,-74.61C2276.38,-70.23 3059.35,-55.49 3313.5,-31 3324.6,-29.93 3336.4,-28.35 3347.68,-26.63"/>
<polygon fill="midnightblue" stroke="midnightblue" points="3348.53,-30.03 3357.86,-25.01 3347.43,-23.12 3348.53,-30.03"/>
</g>
<!-- Node25 -->
<g id="node25" class="node">
<title>Node25</title>
<g id="a_node25"><a xlink:title=" ">
<polygon fill="white" stroke="#bfbfbf" points="3503,-6 3503,-25 3624,-25 3624,-6 3503,-6"/>
<text text-anchor="middle" x="3563.5" y="-13" font-family="Helvetica,sans-Serif" font-size="10.00">stk_io/IossBridge.hpp</text>
</a>
</g>
</g>
<!-- Node1&#45;&gt;Node25 -->
<g id="edge24" class="edge">
<title>Node1&#45;&gt;Node25</title>
<path fill="none" stroke="midnightblue" d="M2011.75,-75.51C2298.67,-73.59 3203.28,-64.95 3493.5,-31 3501.65,-30.05 3510.26,-28.62 3518.55,-27.02"/>
<polygon fill="midnightblue" stroke="midnightblue" points="3519.34,-30.44 3528.44,-25.02 3517.95,-23.57 3519.34,-30.44"/>
</g>
<!-- Node26 -->
<g id="node26" class="node">
<title>Node26</title>
<g id="a_node26"><a xlink:title=" ">
<polygon fill="white" stroke="#bfbfbf" points="3642,-6 3642,-25 3689,-25 3689,-6 3642,-6"/>
<text text-anchor="middle" x="3665.5" y="-13" font-family="Helvetica,sans-Serif" font-size="10.00">cmath</text>
</a>
</g>
</g>
<!-- Node1&#45;&gt;Node26 -->
<g id="edge25" class="edge">
<title>Node1&#45;&gt;Node26</title>
<path fill="none" stroke="midnightblue" d="M2011.52,-75.73C2338.87,-74.44 3475.22,-67.37 3633.5,-31 3635.86,-30.46 3638.25,-29.74 3640.62,-28.9"/>
<polygon fill="midnightblue" stroke="midnightblue" points="3642.08,-32.08 3649.99,-25.03 3639.41,-25.62 3642.08,-32.08"/>
</g>
<!-- Node27 -->
<g id="node27" class="node">
<title>Node27</title>
<g id="a_node27"><a xlink:title=" ">
<polygon fill="white" stroke="#bfbfbf" points="3707,-6 3707,-25 3754,-25 3754,-6 3707,-6"/>
<text text-anchor="middle" x="3730.5" y="-13" font-family="Helvetica,sans-Serif" font-size="10.00">vector</text>
</a>
</g>
</g>
<!-- Node1&#45;&gt;Node27 -->
<g id="edge26" class="edge">
<title>Node1&#45;&gt;Node27</title>
<path fill="none" stroke="midnightblue" d="M2011.69,-75.82C2347.23,-74.86 3533.67,-68.79 3698.5,-31 3700.86,-30.46 3703.25,-29.74 3705.62,-28.91"/>
<polygon fill="midnightblue" stroke="midnightblue" points="3707.08,-32.09 3714.99,-25.03 3704.41,-25.62 3707.08,-32.09"/>
</g>
<!-- Node28 -->
<g id="node28" class="node">
<title>Node28</title>
<g id="a_node28"><a xlink:title=" ">
<polygon fill="white" stroke="#bfbfbf" points="3772.5,-6 3772.5,-25 3828.5,-25 3828.5,-6 3772.5,-6"/>
<text text-anchor="middle" x="3800.5" y="-13" font-family="Helvetica,sans-Serif" font-size="10.00">iomanip</text>
</a>
</g>
</g>
<!-- Node1&#45;&gt;Node28 -->
<g id="edge27" class="edge">
<title>Node1&#45;&gt;Node28</title>
<path fill="none" stroke="midnightblue" d="M2011.62,-75.64C2354.76,-74.01 3591.12,-65.76 3763.5,-31 3766.58,-30.38 3769.73,-29.52 3772.84,-28.53"/>
<polygon fill="midnightblue" stroke="midnightblue" points="3774.24,-31.74 3782.44,-25.03 3771.85,-25.16 3774.24,-31.74"/>
</g>
</g>
</svg>
