<?xml version="1.0" encoding="UTF-8" standalone="no"?>
<!DOCTYPE svg PUBLIC "-//W3C//DTD SVG 1.1//EN"
 "http://www.w3.org/Graphics/SVG/1.1/DTD/svg11.dtd">
<!-- Generated by graphviz version 2.43.0 (0)
 -->
<!-- Title: ComputeVectorDivergence.C Pages: 1 -->
<svg width="2072pt" height="95pt"
 viewBox="0.00 0.00 2072.00 95.00" xmlns="http://www.w3.org/2000/svg" xmlns:xlink="http://www.w3.org/1999/xlink">
<g id="graph0" class="graph" transform="scale(1 1) rotate(0) translate(4 91)">
<title>ComputeVectorDivergence.C</title>
<polygon fill="white" stroke="transparent" points="-4,4 -4,-91 2068,-91 2068,4 -4,4"/>
<!-- Node1 -->
<g id="node1" class="node">
<title>Node1</title>
<g id="a_node1"><a xlink:title=" ">
<polygon fill="#bfbfbf" stroke="black" points="994.5,-67.5 994.5,-86.5 1151.5,-86.5 1151.5,-67.5 994.5,-67.5"/>
<text text-anchor="middle" x="1073" y="-74.5" font-family="Helvetica,sans-Serif" font-size="10.00">ComputeVectorDivergence.C</text>
</a>
</g>
</g>
<!-- Node2 -->
<g id="node2" class="node">
<title>Node2</title>
<g id="a_node2"><a xlink:title=" ">
<polygon fill="white" stroke="#bfbfbf" points="0,-6 0,-25 180,-25 180,-6 0,-6"/>
<text text-anchor="middle" x="90" y="-13" font-family="Helvetica,sans-Serif" font-size="10.00">utils/ComputeVectorDivergence.h</text>
</a>
</g>
</g>
<!-- Node1&#45;&gt;Node2 -->
<g id="edge1" class="edge">
<title>Node1&#45;&gt;Node2</title>
<path fill="none" stroke="midnightblue" d="M994.47,-74.49C839.91,-70.98 485.5,-60.19 189,-31 176.98,-29.82 164.19,-28.21 151.93,-26.49"/>
<polygon fill="midnightblue" stroke="midnightblue" points="152.18,-22.99 141.78,-25.03 151.18,-29.92 152.18,-22.99"/>
</g>
<!-- Node3 -->
<g id="node3" class="node">
<title>Node3</title>
<g id="a_node3"><a xlink:title=" ">
<polygon fill="white" stroke="#bfbfbf" points="198.5,-6 198.5,-25 381.5,-25 381.5,-6 198.5,-6"/>
<text text-anchor="middle" x="290" y="-13" font-family="Helvetica,sans-Serif" font-size="10.00">master_element/MasterElement.h</text>
</a>
</g>
</g>
<!-- Node1&#45;&gt;Node3 -->
<g id="edge2" class="edge">
<title>Node1&#45;&gt;Node3</title>
<path fill="none" stroke="midnightblue" d="M994.33,-72.77C867.22,-67.12 608.89,-53.79 391,-31 379.03,-29.75 366.29,-28.14 354.04,-26.45"/>
<polygon fill="midnightblue" stroke="midnightblue" points="354.28,-22.95 343.89,-25.02 353.31,-29.88 354.28,-22.95"/>
</g>
<!-- Node4 -->
<g id="node4" class="node">
<title>Node4</title>
<g id="a_node4"><a xlink:title=" ">
<polygon fill="white" stroke="#bfbfbf" points="400,-0.5 400,-30.5 574,-30.5 574,-0.5 400,-0.5"/>
<text text-anchor="start" x="408" y="-18.5" font-family="Helvetica,sans-Serif" font-size="10.00">master_element/MasterElement</text>
<text text-anchor="middle" x="487" y="-7.5" font-family="Helvetica,sans-Serif" font-size="10.00">Repo.h</text>
</a>
</g>
</g>
<!-- Node1&#45;&gt;Node4 -->
<g id="edge3" class="edge">
<title>Node1&#45;&gt;Node4</title>
<path fill="none" stroke="midnightblue" d="M994.35,-70.2C899.52,-62.88 735.06,-49.17 584.02,-31.08"/>
<polygon fill="midnightblue" stroke="midnightblue" points="584.44,-27.6 574.09,-29.88 583.6,-34.55 584.44,-27.6"/>
</g>
<!-- Node5 -->
<g id="node5" class="node">
<title>Node5</title>
<g id="a_node5"><a xlink:title=" ">
<polygon fill="white" stroke="#bfbfbf" points="592.5,-6 592.5,-25 725.5,-25 725.5,-6 592.5,-6"/>
<text text-anchor="middle" x="659" y="-13" font-family="Helvetica,sans-Serif" font-size="10.00">stk_mesh/base/Part.hpp</text>
</a>
</g>
</g>
<!-- Node1&#45;&gt;Node5 -->
<g id="edge4" class="edge">
<title>Node1&#45;&gt;Node5</title>
<path fill="none" stroke="midnightblue" d="M999.08,-67.46C930.28,-59.21 824.97,-45.82 734,-31 726.54,-29.78 718.68,-28.39 710.97,-26.96"/>
<polygon fill="midnightblue" stroke="midnightblue" points="711.45,-23.49 700.97,-25.07 710.14,-30.37 711.45,-23.49"/>
</g>
<!-- Node6 -->
<g id="node6" class="node">
<title>Node6</title>
<g id="a_node6"><a xlink:title=" ">
<polygon fill="white" stroke="#bfbfbf" points="743.5,-6 743.5,-25 884.5,-25 884.5,-6 743.5,-6"/>
<text text-anchor="middle" x="814" y="-13" font-family="Helvetica,sans-Serif" font-size="10.00">stk_mesh/base/Entity.hpp</text>
</a>
</g>
</g>
<!-- Node1&#45;&gt;Node6 -->
<g id="edge5" class="edge">
<title>Node1&#45;&gt;Node6</title>
<path fill="none" stroke="midnightblue" d="M1035.89,-67.48C989.83,-56.89 911.23,-38.84 861,-27.3"/>
<polygon fill="midnightblue" stroke="midnightblue" points="861.57,-23.84 851.04,-25.01 860,-30.66 861.57,-23.84"/>
</g>
<!-- Node7 -->
<g id="node7" class="node">
<title>Node7</title>
<g id="a_node7"><a xlink:title=" ">
<polygon fill="white" stroke="#bfbfbf" points="903,-6 903,-25 1065,-25 1065,-6 903,-6"/>
<text text-anchor="middle" x="984" y="-13" font-family="Helvetica,sans-Serif" font-size="10.00">stk_mesh/base/MetaData.hpp</text>
</a>
</g>
</g>
<!-- Node1&#45;&gt;Node7 -->
<g id="edge6" class="edge">
<title>Node1&#45;&gt;Node7</title>
<path fill="none" stroke="midnightblue" d="M1060.25,-67.48C1045.97,-57.93 1022.6,-42.31 1005.49,-30.87"/>
<polygon fill="midnightblue" stroke="midnightblue" points="1006.99,-27.66 996.73,-25.01 1003.1,-33.48 1006.99,-27.66"/>
</g>
<!-- Node8 -->
<g id="node8" class="node">
<title>Node8</title>
<g id="a_node8"><a xlink:title=" ">
<polygon fill="white" stroke="#bfbfbf" points="1083.5,-6 1083.5,-25 1242.5,-25 1242.5,-6 1083.5,-6"/>
<text text-anchor="middle" x="1163" y="-13" font-family="Helvetica,sans-Serif" font-size="10.00">stk_mesh/base/BulkData.hpp</text>
</a>
</g>
</g>
<!-- Node1&#45;&gt;Node8 -->
<g id="edge7" class="edge">
<title>Node1&#45;&gt;Node8</title>
<path fill="none" stroke="midnightblue" d="M1085.89,-67.48C1100.46,-57.84 1124.4,-42.02 1141.75,-30.55"/>
<polygon fill="midnightblue" stroke="midnightblue" points="1143.72,-33.44 1150.13,-25.01 1139.86,-27.6 1143.72,-33.44"/>
</g>
<!-- Node9 -->
<g id="node9" class="node">
<title>Node9</title>
<g id="a_node9"><a xlink:title=" ">
<polygon fill="white" stroke="#bfbfbf" points="1260.5,-6 1260.5,-25 1397.5,-25 1397.5,-6 1260.5,-6"/>
<text text-anchor="middle" x="1329" y="-13" font-family="Helvetica,sans-Serif" font-size="10.00">stk_mesh/base/Field.hpp</text>
</a>
</g>
</g>
<!-- Node1&#45;&gt;Node9 -->
<g id="edge8" class="edge">
<title>Node1&#45;&gt;Node9</title>
<path fill="none" stroke="midnightblue" d="M1109.68,-67.48C1155.21,-56.89 1232.9,-38.84 1282.55,-27.3"/>
<polygon fill="midnightblue" stroke="midnightblue" points="1283.44,-30.68 1292.39,-25.01 1281.86,-23.86 1283.44,-30.68"/>
</g>
<!-- Node10 -->
<g id="node10" class="node">
<title>Node10</title>
<g id="a_node10"><a xlink:title=" ">
<polygon fill="white" stroke="#bfbfbf" points="1415.5,-6 1415.5,-25 1588.5,-25 1588.5,-6 1415.5,-6"/>
<text text-anchor="middle" x="1502" y="-13" font-family="Helvetica,sans-Serif" font-size="10.00">stk_mesh/base/FieldParallel.hpp</text>
</a>
</g>
</g>
<!-- Node1&#45;&gt;Node10 -->
<g id="edge9" class="edge">
<title>Node1&#45;&gt;Node10</title>
<path fill="none" stroke="midnightblue" d="M1138.96,-67.46C1206.36,-58.65 1314.05,-44.35 1407,-31 1416.78,-29.59 1427.13,-28.06 1437.25,-26.54"/>
<polygon fill="midnightblue" stroke="midnightblue" points="1437.9,-29.98 1447.27,-25.02 1436.86,-23.06 1437.9,-29.98"/>
</g>
<!-- Node11 -->
<g id="node11" class="node">
<title>Node11</title>
<g id="a_node11"><a xlink:title=" ">
<polygon fill="white" stroke="#bfbfbf" points="1606.5,-6 1606.5,-25 1769.5,-25 1769.5,-6 1606.5,-6"/>
<text text-anchor="middle" x="1688" y="-13" font-family="Helvetica,sans-Serif" font-size="10.00">stk_mesh/base/FieldBLAS.hpp</text>
</a>
</g>
</g>
<!-- Node1&#45;&gt;Node11 -->
<g id="edge10" class="edge">
<title>Node1&#45;&gt;Node11</title>
<path fill="none" stroke="midnightblue" d="M1151.91,-71.07C1254.79,-64.22 1440.25,-50.44 1598,-31 1608.01,-29.77 1618.62,-28.25 1628.91,-26.66"/>
<polygon fill="midnightblue" stroke="midnightblue" points="1629.72,-30.08 1639.05,-25.06 1628.63,-23.16 1629.72,-30.08"/>
</g>
<!-- Node12 -->
<g id="node12" class="node">
<title>Node12</title>
<g id="a_node12"><a xlink:title=" ">
<polygon fill="white" stroke="#bfbfbf" points="1788,-6 1788,-25 1958,-25 1958,-6 1788,-6"/>
<text text-anchor="middle" x="1873" y="-13" font-family="Helvetica,sans-Serif" font-size="10.00">stk_mesh/base/GetBuckets.hpp</text>
</a>
</g>
</g>
<!-- Node1&#45;&gt;Node12 -->
<g id="edge11" class="edge">
<title>Node1&#45;&gt;Node12</title>
<path fill="none" stroke="midnightblue" d="M1151.55,-73.29C1282.11,-68.26 1551.9,-55.7 1779,-31 1790.06,-29.8 1801.81,-28.22 1813.12,-26.56"/>
<polygon fill="midnightblue" stroke="midnightblue" points="1813.99,-29.96 1823.35,-25.01 1812.94,-23.04 1813.99,-29.96"/>
</g>
<!-- Node13 -->
<g id="node13" class="node">
<title>Node13</title>
<g id="a_node13"><a xlink:title=" ">
<polygon fill="white" stroke="#bfbfbf" points="1976,-6 1976,-25 2064,-25 2064,-6 1976,-6"/>
<text text-anchor="middle" x="2020" y="-13" font-family="Helvetica,sans-Serif" font-size="10.00">FieldTypeDef.h</text>
</a>
</g>
</g>
<!-- Node1&#45;&gt;Node13 -->
<g id="edge12" class="edge">
<title>Node1&#45;&gt;Node13</title>
<path fill="none" stroke="midnightblue" d="M1151.71,-74.23C1339.78,-69.63 1811.15,-55.94 1967,-31 1972.42,-30.13 1978.07,-28.92 1983.59,-27.57"/>
<polygon fill="midnightblue" stroke="midnightblue" points="1984.5,-30.95 1993.28,-25.02 1982.72,-24.18 1984.5,-30.95"/>
</g>
</g>
</svg>
