<?xml version="1.0" encoding="UTF-8" standalone="no"?>
<!DOCTYPE svg PUBLIC "-//W3C//DTD SVG 1.1//EN"
 "http://www.w3.org/Graphics/SVG/1.1/DTD/svg11.dtd">
<!-- Generated by graphviz version 2.43.0 (0)
 -->
<!-- Title: ComputeWallFrictionVelocityAlgorithm.C Pages: 1 -->
<!--zoomable 106 -->
<svg id="main" version="1.1" xmlns="http://www.w3.org/2000/svg" xmlns:xlink="http://www.w3.org/1999/xlink" xml:space="preserve" onload="init(evt)">
<style type="text/css"><![CDATA[
.edge:hover path { stroke: red; }
.edge:hover polygon { stroke: red; fill: red; }
]]></style>
<script type="text/javascript"><![CDATA[
var edges = document.getElementsByTagName('g');
if (edges && edges.length) {
  for (var i=0;i<edges.length;i++) {
    if (edges[i].id.substr(0,4)=='edge') {
      edges[i].setAttribute('class','edge');
    }
  }
}
]]></script>
        <defs>
                <circle id="rim" cx="0" cy="0" r="7"/>
                <circle id="rim2" cx="0" cy="0" r="3.5"/>
                <g id="zoomPlus">
                        <use xlink:href="#rim" fill="#404040">
                                <set attributeName="fill" to="#808080" begin="zoomplus.mouseover" end="zoomplus.mouseout"/>
                        </use>
                        <path d="M-4,0h8M0,-4v8" fill="none" stroke="white" stroke-width="1.5" pointer-events="none"/>
                </g>
                <g id="zoomMin">
                        <use xlink:href="#rim" fill="#404040">
                                <set attributeName="fill" to="#808080" begin="zoomminus.mouseover" end="zoomminus.mouseout"/>
                        </use>
                        <path d="M-4,0h8" fill="none" stroke="white" stroke-width="1.5" pointer-events="none"/>
                </g>
                <g id="dirArrow">
                        <path fill="none" stroke="white" stroke-width="1.5" d="M0,-3.0v7 M-2.5,-0.5L0,-3.0L2.5,-0.5"/>
                </g>
               <g id="resetDef">
                       <use xlink:href="#rim2" fill="#404040">
                               <set attributeName="fill" to="#808080" begin="reset.mouseover" end="reset.mouseout"/>
                       </use>
               </g>
        </defs>

<script type="text/javascript">
var viewWidth = 2311;
var viewHeight = 106;
var sectionId = 'dynsection-0';
</script>
<script xlink:href="svgpan.js"/>
<svg id="graph" class="graph">
<g id="viewport">
<title>ComputeWallFrictionVelocityAlgorithm.C</title>
<polygon fill="white" stroke="transparent" points="-4,4 -4,-102 2307,-102 2307,4 -4,4"/>
<!-- Node1 -->
<g id="node1" class="node">
<title>Node1</title>
<g id="a_node1"><a xlink:title=" ">
<polygon fill="#bfbfbf" stroke="black" points="958,-67.5 958,-97.5 1115,-97.5 1115,-67.5 958,-67.5"/>
<text text-anchor="start" x="966" y="-85.5" font-family="Helvetica,sans-Serif" font-size="10.00">ComputeWallFrictionVelocity</text>
<text text-anchor="middle" x="1036.5" y="-74.5" font-family="Helvetica,sans-Serif" font-size="10.00">Algorithm.C</text>
</a>
</g>
</g>
<!-- Node2 -->
<g id="node2" class="node">
<title>Node2</title>
<g id="a_node2"><a xlink:title=" ">
<polygon fill="white" stroke="#bfbfbf" points="0,-0.5 0,-30.5 157,-30.5 157,-0.5 0,-0.5"/>
<text text-anchor="start" x="8" y="-18.5" font-family="Helvetica,sans-Serif" font-size="10.00">ComputeWallFrictionVelocity</text>
<text text-anchor="middle" x="78.5" y="-7.5" font-family="Helvetica,sans-Serif" font-size="10.00">Algorithm.h</text>
</a>
</g>
</g>
<!-- Node1&#45;&gt;Node2 -->
<g id="edge1" class="edge">
<title>Node1&#45;&gt;Node2</title>
<path fill="none" stroke="midnightblue" d="M957.99,-79.71C806.89,-75.67 465.07,-63.58 167.26,-30.99"/>
<polygon fill="midnightblue" stroke="midnightblue" points="167.45,-27.49 157.13,-29.88 166.68,-34.45 167.45,-27.49"/>
</g>
<!-- Node3 -->
<g id="node3" class="node">
<title>Node3</title>
<g id="a_node3"><a xlink:title=" ">
<polygon fill="white" stroke="#bfbfbf" points="175.5,-6 175.5,-25 249.5,-25 249.5,-6 175.5,-6"/>
<text text-anchor="middle" x="212.5" y="-13" font-family="Helvetica,sans-Serif" font-size="10.00">Algorithm.h</text>
</a>
</g>
</g>
<!-- Node1&#45;&gt;Node3 -->
<g id="edge2" class="edge">
<title>Node1&#45;&gt;Node3</title>
<path fill="none" stroke="midnightblue" d="M957.97,-78.8C788.06,-72.57 390.96,-55.8 258.5,-31 254.33,-30.22 250.02,-29.18 245.77,-28.02"/>
<polygon fill="midnightblue" stroke="midnightblue" points="246.68,-24.64 236.1,-25.13 244.68,-31.34 246.68,-24.64"/>
</g>
<!-- Node4 -->
<g id="node4" class="node">
<title>Node4</title>
<g id="a_node4"><a xlink:title=" ">
<polygon fill="white" stroke="#bfbfbf" points="267.5,-6 267.5,-25 355.5,-25 355.5,-6 267.5,-6"/>
<text text-anchor="middle" x="311.5" y="-13" font-family="Helvetica,sans-Serif" font-size="10.00">FieldTypeDef.h</text>
</a>
</g>
</g>
<!-- Node1&#45;&gt;Node4 -->
<g id="edge3" class="edge">
<title>Node1&#45;&gt;Node4</title>
<path fill="none" stroke="midnightblue" d="M957.79,-80.47C831.67,-77.72 576.92,-67.69 364.5,-31 359.34,-30.11 353.97,-28.94 348.7,-27.64"/>
<polygon fill="midnightblue" stroke="midnightblue" points="349.34,-24.19 338.78,-25.04 347.57,-30.96 349.34,-24.19"/>
</g>
<!-- Node5 -->
<g id="node5" class="node">
<title>Node5</title>
<g id="a_node5"><a xlink:title=" ">
<polygon fill="white" stroke="#bfbfbf" points="374,-6 374,-25 431,-25 431,-6 374,-6"/>
<text text-anchor="middle" x="402.5" y="-13" font-family="Helvetica,sans-Serif" font-size="10.00">Realm.h</text>
</a>
</g>
</g>
<!-- Node1&#45;&gt;Node5 -->
<g id="edge4" class="edge">
<title>Node1&#45;&gt;Node5</title>
<path fill="none" stroke="midnightblue" d="M957.62,-82.02C842.3,-81.17 621.59,-73.43 439.5,-31 436.67,-30.34 433.76,-29.5 430.88,-28.57"/>
<polygon fill="midnightblue" stroke="midnightblue" points="431.96,-25.23 421.37,-25.11 429.57,-31.81 431.96,-25.23"/>
</g>
<!-- Node6 -->
<g id="node6" class="node">
<title>Node6</title>
<g id="a_node6"><a xlink:title=" ">
<polygon fill="white" stroke="#bfbfbf" points="449,-6 449,-25 632,-25 632,-6 449,-6"/>
<text text-anchor="middle" x="540.5" y="-13" font-family="Helvetica,sans-Serif" font-size="10.00">master_element/MasterElement.h</text>
</a>
</g>
</g>
<!-- Node1&#45;&gt;Node6 -->
<g id="edge5" class="edge">
<title>Node1&#45;&gt;Node6</title>
<path fill="none" stroke="midnightblue" d="M957.76,-71.8C878,-61.88 751.11,-45.87 641.5,-31 630.88,-29.56 619.64,-27.99 608.67,-26.43"/>
<polygon fill="midnightblue" stroke="midnightblue" points="609.09,-22.96 598.69,-25.01 608.1,-29.89 609.09,-22.96"/>
</g>
<!-- Node7 -->
<g id="node7" class="node">
<title>Node7</title>
<g id="a_node7"><a xlink:title=" ">
<polygon fill="white" stroke="#bfbfbf" points="650.5,-0.5 650.5,-30.5 824.5,-30.5 824.5,-0.5 650.5,-0.5"/>
<text text-anchor="start" x="658.5" y="-18.5" font-family="Helvetica,sans-Serif" font-size="10.00">master_element/MasterElement</text>
<text text-anchor="middle" x="737.5" y="-7.5" font-family="Helvetica,sans-Serif" font-size="10.00">Repo.h</text>
</a>
</g>
</g>
<!-- Node1&#45;&gt;Node7 -->
<g id="edge6" class="edge">
<title>Node1&#45;&gt;Node7</title>
<path fill="none" stroke="midnightblue" d="M971.99,-67.48C925.01,-57.26 861.27,-43.41 812.1,-32.72"/>
<polygon fill="midnightblue" stroke="midnightblue" points="812.67,-29.26 802.15,-30.55 811.18,-36.1 812.67,-29.26"/>
</g>
<!-- Node8 -->
<g id="node8" class="node">
<title>Node8</title>
<g id="a_node8"><a xlink:title=" ">
<polygon fill="white" stroke="#bfbfbf" points="843,-6 843,-25 908,-25 908,-6 843,-6"/>
<text text-anchor="middle" x="875.5" y="-13" font-family="Helvetica,sans-Serif" font-size="10.00">NaluEnv.h</text>
</a>
</g>
</g>
<!-- Node1&#45;&gt;Node8 -->
<g id="edge7" class="edge">
<title>Node1&#45;&gt;Node8</title>
<path fill="none" stroke="midnightblue" d="M1001.57,-67.4C973.07,-55.89 933.21,-39.8 905.98,-28.81"/>
<polygon fill="midnightblue" stroke="midnightblue" points="907.15,-25.51 896.57,-25.01 904.53,-32 907.15,-25.51"/>
</g>
<!-- Node9 -->
<g id="node9" class="node">
<title>Node9</title>
<g id="a_node9"><a xlink:title=" ">
<polygon fill="white" stroke="#bfbfbf" points="926,-6 926,-25 1009,-25 1009,-6 926,-6"/>
<text text-anchor="middle" x="967.5" y="-13" font-family="Helvetica,sans-Serif" font-size="10.00">NaluParsing.h</text>
</a>
</g>
</g>
<!-- Node1&#45;&gt;Node9 -->
<g id="edge8" class="edge">
<title>Node1&#45;&gt;Node9</title>
<path fill="none" stroke="midnightblue" d="M1021.53,-67.4C1010.56,-57.06 995.66,-43.02 984.28,-32.31"/>
<polygon fill="midnightblue" stroke="midnightblue" points="986.41,-29.5 976.73,-25.19 981.61,-34.6 986.41,-29.5"/>
</g>
<!-- Node10 -->
<g id="node10" class="node">
<title>Node10</title>
<g id="a_node10"><a xlink:title=" ">
<polygon fill="white" stroke="#bfbfbf" points="1027,-6 1027,-25 1186,-25 1186,-6 1027,-6"/>
<text text-anchor="middle" x="1106.5" y="-13" font-family="Helvetica,sans-Serif" font-size="10.00">stk_mesh/base/BulkData.hpp</text>
</a>
</g>
</g>
<!-- Node1&#45;&gt;Node10 -->
<g id="edge9" class="edge">
<title>Node1&#45;&gt;Node10</title>
<path fill="none" stroke="midnightblue" d="M1051.69,-67.4C1062.82,-57.06 1077.94,-43.02 1089.47,-32.31"/>
<polygon fill="midnightblue" stroke="midnightblue" points="1092.19,-34.56 1097.14,-25.19 1087.43,-29.43 1092.19,-34.56"/>
</g>
<!-- Node11 -->
<g id="node11" class="node">
<title>Node11</title>
<g id="a_node11"><a xlink:title=" ">
<polygon fill="white" stroke="#bfbfbf" points="1204,-6 1204,-25 1341,-25 1341,-6 1204,-6"/>
<text text-anchor="middle" x="1272.5" y="-13" font-family="Helvetica,sans-Serif" font-size="10.00">stk_mesh/base/Field.hpp</text>
</a>
</g>
</g>
<!-- Node1&#45;&gt;Node11 -->
<g id="edge10" class="edge">
<title>Node1&#45;&gt;Node11</title>
<path fill="none" stroke="midnightblue" d="M1087.42,-67.48C1130.64,-55.57 1191.84,-38.72 1231.84,-27.7"/>
<polygon fill="midnightblue" stroke="midnightblue" points="1232.82,-31.06 1241.53,-25.03 1230.96,-24.31 1232.82,-31.06"/>
</g>
<!-- Node12 -->
<g id="node12" class="node">
<title>Node12</title>
<g id="a_node12"><a xlink:title=" ">
<polygon fill="white" stroke="#bfbfbf" points="1359,-6 1359,-25 1532,-25 1532,-6 1359,-6"/>
<text text-anchor="middle" x="1445.5" y="-13" font-family="Helvetica,sans-Serif" font-size="10.00">stk_mesh/base/FieldParallel.hpp</text>
</a>
</g>
</g>
<!-- Node1&#45;&gt;Node12 -->
<g id="edge11" class="edge">
<title>Node1&#45;&gt;Node12</title>
<path fill="none" stroke="midnightblue" d="M1115.36,-68.97C1192.91,-56.64 1309.81,-38.06 1381.7,-26.64"/>
<polygon fill="midnightblue" stroke="midnightblue" points="1382.64,-30.03 1391.96,-25.01 1381.54,-23.12 1382.64,-30.03"/>
</g>
<!-- Node13 -->
<g id="node13" class="node">
<title>Node13</title>
<g id="a_node13"><a xlink:title=" ">
<polygon fill="white" stroke="#bfbfbf" points="1550.5,-6 1550.5,-25 1720.5,-25 1720.5,-6 1550.5,-6"/>
<text text-anchor="middle" x="1635.5" y="-13" font-family="Helvetica,sans-Serif" font-size="10.00">stk_mesh/base/GetBuckets.hpp</text>
</a>
</g>
</g>
<!-- Node1&#45;&gt;Node13 -->
<g id="edge12" class="edge">
<title>Node1&#45;&gt;Node13</title>
<path fill="none" stroke="midnightblue" d="M1115.37,-74.93C1214.87,-66.33 1391.16,-50.1 1541.5,-31 1551.8,-29.69 1562.72,-28.15 1573.32,-26.57"/>
<polygon fill="midnightblue" stroke="midnightblue" points="1574,-30.01 1583.36,-25.05 1572.95,-23.09 1574,-30.01"/>
</g>
<!-- Node14 -->
<g id="node14" class="node">
<title>Node14</title>
<g id="a_node14"><a xlink:title=" ">
<polygon fill="white" stroke="#bfbfbf" points="1738.5,-6 1738.5,-25 1906.5,-25 1906.5,-6 1738.5,-6"/>
<text text-anchor="middle" x="1822.5" y="-13" font-family="Helvetica,sans-Serif" font-size="10.00">stk_mesh/base/GetEntities.hpp</text>
</a>
</g>
</g>
<!-- Node1&#45;&gt;Node14 -->
<g id="edge13" class="edge">
<title>Node1&#45;&gt;Node14</title>
<path fill="none" stroke="midnightblue" d="M1115.16,-77.87C1243.89,-71.46 1507.47,-56.36 1729.5,-31 1740.31,-29.77 1751.8,-28.19 1762.87,-26.54"/>
<polygon fill="midnightblue" stroke="midnightblue" points="1763.53,-29.98 1772.89,-25.01 1762.48,-23.06 1763.53,-29.98"/>
</g>
<!-- Node15 -->
<g id="node15" class="node">
<title>Node15</title>
<g id="a_node15"><a xlink:title=" ">
<polygon fill="white" stroke="#bfbfbf" points="1924.5,-6 1924.5,-25 2086.5,-25 2086.5,-6 1924.5,-6"/>
<text text-anchor="middle" x="2005.5" y="-13" font-family="Helvetica,sans-Serif" font-size="10.00">stk_mesh/base/MetaData.hpp</text>
</a>
</g>
</g>
<!-- Node1&#45;&gt;Node15 -->
<g id="edge14" class="edge">
<title>Node1&#45;&gt;Node15</title>
<path fill="none" stroke="midnightblue" d="M1115.22,-79.68C1269.28,-75.52 1621.28,-63.07 1915.5,-31 1926.22,-29.83 1937.61,-28.26 1948.55,-26.58"/>
<polygon fill="midnightblue" stroke="midnightblue" points="1949.12,-30.03 1958.45,-25.01 1948.02,-23.12 1949.12,-30.03"/>
</g>
<!-- Node16 -->
<g id="node16" class="node">
<title>Node16</title>
<g id="a_node16"><a xlink:title=" ">
<polygon fill="white" stroke="#bfbfbf" points="2105,-6 2105,-25 2238,-25 2238,-6 2105,-6"/>
<text text-anchor="middle" x="2171.5" y="-13" font-family="Helvetica,sans-Serif" font-size="10.00">stk_mesh/base/Part.hpp</text>
</a>
</g>
</g>
<!-- Node1&#45;&gt;Node16 -->
<g id="edge15" class="edge">
<title>Node1&#45;&gt;Node16</title>
<path fill="none" stroke="midnightblue" d="M1115.2,-81.53C1291.41,-80.76 1730.85,-74.26 2095.5,-31 2104.32,-29.95 2113.65,-28.48 2122.65,-26.87"/>
<polygon fill="midnightblue" stroke="midnightblue" points="2123.42,-30.29 2132.61,-25.01 2122.14,-23.41 2123.42,-30.29"/>
</g>
<!-- Node17 -->
<g id="node17" class="node">
<title>Node17</title>
<g id="a_node17"><a xlink:title=" ">
<polygon fill="white" stroke="#bfbfbf" points="2256,-6 2256,-25 2303,-25 2303,-6 2256,-6"/>
<text text-anchor="middle" x="2279.5" y="-13" font-family="Helvetica,sans-Serif" font-size="10.00">cmath</text>
</a>
</g>
</g>
<!-- Node1&#45;&gt;Node17 -->
<g id="edge16" class="edge">
<title>Node1&#45;&gt;Node17</title>
<path fill="none" stroke="midnightblue" d="M1115.17,-82.13C1348.09,-83.37 2031.4,-82.41 2247.5,-31 2249.72,-30.47 2251.97,-29.79 2254.2,-29.01"/>
<polygon fill="midnightblue" stroke="midnightblue" points="2255.73,-32.16 2263.65,-25.13 2253.07,-25.69 2255.73,-32.16"/>
</g>
</g>
</svg>
        <g id="navigator" transform="translate(0 0)" fill="#404254">
                <rect fill="#f2f5e9" fill-opacity="0.5" stroke="#606060" stroke-width=".5" x="0" y="0" width="60" height="60"/>
                <use id="zoomplus" xlink:href="#zoomPlus" x="17" y="9" onmousedown="handleZoom(evt,'in')"/>
                <use id="zoomminus" xlink:href="#zoomMin" x="42" y="9" onmousedown="handleZoom(evt,'out')"/>
                <use id="reset" xlink:href="#resetDef" x="30" y="36" onmousedown="handleReset()"/>
                <g id="arrowUp" xlink:href="#dirArrow" transform="translate(30 24)" onmousedown="handlePan(0,-1)">
                  <use xlink:href="#rim" fill="#404040">
                        <set attributeName="fill" to="#808080" begin="arrowUp.mouseover" end="arrowUp.mouseout"/>
                  </use>
                  <path fill="none" stroke="white" stroke-width="1.5" d="M0,-3.0v7 M-2.5,-0.5L0,-3.0L2.5,-0.5"/>
                </g>
                <g id="arrowRight" xlink:href="#dirArrow" transform="rotate(90) translate(36 -43)" onmousedown="handlePan(1,0)">
                  <use xlink:href="#rim" fill="#404040">
                        <set attributeName="fill" to="#808080" begin="arrowRight.mouseover" end="arrowRight.mouseout"/>
                  </use>
                  <path fill="none" stroke="white" stroke-width="1.5" d="M0,-3.0v7 M-2.5,-0.5L0,-3.0L2.5,-0.5"/>
                </g>
                <g id="arrowDown" xlink:href="#dirArrow" transform="rotate(180) translate(-30 -48)" onmousedown="handlePan(0,1)">
                  <use xlink:href="#rim" fill="#404040">
                        <set attributeName="fill" to="#808080" begin="arrowDown.mouseover" end="arrowDown.mouseout"/>
                  </use>
                  <path fill="none" stroke="white" stroke-width="1.5" d="M0,-3.0v7 M-2.5,-0.5L0,-3.0L2.5,-0.5"/>
                </g>
                <g id="arrowLeft" xlink:href="#dirArrow" transform="rotate(270) translate(-36 17)" onmousedown="handlePan(-1,0)">
                  <use xlink:href="#rim" fill="#404040">
                        <set attributeName="fill" to="#808080" begin="arrowLeft.mouseover" end="arrowLeft.mouseout"/>
                  </use>
                  <path fill="none" stroke="white" stroke-width="1.5" d="M0,-3.0v7 M-2.5,-0.5L0,-3.0L2.5,-0.5"/>
                </g>
        </g>
        <svg viewBox="0 0 15 15" width="100%" height="30px" preserveAspectRatio="xMaxYMin meet">
         <g id="arrow_out" transform="scale(0.3 0.3)">
          <a xlink:href="_compute_wall_friction_velocity_algorithm_8_c__incl_org.svg" target="_base">
           <rect id="button" ry="5" rx="5" y="6" x="6" height="38" width="38"
                fill="#f2f5e9" fill-opacity="0.5" stroke="#606060" stroke-width="1.0"/>
           <path id="arrow"
             d="M 11.500037,31.436501 C 11.940474,20.09759 22.043105,11.32322 32.158766,21.979434 L 37.068811,17.246167 C 37.068811,17.246167 37.088388,32 37.088388,32 L 22.160133,31.978069 C 22.160133,31.978069 26.997745,27.140456 26.997745,27.140456 C 18.528582,18.264221 13.291696,25.230495 11.500037,31.436501 z"
             style="fill:#404040;"/>
          </a>
         </g>
        </svg>
</svg>
