<?xml version="1.0" encoding="UTF-8" standalone="no"?>
<!DOCTYPE svg PUBLIC "-//W3C//DTD SVG 1.1//EN"
 "http://www.w3.org/Graphics/SVG/1.1/DTD/svg11.dtd">
<!-- Generated by graphviz version 2.43.0 (0)
 -->
<!-- Title: ComputeSSTMaxLengthScaleElemAlgorithm.C Pages: 1 -->
<svg width="2144pt" height="106pt"
 viewBox="0.00 0.00 2144.00 106.00" xmlns="http://www.w3.org/2000/svg" xmlns:xlink="http://www.w3.org/1999/xlink">
<g id="graph0" class="graph" transform="scale(1 1) rotate(0) translate(4 102)">
<title>ComputeSSTMaxLengthScaleElemAlgorithm.C</title>
<polygon fill="white" stroke="transparent" points="-4,4 -4,-102 2140,-102 2140,4 -4,4"/>
<!-- Node1 -->
<g id="node1" class="node">
<title>Node1</title>
<g id="a_node1"><a xlink:title=" ">
<polygon fill="#bfbfbf" stroke="black" points="869,-67.5 869,-97.5 1028,-97.5 1028,-67.5 869,-67.5"/>
<text text-anchor="start" x="877" y="-85.5" font-family="Helvetica,sans-Serif" font-size="10.00">ComputeSSTMaxLengthScale</text>
<text text-anchor="middle" x="948.5" y="-74.5" font-family="Helvetica,sans-Serif" font-size="10.00">ElemAlgorithm.C</text>
</a>
</g>
</g>
<!-- Node2 -->
<g id="node2" class="node">
<title>Node2</title>
<g id="a_node2"><a xlink:title=" ">
<polygon fill="white" stroke="#bfbfbf" points="0,-0.5 0,-30.5 159,-30.5 159,-0.5 0,-0.5"/>
<text text-anchor="start" x="8" y="-18.5" font-family="Helvetica,sans-Serif" font-size="10.00">ComputeSSTMaxLengthScale</text>
<text text-anchor="middle" x="79.5" y="-7.5" font-family="Helvetica,sans-Serif" font-size="10.00">ElemAlgorithm.h</text>
</a>
</g>
</g>
<!-- Node1&#45;&gt;Node2 -->
<g id="edge1" class="edge">
<title>Node1&#45;&gt;Node2</title>
<path fill="none" stroke="midnightblue" d="M868.83,-78.89C729.23,-73.76 431.19,-60.31 169.12,-30.99"/>
<polygon fill="midnightblue" stroke="midnightblue" points="169.35,-27.49 159.02,-29.85 168.57,-34.45 169.35,-27.49"/>
</g>
<!-- Node3 -->
<g id="node3" class="node">
<title>Node3</title>
<g id="a_node3"><a xlink:title=" ">
<polygon fill="white" stroke="#bfbfbf" points="177.5,-6 177.5,-25 251.5,-25 251.5,-6 177.5,-6"/>
<text text-anchor="middle" x="214.5" y="-13" font-family="Helvetica,sans-Serif" font-size="10.00">Algorithm.h</text>
</a>
</g>
</g>
<!-- Node1&#45;&gt;Node3 -->
<g id="edge2" class="edge">
<title>Node1&#45;&gt;Node3</title>
<path fill="none" stroke="midnightblue" d="M868.78,-81.62C739.79,-80.48 477.81,-72.64 260.5,-31 256.34,-30.2 252.02,-29.15 247.78,-27.98"/>
<polygon fill="midnightblue" stroke="midnightblue" points="248.69,-24.6 238.1,-25.09 246.69,-31.31 248.69,-24.6"/>
</g>
<!-- Node4 -->
<g id="node4" class="node">
<title>Node4</title>
<g id="a_node4"><a xlink:title=" ">
<polygon fill="white" stroke="#bfbfbf" points="269.5,-6 269.5,-25 357.5,-25 357.5,-6 269.5,-6"/>
<text text-anchor="middle" x="313.5" y="-13" font-family="Helvetica,sans-Serif" font-size="10.00">FieldTypeDef.h</text>
</a>
</g>
</g>
<!-- Node1&#45;&gt;Node4 -->
<g id="edge3" class="edge">
<title>Node1&#45;&gt;Node4</title>
<path fill="none" stroke="midnightblue" d="M868.83,-79.14C756.17,-74.76 544.22,-62.75 366.5,-31 361.41,-30.09 356.09,-28.91 350.88,-27.63"/>
<polygon fill="midnightblue" stroke="midnightblue" points="351.63,-24.21 341.07,-25.05 349.85,-30.98 351.63,-24.21"/>
</g>
<!-- Node5 -->
<g id="node5" class="node">
<title>Node5</title>
<g id="a_node5"><a xlink:title=" ">
<polygon fill="white" stroke="#bfbfbf" points="376,-6 376,-25 433,-25 433,-6 376,-6"/>
<text text-anchor="middle" x="404.5" y="-13" font-family="Helvetica,sans-Serif" font-size="10.00">Realm.h</text>
</a>
</g>
</g>
<!-- Node1&#45;&gt;Node5 -->
<g id="edge4" class="edge">
<title>Node1&#45;&gt;Node5</title>
<path fill="none" stroke="midnightblue" d="M868.99,-80.05C768.41,-76.74 590.49,-65.96 442.5,-31 439.5,-30.29 436.43,-29.41 433.38,-28.42"/>
<polygon fill="midnightblue" stroke="midnightblue" points="434.51,-25.1 423.91,-25.04 432.15,-31.7 434.51,-25.1"/>
</g>
<!-- Node6 -->
<g id="node6" class="node">
<title>Node6</title>
<g id="a_node6"><a xlink:title=" ">
<polygon fill="white" stroke="#bfbfbf" points="451.5,-6 451.5,-25 549.5,-25 549.5,-6 451.5,-6"/>
<text text-anchor="middle" x="500.5" y="-13" font-family="Helvetica,sans-Serif" font-size="10.00">TimeIntegrator.h</text>
</a>
</g>
</g>
<!-- Node1&#45;&gt;Node6 -->
<g id="edge5" class="edge">
<title>Node1&#45;&gt;Node6</title>
<path fill="none" stroke="midnightblue" d="M868.9,-73.93C789.78,-65.76 665.17,-51.17 558.5,-31 553.08,-29.98 547.41,-28.75 541.84,-27.46"/>
<polygon fill="midnightblue" stroke="midnightblue" points="542.5,-24.02 531.96,-25.07 540.86,-30.82 542.5,-24.02"/>
</g>
<!-- Node7 -->
<g id="node7" class="node">
<title>Node7</title>
<g id="a_node7"><a xlink:title=" ">
<polygon fill="white" stroke="#bfbfbf" points="568,-6 568,-25 751,-25 751,-6 568,-6"/>
<text text-anchor="middle" x="659.5" y="-13" font-family="Helvetica,sans-Serif" font-size="10.00">master_element/MasterElement.h</text>
</a>
</g>
</g>
<!-- Node1&#45;&gt;Node7 -->
<g id="edge6" class="edge">
<title>Node1&#45;&gt;Node7</title>
<path fill="none" stroke="midnightblue" d="M886.15,-67.48C832.55,-55.42 756.36,-38.29 707.43,-27.28"/>
<polygon fill="midnightblue" stroke="midnightblue" points="707.94,-23.81 697.42,-25.03 706.41,-30.64 707.94,-23.81"/>
</g>
<!-- Node8 -->
<g id="node8" class="node">
<title>Node8</title>
<g id="a_node8"><a xlink:title=" ">
<polygon fill="white" stroke="#bfbfbf" points="769.5,-0.5 769.5,-30.5 943.5,-30.5 943.5,-0.5 769.5,-0.5"/>
<text text-anchor="start" x="777.5" y="-18.5" font-family="Helvetica,sans-Serif" font-size="10.00">master_element/MasterElement</text>
<text text-anchor="middle" x="856.5" y="-7.5" font-family="Helvetica,sans-Serif" font-size="10.00">Repo.h</text>
</a>
</g>
</g>
<!-- Node1&#45;&gt;Node8 -->
<g id="edge7" class="edge">
<title>Node1&#45;&gt;Node8</title>
<path fill="none" stroke="midnightblue" d="M928.54,-67.4C915.76,-58.37 898.98,-46.51 884.83,-36.52"/>
<polygon fill="midnightblue" stroke="midnightblue" points="886.61,-33.49 876.42,-30.58 882.57,-39.21 886.61,-33.49"/>
</g>
<!-- Node9 -->
<g id="node9" class="node">
<title>Node9</title>
<g id="a_node9"><a xlink:title=" ">
<polygon fill="white" stroke="#bfbfbf" points="962,-6 962,-25 1121,-25 1121,-6 962,-6"/>
<text text-anchor="middle" x="1041.5" y="-13" font-family="Helvetica,sans-Serif" font-size="10.00">stk_mesh/base/BulkData.hpp</text>
</a>
</g>
</g>
<!-- Node1&#45;&gt;Node9 -->
<g id="edge8" class="edge">
<title>Node1&#45;&gt;Node9</title>
<path fill="none" stroke="midnightblue" d="M968.68,-67.4C984.13,-56.6 1005.36,-41.76 1020.92,-30.89"/>
<polygon fill="midnightblue" stroke="midnightblue" points="1023.14,-33.6 1029.33,-25.01 1019.13,-27.87 1023.14,-33.6"/>
</g>
<!-- Node10 -->
<g id="node10" class="node">
<title>Node10</title>
<g id="a_node10"><a xlink:title=" ">
<polygon fill="white" stroke="#bfbfbf" points="1139,-6 1139,-25 1276,-25 1276,-6 1139,-6"/>
<text text-anchor="middle" x="1207.5" y="-13" font-family="Helvetica,sans-Serif" font-size="10.00">stk_mesh/base/Field.hpp</text>
</a>
</g>
</g>
<!-- Node1&#45;&gt;Node10 -->
<g id="edge9" class="edge">
<title>Node1&#45;&gt;Node10</title>
<path fill="none" stroke="midnightblue" d="M1004.38,-67.48C1052.12,-55.5 1119.83,-38.5 1163.72,-27.49"/>
<polygon fill="midnightblue" stroke="midnightblue" points="1164.67,-30.86 1173.52,-25.03 1162.97,-24.07 1164.67,-30.86"/>
</g>
<!-- Node11 -->
<g id="node11" class="node">
<title>Node11</title>
<g id="a_node11"><a xlink:title=" ">
<polygon fill="white" stroke="#bfbfbf" points="1294,-6 1294,-25 1467,-25 1467,-6 1294,-6"/>
<text text-anchor="middle" x="1380.5" y="-13" font-family="Helvetica,sans-Serif" font-size="10.00">stk_mesh/base/FieldParallel.hpp</text>
</a>
</g>
</g>
<!-- Node1&#45;&gt;Node11 -->
<g id="edge10" class="edge">
<title>Node1&#45;&gt;Node11</title>
<path fill="none" stroke="midnightblue" d="M1028.17,-69.62C1096.47,-59.43 1197.47,-44.31 1285.5,-31 1294.93,-29.57 1304.88,-28.06 1314.65,-26.57"/>
<polygon fill="midnightblue" stroke="midnightblue" points="1315.39,-30 1324.74,-25.04 1314.33,-23.08 1315.39,-30"/>
</g>
<!-- Node12 -->
<g id="node12" class="node">
<title>Node12</title>
<g id="a_node12"><a xlink:title=" ">
<polygon fill="white" stroke="#bfbfbf" points="1485.5,-6 1485.5,-25 1655.5,-25 1655.5,-6 1485.5,-6"/>
<text text-anchor="middle" x="1570.5" y="-13" font-family="Helvetica,sans-Serif" font-size="10.00">stk_mesh/base/GetBuckets.hpp</text>
</a>
</g>
</g>
<!-- Node1&#45;&gt;Node12 -->
<g id="edge11" class="edge">
<title>Node1&#45;&gt;Node12</title>
<path fill="none" stroke="midnightblue" d="M1028.27,-75.31C1131.8,-66.95 1317.96,-50.79 1476.5,-31 1486.93,-29.7 1497.99,-28.15 1508.71,-26.55"/>
<polygon fill="midnightblue" stroke="midnightblue" points="1509.5,-29.97 1518.86,-25.01 1508.45,-23.05 1509.5,-29.97"/>
</g>
<!-- Node13 -->
<g id="node13" class="node">
<title>Node13</title>
<g id="a_node13"><a xlink:title=" ">
<polygon fill="white" stroke="#bfbfbf" points="1673.5,-6 1673.5,-25 1835.5,-25 1835.5,-6 1673.5,-6"/>
<text text-anchor="middle" x="1754.5" y="-13" font-family="Helvetica,sans-Serif" font-size="10.00">stk_mesh/base/MetaData.hpp</text>
</a>
</g>
</g>
<!-- Node1&#45;&gt;Node13 -->
<g id="edge12" class="edge">
<title>Node1&#45;&gt;Node13</title>
<path fill="none" stroke="midnightblue" d="M1028.18,-78.21C1160.61,-72.21 1434.25,-57.61 1664.5,-31 1674.87,-29.8 1685.86,-28.26 1696.47,-26.63"/>
<polygon fill="midnightblue" stroke="midnightblue" points="1697.17,-30.06 1706.5,-25.05 1696.08,-23.15 1697.17,-30.06"/>
</g>
<!-- Node14 -->
<g id="node14" class="node">
<title>Node14</title>
<g id="a_node14"><a xlink:title=" ">
<polygon fill="white" stroke="#bfbfbf" points="1854,-6 1854,-25 1987,-25 1987,-6 1854,-6"/>
<text text-anchor="middle" x="1920.5" y="-13" font-family="Helvetica,sans-Serif" font-size="10.00">stk_mesh/base/Part.hpp</text>
</a>
</g>
</g>
<!-- Node1&#45;&gt;Node14 -->
<g id="edge13" class="edge">
<title>Node1&#45;&gt;Node14</title>
<path fill="none" stroke="midnightblue" d="M1028.22,-80.54C1185.1,-77.87 1544.7,-67.88 1844.5,-31 1853.22,-29.93 1862.44,-28.46 1871.34,-26.86"/>
<polygon fill="midnightblue" stroke="midnightblue" points="1872.02,-30.3 1881.21,-25.02 1870.74,-23.41 1872.02,-30.3"/>
</g>
<!-- Node15 -->
<g id="node15" class="node">
<title>Node15</title>
<g id="a_node15"><a xlink:title=" ">
<polygon fill="white" stroke="#bfbfbf" points="2005,-0.5 2005,-30.5 2136,-30.5 2136,-0.5 2005,-0.5"/>
<text text-anchor="start" x="2013" y="-18.5" font-family="Helvetica,sans-Serif" font-size="10.00">stk_util/parallel/Parallel</text>
<text text-anchor="middle" x="2070.5" y="-7.5" font-family="Helvetica,sans-Serif" font-size="10.00">Reduce.hpp</text>
</a>
</g>
</g>
<!-- Node1&#45;&gt;Node15 -->
<g id="edge14" class="edge">
<title>Node1&#45;&gt;Node15</title>
<path fill="none" stroke="midnightblue" d="M1028.04,-81.6C1201.95,-80.97 1629.07,-74.78 1994.82,-31.09"/>
<polygon fill="midnightblue" stroke="midnightblue" points="1995.3,-34.56 2004.81,-29.89 1994.46,-27.61 1995.3,-34.56"/>
</g>
</g>
</svg>
