<?xml version="1.0" encoding="UTF-8" standalone="no"?>
<!DOCTYPE svg PUBLIC "-//W3C//DTD SVG 1.1//EN"
 "http://www.w3.org/Graphics/SVG/1.1/DTD/svg11.dtd">
<!-- Generated by graphviz version 2.43.0 (0)
 -->
<!-- Title: ComputeMdotNonConformalAlgorithm.C Pages: 1 -->
<svg width="2027pt" height="84pt"
 viewBox="0.00 0.00 2027.00 84.00" xmlns="http://www.w3.org/2000/svg" xmlns:xlink="http://www.w3.org/1999/xlink">
<g id="graph0" class="graph" transform="scale(1 1) rotate(0) translate(4 80)">
<title>ComputeMdotNonConformalAlgorithm.C</title>
<polygon fill="white" stroke="transparent" points="-4,4 -4,-80 2023,-80 2023,4 -4,4"/>
<!-- Node1 -->
<g id="node1" class="node">
<title>Node1</title>
<g id="a_node1"><a xlink:title=" ">
<polygon fill="#bfbfbf" stroke="black" points="769.5,-56.5 769.5,-75.5 983.5,-75.5 983.5,-56.5 769.5,-56.5"/>
<text text-anchor="middle" x="876.5" y="-63.5" font-family="Helvetica,sans-Serif" font-size="10.00">ComputeMdotNonConformalAlgorithm.C</text>
</a>
</g>
</g>
<!-- Node2 -->
<g id="node2" class="node">
<title>Node2</title>
<g id="a_node2"><a xlink:title=" ">
<polygon fill="white" stroke="#bfbfbf" points="0,-0.5 0,-19.5 213,-19.5 213,-0.5 0,-0.5"/>
<text text-anchor="middle" x="106.5" y="-7.5" font-family="Helvetica,sans-Serif" font-size="10.00">ComputeMdotNonConformalAlgorithm.h</text>
</a>
</g>
</g>
<!-- Node1&#45;&gt;Node2 -->
<g id="edge1" class="edge">
<title>Node1&#45;&gt;Node2</title>
<path fill="none" stroke="midnightblue" d="M769.43,-57.92C642.03,-49.43 422.61,-34.61 223.1,-20.04"/>
<polygon fill="midnightblue" stroke="midnightblue" points="223.24,-16.54 213.01,-19.3 222.73,-23.52 223.24,-16.54"/>
</g>
<!-- Node3 -->
<g id="node3" class="node">
<title>Node3</title>
<g id="a_node3"><a xlink:title=" ">
<polygon fill="white" stroke="#bfbfbf" points="231.5,-0.5 231.5,-19.5 305.5,-19.5 305.5,-0.5 231.5,-0.5"/>
<text text-anchor="middle" x="268.5" y="-7.5" font-family="Helvetica,sans-Serif" font-size="10.00">Algorithm.h</text>
</a>
</g>
</g>
<!-- Node1&#45;&gt;Node3 -->
<g id="edge2" class="edge">
<title>Node1&#45;&gt;Node3</title>
<path fill="none" stroke="midnightblue" d="M769.42,-60.04C658.38,-54.07 479.59,-42.15 315.86,-20.04"/>
<polygon fill="midnightblue" stroke="midnightblue" points="315.98,-16.52 305.6,-18.63 315.03,-23.45 315.98,-16.52"/>
</g>
<!-- Node4 -->
<g id="node4" class="node">
<title>Node4</title>
<g id="a_node4"><a xlink:title=" ">
<polygon fill="white" stroke="#bfbfbf" points="323.5,-0.5 323.5,-19.5 381.5,-19.5 381.5,-0.5 323.5,-0.5"/>
<text text-anchor="middle" x="352.5" y="-7.5" font-family="Helvetica,sans-Serif" font-size="10.00">DgInfo.h</text>
</a>
</g>
</g>
<!-- Node1&#45;&gt;Node4 -->
<g id="edge3" class="edge">
<title>Node1&#45;&gt;Node4</title>
<path fill="none" stroke="midnightblue" d="M769.29,-59.4C672.86,-53.37 527.22,-41.79 392.01,-20.04"/>
<polygon fill="midnightblue" stroke="midnightblue" points="392.31,-16.54 381.88,-18.39 391.18,-23.45 392.31,-16.54"/>
</g>
<!-- Node5 -->
<g id="node5" class="node">
<title>Node5</title>
<g id="a_node5"><a xlink:title=" ">
<polygon fill="white" stroke="#bfbfbf" points="399.5,-0.5 399.5,-19.5 487.5,-19.5 487.5,-0.5 399.5,-0.5"/>
<text text-anchor="middle" x="443.5" y="-7.5" font-family="Helvetica,sans-Serif" font-size="10.00">FieldTypeDef.h</text>
</a>
</g>
</g>
<!-- Node1&#45;&gt;Node5 -->
<g id="edge4" class="edge">
<title>Node1&#45;&gt;Node5</title>
<path fill="none" stroke="midnightblue" d="M794.43,-56.49C719.7,-48.46 606.05,-35.56 497.84,-20.13"/>
<polygon fill="midnightblue" stroke="midnightblue" points="498.12,-16.64 487.72,-18.68 497.12,-23.57 498.12,-16.64"/>
</g>
<!-- Node6 -->
<g id="node6" class="node">
<title>Node6</title>
<g id="a_node6"><a xlink:title=" ">
<polygon fill="white" stroke="#bfbfbf" points="505.5,-0.5 505.5,-19.5 597.5,-19.5 597.5,-0.5 505.5,-0.5"/>
<text text-anchor="middle" x="551.5" y="-7.5" font-family="Helvetica,sans-Serif" font-size="10.00">LinearSystem.h</text>
</a>
</g>
</g>
<!-- Node1&#45;&gt;Node6 -->
<g id="edge5" class="edge">
<title>Node1&#45;&gt;Node6</title>
<path fill="none" stroke="midnightblue" d="M825,-56.44C765.78,-46.6 668.89,-30.5 607.74,-20.34"/>
<polygon fill="midnightblue" stroke="midnightblue" points="607.94,-16.83 597.5,-18.64 606.79,-23.74 607.94,-16.83"/>
</g>
<!-- Node7 -->
<g id="node7" class="node">
<title>Node7</title>
<g id="a_node7"><a xlink:title=" ">
<polygon fill="white" stroke="#bfbfbf" points="616,-0.5 616,-19.5 731,-19.5 731,-0.5 616,-0.5"/>
<text text-anchor="middle" x="673.5" y="-7.5" font-family="Helvetica,sans-Serif" font-size="10.00">NonConformalInfo.h</text>
</a>
</g>
</g>
<!-- Node1&#45;&gt;Node7 -->
<g id="edge6" class="edge">
<title>Node1&#45;&gt;Node7</title>
<path fill="none" stroke="midnightblue" d="M844.33,-56.44C809.44,-47.16 753.61,-32.31 715.33,-22.13"/>
<polygon fill="midnightblue" stroke="midnightblue" points="716.08,-18.7 705.52,-19.52 714.28,-25.47 716.08,-18.7"/>
</g>
<!-- Node8 -->
<g id="node8" class="node">
<title>Node8</title>
<g id="a_node8"><a xlink:title=" ">
<polygon fill="white" stroke="#bfbfbf" points="749.5,-0.5 749.5,-19.5 887.5,-19.5 887.5,-0.5 749.5,-0.5"/>
<text text-anchor="middle" x="818.5" y="-7.5" font-family="Helvetica,sans-Serif" font-size="10.00">NonConformalManager.h</text>
</a>
</g>
</g>
<!-- Node1&#45;&gt;Node8 -->
<g id="edge7" class="edge">
<title>Node1&#45;&gt;Node8</title>
<path fill="none" stroke="midnightblue" d="M867.18,-56.32C858.61,-48.34 845.69,-36.31 835.31,-26.65"/>
<polygon fill="midnightblue" stroke="midnightblue" points="837.69,-24.09 827.99,-19.83 832.92,-29.21 837.69,-24.09"/>
</g>
<!-- Node9 -->
<g id="node9" class="node">
<title>Node9</title>
<g id="a_node9"><a xlink:title=" ">
<polygon fill="white" stroke="#bfbfbf" points="906,-0.5 906,-19.5 963,-19.5 963,-0.5 906,-0.5"/>
<text text-anchor="middle" x="934.5" y="-7.5" font-family="Helvetica,sans-Serif" font-size="10.00">Realm.h</text>
</a>
</g>
</g>
<!-- Node1&#45;&gt;Node9 -->
<g id="edge8" class="edge">
<title>Node1&#45;&gt;Node9</title>
<path fill="none" stroke="midnightblue" d="M885.82,-56.32C894.39,-48.34 907.31,-36.31 917.69,-26.65"/>
<polygon fill="midnightblue" stroke="midnightblue" points="920.08,-29.21 925.01,-19.83 915.31,-24.09 920.08,-29.21"/>
</g>
<!-- Node10 -->
<g id="node10" class="node">
<title>Node10</title>
<g id="a_node10"><a xlink:title=" ">
<polygon fill="white" stroke="#bfbfbf" points="981,-0.5 981,-19.5 1164,-19.5 1164,-0.5 981,-0.5"/>
<text text-anchor="middle" x="1072.5" y="-7.5" font-family="Helvetica,sans-Serif" font-size="10.00">master_element/MasterElement.h</text>
</a>
</g>
</g>
<!-- Node1&#45;&gt;Node10 -->
<g id="edge9" class="edge">
<title>Node1&#45;&gt;Node10</title>
<path fill="none" stroke="midnightblue" d="M907.56,-56.44C941.1,-47.2 994.7,-32.44 1031.64,-22.26"/>
<polygon fill="midnightblue" stroke="midnightblue" points="1032.88,-25.55 1041.59,-19.52 1031.02,-18.8 1032.88,-25.55"/>
</g>
<!-- Node11 -->
<g id="node11" class="node">
<title>Node11</title>
<g id="a_node11"><a xlink:title=" ">
<polygon fill="white" stroke="#bfbfbf" points="1182,-0.5 1182,-19.5 1341,-19.5 1341,-0.5 1182,-0.5"/>
<text text-anchor="middle" x="1261.5" y="-7.5" font-family="Helvetica,sans-Serif" font-size="10.00">stk_mesh/base/BulkData.hpp</text>
</a>
</g>
</g>
<!-- Node1&#45;&gt;Node11 -->
<g id="edge10" class="edge">
<title>Node1&#45;&gt;Node11</title>
<path fill="none" stroke="midnightblue" d="M937.5,-56.44C1006.36,-46.79 1118.2,-31.1 1190.8,-20.92"/>
<polygon fill="midnightblue" stroke="midnightblue" points="1191.36,-24.37 1200.78,-19.52 1190.39,-17.44 1191.36,-24.37"/>
</g>
<!-- Node12 -->
<g id="node12" class="node">
<title>Node12</title>
<g id="a_node12"><a xlink:title=" ">
<polygon fill="white" stroke="#bfbfbf" points="1359,-0.5 1359,-19.5 1496,-19.5 1496,-0.5 1359,-0.5"/>
<text text-anchor="middle" x="1427.5" y="-7.5" font-family="Helvetica,sans-Serif" font-size="10.00">stk_mesh/base/Field.hpp</text>
</a>
</g>
</g>
<!-- Node1&#45;&gt;Node12 -->
<g id="edge11" class="edge">
<title>Node1&#45;&gt;Node12</title>
<path fill="none" stroke="midnightblue" d="M972.79,-56.48C1066.26,-48.06 1212.45,-34.52 1348.47,-20.2"/>
<polygon fill="midnightblue" stroke="midnightblue" points="1349.08,-23.65 1358.66,-19.12 1348.35,-16.69 1349.08,-23.65"/>
</g>
<!-- Node13 -->
<g id="node13" class="node">
<title>Node13</title>
<g id="a_node13"><a xlink:title=" ">
<polygon fill="white" stroke="#bfbfbf" points="1514,-0.5 1514,-19.5 1687,-19.5 1687,-0.5 1514,-0.5"/>
<text text-anchor="middle" x="1600.5" y="-7.5" font-family="Helvetica,sans-Serif" font-size="10.00">stk_mesh/base/FieldParallel.hpp</text>
</a>
</g>
</g>
<!-- Node1&#45;&gt;Node13 -->
<g id="edge12" class="edge">
<title>Node1&#45;&gt;Node13</title>
<path fill="none" stroke="midnightblue" d="M983.68,-58.09C1106.71,-49.98 1314.87,-35.74 1503.67,-20.14"/>
<polygon fill="midnightblue" stroke="midnightblue" points="1504.11,-23.61 1513.79,-19.3 1503.53,-16.64 1504.11,-23.61"/>
</g>
<!-- Node14 -->
<g id="node14" class="node">
<title>Node14</title>
<g id="a_node14"><a xlink:title=" ">
<polygon fill="white" stroke="#bfbfbf" points="1705.5,-0.5 1705.5,-19.5 1867.5,-19.5 1867.5,-0.5 1705.5,-0.5"/>
<text text-anchor="middle" x="1786.5" y="-7.5" font-family="Helvetica,sans-Serif" font-size="10.00">stk_mesh/base/MetaData.hpp</text>
</a>
</g>
</g>
<!-- Node1&#45;&gt;Node14 -->
<g id="edge13" class="edge">
<title>Node1&#45;&gt;Node14</title>
<path fill="none" stroke="midnightblue" d="M983.73,-60.65C1138.45,-54.03 1433.55,-40.12 1695.01,-20.08"/>
<polygon fill="midnightblue" stroke="midnightblue" points="1695.38,-23.57 1705.08,-19.31 1694.84,-16.59 1695.38,-23.57"/>
</g>
<!-- Node15 -->
<g id="node15" class="node">
<title>Node15</title>
<g id="a_node15"><a xlink:title=" ">
<polygon fill="white" stroke="#bfbfbf" points="1886,-0.5 1886,-19.5 2019,-19.5 2019,-0.5 1886,-0.5"/>
<text text-anchor="middle" x="1952.5" y="-7.5" font-family="Helvetica,sans-Serif" font-size="10.00">stk_mesh/base/Part.hpp</text>
</a>
</g>
</g>
<!-- Node1&#45;&gt;Node15 -->
<g id="edge14" class="edge">
<title>Node1&#45;&gt;Node15</title>
<path fill="none" stroke="midnightblue" d="M983.59,-62.74C1164.89,-58.35 1544.07,-46.73 1875.51,-20.01"/>
<polygon fill="midnightblue" stroke="midnightblue" points="1876.12,-23.48 1885.8,-19.18 1875.55,-16.5 1876.12,-23.48"/>
</g>
</g>
</svg>
