<?xml version="1.0" encoding="UTF-8" standalone="no"?>
<!DOCTYPE svg PUBLIC "-//W3C//DTD SVG 1.1//EN"
 "http://www.w3.org/Graphics/SVG/1.1/DTD/svg11.dtd">
<!-- Generated by graphviz version 2.43.0 (0)
 -->
<!-- Title: ConductionUpdate.C Pages: 1 -->
<svg width="2984pt" height="95pt"
 viewBox="0.00 0.00 2983.50 95.00" xmlns="http://www.w3.org/2000/svg" xmlns:xlink="http://www.w3.org/1999/xlink">
<g id="graph0" class="graph" transform="scale(1 1) rotate(0) translate(4 91)">
<title>ConductionUpdate.C</title>
<polygon fill="white" stroke="transparent" points="-4,4 -4,-91 2979.5,-91 2979.5,4 -4,4"/>
<!-- Node1 -->
<g id="node1" class="node">
<title>Node1</title>
<g id="a_node1"><a xlink:title=" ">
<polygon fill="#bfbfbf" stroke="black" points="1310,-67.5 1310,-86.5 1426,-86.5 1426,-67.5 1310,-67.5"/>
<text text-anchor="middle" x="1368" y="-74.5" font-family="Helvetica,sans-Serif" font-size="10.00">ConductionUpdate.C</text>
</a>
</g>
</g>
<!-- Node2 -->
<g id="node2" class="node">
<title>Node2</title>
<g id="a_node2"><a xlink:title=" ">
<polygon fill="white" stroke="#bfbfbf" points="0,-6 0,-25 176,-25 176,-6 0,-6"/>
<text text-anchor="middle" x="88" y="-13" font-family="Helvetica,sans-Serif" font-size="10.00">matrix_free/ConductionUpdate.h</text>
</a>
</g>
</g>
<!-- Node1&#45;&gt;Node2 -->
<g id="edge1" class="edge">
<title>Node1&#45;&gt;Node2</title>
<path fill="none" stroke="midnightblue" d="M1309.94,-76.09C1137.77,-75.86 615.1,-71.62 184,-31 172.07,-29.88 159.36,-28.26 147.23,-26.51"/>
<polygon fill="midnightblue" stroke="midnightblue" points="147.61,-23.02 137.2,-25.01 146.58,-29.95 147.61,-23.02"/>
</g>
<!-- Node3 -->
<g id="node3" class="node">
<title>Node3</title>
<g id="a_node3"><a xlink:title=" ">
<polygon fill="white" stroke="#bfbfbf" points="193.5,-6 193.5,-25 362.5,-25 362.5,-6 193.5,-6"/>
<text text-anchor="middle" x="278" y="-13" font-family="Helvetica,sans-Serif" font-size="10.00">matrix_free/ConductionFields.h</text>
</a>
</g>
</g>
<!-- Node1&#45;&gt;Node3 -->
<g id="edge2" class="edge">
<title>Node1&#45;&gt;Node3</title>
<path fill="none" stroke="midnightblue" d="M1309.96,-75.6C1156.35,-74.06 726.58,-66.64 371,-31 359.68,-29.87 347.64,-28.28 336.11,-26.56"/>
<polygon fill="midnightblue" stroke="midnightblue" points="336.55,-23.09 326.14,-25.03 335.49,-30.01 336.55,-23.09"/>
</g>
<!-- Node4 -->
<g id="node4" class="node">
<title>Node4</title>
<g id="a_node4"><a xlink:title=" ">
<polygon fill="white" stroke="#bfbfbf" points="380.5,-6 380.5,-25 539.5,-25 539.5,-6 380.5,-6"/>
<text text-anchor="middle" x="460" y="-13" font-family="Helvetica,sans-Serif" font-size="10.00">matrix_free/ConductionInfo.h</text>
</a>
</g>
</g>
<!-- Node1&#45;&gt;Node4 -->
<g id="edge3" class="edge">
<title>Node1&#45;&gt;Node4</title>
<path fill="none" stroke="midnightblue" d="M1309.91,-74.98C1175.49,-72.13 832.7,-62.17 548,-31 537.62,-29.86 526.6,-28.32 516,-26.66"/>
<polygon fill="midnightblue" stroke="midnightblue" points="516.43,-23.19 506,-25.05 515.31,-30.1 516.43,-23.19"/>
</g>
<!-- Node5 -->
<g id="node5" class="node">
<title>Node5</title>
<g id="a_node5"><a xlink:title=" ">
<polygon fill="white" stroke="#bfbfbf" points="557.5,-6 557.5,-25 730.5,-25 730.5,-6 557.5,-6"/>
<text text-anchor="middle" x="644" y="-13" font-family="Helvetica,sans-Serif" font-size="10.00">matrix_free/PolynomialOrders.h</text>
</a>
</g>
</g>
<!-- Node1&#45;&gt;Node5 -->
<g id="edge4" class="edge">
<title>Node1&#45;&gt;Node5</title>
<path fill="none" stroke="midnightblue" d="M1309.85,-73.36C1198.84,-67.98 949.13,-54.25 740,-31 728.86,-29.76 717.02,-28.19 705.61,-26.54"/>
<polygon fill="midnightblue" stroke="midnightblue" points="706.12,-23.07 695.72,-25.07 705.1,-30 706.12,-23.07"/>
</g>
<!-- Node6 -->
<g id="node6" class="node">
<title>Node6</title>
<g id="a_node6"><a xlink:title=" ">
<polygon fill="white" stroke="#bfbfbf" points="749,-6 749,-25 853,-25 853,-6 749,-6"/>
<text text-anchor="middle" x="801" y="-13" font-family="Helvetica,sans-Serif" font-size="10.00">KokkosInterface.h</text>
</a>
</g>
</g>
<!-- Node1&#45;&gt;Node6 -->
<g id="edge5" class="edge">
<title>Node1&#45;&gt;Node6</title>
<path fill="none" stroke="midnightblue" d="M1309.99,-73.57C1215.58,-69.01 1023.05,-57.16 862,-31 855.8,-29.99 849.29,-28.7 842.92,-27.31"/>
<polygon fill="midnightblue" stroke="midnightblue" points="843.65,-23.88 833.12,-25.05 842.08,-30.7 843.65,-23.88"/>
</g>
<!-- Node7 -->
<g id="node7" class="node">
<title>Node7</title>
<g id="a_node7"><a xlink:title=" ">
<polygon fill="white" stroke="#bfbfbf" points="871,-6 871,-25 971,-25 971,-6 871,-6"/>
<text text-anchor="middle" x="921" y="-13" font-family="Helvetica,sans-Serif" font-size="10.00">Teuchos_RCP.hpp</text>
</a>
</g>
</g>
<!-- Node1&#45;&gt;Node7 -->
<g id="edge6" class="edge">
<title>Node1&#45;&gt;Node7</title>
<path fill="none" stroke="midnightblue" d="M1309.82,-71.55C1233.64,-65.19 1096.12,-51.92 980,-31 974.42,-29.99 968.58,-28.77 962.84,-27.47"/>
<polygon fill="midnightblue" stroke="midnightblue" points="963.23,-23.96 952.69,-25.06 961.61,-30.77 963.23,-23.96"/>
</g>
<!-- Node8 -->
<g id="node8" class="node">
<title>Node8</title>
<g id="a_node8"><a xlink:title=" ">
<polygon fill="white" stroke="#bfbfbf" points="989.5,-6 989.5,-25 1138.5,-25 1138.5,-6 989.5,-6"/>
<text text-anchor="middle" x="1064" y="-13" font-family="Helvetica,sans-Serif" font-size="10.00">Teuchos_ParameterList.hpp</text>
</a>
</g>
</g>
<!-- Node1&#45;&gt;Node8 -->
<g id="edge7" class="edge">
<title>Node1&#45;&gt;Node8</title>
<path fill="none" stroke="midnightblue" d="M1324.44,-67.48C1269.81,-56.78 1176.19,-38.46 1117.33,-26.94"/>
<polygon fill="midnightblue" stroke="midnightblue" points="1117.96,-23.5 1107.47,-25.01 1116.62,-30.36 1117.96,-23.5"/>
</g>
<!-- Node9 -->
<g id="node9" class="node">
<title>Node9</title>
<g id="a_node9"><a xlink:title=" ">
<polygon fill="white" stroke="#bfbfbf" points="1156,-6 1156,-25 1220,-25 1220,-6 1156,-6"/>
<text text-anchor="middle" x="1188" y="-13" font-family="Helvetica,sans-Serif" font-size="10.00">algorithm</text>
</a>
</g>
</g>
<!-- Node1&#45;&gt;Node9 -->
<g id="edge8" class="edge">
<title>Node1&#45;&gt;Node9</title>
<path fill="none" stroke="midnightblue" d="M1340.76,-67.42C1312.69,-58.52 1267.68,-44.1 1229,-31 1226.56,-30.17 1224.04,-29.31 1221.51,-28.43"/>
<polygon fill="midnightblue" stroke="midnightblue" points="1222.41,-25.04 1211.81,-25.04 1220.1,-31.65 1222.41,-25.04"/>
</g>
<!-- Node10 -->
<g id="node10" class="node">
<title>Node10</title>
<g id="a_node10"><a xlink:title=" ">
<polygon fill="white" stroke="#bfbfbf" points="1238,-6 1238,-25 1294,-25 1294,-6 1238,-6"/>
<text text-anchor="middle" x="1266" y="-13" font-family="Helvetica,sans-Serif" font-size="10.00">iomanip</text>
</a>
</g>
</g>
<!-- Node1&#45;&gt;Node10 -->
<g id="edge9" class="edge">
<title>Node1&#45;&gt;Node10</title>
<path fill="none" stroke="midnightblue" d="M1353.39,-67.48C1336.65,-57.71 1309,-41.58 1289.28,-30.08"/>
<polygon fill="midnightblue" stroke="midnightblue" points="1290.99,-27.02 1280.59,-25.01 1287.46,-33.07 1290.99,-27.02"/>
</g>
<!-- Node11 -->
<g id="node11" class="node">
<title>Node11</title>
<g id="a_node11"><a xlink:title=" ">
<polygon fill="white" stroke="#bfbfbf" points="1312,-6 1312,-25 1356,-25 1356,-6 1312,-6"/>
<text text-anchor="middle" x="1334" y="-13" font-family="Helvetica,sans-Serif" font-size="10.00">limits</text>
</a>
</g>
</g>
<!-- Node1&#45;&gt;Node11 -->
<g id="edge10" class="edge">
<title>Node1&#45;&gt;Node11</title>
<path fill="none" stroke="midnightblue" d="M1363.13,-67.48C1358.13,-58.73 1350.21,-44.87 1343.89,-33.81"/>
<polygon fill="midnightblue" stroke="midnightblue" points="1346.86,-31.96 1338.86,-25.01 1340.78,-35.43 1346.86,-31.96"/>
</g>
<!-- Node12 -->
<g id="node12" class="node">
<title>Node12</title>
<g id="a_node12"><a xlink:title=" ">
<polygon fill="white" stroke="#bfbfbf" points="1374.5,-6 1374.5,-25 1431.5,-25 1431.5,-6 1374.5,-6"/>
<text text-anchor="middle" x="1403" y="-13" font-family="Helvetica,sans-Serif" font-size="10.00">ostream</text>
</a>
</g>
</g>
<!-- Node1&#45;&gt;Node12 -->
<g id="edge11" class="edge">
<title>Node1&#45;&gt;Node12</title>
<path fill="none" stroke="midnightblue" d="M1373.01,-67.48C1378.16,-58.73 1386.31,-44.87 1392.82,-33.81"/>
<polygon fill="midnightblue" stroke="midnightblue" points="1395.94,-35.4 1397.99,-25.01 1389.91,-31.85 1395.94,-35.4"/>
</g>
<!-- Node13 -->
<g id="node13" class="node">
<title>Node13</title>
<g id="a_node13"><a xlink:title=" ">
<polygon fill="white" stroke="#bfbfbf" points="1449.5,-6 1449.5,-25 1608.5,-25 1608.5,-6 1449.5,-6"/>
<text text-anchor="middle" x="1529" y="-13" font-family="Helvetica,sans-Serif" font-size="10.00">stk_mesh/base/BulkData.hpp</text>
</a>
</g>
</g>
<!-- Node1&#45;&gt;Node13 -->
<g id="edge12" class="edge">
<title>Node1&#45;&gt;Node13</title>
<path fill="none" stroke="midnightblue" d="M1391.07,-67.48C1418.68,-57.27 1465.12,-40.11 1496.4,-28.55"/>
<polygon fill="midnightblue" stroke="midnightblue" points="1497.81,-31.76 1505.98,-25.01 1495.38,-25.19 1497.81,-31.76"/>
</g>
<!-- Node14 -->
<g id="node14" class="node">
<title>Node14</title>
<g id="a_node14"><a xlink:title=" ">
<polygon fill="white" stroke="#bfbfbf" points="1626.5,-6 1626.5,-25 1789.5,-25 1789.5,-6 1626.5,-6"/>
<text text-anchor="middle" x="1708" y="-13" font-family="Helvetica,sans-Serif" font-size="10.00">stk_mesh/base/FieldState.hpp</text>
</a>
</g>
</g>
<!-- Node1&#45;&gt;Node14 -->
<g id="edge13" class="edge">
<title>Node1&#45;&gt;Node14</title>
<path fill="none" stroke="midnightblue" d="M1416.71,-67.48C1478.07,-56.74 1583.39,-38.31 1649.17,-26.79"/>
<polygon fill="midnightblue" stroke="midnightblue" points="1650.13,-30.18 1659.38,-25.01 1648.92,-23.29 1650.13,-30.18"/>
</g>
<!-- Node15 -->
<g id="node15" class="node">
<title>Node15</title>
<g id="a_node15"><a xlink:title=" ">
<polygon fill="white" stroke="#bfbfbf" points="1808,-6 1808,-25 1942,-25 1942,-6 1808,-6"/>
<text text-anchor="middle" x="1875" y="-13" font-family="Helvetica,sans-Serif" font-size="10.00">stk_mesh/base/Ngp.hpp</text>
</a>
</g>
</g>
<!-- Node1&#45;&gt;Node15 -->
<g id="edge14" class="edge">
<title>Node1&#45;&gt;Node15</title>
<path fill="none" stroke="midnightblue" d="M1426.06,-71.51C1509.02,-64.73 1666.14,-50.57 1799,-31 1807.03,-29.82 1815.5,-28.38 1823.77,-26.89"/>
<polygon fill="midnightblue" stroke="midnightblue" points="1824.5,-30.31 1833.69,-25.04 1823.22,-23.43 1824.5,-30.31"/>
</g>
<!-- Node16 -->
<g id="node16" class="node">
<title>Node16</title>
<g id="a_node16"><a xlink:title=" ">
<polygon fill="white" stroke="#bfbfbf" points="1960.5,-6 1960.5,-25 2117.5,-25 2117.5,-6 1960.5,-6"/>
<text text-anchor="middle" x="2039" y="-13" font-family="Helvetica,sans-Serif" font-size="10.00">stk_mesh/base/NgpField.hpp</text>
</a>
</g>
</g>
<!-- Node1&#45;&gt;Node16 -->
<g id="edge15" class="edge">
<title>Node1&#45;&gt;Node16</title>
<path fill="none" stroke="midnightblue" d="M1426.09,-73.18C1531.12,-67.71 1759.51,-54.12 1951,-31 1961.03,-29.79 1971.66,-28.25 1981.94,-26.64"/>
<polygon fill="midnightblue" stroke="midnightblue" points="1982.75,-30.05 1992.07,-25 1981.64,-23.14 1982.75,-30.05"/>
</g>
<!-- Node17 -->
<g id="node17" class="node">
<title>Node17</title>
<g id="a_node17"><a xlink:title=" ">
<polygon fill="white" stroke="#bfbfbf" points="2135.5,-0.5 2135.5,-30.5 2286.5,-30.5 2286.5,-0.5 2135.5,-0.5"/>
<text text-anchor="start" x="2143.5" y="-18.5" font-family="Helvetica,sans-Serif" font-size="10.00">stk_mesh/base/NgpForEach</text>
<text text-anchor="middle" x="2211" y="-7.5" font-family="Helvetica,sans-Serif" font-size="10.00">Entity.hpp</text>
</a>
</g>
</g>
<!-- Node1&#45;&gt;Node17 -->
<g id="edge16" class="edge">
<title>Node1&#45;&gt;Node17</title>
<path fill="none" stroke="midnightblue" d="M1426.28,-74.76C1552.12,-71.61 1858.79,-61.35 2124.81,-31.18"/>
<polygon fill="midnightblue" stroke="midnightblue" points="2125.51,-34.62 2135.05,-30 2124.72,-27.66 2125.51,-34.62"/>
</g>
<!-- Node18 -->
<g id="node18" class="node">
<title>Node18</title>
<g id="a_node18"><a xlink:title=" ">
<polygon fill="white" stroke="#bfbfbf" points="2305,-0.5 2305,-30.5 2457,-30.5 2457,-0.5 2305,-0.5"/>
<text text-anchor="start" x="2313" y="-18.5" font-family="Helvetica,sans-Serif" font-size="10.00">stk_mesh/base/NgpProfiling</text>
<text text-anchor="middle" x="2381" y="-7.5" font-family="Helvetica,sans-Serif" font-size="10.00">Block.hpp</text>
</a>
</g>
</g>
<!-- Node1&#45;&gt;Node18 -->
<g id="edge17" class="edge">
<title>Node1&#45;&gt;Node18</title>
<path fill="none" stroke="midnightblue" d="M1426.01,-75.61C1570.87,-74.12 1960.2,-66.92 2294.24,-31.1"/>
<polygon fill="midnightblue" stroke="midnightblue" points="2295.04,-34.54 2304.61,-29.98 2294.29,-27.58 2295.04,-34.54"/>
</g>
<!-- Node19 -->
<g id="node19" class="node">
<title>Node19</title>
<g id="a_node19"><a xlink:title=" ">
<polygon fill="white" stroke="#bfbfbf" points="2475,-6 2475,-25 2617,-25 2617,-6 2475,-6"/>
<text text-anchor="middle" x="2546" y="-13" font-family="Helvetica,sans-Serif" font-size="10.00">stk_mesh/base/Types.hpp</text>
</a>
</g>
</g>
<!-- Node1&#45;&gt;Node19 -->
<g id="edge18" class="edge">
<title>Node1&#45;&gt;Node19</title>
<path fill="none" stroke="midnightblue" d="M1426.25,-76.44C1590.36,-77.08 2070.39,-74.75 2466,-31 2475.48,-29.95 2485.52,-28.45 2495.17,-26.8"/>
<polygon fill="midnightblue" stroke="midnightblue" points="2495.82,-30.24 2505.05,-25.05 2494.59,-23.35 2495.82,-30.24"/>
</g>
<!-- Node20 -->
<g id="node20" class="node">
<title>Node20</title>
<g id="a_node20"><a xlink:title=" ">
<polygon fill="white" stroke="#bfbfbf" points="2635.5,-6 2635.5,-25 2812.5,-25 2812.5,-6 2635.5,-6"/>
<text text-anchor="middle" x="2724" y="-13" font-family="Helvetica,sans-Serif" font-size="10.00">stk_mesh/base/GetNgpMesh.hpp</text>
</a>
</g>
</g>
<!-- Node1&#45;&gt;Node20 -->
<g id="edge19" class="edge">
<title>Node1&#45;&gt;Node20</title>
<path fill="none" stroke="midnightblue" d="M1426.14,-76.21C1605.34,-76.38 2164.89,-73.23 2626,-31 2638.18,-29.88 2651.15,-28.27 2663.53,-26.52"/>
<polygon fill="midnightblue" stroke="midnightblue" points="2664.38,-29.93 2673.77,-25.03 2663.37,-23.01 2664.38,-29.93"/>
</g>
<!-- Node21 -->
<g id="node21" class="node">
<title>Node21</title>
<g id="a_node21"><a xlink:title=" ">
<polygon fill="white" stroke="#bfbfbf" points="2830.5,-6 2830.5,-25 2975.5,-25 2975.5,-6 2830.5,-6"/>
<text text-anchor="middle" x="2903" y="-13" font-family="Helvetica,sans-Serif" font-size="10.00">stk_topology/topology.hpp</text>
</a>
</g>
</g>
<!-- Node1&#45;&gt;Node21 -->
<g id="edge20" class="edge">
<title>Node1&#45;&gt;Node21</title>
<path fill="none" stroke="midnightblue" d="M1426.14,-75.34C1661.51,-72.48 2544.28,-60 2822,-31 2831.7,-29.99 2841.99,-28.48 2851.86,-26.82"/>
<polygon fill="midnightblue" stroke="midnightblue" points="2852.72,-30.23 2861.96,-25.05 2851.5,-23.33 2852.72,-30.23"/>
</g>
</g>
</svg>
