<?xml version="1.0" encoding="UTF-8" standalone="no"?>
<!DOCTYPE svg PUBLIC "-//W3C//DTD SVG 1.1//EN"
 "http://www.w3.org/Graphics/SVG/1.1/DTD/svg11.dtd">
<!-- Generated by graphviz version 2.43.0 (0)
 -->
<!-- Title: ContinuityInflowElemKernel.C Pages: 1 -->
<svg width="1639pt" height="95pt"
 viewBox="0.00 0.00 1638.50 95.00" xmlns="http://www.w3.org/2000/svg" xmlns:xlink="http://www.w3.org/1999/xlink">
<g id="graph0" class="graph" transform="scale(1 1) rotate(0) translate(4 91)">
<title>ContinuityInflowElemKernel.C</title>
<polygon fill="white" stroke="transparent" points="-4,4 -4,-91 1634.5,-91 1634.5,4 -4,4"/>
<!-- Node1 -->
<g id="node1" class="node">
<title>Node1</title>
<g id="a_node1"><a xlink:title=" ">
<polygon fill="#bfbfbf" stroke="black" points="774.5,-67.5 774.5,-86.5 935.5,-86.5 935.5,-67.5 774.5,-67.5"/>
<text text-anchor="middle" x="855" y="-74.5" font-family="Helvetica,sans-Serif" font-size="10.00">ContinuityInflowElemKernel.C</text>
</a>
</g>
</g>
<!-- Node2 -->
<g id="node2" class="node">
<title>Node2</title>
<g id="a_node2"><a xlink:title=" ">
<polygon fill="white" stroke="#bfbfbf" points="0,-0.5 0,-30.5 154,-30.5 154,-0.5 0,-0.5"/>
<text text-anchor="start" x="8" y="-18.5" font-family="Helvetica,sans-Serif" font-size="10.00">kernel/ContinuityInflowElem</text>
<text text-anchor="middle" x="77" y="-7.5" font-family="Helvetica,sans-Serif" font-size="10.00">Kernel.h</text>
</a>
</g>
</g>
<!-- Node1&#45;&gt;Node2 -->
<g id="edge1" class="edge">
<title>Node1&#45;&gt;Node2</title>
<path fill="none" stroke="midnightblue" d="M774.32,-73.43C646.86,-68.77 390.97,-57.02 164.39,-31.08"/>
<polygon fill="midnightblue" stroke="midnightblue" points="164.64,-27.59 154.3,-29.92 163.83,-34.54 164.64,-27.59"/>
</g>
<!-- Node3 -->
<g id="node3" class="node">
<title>Node3</title>
<g id="a_node3"><a xlink:title=" ">
<polygon fill="white" stroke="#bfbfbf" points="172.5,-6 172.5,-25 355.5,-25 355.5,-6 172.5,-6"/>
<text text-anchor="middle" x="264" y="-13" font-family="Helvetica,sans-Serif" font-size="10.00">master_element/MasterElement.h</text>
</a>
</g>
</g>
<!-- Node1&#45;&gt;Node3 -->
<g id="edge2" class="edge">
<title>Node1&#45;&gt;Node3</title>
<path fill="none" stroke="midnightblue" d="M774.23,-69.85C676.99,-62.16 508.81,-47.92 365,-31 353.64,-29.66 341.58,-28.08 329.9,-26.46"/>
<polygon fill="midnightblue" stroke="midnightblue" points="330.15,-22.96 319.76,-25.02 329.18,-29.89 330.15,-22.96"/>
</g>
<!-- Node4 -->
<g id="node4" class="node">
<title>Node4</title>
<g id="a_node4"><a xlink:title=" ">
<polygon fill="white" stroke="#bfbfbf" points="374,-0.5 374,-30.5 548,-30.5 548,-0.5 374,-0.5"/>
<text text-anchor="start" x="382" y="-18.5" font-family="Helvetica,sans-Serif" font-size="10.00">master_element/MasterElement</text>
<text text-anchor="middle" x="461" y="-7.5" font-family="Helvetica,sans-Serif" font-size="10.00">Repo.h</text>
</a>
</g>
</g>
<!-- Node1&#45;&gt;Node4 -->
<g id="edge3" class="edge">
<title>Node1&#45;&gt;Node4</title>
<path fill="none" stroke="midnightblue" d="M798.55,-67.48C735.93,-58.02 633.78,-42.59 558.23,-31.18"/>
<polygon fill="midnightblue" stroke="midnightblue" points="558.63,-27.7 548.22,-29.67 557.58,-34.63 558.63,-27.7"/>
</g>
<!-- Node5 -->
<g id="node5" class="node">
<title>Node5</title>
<g id="a_node5"><a xlink:title=" ">
<polygon fill="white" stroke="#bfbfbf" points="566.5,-6 566.5,-25 669.5,-25 669.5,-6 566.5,-6"/>
<text text-anchor="middle" x="618" y="-13" font-family="Helvetica,sans-Serif" font-size="10.00">SolutionOptions.h</text>
</a>
</g>
</g>
<!-- Node1&#45;&gt;Node5 -->
<g id="edge4" class="edge">
<title>Node1&#45;&gt;Node5</title>
<path fill="none" stroke="midnightblue" d="M821.04,-67.48C779.16,-56.96 707.87,-39.06 661.87,-27.51"/>
<polygon fill="midnightblue" stroke="midnightblue" points="662.44,-24.05 651.89,-25.01 660.74,-30.84 662.44,-24.05"/>
</g>
<!-- Node6 -->
<g id="node6" class="node">
<title>Node6</title>
<g id="a_node6"><a xlink:title=" ">
<polygon fill="white" stroke="#bfbfbf" points="688,-6 688,-25 786,-25 786,-6 688,-6"/>
<text text-anchor="middle" x="737" y="-13" font-family="Helvetica,sans-Serif" font-size="10.00">TimeIntegrator.h</text>
</a>
</g>
</g>
<!-- Node1&#45;&gt;Node6 -->
<g id="edge5" class="edge">
<title>Node1&#45;&gt;Node6</title>
<path fill="none" stroke="midnightblue" d="M838.09,-67.48C818.47,-57.58 785.87,-41.14 763.01,-29.62"/>
<polygon fill="midnightblue" stroke="midnightblue" points="764.38,-26.39 753.88,-25.01 761.23,-32.64 764.38,-26.39"/>
</g>
<!-- Node7 -->
<g id="node7" class="node">
<title>Node7</title>
<g id="a_node7"><a xlink:title=" ">
<polygon fill="white" stroke="#bfbfbf" points="804.5,-6 804.5,-25 905.5,-25 905.5,-6 804.5,-6"/>
<text text-anchor="middle" x="855" y="-13" font-family="Helvetica,sans-Serif" font-size="10.00">BuildTemplates.h</text>
</a>
</g>
</g>
<!-- Node1&#45;&gt;Node7 -->
<g id="edge6" class="edge">
<title>Node1&#45;&gt;Node7</title>
<path fill="none" stroke="midnightblue" d="M855,-67.48C855,-59.08 855,-45.98 855,-35.16"/>
<polygon fill="midnightblue" stroke="midnightblue" points="858.5,-35.01 855,-25.01 851.5,-35.01 858.5,-35.01"/>
</g>
<!-- Node8 -->
<g id="node8" class="node">
<title>Node8</title>
<g id="a_node8"><a xlink:title=" ">
<polygon fill="white" stroke="#bfbfbf" points="923.5,-6 923.5,-25 1014.5,-25 1014.5,-6 923.5,-6"/>
<text text-anchor="middle" x="969" y="-13" font-family="Helvetica,sans-Serif" font-size="10.00">ScratchViews.h</text>
</a>
</g>
</g>
<!-- Node1&#45;&gt;Node8 -->
<g id="edge7" class="edge">
<title>Node1&#45;&gt;Node8</title>
<path fill="none" stroke="midnightblue" d="M871.33,-67.48C890.21,-57.62 921.51,-41.29 943.58,-29.77"/>
<polygon fill="midnightblue" stroke="midnightblue" points="945.45,-32.74 952.7,-25.01 942.21,-26.53 945.45,-32.74"/>
</g>
<!-- Node9 -->
<g id="node9" class="node">
<title>Node9</title>
<g id="a_node9"><a xlink:title=" ">
<polygon fill="white" stroke="#bfbfbf" points="1032.5,-6 1032.5,-25 1135.5,-25 1135.5,-6 1032.5,-6"/>
<text text-anchor="middle" x="1084" y="-13" font-family="Helvetica,sans-Serif" font-size="10.00">utils/StkHelpers.h</text>
</a>
</g>
</g>
<!-- Node1&#45;&gt;Node9 -->
<g id="edge8" class="edge">
<title>Node1&#45;&gt;Node9</title>
<path fill="none" stroke="midnightblue" d="M887.81,-67.48C928.2,-56.98 996.88,-39.14 1041.33,-27.59"/>
<polygon fill="midnightblue" stroke="midnightblue" points="1042.45,-30.91 1051.25,-25.01 1040.69,-24.14 1042.45,-30.91"/>
</g>
<!-- Node10 -->
<g id="node10" class="node">
<title>Node10</title>
<g id="a_node10"><a xlink:title=" ">
<polygon fill="white" stroke="#bfbfbf" points="1153.5,-6 1153.5,-25 1294.5,-25 1294.5,-6 1153.5,-6"/>
<text text-anchor="middle" x="1224" y="-13" font-family="Helvetica,sans-Serif" font-size="10.00">stk_mesh/base/Entity.hpp</text>
</a>
</g>
</g>
<!-- Node1&#45;&gt;Node10 -->
<g id="edge9" class="edge">
<title>Node1&#45;&gt;Node10</title>
<path fill="none" stroke="midnightblue" d="M913.12,-67.46C971.73,-58.74 1064.75,-44.59 1145,-31 1152.64,-29.71 1160.68,-28.29 1168.59,-26.87"/>
<polygon fill="midnightblue" stroke="midnightblue" points="1169.29,-30.3 1178.5,-25.07 1168.04,-23.41 1169.29,-30.3"/>
</g>
<!-- Node11 -->
<g id="node11" class="node">
<title>Node11</title>
<g id="a_node11"><a xlink:title=" ">
<polygon fill="white" stroke="#bfbfbf" points="1313,-6 1313,-25 1475,-25 1475,-6 1313,-6"/>
<text text-anchor="middle" x="1394" y="-13" font-family="Helvetica,sans-Serif" font-size="10.00">stk_mesh/base/MetaData.hpp</text>
</a>
</g>
</g>
<!-- Node1&#45;&gt;Node11 -->
<g id="edge10" class="edge">
<title>Node1&#45;&gt;Node11</title>
<path fill="none" stroke="midnightblue" d="M935.87,-69.36C1025.9,-61.63 1175.63,-47.76 1304,-31 1313.89,-29.71 1324.36,-28.18 1334.53,-26.6"/>
<polygon fill="midnightblue" stroke="midnightblue" points="1335.23,-30.03 1344.56,-25.01 1334.14,-23.11 1335.23,-30.03"/>
</g>
<!-- Node12 -->
<g id="node12" class="node">
<title>Node12</title>
<g id="a_node12"><a xlink:title=" ">
<polygon fill="white" stroke="#bfbfbf" points="1493.5,-6 1493.5,-25 1630.5,-25 1630.5,-6 1493.5,-6"/>
<text text-anchor="middle" x="1562" y="-13" font-family="Helvetica,sans-Serif" font-size="10.00">stk_mesh/base/Field.hpp</text>
</a>
</g>
</g>
<!-- Node1&#45;&gt;Node12 -->
<g id="edge11" class="edge">
<title>Node1&#45;&gt;Node12</title>
<path fill="none" stroke="midnightblue" d="M935.71,-73.13C1055.69,-68.21 1287.99,-56.15 1484,-31 1492.73,-29.88 1501.97,-28.41 1510.92,-26.85"/>
<polygon fill="midnightblue" stroke="midnightblue" points="1511.63,-30.27 1520.85,-25.04 1510.38,-23.39 1511.63,-30.27"/>
</g>
</g>
</svg>
