<?xml version="1.0" encoding="UTF-8" standalone="no"?>
<!DOCTYPE svg PUBLIC "-//W3C//DTD SVG 1.1//EN"
 "http://www.w3.org/Graphics/SVG/1.1/DTD/svg11.dtd">
<!-- Generated by graphviz version 2.43.0 (0)
 -->
<!-- Title: ConvectingTaylorVortexPressureAuxFunction.C Pages: 1 -->
<svg width="492pt" height="106pt"
 viewBox="0.00 0.00 491.50 106.00" xmlns="http://www.w3.org/2000/svg" xmlns:xlink="http://www.w3.org/1999/xlink">
<g id="graph0" class="graph" transform="scale(1 1) rotate(0) translate(4 102)">
<title>ConvectingTaylorVortexPressureAuxFunction.C</title>
<polygon fill="white" stroke="transparent" points="-4,4 -4,-102 487.5,-102 487.5,4 -4,4"/>
<!-- Node1 -->
<g id="node1" class="node">
<title>Node1</title>
<g id="a_node1"><a xlink:title=" ">
<polygon fill="#bfbfbf" stroke="black" points="225,-67.5 225,-97.5 399,-97.5 399,-67.5 225,-67.5"/>
<text text-anchor="start" x="233" y="-85.5" font-family="Helvetica,sans-Serif" font-size="10.00">ConvectingTaylorVortexPressure</text>
<text text-anchor="middle" x="312" y="-74.5" font-family="Helvetica,sans-Serif" font-size="10.00">AuxFunction.C</text>
</a>
</g>
</g>
<!-- Node2 -->
<g id="node2" class="node">
<title>Node2</title>
<g id="a_node2"><a xlink:title=" ">
<polygon fill="white" stroke="#bfbfbf" points="0,-0.5 0,-30.5 188,-30.5 188,-0.5 0,-0.5"/>
<text text-anchor="start" x="8" y="-18.5" font-family="Helvetica,sans-Serif" font-size="10.00">user_functions/Convecting</text>
<text text-anchor="middle" x="94" y="-7.5" font-family="Helvetica,sans-Serif" font-size="10.00">TaylorVortexPressureAuxFunction.h</text>
</a>
</g>
</g>
<!-- Node1&#45;&gt;Node2 -->
<g id="edge1" class="edge">
<title>Node1&#45;&gt;Node2</title>
<path fill="none" stroke="midnightblue" d="M264.97,-67.48C231.56,-57.51 186.52,-44.09 151.06,-33.51"/>
<polygon fill="midnightblue" stroke="midnightblue" points="151.91,-30.11 141.33,-30.61 149.91,-36.82 151.91,-30.11"/>
</g>
<!-- Node3 -->
<g id="node3" class="node">
<title>Node3</title>
<g id="a_node3"><a xlink:title=" ">
<polygon fill="white" stroke="#bfbfbf" points="206,-6 206,-25 270,-25 270,-6 206,-6"/>
<text text-anchor="middle" x="238" y="-13" font-family="Helvetica,sans-Serif" font-size="10.00">algorithm</text>
</a>
</g>
</g>
<!-- Node1&#45;&gt;Node3 -->
<g id="edge2" class="edge">
<title>Node1&#45;&gt;Node3</title>
<path fill="none" stroke="midnightblue" d="M295.94,-67.4C284.06,-56.96 267.89,-42.75 255.64,-32"/>
<polygon fill="midnightblue" stroke="midnightblue" points="257.72,-29.16 247.9,-25.19 253.1,-34.42 257.72,-29.16"/>
</g>
<!-- Node4 -->
<g id="node4" class="node">
<title>Node4</title>
<g id="a_node4"><a xlink:title=" ">
<polygon fill="white" stroke="#bfbfbf" points="288.5,-6 288.5,-25 335.5,-25 335.5,-6 288.5,-6"/>
<text text-anchor="middle" x="312" y="-13" font-family="Helvetica,sans-Serif" font-size="10.00">cmath</text>
</a>
</g>
</g>
<!-- Node1&#45;&gt;Node4 -->
<g id="edge3" class="edge">
<title>Node1&#45;&gt;Node4</title>
<path fill="none" stroke="midnightblue" d="M312,-67.4C312,-58.06 312,-45.71 312,-35.52"/>
<polygon fill="midnightblue" stroke="midnightblue" points="315.5,-35.19 312,-25.19 308.5,-35.19 315.5,-35.19"/>
</g>
<!-- Node5 -->
<g id="node5" class="node">
<title>Node5</title>
<g id="a_node5"><a xlink:title=" ">
<polygon fill="white" stroke="#bfbfbf" points="353.5,-6 353.5,-25 400.5,-25 400.5,-6 353.5,-6"/>
<text text-anchor="middle" x="377" y="-13" font-family="Helvetica,sans-Serif" font-size="10.00">vector</text>
</a>
</g>
</g>
<!-- Node1&#45;&gt;Node5 -->
<g id="edge4" class="edge">
<title>Node1&#45;&gt;Node5</title>
<path fill="none" stroke="midnightblue" d="M326.1,-67.4C336.44,-57.06 350.48,-43.02 361.19,-32.31"/>
<polygon fill="midnightblue" stroke="midnightblue" points="363.71,-34.74 368.31,-25.19 358.76,-29.79 363.71,-34.74"/>
</g>
<!-- Node6 -->
<g id="node6" class="node">
<title>Node6</title>
<g id="a_node6"><a xlink:title=" ">
<polygon fill="white" stroke="#bfbfbf" points="418.5,-6 418.5,-25 483.5,-25 483.5,-6 418.5,-6"/>
<text text-anchor="middle" x="451" y="-13" font-family="Helvetica,sans-Serif" font-size="10.00">stdexcept</text>
</a>
</g>
</g>
<!-- Node1&#45;&gt;Node6 -->
<g id="edge5" class="edge">
<title>Node1&#45;&gt;Node6</title>
<path fill="none" stroke="midnightblue" d="M342.16,-67.4C366.44,-56.04 400.28,-40.22 423.75,-29.24"/>
<polygon fill="midnightblue" stroke="midnightblue" points="425.23,-32.41 432.81,-25.01 422.27,-26.07 425.23,-32.41"/>
</g>
</g>
</svg>
