<?xml version="1.0" encoding="UTF-8" standalone="no"?>
<!DOCTYPE svg PUBLIC "-//W3C//DTD SVG 1.1//EN"
 "http://www.w3.org/Graphics/SVG/1.1/DTD/svg11.dtd">
<!-- Generated by graphviz version 2.43.0 (0)
 -->
<!-- Title: ContinuityMassBDFNodeKernel.C Pages: 1 -->
<svg width="834pt" height="95pt"
 viewBox="0.00 0.00 834.00 95.00" xmlns="http://www.w3.org/2000/svg" xmlns:xlink="http://www.w3.org/1999/xlink">
<g id="graph0" class="graph" transform="scale(1 1) rotate(0) translate(4 91)">
<title>ContinuityMassBDFNodeKernel.C</title>
<polygon fill="white" stroke="transparent" points="-4,4 -4,-91 830,-91 830,4 -4,4"/>
<!-- Node1 -->
<g id="node1" class="node">
<title>Node1</title>
<g id="a_node1"><a xlink:title=" ">
<polygon fill="#bfbfbf" stroke="black" points="330.5,-67.5 330.5,-86.5 509.5,-86.5 509.5,-67.5 330.5,-67.5"/>
<text text-anchor="middle" x="420" y="-74.5" font-family="Helvetica,sans-Serif" font-size="10.00">ContinuityMassBDFNodeKernel.C</text>
</a>
</g>
</g>
<!-- Node2 -->
<g id="node2" class="node">
<title>Node2</title>
<g id="a_node2"><a xlink:title=" ">
<polygon fill="white" stroke="#bfbfbf" points="0,-0.5 0,-30.5 160,-30.5 160,-0.5 0,-0.5"/>
<text text-anchor="start" x="8" y="-18.5" font-family="Helvetica,sans-Serif" font-size="10.00">node_kernels/ContinuityMass</text>
<text text-anchor="middle" x="80" y="-7.5" font-family="Helvetica,sans-Serif" font-size="10.00">BDFNodeKernel.h</text>
</a>
</g>
</g>
<!-- Node1&#45;&gt;Node2 -->
<g id="edge1" class="edge">
<title>Node1&#45;&gt;Node2</title>
<path fill="none" stroke="midnightblue" d="M371.29,-67.48C319,-58.32 234.77,-43.58 170.3,-32.3"/>
<polygon fill="midnightblue" stroke="midnightblue" points="170.58,-28.8 160.13,-30.52 169.38,-35.69 170.58,-28.8"/>
</g>
<!-- Node3 -->
<g id="node3" class="node">
<title>Node3</title>
<g id="a_node3"><a xlink:title=" ">
<polygon fill="white" stroke="#bfbfbf" points="178.5,-6 178.5,-25 235.5,-25 235.5,-6 178.5,-6"/>
<text text-anchor="middle" x="207" y="-13" font-family="Helvetica,sans-Serif" font-size="10.00">Realm.h</text>
</a>
</g>
</g>
<!-- Node1&#45;&gt;Node3 -->
<g id="edge2" class="edge">
<title>Node1&#45;&gt;Node3</title>
<path fill="none" stroke="midnightblue" d="M381.76,-67.48C346.07,-59.22 291.48,-45.79 245,-31 242.59,-30.23 240.1,-29.39 237.62,-28.52"/>
<polygon fill="midnightblue" stroke="midnightblue" points="238.75,-25.21 228.15,-25.06 236.34,-31.78 238.75,-25.21"/>
</g>
<!-- Node4 -->
<g id="node4" class="node">
<title>Node4</title>
<g id="a_node4"><a xlink:title=" ">
<polygon fill="white" stroke="#bfbfbf" points="254,-6 254,-25 416,-25 416,-6 254,-6"/>
<text text-anchor="middle" x="335" y="-13" font-family="Helvetica,sans-Serif" font-size="10.00">stk_mesh/base/MetaData.hpp</text>
</a>
</g>
</g>
<!-- Node1&#45;&gt;Node4 -->
<g id="edge3" class="edge">
<title>Node1&#45;&gt;Node4</title>
<path fill="none" stroke="midnightblue" d="M407.82,-67.48C394.19,-57.93 371.87,-42.31 355.53,-30.87"/>
<polygon fill="midnightblue" stroke="midnightblue" points="357.36,-27.88 347.16,-25.01 353.34,-33.61 357.36,-27.88"/>
</g>
<!-- Node5 -->
<g id="node5" class="node">
<title>Node5</title>
<g id="a_node5"><a xlink:title=" ">
<polygon fill="white" stroke="#bfbfbf" points="434,-6 434,-25 576,-25 576,-6 434,-6"/>
<text text-anchor="middle" x="505" y="-13" font-family="Helvetica,sans-Serif" font-size="10.00">stk_mesh/base/Types.hpp</text>
</a>
</g>
</g>
<!-- Node1&#45;&gt;Node5 -->
<g id="edge4" class="edge">
<title>Node1&#45;&gt;Node5</title>
<path fill="none" stroke="midnightblue" d="M432.18,-67.48C445.81,-57.93 468.13,-42.31 484.47,-30.87"/>
<polygon fill="midnightblue" stroke="midnightblue" points="486.66,-33.61 492.84,-25.01 482.64,-27.88 486.66,-33.61"/>
</g>
<!-- Node6 -->
<g id="node6" class="node">
<title>Node6</title>
<g id="a_node6"><a xlink:title=" ">
<polygon fill="white" stroke="#bfbfbf" points="594.5,-6 594.5,-25 697.5,-25 697.5,-6 594.5,-6"/>
<text text-anchor="middle" x="646" y="-13" font-family="Helvetica,sans-Serif" font-size="10.00">utils/StkHelpers.h</text>
</a>
</g>
</g>
<!-- Node1&#45;&gt;Node6 -->
<g id="edge5" class="edge">
<title>Node1&#45;&gt;Node6</title>
<path fill="none" stroke="midnightblue" d="M452.38,-67.48C492.24,-56.98 560.02,-39.14 603.89,-27.59"/>
<polygon fill="midnightblue" stroke="midnightblue" points="604.9,-30.94 613.68,-25.01 603.12,-24.17 604.9,-30.94"/>
</g>
<!-- Node7 -->
<g id="node7" class="node">
<title>Node7</title>
<g id="a_node7"><a xlink:title=" ">
<polygon fill="white" stroke="#bfbfbf" points="716,-6 716,-25 826,-25 826,-6 716,-6"/>
<text text-anchor="middle" x="771" y="-13" font-family="Helvetica,sans-Serif" font-size="10.00">utils/FieldHelpers.h</text>
</a>
</g>
</g>
<!-- Node1&#45;&gt;Node7 -->
<g id="edge6" class="edge">
<title>Node1&#45;&gt;Node7</title>
<path fill="none" stroke="midnightblue" d="M482.07,-67.5C540.34,-59.23 629.85,-45.77 707,-31 712.88,-29.87 719.04,-28.6 725.12,-27.29"/>
<polygon fill="midnightblue" stroke="midnightblue" points="726.2,-30.63 735.21,-25.06 724.69,-23.8 726.2,-30.63"/>
</g>
</g>
</svg>
