<?xml version="1.0" encoding="UTF-8" standalone="no"?>
<!DOCTYPE svg PUBLIC "-//W3C//DTD SVG 1.1//EN"
 "http://www.w3.org/Graphics/SVG/1.1/DTD/svg11.dtd">
<!-- Generated by graphviz version 2.43.0 (0)
 -->
<!-- Title: ConductionSolutionUpdate.C Pages: 1 -->
<!--zoomable 95 -->
<svg id="main" version="1.1" xmlns="http://www.w3.org/2000/svg" xmlns:xlink="http://www.w3.org/1999/xlink" xml:space="preserve" onload="init(evt)">
<style type="text/css"><![CDATA[
.edge:hover path { stroke: red; }
.edge:hover polygon { stroke: red; fill: red; }
]]></style>
<script type="text/javascript"><![CDATA[
var edges = document.getElementsByTagName('g');
if (edges && edges.length) {
  for (var i=0;i<edges.length;i++) {
    if (edges[i].id.substr(0,4)=='edge') {
      edges[i].setAttribute('class','edge');
    }
  }
}
]]></script>
        <defs>
                <circle id="rim" cx="0" cy="0" r="7"/>
                <circle id="rim2" cx="0" cy="0" r="3.5"/>
                <g id="zoomPlus">
                        <use xlink:href="#rim" fill="#404040">
                                <set attributeName="fill" to="#808080" begin="zoomplus.mouseover" end="zoomplus.mouseout"/>
                        </use>
                        <path d="M-4,0h8M0,-4v8" fill="none" stroke="white" stroke-width="1.5" pointer-events="none"/>
                </g>
                <g id="zoomMin">
                        <use xlink:href="#rim" fill="#404040">
                                <set attributeName="fill" to="#808080" begin="zoomminus.mouseover" end="zoomminus.mouseout"/>
                        </use>
                        <path d="M-4,0h8" fill="none" stroke="white" stroke-width="1.5" pointer-events="none"/>
                </g>
                <g id="dirArrow">
                        <path fill="none" stroke="white" stroke-width="1.5" d="M0,-3.0v7 M-2.5,-0.5L0,-3.0L2.5,-0.5"/>
                </g>
               <g id="resetDef">
                       <use xlink:href="#rim2" fill="#404040">
                               <set attributeName="fill" to="#808080" begin="reset.mouseover" end="reset.mouseout"/>
                       </use>
               </g>
        </defs>

<script type="text/javascript">
var viewWidth = 2917;
var viewHeight = 95;
var sectionId = 'dynsection-0';
</script>
<script xlink:href="svgpan.js"/>
<svg id="graph" class="graph">
<g id="viewport">
<title>ConductionSolutionUpdate.C</title>
<polygon fill="white" stroke="transparent" points="-4,4 -4,-91 2913,-91 2913,4 -4,4"/>
<!-- Node1 -->
<g id="node1" class="node">
<title>Node1</title>
<g id="a_node1"><a xlink:title=" ">
<polygon fill="#bfbfbf" stroke="black" points="1555.5,-67.5 1555.5,-86.5 1711.5,-86.5 1711.5,-67.5 1555.5,-67.5"/>
<text text-anchor="middle" x="1633.5" y="-74.5" font-family="Helvetica,sans-Serif" font-size="10.00">ConductionSolutionUpdate.C</text>
</a>
</g>
</g>
<!-- Node2 -->
<g id="node2" class="node">
<title>Node2</title>
<g id="a_node2"><a xlink:title=" ">
<polygon fill="white" stroke="#bfbfbf" points="0,-0.5 0,-30.5 171,-30.5 171,-0.5 0,-0.5"/>
<text text-anchor="start" x="8" y="-18.5" font-family="Helvetica,sans-Serif" font-size="10.00">matrix_free/ConductionSolution</text>
<text text-anchor="middle" x="85.5" y="-7.5" font-family="Helvetica,sans-Serif" font-size="10.00">Update.h</text>
</a>
</g>
</g>
<!-- Node1&#45;&gt;Node2 -->
<g id="edge1" class="edge">
<title>Node1&#45;&gt;Node2</title>
<path fill="none" stroke="midnightblue" d="M1555.28,-74.84C1296.68,-70.81 469.85,-56.31 181.05,-31.05"/>
<polygon fill="midnightblue" stroke="midnightblue" points="181.28,-27.55 171,-30.14 180.65,-34.52 181.28,-27.55"/>
</g>
<!-- Node3 -->
<g id="node3" class="node">
<title>Node3</title>
<g id="a_node3"><a xlink:title=" ">
<polygon fill="white" stroke="#bfbfbf" points="189,-6 189,-25 358,-25 358,-6 189,-6"/>
<text text-anchor="middle" x="273.5" y="-13" font-family="Helvetica,sans-Serif" font-size="10.00">matrix_free/ConductionFields.h</text>
</a>
</g>
</g>
<!-- Node1&#45;&gt;Node3 -->
<g id="edge2" class="edge">
<title>Node1&#45;&gt;Node3</title>
<path fill="none" stroke="midnightblue" d="M1555.43,-76.46C1356.61,-76.92 815.13,-73.79 366.5,-31 355.05,-29.91 342.87,-28.32 331.22,-26.59"/>
<polygon fill="midnightblue" stroke="midnightblue" points="331.57,-23.1 321.15,-25.05 330.5,-30.02 331.57,-23.1"/>
</g>
<!-- Node4 -->
<g id="node4" class="node">
<title>Node4</title>
<g id="a_node4"><a xlink:title=" ">
<polygon fill="white" stroke="#bfbfbf" points="375.5,-6 375.5,-25 543.5,-25 543.5,-6 375.5,-6"/>
<text text-anchor="middle" x="459.5" y="-13" font-family="Helvetica,sans-Serif" font-size="10.00">matrix_free/MatrixFreeSolver.h</text>
</a>
</g>
</g>
<!-- Node1&#45;&gt;Node4 -->
<g id="edge3" class="edge">
<title>Node1&#45;&gt;Node4</title>
<path fill="none" stroke="midnightblue" d="M1555.29,-75.77C1376.98,-74.59 926.83,-67.85 552.5,-31 541.18,-29.89 529.14,-28.31 517.61,-26.59"/>
<polygon fill="midnightblue" stroke="midnightblue" points="518.05,-23.12 507.64,-25.07 516.99,-30.04 518.05,-23.12"/>
</g>
<!-- Node5 -->
<g id="node5" class="node">
<title>Node5</title>
<g id="a_node5"><a xlink:title=" ">
<polygon fill="white" stroke="#bfbfbf" points="562,-6 562,-25 735,-25 735,-6 562,-6"/>
<text text-anchor="middle" x="648.5" y="-13" font-family="Helvetica,sans-Serif" font-size="10.00">matrix_free/PolynomialOrders.h</text>
</a>
</g>
</g>
<!-- Node1&#45;&gt;Node5 -->
<g id="edge4" class="edge">
<title>Node1&#45;&gt;Node5</title>
<path fill="none" stroke="midnightblue" d="M1555.32,-74.7C1400.17,-71.53 1042.5,-61.3 743.5,-31 732.07,-29.84 719.92,-28.26 708.27,-26.56"/>
<polygon fill="midnightblue" stroke="midnightblue" points="708.59,-23.07 698.18,-25.05 707.55,-29.99 708.59,-23.07"/>
</g>
<!-- Node6 -->
<g id="node6" class="node">
<title>Node6</title>
<g id="a_node6"><a xlink:title=" ">
<polygon fill="white" stroke="#bfbfbf" points="753,-0.5 753,-30.5 932,-30.5 932,-0.5 753,-0.5"/>
<text text-anchor="start" x="761" y="-18.5" font-family="Helvetica,sans-Serif" font-size="10.00">matrix_free/StkSimdConnectivity</text>
<text text-anchor="middle" x="842.5" y="-7.5" font-family="Helvetica,sans-Serif" font-size="10.00">Map.h</text>
</a>
</g>
</g>
<!-- Node1&#45;&gt;Node6 -->
<g id="edge5" class="edge">
<title>Node1&#45;&gt;Node6</title>
<path fill="none" stroke="midnightblue" d="M1555.49,-72.98C1429.05,-67.62 1171.29,-54.83 942.23,-31.01"/>
<polygon fill="midnightblue" stroke="midnightblue" points="942.35,-27.51 932.04,-29.94 941.62,-34.47 942.35,-27.51"/>
</g>
<!-- Node7 -->
<g id="node7" class="node">
<title>Node7</title>
<g id="a_node7"><a xlink:title=" ">
<polygon fill="white" stroke="#bfbfbf" points="950.5,-0.5 950.5,-30.5 1150.5,-30.5 1150.5,-0.5 950.5,-0.5"/>
<text text-anchor="start" x="958.5" y="-18.5" font-family="Helvetica,sans-Serif" font-size="10.00">matrix_free/StkSimdFaceConnectivity</text>
<text text-anchor="middle" x="1050.5" y="-7.5" font-family="Helvetica,sans-Serif" font-size="10.00">Map.h</text>
</a>
</g>
</g>
<!-- Node1&#45;&gt;Node7 -->
<g id="edge6" class="edge">
<title>Node1&#45;&gt;Node7</title>
<path fill="none" stroke="midnightblue" d="M1555.4,-69.49C1463.48,-61.63 1305.98,-47.51 1160.57,-31.1"/>
<polygon fill="midnightblue" stroke="midnightblue" points="1160.9,-27.61 1150.57,-29.96 1160.11,-34.57 1160.9,-27.61"/>
</g>
<!-- Node8 -->
<g id="node8" class="node">
<title>Node8</title>
<g id="a_node8"><a xlink:title=" ">
<polygon fill="white" stroke="#bfbfbf" points="1168.5,-0.5 1168.5,-30.5 1372.5,-30.5 1372.5,-0.5 1168.5,-0.5"/>
<text text-anchor="start" x="1176.5" y="-18.5" font-family="Helvetica,sans-Serif" font-size="10.00">matrix_free/StkSimdNodeConnectivity</text>
<text text-anchor="middle" x="1270.5" y="-7.5" font-family="Helvetica,sans-Serif" font-size="10.00">Map.h</text>
</a>
</g>
</g>
<!-- Node1&#45;&gt;Node8 -->
<g id="edge7" class="edge">
<title>Node1&#45;&gt;Node8</title>
<path fill="none" stroke="midnightblue" d="M1581.49,-67.48C1525.44,-58.29 1435,-43.46 1366.06,-32.16"/>
<polygon fill="midnightblue" stroke="midnightblue" points="1366.49,-28.69 1356.05,-30.52 1365.35,-35.59 1366.49,-28.69"/>
</g>
<!-- Node9 -->
<g id="node9" class="node">
<title>Node9</title>
<g id="a_node9"><a xlink:title=" ">
<polygon fill="white" stroke="#bfbfbf" points="1390.5,-6 1390.5,-25 1494.5,-25 1494.5,-6 1390.5,-6"/>
<text text-anchor="middle" x="1442.5" y="-13" font-family="Helvetica,sans-Serif" font-size="10.00">KokkosInterface.h</text>
</a>
</g>
</g>
<!-- Node1&#45;&gt;Node9 -->
<g id="edge8" class="edge">
<title>Node1&#45;&gt;Node9</title>
<path fill="none" stroke="midnightblue" d="M1606.13,-67.48C1572.95,-57.14 1516.85,-39.66 1479.74,-28.1"/>
<polygon fill="midnightblue" stroke="midnightblue" points="1480.4,-24.64 1469.81,-25.01 1478.32,-31.32 1480.4,-24.64"/>
</g>
<!-- Node10 -->
<g id="node10" class="node">
<title>Node10</title>
<g id="a_node10"><a xlink:title=" ">
<polygon fill="white" stroke="#bfbfbf" points="1512.5,-6 1512.5,-25 1612.5,-25 1612.5,-6 1512.5,-6"/>
<text text-anchor="middle" x="1562.5" y="-13" font-family="Helvetica,sans-Serif" font-size="10.00">Teuchos_RCP.hpp</text>
</a>
</g>
</g>
<!-- Node1&#45;&gt;Node10 -->
<g id="edge9" class="edge">
<title>Node1&#45;&gt;Node10</title>
<path fill="none" stroke="midnightblue" d="M1623.33,-67.48C1612.15,-58.11 1593.98,-42.88 1580.41,-31.51"/>
<polygon fill="midnightblue" stroke="midnightblue" points="1582.57,-28.75 1572.65,-25.01 1578.07,-34.11 1582.57,-28.75"/>
</g>
<!-- Node11 -->
<g id="node11" class="node">
<title>Node11</title>
<g id="a_node11"><a xlink:title=" ">
<polygon fill="white" stroke="#bfbfbf" points="1631,-6 1631,-25 1780,-25 1780,-6 1631,-6"/>
<text text-anchor="middle" x="1705.5" y="-13" font-family="Helvetica,sans-Serif" font-size="10.00">Teuchos_ParameterList.hpp</text>
</a>
</g>
</g>
<!-- Node1&#45;&gt;Node11 -->
<g id="edge10" class="edge">
<title>Node1&#45;&gt;Node11</title>
<path fill="none" stroke="midnightblue" d="M1643.82,-67.48C1655.15,-58.11 1673.57,-42.88 1687.34,-31.51"/>
<polygon fill="midnightblue" stroke="midnightblue" points="1689.72,-34.08 1695.2,-25.01 1685.27,-28.68 1689.72,-34.08"/>
</g>
<!-- Node12 -->
<g id="node12" class="node">
<title>Node12</title>
<g id="a_node12"><a xlink:title=" ">
<polygon fill="white" stroke="#bfbfbf" points="1798,-6 1798,-25 1943,-25 1943,-6 1798,-6"/>
<text text-anchor="middle" x="1870.5" y="-13" font-family="Helvetica,sans-Serif" font-size="10.00">Tpetra_CombineMode.hpp</text>
</a>
</g>
</g>
<!-- Node1&#45;&gt;Node12 -->
<g id="edge11" class="edge">
<title>Node1&#45;&gt;Node12</title>
<path fill="none" stroke="midnightblue" d="M1667.46,-67.48C1709.34,-56.96 1780.63,-39.06 1826.63,-27.51"/>
<polygon fill="midnightblue" stroke="midnightblue" points="1827.76,-30.84 1836.61,-25.01 1826.06,-24.05 1827.76,-30.84"/>
</g>
<!-- Node13 -->
<g id="node13" class="node">
<title>Node13</title>
<g id="a_node13"><a xlink:title=" ">
<polygon fill="white" stroke="#bfbfbf" points="1961.5,-6 1961.5,-25 2067.5,-25 2067.5,-6 1961.5,-6"/>
<text text-anchor="middle" x="2014.5" y="-13" font-family="Helvetica,sans-Serif" font-size="10.00">Tpetra_Export.hpp</text>
</a>
</g>
</g>
<!-- Node1&#45;&gt;Node13 -->
<g id="edge12" class="edge">
<title>Node1&#45;&gt;Node13</title>
<path fill="none" stroke="midnightblue" d="M1707.29,-67.49C1772.14,-59.57 1868.94,-46.63 1952.5,-31 1958.35,-29.91 1964.48,-28.63 1970.51,-27.3"/>
<polygon fill="midnightblue" stroke="midnightblue" points="1971.53,-30.66 1980.51,-25.03 1969.98,-23.83 1971.53,-30.66"/>
</g>
<!-- Node14 -->
<g id="node14" class="node">
<title>Node14</title>
<g id="a_node14"><a xlink:title=" ">
<polygon fill="white" stroke="#bfbfbf" points="2086,-6 2086,-25 2181,-25 2181,-6 2086,-6"/>
<text text-anchor="middle" x="2133.5" y="-13" font-family="Helvetica,sans-Serif" font-size="10.00">Tpetra_Map.hpp</text>
</a>
</g>
</g>
<!-- Node1&#45;&gt;Node14 -->
<g id="edge13" class="edge">
<title>Node1&#45;&gt;Node14</title>
<path fill="none" stroke="midnightblue" d="M1711.6,-71.57C1800.49,-65.72 1949.76,-53.43 2076.5,-31 2082.03,-30.02 2087.82,-28.79 2093.49,-27.47"/>
<polygon fill="midnightblue" stroke="midnightblue" points="2094.63,-30.79 2103.51,-25.01 2092.96,-24 2094.63,-30.79"/>
</g>
<!-- Node15 -->
<g id="node15" class="node">
<title>Node15</title>
<g id="a_node15"><a xlink:title=" ">
<polygon fill="white" stroke="#bfbfbf" points="2199,-6 2199,-25 2328,-25 2328,-6 2199,-6"/>
<text text-anchor="middle" x="2263.5" y="-13" font-family="Helvetica,sans-Serif" font-size="10.00">Tpetra_MultiVector.hpp</text>
</a>
</g>
</g>
<!-- Node1&#45;&gt;Node15 -->
<g id="edge14" class="edge">
<title>Node1&#45;&gt;Node15</title>
<path fill="none" stroke="midnightblue" d="M1711.76,-72.53C1819.83,-67.09 2020.66,-54.65 2190.5,-31 2198.51,-29.89 2206.96,-28.45 2215.16,-26.92"/>
<polygon fill="midnightblue" stroke="midnightblue" points="2215.85,-30.35 2225,-25.01 2214.52,-23.48 2215.85,-30.35"/>
</g>
<!-- Node16 -->
<g id="node16" class="node">
<title>Node16</title>
<g id="a_node16"><a xlink:title=" ">
<polygon fill="white" stroke="#bfbfbf" points="2346.5,-0.5 2346.5,-30.5 2498.5,-30.5 2498.5,-0.5 2346.5,-0.5"/>
<text text-anchor="start" x="2354.5" y="-18.5" font-family="Helvetica,sans-Serif" font-size="10.00">stk_mesh/base/NgpProfiling</text>
<text text-anchor="middle" x="2422.5" y="-7.5" font-family="Helvetica,sans-Serif" font-size="10.00">Block.hpp</text>
</a>
</g>
</g>
<!-- Node1&#45;&gt;Node16 -->
<g id="edge15" class="edge">
<title>Node1&#45;&gt;Node16</title>
<path fill="none" stroke="midnightblue" d="M1711.61,-73.69C1839.92,-69.3 2103.49,-57.8 2336.1,-31.08"/>
<polygon fill="midnightblue" stroke="midnightblue" points="2336.57,-34.55 2346.1,-29.92 2335.76,-27.6 2336.57,-34.55"/>
</g>
<!-- Node17 -->
<g id="node17" class="node">
<title>Node17</title>
<g id="a_node17"><a xlink:title=" ">
<polygon fill="white" stroke="#bfbfbf" points="2516.5,-6 2516.5,-25 2650.5,-25 2650.5,-6 2516.5,-6"/>
<text text-anchor="middle" x="2583.5" y="-13" font-family="Helvetica,sans-Serif" font-size="10.00">stk_mesh/base/Ngp.hpp</text>
</a>
</g>
</g>
<!-- Node1&#45;&gt;Node17 -->
<g id="edge16" class="edge">
<title>Node1&#45;&gt;Node17</title>
<path fill="none" stroke="midnightblue" d="M1711.56,-75.56C1864.74,-73.91 2215.24,-66.24 2507.5,-31 2516.22,-29.95 2525.44,-28.49 2534.35,-26.9"/>
<polygon fill="midnightblue" stroke="midnightblue" points="2535.03,-30.33 2544.22,-25.06 2533.74,-23.45 2535.03,-30.33"/>
</g>
<!-- Node18 -->
<g id="node18" class="node">
<title>Node18</title>
<g id="a_node18"><a xlink:title=" ">
<polygon fill="white" stroke="#bfbfbf" points="2669,-6 2669,-25 2822,-25 2822,-6 2669,-6"/>
<text text-anchor="middle" x="2745.5" y="-13" font-family="Helvetica,sans-Serif" font-size="10.00">stk_mesh/base/Selector.hpp</text>
</a>
</g>
</g>
<!-- Node1&#45;&gt;Node18 -->
<g id="edge17" class="edge">
<title>Node1&#45;&gt;Node18</title>
<path fill="none" stroke="midnightblue" d="M1711.61,-75.85C1883.47,-74.8 2307.1,-68.29 2659.5,-31 2669.77,-29.91 2680.67,-28.38 2691.14,-26.71"/>
<polygon fill="midnightblue" stroke="midnightblue" points="2691.71,-30.16 2701.01,-25.07 2690.57,-23.25 2691.71,-30.16"/>
</g>
<!-- Node19 -->
<g id="node19" class="node">
<title>Node19</title>
<g id="a_node19"><a xlink:title=" ">
<polygon fill="white" stroke="#bfbfbf" points="2840,-6 2840,-25 2909,-25 2909,-6 2840,-6"/>
<text text-anchor="middle" x="2874.5" y="-13" font-family="Helvetica,sans-Serif" font-size="10.00">type_traits</text>
</a>
</g>
</g>
<!-- Node1&#45;&gt;Node19 -->
<g id="edge18" class="edge">
<title>Node1&#45;&gt;Node19</title>
<path fill="none" stroke="midnightblue" d="M1711.52,-75.99C1941.73,-75.5 2615.52,-70.61 2831.5,-31 2835.4,-30.28 2839.43,-29.29 2843.38,-28.16"/>
<polygon fill="midnightblue" stroke="midnightblue" points="2844.47,-31.48 2852.95,-25.12 2842.36,-24.81 2844.47,-31.48"/>
</g>
</g>
</svg>
        <g id="navigator" transform="translate(0 0)" fill="#404254">
                <rect fill="#f2f5e9" fill-opacity="0.5" stroke="#606060" stroke-width=".5" x="0" y="0" width="60" height="60"/>
                <use id="zoomplus" xlink:href="#zoomPlus" x="17" y="9" onmousedown="handleZoom(evt,'in')"/>
                <use id="zoomminus" xlink:href="#zoomMin" x="42" y="9" onmousedown="handleZoom(evt,'out')"/>
                <use id="reset" xlink:href="#resetDef" x="30" y="36" onmousedown="handleReset()"/>
                <g id="arrowUp" xlink:href="#dirArrow" transform="translate(30 24)" onmousedown="handlePan(0,-1)">
                  <use xlink:href="#rim" fill="#404040">
                        <set attributeName="fill" to="#808080" begin="arrowUp.mouseover" end="arrowUp.mouseout"/>
                  </use>
                  <path fill="none" stroke="white" stroke-width="1.5" d="M0,-3.0v7 M-2.5,-0.5L0,-3.0L2.5,-0.5"/>
                </g>
                <g id="arrowRight" xlink:href="#dirArrow" transform="rotate(90) translate(36 -43)" onmousedown="handlePan(1,0)">
                  <use xlink:href="#rim" fill="#404040">
                        <set attributeName="fill" to="#808080" begin="arrowRight.mouseover" end="arrowRight.mouseout"/>
                  </use>
                  <path fill="none" stroke="white" stroke-width="1.5" d="M0,-3.0v7 M-2.5,-0.5L0,-3.0L2.5,-0.5"/>
                </g>
                <g id="arrowDown" xlink:href="#dirArrow" transform="rotate(180) translate(-30 -48)" onmousedown="handlePan(0,1)">
                  <use xlink:href="#rim" fill="#404040">
                        <set attributeName="fill" to="#808080" begin="arrowDown.mouseover" end="arrowDown.mouseout"/>
                  </use>
                  <path fill="none" stroke="white" stroke-width="1.5" d="M0,-3.0v7 M-2.5,-0.5L0,-3.0L2.5,-0.5"/>
                </g>
                <g id="arrowLeft" xlink:href="#dirArrow" transform="rotate(270) translate(-36 17)" onmousedown="handlePan(-1,0)">
                  <use xlink:href="#rim" fill="#404040">
                        <set attributeName="fill" to="#808080" begin="arrowLeft.mouseover" end="arrowLeft.mouseout"/>
                  </use>
                  <path fill="none" stroke="white" stroke-width="1.5" d="M0,-3.0v7 M-2.5,-0.5L0,-3.0L2.5,-0.5"/>
                </g>
        </g>
        <svg viewBox="0 0 15 15" width="100%" height="30px" preserveAspectRatio="xMaxYMin meet">
         <g id="arrow_out" transform="scale(0.3 0.3)">
          <a xlink:href="_conduction_solution_update_8_c__incl_org.svg" target="_base">
           <rect id="button" ry="5" rx="5" y="6" x="6" height="38" width="38"
                fill="#f2f5e9" fill-opacity="0.5" stroke="#606060" stroke-width="1.0"/>
           <path id="arrow"
             d="M 11.500037,31.436501 C 11.940474,20.09759 22.043105,11.32322 32.158766,21.979434 L 37.068811,17.246167 C 37.068811,17.246167 37.088388,32 37.088388,32 L 22.160133,31.978069 C 22.160133,31.978069 26.997745,27.140456 26.997745,27.140456 C 18.528582,18.264221 13.291696,25.230495 11.500037,31.436501 z"
             style="fill:#404040;"/>
          </a>
         </g>
        </svg>
</svg>
