<?xml version="1.0" encoding="UTF-8" standalone="no"?>
<!DOCTYPE svg PUBLIC "-//W3C//DTD SVG 1.1//EN"
 "http://www.w3.org/Graphics/SVG/1.1/DTD/svg11.dtd">
<!-- Generated by graphviz version 2.43.0 (0)
 -->
<!-- Title: ConductionOperator.C Pages: 1 -->
<svg width="1294pt" height="95pt"
 viewBox="0.00 0.00 1294.00 95.00" xmlns="http://www.w3.org/2000/svg" xmlns:xlink="http://www.w3.org/1999/xlink">
<g id="graph0" class="graph" transform="scale(1 1) rotate(0) translate(4 91)">
<title>ConductionOperator.C</title>
<polygon fill="white" stroke="transparent" points="-4,4 -4,-91 1290,-91 1290,4 -4,4"/>
<!-- Node1 -->
<g id="node1" class="node">
<title>Node1</title>
<g id="a_node1"><a xlink:title=" ">
<polygon fill="#bfbfbf" stroke="black" points="597.5,-67.5 597.5,-86.5 720.5,-86.5 720.5,-67.5 597.5,-67.5"/>
<text text-anchor="middle" x="659" y="-74.5" font-family="Helvetica,sans-Serif" font-size="10.00">ConductionOperator.C</text>
</a>
</g>
</g>
<!-- Node2 -->
<g id="node2" class="node">
<title>Node2</title>
<g id="a_node2"><a xlink:title=" ">
<polygon fill="white" stroke="#bfbfbf" points="0,-6 0,-25 182,-25 182,-6 0,-6"/>
<text text-anchor="middle" x="91" y="-13" font-family="Helvetica,sans-Serif" font-size="10.00">matrix_free/ConductionOperator.h</text>
</a>
</g>
</g>
<!-- Node1&#45;&gt;Node2 -->
<g id="edge1" class="edge">
<title>Node1&#45;&gt;Node2</title>
<path fill="none" stroke="midnightblue" d="M597.2,-71.01C507.55,-63.56 336.26,-48.5 191,-31 179.82,-29.65 167.96,-28.07 156.46,-26.45"/>
<polygon fill="midnightblue" stroke="midnightblue" points="156.87,-22.98 146.48,-25.03 155.88,-29.91 156.87,-22.98"/>
</g>
<!-- Node3 -->
<g id="node3" class="node">
<title>Node3</title>
<g id="a_node3"><a xlink:title=" ">
<polygon fill="white" stroke="#bfbfbf" points="200.5,-6 200.5,-25 375.5,-25 375.5,-6 200.5,-6"/>
<text text-anchor="middle" x="288" y="-13" font-family="Helvetica,sans-Serif" font-size="10.00">matrix_free/ConductionInterior.h</text>
</a>
</g>
</g>
<!-- Node1&#45;&gt;Node3 -->
<g id="edge2" class="edge">
<title>Node1&#45;&gt;Node3</title>
<path fill="none" stroke="midnightblue" d="M605.84,-67.48C538.62,-56.69 423.02,-38.15 351.31,-26.65"/>
<polygon fill="midnightblue" stroke="midnightblue" points="351.48,-23.14 341.06,-25.01 350.38,-30.05 351.48,-23.14"/>
</g>
<!-- Node4 -->
<g id="node4" class="node">
<title>Node4</title>
<g id="a_node4"><a xlink:title=" ">
<polygon fill="white" stroke="#bfbfbf" points="394,-6 394,-25 566,-25 566,-6 394,-6"/>
<text text-anchor="middle" x="480" y="-13" font-family="Helvetica,sans-Serif" font-size="10.00">matrix_free/StrongDirichletBC.h</text>
</a>
</g>
</g>
<!-- Node1&#45;&gt;Node4 -->
<g id="edge3" class="edge">
<title>Node1&#45;&gt;Node4</title>
<path fill="none" stroke="midnightblue" d="M633.35,-67.48C602.38,-57.18 550.13,-39.81 515.35,-28.25"/>
<polygon fill="midnightblue" stroke="midnightblue" points="516.19,-24.84 505.6,-25.01 513.98,-31.48 516.19,-24.84"/>
</g>
<!-- Node5 -->
<g id="node5" class="node">
<title>Node5</title>
<g id="a_node5"><a xlink:title=" ">
<polygon fill="white" stroke="#bfbfbf" points="584,-6 584,-25 734,-25 734,-6 584,-6"/>
<text text-anchor="middle" x="659" y="-13" font-family="Helvetica,sans-Serif" font-size="10.00">matrix_free/ScalarFluxBC.h</text>
</a>
</g>
</g>
<!-- Node1&#45;&gt;Node5 -->
<g id="edge4" class="edge">
<title>Node1&#45;&gt;Node5</title>
<path fill="none" stroke="midnightblue" d="M659,-67.48C659,-59.08 659,-45.98 659,-35.16"/>
<polygon fill="midnightblue" stroke="midnightblue" points="662.5,-35.01 659,-25.01 655.5,-35.01 662.5,-35.01"/>
</g>
<!-- Node6 -->
<g id="node6" class="node">
<title>Node6</title>
<g id="a_node6"><a xlink:title=" ">
<polygon fill="white" stroke="#bfbfbf" points="752.5,-6 752.5,-25 925.5,-25 925.5,-6 752.5,-6"/>
<text text-anchor="middle" x="839" y="-13" font-family="Helvetica,sans-Serif" font-size="10.00">matrix_free/PolynomialOrders.h</text>
</a>
</g>
</g>
<!-- Node1&#45;&gt;Node6 -->
<g id="edge5" class="edge">
<title>Node1&#45;&gt;Node6</title>
<path fill="none" stroke="midnightblue" d="M684.79,-67.48C715.93,-57.18 768.48,-39.81 803.45,-28.25"/>
<polygon fill="midnightblue" stroke="midnightblue" points="804.86,-31.47 813.26,-25.01 802.66,-24.82 804.86,-31.47"/>
</g>
<!-- Node7 -->
<g id="node7" class="node">
<title>Node7</title>
<g id="a_node7"><a xlink:title=" ">
<polygon fill="white" stroke="#bfbfbf" points="944,-6 944,-25 1116,-25 1116,-6 944,-6"/>
<text text-anchor="middle" x="1030" y="-13" font-family="Helvetica,sans-Serif" font-size="10.00">matrix_free/KokkosViewTypes.h</text>
</a>
</g>
</g>
<!-- Node1&#45;&gt;Node7 -->
<g id="edge6" class="edge">
<title>Node1&#45;&gt;Node7</title>
<path fill="none" stroke="midnightblue" d="M712.16,-67.48C779.38,-56.69 894.98,-38.15 966.69,-26.65"/>
<polygon fill="midnightblue" stroke="midnightblue" points="967.62,-30.05 976.94,-25.01 966.52,-23.14 967.62,-30.05"/>
</g>
<!-- Node8 -->
<g id="node8" class="node">
<title>Node8</title>
<g id="a_node8"><a xlink:title=" ">
<polygon fill="white" stroke="#bfbfbf" points="1134,-0.5 1134,-30.5 1286,-30.5 1286,-0.5 1134,-0.5"/>
<text text-anchor="start" x="1142" y="-18.5" font-family="Helvetica,sans-Serif" font-size="10.00">stk_mesh/base/NgpProfiling</text>
<text text-anchor="middle" x="1210" y="-7.5" font-family="Helvetica,sans-Serif" font-size="10.00">Block.hpp</text>
</a>
</g>
</g>
<!-- Node1&#45;&gt;Node8 -->
<g id="edge7" class="edge">
<title>Node1&#45;&gt;Node8</title>
<path fill="none" stroke="midnightblue" d="M720.6,-71.49C807.93,-64.77 972.96,-50.91 1123.25,-31.17"/>
<polygon fill="midnightblue" stroke="midnightblue" points="1124.13,-34.59 1133.58,-29.81 1123.21,-27.65 1124.13,-34.59"/>
</g>
</g>
</svg>
