<?xml version="1.0" encoding="UTF-8" standalone="no"?>
<!DOCTYPE svg PUBLIC "-//W3C//DTD SVG 1.1//EN"
 "http://www.w3.org/Graphics/SVG/1.1/DTD/svg11.dtd">
<!-- Generated by graphviz version 2.43.0 (0)
 -->
<!-- Title: ConductionJacobiPreconditioner.C Pages: 1 -->
<svg width="1569pt" height="95pt"
 viewBox="0.00 0.00 1569.00 95.00" xmlns="http://www.w3.org/2000/svg" xmlns:xlink="http://www.w3.org/1999/xlink">
<g id="graph0" class="graph" transform="scale(1 1) rotate(0) translate(4 91)">
<title>ConductionJacobiPreconditioner.C</title>
<polygon fill="white" stroke="transparent" points="-4,4 -4,-91 1565,-91 1565,4 -4,4"/>
<!-- Node1 -->
<g id="node1" class="node">
<title>Node1</title>
<g id="a_node1"><a xlink:title=" ">
<polygon fill="#bfbfbf" stroke="black" points="837.5,-67.5 837.5,-86.5 1017.5,-86.5 1017.5,-67.5 837.5,-67.5"/>
<text text-anchor="middle" x="927.5" y="-74.5" font-family="Helvetica,sans-Serif" font-size="10.00">ConductionJacobiPreconditioner.C</text>
</a>
</g>
</g>
<!-- Node2 -->
<g id="node2" class="node">
<title>Node2</title>
<g id="a_node2"><a xlink:title=" ">
<polygon fill="white" stroke="#bfbfbf" points="0,-0.5 0,-30.5 161,-30.5 161,-0.5 0,-0.5"/>
<text text-anchor="start" x="8" y="-18.5" font-family="Helvetica,sans-Serif" font-size="10.00">matrix_free/ConductionJacobi</text>
<text text-anchor="middle" x="80.5" y="-7.5" font-family="Helvetica,sans-Serif" font-size="10.00">Preconditioner.h</text>
</a>
</g>
</g>
<!-- Node1&#45;&gt;Node2 -->
<g id="edge1" class="edge">
<title>Node1&#45;&gt;Node2</title>
<path fill="none" stroke="midnightblue" d="M837.24,-73.56C697.02,-69.13 418.23,-57.71 171.64,-31.04"/>
<polygon fill="midnightblue" stroke="midnightblue" points="171.72,-27.53 161.4,-29.93 170.96,-34.49 171.72,-27.53"/>
</g>
<!-- Node3 -->
<g id="node3" class="node">
<title>Node3</title>
<g id="a_node3"><a xlink:title=" ">
<polygon fill="white" stroke="#bfbfbf" points="179.5,-6 179.5,-25 363.5,-25 363.5,-6 179.5,-6"/>
<text text-anchor="middle" x="271.5" y="-13" font-family="Helvetica,sans-Serif" font-size="10.00">matrix_free/ConductionDiagonal.h</text>
</a>
</g>
</g>
<!-- Node1&#45;&gt;Node3 -->
<g id="edge2" class="edge">
<title>Node1&#45;&gt;Node3</title>
<path fill="none" stroke="midnightblue" d="M837.46,-70.41C727.53,-63.2 536.05,-49.35 372.5,-31 360.81,-29.69 348.39,-28.08 336.4,-26.42"/>
<polygon fill="midnightblue" stroke="midnightblue" points="336.85,-22.95 326.46,-25.02 335.87,-29.88 336.85,-22.95"/>
</g>
<!-- Node4 -->
<g id="node4" class="node">
<title>Node4</title>
<g id="a_node4"><a xlink:title=" ">
<polygon fill="white" stroke="#bfbfbf" points="381.5,-6 381.5,-25 553.5,-25 553.5,-6 381.5,-6"/>
<text text-anchor="middle" x="467.5" y="-13" font-family="Helvetica,sans-Serif" font-size="10.00">matrix_free/KokkosViewTypes.h</text>
</a>
</g>
</g>
<!-- Node1&#45;&gt;Node4 -->
<g id="edge3" class="edge">
<title>Node1&#45;&gt;Node4</title>
<path fill="none" stroke="midnightblue" d="M853.32,-67.49C779.51,-58.87 663.07,-44.87 562.5,-31 552.58,-29.63 542.1,-28.11 531.85,-26.58"/>
<polygon fill="midnightblue" stroke="midnightblue" points="532.13,-23.08 521.72,-25.05 531.08,-30 532.13,-23.08"/>
</g>
<!-- Node5 -->
<g id="node5" class="node">
<title>Node5</title>
<g id="a_node5"><a xlink:title=" ">
<polygon fill="white" stroke="#bfbfbf" points="572,-6 572,-25 745,-25 745,-6 572,-6"/>
<text text-anchor="middle" x="658.5" y="-13" font-family="Helvetica,sans-Serif" font-size="10.00">matrix_free/PolynomialOrders.h</text>
</a>
</g>
</g>
<!-- Node1&#45;&gt;Node5 -->
<g id="edge4" class="edge">
<title>Node1&#45;&gt;Node5</title>
<path fill="none" stroke="midnightblue" d="M888.96,-67.48C841.02,-56.87 759.14,-38.76 706.99,-27.22"/>
<polygon fill="midnightblue" stroke="midnightblue" points="707.49,-23.75 696.97,-25.01 705.98,-30.59 707.49,-23.75"/>
</g>
<!-- Node6 -->
<g id="node6" class="node">
<title>Node6</title>
<g id="a_node6"><a xlink:title=" ">
<polygon fill="white" stroke="#bfbfbf" points="763.5,-6 763.5,-25 935.5,-25 935.5,-6 763.5,-6"/>
<text text-anchor="middle" x="849.5" y="-13" font-family="Helvetica,sans-Serif" font-size="10.00">matrix_free/StrongDirichletBC.h</text>
</a>
</g>
</g>
<!-- Node1&#45;&gt;Node6 -->
<g id="edge5" class="edge">
<title>Node1&#45;&gt;Node6</title>
<path fill="none" stroke="midnightblue" d="M916.32,-67.48C903.93,-58.02 883.71,-42.6 868.75,-31.19"/>
<polygon fill="midnightblue" stroke="midnightblue" points="870.73,-28.29 860.65,-25.01 866.48,-33.86 870.73,-28.29"/>
</g>
<!-- Node7 -->
<g id="node7" class="node">
<title>Node7</title>
<g id="a_node7"><a xlink:title=" ">
<polygon fill="white" stroke="#bfbfbf" points="953.5,-6 953.5,-25 1057.5,-25 1057.5,-6 953.5,-6"/>
<text text-anchor="middle" x="1005.5" y="-13" font-family="Helvetica,sans-Serif" font-size="10.00">KokkosInterface.h</text>
</a>
</g>
</g>
<!-- Node1&#45;&gt;Node7 -->
<g id="edge6" class="edge">
<title>Node1&#45;&gt;Node7</title>
<path fill="none" stroke="midnightblue" d="M938.68,-67.48C951.07,-58.02 971.29,-42.6 986.25,-31.19"/>
<polygon fill="midnightblue" stroke="midnightblue" points="988.52,-33.86 994.35,-25.01 984.27,-28.29 988.52,-33.86"/>
</g>
<!-- Node8 -->
<g id="node8" class="node">
<title>Node8</title>
<g id="a_node8"><a xlink:title=" ">
<polygon fill="white" stroke="#bfbfbf" points="1075.5,-6 1075.5,-25 1175.5,-25 1175.5,-6 1075.5,-6"/>
<text text-anchor="middle" x="1125.5" y="-13" font-family="Helvetica,sans-Serif" font-size="10.00">Teuchos_RCP.hpp</text>
</a>
</g>
</g>
<!-- Node1&#45;&gt;Node8 -->
<g id="edge7" class="edge">
<title>Node1&#45;&gt;Node8</title>
<path fill="none" stroke="midnightblue" d="M955.87,-67.48C990.42,-57.09 1048.92,-39.51 1087.38,-27.95"/>
<polygon fill="midnightblue" stroke="midnightblue" points="1088.61,-31.24 1097.18,-25.01 1086.6,-24.54 1088.61,-31.24"/>
</g>
<!-- Node9 -->
<g id="node9" class="node">
<title>Node9</title>
<g id="a_node9"><a xlink:title=" ">
<polygon fill="white" stroke="#bfbfbf" points="1194,-6 1194,-25 1339,-25 1339,-6 1194,-6"/>
<text text-anchor="middle" x="1266.5" y="-13" font-family="Helvetica,sans-Serif" font-size="10.00">Tpetra_CombineMode.hpp</text>
</a>
</g>
</g>
<!-- Node1&#45;&gt;Node9 -->
<g id="edge8" class="edge">
<title>Node1&#45;&gt;Node9</title>
<path fill="none" stroke="midnightblue" d="M976.29,-67.48C1027.99,-58.45 1112.01,-43.76 1184.5,-31 1192.21,-29.64 1200.32,-28.21 1208.33,-26.8"/>
<polygon fill="midnightblue" stroke="midnightblue" points="1209.13,-30.21 1218.37,-25.02 1207.92,-23.32 1209.13,-30.21"/>
</g>
<!-- Node10 -->
<g id="node10" class="node">
<title>Node10</title>
<g id="a_node10"><a xlink:title=" ">
<polygon fill="white" stroke="#bfbfbf" points="1357.5,-6 1357.5,-25 1473.5,-25 1473.5,-6 1357.5,-6"/>
<text text-anchor="middle" x="1415.5" y="-13" font-family="Helvetica,sans-Serif" font-size="10.00">Tpetra_Operator.hpp</text>
</a>
</g>
</g>
<!-- Node1&#45;&gt;Node10 -->
<g id="edge9" class="edge">
<title>Node1&#45;&gt;Node10</title>
<path fill="none" stroke="midnightblue" d="M1017.8,-69.15C1103.3,-62.01 1235.11,-49.28 1348.5,-31 1355.29,-29.91 1362.43,-28.57 1369.41,-27.15"/>
<polygon fill="midnightblue" stroke="midnightblue" points="1370.4,-30.52 1379.47,-25.04 1368.97,-23.67 1370.4,-30.52"/>
</g>
<!-- Node11 -->
<g id="node11" class="node">
<title>Node11</title>
<g id="a_node11"><a xlink:title=" ">
<polygon fill="white" stroke="#bfbfbf" points="1492,-6 1492,-25 1561,-25 1561,-6 1492,-6"/>
<text text-anchor="middle" x="1526.5" y="-13" font-family="Helvetica,sans-Serif" font-size="10.00">type_traits</text>
</a>
</g>
</g>
<!-- Node1&#45;&gt;Node11 -->
<g id="edge10" class="edge">
<title>Node1&#45;&gt;Node11</title>
<path fill="none" stroke="midnightblue" d="M1017.81,-75.23C1128.4,-72.79 1320.95,-63.68 1482.5,-31 1486.38,-30.22 1490.39,-29.2 1494.35,-28.06"/>
<polygon fill="midnightblue" stroke="midnightblue" points="1495.43,-31.39 1503.94,-25.07 1493.35,-24.71 1495.43,-31.39"/>
</g>
</g>
</svg>
