<?xml version="1.0" encoding="UTF-8" standalone="no"?>
<!DOCTYPE svg PUBLIC "-//W3C//DTD SVG 1.1//EN"
 "http://www.w3.org/Graphics/SVG/1.1/DTD/svg11.dtd">
<!-- Generated by graphviz version 2.43.0 (0)
 -->
<!-- Title: ContinuityOperator.C Pages: 1 -->
<svg width="1779pt" height="95pt"
 viewBox="0.00 0.00 1778.50 95.00" xmlns="http://www.w3.org/2000/svg" xmlns:xlink="http://www.w3.org/1999/xlink">
<g id="graph0" class="graph" transform="scale(1 1) rotate(0) translate(4 91)">
<title>ContinuityOperator.C</title>
<polygon fill="white" stroke="transparent" points="-4,4 -4,-91 1774.5,-91 1774.5,4 -4,4"/>
<!-- Node1 -->
<g id="node1" class="node">
<title>Node1</title>
<g id="a_node1"><a xlink:title=" ">
<polygon fill="#bfbfbf" stroke="black" points="946.5,-67.5 946.5,-86.5 1065.5,-86.5 1065.5,-67.5 946.5,-67.5"/>
<text text-anchor="middle" x="1006" y="-74.5" font-family="Helvetica,sans-Serif" font-size="10.00">ContinuityOperator.C</text>
</a>
</g>
</g>
<!-- Node2 -->
<g id="node2" class="node">
<title>Node2</title>
<g id="a_node2"><a xlink:title=" ">
<polygon fill="white" stroke="#bfbfbf" points="0,-6 0,-25 178,-25 178,-6 0,-6"/>
<text text-anchor="middle" x="89" y="-13" font-family="Helvetica,sans-Serif" font-size="10.00">matrix_free/ContinuityOperator.h</text>
</a>
</g>
</g>
<!-- Node1&#45;&gt;Node2 -->
<g id="edge1" class="edge">
<title>Node1&#45;&gt;Node2</title>
<path fill="none" stroke="midnightblue" d="M946.25,-74.6C810.85,-71.02 470.36,-59.69 187,-31 175.17,-29.8 162.58,-28.19 150.51,-26.48"/>
<polygon fill="midnightblue" stroke="midnightblue" points="150.91,-23.01 140.51,-25.03 149.9,-29.93 150.91,-23.01"/>
</g>
<!-- Node3 -->
<g id="node3" class="node">
<title>Node3</title>
<g id="a_node3"><a xlink:title=" ">
<polygon fill="white" stroke="#bfbfbf" points="196,-6 196,-25 366,-25 366,-6 196,-6"/>
<text text-anchor="middle" x="281" y="-13" font-family="Helvetica,sans-Serif" font-size="10.00">matrix_free/ContinuityInterior.h</text>
</a>
</g>
</g>
<!-- Node1&#45;&gt;Node3 -->
<g id="edge2" class="edge">
<title>Node1&#45;&gt;Node3</title>
<path fill="none" stroke="midnightblue" d="M946.26,-73.37C834.06,-68.07 584.27,-54.56 375,-31 364.07,-29.77 352.46,-28.2 341.27,-26.55"/>
<polygon fill="midnightblue" stroke="midnightblue" points="341.56,-23.05 331.15,-25.01 340.51,-29.97 341.56,-23.05"/>
</g>
<!-- Node4 -->
<g id="node4" class="node">
<title>Node4</title>
<g id="a_node4"><a xlink:title=" ">
<polygon fill="white" stroke="#bfbfbf" points="384,-6 384,-25 556,-25 556,-6 384,-6"/>
<text text-anchor="middle" x="470" y="-13" font-family="Helvetica,sans-Serif" font-size="10.00">matrix_free/KokkosViewTypes.h</text>
</a>
</g>
</g>
<!-- Node1&#45;&gt;Node4 -->
<g id="edge3" class="edge">
<title>Node1&#45;&gt;Node4</title>
<path fill="none" stroke="midnightblue" d="M946.33,-70.86C861.47,-63.34 701.08,-48.32 565,-31 554.59,-29.68 543.56,-28.13 532.84,-26.54"/>
<polygon fill="midnightblue" stroke="midnightblue" points="533.11,-23.04 522.7,-25.02 532.07,-29.97 533.11,-23.04"/>
</g>
<!-- Node5 -->
<g id="node5" class="node">
<title>Node5</title>
<g id="a_node5"><a xlink:title=" ">
<polygon fill="white" stroke="#bfbfbf" points="574.5,-6 574.5,-25 747.5,-25 747.5,-6 574.5,-6"/>
<text text-anchor="middle" x="661" y="-13" font-family="Helvetica,sans-Serif" font-size="10.00">matrix_free/PolynomialOrders.h</text>
</a>
</g>
</g>
<!-- Node1&#45;&gt;Node5 -->
<g id="edge4" class="edge">
<title>Node1&#45;&gt;Node5</title>
<path fill="none" stroke="midnightblue" d="M956.57,-67.48C894.19,-56.72 787,-38.23 720.28,-26.72"/>
<polygon fill="midnightblue" stroke="midnightblue" points="720.79,-23.26 710.34,-25.01 719.6,-30.16 720.79,-23.26"/>
</g>
<!-- Node6 -->
<g id="node6" class="node">
<title>Node6</title>
<g id="a_node6"><a xlink:title=" ">
<polygon fill="white" stroke="#bfbfbf" points="766,-0.5 766,-30.5 918,-30.5 918,-0.5 766,-0.5"/>
<text text-anchor="start" x="774" y="-18.5" font-family="Helvetica,sans-Serif" font-size="10.00">stk_mesh/base/NgpProfiling</text>
<text text-anchor="middle" x="842" y="-7.5" font-family="Helvetica,sans-Serif" font-size="10.00">Block.hpp</text>
</a>
</g>
</g>
<!-- Node1&#45;&gt;Node6 -->
<g id="edge5" class="edge">
<title>Node1&#45;&gt;Node6</title>
<path fill="none" stroke="midnightblue" d="M982.5,-67.48C958.53,-58.78 920.63,-45.03 890.23,-34"/>
<polygon fill="midnightblue" stroke="midnightblue" points="891.25,-30.64 880.65,-30.52 888.86,-37.22 891.25,-30.64"/>
</g>
<!-- Node7 -->
<g id="node7" class="node">
<title>Node7</title>
<g id="a_node7"><a xlink:title=" ">
<polygon fill="white" stroke="#bfbfbf" points="936,-6 936,-25 1076,-25 1076,-6 936,-6"/>
<text text-anchor="middle" x="1006" y="-13" font-family="Helvetica,sans-Serif" font-size="10.00">Teuchos_BLAS_types.hpp</text>
</a>
</g>
</g>
<!-- Node1&#45;&gt;Node7 -->
<g id="edge6" class="edge">
<title>Node1&#45;&gt;Node7</title>
<path fill="none" stroke="midnightblue" d="M1006,-67.48C1006,-59.08 1006,-45.98 1006,-35.16"/>
<polygon fill="midnightblue" stroke="midnightblue" points="1009.5,-35.01 1006,-25.01 1002.5,-35.01 1009.5,-35.01"/>
</g>
<!-- Node8 -->
<g id="node8" class="node">
<title>Node8</title>
<g id="a_node8"><a xlink:title=" ">
<polygon fill="white" stroke="#bfbfbf" points="1094,-6 1094,-25 1194,-25 1194,-6 1094,-6"/>
<text text-anchor="middle" x="1144" y="-13" font-family="Helvetica,sans-Serif" font-size="10.00">Teuchos_RCP.hpp</text>
</a>
</g>
</g>
<!-- Node1&#45;&gt;Node8 -->
<g id="edge7" class="edge">
<title>Node1&#45;&gt;Node8</title>
<path fill="none" stroke="midnightblue" d="M1025.77,-67.48C1049.14,-57.4 1088.21,-40.55 1115,-29"/>
<polygon fill="midnightblue" stroke="midnightblue" points="1116.47,-32.18 1124.26,-25.01 1113.7,-25.75 1116.47,-32.18"/>
</g>
<!-- Node9 -->
<g id="node9" class="node">
<title>Node9</title>
<g id="a_node9"><a xlink:title=" ">
<polygon fill="white" stroke="#bfbfbf" points="1212.5,-6 1212.5,-25 1357.5,-25 1357.5,-6 1212.5,-6"/>
<text text-anchor="middle" x="1285" y="-13" font-family="Helvetica,sans-Serif" font-size="10.00">Tpetra_CombineMode.hpp</text>
</a>
</g>
</g>
<!-- Node1&#45;&gt;Node9 -->
<g id="edge8" class="edge">
<title>Node1&#45;&gt;Node9</title>
<path fill="none" stroke="midnightblue" d="M1045.97,-67.48C1095.8,-56.85 1180.97,-38.68 1235.05,-27.15"/>
<polygon fill="midnightblue" stroke="midnightblue" points="1236.05,-30.52 1245.1,-25.01 1234.59,-23.67 1236.05,-30.52"/>
</g>
<!-- Node10 -->
<g id="node10" class="node">
<title>Node10</title>
<g id="a_node10"><a xlink:title=" ">
<polygon fill="white" stroke="#bfbfbf" points="1375.5,-6 1375.5,-25 1540.5,-25 1540.5,-6 1375.5,-6"/>
<text text-anchor="middle" x="1458" y="-13" font-family="Helvetica,sans-Serif" font-size="10.00">stk_util/util/ReportHandler.hpp</text>
</a>
</g>
</g>
<!-- Node1&#45;&gt;Node10 -->
<g id="edge9" class="edge">
<title>Node1&#45;&gt;Node10</title>
<path fill="none" stroke="midnightblue" d="M1065.81,-69.18C1137.48,-60.85 1261.17,-46.02 1367,-31 1376.52,-29.65 1386.59,-28.13 1396.42,-26.6"/>
<polygon fill="midnightblue" stroke="midnightblue" points="1397.22,-30.02 1406.55,-25.01 1396.13,-23.11 1397.22,-30.02"/>
</g>
<!-- Node11 -->
<g id="node11" class="node">
<title>Node11</title>
<g id="a_node11"><a xlink:title=" ">
<polygon fill="white" stroke="#bfbfbf" points="1558.5,-6 1558.5,-25 1683.5,-25 1683.5,-6 1558.5,-6"/>
<text text-anchor="middle" x="1621" y="-13" font-family="Helvetica,sans-Serif" font-size="10.00">KokkosBlas1_sum.hpp</text>
</a>
</g>
</g>
<!-- Node1&#45;&gt;Node11 -->
<g id="edge10" class="edge">
<title>Node1&#45;&gt;Node11</title>
<path fill="none" stroke="midnightblue" d="M1065.83,-73.38C1166.28,-68.46 1375.04,-56.01 1550,-31 1557.71,-29.9 1565.83,-28.48 1573.73,-26.97"/>
<polygon fill="midnightblue" stroke="midnightblue" points="1574.44,-30.4 1583.56,-25.01 1573.07,-23.53 1574.44,-30.4"/>
</g>
<!-- Node12 -->
<g id="node12" class="node">
<title>Node12</title>
<g id="a_node12"><a xlink:title=" ">
<polygon fill="white" stroke="#bfbfbf" points="1701.5,-6 1701.5,-25 1770.5,-25 1770.5,-6 1701.5,-6"/>
<text text-anchor="middle" x="1736" y="-13" font-family="Helvetica,sans-Serif" font-size="10.00">type_traits</text>
</a>
</g>
</g>
<!-- Node1&#45;&gt;Node12 -->
<g id="edge11" class="edge">
<title>Node1&#45;&gt;Node12</title>
<path fill="none" stroke="midnightblue" d="M1065.51,-74.09C1209.5,-69.13 1573.62,-54.62 1693,-31 1696.7,-30.27 1700.51,-29.31 1704.27,-28.22"/>
<polygon fill="midnightblue" stroke="midnightblue" points="1705.5,-31.5 1713.98,-25.15 1703.39,-24.83 1705.5,-31.5"/>
</g>
</g>
</svg>
