<?xml version="1.0" encoding="UTF-8" standalone="no"?>
<!DOCTYPE svg PUBLIC "-//W3C//DTD SVG 1.1//EN"
 "http://www.w3.org/Graphics/SVG/1.1/DTD/svg11.dtd">
<!-- Generated by graphviz version 2.43.0 (0)
 -->
<!-- Title: ConductionGatheredFieldManager.C Pages: 1 -->
<svg width="2456pt" height="95pt"
 viewBox="0.00 0.00 2455.50 95.00" xmlns="http://www.w3.org/2000/svg" xmlns:xlink="http://www.w3.org/1999/xlink">
<g id="graph0" class="graph" transform="scale(1 1) rotate(0) translate(4 91)">
<title>ConductionGatheredFieldManager.C</title>
<polygon fill="white" stroke="transparent" points="-4,4 -4,-91 2451.5,-91 2451.5,4 -4,4"/>
<!-- Node1 -->
<g id="node1" class="node">
<title>Node1</title>
<g id="a_node1"><a xlink:title=" ">
<polygon fill="#bfbfbf" stroke="black" points="1099.5,-67.5 1099.5,-86.5 1290.5,-86.5 1290.5,-67.5 1099.5,-67.5"/>
<text text-anchor="middle" x="1195" y="-74.5" font-family="Helvetica,sans-Serif" font-size="10.00">ConductionGatheredFieldManager.C</text>
</a>
</g>
</g>
<!-- Node2 -->
<g id="node2" class="node">
<title>Node2</title>
<g id="a_node2"><a xlink:title=" ">
<polygon fill="white" stroke="#bfbfbf" points="0,-0.5 0,-30.5 176,-30.5 176,-0.5 0,-0.5"/>
<text text-anchor="start" x="8" y="-18.5" font-family="Helvetica,sans-Serif" font-size="10.00">matrix_free/ConductionGathered</text>
<text text-anchor="middle" x="88" y="-7.5" font-family="Helvetica,sans-Serif" font-size="10.00">FieldManager.h</text>
</a>
</g>
</g>
<!-- Node1&#45;&gt;Node2 -->
<g id="edge1" class="edge">
<title>Node1&#45;&gt;Node2</title>
<path fill="none" stroke="midnightblue" d="M1099.28,-75.1C921.27,-72.68 527.1,-63.87 186.17,-31.15"/>
<polygon fill="midnightblue" stroke="midnightblue" points="186.39,-27.66 176.1,-30.18 185.72,-34.62 186.39,-27.66"/>
</g>
<!-- Node3 -->
<g id="node3" class="node">
<title>Node3</title>
<g id="a_node3"><a xlink:title=" ">
<polygon fill="white" stroke="#bfbfbf" points="193.5,-6 193.5,-25 362.5,-25 362.5,-6 193.5,-6"/>
<text text-anchor="middle" x="278" y="-13" font-family="Helvetica,sans-Serif" font-size="10.00">matrix_free/ConductionFields.h</text>
</a>
</g>
</g>
<!-- Node1&#45;&gt;Node3 -->
<g id="edge2" class="edge">
<title>Node1&#45;&gt;Node3</title>
<path fill="none" stroke="midnightblue" d="M1099.28,-73.88C945.42,-69.78 633.71,-58.58 371,-31 359.93,-29.84 348.16,-28.27 336.85,-26.59"/>
<polygon fill="midnightblue" stroke="midnightblue" points="337.04,-23.08 326.63,-25.02 335.98,-29.99 337.04,-23.08"/>
</g>
<!-- Node4 -->
<g id="node4" class="node">
<title>Node4</title>
<g id="a_node4"><a xlink:title=" ">
<polygon fill="white" stroke="#bfbfbf" points="380.5,-6 380.5,-25 539.5,-25 539.5,-6 380.5,-6"/>
<text text-anchor="middle" x="460" y="-13" font-family="Helvetica,sans-Serif" font-size="10.00">matrix_free/ConductionInfo.h</text>
</a>
</g>
</g>
<!-- Node1&#45;&gt;Node4 -->
<g id="edge3" class="edge">
<title>Node1&#45;&gt;Node4</title>
<path fill="none" stroke="midnightblue" d="M1099.25,-72.08C972.9,-66.29 743.73,-53.6 549,-31 538.75,-29.81 527.87,-28.27 517.38,-26.64"/>
<polygon fill="midnightblue" stroke="midnightblue" points="517.89,-23.18 507.46,-25.06 516.79,-30.09 517.89,-23.18"/>
</g>
<!-- Node5 -->
<g id="node5" class="node">
<title>Node5</title>
<g id="a_node5"><a xlink:title=" ">
<polygon fill="white" stroke="#bfbfbf" points="558,-6 558,-25 730,-25 730,-6 558,-6"/>
<text text-anchor="middle" x="644" y="-13" font-family="Helvetica,sans-Serif" font-size="10.00">matrix_free/KokkosViewTypes.h</text>
</a>
</g>
</g>
<!-- Node1&#45;&gt;Node5 -->
<g id="edge4" class="edge">
<title>Node1&#45;&gt;Node5</title>
<path fill="none" stroke="midnightblue" d="M1099.2,-68.04C1006.81,-60 863.12,-46.59 739,-31 728.59,-29.69 717.56,-28.15 706.84,-26.57"/>
<polygon fill="midnightblue" stroke="midnightblue" points="707.1,-23.07 696.69,-25.05 706.06,-30 707.1,-23.07"/>
</g>
<!-- Node6 -->
<g id="node6" class="node">
<title>Node6</title>
<g id="a_node6"><a xlink:title=" ">
<polygon fill="white" stroke="#bfbfbf" points="748,-0.5 748,-30.5 896,-30.5 896,-0.5 748,-0.5"/>
<text text-anchor="start" x="756" y="-18.5" font-family="Helvetica,sans-Serif" font-size="10.00">matrix_free/LinearExposed</text>
<text text-anchor="middle" x="822" y="-7.5" font-family="Helvetica,sans-Serif" font-size="10.00">Areas.h</text>
</a>
</g>
</g>
<!-- Node1&#45;&gt;Node6 -->
<g id="edge5" class="edge">
<title>Node1&#45;&gt;Node6</title>
<path fill="none" stroke="midnightblue" d="M1138,-67.48C1081.65,-58.99 992.71,-45.38 906.19,-31.18"/>
<polygon fill="midnightblue" stroke="midnightblue" points="906.64,-27.71 896.2,-29.53 905.5,-34.61 906.64,-27.71"/>
</g>
<!-- Node7 -->
<g id="node7" class="node">
<title>Node7</title>
<g id="a_node7"><a xlink:title=" ">
<polygon fill="white" stroke="#bfbfbf" points="914.5,-6 914.5,-25 1087.5,-25 1087.5,-6 914.5,-6"/>
<text text-anchor="middle" x="1001" y="-13" font-family="Helvetica,sans-Serif" font-size="10.00">matrix_free/PolynomialOrders.h</text>
</a>
</g>
</g>
<!-- Node1&#45;&gt;Node7 -->
<g id="edge6" class="edge">
<title>Node1&#45;&gt;Node7</title>
<path fill="none" stroke="midnightblue" d="M1167.2,-67.48C1133.35,-57.09 1076.03,-39.51 1038.35,-27.95"/>
<polygon fill="midnightblue" stroke="midnightblue" points="1039.33,-24.6 1028.74,-25.01 1037.28,-31.29 1039.33,-24.6"/>
</g>
<!-- Node8 -->
<g id="node8" class="node">
<title>Node8</title>
<g id="a_node8"><a xlink:title=" ">
<polygon fill="white" stroke="#bfbfbf" points="1105.5,-0.5 1105.5,-30.5 1284.5,-30.5 1284.5,-0.5 1105.5,-0.5"/>
<text text-anchor="start" x="1113.5" y="-18.5" font-family="Helvetica,sans-Serif" font-size="10.00">matrix_free/StkSimdConnectivity</text>
<text text-anchor="middle" x="1195" y="-7.5" font-family="Helvetica,sans-Serif" font-size="10.00">Map.h</text>
</a>
</g>
</g>
<!-- Node1&#45;&gt;Node8 -->
<g id="edge7" class="edge">
<title>Node1&#45;&gt;Node8</title>
<path fill="none" stroke="midnightblue" d="M1195,-67.48C1195,-60.47 1195,-50.19 1195,-40.7"/>
<polygon fill="midnightblue" stroke="midnightblue" points="1198.5,-40.52 1195,-30.52 1191.5,-40.52 1198.5,-40.52"/>
</g>
<!-- Node9 -->
<g id="node9" class="node">
<title>Node9</title>
<g id="a_node9"><a xlink:title=" ">
<polygon fill="white" stroke="#bfbfbf" points="1303,-0.5 1303,-30.5 1503,-30.5 1503,-0.5 1303,-0.5"/>
<text text-anchor="start" x="1311" y="-18.5" font-family="Helvetica,sans-Serif" font-size="10.00">matrix_free/StkSimdFaceConnectivity</text>
<text text-anchor="middle" x="1403" y="-7.5" font-family="Helvetica,sans-Serif" font-size="10.00">Map.h</text>
</a>
</g>
</g>
<!-- Node1&#45;&gt;Node9 -->
<g id="edge8" class="edge">
<title>Node1&#45;&gt;Node9</title>
<path fill="none" stroke="midnightblue" d="M1224.8,-67.48C1255.87,-58.59 1305.37,-44.43 1344.32,-33.29"/>
<polygon fill="midnightblue" stroke="midnightblue" points="1345.33,-36.64 1353.98,-30.52 1343.4,-29.91 1345.33,-36.64"/>
</g>
<!-- Node10 -->
<g id="node10" class="node">
<title>Node10</title>
<g id="a_node10"><a xlink:title=" ">
<polygon fill="white" stroke="#bfbfbf" points="1521,-0.5 1521,-30.5 1683,-30.5 1683,-0.5 1521,-0.5"/>
<text text-anchor="start" x="1529" y="-18.5" font-family="Helvetica,sans-Serif" font-size="10.00">matrix_free/StkSimdGathered</text>
<text text-anchor="middle" x="1602" y="-7.5" font-family="Helvetica,sans-Serif" font-size="10.00">ElementData.h</text>
</a>
</g>
</g>
<!-- Node1&#45;&gt;Node10 -->
<g id="edge9" class="edge">
<title>Node1&#45;&gt;Node10</title>
<path fill="none" stroke="midnightblue" d="M1257.6,-67.47C1319.4,-58.96 1416.85,-45.34 1510.63,-31.19"/>
<polygon fill="midnightblue" stroke="midnightblue" points="1511.21,-34.64 1520.58,-29.69 1510.16,-27.72 1511.21,-34.64"/>
</g>
<!-- Node11 -->
<g id="node11" class="node">
<title>Node11</title>
<g id="a_node11"><a xlink:title=" ">
<polygon fill="white" stroke="#bfbfbf" points="1701,-0.5 1701,-30.5 1905,-30.5 1905,-0.5 1701,-0.5"/>
<text text-anchor="start" x="1709" y="-18.5" font-family="Helvetica,sans-Serif" font-size="10.00">matrix_free/StkSimdNodeConnectivity</text>
<text text-anchor="middle" x="1803" y="-7.5" font-family="Helvetica,sans-Serif" font-size="10.00">Map.h</text>
</a>
</g>
</g>
<!-- Node1&#45;&gt;Node11 -->
<g id="edge10" class="edge">
<title>Node1&#45;&gt;Node11</title>
<path fill="none" stroke="midnightblue" d="M1290.85,-68.45C1388.78,-60.49 1545.48,-47.02 1690.8,-31.11"/>
<polygon fill="midnightblue" stroke="midnightblue" points="1691.25,-34.58 1700.8,-30 1690.48,-27.62 1691.25,-34.58"/>
</g>
<!-- Node12 -->
<g id="node12" class="node">
<title>Node12</title>
<g id="a_node12"><a xlink:title=" ">
<polygon fill="white" stroke="#bfbfbf" points="1922.5,-6 1922.5,-25 2081.5,-25 2081.5,-6 1922.5,-6"/>
<text text-anchor="middle" x="2002" y="-13" font-family="Helvetica,sans-Serif" font-size="10.00">stk_mesh/base/BulkData.hpp</text>
</a>
</g>
</g>
<!-- Node1&#45;&gt;Node12 -->
<g id="edge11" class="edge">
<title>Node1&#45;&gt;Node12</title>
<path fill="none" stroke="midnightblue" d="M1290.64,-73.08C1428.66,-68.17 1691.55,-56.22 1914,-31 1924.26,-29.84 1935.15,-28.3 1945.64,-26.65"/>
<polygon fill="midnightblue" stroke="midnightblue" points="1946.22,-30.1 1955.54,-25.05 1945.11,-23.19 1946.22,-30.1"/>
</g>
<!-- Node13 -->
<g id="node13" class="node">
<title>Node13</title>
<g id="a_node13"><a xlink:title=" ">
<polygon fill="white" stroke="#bfbfbf" points="2100,-0.5 2100,-30.5 2252,-30.5 2252,-0.5 2100,-0.5"/>
<text text-anchor="start" x="2108" y="-18.5" font-family="Helvetica,sans-Serif" font-size="10.00">stk_mesh/base/NgpProfiling</text>
<text text-anchor="middle" x="2176" y="-7.5" font-family="Helvetica,sans-Serif" font-size="10.00">Block.hpp</text>
</a>
</g>
</g>
<!-- Node1&#45;&gt;Node13 -->
<g id="edge12" class="edge">
<title>Node1&#45;&gt;Node13</title>
<path fill="none" stroke="midnightblue" d="M1290.77,-74.92C1453.16,-72.26 1792.97,-63.14 2089.52,-31.07"/>
<polygon fill="midnightblue" stroke="midnightblue" points="2090.04,-34.54 2099.6,-29.97 2089.28,-27.58 2090.04,-34.54"/>
</g>
<!-- Node14 -->
<g id="node14" class="node">
<title>Node14</title>
<g id="a_node14"><a xlink:title=" ">
<polygon fill="white" stroke="#bfbfbf" points="2270.5,-6 2270.5,-25 2447.5,-25 2447.5,-6 2270.5,-6"/>
<text text-anchor="middle" x="2359" y="-13" font-family="Helvetica,sans-Serif" font-size="10.00">stk_mesh/base/GetNgpMesh.hpp</text>
</a>
</g>
</g>
<!-- Node1&#45;&gt;Node14 -->
<g id="edge13" class="edge">
<title>Node1&#45;&gt;Node14</title>
<path fill="none" stroke="midnightblue" d="M1290.79,-75.31C1477.74,-73.23 1904.17,-64.84 2261,-31 2273.11,-29.85 2286,-28.23 2298.32,-26.49"/>
<polygon fill="midnightblue" stroke="midnightblue" points="2299.12,-29.91 2308.51,-25 2298.11,-22.98 2299.12,-29.91"/>
</g>
</g>
</svg>
