<?xml version="1.0" encoding="UTF-8" standalone="no"?>
<!DOCTYPE svg PUBLIC "-//W3C//DTD SVG 1.1//EN"
 "http://www.w3.org/Graphics/SVG/1.1/DTD/svg11.dtd">
<!-- Generated by graphviz version 2.43.0 (0)
 -->
<!-- Title: ConvectingTaylorVortexVelocityAuxFunction.C Pages: 1 -->
<svg width="489pt" height="106pt"
 viewBox="0.00 0.00 489.00 106.00" xmlns="http://www.w3.org/2000/svg" xmlns:xlink="http://www.w3.org/1999/xlink">
<g id="graph0" class="graph" transform="scale(1 1) rotate(0) translate(4 102)">
<title>ConvectingTaylorVortexVelocityAuxFunction.C</title>
<polygon fill="white" stroke="transparent" points="-4,4 -4,-102 485,-102 485,4 -4,4"/>
<!-- Node1 -->
<g id="node1" class="node">
<title>Node1</title>
<g id="a_node1"><a xlink:title=" ">
<polygon fill="#bfbfbf" stroke="black" points="224,-67.5 224,-97.5 395,-97.5 395,-67.5 224,-67.5"/>
<text text-anchor="start" x="232" y="-85.5" font-family="Helvetica,sans-Serif" font-size="10.00">ConvectingTaylorVortexVelocity</text>
<text text-anchor="middle" x="309.5" y="-74.5" font-family="Helvetica,sans-Serif" font-size="10.00">AuxFunction.C</text>
</a>
</g>
</g>
<!-- Node2 -->
<g id="node2" class="node">
<title>Node2</title>
<g id="a_node2"><a xlink:title=" ">
<polygon fill="white" stroke="#bfbfbf" points="0,-0.5 0,-30.5 185,-30.5 185,-0.5 0,-0.5"/>
<text text-anchor="start" x="8" y="-18.5" font-family="Helvetica,sans-Serif" font-size="10.00">user_functions/Convecting</text>
<text text-anchor="middle" x="92.5" y="-7.5" font-family="Helvetica,sans-Serif" font-size="10.00">TaylorVortexVelocityAuxFunction.h</text>
</a>
</g>
</g>
<!-- Node1&#45;&gt;Node2 -->
<g id="edge1" class="edge">
<title>Node1&#45;&gt;Node2</title>
<path fill="none" stroke="midnightblue" d="M262.68,-67.48C229.43,-57.51 184.6,-44.09 149.3,-33.51"/>
<polygon fill="midnightblue" stroke="midnightblue" points="150.19,-30.13 139.61,-30.61 148.18,-36.83 150.19,-30.13"/>
</g>
<!-- Node3 -->
<g id="node3" class="node">
<title>Node3</title>
<g id="a_node3"><a xlink:title=" ">
<polygon fill="white" stroke="#bfbfbf" points="203.5,-6 203.5,-25 267.5,-25 267.5,-6 203.5,-6"/>
<text text-anchor="middle" x="235.5" y="-13" font-family="Helvetica,sans-Serif" font-size="10.00">algorithm</text>
</a>
</g>
</g>
<!-- Node1&#45;&gt;Node3 -->
<g id="edge2" class="edge">
<title>Node1&#45;&gt;Node3</title>
<path fill="none" stroke="midnightblue" d="M293.44,-67.4C281.56,-56.96 265.39,-42.75 253.14,-32"/>
<polygon fill="midnightblue" stroke="midnightblue" points="255.22,-29.16 245.4,-25.19 250.6,-34.42 255.22,-29.16"/>
</g>
<!-- Node4 -->
<g id="node4" class="node">
<title>Node4</title>
<g id="a_node4"><a xlink:title=" ">
<polygon fill="white" stroke="#bfbfbf" points="286,-6 286,-25 333,-25 333,-6 286,-6"/>
<text text-anchor="middle" x="309.5" y="-13" font-family="Helvetica,sans-Serif" font-size="10.00">cmath</text>
</a>
</g>
</g>
<!-- Node1&#45;&gt;Node4 -->
<g id="edge3" class="edge">
<title>Node1&#45;&gt;Node4</title>
<path fill="none" stroke="midnightblue" d="M309.5,-67.4C309.5,-58.06 309.5,-45.71 309.5,-35.52"/>
<polygon fill="midnightblue" stroke="midnightblue" points="313,-35.19 309.5,-25.19 306,-35.19 313,-35.19"/>
</g>
<!-- Node5 -->
<g id="node5" class="node">
<title>Node5</title>
<g id="a_node5"><a xlink:title=" ">
<polygon fill="white" stroke="#bfbfbf" points="351,-6 351,-25 398,-25 398,-6 351,-6"/>
<text text-anchor="middle" x="374.5" y="-13" font-family="Helvetica,sans-Serif" font-size="10.00">vector</text>
</a>
</g>
</g>
<!-- Node1&#45;&gt;Node5 -->
<g id="edge4" class="edge">
<title>Node1&#45;&gt;Node5</title>
<path fill="none" stroke="midnightblue" d="M323.6,-67.4C333.94,-57.06 347.98,-43.02 358.69,-32.31"/>
<polygon fill="midnightblue" stroke="midnightblue" points="361.21,-34.74 365.81,-25.19 356.26,-29.79 361.21,-34.74"/>
</g>
<!-- Node6 -->
<g id="node6" class="node">
<title>Node6</title>
<g id="a_node6"><a xlink:title=" ">
<polygon fill="white" stroke="#bfbfbf" points="416,-6 416,-25 481,-25 481,-6 416,-6"/>
<text text-anchor="middle" x="448.5" y="-13" font-family="Helvetica,sans-Serif" font-size="10.00">stdexcept</text>
</a>
</g>
</g>
<!-- Node1&#45;&gt;Node6 -->
<g id="edge5" class="edge">
<title>Node1&#45;&gt;Node6</title>
<path fill="none" stroke="midnightblue" d="M339.66,-67.4C363.94,-56.04 397.78,-40.22 421.25,-29.24"/>
<polygon fill="midnightblue" stroke="midnightblue" points="422.73,-32.41 430.31,-25.01 419.77,-26.07 422.73,-32.41"/>
</g>
</g>
</svg>
