<?xml version="1.0" encoding="UTF-8" standalone="no"?>
<!DOCTYPE svg PUBLIC "-//W3C//DTD SVG 1.1//EN"
 "http://www.w3.org/Graphics/SVG/1.1/DTD/svg11.dtd">
<!-- Generated by graphviz version 2.43.0 (0)
 -->
<!-- Title: ContinuityInterior.C Pages: 1 -->
<svg width="1838pt" height="95pt"
 viewBox="0.00 0.00 1838.00 95.00" xmlns="http://www.w3.org/2000/svg" xmlns:xlink="http://www.w3.org/1999/xlink">
<g id="graph0" class="graph" transform="scale(1 1) rotate(0) translate(4 91)">
<title>ContinuityInterior.C</title>
<polygon fill="white" stroke="transparent" points="-4,4 -4,-91 1834,-91 1834,4 -4,4"/>
<!-- Node1 -->
<g id="node1" class="node">
<title>Node1</title>
<g id="a_node1"><a xlink:title=" ">
<polygon fill="#bfbfbf" stroke="black" points="928.5,-67.5 928.5,-86.5 1039.5,-86.5 1039.5,-67.5 928.5,-67.5"/>
<text text-anchor="middle" x="984" y="-74.5" font-family="Helvetica,sans-Serif" font-size="10.00">ContinuityInterior.C</text>
</a>
</g>
</g>
<!-- Node2 -->
<g id="node2" class="node">
<title>Node2</title>
<g id="a_node2"><a xlink:title=" ">
<polygon fill="white" stroke="#bfbfbf" points="0,-6 0,-25 170,-25 170,-6 0,-6"/>
<text text-anchor="middle" x="85" y="-13" font-family="Helvetica,sans-Serif" font-size="10.00">matrix_free/ContinuityInterior.h</text>
</a>
</g>
</g>
<!-- Node1&#45;&gt;Node2 -->
<g id="edge1" class="edge">
<title>Node1&#45;&gt;Node2</title>
<path fill="none" stroke="midnightblue" d="M928.22,-74.75C797.17,-71.4 459.51,-60.41 179,-31 167.7,-29.81 155.67,-28.22 144.14,-26.52"/>
<polygon fill="midnightblue" stroke="midnightblue" points="144.57,-23.04 134.16,-25 143.52,-29.96 144.57,-23.04"/>
</g>
<!-- Node3 -->
<g id="node3" class="node">
<title>Node3</title>
<g id="a_node3"><a xlink:title=" ">
<polygon fill="white" stroke="#bfbfbf" points="188.5,-6 188.5,-25 331.5,-25 331.5,-6 188.5,-6"/>
<text text-anchor="middle" x="260" y="-13" font-family="Helvetica,sans-Serif" font-size="10.00">matrix_free/Coefficients.h</text>
</a>
</g>
</g>
<!-- Node1&#45;&gt;Node3 -->
<g id="edge2" class="edge">
<title>Node1&#45;&gt;Node3</title>
<path fill="none" stroke="midnightblue" d="M928.24,-74.16C816.34,-70.02 556.58,-58.11 340,-31 330.95,-29.87 321.37,-28.38 312.1,-26.79"/>
<polygon fill="midnightblue" stroke="midnightblue" points="312.67,-23.34 302.22,-25.04 311.45,-30.23 312.67,-23.34"/>
</g>
<!-- Node4 -->
<g id="node4" class="node">
<title>Node4</title>
<g id="a_node4"><a xlink:title=" ">
<polygon fill="white" stroke="#bfbfbf" points="349.5,-6 349.5,-25 534.5,-25 534.5,-6 349.5,-6"/>
<text text-anchor="middle" x="442" y="-13" font-family="Helvetica,sans-Serif" font-size="10.00">matrix_free/ElementFluxIntegral.h</text>
</a>
</g>
</g>
<!-- Node1&#45;&gt;Node4 -->
<g id="edge3" class="edge">
<title>Node1&#45;&gt;Node4</title>
<path fill="none" stroke="midnightblue" d="M928.36,-71.02C844.79,-63.37 681.96,-47.85 544,-31 532.74,-29.62 520.8,-28.04 509.2,-26.44"/>
<polygon fill="midnightblue" stroke="midnightblue" points="509.52,-22.95 499.13,-25.02 508.55,-29.88 509.52,-22.95"/>
</g>
<!-- Node5 -->
<g id="node5" class="node">
<title>Node5</title>
<g id="a_node5"><a xlink:title=" ">
<polygon fill="white" stroke="#bfbfbf" points="553,-6 553,-25 725,-25 725,-6 553,-6"/>
<text text-anchor="middle" x="639" y="-13" font-family="Helvetica,sans-Serif" font-size="10.00">matrix_free/KokkosViewTypes.h</text>
</a>
</g>
</g>
<!-- Node1&#45;&gt;Node5 -->
<g id="edge4" class="edge">
<title>Node1&#45;&gt;Node5</title>
<path fill="none" stroke="midnightblue" d="M934.57,-67.48C872.19,-56.72 765,-38.23 698.28,-26.72"/>
<polygon fill="midnightblue" stroke="midnightblue" points="698.79,-23.26 688.34,-25.01 697.6,-30.16 698.79,-23.26"/>
</g>
<!-- Node6 -->
<g id="node6" class="node">
<title>Node6</title>
<g id="a_node6"><a xlink:title=" ">
<polygon fill="white" stroke="#bfbfbf" points="743,-6 743,-25 879,-25 879,-6 743,-6"/>
<text text-anchor="middle" x="811" y="-13" font-family="Helvetica,sans-Serif" font-size="10.00">matrix_free/LocalArray.h</text>
</a>
</g>
</g>
<!-- Node1&#45;&gt;Node6 -->
<g id="edge5" class="edge">
<title>Node1&#45;&gt;Node6</title>
<path fill="none" stroke="midnightblue" d="M959.21,-67.48C929.41,-57.22 879.21,-39.96 845.6,-28.4"/>
<polygon fill="midnightblue" stroke="midnightblue" points="846.34,-24.95 835.74,-25.01 844.06,-31.57 846.34,-24.95"/>
</g>
<!-- Node7 -->
<g id="node7" class="node">
<title>Node7</title>
<g id="a_node7"><a xlink:title=" ">
<polygon fill="white" stroke="#bfbfbf" points="897.5,-6 897.5,-25 1070.5,-25 1070.5,-6 897.5,-6"/>
<text text-anchor="middle" x="984" y="-13" font-family="Helvetica,sans-Serif" font-size="10.00">matrix_free/PolynomialOrders.h</text>
</a>
</g>
</g>
<!-- Node1&#45;&gt;Node7 -->
<g id="edge6" class="edge">
<title>Node1&#45;&gt;Node7</title>
<path fill="none" stroke="midnightblue" d="M984,-67.48C984,-59.08 984,-45.98 984,-35.16"/>
<polygon fill="midnightblue" stroke="midnightblue" points="987.5,-35.01 984,-25.01 980.5,-35.01 987.5,-35.01"/>
</g>
<!-- Node8 -->
<g id="node8" class="node">
<title>Node8</title>
<g id="a_node8"><a xlink:title=" ">
<polygon fill="white" stroke="#bfbfbf" points="1088.5,-6 1088.5,-25 1255.5,-25 1255.5,-6 1088.5,-6"/>
<text text-anchor="middle" x="1172" y="-13" font-family="Helvetica,sans-Serif" font-size="10.00">matrix_free/ValidSimdLength.h</text>
</a>
</g>
</g>
<!-- Node1&#45;&gt;Node8 -->
<g id="edge7" class="edge">
<title>Node1&#45;&gt;Node8</title>
<path fill="none" stroke="midnightblue" d="M1010.94,-67.48C1043.6,-57.14 1098.82,-39.66 1135.34,-28.1"/>
<polygon fill="midnightblue" stroke="midnightblue" points="1136.64,-31.36 1145.11,-25.01 1134.52,-24.69 1136.64,-31.36"/>
</g>
<!-- Node9 -->
<g id="node9" class="node">
<title>Node9</title>
<g id="a_node9"><a xlink:title=" ">
<polygon fill="white" stroke="#bfbfbf" points="1274,-6 1274,-25 1378,-25 1378,-6 1274,-6"/>
<text text-anchor="middle" x="1326" y="-13" font-family="Helvetica,sans-Serif" font-size="10.00">KokkosInterface.h</text>
</a>
</g>
</g>
<!-- Node1&#45;&gt;Node9 -->
<g id="edge8" class="edge">
<title>Node1&#45;&gt;Node9</title>
<path fill="none" stroke="midnightblue" d="M1039.67,-68.34C1096.52,-60.21 1187.22,-46.45 1265,-31 1270.54,-29.9 1276.34,-28.65 1282.06,-27.36"/>
<polygon fill="midnightblue" stroke="midnightblue" points="1283.27,-30.67 1292.22,-25 1281.69,-23.85 1283.27,-30.67"/>
</g>
<!-- Node10 -->
<g id="node10" class="node">
<title>Node10</title>
<g id="a_node10"><a xlink:title=" ">
<polygon fill="white" stroke="#bfbfbf" points="1396.5,-6 1396.5,-25 1531.5,-25 1531.5,-6 1396.5,-6"/>
<text text-anchor="middle" x="1464" y="-13" font-family="Helvetica,sans-Serif" font-size="10.00">Kokkos_ScatterView.hpp</text>
</a>
</g>
</g>
<!-- Node1&#45;&gt;Node10 -->
<g id="edge9" class="edge">
<title>Node1&#45;&gt;Node10</title>
<path fill="none" stroke="midnightblue" d="M1039.58,-71.12C1117.47,-63.98 1263.42,-49.51 1387,-31 1395.03,-29.8 1403.51,-28.37 1411.78,-26.88"/>
<polygon fill="midnightblue" stroke="midnightblue" points="1412.53,-30.3 1421.73,-25.05 1411.27,-23.42 1412.53,-30.3"/>
</g>
<!-- Node11 -->
<g id="node11" class="node">
<title>Node11</title>
<g id="a_node11"><a xlink:title=" ">
<polygon fill="white" stroke="#bfbfbf" points="1550,-0.5 1550,-30.5 1702,-30.5 1702,-0.5 1550,-0.5"/>
<text text-anchor="start" x="1558" y="-18.5" font-family="Helvetica,sans-Serif" font-size="10.00">stk_mesh/base/NgpProfiling</text>
<text text-anchor="middle" x="1626" y="-7.5" font-family="Helvetica,sans-Serif" font-size="10.00">Block.hpp</text>
</a>
</g>
</g>
<!-- Node1&#45;&gt;Node11 -->
<g id="edge10" class="edge">
<title>Node1&#45;&gt;Node11</title>
<path fill="none" stroke="midnightblue" d="M1039.51,-73.14C1138.11,-67.71 1350.47,-54.42 1539.47,-31.12"/>
<polygon fill="midnightblue" stroke="midnightblue" points="1540.1,-34.57 1549.59,-29.86 1539.24,-27.62 1540.1,-34.57"/>
</g>
<!-- Node12 -->
<g id="node12" class="node">
<title>Node12</title>
<g id="a_node12"><a xlink:title=" ">
<polygon fill="white" stroke="#bfbfbf" points="1720,-6 1720,-25 1830,-25 1830,-6 1720,-6"/>
<text text-anchor="middle" x="1775" y="-13" font-family="Helvetica,sans-Serif" font-size="10.00">stk_simd/Simd.hpp</text>
</a>
</g>
</g>
<!-- Node1&#45;&gt;Node12 -->
<g id="edge11" class="edge">
<title>Node1&#45;&gt;Node12</title>
<path fill="none" stroke="midnightblue" d="M1039.95,-75.6C1162.28,-74.05 1462.52,-66.6 1711,-31 1717.82,-30.02 1724.99,-28.7 1731.96,-27.25"/>
<polygon fill="midnightblue" stroke="midnightblue" points="1732.95,-30.61 1741.97,-25.05 1731.45,-23.77 1732.95,-30.61"/>
</g>
</g>
</svg>
