<?xml version="1.0" encoding="UTF-8" standalone="no"?>
<!DOCTYPE svg PUBLIC "-//W3C//DTD SVG 1.1//EN"
 "http://www.w3.org/Graphics/SVG/1.1/DTD/svg11.dtd">
<!-- Generated by graphviz version 2.43.0 (0)
 -->
<!-- Title: ConductionInterior.C Pages: 1 -->
<svg width="1887pt" height="95pt"
 viewBox="0.00 0.00 1886.50 95.00" xmlns="http://www.w3.org/2000/svg" xmlns:xlink="http://www.w3.org/1999/xlink">
<g id="graph0" class="graph" transform="scale(1 1) rotate(0) translate(4 91)">
<title>ConductionInterior.C</title>
<polygon fill="white" stroke="transparent" points="-4,4 -4,-91 1882.5,-91 1882.5,4 -4,4"/>
<!-- Node1 -->
<g id="node1" class="node">
<title>Node1</title>
<g id="a_node1"><a xlink:title=" ">
<polygon fill="#bfbfbf" stroke="black" points="946.5,-67.5 946.5,-86.5 1062.5,-86.5 1062.5,-67.5 946.5,-67.5"/>
<text text-anchor="middle" x="1004.5" y="-74.5" font-family="Helvetica,sans-Serif" font-size="10.00">ConductionInterior.C</text>
</a>
</g>
</g>
<!-- Node2 -->
<g id="node2" class="node">
<title>Node2</title>
<g id="a_node2"><a xlink:title=" ">
<polygon fill="white" stroke="#bfbfbf" points="0,-6 0,-25 175,-25 175,-6 0,-6"/>
<text text-anchor="middle" x="87.5" y="-13" font-family="Helvetica,sans-Serif" font-size="10.00">matrix_free/ConductionInterior.h</text>
</a>
</g>
</g>
<!-- Node1&#45;&gt;Node2 -->
<g id="edge1" class="edge">
<title>Node1&#45;&gt;Node2</title>
<path fill="none" stroke="midnightblue" d="M946.37,-74.71C811.84,-71.32 468.75,-60.29 183.5,-31 171.96,-29.81 159.68,-28.22 147.9,-26.52"/>
<polygon fill="midnightblue" stroke="midnightblue" points="148.11,-23.01 137.71,-25 147.08,-29.94 148.11,-23.01"/>
</g>
<!-- Node3 -->
<g id="node3" class="node">
<title>Node3</title>
<g id="a_node3"><a xlink:title=" ">
<polygon fill="white" stroke="#bfbfbf" points="193,-6 193,-25 336,-25 336,-6 193,-6"/>
<text text-anchor="middle" x="264.5" y="-13" font-family="Helvetica,sans-Serif" font-size="10.00">matrix_free/Coefficients.h</text>
</a>
</g>
</g>
<!-- Node1&#45;&gt;Node3 -->
<g id="edge2" class="edge">
<title>Node1&#45;&gt;Node3</title>
<path fill="none" stroke="midnightblue" d="M946.47,-74.21C831.31,-70.19 565.89,-58.52 344.5,-31 335.45,-29.87 325.87,-28.39 316.6,-26.81"/>
<polygon fill="midnightblue" stroke="midnightblue" points="317.17,-23.35 306.71,-25.06 315.95,-30.25 317.17,-23.35"/>
</g>
<!-- Node4 -->
<g id="node4" class="node">
<title>Node4</title>
<g id="a_node4"><a xlink:title=" ">
<polygon fill="white" stroke="#bfbfbf" points="354,-6 354,-25 539,-25 539,-6 354,-6"/>
<text text-anchor="middle" x="446.5" y="-13" font-family="Helvetica,sans-Serif" font-size="10.00">matrix_free/ElementFluxIntegral.h</text>
</a>
</g>
</g>
<!-- Node1&#45;&gt;Node4 -->
<g id="edge3" class="edge">
<title>Node1&#45;&gt;Node4</title>
<path fill="none" stroke="midnightblue" d="M946.47,-71.08C859.75,-63.53 691.26,-48.18 548.5,-31 537.17,-29.64 525.15,-28.05 513.49,-26.44"/>
<polygon fill="midnightblue" stroke="midnightblue" points="513.75,-22.94 503.36,-25.02 512.78,-29.88 513.75,-22.94"/>
</g>
<!-- Node5 -->
<g id="node5" class="node">
<title>Node5</title>
<g id="a_node5"><a xlink:title=" ">
<polygon fill="white" stroke="#bfbfbf" points="557.5,-0.5 557.5,-30.5 711.5,-30.5 711.5,-0.5 557.5,-0.5"/>
<text text-anchor="start" x="565.5" y="-18.5" font-family="Helvetica,sans-Serif" font-size="10.00">matrix_free/ElementVolume</text>
<text text-anchor="middle" x="634.5" y="-7.5" font-family="Helvetica,sans-Serif" font-size="10.00">Integral.h</text>
</a>
</g>
</g>
<!-- Node1&#45;&gt;Node5 -->
<g id="edge4" class="edge">
<title>Node1&#45;&gt;Node5</title>
<path fill="none" stroke="midnightblue" d="M949.76,-67.49C894.73,-58.9 807.17,-45.13 721.96,-31.23"/>
<polygon fill="midnightblue" stroke="midnightblue" points="722.28,-27.74 711.85,-29.58 721.15,-34.64 722.28,-27.74"/>
</g>
<!-- Node6 -->
<g id="node6" class="node">
<title>Node6</title>
<g id="a_node6"><a xlink:title=" ">
<polygon fill="white" stroke="#bfbfbf" points="730,-6 730,-25 903,-25 903,-6 730,-6"/>
<text text-anchor="middle" x="816.5" y="-13" font-family="Helvetica,sans-Serif" font-size="10.00">matrix_free/PolynomialOrders.h</text>
</a>
</g>
</g>
<!-- Node1&#45;&gt;Node6 -->
<g id="edge5" class="edge">
<title>Node1&#45;&gt;Node6</title>
<path fill="none" stroke="midnightblue" d="M977.56,-67.48C944.9,-57.14 889.68,-39.66 853.16,-28.1"/>
<polygon fill="midnightblue" stroke="midnightblue" points="853.98,-24.69 843.39,-25.01 851.86,-31.36 853.98,-24.69"/>
</g>
<!-- Node7 -->
<g id="node7" class="node">
<title>Node7</title>
<g id="a_node7"><a xlink:title=" ">
<polygon fill="white" stroke="#bfbfbf" points="921,-6 921,-25 1088,-25 1088,-6 921,-6"/>
<text text-anchor="middle" x="1004.5" y="-13" font-family="Helvetica,sans-Serif" font-size="10.00">matrix_free/ValidSimdLength.h</text>
</a>
</g>
</g>
<!-- Node1&#45;&gt;Node7 -->
<g id="edge6" class="edge">
<title>Node1&#45;&gt;Node7</title>
<path fill="none" stroke="midnightblue" d="M1004.5,-67.48C1004.5,-59.08 1004.5,-45.98 1004.5,-35.16"/>
<polygon fill="midnightblue" stroke="midnightblue" points="1008,-35.01 1004.5,-25.01 1001,-35.01 1008,-35.01"/>
</g>
<!-- Node8 -->
<g id="node8" class="node">
<title>Node8</title>
<g id="a_node8"><a xlink:title=" ">
<polygon fill="white" stroke="#bfbfbf" points="1106.5,-6 1106.5,-25 1278.5,-25 1278.5,-6 1106.5,-6"/>
<text text-anchor="middle" x="1192.5" y="-13" font-family="Helvetica,sans-Serif" font-size="10.00">matrix_free/KokkosViewTypes.h</text>
</a>
</g>
</g>
<!-- Node1&#45;&gt;Node8 -->
<g id="edge7" class="edge">
<title>Node1&#45;&gt;Node8</title>
<path fill="none" stroke="midnightblue" d="M1031.44,-67.48C1064.1,-57.14 1119.32,-39.66 1155.84,-28.1"/>
<polygon fill="midnightblue" stroke="midnightblue" points="1157.14,-31.36 1165.61,-25.01 1155.02,-24.69 1157.14,-31.36"/>
</g>
<!-- Node9 -->
<g id="node9" class="node">
<title>Node9</title>
<g id="a_node9"><a xlink:title=" ">
<polygon fill="white" stroke="#bfbfbf" points="1296.5,-6 1296.5,-25 1432.5,-25 1432.5,-6 1296.5,-6"/>
<text text-anchor="middle" x="1364.5" y="-13" font-family="Helvetica,sans-Serif" font-size="10.00">matrix_free/LocalArray.h</text>
</a>
</g>
</g>
<!-- Node1&#45;&gt;Node9 -->
<g id="edge8" class="edge">
<title>Node1&#45;&gt;Node9</title>
<path fill="none" stroke="midnightblue" d="M1061.23,-67.47C1118.42,-58.75 1209.2,-44.6 1287.5,-31 1294.86,-29.72 1302.61,-28.32 1310.24,-26.92"/>
<polygon fill="midnightblue" stroke="midnightblue" points="1310.97,-30.34 1320.16,-25.07 1309.69,-23.46 1310.97,-30.34"/>
</g>
<!-- Node10 -->
<g id="node10" class="node">
<title>Node10</title>
<g id="a_node10"><a xlink:title=" ">
<polygon fill="white" stroke="#bfbfbf" points="1450.5,-6 1450.5,-25 1554.5,-25 1554.5,-6 1450.5,-6"/>
<text text-anchor="middle" x="1502.5" y="-13" font-family="Helvetica,sans-Serif" font-size="10.00">KokkosInterface.h</text>
</a>
</g>
</g>
<!-- Node1&#45;&gt;Node10 -->
<g id="edge9" class="edge">
<title>Node1&#45;&gt;Node10</title>
<path fill="none" stroke="midnightblue" d="M1062.79,-72.43C1146.88,-66.73 1306.9,-53.83 1441.5,-31 1447.48,-29.99 1453.75,-28.73 1459.9,-27.38"/>
<polygon fill="midnightblue" stroke="midnightblue" points="1461.09,-30.69 1470.05,-25.04 1459.52,-23.87 1461.09,-30.69"/>
</g>
<!-- Node11 -->
<g id="node11" class="node">
<title>Node11</title>
<g id="a_node11"><a xlink:title=" ">
<polygon fill="white" stroke="#bfbfbf" points="1573,-6 1573,-25 1708,-25 1708,-6 1573,-6"/>
<text text-anchor="middle" x="1640.5" y="-13" font-family="Helvetica,sans-Serif" font-size="10.00">Kokkos_ScatterView.hpp</text>
</a>
</g>
</g>
<!-- Node1&#45;&gt;Node11 -->
<g id="edge10" class="edge">
<title>Node1&#45;&gt;Node11</title>
<path fill="none" stroke="midnightblue" d="M1062.66,-73.35C1164.5,-68.25 1381.6,-55.38 1563.5,-31 1571.93,-29.87 1580.84,-28.43 1589.48,-26.89"/>
<polygon fill="midnightblue" stroke="midnightblue" points="1590.27,-30.31 1599.47,-25.06 1589,-23.42 1590.27,-30.31"/>
</g>
<!-- Node12 -->
<g id="node12" class="node">
<title>Node12</title>
<g id="a_node12"><a xlink:title=" ">
<polygon fill="white" stroke="#bfbfbf" points="1726.5,-0.5 1726.5,-30.5 1878.5,-30.5 1878.5,-0.5 1726.5,-0.5"/>
<text text-anchor="start" x="1734.5" y="-18.5" font-family="Helvetica,sans-Serif" font-size="10.00">stk_mesh/base/NgpProfiling</text>
<text text-anchor="middle" x="1802.5" y="-7.5" font-family="Helvetica,sans-Serif" font-size="10.00">Block.hpp</text>
</a>
</g>
</g>
<!-- Node1&#45;&gt;Node12 -->
<g id="edge11" class="edge">
<title>Node1&#45;&gt;Node12</title>
<path fill="none" stroke="midnightblue" d="M1062.91,-74.41C1183.28,-70.67 1467.79,-59.51 1716.16,-31.07"/>
<polygon fill="midnightblue" stroke="midnightblue" points="1716.57,-34.55 1726.1,-29.93 1715.76,-27.6 1716.57,-34.55"/>
</g>
</g>
</svg>
