<?xml version="1.0" encoding="UTF-8" standalone="no"?>
<!DOCTYPE svg PUBLIC "-//W3C//DTD SVG 1.1//EN"
 "http://www.w3.org/Graphics/SVG/1.1/DTD/svg11.dtd">
<!-- Generated by graphviz version 2.43.0 (0)
 -->
<!-- Title: CoriolisSrc.C Pages: 1 -->
<svg width="639pt" height="84pt"
 viewBox="0.00 0.00 638.50 84.00" xmlns="http://www.w3.org/2000/svg" xmlns:xlink="http://www.w3.org/1999/xlink">
<g id="graph0" class="graph" transform="scale(1 1) rotate(0) translate(4 80)">
<title>CoriolisSrc.C</title>
<polygon fill="white" stroke="transparent" points="-4,4 -4,-80 634.5,-80 634.5,4 -4,4"/>
<!-- Node1 -->
<g id="node1" class="node">
<title>Node1</title>
<g id="a_node1"><a xlink:title=" ">
<polygon fill="#bfbfbf" stroke="black" points="182.5,-56.5 182.5,-75.5 260.5,-75.5 260.5,-56.5 182.5,-56.5"/>
<text text-anchor="middle" x="221.5" y="-63.5" font-family="Helvetica,sans-Serif" font-size="10.00">CoriolisSrc.C</text>
</a>
</g>
</g>
<!-- Node2 -->
<g id="node2" class="node">
<title>Node2</title>
<g id="a_node2"><a xlink:title=" ">
<polygon fill="white" stroke="#bfbfbf" points="0,-0.5 0,-19.5 77,-19.5 77,-0.5 0,-0.5"/>
<text text-anchor="middle" x="38.5" y="-7.5" font-family="Helvetica,sans-Serif" font-size="10.00">CoriolisSrc.h</text>
</a>
</g>
</g>
<!-- Node1&#45;&gt;Node2 -->
<g id="edge1" class="edge">
<title>Node1&#45;&gt;Node2</title>
<path fill="none" stroke="midnightblue" d="M192.5,-56.44C161.32,-47.24 111.57,-32.56 77.09,-22.39"/>
<polygon fill="midnightblue" stroke="midnightblue" points="77.94,-18.99 67.36,-19.52 75.96,-25.7 77.94,-18.99"/>
</g>
<!-- Node3 -->
<g id="node3" class="node">
<title>Node3</title>
<g id="a_node3"><a xlink:title=" ">
<polygon fill="white" stroke="#bfbfbf" points="95,-0.5 95,-19.5 152,-19.5 152,-0.5 95,-0.5"/>
<text text-anchor="middle" x="123.5" y="-7.5" font-family="Helvetica,sans-Serif" font-size="10.00">Realm.h</text>
</a>
</g>
</g>
<!-- Node1&#45;&gt;Node3 -->
<g id="edge2" class="edge">
<title>Node1&#45;&gt;Node3</title>
<path fill="none" stroke="midnightblue" d="M205.75,-56.32C190.18,-47.74 166.12,-34.49 148.04,-24.52"/>
<polygon fill="midnightblue" stroke="midnightblue" points="149.65,-21.42 139.21,-19.65 146.28,-27.55 149.65,-21.42"/>
</g>
<!-- Node4 -->
<g id="node4" class="node">
<title>Node4</title>
<g id="a_node4"><a xlink:title=" ">
<polygon fill="white" stroke="#bfbfbf" points="170,-0.5 170,-19.5 273,-19.5 273,-0.5 170,-0.5"/>
<text text-anchor="middle" x="221.5" y="-7.5" font-family="Helvetica,sans-Serif" font-size="10.00">SolutionOptions.h</text>
</a>
</g>
</g>
<!-- Node1&#45;&gt;Node4 -->
<g id="edge3" class="edge">
<title>Node1&#45;&gt;Node4</title>
<path fill="none" stroke="midnightblue" d="M221.5,-56.08C221.5,-49.01 221.5,-38.86 221.5,-29.99"/>
<polygon fill="midnightblue" stroke="midnightblue" points="225,-29.75 221.5,-19.75 218,-29.75 225,-29.75"/>
</g>
<!-- Node5 -->
<g id="node5" class="node">
<title>Node5</title>
<g id="a_node5"><a xlink:title=" ">
<polygon fill="white" stroke="#bfbfbf" points="291,-0.5 291,-19.5 450,-19.5 450,-0.5 291,-0.5"/>
<text text-anchor="middle" x="370.5" y="-7.5" font-family="Helvetica,sans-Serif" font-size="10.00">master_element/TensorOps.h</text>
</a>
</g>
</g>
<!-- Node1&#45;&gt;Node5 -->
<g id="edge4" class="edge">
<title>Node1&#45;&gt;Node5</title>
<path fill="none" stroke="midnightblue" d="M245.11,-56.44C269.96,-47.44 309.27,-33.19 337.25,-23.05"/>
<polygon fill="midnightblue" stroke="midnightblue" points="338.79,-26.21 347,-19.52 336.41,-19.63 338.79,-26.21"/>
</g>
<!-- Node6 -->
<g id="node6" class="node">
<title>Node6</title>
<g id="a_node6"><a xlink:title=" ">
<polygon fill="white" stroke="#bfbfbf" points="468.5,-0.5 468.5,-19.5 630.5,-19.5 630.5,-0.5 468.5,-0.5"/>
<text text-anchor="middle" x="549.5" y="-7.5" font-family="Helvetica,sans-Serif" font-size="10.00">stk_mesh/base/MetaData.hpp</text>
</a>
</g>
</g>
<!-- Node1&#45;&gt;Node6 -->
<g id="edge5" class="edge">
<title>Node1&#45;&gt;Node6</title>
<path fill="none" stroke="midnightblue" d="M260.74,-58.54C317.02,-49.27 421.22,-32.12 487.86,-21.15"/>
<polygon fill="midnightblue" stroke="midnightblue" points="488.51,-24.59 497.81,-19.51 487.38,-17.68 488.51,-24.59"/>
</g>
</g>
</svg>
