<?xml version="1.0" encoding="UTF-8" standalone="no"?>
<!DOCTYPE svg PUBLIC "-//W3C//DTD SVG 1.1//EN"
 "http://www.w3.org/Graphics/SVG/1.1/DTD/svg11.dtd">
<!-- Generated by graphviz version 2.43.0 (0)
 -->
<!-- Title: CourantReAlg.C Pages: 1 -->
<svg width="2315pt" height="95pt"
 viewBox="0.00 0.00 2315.00 95.00" xmlns="http://www.w3.org/2000/svg" xmlns:xlink="http://www.w3.org/1999/xlink">
<g id="graph0" class="graph" transform="scale(1 1) rotate(0) translate(4 91)">
<title>CourantReAlg.C</title>
<polygon fill="white" stroke="transparent" points="-4,4 -4,-91 2311,-91 2311,4 -4,4"/>
<!-- Node1 -->
<g id="node1" class="node">
<title>Node1</title>
<g id="a_node1"><a xlink:title=" ">
<polygon fill="#bfbfbf" stroke="black" points="1166.5,-67.5 1166.5,-86.5 1259.5,-86.5 1259.5,-67.5 1166.5,-67.5"/>
<text text-anchor="middle" x="1213" y="-74.5" font-family="Helvetica,sans-Serif" font-size="10.00">CourantReAlg.C</text>
</a>
</g>
</g>
<!-- Node2 -->
<g id="node2" class="node">
<title>Node2</title>
<g id="a_node2"><a xlink:title=" ">
<polygon fill="white" stroke="#bfbfbf" points="0,-6 0,-25 44,-25 44,-6 0,-6"/>
<text text-anchor="middle" x="22" y="-13" font-family="Helvetica,sans-Serif" font-size="10.00">limits</text>
</a>
</g>
</g>
<!-- Node1&#45;&gt;Node2 -->
<g id="edge1" class="edge">
<title>Node1&#45;&gt;Node2</title>
<path fill="none" stroke="midnightblue" d="M1166.27,-75.28C963.16,-72.01 162.31,-57.53 53,-31 51.01,-30.52 48.99,-29.9 46.99,-29.19"/>
<polygon fill="midnightblue" stroke="midnightblue" points="47.9,-25.78 37.33,-25.14 45.19,-32.24 47.9,-25.78"/>
</g>
<!-- Node3 -->
<g id="node3" class="node">
<title>Node3</title>
<g id="a_node3"><a xlink:title=" ">
<polygon fill="white" stroke="#bfbfbf" points="62,-0.5 62,-30.5 208,-30.5 208,-0.5 62,-0.5"/>
<text text-anchor="start" x="70" y="-18.5" font-family="Helvetica,sans-Serif" font-size="10.00">ngp_algorithms/CourantRe</text>
<text text-anchor="middle" x="135" y="-7.5" font-family="Helvetica,sans-Serif" font-size="10.00">Alg.h</text>
</a>
</g>
</g>
<!-- Node1&#45;&gt;Node3 -->
<g id="edge2" class="edge">
<title>Node1&#45;&gt;Node3</title>
<path fill="none" stroke="midnightblue" d="M1166.41,-76.04C1025.14,-75.71 589.07,-71.32 218.37,-31.05"/>
<polygon fill="midnightblue" stroke="midnightblue" points="218.57,-27.55 208.25,-29.94 217.81,-34.51 218.57,-27.55"/>
</g>
<!-- Node4 -->
<g id="node4" class="node">
<title>Node4</title>
<g id="a_node4"><a xlink:title=" ">
<polygon fill="white" stroke="#bfbfbf" points="226.5,-6 226.5,-25 327.5,-25 327.5,-6 226.5,-6"/>
<text text-anchor="middle" x="277" y="-13" font-family="Helvetica,sans-Serif" font-size="10.00">BuildTemplates.h</text>
</a>
</g>
</g>
<!-- Node1&#45;&gt;Node4 -->
<g id="edge3" class="edge">
<title>Node1&#45;&gt;Node4</title>
<path fill="none" stroke="midnightblue" d="M1166.3,-74.77C1008.88,-70.46 498.52,-54.92 336,-31 329.77,-30.08 323.23,-28.8 316.88,-27.38"/>
<polygon fill="midnightblue" stroke="midnightblue" points="317.64,-23.97 307.1,-25.06 316.02,-30.78 317.64,-23.97"/>
</g>
<!-- Node5 -->
<g id="node5" class="node">
<title>Node5</title>
<g id="a_node5"><a xlink:title=" ">
<polygon fill="white" stroke="#bfbfbf" points="345.5,-6 345.5,-25 528.5,-25 528.5,-6 345.5,-6"/>
<text text-anchor="middle" x="437" y="-13" font-family="Helvetica,sans-Serif" font-size="10.00">master_element/MasterElement.h</text>
</a>
</g>
</g>
<!-- Node1&#45;&gt;Node5 -->
<g id="edge4" class="edge">
<title>Node1&#45;&gt;Node5</title>
<path fill="none" stroke="midnightblue" d="M1166.25,-74.11C1056.4,-69.4 773.36,-55.7 538,-31 526.03,-29.74 513.29,-28.13 501.04,-26.44"/>
<polygon fill="midnightblue" stroke="midnightblue" points="501.29,-22.94 490.89,-25.01 500.31,-29.87 501.29,-22.94"/>
</g>
<!-- Node6 -->
<g id="node6" class="node">
<title>Node6</title>
<g id="a_node6"><a xlink:title=" ">
<polygon fill="white" stroke="#bfbfbf" points="547,-0.5 547,-30.5 721,-30.5 721,-0.5 547,-0.5"/>
<text text-anchor="start" x="555" y="-18.5" font-family="Helvetica,sans-Serif" font-size="10.00">master_element/MasterElement</text>
<text text-anchor="middle" x="634" y="-7.5" font-family="Helvetica,sans-Serif" font-size="10.00">Repo.h</text>
</a>
</g>
</g>
<!-- Node1&#45;&gt;Node6 -->
<g id="edge5" class="edge">
<title>Node1&#45;&gt;Node6</title>
<path fill="none" stroke="midnightblue" d="M1166.28,-72.54C1081.72,-66.08 897.43,-51.11 731.49,-31.14"/>
<polygon fill="midnightblue" stroke="midnightblue" points="731.44,-27.61 721.09,-29.88 730.6,-34.55 731.44,-27.61"/>
</g>
<!-- Node7 -->
<g id="node7" class="node">
<title>Node7</title>
<g id="a_node7"><a xlink:title=" ">
<polygon fill="white" stroke="#bfbfbf" points="739,-0.5 739,-30.5 885,-30.5 885,-0.5 739,-0.5"/>
<text text-anchor="start" x="747" y="-18.5" font-family="Helvetica,sans-Serif" font-size="10.00">ngp_algorithms/CourantRe</text>
<text text-anchor="middle" x="812" y="-7.5" font-family="Helvetica,sans-Serif" font-size="10.00">AlgDriver.h</text>
</a>
</g>
</g>
<!-- Node1&#45;&gt;Node7 -->
<g id="edge6" class="edge">
<title>Node1&#45;&gt;Node7</title>
<path fill="none" stroke="midnightblue" d="M1166.43,-69.95C1106.18,-62 997.71,-47.31 895.2,-31.16"/>
<polygon fill="midnightblue" stroke="midnightblue" points="895.72,-27.7 885.3,-29.59 894.63,-34.61 895.72,-27.7"/>
</g>
<!-- Node8 -->
<g id="node8" class="node">
<title>Node8</title>
<g id="a_node8"><a xlink:title=" ">
<polygon fill="white" stroke="#bfbfbf" points="903,-0.5 903,-30.5 1049,-30.5 1049,-0.5 903,-0.5"/>
<text text-anchor="start" x="911" y="-18.5" font-family="Helvetica,sans-Serif" font-size="10.00">ngp_algorithms/CourantRe</text>
<text text-anchor="middle" x="976" y="-7.5" font-family="Helvetica,sans-Serif" font-size="10.00">ReduceHelper.h</text>
</a>
</g>
</g>
<!-- Node1&#45;&gt;Node8 -->
<g id="edge7" class="edge">
<title>Node1&#45;&gt;Node8</title>
<path fill="none" stroke="midnightblue" d="M1179.04,-67.48C1143.35,-58.51 1086.29,-44.19 1041.74,-33"/>
<polygon fill="midnightblue" stroke="midnightblue" points="1042.41,-29.56 1031.86,-30.52 1040.7,-36.35 1042.41,-29.56"/>
</g>
<!-- Node9 -->
<g id="node9" class="node">
<title>Node9</title>
<g id="a_node9"><a xlink:title=" ">
<polygon fill="white" stroke="#bfbfbf" points="1067,-6 1067,-25 1205,-25 1205,-6 1067,-6"/>
<text text-anchor="middle" x="1136" y="-13" font-family="Helvetica,sans-Serif" font-size="10.00">ngp_utils/NgpLoopUtils.h</text>
</a>
</g>
</g>
<!-- Node1&#45;&gt;Node9 -->
<g id="edge8" class="edge">
<title>Node1&#45;&gt;Node9</title>
<path fill="none" stroke="midnightblue" d="M1201.97,-67.48C1189.73,-58.02 1169.77,-42.6 1155.01,-31.19"/>
<polygon fill="midnightblue" stroke="midnightblue" points="1157.06,-28.35 1147.01,-25.01 1152.78,-33.89 1157.06,-28.35"/>
</g>
<!-- Node10 -->
<g id="node10" class="node">
<title>Node10</title>
<g id="a_node10"><a xlink:title=" ">
<polygon fill="white" stroke="#bfbfbf" points="1223,-6 1223,-25 1357,-25 1357,-6 1223,-6"/>
<text text-anchor="middle" x="1290" y="-13" font-family="Helvetica,sans-Serif" font-size="10.00">ngp_utils/NgpFieldOps.h</text>
</a>
</g>
</g>
<!-- Node1&#45;&gt;Node10 -->
<g id="edge9" class="edge">
<title>Node1&#45;&gt;Node10</title>
<path fill="none" stroke="midnightblue" d="M1224.03,-67.48C1236.27,-58.02 1256.23,-42.6 1270.99,-31.19"/>
<polygon fill="midnightblue" stroke="midnightblue" points="1273.22,-33.89 1278.99,-25.01 1268.94,-28.35 1273.22,-33.89"/>
</g>
<!-- Node11 -->
<g id="node11" class="node">
<title>Node11</title>
<g id="a_node11"><a xlink:title=" ">
<polygon fill="white" stroke="#bfbfbf" points="1375.5,-6 1375.5,-25 1526.5,-25 1526.5,-6 1375.5,-6"/>
<text text-anchor="middle" x="1451" y="-13" font-family="Helvetica,sans-Serif" font-size="10.00">ngp_utils/NgpReduceUtils.h</text>
</a>
</g>
</g>
<!-- Node1&#45;&gt;Node11 -->
<g id="edge10" class="edge">
<title>Node1&#45;&gt;Node11</title>
<path fill="none" stroke="midnightblue" d="M1247.1,-67.48C1289.25,-56.94 1361.05,-38.99 1407.23,-27.44"/>
<polygon fill="midnightblue" stroke="midnightblue" points="1408.11,-30.83 1416.96,-25.01 1406.41,-24.04 1408.11,-30.83"/>
</g>
<!-- Node12 -->
<g id="node12" class="node">
<title>Node12</title>
<g id="a_node12"><a xlink:title=" ">
<polygon fill="white" stroke="#bfbfbf" points="1545,-6 1545,-25 1703,-25 1703,-6 1545,-6"/>
<text text-anchor="middle" x="1624" y="-13" font-family="Helvetica,sans-Serif" font-size="10.00">ngp_utils/NgpFieldManager.h</text>
</a>
</g>
</g>
<!-- Node1&#45;&gt;Node12 -->
<g id="edge11" class="edge">
<title>Node1&#45;&gt;Node12</title>
<path fill="none" stroke="midnightblue" d="M1259.59,-69.88C1322.42,-61.54 1437.76,-45.93 1536,-31 1544.79,-29.66 1554.06,-28.2 1563.15,-26.73"/>
<polygon fill="midnightblue" stroke="midnightblue" points="1564,-30.14 1573.31,-25.07 1562.88,-23.23 1564,-30.14"/>
</g>
<!-- Node13 -->
<g id="node13" class="node">
<title>Node13</title>
<g id="a_node13"><a xlink:title=" ">
<polygon fill="white" stroke="#bfbfbf" points="1720.5,-6 1720.5,-25 1777.5,-25 1777.5,-6 1720.5,-6"/>
<text text-anchor="middle" x="1749" y="-13" font-family="Helvetica,sans-Serif" font-size="10.00">Realm.h</text>
</a>
</g>
</g>
<!-- Node1&#45;&gt;Node13 -->
<g id="edge12" class="edge">
<title>Node1&#45;&gt;Node13</title>
<path fill="none" stroke="midnightblue" d="M1259.79,-76.17C1349,-75.52 1549.03,-69.45 1712,-31 1714.83,-30.33 1717.74,-29.49 1720.61,-28.55"/>
<polygon fill="midnightblue" stroke="midnightblue" points="1721.93,-31.8 1730.13,-25.08 1719.53,-25.22 1721.93,-31.8"/>
</g>
<!-- Node14 -->
<g id="node14" class="node">
<title>Node14</title>
<g id="a_node14"><a xlink:title=" ">
<polygon fill="white" stroke="#bfbfbf" points="1795.5,-6 1795.5,-25 1886.5,-25 1886.5,-6 1795.5,-6"/>
<text text-anchor="middle" x="1841" y="-13" font-family="Helvetica,sans-Serif" font-size="10.00">ScratchViews.h</text>
</a>
</g>
</g>
<!-- Node1&#45;&gt;Node14 -->
<g id="edge13" class="edge">
<title>Node1&#45;&gt;Node14</title>
<path fill="none" stroke="midnightblue" d="M1259.86,-75.24C1358.23,-73.01 1593.18,-64.33 1787,-31 1792.38,-30.07 1798,-28.86 1803.5,-27.52"/>
<polygon fill="midnightblue" stroke="midnightblue" points="1804.38,-30.91 1813.19,-25.02 1802.63,-24.13 1804.38,-30.91"/>
</g>
<!-- Node15 -->
<g id="node15" class="node">
<title>Node15</title>
<g id="a_node15"><a xlink:title=" ">
<polygon fill="white" stroke="#bfbfbf" points="1904.5,-6 1904.5,-25 2007.5,-25 2007.5,-6 1904.5,-6"/>
<text text-anchor="middle" x="1956" y="-13" font-family="Helvetica,sans-Serif" font-size="10.00">SolutionOptions.h</text>
</a>
</g>
</g>
<!-- Node1&#45;&gt;Node15 -->
<g id="edge14" class="edge">
<title>Node1&#45;&gt;Node15</title>
<path fill="none" stroke="midnightblue" d="M1259.67,-75.67C1370.64,-74.3 1658.7,-67.22 1896,-31 1902.26,-30.05 1908.82,-28.76 1915.22,-27.35"/>
<polygon fill="midnightblue" stroke="midnightblue" points="1916.12,-30.73 1925.06,-25.05 1914.53,-23.91 1916.12,-30.73"/>
</g>
<!-- Node16 -->
<g id="node16" class="node">
<title>Node16</title>
<g id="a_node16"><a xlink:title=" ">
<polygon fill="white" stroke="#bfbfbf" points="2025.5,-6 2025.5,-25 2128.5,-25 2128.5,-6 2025.5,-6"/>
<text text-anchor="middle" x="2077" y="-13" font-family="Helvetica,sans-Serif" font-size="10.00">utils/StkHelpers.h</text>
</a>
</g>
</g>
<!-- Node1&#45;&gt;Node16 -->
<g id="edge15" class="edge">
<title>Node1&#45;&gt;Node16</title>
<path fill="none" stroke="midnightblue" d="M1259.52,-76.33C1383.42,-76.58 1731.4,-73.15 2017,-31 2023.33,-30.07 2029.97,-28.78 2036.44,-27.35"/>
<polygon fill="midnightblue" stroke="midnightblue" points="2037.44,-30.71 2046.38,-25.03 2035.84,-23.9 2037.44,-30.71"/>
</g>
<!-- Node17 -->
<g id="node17" class="node">
<title>Node17</title>
<g id="a_node17"><a xlink:title=" ">
<polygon fill="white" stroke="#bfbfbf" points="2147,-6 2147,-25 2307,-25 2307,-6 2147,-6"/>
<text text-anchor="middle" x="2227" y="-13" font-family="Helvetica,sans-Serif" font-size="10.00">stk_mesh/base/NgpMesh.hpp</text>
</a>
</g>
</g>
<!-- Node1&#45;&gt;Node17 -->
<g id="edge16" class="edge">
<title>Node1&#45;&gt;Node17</title>
<path fill="none" stroke="midnightblue" d="M1259.83,-75.59C1395.86,-73.99 1802.62,-66.36 2138,-31 2148.73,-29.87 2160.13,-28.3 2171.06,-26.6"/>
<polygon fill="midnightblue" stroke="midnightblue" points="2171.62,-30.06 2180.94,-25.02 2170.51,-23.14 2171.62,-30.06"/>
</g>
</g>
</svg>
