<?xml version="1.0" encoding="UTF-8" standalone="no"?>
<!DOCTYPE svg PUBLIC "-//W3C//DTD SVG 1.1//EN"
 "http://www.w3.org/Graphics/SVG/1.1/DTD/svg11.dtd">
<!-- Generated by graphviz version 2.43.0 (0)
 -->
<!-- Title: DataProbePostProcessing.C Pages: 1 -->
<svg width="3003pt" height="95pt"
 viewBox="0.00 0.00 3003.00 95.00" xmlns="http://www.w3.org/2000/svg" xmlns:xlink="http://www.w3.org/1999/xlink">
<g id="graph0" class="graph" transform="scale(1 1) rotate(0) translate(4 91)">
<title>DataProbePostProcessing.C</title>
<polygon fill="white" stroke="transparent" points="-4,4 -4,-91 2999,-91 2999,4 -4,4"/>
<!-- Node1 -->
<g id="node1" class="node">
<title>Node1</title>
<g id="a_node1"><a xlink:title=" ">
<polygon fill="#bfbfbf" stroke="black" points="1492.5,-67.5 1492.5,-86.5 1643.5,-86.5 1643.5,-67.5 1492.5,-67.5"/>
<text text-anchor="middle" x="1568" y="-74.5" font-family="Helvetica,sans-Serif" font-size="10.00">DataProbePostProcessing.C</text>
</a>
</g>
</g>
<!-- Node2 -->
<g id="node2" class="node">
<title>Node2</title>
<g id="a_node2"><a xlink:title=" ">
<polygon fill="white" stroke="#bfbfbf" points="0,-6 0,-25 150,-25 150,-6 0,-6"/>
<text text-anchor="middle" x="75" y="-13" font-family="Helvetica,sans-Serif" font-size="10.00">DataProbePostProcessing.h</text>
</a>
</g>
</g>
<!-- Node1&#45;&gt;Node2 -->
<g id="edge1" class="edge">
<title>Node1&#45;&gt;Node2</title>
<path fill="none" stroke="midnightblue" d="M1492.18,-74.97C1238.56,-71.31 421.05,-57.67 159,-31 148.84,-29.97 138.06,-28.44 127.72,-26.75"/>
<polygon fill="midnightblue" stroke="midnightblue" points="128.02,-23.25 117.57,-25.03 126.85,-30.15 128.02,-23.25"/>
</g>
<!-- Node3 -->
<g id="node3" class="node">
<title>Node3</title>
<g id="a_node3"><a xlink:title=" ">
<polygon fill="white" stroke="#bfbfbf" points="168,-6 168,-25 256,-25 256,-6 168,-6"/>
<text text-anchor="middle" x="212" y="-13" font-family="Helvetica,sans-Serif" font-size="10.00">FieldTypeDef.h</text>
</a>
</g>
</g>
<!-- Node1&#45;&gt;Node3 -->
<g id="edge2" class="edge">
<title>Node1&#45;&gt;Node3</title>
<path fill="none" stroke="midnightblue" d="M1492.36,-75.69C1251.47,-74.36 504.03,-67.32 265,-31 259.52,-30.17 253.79,-28.96 248.22,-27.6"/>
<polygon fill="midnightblue" stroke="midnightblue" points="248.99,-24.19 238.43,-25.03 247.21,-30.96 248.99,-24.19"/>
</g>
<!-- Node4 -->
<g id="node4" class="node">
<title>Node4</title>
<g id="a_node4"><a xlink:title=" ">
<polygon fill="white" stroke="#bfbfbf" points="274.5,-6 274.5,-25 357.5,-25 357.5,-6 274.5,-6"/>
<text text-anchor="middle" x="316" y="-13" font-family="Helvetica,sans-Serif" font-size="10.00">NaluParsing.h</text>
</a>
</g>
</g>
<!-- Node1&#45;&gt;Node4 -->
<g id="edge3" class="edge">
<title>Node1&#45;&gt;Node4</title>
<path fill="none" stroke="midnightblue" d="M1492.24,-75.59C1263.84,-73.95 584.28,-66.19 366,-31 361.07,-30.21 355.94,-29.08 350.93,-27.8"/>
<polygon fill="midnightblue" stroke="midnightblue" points="351.48,-24.32 340.91,-25.02 349.61,-31.07 351.48,-24.32"/>
</g>
<!-- Node5 -->
<g id="node5" class="node">
<title>Node5</title>
<g id="a_node5"><a xlink:title=" ">
<polygon fill="white" stroke="#bfbfbf" points="375.5,-6 375.5,-25 440.5,-25 440.5,-6 375.5,-6"/>
<text text-anchor="middle" x="408" y="-13" font-family="Helvetica,sans-Serif" font-size="10.00">NaluEnv.h</text>
</a>
</g>
</g>
<!-- Node1&#45;&gt;Node5 -->
<g id="edge4" class="edge">
<title>Node1&#45;&gt;Node5</title>
<path fill="none" stroke="midnightblue" d="M1492.4,-75.9C1274.78,-75.15 649.59,-69.59 449,-31 445.48,-30.32 441.86,-29.4 438.3,-28.34"/>
<polygon fill="midnightblue" stroke="midnightblue" points="439.12,-24.93 428.52,-25.11 436.92,-31.57 439.12,-24.93"/>
</g>
<!-- Node6 -->
<g id="node6" class="node">
<title>Node6</title>
<g id="a_node6"><a xlink:title=" ">
<polygon fill="white" stroke="#bfbfbf" points="458.5,-6 458.5,-25 515.5,-25 515.5,-6 458.5,-6"/>
<text text-anchor="middle" x="487" y="-13" font-family="Helvetica,sans-Serif" font-size="10.00">Realm.h</text>
</a>
</g>
</g>
<!-- Node1&#45;&gt;Node6 -->
<g id="edge5" class="edge">
<title>Node1&#45;&gt;Node6</title>
<path fill="none" stroke="midnightblue" d="M1492.34,-75.88C1284.83,-75.04 709.93,-69.22 525,-31 521.92,-30.36 518.76,-29.51 515.64,-28.53"/>
<polygon fill="midnightblue" stroke="midnightblue" points="516.57,-25.15 505.97,-25.11 514.23,-31.75 516.57,-25.15"/>
</g>
<!-- Node7 -->
<g id="node7" class="node">
<title>Node7</title>
<g id="a_node7"><a xlink:title=" ">
<polygon fill="white" stroke="#bfbfbf" points="534,-6 534,-25 612,-25 612,-6 534,-6"/>
<text text-anchor="middle" x="573" y="-13" font-family="Helvetica,sans-Serif" font-size="10.00">Simulation.h</text>
</a>
</g>
</g>
<!-- Node1&#45;&gt;Node7 -->
<g id="edge6" class="edge">
<title>Node1&#45;&gt;Node7</title>
<path fill="none" stroke="midnightblue" d="M1492.15,-74.8C1298.23,-71.34 787.87,-59.72 621,-31 616.44,-30.21 611.7,-29.13 607.05,-27.9"/>
<polygon fill="midnightblue" stroke="midnightblue" points="607.72,-24.45 597.14,-25.06 605.79,-31.18 607.72,-24.45"/>
</g>
<!-- Node8 -->
<g id="node8" class="node">
<title>Node8</title>
<g id="a_node8"><a xlink:title=" ">
<polygon fill="white" stroke="#bfbfbf" points="630,-6 630,-25 782,-25 782,-6 630,-6"/>
<text text-anchor="middle" x="706" y="-13" font-family="Helvetica,sans-Serif" font-size="10.00">stk_io/StkMeshIoBroker.hpp</text>
</a>
</g>
</g>
<!-- Node1&#45;&gt;Node8 -->
<g id="edge7" class="edge">
<title>Node1&#45;&gt;Node8</title>
<path fill="none" stroke="midnightblue" d="M1492.48,-74.41C1353.34,-70.87 1047.26,-60.19 791,-31 781.07,-29.87 770.54,-28.34 760.4,-26.7"/>
<polygon fill="midnightblue" stroke="midnightblue" points="760.86,-23.23 750.42,-25.04 759.71,-30.14 760.86,-23.23"/>
</g>
<!-- Node9 -->
<g id="node9" class="node">
<title>Node9</title>
<g id="a_node9"><a xlink:title=" ">
<polygon fill="white" stroke="#bfbfbf" points="800,-6 800,-25 886,-25 886,-6 800,-6"/>
<text text-anchor="middle" x="843" y="-13" font-family="Helvetica,sans-Serif" font-size="10.00">xfer/Transfer.h</text>
</a>
</g>
</g>
<!-- Node1&#45;&gt;Node9 -->
<g id="edge8" class="edge">
<title>Node1&#45;&gt;Node9</title>
<path fill="none" stroke="midnightblue" d="M1492.47,-75.98C1367.34,-74.82 1109.55,-67.69 895,-31 889.88,-30.12 884.53,-28.95 879.31,-27.64"/>
<polygon fill="midnightblue" stroke="midnightblue" points="880.05,-24.22 869.48,-25.01 878.24,-30.98 880.05,-24.22"/>
</g>
<!-- Node10 -->
<g id="node10" class="node">
<title>Node10</title>
<g id="a_node10"><a xlink:title=" ">
<polygon fill="white" stroke="#bfbfbf" points="904,-6 904,-25 996,-25 996,-6 904,-6"/>
<text text-anchor="middle" x="950" y="-13" font-family="Helvetica,sans-Serif" font-size="10.00">xfer/Transfers.h</text>
</a>
</g>
</g>
<!-- Node1&#45;&gt;Node10 -->
<g id="edge9" class="edge">
<title>Node1&#45;&gt;Node10</title>
<path fill="none" stroke="midnightblue" d="M1492.34,-74.22C1383.76,-70.71 1177.78,-60.44 1005,-31 999.52,-30.07 993.8,-28.84 988.2,-27.5"/>
<polygon fill="midnightblue" stroke="midnightblue" points="988.89,-24.07 978.33,-25 987.17,-30.85 988.89,-24.07"/>
</g>
<!-- Node11 -->
<g id="node11" class="node">
<title>Node11</title>
<g id="a_node11"><a xlink:title=" ">
<polygon fill="white" stroke="#bfbfbf" points="1014.5,-0.5 1014.5,-30.5 1145.5,-30.5 1145.5,-0.5 1014.5,-0.5"/>
<text text-anchor="start" x="1022.5" y="-18.5" font-family="Helvetica,sans-Serif" font-size="10.00">stk_util/parallel/Parallel</text>
<text text-anchor="middle" x="1080" y="-7.5" font-family="Helvetica,sans-Serif" font-size="10.00">Reduce.hpp</text>
</a>
</g>
</g>
<!-- Node1&#45;&gt;Node11 -->
<g id="edge10" class="edge">
<title>Node1&#45;&gt;Node11</title>
<path fill="none" stroke="midnightblue" d="M1492.2,-69.71C1411.19,-62.55 1278.79,-49.58 1155.7,-31.19"/>
<polygon fill="midnightblue" stroke="midnightblue" points="1156.13,-27.71 1145.72,-29.68 1155.08,-34.63 1156.13,-27.71"/>
</g>
<!-- Node12 -->
<g id="node12" class="node">
<title>Node12</title>
<g id="a_node12"><a xlink:title=" ">
<polygon fill="white" stroke="#bfbfbf" points="1163.5,-6 1163.5,-25 1322.5,-25 1322.5,-6 1163.5,-6"/>
<text text-anchor="middle" x="1243" y="-13" font-family="Helvetica,sans-Serif" font-size="10.00">stk_mesh/base/BulkData.hpp</text>
</a>
</g>
</g>
<!-- Node1&#45;&gt;Node12 -->
<g id="edge11" class="edge">
<title>Node1&#45;&gt;Node12</title>
<path fill="none" stroke="midnightblue" d="M1521.44,-67.48C1462.91,-56.76 1362.52,-38.38 1299.62,-26.87"/>
<polygon fill="midnightblue" stroke="midnightblue" points="1299.95,-23.37 1289.48,-25.01 1298.68,-30.25 1299.95,-23.37"/>
</g>
<!-- Node13 -->
<g id="node13" class="node">
<title>Node13</title>
<g id="a_node13"><a xlink:title=" ">
<polygon fill="white" stroke="#bfbfbf" points="1340.5,-6 1340.5,-25 1481.5,-25 1481.5,-6 1340.5,-6"/>
<text text-anchor="middle" x="1411" y="-13" font-family="Helvetica,sans-Serif" font-size="10.00">stk_mesh/base/Entity.hpp</text>
</a>
</g>
</g>
<!-- Node1&#45;&gt;Node13 -->
<g id="edge12" class="edge">
<title>Node1&#45;&gt;Node13</title>
<path fill="none" stroke="midnightblue" d="M1545.51,-67.48C1518.69,-57.31 1473.68,-40.26 1443.19,-28.7"/>
<polygon fill="midnightblue" stroke="midnightblue" points="1444.04,-25.28 1433.45,-25.01 1441.56,-31.83 1444.04,-25.28"/>
</g>
<!-- Node14 -->
<g id="node14" class="node">
<title>Node14</title>
<g id="a_node14"><a xlink:title=" ">
<polygon fill="white" stroke="#bfbfbf" points="1499.5,-6 1499.5,-25 1636.5,-25 1636.5,-6 1499.5,-6"/>
<text text-anchor="middle" x="1568" y="-13" font-family="Helvetica,sans-Serif" font-size="10.00">stk_mesh/base/Field.hpp</text>
</a>
</g>
</g>
<!-- Node1&#45;&gt;Node14 -->
<g id="edge13" class="edge">
<title>Node1&#45;&gt;Node14</title>
<path fill="none" stroke="midnightblue" d="M1568,-67.48C1568,-59.08 1568,-45.98 1568,-35.16"/>
<polygon fill="midnightblue" stroke="midnightblue" points="1571.5,-35.01 1568,-25.01 1564.5,-35.01 1571.5,-35.01"/>
</g>
<!-- Node15 -->
<g id="node15" class="node">
<title>Node15</title>
<g id="a_node15"><a xlink:title=" ">
<polygon fill="white" stroke="#bfbfbf" points="1655,-6 1655,-25 1825,-25 1825,-6 1655,-6"/>
<text text-anchor="middle" x="1740" y="-13" font-family="Helvetica,sans-Serif" font-size="10.00">stk_mesh/base/GetBuckets.hpp</text>
</a>
</g>
</g>
<!-- Node1&#45;&gt;Node15 -->
<g id="edge14" class="edge">
<title>Node1&#45;&gt;Node15</title>
<path fill="none" stroke="midnightblue" d="M1592.64,-67.48C1622.28,-57.22 1672.18,-39.96 1705.6,-28.4"/>
<polygon fill="midnightblue" stroke="midnightblue" points="1707.1,-31.59 1715.4,-25.01 1704.81,-24.97 1707.1,-31.59"/>
</g>
<!-- Node16 -->
<g id="node16" class="node">
<title>Node16</title>
<g id="a_node16"><a xlink:title=" ">
<polygon fill="white" stroke="#bfbfbf" points="1843.5,-6 1843.5,-25 1996.5,-25 1996.5,-6 1843.5,-6"/>
<text text-anchor="middle" x="1920" y="-13" font-family="Helvetica,sans-Serif" font-size="10.00">stk_mesh/base/Selector.hpp</text>
</a>
</g>
</g>
<!-- Node1&#45;&gt;Node16 -->
<g id="edge15" class="edge">
<title>Node1&#45;&gt;Node16</title>
<path fill="none" stroke="midnightblue" d="M1618.43,-67.48C1682.08,-56.72 1791.44,-38.23 1859.52,-26.72"/>
<polygon fill="midnightblue" stroke="midnightblue" points="1860.38,-30.13 1869.66,-25.01 1859.22,-23.22 1860.38,-30.13"/>
</g>
<!-- Node17 -->
<g id="node17" class="node">
<title>Node17</title>
<g id="a_node17"><a xlink:title=" ">
<polygon fill="white" stroke="#bfbfbf" points="2015,-6 2015,-25 2177,-25 2177,-6 2015,-6"/>
<text text-anchor="middle" x="2096" y="-13" font-family="Helvetica,sans-Serif" font-size="10.00">stk_mesh/base/MetaData.hpp</text>
</a>
</g>
</g>
<!-- Node1&#45;&gt;Node17 -->
<g id="edge16" class="edge">
<title>Node1&#45;&gt;Node17</title>
<path fill="none" stroke="midnightblue" d="M1643.72,-69.55C1731.16,-61.79 1879.25,-47.71 2006,-31 2015.77,-29.71 2026.11,-28.19 2036.16,-26.63"/>
<polygon fill="midnightblue" stroke="midnightblue" points="2036.76,-30.08 2046.09,-25.06 2035.67,-23.17 2036.76,-30.08"/>
</g>
<!-- Node18 -->
<g id="node18" class="node">
<title>Node18</title>
<g id="a_node18"><a xlink:title=" ">
<polygon fill="white" stroke="#bfbfbf" points="2195.5,-6 2195.5,-25 2328.5,-25 2328.5,-6 2195.5,-6"/>
<text text-anchor="middle" x="2262" y="-13" font-family="Helvetica,sans-Serif" font-size="10.00">stk_mesh/base/Part.hpp</text>
</a>
</g>
</g>
<!-- Node1&#45;&gt;Node18 -->
<g id="edge17" class="edge">
<title>Node1&#45;&gt;Node18</title>
<path fill="none" stroke="midnightblue" d="M1643.92,-73.31C1760.78,-68.52 1991.61,-56.53 2186,-31 2194.42,-29.89 2203.32,-28.45 2211.95,-26.9"/>
<polygon fill="midnightblue" stroke="midnightblue" points="2212.72,-30.32 2221.91,-25.05 2211.44,-23.44 2212.72,-30.32"/>
</g>
<!-- Node19 -->
<g id="node19" class="node">
<title>Node19</title>
<g id="a_node19"><a xlink:title=" ">
<polygon fill="white" stroke="#bfbfbf" points="2346.5,-6 2346.5,-25 2467.5,-25 2467.5,-6 2346.5,-6"/>
<text text-anchor="middle" x="2407" y="-13" font-family="Helvetica,sans-Serif" font-size="10.00">stk_io/IossBridge.hpp</text>
</a>
</g>
</g>
<!-- Node1&#45;&gt;Node19 -->
<g id="edge18" class="edge">
<title>Node1&#45;&gt;Node19</title>
<path fill="none" stroke="midnightblue" d="M1643.77,-75.3C1782.23,-73.2 2085.15,-64.77 2338,-31 2345.59,-29.99 2353.6,-28.6 2361.36,-27.09"/>
<polygon fill="midnightblue" stroke="midnightblue" points="2362.27,-30.47 2371.36,-25.04 2360.86,-23.62 2362.27,-30.47"/>
</g>
<!-- Node20 -->
<g id="node20" class="node">
<title>Node20</title>
<g id="a_node20"><a xlink:title=" ">
<polygon fill="white" stroke="#bfbfbf" points="2485.5,-6 2485.5,-25 2550.5,-25 2550.5,-6 2485.5,-6"/>
<text text-anchor="middle" x="2518" y="-13" font-family="Helvetica,sans-Serif" font-size="10.00">stdexcept</text>
</a>
</g>
</g>
<!-- Node1&#45;&gt;Node20 -->
<g id="edge19" class="edge">
<title>Node1&#45;&gt;Node20</title>
<path fill="none" stroke="midnightblue" d="M1643.63,-75.07C1831.98,-72.32 2318.3,-62.3 2477,-31 2480.51,-30.31 2484.13,-29.37 2487.7,-28.31"/>
<polygon fill="midnightblue" stroke="midnightblue" points="2489.08,-31.54 2497.47,-25.07 2486.88,-24.9 2489.08,-31.54"/>
</g>
<!-- Node21 -->
<g id="node21" class="node">
<title>Node21</title>
<g id="a_node21"><a xlink:title=" ">
<polygon fill="white" stroke="#bfbfbf" points="2569,-6 2569,-25 2613,-25 2613,-6 2569,-6"/>
<text text-anchor="middle" x="2591" y="-13" font-family="Helvetica,sans-Serif" font-size="10.00">string</text>
</a>
</g>
</g>
<!-- Node1&#45;&gt;Node21 -->
<g id="edge20" class="edge">
<title>Node1&#45;&gt;Node21</title>
<path fill="none" stroke="midnightblue" d="M1643.71,-76.37C1844.43,-76.76 2386.64,-73.69 2560,-31 2561.99,-30.51 2564.01,-29.89 2566.01,-29.18"/>
<polygon fill="midnightblue" stroke="midnightblue" points="2567.81,-32.22 2575.67,-25.12 2565.09,-25.77 2567.81,-32.22"/>
</g>
<!-- Node22 -->
<g id="node22" class="node">
<title>Node22</title>
<g id="a_node22"><a xlink:title=" ">
<polygon fill="white" stroke="#bfbfbf" points="2631.5,-6 2631.5,-25 2686.5,-25 2686.5,-6 2631.5,-6"/>
<text text-anchor="middle" x="2659" y="-13" font-family="Helvetica,sans-Serif" font-size="10.00">fstream</text>
</a>
</g>
</g>
<!-- Node1&#45;&gt;Node22 -->
<g id="edge21" class="edge">
<title>Node1&#45;&gt;Node22</title>
<path fill="none" stroke="midnightblue" d="M1643.72,-76C1852.82,-75.49 2435.07,-70.47 2622,-31 2625.01,-30.36 2628.09,-29.51 2631.13,-28.54"/>
<polygon fill="midnightblue" stroke="midnightblue" points="2632.34,-31.82 2640.55,-25.11 2629.95,-25.24 2632.34,-31.82"/>
</g>
<!-- Node23 -->
<g id="node23" class="node">
<title>Node23</title>
<g id="a_node23"><a xlink:title=" ">
<polygon fill="white" stroke="#bfbfbf" points="2705,-6 2705,-25 2761,-25 2761,-6 2705,-6"/>
<text text-anchor="middle" x="2733" y="-13" font-family="Helvetica,sans-Serif" font-size="10.00">iomanip</text>
</a>
</g>
</g>
<!-- Node1&#45;&gt;Node23 -->
<g id="edge22" class="edge">
<title>Node1&#45;&gt;Node23</title>
<path fill="none" stroke="midnightblue" d="M1643.88,-76.25C1863.07,-76.47 2494.35,-73.28 2696,-31 2699.01,-30.37 2702.09,-29.52 2705.13,-28.54"/>
<polygon fill="midnightblue" stroke="midnightblue" points="2706.34,-31.83 2714.55,-25.12 2703.96,-25.25 2706.34,-31.83"/>
</g>
<!-- Node24 -->
<g id="node24" class="node">
<title>Node24</title>
<g id="a_node24"><a xlink:title=" ">
<polygon fill="white" stroke="#bfbfbf" points="2779,-6 2779,-25 2843,-25 2843,-6 2779,-6"/>
<text text-anchor="middle" x="2811" y="-13" font-family="Helvetica,sans-Serif" font-size="10.00">algorithm</text>
</a>
</g>
</g>
<!-- Node1&#45;&gt;Node24 -->
<g id="edge23" class="edge">
<title>Node1&#45;&gt;Node24</title>
<path fill="none" stroke="midnightblue" d="M1643.86,-76.15C1872.55,-76.12 2552.83,-72.47 2770,-31 2773.52,-30.33 2777.14,-29.41 2780.71,-28.35"/>
<polygon fill="midnightblue" stroke="midnightblue" points="2782.08,-31.58 2790.48,-25.12 2779.89,-24.94 2782.08,-31.58"/>
</g>
<!-- Node25 -->
<g id="node25" class="node">
<title>Node25</title>
<g id="a_node25"><a xlink:title=" ">
<polygon fill="white" stroke="#bfbfbf" points="2861,-6 2861,-25 2917,-25 2917,-6 2861,-6"/>
<text text-anchor="middle" x="2889" y="-13" font-family="Helvetica,sans-Serif" font-size="10.00">sstream</text>
</a>
</g>
</g>
<!-- Node1&#45;&gt;Node25 -->
<g id="edge24" class="edge">
<title>Node1&#45;&gt;Node25</title>
<path fill="none" stroke="midnightblue" d="M1643.61,-74.84C1901.04,-70.67 2734.06,-55.43 2852,-31 2855.01,-30.38 2858.09,-29.53 2861.13,-28.56"/>
<polygon fill="midnightblue" stroke="midnightblue" points="2862.35,-31.84 2870.55,-25.14 2859.96,-25.26 2862.35,-31.84"/>
</g>
<!-- Node26 -->
<g id="node26" class="node">
<title>Node26</title>
<g id="a_node26"><a xlink:title=" ">
<polygon fill="white" stroke="#bfbfbf" points="2935,-6 2935,-25 2995,-25 2995,-6 2935,-6"/>
<text text-anchor="middle" x="2965" y="-13" font-family="Helvetica,sans-Serif" font-size="10.00">iostream</text>
</a>
</g>
</g>
<!-- Node1&#45;&gt;Node26 -->
<g id="edge25" class="edge">
<title>Node1&#45;&gt;Node26</title>
<path fill="none" stroke="midnightblue" d="M1643.74,-74.91C1910.97,-70.89 2800.37,-55.75 2926,-31 2929.26,-30.36 2932.61,-29.48 2935.91,-28.47"/>
<polygon fill="midnightblue" stroke="midnightblue" points="2937.21,-31.72 2945.52,-25.15 2934.92,-25.1 2937.21,-31.72"/>
</g>
</g>
</svg>
