<?xml version="1.0" encoding="UTF-8" standalone="no"?>
<!DOCTYPE svg PUBLIC "-//W3C//DTD SVG 1.1//EN"
 "http://www.w3.org/Graphics/SVG/1.1/DTD/svg11.dtd">
<!-- Generated by graphviz version 2.43.0 (0)
 -->
<!-- Title: DynamicPressureOpenAlg.C Pages: 1 -->
<svg width="2609pt" height="95pt"
 viewBox="0.00 0.00 2608.50 95.00" xmlns="http://www.w3.org/2000/svg" xmlns:xlink="http://www.w3.org/1999/xlink">
<g id="graph0" class="graph" transform="scale(1 1) rotate(0) translate(4 91)">
<title>DynamicPressureOpenAlg.C</title>
<polygon fill="white" stroke="transparent" points="-4,4 -4,-91 2604.5,-91 2604.5,4 -4,4"/>
<!-- Node1 -->
<g id="node1" class="node">
<title>Node1</title>
<g id="a_node1"><a xlink:title=" ">
<polygon fill="#bfbfbf" stroke="black" points="1348.5,-67.5 1348.5,-86.5 1501.5,-86.5 1501.5,-67.5 1348.5,-67.5"/>
<text text-anchor="middle" x="1425" y="-74.5" font-family="Helvetica,sans-Serif" font-size="10.00">DynamicPressureOpenAlg.C</text>
</a>
</g>
</g>
<!-- Node2 -->
<g id="node2" class="node">
<title>Node2</title>
<g id="a_node2"><a xlink:title=" ">
<polygon fill="white" stroke="#bfbfbf" points="0,-6 0,-25 94,-25 94,-6 0,-6"/>
<text text-anchor="middle" x="47" y="-13" font-family="Helvetica,sans-Serif" font-size="10.00">SimdInterface.h</text>
</a>
</g>
</g>
<!-- Node1&#45;&gt;Node2 -->
<g id="edge1" class="edge">
<title>Node1&#45;&gt;Node2</title>
<path fill="none" stroke="midnightblue" d="M1348.28,-75.6C1103.94,-73.96 345.76,-66.13 103,-31 97.08,-30.14 90.88,-28.9 84.85,-27.5"/>
<polygon fill="midnightblue" stroke="midnightblue" points="85.51,-24.05 74.96,-25.02 83.81,-30.84 85.51,-24.05"/>
</g>
<!-- Node3 -->
<g id="node3" class="node">
<title>Node3</title>
<g id="a_node3"><a xlink:title=" ">
<polygon fill="white" stroke="#bfbfbf" points="112.5,-0.5 112.5,-30.5 293.5,-30.5 293.5,-0.5 112.5,-0.5"/>
<text text-anchor="start" x="120.5" y="-18.5" font-family="Helvetica,sans-Serif" font-size="10.00">ngp_algorithms/DynamicPressure</text>
<text text-anchor="middle" x="203" y="-7.5" font-family="Helvetica,sans-Serif" font-size="10.00">OpenAlg.h</text>
</a>
</g>
</g>
<!-- Node1&#45;&gt;Node3 -->
<g id="edge2" class="edge">
<title>Node1&#45;&gt;Node3</title>
<path fill="none" stroke="midnightblue" d="M1348.23,-75.71C1167.69,-74.42 702.02,-67.59 303.58,-31.08"/>
<polygon fill="midnightblue" stroke="midnightblue" points="303.87,-27.59 293.59,-30.16 303.23,-34.56 303.87,-27.59"/>
</g>
<!-- Node4 -->
<g id="node4" class="node">
<title>Node4</title>
<g id="a_node4"><a xlink:title=" ">
<polygon fill="white" stroke="#bfbfbf" points="311.5,-6 311.5,-25 412.5,-25 412.5,-6 311.5,-6"/>
<text text-anchor="middle" x="362" y="-13" font-family="Helvetica,sans-Serif" font-size="10.00">BuildTemplates.h</text>
</a>
</g>
</g>
<!-- Node1&#45;&gt;Node4 -->
<g id="edge3" class="edge">
<title>Node1&#45;&gt;Node4</title>
<path fill="none" stroke="midnightblue" d="M1348.38,-74.51C1145.87,-70.27 599.75,-56.72 421,-31 414.7,-30.09 408.08,-28.81 401.66,-27.37"/>
<polygon fill="midnightblue" stroke="midnightblue" points="402.33,-23.93 391.79,-25.03 400.71,-30.74 402.33,-23.93"/>
</g>
<!-- Node5 -->
<g id="node5" class="node">
<title>Node5</title>
<g id="a_node5"><a xlink:title=" ">
<polygon fill="white" stroke="#bfbfbf" points="430.5,-6 430.5,-25 613.5,-25 613.5,-6 430.5,-6"/>
<text text-anchor="middle" x="522" y="-13" font-family="Helvetica,sans-Serif" font-size="10.00">master_element/MasterElement.h</text>
</a>
</g>
</g>
<!-- Node1&#45;&gt;Node5 -->
<g id="edge4" class="edge">
<title>Node1&#45;&gt;Node5</title>
<path fill="none" stroke="midnightblue" d="M1348.25,-73.9C1205.27,-69.51 888.57,-57.46 623,-31 610.69,-29.77 597.58,-28.14 585.02,-26.41"/>
<polygon fill="midnightblue" stroke="midnightblue" points="585.49,-22.94 575.1,-25 584.51,-29.87 585.49,-22.94"/>
</g>
<!-- Node6 -->
<g id="node6" class="node">
<title>Node6</title>
<g id="a_node6"><a xlink:title=" ">
<polygon fill="white" stroke="#bfbfbf" points="632,-0.5 632,-30.5 806,-30.5 806,-0.5 632,-0.5"/>
<text text-anchor="start" x="640" y="-18.5" font-family="Helvetica,sans-Serif" font-size="10.00">master_element/MasterElement</text>
<text text-anchor="middle" x="719" y="-7.5" font-family="Helvetica,sans-Serif" font-size="10.00">Repo.h</text>
</a>
</g>
</g>
<!-- Node1&#45;&gt;Node6 -->
<g id="edge5" class="edge">
<title>Node1&#45;&gt;Node6</title>
<path fill="none" stroke="midnightblue" d="M1348.27,-72.22C1234.4,-66.2 1013.75,-52.92 816.07,-31.06"/>
<polygon fill="midnightblue" stroke="midnightblue" points="816.41,-27.58 806.08,-29.95 815.63,-34.54 816.41,-27.58"/>
</g>
<!-- Node7 -->
<g id="node7" class="node">
<title>Node7</title>
<g id="a_node7"><a xlink:title=" ">
<polygon fill="white" stroke="#bfbfbf" points="824,-6 824,-25 998,-25 998,-6 824,-6"/>
<text text-anchor="middle" x="911" y="-13" font-family="Helvetica,sans-Serif" font-size="10.00">ngp_algorithms/MdotAlgDriver.h</text>
</a>
</g>
</g>
<!-- Node1&#45;&gt;Node7 -->
<g id="edge6" class="edge">
<title>Node1&#45;&gt;Node7</title>
<path fill="none" stroke="midnightblue" d="M1348.23,-68.73C1264.29,-60.54 1125.89,-46.37 1007,-31 996.61,-29.66 985.61,-28.11 974.91,-26.54"/>
<polygon fill="midnightblue" stroke="midnightblue" points="975.17,-23.04 964.76,-25.03 974.14,-29.97 975.17,-23.04"/>
</g>
<!-- Node8 -->
<g id="node8" class="node">
<title>Node8</title>
<g id="a_node8"><a xlink:title=" ">
<polygon fill="white" stroke="#bfbfbf" points="1016.5,-6 1016.5,-25 1185.5,-25 1185.5,-6 1016.5,-6"/>
<text text-anchor="middle" x="1101" y="-13" font-family="Helvetica,sans-Serif" font-size="10.00">ngp_algorithms/NgpAlgDriver.h</text>
</a>
</g>
</g>
<!-- Node1&#45;&gt;Node8 -->
<g id="edge7" class="edge">
<title>Node1&#45;&gt;Node8</title>
<path fill="none" stroke="midnightblue" d="M1378.58,-67.48C1320.23,-56.76 1220.16,-38.38 1157.45,-26.87"/>
<polygon fill="midnightblue" stroke="midnightblue" points="1157.8,-23.37 1147.34,-25.01 1156.54,-30.26 1157.8,-23.37"/>
</g>
<!-- Node9 -->
<g id="node9" class="node">
<title>Node9</title>
<g id="a_node9"><a xlink:title=" ">
<polygon fill="white" stroke="#bfbfbf" points="1204,-6 1204,-25 1338,-25 1338,-6 1204,-6"/>
<text text-anchor="middle" x="1271" y="-13" font-family="Helvetica,sans-Serif" font-size="10.00">ngp_utils/NgpFieldOps.h</text>
</a>
</g>
</g>
<!-- Node1&#45;&gt;Node9 -->
<g id="edge8" class="edge">
<title>Node1&#45;&gt;Node9</title>
<path fill="none" stroke="midnightblue" d="M1402.94,-67.48C1376.63,-57.31 1332.49,-40.26 1302.58,-28.7"/>
<polygon fill="midnightblue" stroke="midnightblue" points="1303.61,-25.35 1293.02,-25.01 1301.09,-31.88 1303.61,-25.35"/>
</g>
<!-- Node10 -->
<g id="node10" class="node">
<title>Node10</title>
<g id="a_node10"><a xlink:title=" ">
<polygon fill="white" stroke="#bfbfbf" points="1356,-6 1356,-25 1494,-25 1494,-6 1356,-6"/>
<text text-anchor="middle" x="1425" y="-13" font-family="Helvetica,sans-Serif" font-size="10.00">ngp_utils/NgpLoopUtils.h</text>
</a>
</g>
</g>
<!-- Node1&#45;&gt;Node10 -->
<g id="edge9" class="edge">
<title>Node1&#45;&gt;Node10</title>
<path fill="none" stroke="midnightblue" d="M1425,-67.48C1425,-59.08 1425,-45.98 1425,-35.16"/>
<polygon fill="midnightblue" stroke="midnightblue" points="1428.5,-35.01 1425,-25.01 1421.5,-35.01 1428.5,-35.01"/>
</g>
<!-- Node11 -->
<g id="node11" class="node">
<title>Node11</title>
<g id="a_node11"><a xlink:title=" ">
<polygon fill="white" stroke="#bfbfbf" points="1512,-6 1512,-25 1670,-25 1670,-6 1512,-6"/>
<text text-anchor="middle" x="1591" y="-13" font-family="Helvetica,sans-Serif" font-size="10.00">ngp_utils/NgpFieldManager.h</text>
</a>
</g>
</g>
<!-- Node1&#45;&gt;Node11 -->
<g id="edge10" class="edge">
<title>Node1&#45;&gt;Node11</title>
<path fill="none" stroke="midnightblue" d="M1448.78,-67.48C1477.38,-57.22 1525.55,-39.96 1557.8,-28.4"/>
<polygon fill="midnightblue" stroke="midnightblue" points="1559.03,-31.68 1567.26,-25.01 1556.67,-25.09 1559.03,-31.68"/>
</g>
<!-- Node12 -->
<g id="node12" class="node">
<title>Node12</title>
<g id="a_node12"><a xlink:title=" ">
<polygon fill="white" stroke="#bfbfbf" points="1687.5,-6 1687.5,-25 1744.5,-25 1744.5,-6 1687.5,-6"/>
<text text-anchor="middle" x="1716" y="-13" font-family="Helvetica,sans-Serif" font-size="10.00">Realm.h</text>
</a>
</g>
</g>
<!-- Node1&#45;&gt;Node12 -->
<g id="edge11" class="edge">
<title>Node1&#45;&gt;Node12</title>
<path fill="none" stroke="midnightblue" d="M1494.56,-67.47C1546.08,-60.24 1617.68,-48.26 1679,-31 1681.59,-30.27 1684.25,-29.43 1686.89,-28.52"/>
<polygon fill="midnightblue" stroke="midnightblue" points="1688.11,-31.81 1696.28,-25.06 1685.68,-25.24 1688.11,-31.81"/>
</g>
<!-- Node13 -->
<g id="node13" class="node">
<title>Node13</title>
<g id="a_node13"><a xlink:title=" ">
<polygon fill="white" stroke="#bfbfbf" points="1762.5,-6 1762.5,-25 1853.5,-25 1853.5,-6 1762.5,-6"/>
<text text-anchor="middle" x="1808" y="-13" font-family="Helvetica,sans-Serif" font-size="10.00">ScratchViews.h</text>
</a>
</g>
</g>
<!-- Node1&#45;&gt;Node13 -->
<g id="edge12" class="edge">
<title>Node1&#45;&gt;Node13</title>
<path fill="none" stroke="midnightblue" d="M1501.58,-68.3C1568.55,-60.91 1668.25,-48.31 1754,-31 1758.99,-29.99 1764.19,-28.79 1769.32,-27.52"/>
<polygon fill="midnightblue" stroke="midnightblue" points="1770.21,-30.9 1779.01,-25.01 1768.46,-24.13 1770.21,-30.9"/>
</g>
<!-- Node14 -->
<g id="node14" class="node">
<title>Node14</title>
<g id="a_node14"><a xlink:title=" ">
<polygon fill="white" stroke="#bfbfbf" points="1871.5,-6 1871.5,-25 1974.5,-25 1974.5,-6 1871.5,-6"/>
<text text-anchor="middle" x="1923" y="-13" font-family="Helvetica,sans-Serif" font-size="10.00">SolutionOptions.h</text>
</a>
</g>
</g>
<!-- Node1&#45;&gt;Node14 -->
<g id="edge13" class="edge">
<title>Node1&#45;&gt;Node14</title>
<path fill="none" stroke="midnightblue" d="M1501.78,-71.26C1589.56,-65.11 1737.37,-52.53 1863,-31 1868.89,-29.99 1875.05,-28.73 1881.1,-27.38"/>
<polygon fill="midnightblue" stroke="midnightblue" points="1882.15,-30.73 1891.09,-25.06 1880.56,-23.92 1882.15,-30.73"/>
</g>
<!-- Node15 -->
<g id="node15" class="node">
<title>Node15</title>
<g id="a_node15"><a xlink:title=" ">
<polygon fill="white" stroke="#bfbfbf" points="1992.5,-6 1992.5,-25 2095.5,-25 2095.5,-6 1992.5,-6"/>
<text text-anchor="middle" x="2044" y="-13" font-family="Helvetica,sans-Serif" font-size="10.00">utils/StkHelpers.h</text>
</a>
</g>
</g>
<!-- Node1&#45;&gt;Node15 -->
<g id="edge14" class="edge">
<title>Node1&#45;&gt;Node15</title>
<path fill="none" stroke="midnightblue" d="M1501.86,-73.62C1610.04,-69.42 1813.11,-58.35 1984,-31 1990.18,-30.01 1996.66,-28.72 2002.99,-27.31"/>
<polygon fill="midnightblue" stroke="midnightblue" points="2003.79,-30.72 2012.74,-25.04 2002.2,-23.9 2003.79,-30.72"/>
</g>
<!-- Node16 -->
<g id="node16" class="node">
<title>Node16</title>
<g id="a_node16"><a xlink:title=" ">
<polygon fill="white" stroke="#bfbfbf" points="2114,-6 2114,-25 2274,-25 2274,-6 2114,-6"/>
<text text-anchor="middle" x="2194" y="-13" font-family="Helvetica,sans-Serif" font-size="10.00">stk_mesh/base/NgpMesh.hpp</text>
</a>
</g>
</g>
<!-- Node1&#45;&gt;Node16 -->
<g id="edge15" class="edge">
<title>Node1&#45;&gt;Node16</title>
<path fill="none" stroke="midnightblue" d="M1501.7,-73.31C1627.86,-68.35 1886.95,-55.92 2105,-31 2115.37,-29.81 2126.38,-28.26 2136.99,-26.62"/>
<polygon fill="midnightblue" stroke="midnightblue" points="2137.68,-30.05 2147,-25.02 2136.58,-23.14 2137.68,-30.05"/>
</g>
<!-- Node17 -->
<g id="node17" class="node">
<title>Node17</title>
<g id="a_node17"><a xlink:title=" ">
<polygon fill="white" stroke="#bfbfbf" points="2292.5,-6 2292.5,-25 2419.5,-25 2419.5,-6 2292.5,-6"/>
<text text-anchor="middle" x="2356" y="-13" font-family="Helvetica,sans-Serif" font-size="10.00">stk_math/StkMath.hpp</text>
</a>
</g>
</g>
<!-- Node1&#45;&gt;Node17 -->
<g id="edge16" class="edge">
<title>Node1&#45;&gt;Node17</title>
<path fill="none" stroke="midnightblue" d="M1501.65,-75.66C1652.07,-74.19 1996.22,-66.81 2283,-31 2291.2,-29.98 2299.87,-28.56 2308.25,-27.01"/>
<polygon fill="midnightblue" stroke="midnightblue" points="2309.13,-30.4 2318.28,-25.07 2307.8,-23.53 2309.13,-30.4"/>
</g>
<!-- Node18 -->
<g id="node18" class="node">
<title>Node18</title>
<g id="a_node18"><a xlink:title=" ">
<polygon fill="white" stroke="#bfbfbf" points="2437.5,-6 2437.5,-25 2600.5,-25 2600.5,-6 2437.5,-6"/>
<text text-anchor="middle" x="2519" y="-13" font-family="Helvetica,sans-Serif" font-size="10.00">stk_mesh/base/FieldState.hpp</text>
</a>
</g>
</g>
<!-- Node1&#45;&gt;Node18 -->
<g id="edge17" class="edge">
<title>Node1&#45;&gt;Node18</title>
<path fill="none" stroke="midnightblue" d="M1501.74,-75.56C1670.07,-73.95 2084.25,-66.38 2429,-31 2439.85,-29.89 2451.38,-28.32 2462.43,-26.63"/>
<polygon fill="midnightblue" stroke="midnightblue" points="2463.09,-30.07 2472.42,-25.05 2462,-23.16 2463.09,-30.07"/>
</g>
</g>
</svg>
