<?xml version="1.0" encoding="UTF-8" standalone="no"?>
<!DOCTYPE svg PUBLIC "-//W3C//DTD SVG 1.1//EN"
 "http://www.w3.org/Graphics/SVG/1.1/DTD/svg11.dtd">
<!-- Generated by graphviz version 2.43.0 (0)
 -->
<!-- Title: Edge22DCVFEM.C Pages: 1 -->
<svg width="1503pt" height="95pt"
 viewBox="0.00 0.00 1502.50 95.00" xmlns="http://www.w3.org/2000/svg" xmlns:xlink="http://www.w3.org/1999/xlink">
<g id="graph0" class="graph" transform="scale(1 1) rotate(0) translate(4 91)">
<title>Edge22DCVFEM.C</title>
<polygon fill="white" stroke="transparent" points="-4,4 -4,-91 1498.5,-91 1498.5,4 -4,4"/>
<!-- Node1 -->
<g id="node1" class="node">
<title>Node1</title>
<g id="a_node1"><a xlink:title=" ">
<polygon fill="#bfbfbf" stroke="black" points="971.5,-67.5 971.5,-86.5 1075.5,-86.5 1075.5,-67.5 971.5,-67.5"/>
<text text-anchor="middle" x="1023.5" y="-74.5" font-family="Helvetica,sans-Serif" font-size="10.00">Edge22DCVFEM.C</text>
</a>
</g>
</g>
<!-- Node2 -->
<g id="node2" class="node">
<title>Node2</title>
<g id="a_node2"><a xlink:title=" ">
<polygon fill="white" stroke="#bfbfbf" points="0,-6 0,-25 187,-25 187,-6 0,-6"/>
<text text-anchor="middle" x="93.5" y="-13" font-family="Helvetica,sans-Serif" font-size="10.00">master_element/Edge22DCVFEM.h</text>
</a>
</g>
</g>
<!-- Node1&#45;&gt;Node2 -->
<g id="edge1" class="edge">
<title>Node1&#45;&gt;Node2</title>
<path fill="none" stroke="midnightblue" d="M971.07,-74.73C840.03,-71.22 487.78,-59.66 195.5,-31 183.07,-29.78 169.83,-28.15 157.15,-26.42"/>
<polygon fill="midnightblue" stroke="midnightblue" points="157.51,-22.93 147.13,-25.02 156.54,-29.87 157.51,-22.93"/>
</g>
<!-- Node3 -->
<g id="node3" class="node">
<title>Node3</title>
<g id="a_node3"><a xlink:title=" ">
<polygon fill="white" stroke="#bfbfbf" points="205,-6 205,-25 388,-25 388,-6 205,-6"/>
<text text-anchor="middle" x="296.5" y="-13" font-family="Helvetica,sans-Serif" font-size="10.00">master_element/MasterElement.h</text>
</a>
</g>
</g>
<!-- Node1&#45;&gt;Node3 -->
<g id="edge2" class="edge">
<title>Node1&#45;&gt;Node3</title>
<path fill="none" stroke="midnightblue" d="M971.45,-73.51C863.98,-68.09 609.84,-53.85 397.5,-31 385.67,-29.73 373.09,-28.12 360.97,-26.45"/>
<polygon fill="midnightblue" stroke="midnightblue" points="361.32,-22.96 350.92,-25.03 360.34,-29.9 361.32,-22.96"/>
</g>
<!-- Node4 -->
<g id="node4" class="node">
<title>Node4</title>
<g id="a_node4"><a xlink:title=" ">
<polygon fill="white" stroke="#bfbfbf" points="406.5,-0.5 406.5,-30.5 580.5,-30.5 580.5,-0.5 406.5,-0.5"/>
<text text-anchor="start" x="414.5" y="-18.5" font-family="Helvetica,sans-Serif" font-size="10.00">master_element/MasterElement</text>
<text text-anchor="middle" x="493.5" y="-7.5" font-family="Helvetica,sans-Serif" font-size="10.00">Functions.h</text>
</a>
</g>
</g>
<!-- Node1&#45;&gt;Node4 -->
<g id="edge3" class="edge">
<title>Node1&#45;&gt;Node4</title>
<path fill="none" stroke="midnightblue" d="M971.3,-71.38C891.61,-64.15 734.6,-49.23 590.92,-31.14"/>
<polygon fill="midnightblue" stroke="midnightblue" points="590.96,-27.62 580.6,-29.84 590.08,-34.57 590.96,-27.62"/>
</g>
<!-- Node5 -->
<g id="node5" class="node">
<title>Node5</title>
<g id="a_node5"><a xlink:title=" ">
<polygon fill="white" stroke="#bfbfbf" points="598.5,-6 598.5,-25 666.5,-25 666.5,-6 598.5,-6"/>
<text text-anchor="middle" x="632.5" y="-13" font-family="Helvetica,sans-Serif" font-size="10.00">AlgTraits.h</text>
</a>
</g>
</g>
<!-- Node1&#45;&gt;Node5 -->
<g id="edge4" class="edge">
<title>Node1&#45;&gt;Node5</title>
<path fill="none" stroke="midnightblue" d="M971.34,-72.47C902.79,-67.1 778.93,-54.88 675.5,-31 672.02,-30.2 668.42,-29.22 664.85,-28.16"/>
<polygon fill="midnightblue" stroke="midnightblue" points="665.61,-24.73 655.02,-25.02 663.48,-31.4 665.61,-24.73"/>
</g>
<!-- Node6 -->
<g id="node6" class="node">
<title>Node6</title>
<g id="a_node6"><a xlink:title=" ">
<polygon fill="white" stroke="#bfbfbf" points="685,-6 685,-25 750,-25 750,-6 685,-6"/>
<text text-anchor="middle" x="717.5" y="-13" font-family="Helvetica,sans-Serif" font-size="10.00">NaluEnv.h</text>
</a>
</g>
</g>
<!-- Node1&#45;&gt;Node6 -->
<g id="edge5" class="edge">
<title>Node1&#45;&gt;Node6</title>
<path fill="none" stroke="midnightblue" d="M971.4,-69.84C917.55,-62.85 831.33,-49.91 758.5,-31 755.46,-30.21 752.32,-29.29 749.19,-28.31"/>
<polygon fill="midnightblue" stroke="midnightblue" points="750.01,-24.89 739.41,-25.03 747.78,-31.53 750.01,-24.89"/>
</g>
<!-- Node7 -->
<g id="node7" class="node">
<title>Node7</title>
<g id="a_node7"><a xlink:title=" ">
<polygon fill="white" stroke="#bfbfbf" points="768,-6 768,-25 933,-25 933,-6 768,-6"/>
<text text-anchor="middle" x="850.5" y="-13" font-family="Helvetica,sans-Serif" font-size="10.00">stk_util/util/ReportHandler.hpp</text>
</a>
</g>
</g>
<!-- Node1&#45;&gt;Node7 -->
<g id="edge6" class="edge">
<title>Node1&#45;&gt;Node7</title>
<path fill="none" stroke="midnightblue" d="M998.71,-67.48C968.91,-57.22 918.71,-39.96 885.1,-28.4"/>
<polygon fill="midnightblue" stroke="midnightblue" points="885.84,-24.95 875.24,-25.01 883.56,-31.57 885.84,-24.95"/>
</g>
<!-- Node8 -->
<g id="node8" class="node">
<title>Node8</title>
<g id="a_node8"><a xlink:title=" ">
<polygon fill="white" stroke="#bfbfbf" points="951,-6 951,-25 1096,-25 1096,-6 951,-6"/>
<text text-anchor="middle" x="1023.5" y="-13" font-family="Helvetica,sans-Serif" font-size="10.00">stk_topology/topology.hpp</text>
</a>
</g>
</g>
<!-- Node1&#45;&gt;Node8 -->
<g id="edge7" class="edge">
<title>Node1&#45;&gt;Node8</title>
<path fill="none" stroke="midnightblue" d="M1023.5,-67.48C1023.5,-59.08 1023.5,-45.98 1023.5,-35.16"/>
<polygon fill="midnightblue" stroke="midnightblue" points="1027,-35.01 1023.5,-25.01 1020,-35.01 1027,-35.01"/>
</g>
<!-- Node9 -->
<g id="node9" class="node">
<title>Node9</title>
<g id="a_node9"><a xlink:title=" ">
<polygon fill="white" stroke="#bfbfbf" points="1114.5,-6 1114.5,-25 1174.5,-25 1174.5,-6 1114.5,-6"/>
<text text-anchor="middle" x="1144.5" y="-13" font-family="Helvetica,sans-Serif" font-size="10.00">iostream</text>
</a>
</g>
</g>
<!-- Node1&#45;&gt;Node9 -->
<g id="edge8" class="edge">
<title>Node1&#45;&gt;Node9</title>
<path fill="none" stroke="midnightblue" d="M1040.84,-67.48C1061.05,-57.53 1094.69,-40.99 1118.14,-29.46"/>
<polygon fill="midnightblue" stroke="midnightblue" points="1119.77,-32.56 1127.2,-25.01 1116.68,-26.28 1119.77,-32.56"/>
</g>
<!-- Node10 -->
<g id="node10" class="node">
<title>Node10</title>
<g id="a_node10"><a xlink:title=" ">
<polygon fill="white" stroke="#bfbfbf" points="1193,-6 1193,-25 1240,-25 1240,-6 1193,-6"/>
<text text-anchor="middle" x="1216.5" y="-13" font-family="Helvetica,sans-Serif" font-size="10.00">cmath</text>
</a>
</g>
</g>
<!-- Node1&#45;&gt;Node10 -->
<g id="edge9" class="edge">
<title>Node1&#45;&gt;Node10</title>
<path fill="none" stroke="midnightblue" d="M1059.22,-67.48C1091.94,-59.32 1141.53,-46.04 1183.5,-31 1185.16,-30.4 1186.86,-29.77 1188.56,-29.1"/>
<polygon fill="midnightblue" stroke="midnightblue" points="1190.3,-32.17 1198.18,-25.09 1187.61,-25.7 1190.3,-32.17"/>
</g>
<!-- Node11 -->
<g id="node11" class="node">
<title>Node11</title>
<g id="a_node11"><a xlink:title=" ">
<polygon fill="white" stroke="#bfbfbf" points="1258.5,-6 1258.5,-25 1302.5,-25 1302.5,-6 1258.5,-6"/>
<text text-anchor="middle" x="1280.5" y="-13" font-family="Helvetica,sans-Serif" font-size="10.00">limits</text>
</a>
</g>
</g>
<!-- Node1&#45;&gt;Node11 -->
<g id="edge10" class="edge">
<title>Node1&#45;&gt;Node11</title>
<path fill="none" stroke="midnightblue" d="M1075.57,-69.27C1121.97,-62.43 1191.34,-50.08 1249.5,-31 1251.17,-30.45 1252.87,-29.84 1254.56,-29.18"/>
<polygon fill="midnightblue" stroke="midnightblue" points="1256.27,-32.25 1264.07,-25.08 1253.5,-25.83 1256.27,-32.25"/>
</g>
<!-- Node12 -->
<g id="node12" class="node">
<title>Node12</title>
<g id="a_node12"><a xlink:title=" ">
<polygon fill="white" stroke="#bfbfbf" points="1320.5,-6 1320.5,-25 1362.5,-25 1362.5,-6 1320.5,-6"/>
<text text-anchor="middle" x="1341.5" y="-13" font-family="Helvetica,sans-Serif" font-size="10.00">array</text>
</a>
</g>
</g>
<!-- Node1&#45;&gt;Node12 -->
<g id="edge11" class="edge">
<title>Node1&#45;&gt;Node12</title>
<path fill="none" stroke="midnightblue" d="M1075.53,-72.51C1134.02,-67.52 1231.31,-56.04 1311.5,-31 1313.17,-30.48 1314.86,-29.88 1316.55,-29.22"/>
<polygon fill="midnightblue" stroke="midnightblue" points="1318.23,-32.31 1325.98,-25.08 1315.41,-25.9 1318.23,-32.31"/>
</g>
<!-- Node13 -->
<g id="node13" class="node">
<title>Node13</title>
<g id="a_node13"><a xlink:title=" ">
<polygon fill="white" stroke="#bfbfbf" points="1380.5,-6 1380.5,-25 1418.5,-25 1418.5,-6 1380.5,-6"/>
<text text-anchor="middle" x="1399.5" y="-13" font-family="Helvetica,sans-Serif" font-size="10.00">map</text>
</a>
</g>
</g>
<!-- Node1&#45;&gt;Node13 -->
<g id="edge12" class="edge">
<title>Node1&#45;&gt;Node13</title>
<path fill="none" stroke="midnightblue" d="M1075.71,-74.88C1144.85,-72.15 1269.9,-62.79 1371.5,-31 1372.97,-30.54 1374.45,-30.01 1375.93,-29.42"/>
<polygon fill="midnightblue" stroke="midnightblue" points="1377.79,-32.42 1385.38,-25.03 1374.84,-26.07 1377.79,-32.42"/>
</g>
<!-- Node14 -->
<g id="node14" class="node">
<title>Node14</title>
<g id="a_node14"><a xlink:title=" ">
<polygon fill="white" stroke="#bfbfbf" points="1436.5,-6 1436.5,-25 1494.5,-25 1494.5,-6 1436.5,-6"/>
<text text-anchor="middle" x="1465.5" y="-13" font-family="Helvetica,sans-Serif" font-size="10.00">memory</text>
</a>
</g>
</g>
<!-- Node1&#45;&gt;Node14 -->
<g id="edge13" class="edge">
<title>Node1&#45;&gt;Node14</title>
<path fill="none" stroke="midnightblue" d="M1075.56,-74.41C1153.22,-71.09 1303.53,-61.04 1427.5,-31 1430.33,-30.31 1433.24,-29.47 1436.12,-28.54"/>
<polygon fill="midnightblue" stroke="midnightblue" points="1437.43,-31.79 1445.69,-25.15 1435.09,-25.19 1437.43,-31.79"/>
</g>
</g>
</svg>
