<?xml version="1.0" encoding="UTF-8" standalone="no"?>
<!DOCTYPE svg PUBLIC "-//W3C//DTD SVG 1.1//EN"
 "http://www.w3.org/Graphics/SVG/1.1/DTD/svg11.dtd">
<!-- Generated by graphviz version 2.43.0 (0)
 -->
<!-- Title: EnthalpyPmrSrcNodeSuppAlg.C Pages: 1 -->
<svg width="1307pt" height="84pt"
 viewBox="0.00 0.00 1306.50 84.00" xmlns="http://www.w3.org/2000/svg" xmlns:xlink="http://www.w3.org/1999/xlink">
<g id="graph0" class="graph" transform="scale(1 1) rotate(0) translate(4 80)">
<title>EnthalpyPmrSrcNodeSuppAlg.C</title>
<polygon fill="white" stroke="transparent" points="-4,4 -4,-80 1302.5,-80 1302.5,4 -4,4"/>
<!-- Node1 -->
<g id="node1" class="node">
<title>Node1</title>
<g id="a_node1"><a xlink:title=" ">
<polygon fill="#bfbfbf" stroke="black" points="492.5,-56.5 492.5,-75.5 661.5,-75.5 661.5,-56.5 492.5,-56.5"/>
<text text-anchor="middle" x="577" y="-63.5" font-family="Helvetica,sans-Serif" font-size="10.00">EnthalpyPmrSrcNodeSuppAlg.C</text>
</a>
</g>
</g>
<!-- Node2 -->
<g id="node2" class="node">
<title>Node2</title>
<g id="a_node2"><a xlink:title=" ">
<polygon fill="white" stroke="#bfbfbf" points="0,-0.5 0,-19.5 168,-19.5 168,-0.5 0,-0.5"/>
<text text-anchor="middle" x="84" y="-7.5" font-family="Helvetica,sans-Serif" font-size="10.00">EnthalpyPmrSrcNodeSuppAlg.h</text>
</a>
</g>
</g>
<!-- Node1&#45;&gt;Node2 -->
<g id="edge1" class="edge">
<title>Node1&#45;&gt;Node2</title>
<path fill="none" stroke="midnightblue" d="M499.15,-56.47C410.14,-46.72 264.77,-30.8 171.79,-20.62"/>
<polygon fill="midnightblue" stroke="midnightblue" points="172.16,-17.14 161.84,-19.53 171.4,-24.09 172.16,-17.14"/>
</g>
<!-- Node3 -->
<g id="node3" class="node">
<title>Node3</title>
<g id="a_node3"><a xlink:title=" ">
<polygon fill="white" stroke="#bfbfbf" points="186.5,-0.5 186.5,-19.5 327.5,-19.5 327.5,-0.5 186.5,-0.5"/>
<text text-anchor="middle" x="257" y="-7.5" font-family="Helvetica,sans-Serif" font-size="10.00">SupplementalAlgorithm.h</text>
</a>
</g>
</g>
<!-- Node1&#45;&gt;Node3 -->
<g id="edge2" class="edge">
<title>Node1&#45;&gt;Node3</title>
<path fill="none" stroke="midnightblue" d="M526.3,-56.44C469.65,-46.89 378,-31.42 317.62,-21.23"/>
<polygon fill="midnightblue" stroke="midnightblue" points="317.91,-17.73 307.47,-19.52 316.75,-24.63 317.91,-17.73"/>
</g>
<!-- Node4 -->
<g id="node4" class="node">
<title>Node4</title>
<g id="a_node4"><a xlink:title=" ">
<polygon fill="white" stroke="#bfbfbf" points="346,-0.5 346,-19.5 434,-19.5 434,-0.5 346,-0.5"/>
<text text-anchor="middle" x="390" y="-7.5" font-family="Helvetica,sans-Serif" font-size="10.00">FieldTypeDef.h</text>
</a>
</g>
</g>
<!-- Node1&#45;&gt;Node4 -->
<g id="edge3" class="edge">
<title>Node1&#45;&gt;Node4</title>
<path fill="none" stroke="midnightblue" d="M547.37,-56.44C515.5,-47.24 464.67,-32.56 429.44,-22.39"/>
<polygon fill="midnightblue" stroke="midnightblue" points="430.07,-18.93 419.49,-19.52 428.13,-25.65 430.07,-18.93"/>
</g>
<!-- Node5 -->
<g id="node5" class="node">
<title>Node5</title>
<g id="a_node5"><a xlink:title=" ">
<polygon fill="white" stroke="#bfbfbf" points="452.5,-0.5 452.5,-19.5 509.5,-19.5 509.5,-0.5 452.5,-0.5"/>
<text text-anchor="middle" x="481" y="-7.5" font-family="Helvetica,sans-Serif" font-size="10.00">Realm.h</text>
</a>
</g>
</g>
<!-- Node1&#45;&gt;Node5 -->
<g id="edge4" class="edge">
<title>Node1&#45;&gt;Node5</title>
<path fill="none" stroke="midnightblue" d="M561.58,-56.32C546.46,-47.82 523.18,-34.73 505.53,-24.8"/>
<polygon fill="midnightblue" stroke="midnightblue" points="506.82,-21.51 496.39,-19.65 503.39,-27.61 506.82,-21.51"/>
</g>
<!-- Node6 -->
<g id="node6" class="node">
<title>Node6</title>
<g id="a_node6"><a xlink:title=" ">
<polygon fill="white" stroke="#bfbfbf" points="528,-0.5 528,-19.5 626,-19.5 626,-0.5 528,-0.5"/>
<text text-anchor="middle" x="577" y="-7.5" font-family="Helvetica,sans-Serif" font-size="10.00">TimeIntegrator.h</text>
</a>
</g>
</g>
<!-- Node1&#45;&gt;Node6 -->
<g id="edge5" class="edge">
<title>Node1&#45;&gt;Node6</title>
<path fill="none" stroke="midnightblue" d="M577,-56.08C577,-49.01 577,-38.86 577,-29.99"/>
<polygon fill="midnightblue" stroke="midnightblue" points="580.5,-29.75 577,-19.75 573.5,-29.75 580.5,-29.75"/>
</g>
<!-- Node7 -->
<g id="node7" class="node">
<title>Node7</title>
<g id="a_node7"><a xlink:title=" ">
<polygon fill="white" stroke="#bfbfbf" points="644.5,-0.5 644.5,-19.5 785.5,-19.5 785.5,-0.5 644.5,-0.5"/>
<text text-anchor="middle" x="715" y="-7.5" font-family="Helvetica,sans-Serif" font-size="10.00">stk_mesh/base/Entity.hpp</text>
</a>
</g>
</g>
<!-- Node1&#45;&gt;Node7 -->
<g id="edge6" class="edge">
<title>Node1&#45;&gt;Node7</title>
<path fill="none" stroke="midnightblue" d="M598.87,-56.44C621.78,-47.48 657.98,-33.31 683.87,-23.18"/>
<polygon fill="midnightblue" stroke="midnightblue" points="685.2,-26.42 693.24,-19.52 682.65,-19.9 685.2,-26.42"/>
</g>
<!-- Node8 -->
<g id="node8" class="node">
<title>Node8</title>
<g id="a_node8"><a xlink:title=" ">
<polygon fill="white" stroke="#bfbfbf" points="804,-0.5 804,-19.5 966,-19.5 966,-0.5 804,-0.5"/>
<text text-anchor="middle" x="885" y="-7.5" font-family="Helvetica,sans-Serif" font-size="10.00">stk_mesh/base/MetaData.hpp</text>
</a>
</g>
</g>
<!-- Node1&#45;&gt;Node8 -->
<g id="edge7" class="edge">
<title>Node1&#45;&gt;Node8</title>
<path fill="none" stroke="midnightblue" d="M625.8,-56.44C680.21,-46.9 768.17,-31.48 826.29,-21.29"/>
<polygon fill="midnightblue" stroke="midnightblue" points="827.18,-24.69 836.42,-19.52 825.97,-17.8 827.18,-24.69"/>
</g>
<!-- Node9 -->
<g id="node9" class="node">
<title>Node9</title>
<g id="a_node9"><a xlink:title=" ">
<polygon fill="white" stroke="#bfbfbf" points="984.5,-0.5 984.5,-19.5 1143.5,-19.5 1143.5,-0.5 984.5,-0.5"/>
<text text-anchor="middle" x="1064" y="-7.5" font-family="Helvetica,sans-Serif" font-size="10.00">stk_mesh/base/BulkData.hpp</text>
</a>
</g>
</g>
<!-- Node1&#45;&gt;Node9 -->
<g id="edge8" class="edge">
<title>Node1&#45;&gt;Node9</title>
<path fill="none" stroke="midnightblue" d="M653.9,-56.47C741.74,-46.73 885.14,-30.83 977,-20.65"/>
<polygon fill="midnightblue" stroke="midnightblue" points="977.55,-24.11 987.1,-19.53 976.78,-17.15 977.55,-24.11"/>
</g>
<!-- Node10 -->
<g id="node10" class="node">
<title>Node10</title>
<g id="a_node10"><a xlink:title=" ">
<polygon fill="white" stroke="#bfbfbf" points="1161.5,-0.5 1161.5,-19.5 1298.5,-19.5 1298.5,-0.5 1161.5,-0.5"/>
<text text-anchor="middle" x="1230" y="-7.5" font-family="Helvetica,sans-Serif" font-size="10.00">stk_mesh/base/Field.hpp</text>
</a>
</g>
</g>
<!-- Node1&#45;&gt;Node10 -->
<g id="edge9" class="edge">
<title>Node1&#45;&gt;Node10</title>
<path fill="none" stroke="midnightblue" d="M661.51,-59.42C771.78,-51.9 970.98,-37.55 1150.98,-20.17"/>
<polygon fill="midnightblue" stroke="midnightblue" points="1151.55,-23.63 1161.17,-19.18 1150.88,-16.66 1151.55,-23.63"/>
</g>
</g>
</svg>
