<?xml version="1.0" encoding="UTF-8" standalone="no"?>
<!DOCTYPE svg PUBLIC "-//W3C//DTD SVG 1.1//EN"
 "http://www.w3.org/Graphics/SVG/1.1/DTD/svg11.dtd">
<!-- Generated by graphviz version 2.43.0 (0)
 -->
<!-- Title: EnthalpyABLForceNodeKernel.C Pages: 1 -->
<svg width="1049pt" height="95pt"
 viewBox="0.00 0.00 1049.00 95.00" xmlns="http://www.w3.org/2000/svg" xmlns:xlink="http://www.w3.org/1999/xlink">
<g id="graph0" class="graph" transform="scale(1 1) rotate(0) translate(4 91)">
<title>EnthalpyABLForceNodeKernel.C</title>
<polygon fill="white" stroke="transparent" points="-4,4 -4,-91 1045,-91 1045,4 -4,4"/>
<!-- Node1 -->
<g id="node1" class="node">
<title>Node1</title>
<g id="a_node1"><a xlink:title=" ">
<polygon fill="#bfbfbf" stroke="black" points="443,-67.5 443,-86.5 613,-86.5 613,-67.5 443,-67.5"/>
<text text-anchor="middle" x="528" y="-74.5" font-family="Helvetica,sans-Serif" font-size="10.00">EnthalpyABLForceNodeKernel.C</text>
</a>
</g>
</g>
<!-- Node2 -->
<g id="node2" class="node">
<title>Node2</title>
<g id="a_node2"><a xlink:title=" ">
<polygon fill="white" stroke="#bfbfbf" points="0,-0.5 0,-30.5 172,-30.5 172,-0.5 0,-0.5"/>
<text text-anchor="start" x="8" y="-18.5" font-family="Helvetica,sans-Serif" font-size="10.00">node_kernels/EnthalpyABLForce</text>
<text text-anchor="middle" x="86" y="-7.5" font-family="Helvetica,sans-Serif" font-size="10.00">NodeKernel.h</text>
</a>
</g>
</g>
<!-- Node1&#45;&gt;Node2 -->
<g id="edge1" class="edge">
<title>Node1&#45;&gt;Node2</title>
<path fill="none" stroke="midnightblue" d="M458.81,-67.49C390.99,-59.05 284.38,-45.49 182.37,-31.18"/>
<polygon fill="midnightblue" stroke="midnightblue" points="182.59,-27.67 172.2,-29.74 181.62,-34.6 182.59,-27.67"/>
</g>
<!-- Node3 -->
<g id="node3" class="node">
<title>Node3</title>
<g id="a_node3"><a xlink:title=" ">
<polygon fill="white" stroke="#bfbfbf" points="190.5,-6 190.5,-25 383.5,-25 383.5,-6 190.5,-6"/>
<text text-anchor="middle" x="287" y="-13" font-family="Helvetica,sans-Serif" font-size="10.00">wind_energy/ABLForcingAlgorithm.h</text>
</a>
</g>
</g>
<!-- Node1&#45;&gt;Node3 -->
<g id="edge2" class="edge">
<title>Node1&#45;&gt;Node3</title>
<path fill="none" stroke="midnightblue" d="M493.47,-67.48C450.79,-56.94 378.08,-38.99 331.32,-27.44"/>
<polygon fill="midnightblue" stroke="midnightblue" points="332.01,-24.01 321.47,-25.01 330.33,-30.8 332.01,-24.01"/>
</g>
<!-- Node4 -->
<g id="node4" class="node">
<title>Node4</title>
<g id="a_node4"><a xlink:title=" ">
<polygon fill="white" stroke="#bfbfbf" points="401.5,-6 401.5,-25 458.5,-25 458.5,-6 401.5,-6"/>
<text text-anchor="middle" x="430" y="-13" font-family="Helvetica,sans-Serif" font-size="10.00">Realm.h</text>
</a>
</g>
</g>
<!-- Node1&#45;&gt;Node4 -->
<g id="edge3" class="edge">
<title>Node1&#45;&gt;Node4</title>
<path fill="none" stroke="midnightblue" d="M513.96,-67.48C497.95,-57.75 471.55,-41.73 452.63,-30.24"/>
<polygon fill="midnightblue" stroke="midnightblue" points="454.38,-27.21 444.01,-25.01 450.75,-33.19 454.38,-27.21"/>
</g>
<!-- Node5 -->
<g id="node5" class="node">
<title>Node5</title>
<g id="a_node5"><a xlink:title=" ">
<polygon fill="white" stroke="#bfbfbf" points="476.5,-6 476.5,-25 579.5,-25 579.5,-6 476.5,-6"/>
<text text-anchor="middle" x="528" y="-13" font-family="Helvetica,sans-Serif" font-size="10.00">SolutionOptions.h</text>
</a>
</g>
</g>
<!-- Node1&#45;&gt;Node5 -->
<g id="edge4" class="edge">
<title>Node1&#45;&gt;Node5</title>
<path fill="none" stroke="midnightblue" d="M528,-67.48C528,-59.08 528,-45.98 528,-35.16"/>
<polygon fill="midnightblue" stroke="midnightblue" points="531.5,-35.01 528,-25.01 524.5,-35.01 531.5,-35.01"/>
</g>
<!-- Node6 -->
<g id="node6" class="node">
<title>Node6</title>
<g id="a_node6"><a xlink:title=" ">
<polygon fill="white" stroke="#bfbfbf" points="597.5,-6 597.5,-25 700.5,-25 700.5,-6 597.5,-6"/>
<text text-anchor="middle" x="649" y="-13" font-family="Helvetica,sans-Serif" font-size="10.00">utils/StkHelpers.h</text>
</a>
</g>
</g>
<!-- Node1&#45;&gt;Node6 -->
<g id="edge5" class="edge">
<title>Node1&#45;&gt;Node6</title>
<path fill="none" stroke="midnightblue" d="M545.34,-67.48C565.55,-57.53 599.19,-40.99 622.64,-29.46"/>
<polygon fill="midnightblue" stroke="midnightblue" points="624.27,-32.56 631.7,-25.01 621.18,-26.28 624.27,-32.56"/>
</g>
<!-- Node7 -->
<g id="node7" class="node">
<title>Node7</title>
<g id="a_node7"><a xlink:title=" ">
<polygon fill="white" stroke="#bfbfbf" points="719,-6 719,-25 881,-25 881,-6 719,-6"/>
<text text-anchor="middle" x="800" y="-13" font-family="Helvetica,sans-Serif" font-size="10.00">stk_mesh/base/MetaData.hpp</text>
</a>
</g>
</g>
<!-- Node1&#45;&gt;Node7 -->
<g id="edge6" class="edge">
<title>Node1&#45;&gt;Node7</title>
<path fill="none" stroke="midnightblue" d="M566.97,-67.48C615.55,-56.85 698.58,-38.68 751.3,-27.15"/>
<polygon fill="midnightblue" stroke="midnightblue" points="752.08,-30.57 761.1,-25.01 750.58,-23.73 752.08,-30.57"/>
</g>
<!-- Node8 -->
<g id="node8" class="node">
<title>Node8</title>
<g id="a_node8"><a xlink:title=" ">
<polygon fill="white" stroke="#bfbfbf" points="899,-6 899,-25 1041,-25 1041,-6 899,-6"/>
<text text-anchor="middle" x="970" y="-13" font-family="Helvetica,sans-Serif" font-size="10.00">stk_mesh/base/Types.hpp</text>
</a>
</g>
</g>
<!-- Node1&#45;&gt;Node8 -->
<g id="edge7" class="edge">
<title>Node1&#45;&gt;Node8</title>
<path fill="none" stroke="midnightblue" d="M606.91,-67.47C680.36,-59.23 792.8,-45.84 890,-31 898.13,-29.76 906.71,-28.33 915.11,-26.86"/>
<polygon fill="midnightblue" stroke="midnightblue" points="915.99,-30.26 925.22,-25.07 914.77,-23.37 915.99,-30.26"/>
</g>
</g>
</svg>
