<?xml version="1.0" encoding="UTF-8" standalone="no"?>
<!DOCTYPE svg PUBLIC "-//W3C//DTD SVG 1.1//EN"
 "http://www.w3.org/Graphics/SVG/1.1/DTD/svg11.dtd">
<!-- Generated by graphviz version 2.43.0 (0)
 -->
<!-- Title: EnthalpyPropertyEvaluator.C Pages: 1 -->
<svg width="1275pt" height="95pt"
 viewBox="0.00 0.00 1274.50 95.00" xmlns="http://www.w3.org/2000/svg" xmlns:xlink="http://www.w3.org/1999/xlink">
<g id="graph0" class="graph" transform="scale(1 1) rotate(0) translate(4 91)">
<title>EnthalpyPropertyEvaluator.C</title>
<polygon fill="white" stroke="transparent" points="-4,4 -4,-91 1270.5,-91 1270.5,4 -4,4"/>
<!-- Node1 -->
<g id="node1" class="node">
<title>Node1</title>
<g id="a_node1"><a xlink:title=" ">
<polygon fill="#bfbfbf" stroke="black" points="635,-67.5 635,-86.5 791,-86.5 791,-67.5 635,-67.5"/>
<text text-anchor="middle" x="713" y="-74.5" font-family="Helvetica,sans-Serif" font-size="10.00">EnthalpyPropertyEvaluator.C</text>
</a>
</g>
</g>
<!-- Node2 -->
<g id="node2" class="node">
<title>Node2</title>
<g id="a_node2"><a xlink:title=" ">
<polygon fill="white" stroke="#bfbfbf" points="0,-0.5 0,-30.5 158,-30.5 158,-0.5 0,-0.5"/>
<text text-anchor="start" x="8" y="-18.5" font-family="Helvetica,sans-Serif" font-size="10.00">property_evaluator</text>
<text text-anchor="middle" x="79" y="-7.5" font-family="Helvetica,sans-Serif" font-size="10.00">/EnthalpyPropertyEvaluator.h</text>
</a>
</g>
</g>
<!-- Node1&#45;&gt;Node2 -->
<g id="edge1" class="edge">
<title>Node1&#45;&gt;Node2</title>
<path fill="none" stroke="midnightblue" d="M634.59,-71.54C530.37,-65.17 340.31,-51.98 168.12,-31.07"/>
<polygon fill="midnightblue" stroke="midnightblue" points="168.46,-27.59 158.11,-29.85 167.61,-34.54 168.46,-27.59"/>
</g>
<!-- Node3 -->
<g id="node3" class="node">
<title>Node3</title>
<g id="a_node3"><a xlink:title=" ">
<polygon fill="white" stroke="#bfbfbf" points="176,-0.5 176,-30.5 346,-30.5 346,-0.5 176,-0.5"/>
<text text-anchor="start" x="184" y="-18.5" font-family="Helvetica,sans-Serif" font-size="10.00">property_evaluator</text>
<text text-anchor="middle" x="261" y="-7.5" font-family="Helvetica,sans-Serif" font-size="10.00">/PolynomialPropertyEvaluator.h</text>
</a>
</g>
</g>
<!-- Node1&#45;&gt;Node3 -->
<g id="edge2" class="edge">
<title>Node1&#45;&gt;Node3</title>
<path fill="none" stroke="midnightblue" d="M640.24,-67.46C570.11,-59.09 460.74,-45.68 356.14,-31.14"/>
<polygon fill="midnightblue" stroke="midnightblue" points="356.43,-27.64 346.04,-29.73 355.46,-34.58 356.43,-27.64"/>
</g>
<!-- Node4 -->
<g id="node4" class="node">
<title>Node4</title>
<g id="a_node4"><a xlink:title=" ">
<polygon fill="white" stroke="#bfbfbf" points="364.5,-0.5 364.5,-30.5 507.5,-30.5 507.5,-0.5 364.5,-0.5"/>
<text text-anchor="start" x="372.5" y="-18.5" font-family="Helvetica,sans-Serif" font-size="10.00">property_evaluator</text>
<text text-anchor="middle" x="436" y="-7.5" font-family="Helvetica,sans-Serif" font-size="10.00">/ReferencePropertyData.h</text>
</a>
</g>
</g>
<!-- Node1&#45;&gt;Node4 -->
<g id="edge3" class="edge">
<title>Node1&#45;&gt;Node4</title>
<path fill="none" stroke="midnightblue" d="M673.31,-67.48C631.15,-58.42 563.5,-43.89 511.19,-32.65"/>
<polygon fill="midnightblue" stroke="midnightblue" points="511.8,-29.2 501.28,-30.52 510.33,-36.05 511.8,-29.2"/>
</g>
<!-- Node5 -->
<g id="node5" class="node">
<title>Node5</title>
<g id="a_node5"><a xlink:title=" ">
<polygon fill="white" stroke="#bfbfbf" points="526,-6 526,-25 614,-25 614,-6 526,-6"/>
<text text-anchor="middle" x="570" y="-13" font-family="Helvetica,sans-Serif" font-size="10.00">FieldTypeDef.h</text>
</a>
</g>
</g>
<!-- Node1&#45;&gt;Node5 -->
<g id="edge4" class="edge">
<title>Node1&#45;&gt;Node5</title>
<path fill="none" stroke="midnightblue" d="M692.51,-67.48C668.19,-57.36 627.45,-40.4 599.68,-28.85"/>
<polygon fill="midnightblue" stroke="midnightblue" points="601.03,-25.62 590.45,-25.01 598.34,-32.08 601.03,-25.62"/>
</g>
<!-- Node6 -->
<g id="node6" class="node">
<title>Node6</title>
<g id="a_node6"><a xlink:title=" ">
<polygon fill="white" stroke="#bfbfbf" points="632,-6 632,-25 794,-25 794,-6 632,-6"/>
<text text-anchor="middle" x="713" y="-13" font-family="Helvetica,sans-Serif" font-size="10.00">stk_mesh/base/MetaData.hpp</text>
</a>
</g>
</g>
<!-- Node1&#45;&gt;Node6 -->
<g id="edge5" class="edge">
<title>Node1&#45;&gt;Node6</title>
<path fill="none" stroke="midnightblue" d="M713,-67.48C713,-59.08 713,-45.98 713,-35.16"/>
<polygon fill="midnightblue" stroke="midnightblue" points="716.5,-35.01 713,-25.01 709.5,-35.01 716.5,-35.01"/>
</g>
<!-- Node7 -->
<g id="node7" class="node">
<title>Node7</title>
<g id="a_node7"><a xlink:title=" ">
<polygon fill="white" stroke="#bfbfbf" points="812.5,-6 812.5,-25 971.5,-25 971.5,-6 812.5,-6"/>
<text text-anchor="middle" x="892" y="-13" font-family="Helvetica,sans-Serif" font-size="10.00">stk_mesh/base/BulkData.hpp</text>
</a>
</g>
</g>
<!-- Node1&#45;&gt;Node7 -->
<g id="edge6" class="edge">
<title>Node1&#45;&gt;Node7</title>
<path fill="none" stroke="midnightblue" d="M738.65,-67.48C769.62,-57.18 821.87,-39.81 856.65,-28.25"/>
<polygon fill="midnightblue" stroke="midnightblue" points="858.02,-31.48 866.4,-25.01 855.81,-24.84 858.02,-31.48"/>
</g>
<!-- Node8 -->
<g id="node8" class="node">
<title>Node8</title>
<g id="a_node8"><a xlink:title=" ">
<polygon fill="white" stroke="#bfbfbf" points="989.5,-6 989.5,-25 1126.5,-25 1126.5,-6 989.5,-6"/>
<text text-anchor="middle" x="1058" y="-13" font-family="Helvetica,sans-Serif" font-size="10.00">stk_mesh/base/Field.hpp</text>
</a>
</g>
</g>
<!-- Node1&#45;&gt;Node8 -->
<g id="edge7" class="edge">
<title>Node1&#45;&gt;Node8</title>
<path fill="none" stroke="midnightblue" d="M765.69,-67.47C819.77,-58.64 906.33,-44.3 981,-31 988.36,-29.69 996.1,-28.27 1003.73,-26.86"/>
<polygon fill="midnightblue" stroke="midnightblue" points="1004.46,-30.28 1013.65,-25.01 1003.17,-23.4 1004.46,-30.28"/>
</g>
<!-- Node9 -->
<g id="node9" class="node">
<title>Node9</title>
<g id="a_node9"><a xlink:title=" ">
<polygon fill="white" stroke="#bfbfbf" points="1145,-6 1145,-25 1183,-25 1183,-6 1145,-6"/>
<text text-anchor="middle" x="1164" y="-13" font-family="Helvetica,sans-Serif" font-size="10.00">map</text>
</a>
</g>
</g>
<!-- Node1&#45;&gt;Node9 -->
<g id="edge8" class="edge">
<title>Node1&#45;&gt;Node9</title>
<path fill="none" stroke="midnightblue" d="M791.11,-76.28C877.31,-74.62 1019.3,-66.07 1136,-31 1137.47,-30.56 1138.96,-30.04 1140.44,-29.46"/>
<polygon fill="midnightblue" stroke="midnightblue" points="1142.29,-32.46 1149.9,-25.1 1139.35,-26.11 1142.29,-32.46"/>
</g>
<!-- Node10 -->
<g id="node10" class="node">
<title>Node10</title>
<g id="a_node10"><a xlink:title=" ">
<polygon fill="white" stroke="#bfbfbf" points="1201.5,-6 1201.5,-25 1266.5,-25 1266.5,-6 1201.5,-6"/>
<text text-anchor="middle" x="1234" y="-13" font-family="Helvetica,sans-Serif" font-size="10.00">stdexcept</text>
</a>
</g>
</g>
<!-- Node1&#45;&gt;Node10 -->
<g id="edge9" class="edge">
<title>Node1&#45;&gt;Node10</title>
<path fill="none" stroke="midnightblue" d="M791.02,-74.37C886.55,-71.07 1052.81,-61.11 1192,-31 1195.5,-30.24 1199.11,-29.28 1202.68,-28.22"/>
<polygon fill="midnightblue" stroke="midnightblue" points="1204.06,-31.45 1212.48,-25.03 1201.89,-24.8 1204.06,-31.45"/>
</g>
</g>
</svg>
