<?xml version="1.0" encoding="UTF-8" standalone="no"?>
<!DOCTYPE svg PUBLIC "-//W3C//DTD SVG 1.1//EN"
 "http://www.w3.org/Graphics/SVG/1.1/DTD/svg11.dtd">
<!-- Generated by graphviz version 2.43.0 (0)
 -->
<!-- Title: EnthalpyEffDiffFluxCoeffAlg.C Pages: 1 -->
<svg width="1184pt" height="106pt"
 viewBox="0.00 0.00 1183.50 106.00" xmlns="http://www.w3.org/2000/svg" xmlns:xlink="http://www.w3.org/1999/xlink">
<g id="graph0" class="graph" transform="scale(1 1) rotate(0) translate(4 102)">
<title>EnthalpyEffDiffFluxCoeffAlg.C</title>
<polygon fill="white" stroke="transparent" points="-4,4 -4,-102 1179.5,-102 1179.5,4 -4,4"/>
<!-- Node1 -->
<g id="node1" class="node">
<title>Node1</title>
<g id="a_node1"><a xlink:title=" ">
<polygon fill="#bfbfbf" stroke="black" points="536.5,-67.5 536.5,-97.5 672.5,-97.5 672.5,-67.5 536.5,-67.5"/>
<text text-anchor="start" x="544.5" y="-85.5" font-family="Helvetica,sans-Serif" font-size="10.00">EnthalpyEffDiffFluxCoeff</text>
<text text-anchor="middle" x="604.5" y="-74.5" font-family="Helvetica,sans-Serif" font-size="10.00">Alg.C</text>
</a>
</g>
</g>
<!-- Node2 -->
<g id="node2" class="node">
<title>Node2</title>
<g id="a_node2"><a xlink:title=" ">
<polygon fill="white" stroke="#bfbfbf" points="0,-0.5 0,-30.5 151,-30.5 151,-0.5 0,-0.5"/>
<text text-anchor="start" x="8" y="-18.5" font-family="Helvetica,sans-Serif" font-size="10.00">ngp_algorithms/EnthalpyEff</text>
<text text-anchor="middle" x="75.5" y="-7.5" font-family="Helvetica,sans-Serif" font-size="10.00">DiffFluxCoeffAlg.h</text>
</a>
</g>
</g>
<!-- Node1&#45;&gt;Node2 -->
<g id="edge1" class="edge">
<title>Node1&#45;&gt;Node2</title>
<path fill="none" stroke="midnightblue" d="M536.27,-74.93C451.03,-66.46 300.45,-50.61 161.03,-31.02"/>
<polygon fill="midnightblue" stroke="midnightblue" points="161.4,-27.54 151.01,-29.61 160.42,-34.47 161.4,-27.54"/>
</g>
<!-- Node3 -->
<g id="node3" class="node">
<title>Node3</title>
<g id="a_node3"><a xlink:title=" ">
<polygon fill="white" stroke="#bfbfbf" points="169.5,-6 169.5,-25 307.5,-25 307.5,-6 169.5,-6"/>
<text text-anchor="middle" x="238.5" y="-13" font-family="Helvetica,sans-Serif" font-size="10.00">ngp_utils/NgpLoopUtils.h</text>
</a>
</g>
</g>
<!-- Node1&#45;&gt;Node3 -->
<g id="edge2" class="edge">
<title>Node1&#45;&gt;Node3</title>
<path fill="none" stroke="midnightblue" d="M536.38,-69.76C478,-59.65 391.68,-44.58 316.5,-31 309.15,-29.67 301.41,-28.26 293.78,-26.85"/>
<polygon fill="midnightblue" stroke="midnightblue" points="294.33,-23.39 283.86,-25.01 293.05,-30.27 294.33,-23.39"/>
</g>
<!-- Node4 -->
<g id="node4" class="node">
<title>Node4</title>
<g id="a_node4"><a xlink:title=" ">
<polygon fill="white" stroke="#bfbfbf" points="325.5,-6 325.5,-25 445.5,-25 445.5,-6 325.5,-6"/>
<text text-anchor="middle" x="385.5" y="-13" font-family="Helvetica,sans-Serif" font-size="10.00">ngp_utils/NgpTypes.h</text>
</a>
</g>
</g>
<!-- Node1&#45;&gt;Node4 -->
<g id="edge3" class="edge">
<title>Node1&#45;&gt;Node4</title>
<path fill="none" stroke="midnightblue" d="M557.25,-67.48C517.48,-55.67 461.31,-39 424.17,-27.98"/>
<polygon fill="midnightblue" stroke="midnightblue" points="424.82,-24.52 414.24,-25.03 422.83,-31.23 424.82,-24.52"/>
</g>
<!-- Node5 -->
<g id="node5" class="node">
<title>Node5</title>
<g id="a_node5"><a xlink:title=" ">
<polygon fill="white" stroke="#bfbfbf" points="463.5,-6 463.5,-25 621.5,-25 621.5,-6 463.5,-6"/>
<text text-anchor="middle" x="542.5" y="-13" font-family="Helvetica,sans-Serif" font-size="10.00">ngp_utils/NgpFieldManager.h</text>
</a>
</g>
</g>
<!-- Node1&#45;&gt;Node5 -->
<g id="edge4" class="edge">
<title>Node1&#45;&gt;Node5</title>
<path fill="none" stroke="midnightblue" d="M591.05,-67.4C581.28,-57.16 568.06,-43.3 557.88,-32.62"/>
<polygon fill="midnightblue" stroke="midnightblue" points="560.23,-30.01 550.79,-25.19 555.16,-34.85 560.23,-30.01"/>
</g>
<!-- Node6 -->
<g id="node6" class="node">
<title>Node6</title>
<g id="a_node6"><a xlink:title=" ">
<polygon fill="white" stroke="#bfbfbf" points="639,-6 639,-25 696,-25 696,-6 639,-6"/>
<text text-anchor="middle" x="667.5" y="-13" font-family="Helvetica,sans-Serif" font-size="10.00">Realm.h</text>
</a>
</g>
</g>
<!-- Node1&#45;&gt;Node6 -->
<g id="edge5" class="edge">
<title>Node1&#45;&gt;Node6</title>
<path fill="none" stroke="midnightblue" d="M618.17,-67.4C628.09,-57.16 641.53,-43.3 651.87,-32.62"/>
<polygon fill="midnightblue" stroke="midnightblue" points="654.63,-34.81 659.07,-25.19 649.6,-29.94 654.63,-34.81"/>
</g>
<!-- Node7 -->
<g id="node7" class="node">
<title>Node7</title>
<g id="a_node7"><a xlink:title=" ">
<polygon fill="white" stroke="#bfbfbf" points="714,-6 714,-25 817,-25 817,-6 714,-6"/>
<text text-anchor="middle" x="765.5" y="-13" font-family="Helvetica,sans-Serif" font-size="10.00">utils/StkHelpers.h</text>
</a>
</g>
</g>
<!-- Node1&#45;&gt;Node7 -->
<g id="edge6" class="edge">
<title>Node1&#45;&gt;Node7</title>
<path fill="none" stroke="midnightblue" d="M639.43,-67.4C667.93,-55.89 707.79,-39.8 735.02,-28.81"/>
<polygon fill="midnightblue" stroke="midnightblue" points="736.47,-32 744.43,-25.01 733.85,-25.51 736.47,-32"/>
</g>
<!-- Node8 -->
<g id="node8" class="node">
<title>Node8</title>
<g id="a_node8"><a xlink:title=" ">
<polygon fill="white" stroke="#bfbfbf" points="835.5,-6 835.5,-25 997.5,-25 997.5,-6 835.5,-6"/>
<text text-anchor="middle" x="916.5" y="-13" font-family="Helvetica,sans-Serif" font-size="10.00">stk_mesh/base/MetaData.hpp</text>
</a>
</g>
</g>
<!-- Node1&#45;&gt;Node8 -->
<g id="edge7" class="edge">
<title>Node1&#45;&gt;Node8</title>
<path fill="none" stroke="midnightblue" d="M671.82,-67.48C730.04,-55.34 812.96,-38.07 865.75,-27.07"/>
<polygon fill="midnightblue" stroke="midnightblue" points="866.49,-30.49 875.56,-25.03 865.06,-23.64 866.49,-30.49"/>
</g>
<!-- Node9 -->
<g id="node9" class="node">
<title>Node9</title>
<g id="a_node9"><a xlink:title=" ">
<polygon fill="white" stroke="#bfbfbf" points="1015.5,-6 1015.5,-25 1175.5,-25 1175.5,-6 1015.5,-6"/>
<text text-anchor="middle" x="1095.5" y="-13" font-family="Helvetica,sans-Serif" font-size="10.00">stk_mesh/base/NgpMesh.hpp</text>
</a>
</g>
</g>
<!-- Node1&#45;&gt;Node9 -->
<g id="edge8" class="edge">
<title>Node1&#45;&gt;Node9</title>
<path fill="none" stroke="midnightblue" d="M672.53,-73.72C752.56,-64.39 889.36,-47.89 1006.5,-31 1015.82,-29.66 1025.66,-28.14 1035.28,-26.62"/>
<polygon fill="midnightblue" stroke="midnightblue" points="1035.87,-30.07 1045.19,-25.03 1034.76,-23.16 1035.87,-30.07"/>
</g>
</g>
</svg>
