<?xml version="1.0" encoding="UTF-8" standalone="no"?>
<!DOCTYPE svg PUBLIC "-//W3C//DTD SVG 1.1//EN"
 "http://www.w3.org/Graphics/SVG/1.1/DTD/svg11.dtd">
<!-- Generated by graphviz version 2.43.0 (0)
 -->
<!-- Title: EquationSystem.C Pages: 1 -->
<svg width="2782pt" height="95pt"
 viewBox="0.00 0.00 2782.00 95.00" xmlns="http://www.w3.org/2000/svg" xmlns:xlink="http://www.w3.org/1999/xlink">
<g id="graph0" class="graph" transform="scale(1 1) rotate(0) translate(4 91)">
<title>EquationSystem.C</title>
<polygon fill="white" stroke="transparent" points="-4,4 -4,-91 2778,-91 2778,4 -4,4"/>
<!-- Node1 -->
<g id="node1" class="node">
<title>Node1</title>
<g id="a_node1"><a xlink:title=" ">
<polygon fill="#bfbfbf" stroke="black" points="1146.5,-67.5 1146.5,-86.5 1252.5,-86.5 1252.5,-67.5 1146.5,-67.5"/>
<text text-anchor="middle" x="1199.5" y="-74.5" font-family="Helvetica,sans-Serif" font-size="10.00">EquationSystem.C</text>
</a>
</g>
</g>
<!-- Node2 -->
<g id="node2" class="node">
<title>Node2</title>
<g id="a_node2"><a xlink:title=" ">
<polygon fill="white" stroke="#bfbfbf" points="0,-6 0,-25 105,-25 105,-6 0,-6"/>
<text text-anchor="middle" x="52.5" y="-13" font-family="Helvetica,sans-Serif" font-size="10.00">EquationSystem.h</text>
</a>
</g>
</g>
<!-- Node1&#45;&gt;Node2 -->
<g id="edge1" class="edge">
<title>Node1&#45;&gt;Node2</title>
<path fill="none" stroke="midnightblue" d="M1146.39,-75.12C957.32,-71.79 317.41,-58.68 114.5,-31 107.73,-30.08 100.61,-28.75 93.72,-27.28"/>
<polygon fill="midnightblue" stroke="midnightblue" points="94.35,-23.83 83.83,-25.04 92.81,-30.66 94.35,-23.83"/>
</g>
<!-- Node3 -->
<g id="node3" class="node">
<title>Node3</title>
<g id="a_node3"><a xlink:title=" ">
<polygon fill="white" stroke="#bfbfbf" points="123.5,-6 123.5,-25 257.5,-25 257.5,-6 123.5,-6"/>
<text text-anchor="middle" x="190.5" y="-13" font-family="Helvetica,sans-Serif" font-size="10.00">AuxFunctionAlgorithm.h</text>
</a>
</g>
</g>
<!-- Node1&#45;&gt;Node3 -->
<g id="edge2" class="edge">
<title>Node1&#45;&gt;Node3</title>
<path fill="none" stroke="midnightblue" d="M1146.42,-76.04C1003.64,-75.59 599.64,-70.61 266.5,-31 257.68,-29.95 248.35,-28.48 239.35,-26.87"/>
<polygon fill="midnightblue" stroke="midnightblue" points="239.86,-23.4 229.39,-25.01 238.58,-30.28 239.86,-23.4"/>
</g>
<!-- Node4 -->
<g id="node4" class="node">
<title>Node4</title>
<g id="a_node4"><a xlink:title=" ">
<polygon fill="white" stroke="#bfbfbf" points="275.5,-6 275.5,-25 409.5,-25 409.5,-6 275.5,-6"/>
<text text-anchor="middle" x="342.5" y="-13" font-family="Helvetica,sans-Serif" font-size="10.00">SolverAlgorithmDriver.h</text>
</a>
</g>
</g>
<!-- Node1&#45;&gt;Node4 -->
<g id="edge3" class="edge">
<title>Node1&#45;&gt;Node4</title>
<path fill="none" stroke="midnightblue" d="M1146.25,-75.33C1019.63,-73.22 690.77,-64.67 418.5,-31 409.78,-29.92 400.56,-28.45 391.66,-26.85"/>
<polygon fill="midnightblue" stroke="midnightblue" points="392.26,-23.4 381.79,-25.01 390.98,-30.29 392.26,-23.4"/>
</g>
<!-- Node5 -->
<g id="node5" class="node">
<title>Node5</title>
<g id="a_node5"><a xlink:title=" ">
<polygon fill="white" stroke="#bfbfbf" points="428,-6 428,-25 533,-25 533,-6 428,-6"/>
<text text-anchor="middle" x="480.5" y="-13" font-family="Helvetica,sans-Serif" font-size="10.00">InitialConditions.h</text>
</a>
</g>
</g>
<!-- Node1&#45;&gt;Node5 -->
<g id="edge4" class="edge">
<title>Node1&#45;&gt;Node5</title>
<path fill="none" stroke="midnightblue" d="M1146.3,-75.33C1033.95,-73.27 764.51,-64.89 541.5,-31 535.14,-30.03 528.47,-28.74 521.97,-27.33"/>
<polygon fill="midnightblue" stroke="midnightblue" points="522.5,-23.85 511.97,-25.03 520.93,-30.68 522.5,-23.85"/>
</g>
<!-- Node6 -->
<g id="node6" class="node">
<title>Node6</title>
<g id="a_node6"><a xlink:title=" ">
<polygon fill="white" stroke="#bfbfbf" points="551,-6 551,-25 648,-25 648,-6 551,-6"/>
<text text-anchor="middle" x="599.5" y="-13" font-family="Helvetica,sans-Serif" font-size="10.00">PecletFunction.h</text>
</a>
</g>
</g>
<!-- Node1&#45;&gt;Node6 -->
<g id="edge5" class="edge">
<title>Node1&#45;&gt;Node6</title>
<path fill="none" stroke="midnightblue" d="M1146.34,-74.53C1048.69,-71.17 834.46,-60.8 656.5,-31 650.9,-30.06 645.04,-28.85 639.3,-27.52"/>
<polygon fill="midnightblue" stroke="midnightblue" points="639.72,-24.02 629.18,-25.05 638.06,-30.82 639.72,-24.02"/>
</g>
<!-- Node7 -->
<g id="node7" class="node">
<title>Node7</title>
<g id="a_node7"><a xlink:title=" ">
<polygon fill="white" stroke="#bfbfbf" points="666,-6 666,-25 723,-25 723,-6 666,-6"/>
<text text-anchor="middle" x="694.5" y="-13" font-family="Helvetica,sans-Serif" font-size="10.00">Realm.h</text>
</a>
</g>
</g>
<!-- Node1&#45;&gt;Node7 -->
<g id="edge6" class="edge">
<title>Node1&#45;&gt;Node7</title>
<path fill="none" stroke="midnightblue" d="M1146.22,-75.49C1058.72,-73.62 879.6,-65.49 732.5,-31 729.5,-30.3 726.42,-29.41 723.38,-28.43"/>
<polygon fill="midnightblue" stroke="midnightblue" points="724.5,-25.12 713.91,-25.05 722.15,-31.71 724.5,-25.12"/>
</g>
<!-- Node8 -->
<g id="node8" class="node">
<title>Node8</title>
<g id="a_node8"><a xlink:title=" ">
<polygon fill="white" stroke="#bfbfbf" points="741.5,-6 741.5,-25 819.5,-25 819.5,-6 741.5,-6"/>
<text text-anchor="middle" x="780.5" y="-13" font-family="Helvetica,sans-Serif" font-size="10.00">Simulation.h</text>
</a>
</g>
</g>
<!-- Node1&#45;&gt;Node8 -->
<g id="edge7" class="edge">
<title>Node1&#45;&gt;Node8</title>
<path fill="none" stroke="midnightblue" d="M1146.19,-72.44C1073.7,-66.94 940.25,-54.47 828.5,-31 824.28,-30.11 819.9,-29.03 815.58,-27.85"/>
<polygon fill="midnightblue" stroke="midnightblue" points="816.28,-24.41 805.7,-25 814.34,-31.14 816.28,-24.41"/>
</g>
<!-- Node9 -->
<g id="node9" class="node">
<title>Node9</title>
<g id="a_node9"><a xlink:title=" ">
<polygon fill="white" stroke="#bfbfbf" points="838,-6 838,-25 941,-25 941,-6 838,-6"/>
<text text-anchor="middle" x="889.5" y="-13" font-family="Helvetica,sans-Serif" font-size="10.00">SolutionOptions.h</text>
</a>
</g>
</g>
<!-- Node1&#45;&gt;Node9 -->
<g id="edge8" class="edge">
<title>Node1&#45;&gt;Node9</title>
<path fill="none" stroke="midnightblue" d="M1147.36,-67.43C1096.87,-58.93 1018.22,-45.16 950.5,-31 945.11,-29.87 939.46,-28.62 933.87,-27.35"/>
<polygon fill="midnightblue" stroke="midnightblue" points="934.48,-23.89 923.94,-25.03 932.89,-30.71 934.48,-23.89"/>
</g>
<!-- Node10 -->
<g id="node10" class="node">
<title>Node10</title>
<g id="a_node10"><a xlink:title=" ">
<polygon fill="white" stroke="#bfbfbf" points="959.5,-6 959.5,-25 1047.5,-25 1047.5,-6 959.5,-6"/>
<text text-anchor="middle" x="1003.5" y="-13" font-family="Helvetica,sans-Serif" font-size="10.00">FieldTypeDef.h</text>
</a>
</g>
</g>
<!-- Node1&#45;&gt;Node10 -->
<g id="edge9" class="edge">
<title>Node1&#45;&gt;Node10</title>
<path fill="none" stroke="midnightblue" d="M1171.42,-67.48C1137.21,-57.09 1079.3,-39.51 1041.23,-27.95"/>
<polygon fill="midnightblue" stroke="midnightblue" points="1042.12,-24.56 1031.53,-25.01 1040.08,-31.26 1042.12,-24.56"/>
</g>
<!-- Node11 -->
<g id="node11" class="node">
<title>Node11</title>
<g id="a_node11"><a xlink:title=" ">
<polygon fill="white" stroke="#bfbfbf" points="1066,-6 1066,-25 1149,-25 1149,-6 1066,-6"/>
<text text-anchor="middle" x="1107.5" y="-13" font-family="Helvetica,sans-Serif" font-size="10.00">NaluParsing.h</text>
</a>
</g>
</g>
<!-- Node1&#45;&gt;Node11 -->
<g id="edge10" class="edge">
<title>Node1&#45;&gt;Node11</title>
<path fill="none" stroke="midnightblue" d="M1186.32,-67.48C1171.43,-57.84 1146.96,-42.02 1129.23,-30.55"/>
<polygon fill="midnightblue" stroke="midnightblue" points="1130.95,-27.5 1120.66,-25.01 1127.15,-33.38 1130.95,-27.5"/>
</g>
<!-- Node12 -->
<g id="node12" class="node">
<title>Node12</title>
<g id="a_node12"><a xlink:title=" ">
<polygon fill="white" stroke="#bfbfbf" points="1167,-6 1167,-25 1232,-25 1232,-6 1167,-6"/>
<text text-anchor="middle" x="1199.5" y="-13" font-family="Helvetica,sans-Serif" font-size="10.00">NaluEnv.h</text>
</a>
</g>
</g>
<!-- Node1&#45;&gt;Node12 -->
<g id="edge11" class="edge">
<title>Node1&#45;&gt;Node12</title>
<path fill="none" stroke="midnightblue" d="M1199.5,-67.48C1199.5,-59.08 1199.5,-45.98 1199.5,-35.16"/>
<polygon fill="midnightblue" stroke="midnightblue" points="1203,-35.01 1199.5,-25.01 1196,-35.01 1203,-35.01"/>
</g>
<!-- Node13 -->
<g id="node13" class="node">
<title>Node13</title>
<g id="a_node13"><a xlink:title=" ">
<polygon fill="white" stroke="#bfbfbf" points="1250.5,-6 1250.5,-25 1342.5,-25 1342.5,-6 1250.5,-6"/>
<text text-anchor="middle" x="1296.5" y="-13" font-family="Helvetica,sans-Serif" font-size="10.00">LinearSystem.h</text>
</a>
</g>
</g>
<!-- Node1&#45;&gt;Node13 -->
<g id="edge12" class="edge">
<title>Node1&#45;&gt;Node13</title>
<path fill="none" stroke="midnightblue" d="M1213.4,-67.48C1229.17,-57.8 1255.14,-41.87 1273.85,-30.39"/>
<polygon fill="midnightblue" stroke="midnightblue" points="1275.93,-33.22 1282.63,-25.01 1272.27,-27.25 1275.93,-33.22"/>
</g>
<!-- Node14 -->
<g id="node14" class="node">
<title>Node14</title>
<g id="a_node14"><a xlink:title=" ">
<polygon fill="white" stroke="#bfbfbf" points="1361,-6 1361,-25 1490,-25 1490,-6 1361,-6"/>
<text text-anchor="middle" x="1425.5" y="-13" font-family="Helvetica,sans-Serif" font-size="10.00">ConstantAuxFunction.h</text>
</a>
</g>
</g>
<!-- Node1&#45;&gt;Node14 -->
<g id="edge13" class="edge">
<title>Node1&#45;&gt;Node14</title>
<path fill="none" stroke="midnightblue" d="M1231.88,-67.48C1271.74,-56.98 1339.52,-39.14 1383.39,-27.59"/>
<polygon fill="midnightblue" stroke="midnightblue" points="1384.4,-30.94 1393.18,-25.01 1382.62,-24.17 1384.4,-30.94"/>
</g>
<!-- Node15 -->
<g id="node15" class="node">
<title>Node15</title>
<g id="a_node15"><a xlink:title=" ">
<polygon fill="white" stroke="#bfbfbf" points="1508,-6 1508,-25 1567,-25 1567,-6 1508,-6"/>
<text text-anchor="middle" x="1537.5" y="-13" font-family="Helvetica,sans-Serif" font-size="10.00">Enums.h</text>
</a>
</g>
</g>
<!-- Node1&#45;&gt;Node15 -->
<g id="edge14" class="edge">
<title>Node1&#45;&gt;Node15</title>
<path fill="none" stroke="midnightblue" d="M1252.76,-71.51C1313.29,-65.6 1414.68,-53.26 1499.5,-31 1502.16,-30.3 1504.89,-29.48 1507.61,-28.59"/>
<polygon fill="midnightblue" stroke="midnightblue" points="1509.01,-31.81 1517.25,-25.15 1506.66,-25.21 1509.01,-31.81"/>
</g>
<!-- Node16 -->
<g id="node16" class="node">
<title>Node16</title>
<g id="a_node16"><a xlink:title=" ">
<polygon fill="white" stroke="#bfbfbf" points="1585,-6 1585,-25 1726,-25 1726,-6 1585,-6"/>
<text text-anchor="middle" x="1655.5" y="-13" font-family="Helvetica,sans-Serif" font-size="10.00">kernel/KernelBuilderLog.h</text>
</a>
</g>
</g>
<!-- Node1&#45;&gt;Node16 -->
<g id="edge15" class="edge">
<title>Node1&#45;&gt;Node16</title>
<path fill="none" stroke="midnightblue" d="M1252.71,-70.71C1325.85,-63.2 1461.47,-48.4 1576.5,-31 1584.64,-29.77 1593.22,-28.34 1601.61,-26.86"/>
<polygon fill="midnightblue" stroke="midnightblue" points="1602.48,-30.26 1611.71,-25.04 1601.24,-23.37 1602.48,-30.26"/>
</g>
<!-- Node17 -->
<g id="node17" class="node">
<title>Node17</title>
<g id="a_node17"><a xlink:title=" ">
<polygon fill="white" stroke="#bfbfbf" points="1744,-0.5 1744,-30.5 1917,-30.5 1917,-0.5 1744,-0.5"/>
<text text-anchor="start" x="1752" y="-18.5" font-family="Helvetica,sans-Serif" font-size="10.00">overset/AssembleOversetSolver</text>
<text text-anchor="middle" x="1830.5" y="-7.5" font-family="Helvetica,sans-Serif" font-size="10.00">ConstraintAlgorithm.h</text>
</a>
</g>
</g>
<!-- Node1&#45;&gt;Node17 -->
<g id="edge16" class="edge">
<title>Node1&#45;&gt;Node17</title>
<path fill="none" stroke="midnightblue" d="M1252.87,-72.72C1347.65,-66.63 1551.75,-52.35 1733.79,-31.16"/>
<polygon fill="midnightblue" stroke="midnightblue" points="1734.29,-34.62 1743.81,-29.98 1733.47,-27.67 1734.29,-34.62"/>
</g>
<!-- Node18 -->
<g id="node18" class="node">
<title>Node18</title>
<g id="a_node18"><a xlink:title=" ">
<polygon fill="white" stroke="#bfbfbf" points="1935.5,-0.5 1935.5,-30.5 2129.5,-30.5 2129.5,-0.5 1935.5,-0.5"/>
<text text-anchor="start" x="1943.5" y="-18.5" font-family="Helvetica,sans-Serif" font-size="10.00">overset/AssembleOversetDecoupled</text>
<text text-anchor="middle" x="2032.5" y="-7.5" font-family="Helvetica,sans-Serif" font-size="10.00">Algorithm.h</text>
</a>
</g>
</g>
<!-- Node1&#45;&gt;Node18 -->
<g id="edge17" class="edge">
<title>Node1&#45;&gt;Node18</title>
<path fill="none" stroke="midnightblue" d="M1252.51,-74.07C1371.08,-69.45 1666.89,-56.32 1925.16,-31.08"/>
<polygon fill="midnightblue" stroke="midnightblue" points="1925.88,-34.53 1935.49,-30.06 1925.19,-27.56 1925.88,-34.53"/>
</g>
<!-- Node19 -->
<g id="node19" class="node">
<title>Node19</title>
<g id="a_node19"><a xlink:title=" ">
<polygon fill="white" stroke="#bfbfbf" points="2148,-6 2148,-25 2289,-25 2289,-6 2148,-6"/>
<text text-anchor="middle" x="2218.5" y="-13" font-family="Helvetica,sans-Serif" font-size="10.00">ngp_utils/NgpFieldBLAS.h</text>
</a>
</g>
</g>
<!-- Node1&#45;&gt;Node19 -->
<g id="edge18" class="edge">
<title>Node1&#45;&gt;Node19</title>
<path fill="none" stroke="midnightblue" d="M1252.64,-75.89C1396.06,-75.08 1802.84,-69.29 2138.5,-31 2147.77,-29.94 2157.58,-28.46 2167.05,-26.85"/>
<polygon fill="midnightblue" stroke="midnightblue" points="2167.9,-30.26 2177.13,-25.07 2166.67,-23.37 2167.9,-30.26"/>
</g>
<!-- Node20 -->
<g id="node20" class="node">
<title>Node20</title>
<g id="a_node20"><a xlink:title=" ">
<polygon fill="white" stroke="#bfbfbf" points="2307,-6 2307,-25 2444,-25 2444,-6 2307,-6"/>
<text text-anchor="middle" x="2375.5" y="-13" font-family="Helvetica,sans-Serif" font-size="10.00">stk_mesh/base/Field.hpp</text>
</a>
</g>
</g>
<!-- Node1&#45;&gt;Node20 -->
<g id="edge19" class="edge">
<title>Node1&#45;&gt;Node20</title>
<path fill="none" stroke="midnightblue" d="M1252.61,-76.55C1411.75,-77.62 1898.41,-76.62 2298.5,-31 2307.44,-29.98 2316.89,-28.52 2326,-26.92"/>
<polygon fill="midnightblue" stroke="midnightblue" points="2326.9,-30.31 2336.1,-25.06 2325.63,-23.43 2326.9,-30.31"/>
</g>
<!-- Node21 -->
<g id="node21" class="node">
<title>Node21</title>
<g id="a_node21"><a xlink:title=" ">
<polygon fill="white" stroke="#bfbfbf" points="2462.5,-6 2462.5,-25 2624.5,-25 2624.5,-6 2462.5,-6"/>
<text text-anchor="middle" x="2543.5" y="-13" font-family="Helvetica,sans-Serif" font-size="10.00">stk_mesh/base/MetaData.hpp</text>
</a>
</g>
</g>
<!-- Node1&#45;&gt;Node21 -->
<g id="edge20" class="edge">
<title>Node1&#45;&gt;Node21</title>
<path fill="none" stroke="midnightblue" d="M1252.52,-76.44C1425.64,-77.38 1989.8,-76.5 2453.5,-31 2464.47,-29.92 2476.14,-28.36 2487.31,-26.65"/>
<polygon fill="midnightblue" stroke="midnightblue" points="2488.07,-30.08 2497.39,-25.05 2486.97,-23.16 2488.07,-30.08"/>
</g>
<!-- Node22 -->
<g id="node22" class="node">
<title>Node22</title>
<g id="a_node22"><a xlink:title=" ">
<polygon fill="white" stroke="#bfbfbf" points="2643,-0.5 2643,-30.5 2774,-30.5 2774,-0.5 2643,-0.5"/>
<text text-anchor="start" x="2651" y="-18.5" font-family="Helvetica,sans-Serif" font-size="10.00">stk_util/parallel/Parallel</text>
<text text-anchor="middle" x="2708.5" y="-7.5" font-family="Helvetica,sans-Serif" font-size="10.00">Reduce.hpp</text>
</a>
</g>
</g>
<!-- Node1&#45;&gt;Node22 -->
<g id="edge21" class="edge">
<title>Node1&#45;&gt;Node22</title>
<path fill="none" stroke="midnightblue" d="M1252.59,-75.47C1475.53,-73.07 2337.57,-62.01 2632.49,-30.94"/>
<polygon fill="midnightblue" stroke="midnightblue" points="2633.18,-34.39 2642.74,-29.83 2632.42,-27.43 2633.18,-34.39"/>
</g>
</g>
</svg>
