<?xml version="1.0" encoding="UTF-8" standalone="no"?>
<!DOCTYPE svg PUBLIC "-//W3C//DTD SVG 1.1//EN"
 "http://www.w3.org/Graphics/SVG/1.1/DTD/svg11.dtd">
<!-- Generated by graphviz version 2.43.0 (0)
 -->
<!-- Title: ExtOverset.C Pages: 1 -->
<svg width="932pt" height="95pt"
 viewBox="0.00 0.00 932.00 95.00" xmlns="http://www.w3.org/2000/svg" xmlns:xlink="http://www.w3.org/1999/xlink">
<g id="graph0" class="graph" transform="scale(1 1) rotate(0) translate(4 91)">
<title>ExtOverset.C</title>
<polygon fill="white" stroke="transparent" points="-4,4 -4,-91 928,-91 928,4 -4,4"/>
<!-- Node1 -->
<g id="node1" class="node">
<title>Node1</title>
<g id="a_node1"><a xlink:title=" ">
<polygon fill="#bfbfbf" stroke="black" points="499.5,-67.5 499.5,-86.5 579.5,-86.5 579.5,-67.5 499.5,-67.5"/>
<text text-anchor="middle" x="539.5" y="-74.5" font-family="Helvetica,sans-Serif" font-size="10.00">ExtOverset.C</text>
</a>
</g>
</g>
<!-- Node2 -->
<g id="node2" class="node">
<title>Node2</title>
<g id="a_node2"><a xlink:title=" ">
<polygon fill="white" stroke="#bfbfbf" points="0,-6 0,-25 119,-25 119,-6 0,-6"/>
<text text-anchor="middle" x="59.5" y="-13" font-family="Helvetica,sans-Serif" font-size="10.00">overset/ExtOverset.h</text>
</a>
</g>
</g>
<!-- Node1&#45;&gt;Node2 -->
<g id="edge1" class="edge">
<title>Node1&#45;&gt;Node2</title>
<path fill="none" stroke="midnightblue" d="M499.36,-72.92C425.61,-66.97 263.71,-52.56 128.5,-31 121.6,-29.9 114.34,-28.57 107.23,-27.16"/>
<polygon fill="midnightblue" stroke="midnightblue" points="107.48,-23.64 96.98,-25.07 106.08,-30.5 107.48,-23.64"/>
</g>
<!-- Node3 -->
<g id="node3" class="node">
<title>Node3</title>
<g id="a_node3"><a xlink:title=" ">
<polygon fill="white" stroke="#bfbfbf" points="137.5,-6 137.5,-25 245.5,-25 245.5,-6 137.5,-6"/>
<text text-anchor="middle" x="191.5" y="-13" font-family="Helvetica,sans-Serif" font-size="10.00">overset/TiogaRef.h</text>
</a>
</g>
</g>
<!-- Node1&#45;&gt;Node3 -->
<g id="edge2" class="edge">
<title>Node1&#45;&gt;Node3</title>
<path fill="none" stroke="midnightblue" d="M499.23,-70.54C443.88,-62.84 341.3,-47.82 254.5,-31 248.71,-29.88 242.65,-28.61 236.66,-27.29"/>
<polygon fill="midnightblue" stroke="midnightblue" points="237.25,-23.84 226.73,-25.06 235.72,-30.67 237.25,-23.84"/>
</g>
<!-- Node4 -->
<g id="node4" class="node">
<title>Node4</title>
<g id="a_node4"><a xlink:title=" ">
<polygon fill="white" stroke="#bfbfbf" points="264,-6 264,-25 441,-25 441,-6 264,-6"/>
<text text-anchor="middle" x="352.5" y="-13" font-family="Helvetica,sans-Serif" font-size="10.00">overset/OversetManagerTIOGA.h</text>
</a>
</g>
</g>
<!-- Node1&#45;&gt;Node4 -->
<g id="edge3" class="edge">
<title>Node1&#45;&gt;Node4</title>
<path fill="none" stroke="midnightblue" d="M512.71,-67.48C480.21,-57.14 425.29,-39.66 388.96,-28.1"/>
<polygon fill="midnightblue" stroke="midnightblue" points="389.83,-24.71 379.24,-25.01 387.71,-31.38 389.83,-24.71"/>
</g>
<!-- Node5 -->
<g id="node5" class="node">
<title>Node5</title>
<g id="a_node5"><a xlink:title=" ">
<polygon fill="white" stroke="#bfbfbf" points="459.5,-0.5 459.5,-30.5 619.5,-30.5 619.5,-0.5 459.5,-0.5"/>
<text text-anchor="start" x="467.5" y="-18.5" font-family="Helvetica,sans-Serif" font-size="10.00">overset/UpdateOversetFringe</text>
<text text-anchor="middle" x="539.5" y="-7.5" font-family="Helvetica,sans-Serif" font-size="10.00">AlgorithmDriver.h</text>
</a>
</g>
</g>
<!-- Node1&#45;&gt;Node5 -->
<g id="edge4" class="edge">
<title>Node1&#45;&gt;Node5</title>
<path fill="none" stroke="midnightblue" d="M539.5,-67.48C539.5,-60.47 539.5,-50.19 539.5,-40.7"/>
<polygon fill="midnightblue" stroke="midnightblue" points="543,-40.52 539.5,-30.52 536,-40.52 543,-40.52"/>
</g>
<!-- Node6 -->
<g id="node6" class="node">
<title>Node6</title>
<g id="a_node6"><a xlink:title=" ">
<polygon fill="white" stroke="#bfbfbf" points="637.5,-6 637.5,-25 765.5,-25 765.5,-6 637.5,-6"/>
<text text-anchor="middle" x="701.5" y="-13" font-family="Helvetica,sans-Serif" font-size="10.00">overset/overset_utils.h</text>
</a>
</g>
</g>
<!-- Node1&#45;&gt;Node6 -->
<g id="edge5" class="edge">
<title>Node1&#45;&gt;Node6</title>
<path fill="none" stroke="midnightblue" d="M562.71,-67.48C590.5,-57.27 637.22,-40.11 668.69,-28.55"/>
<polygon fill="midnightblue" stroke="midnightblue" points="670.15,-31.74 678.33,-25.01 667.74,-25.17 670.15,-31.74"/>
</g>
<!-- Node7 -->
<g id="node7" class="node">
<title>Node7</title>
<g id="a_node7"><a xlink:title=" ">
<polygon fill="white" stroke="#bfbfbf" points="784,-6 784,-25 849,-25 849,-6 784,-6"/>
<text text-anchor="middle" x="816.5" y="-13" font-family="Helvetica,sans-Serif" font-size="10.00">NaluEnv.h</text>
</a>
</g>
</g>
<!-- Node1&#45;&gt;Node7 -->
<g id="edge6" class="edge">
<title>Node1&#45;&gt;Node7</title>
<path fill="none" stroke="midnightblue" d="M579.81,-70.08C626.94,-62.75 707.07,-49 774.5,-31 777.53,-30.19 780.66,-29.27 783.78,-28.3"/>
<polygon fill="midnightblue" stroke="midnightblue" points="785.17,-31.53 793.58,-25.08 782.98,-24.88 785.17,-31.53"/>
</g>
<!-- Node8 -->
<g id="node8" class="node">
<title>Node8</title>
<g id="a_node8"><a xlink:title=" ">
<polygon fill="white" stroke="#bfbfbf" points="867,-6 867,-25 924,-25 924,-6 867,-6"/>
<text text-anchor="middle" x="895.5" y="-13" font-family="Helvetica,sans-Serif" font-size="10.00">Realm.h</text>
</a>
</g>
</g>
<!-- Node1&#45;&gt;Node8 -->
<g id="edge7" class="edge">
<title>Node1&#45;&gt;Node8</title>
<path fill="none" stroke="midnightblue" d="M579.63,-73.36C640.68,-68.66 760.18,-56.82 858.5,-31 861.16,-30.3 863.89,-29.47 866.6,-28.56"/>
<polygon fill="midnightblue" stroke="midnightblue" points="868.01,-31.77 876.2,-25.05 865.6,-25.2 868.01,-31.77"/>
</g>
</g>
</svg>
