<?xml version="1.0" encoding="UTF-8" standalone="no"?>
<!DOCTYPE svg PUBLIC "-//W3C//DTD SVG 1.1//EN"
 "http://www.w3.org/Graphics/SVG/1.1/DTD/svg11.dtd">
<!-- Generated by graphviz version 2.43.0 (0)
 -->
<!-- Title: FSIturbine.C Pages: 1 -->
<svg width="2612pt" height="95pt"
 viewBox="0.00 0.00 2612.00 95.00" xmlns="http://www.w3.org/2000/svg" xmlns:xlink="http://www.w3.org/1999/xlink">
<g id="graph0" class="graph" transform="scale(1 1) rotate(0) translate(4 91)">
<title>FSIturbine.C</title>
<polygon fill="white" stroke="transparent" points="-4,4 -4,-91 2608,-91 2608,4 -4,4"/>
<!-- Node1 -->
<g id="node1" class="node">
<title>Node1</title>
<g id="a_node1"><a xlink:title=" ">
<polygon fill="#bfbfbf" stroke="black" points="1428.5,-67.5 1428.5,-86.5 1503.5,-86.5 1503.5,-67.5 1428.5,-67.5"/>
<text text-anchor="middle" x="1466" y="-74.5" font-family="Helvetica,sans-Serif" font-size="10.00">FSIturbine.C</text>
</a>
</g>
</g>
<!-- Node2 -->
<g id="node2" class="node">
<title>Node2</title>
<g id="a_node2"><a xlink:title=" ">
<polygon fill="white" stroke="#bfbfbf" points="0,-6 0,-25 114,-25 114,-6 0,-6"/>
<text text-anchor="middle" x="57" y="-13" font-family="Helvetica,sans-Serif" font-size="10.00">aero/fsi/FSIturbine.h</text>
</a>
</g>
</g>
<!-- Node1&#45;&gt;Node2 -->
<g id="edge1" class="edge">
<title>Node1&#45;&gt;Node2</title>
<path fill="none" stroke="midnightblue" d="M1428.32,-75.67C1238.48,-73.85 385.72,-63.98 123,-31 115.64,-30.08 107.88,-28.72 100.38,-27.21"/>
<polygon fill="midnightblue" stroke="midnightblue" points="100.88,-23.74 90.37,-25.07 99.42,-30.58 100.88,-23.74"/>
</g>
<!-- Node3 -->
<g id="node3" class="node">
<title>Node3</title>
<g id="a_node3"><a xlink:title=" ">
<polygon fill="white" stroke="#bfbfbf" points="132,-0.5 132,-30.5 274,-30.5 274,-0.5 132,-0.5"/>
<text text-anchor="start" x="140" y="-18.5" font-family="Helvetica,sans-Serif" font-size="10.00">aero/aero_utils/Deflection</text>
<text text-anchor="middle" x="203" y="-7.5" font-family="Helvetica,sans-Serif" font-size="10.00">Ramping.h</text>
</a>
</g>
</g>
<!-- Node1&#45;&gt;Node3 -->
<g id="edge2" class="edge">
<title>Node1&#45;&gt;Node3</title>
<path fill="none" stroke="midnightblue" d="M1428.27,-75.28C1254.91,-71.88 532.98,-56.5 284.1,-30.98"/>
<polygon fill="midnightblue" stroke="midnightblue" points="284.34,-27.48 274.02,-29.91 283.6,-34.44 284.34,-27.48"/>
</g>
<!-- Node4 -->
<g id="node4" class="node">
<title>Node4</title>
<g id="a_node4"><a xlink:title=" ">
<polygon fill="white" stroke="#bfbfbf" points="292,-6 292,-25 460,-25 460,-6 292,-6"/>
<text text-anchor="middle" x="376" y="-13" font-family="Helvetica,sans-Serif" font-size="10.00">aero/aero_utils/ForceMoment.h</text>
</a>
</g>
</g>
<!-- Node1&#45;&gt;Node4 -->
<g id="edge3" class="edge">
<title>Node1&#45;&gt;Node4</title>
<path fill="none" stroke="midnightblue" d="M1428.32,-75.78C1296.2,-74.71 841.82,-68.36 469,-31 457.68,-29.87 445.64,-28.28 434.11,-26.56"/>
<polygon fill="midnightblue" stroke="midnightblue" points="434.55,-23.09 424.14,-25.03 433.49,-30.01 434.55,-23.09"/>
</g>
<!-- Node5 -->
<g id="node5" class="node">
<title>Node5</title>
<g id="a_node5"><a xlink:title=" ">
<polygon fill="white" stroke="#bfbfbf" points="478,-6 478,-25 588,-25 588,-6 478,-6"/>
<text text-anchor="middle" x="533" y="-13" font-family="Helvetica,sans-Serif" font-size="10.00">aero/fsi/MapLoad.h</text>
</a>
</g>
</g>
<!-- Node1&#45;&gt;Node5 -->
<g id="edge4" class="edge">
<title>Node1&#45;&gt;Node5</title>
<path fill="none" stroke="midnightblue" d="M1428.09,-76.34C1306.58,-76.95 916.13,-75.08 597,-31 590.1,-30.05 582.85,-28.72 575.8,-27.26"/>
<polygon fill="midnightblue" stroke="midnightblue" points="576.21,-23.76 565.69,-25.04 574.71,-30.6 576.21,-23.76"/>
</g>
<!-- Node6 -->
<g id="node6" class="node">
<title>Node6</title>
<g id="a_node6"><a xlink:title=" ">
<polygon fill="white" stroke="#bfbfbf" points="606.5,-6 606.5,-25 743.5,-25 743.5,-6 606.5,-6"/>
<text text-anchor="middle" x="675" y="-13" font-family="Helvetica,sans-Serif" font-size="10.00">aero/aero_utils/Pt2Line.h</text>
</a>
</g>
</g>
<!-- Node1&#45;&gt;Node6 -->
<g id="edge5" class="edge">
<title>Node1&#45;&gt;Node6</title>
<path fill="none" stroke="midnightblue" d="M1428.36,-75.22C1321.94,-72.69 1009.95,-62.87 753,-31 744.16,-29.9 734.81,-28.44 725.77,-26.85"/>
<polygon fill="midnightblue" stroke="midnightblue" points="726.21,-23.38 715.74,-25.03 724.96,-30.26 726.21,-23.38"/>
</g>
<!-- Node7 -->
<g id="node7" class="node">
<title>Node7</title>
<g id="a_node7"><a xlink:title=" ">
<polygon fill="white" stroke="#bfbfbf" points="762,-6 762,-25 942,-25 942,-6 762,-6"/>
<text text-anchor="middle" x="852" y="-13" font-family="Helvetica,sans-Serif" font-size="10.00">utils/ComputeVectorDivergence.h</text>
</a>
</g>
</g>
<!-- Node1&#45;&gt;Node7 -->
<g id="edge6" class="edge">
<title>Node1&#45;&gt;Node7</title>
<path fill="none" stroke="midnightblue" d="M1428.45,-73.47C1343.33,-67.58 1129.29,-51.83 951,-31 939.72,-29.68 927.75,-28.09 916.18,-26.46"/>
<polygon fill="midnightblue" stroke="midnightblue" points="916.53,-22.97 906.13,-25.01 915.53,-29.9 916.53,-22.97"/>
</g>
<!-- Node8 -->
<g id="node8" class="node">
<title>Node8</title>
<g id="a_node8"><a xlink:title=" ">
<polygon fill="white" stroke="#bfbfbf" points="960.5,-6 960.5,-25 1025.5,-25 1025.5,-6 960.5,-6"/>
<text text-anchor="middle" x="993" y="-13" font-family="Helvetica,sans-Serif" font-size="10.00">NaluEnv.h</text>
</a>
</g>
</g>
<!-- Node1&#45;&gt;Node8 -->
<g id="edge7" class="edge">
<title>Node1&#45;&gt;Node8</title>
<path fill="none" stroke="midnightblue" d="M1428.25,-75.05C1352.56,-72.51 1177.25,-63.31 1034,-31 1030.76,-30.27 1027.42,-29.36 1024.12,-28.36"/>
<polygon fill="midnightblue" stroke="midnightblue" points="1025.02,-24.97 1014.42,-25.15 1022.82,-31.61 1025.02,-24.97"/>
</g>
<!-- Node9 -->
<g id="node9" class="node">
<title>Node9</title>
<g id="a_node9"><a xlink:title=" ">
<polygon fill="white" stroke="#bfbfbf" points="1043.5,-6 1043.5,-25 1126.5,-25 1126.5,-6 1043.5,-6"/>
<text text-anchor="middle" x="1085" y="-13" font-family="Helvetica,sans-Serif" font-size="10.00">NaluParsing.h</text>
</a>
</g>
</g>
<!-- Node1&#45;&gt;Node9 -->
<g id="edge8" class="edge">
<title>Node1&#45;&gt;Node9</title>
<path fill="none" stroke="midnightblue" d="M1428.46,-72.71C1366.76,-66.9 1240.24,-53.29 1135,-31 1130.6,-30.07 1126.03,-28.95 1121.51,-27.76"/>
<polygon fill="midnightblue" stroke="midnightblue" points="1122.38,-24.37 1111.8,-25.06 1120.5,-31.11 1122.38,-24.37"/>
</g>
<!-- Node10 -->
<g id="node10" class="node">
<title>Node10</title>
<g id="a_node10"><a xlink:title=" ">
<polygon fill="white" stroke="#bfbfbf" points="1144.5,-0.5 1144.5,-30.5 1275.5,-30.5 1275.5,-0.5 1144.5,-0.5"/>
<text text-anchor="start" x="1152.5" y="-18.5" font-family="Helvetica,sans-Serif" font-size="10.00">stk_util/parallel/Parallel</text>
<text text-anchor="middle" x="1210" y="-7.5" font-family="Helvetica,sans-Serif" font-size="10.00">Reduce.hpp</text>
</a>
</g>
</g>
<!-- Node1&#45;&gt;Node10 -->
<g id="edge9" class="edge">
<title>Node1&#45;&gt;Node10</title>
<path fill="none" stroke="midnightblue" d="M1429.32,-67.48C1390.52,-58.46 1328.35,-44.01 1280.1,-32.79"/>
<polygon fill="midnightblue" stroke="midnightblue" points="1280.87,-29.38 1270.33,-30.52 1279.28,-36.2 1280.87,-29.38"/>
</g>
<!-- Node11 -->
<g id="node11" class="node">
<title>Node11</title>
<g id="a_node11"><a xlink:title=" ">
<polygon fill="white" stroke="#bfbfbf" points="1293.5,-6 1293.5,-25 1466.5,-25 1466.5,-6 1293.5,-6"/>
<text text-anchor="middle" x="1380" y="-13" font-family="Helvetica,sans-Serif" font-size="10.00">stk_mesh/base/FieldParallel.hpp</text>
</a>
</g>
</g>
<!-- Node1&#45;&gt;Node11 -->
<g id="edge10" class="edge">
<title>Node1&#45;&gt;Node11</title>
<path fill="none" stroke="midnightblue" d="M1453.68,-67.48C1439.88,-57.93 1417.3,-42.31 1400.77,-30.87"/>
<polygon fill="midnightblue" stroke="midnightblue" points="1402.51,-27.82 1392.3,-25.01 1398.53,-33.58 1402.51,-27.82"/>
</g>
<!-- Node12 -->
<g id="node12" class="node">
<title>Node12</title>
<g id="a_node12"><a xlink:title=" ">
<polygon fill="white" stroke="#bfbfbf" points="1484.5,-6 1484.5,-25 1621.5,-25 1621.5,-6 1484.5,-6"/>
<text text-anchor="middle" x="1553" y="-13" font-family="Helvetica,sans-Serif" font-size="10.00">stk_mesh/base/Field.hpp</text>
</a>
</g>
</g>
<!-- Node1&#45;&gt;Node12 -->
<g id="edge11" class="edge">
<title>Node1&#45;&gt;Node12</title>
<path fill="none" stroke="midnightblue" d="M1478.46,-67.48C1492.42,-57.93 1515.26,-42.31 1531.99,-30.87"/>
<polygon fill="midnightblue" stroke="midnightblue" points="1534.28,-33.54 1540.56,-25.01 1530.33,-27.77 1534.28,-33.54"/>
</g>
<!-- Node13 -->
<g id="node13" class="node">
<title>Node13</title>
<g id="a_node13"><a xlink:title=" ">
<polygon fill="white" stroke="#bfbfbf" points="1639.5,-6 1639.5,-25 1766.5,-25 1766.5,-6 1639.5,-6"/>
<text text-anchor="middle" x="1703" y="-13" font-family="Helvetica,sans-Serif" font-size="10.00">stk_math/StkMath.hpp</text>
</a>
</g>
</g>
<!-- Node1&#45;&gt;Node13 -->
<g id="edge12" class="edge">
<title>Node1&#45;&gt;Node13</title>
<path fill="none" stroke="midnightblue" d="M1499.96,-67.48C1541.84,-56.96 1613.13,-39.06 1659.13,-27.51"/>
<polygon fill="midnightblue" stroke="midnightblue" points="1660.26,-30.84 1669.11,-25.01 1658.56,-24.05 1660.26,-30.84"/>
</g>
<!-- Node14 -->
<g id="node14" class="node">
<title>Node14</title>
<g id="a_node14"><a xlink:title=" ">
<polygon fill="white" stroke="#bfbfbf" points="1784.5,-6 1784.5,-25 1967.5,-25 1967.5,-6 1784.5,-6"/>
<text text-anchor="middle" x="1876" y="-13" font-family="Helvetica,sans-Serif" font-size="10.00">master_element/MasterElement.h</text>
</a>
</g>
</g>
<!-- Node1&#45;&gt;Node14 -->
<g id="edge13" class="edge">
<title>Node1&#45;&gt;Node14</title>
<path fill="none" stroke="midnightblue" d="M1503.84,-70.51C1572.87,-60.49 1720.14,-39.12 1807.3,-26.47"/>
<polygon fill="midnightblue" stroke="midnightblue" points="1807.97,-29.91 1817.37,-25.01 1806.97,-22.98 1807.97,-29.91"/>
</g>
<!-- Node15 -->
<g id="node15" class="node">
<title>Node15</title>
<g id="a_node15"><a xlink:title=" ">
<polygon fill="white" stroke="#bfbfbf" points="1986,-0.5 1986,-30.5 2160,-30.5 2160,-0.5 1986,-0.5"/>
<text text-anchor="start" x="1994" y="-18.5" font-family="Helvetica,sans-Serif" font-size="10.00">master_element/MasterElement</text>
<text text-anchor="middle" x="2073" y="-7.5" font-family="Helvetica,sans-Serif" font-size="10.00">Repo.h</text>
</a>
</g>
</g>
<!-- Node1&#45;&gt;Node15 -->
<g id="edge14" class="edge">
<title>Node1&#45;&gt;Node15</title>
<path fill="none" stroke="midnightblue" d="M1503.59,-73.49C1586.74,-67.77 1792.74,-52.66 1975.83,-31.09"/>
<polygon fill="midnightblue" stroke="midnightblue" points="1976.39,-34.55 1985.91,-29.9 1975.57,-27.6 1976.39,-34.55"/>
</g>
<!-- Node16 -->
<g id="node16" class="node">
<title>Node16</title>
<g id="a_node16"><a xlink:title=" ">
<polygon fill="white" stroke="#bfbfbf" points="2178,-6 2178,-25 2234,-25 2234,-6 2178,-6"/>
<text text-anchor="middle" x="2206" y="-13" font-family="Helvetica,sans-Serif" font-size="10.00">netcdf.h</text>
</a>
</g>
</g>
<!-- Node1&#45;&gt;Node16 -->
<g id="edge15" class="edge">
<title>Node1&#45;&gt;Node16</title>
<path fill="none" stroke="midnightblue" d="M1503.56,-75.12C1630.14,-71.93 2040.36,-59.59 2169,-31 2172,-30.33 2175.08,-29.46 2178.12,-28.47"/>
<polygon fill="midnightblue" stroke="midnightblue" points="2179.34,-31.75 2187.53,-25.03 2176.94,-25.17 2179.34,-31.75"/>
</g>
<!-- Node17 -->
<g id="node17" class="node">
<title>Node17</title>
<g id="a_node17"><a xlink:title=" ">
<polygon fill="white" stroke="#bfbfbf" points="2252.5,-6 2252.5,-25 2299.5,-25 2299.5,-6 2252.5,-6"/>
<text text-anchor="middle" x="2276" y="-13" font-family="Helvetica,sans-Serif" font-size="10.00">cmath</text>
</a>
</g>
</g>
<!-- Node1&#45;&gt;Node17 -->
<g id="edge16" class="edge">
<title>Node1&#45;&gt;Node17</title>
<path fill="none" stroke="midnightblue" d="M1503.74,-75.58C1639.16,-73.81 2100.13,-65.35 2243,-31 2245.36,-30.43 2247.77,-29.7 2250.14,-28.88"/>
<polygon fill="midnightblue" stroke="midnightblue" points="2251.64,-32.05 2259.61,-25.07 2249.03,-25.55 2251.64,-32.05"/>
</g>
<!-- Node18 -->
<g id="node18" class="node">
<title>Node18</title>
<g id="a_node18"><a xlink:title=" ">
<polygon fill="white" stroke="#bfbfbf" points="2318,-6 2318,-25 2382,-25 2382,-6 2318,-6"/>
<text text-anchor="middle" x="2350" y="-13" font-family="Helvetica,sans-Serif" font-size="10.00">algorithm</text>
</a>
</g>
</g>
<!-- Node1&#45;&gt;Node18 -->
<g id="edge17" class="edge">
<title>Node1&#45;&gt;Node18</title>
<path fill="none" stroke="midnightblue" d="M1503.88,-75.42C1646.57,-73 2151.61,-62.35 2309,-31 2312.51,-30.3 2316.13,-29.36 2319.7,-28.3"/>
<polygon fill="midnightblue" stroke="midnightblue" points="2321.08,-31.53 2329.47,-25.06 2318.87,-24.88 2321.08,-31.53"/>
</g>
<!-- Node19 -->
<g id="node19" class="node">
<title>Node19</title>
<g id="a_node19"><a xlink:title=" ">
<polygon fill="white" stroke="#bfbfbf" points="2400.5,-6 2400.5,-25 2455.5,-25 2455.5,-6 2400.5,-6"/>
<text text-anchor="middle" x="2428" y="-13" font-family="Helvetica,sans-Serif" font-size="10.00">fstream</text>
</a>
</g>
</g>
<!-- Node1&#45;&gt;Node19 -->
<g id="edge18" class="edge">
<title>Node1&#45;&gt;Node19</title>
<path fill="none" stroke="midnightblue" d="M1503.66,-75.79C1654.77,-74.71 2217.38,-68.2 2391,-31 2394.01,-30.36 2397.09,-29.5 2400.13,-28.52"/>
<polygon fill="midnightblue" stroke="midnightblue" points="2401.34,-31.8 2409.54,-25.09 2398.95,-25.22 2401.34,-31.8"/>
</g>
<!-- Node20 -->
<g id="node20" class="node">
<title>Node20</title>
<g id="a_node20"><a xlink:title=" ">
<polygon fill="white" stroke="#bfbfbf" points="2474,-6 2474,-25 2530,-25 2530,-6 2474,-6"/>
<text text-anchor="middle" x="2502" y="-13" font-family="Helvetica,sans-Serif" font-size="10.00">sstream</text>
</a>
</g>
</g>
<!-- Node1&#45;&gt;Node20 -->
<g id="edge19" class="edge">
<title>Node1&#45;&gt;Node20</title>
<path fill="none" stroke="midnightblue" d="M1503.67,-75.95C1662.28,-75.48 2276.28,-71.08 2465,-31 2468.01,-30.36 2471.09,-29.51 2474.13,-28.53"/>
<polygon fill="midnightblue" stroke="midnightblue" points="2475.34,-31.81 2483.55,-25.1 2472.95,-25.23 2475.34,-31.81"/>
</g>
<!-- Node21 -->
<g id="node21" class="node">
<title>Node21</title>
<g id="a_node21"><a xlink:title=" ">
<polygon fill="white" stroke="#bfbfbf" points="2548,-6 2548,-25 2604,-25 2604,-6 2548,-6"/>
<text text-anchor="middle" x="2576" y="-13" font-family="Helvetica,sans-Serif" font-size="10.00">iomanip</text>
</a>
</g>
</g>
<!-- Node1&#45;&gt;Node21 -->
<g id="edge20" class="edge">
<title>Node1&#45;&gt;Node21</title>
<path fill="none" stroke="midnightblue" d="M1503.63,-76.09C1669.38,-76.21 2335.12,-73.97 2539,-31 2542.01,-30.37 2545.09,-29.51 2548.13,-28.54"/>
<polygon fill="midnightblue" stroke="midnightblue" points="2549.34,-31.82 2557.55,-25.12 2546.95,-25.24 2549.34,-31.82"/>
</g>
</g>
</svg>
