<?xml version="1.0" encoding="UTF-8" standalone="no"?>
<!DOCTYPE svg PUBLIC "-//W3C//DTD SVG 1.1//EN"
 "http://www.w3.org/Graphics/SVG/1.1/DTD/svg11.dtd">
<!-- Generated by graphviz version 2.43.0 (0)
 -->
<!-- Title: FieldUpdateAlgDriver.C Pages: 1 -->
<svg width="1067pt" height="95pt"
 viewBox="0.00 0.00 1066.50 95.00" xmlns="http://www.w3.org/2000/svg" xmlns:xlink="http://www.w3.org/1999/xlink">
<g id="graph0" class="graph" transform="scale(1 1) rotate(0) translate(4 91)">
<title>FieldUpdateAlgDriver.C</title>
<polygon fill="white" stroke="transparent" points="-4,4 -4,-91 1062.5,-91 1062.5,4 -4,4"/>
<!-- Node1 -->
<g id="node1" class="node">
<title>Node1</title>
<g id="a_node1"><a xlink:title=" ">
<polygon fill="#bfbfbf" stroke="black" points="424,-67.5 424,-86.5 554,-86.5 554,-67.5 424,-67.5"/>
<text text-anchor="middle" x="489" y="-74.5" font-family="Helvetica,sans-Serif" font-size="10.00">FieldUpdateAlgDriver.C</text>
</a>
</g>
</g>
<!-- Node2 -->
<g id="node2" class="node">
<title>Node2</title>
<g id="a_node2"><a xlink:title=" ">
<polygon fill="white" stroke="#bfbfbf" points="0,-0.5 0,-30.5 154,-30.5 154,-0.5 0,-0.5"/>
<text text-anchor="start" x="8" y="-18.5" font-family="Helvetica,sans-Serif" font-size="10.00">ngp_algorithms/FieldUpdate</text>
<text text-anchor="middle" x="77" y="-7.5" font-family="Helvetica,sans-Serif" font-size="10.00">AlgDriver.h</text>
</a>
</g>
</g>
<!-- Node1&#45;&gt;Node2 -->
<g id="edge1" class="edge">
<title>Node1&#45;&gt;Node2</title>
<path fill="none" stroke="midnightblue" d="M423.97,-67.6C360.36,-59.26 260.47,-45.81 164.51,-31.21"/>
<polygon fill="midnightblue" stroke="midnightblue" points="164.75,-27.7 154.34,-29.65 163.69,-34.62 164.75,-27.7"/>
</g>
<!-- Node3 -->
<g id="node3" class="node">
<title>Node3</title>
<g id="a_node3"><a xlink:title=" ">
<polygon fill="white" stroke="#bfbfbf" points="172.5,-6 172.5,-25 229.5,-25 229.5,-6 172.5,-6"/>
<text text-anchor="middle" x="201" y="-13" font-family="Helvetica,sans-Serif" font-size="10.00">Realm.h</text>
</a>
</g>
</g>
<!-- Node1&#45;&gt;Node3 -->
<g id="edge2" class="edge">
<title>Node1&#45;&gt;Node3</title>
<path fill="none" stroke="midnightblue" d="M423.99,-67.91C372.84,-60.7 300.09,-48.55 238,-31 235.41,-30.27 232.76,-29.42 230.11,-28.52"/>
<polygon fill="midnightblue" stroke="midnightblue" points="231.32,-25.23 220.73,-25.06 228.9,-31.8 231.32,-25.23"/>
</g>
<!-- Node4 -->
<g id="node4" class="node">
<title>Node4</title>
<g id="a_node4"><a xlink:title=" ">
<polygon fill="white" stroke="#bfbfbf" points="247.5,-6 247.5,-25 384.5,-25 384.5,-6 247.5,-6"/>
<text text-anchor="middle" x="316" y="-13" font-family="Helvetica,sans-Serif" font-size="10.00">stk_mesh/base/Field.hpp</text>
</a>
</g>
</g>
<!-- Node1&#45;&gt;Node4 -->
<g id="edge3" class="edge">
<title>Node1&#45;&gt;Node4</title>
<path fill="none" stroke="midnightblue" d="M464.21,-67.48C434.41,-57.22 384.21,-39.96 350.6,-28.4"/>
<polygon fill="midnightblue" stroke="midnightblue" points="351.34,-24.95 340.74,-25.01 349.06,-31.57 351.34,-24.95"/>
</g>
<!-- Node5 -->
<g id="node5" class="node">
<title>Node5</title>
<g id="a_node5"><a xlink:title=" ">
<polygon fill="white" stroke="#bfbfbf" points="402.5,-6 402.5,-25 575.5,-25 575.5,-6 402.5,-6"/>
<text text-anchor="middle" x="489" y="-13" font-family="Helvetica,sans-Serif" font-size="10.00">stk_mesh/base/FieldParallel.hpp</text>
</a>
</g>
</g>
<!-- Node1&#45;&gt;Node5 -->
<g id="edge4" class="edge">
<title>Node1&#45;&gt;Node5</title>
<path fill="none" stroke="midnightblue" d="M489,-67.48C489,-59.08 489,-45.98 489,-35.16"/>
<polygon fill="midnightblue" stroke="midnightblue" points="492.5,-35.01 489,-25.01 485.5,-35.01 492.5,-35.01"/>
</g>
<!-- Node6 -->
<g id="node6" class="node">
<title>Node6</title>
<g id="a_node6"><a xlink:title=" ">
<polygon fill="white" stroke="#bfbfbf" points="593.5,-6 593.5,-25 756.5,-25 756.5,-6 593.5,-6"/>
<text text-anchor="middle" x="675" y="-13" font-family="Helvetica,sans-Serif" font-size="10.00">stk_mesh/base/FieldBLAS.hpp</text>
</a>
</g>
</g>
<!-- Node1&#45;&gt;Node6 -->
<g id="edge5" class="edge">
<title>Node1&#45;&gt;Node6</title>
<path fill="none" stroke="midnightblue" d="M515.65,-67.48C547.97,-57.14 602.6,-39.66 638.73,-28.1"/>
<polygon fill="midnightblue" stroke="midnightblue" points="639.94,-31.39 648.4,-25.01 637.81,-24.72 639.94,-31.39"/>
</g>
<!-- Node7 -->
<g id="node7" class="node">
<title>Node7</title>
<g id="a_node7"><a xlink:title=" ">
<polygon fill="white" stroke="#bfbfbf" points="775,-6 775,-25 937,-25 937,-6 775,-6"/>
<text text-anchor="middle" x="856" y="-13" font-family="Helvetica,sans-Serif" font-size="10.00">stk_mesh/base/MetaData.hpp</text>
</a>
</g>
</g>
<!-- Node1&#45;&gt;Node7 -->
<g id="edge6" class="edge">
<title>Node1&#45;&gt;Node7</title>
<path fill="none" stroke="midnightblue" d="M541.58,-67.48C608.08,-56.69 722.43,-38.15 793.37,-26.65"/>
<polygon fill="midnightblue" stroke="midnightblue" points="794.2,-30.06 803.52,-25.01 793.08,-23.15 794.2,-30.06"/>
</g>
<!-- Node8 -->
<g id="node8" class="node">
<title>Node8</title>
<g id="a_node8"><a xlink:title=" ">
<polygon fill="white" stroke="#bfbfbf" points="955.5,-6 955.5,-25 1058.5,-25 1058.5,-6 955.5,-6"/>
<text text-anchor="middle" x="1007" y="-13" font-family="Helvetica,sans-Serif" font-size="10.00">utils/StkHelpers.h</text>
</a>
</g>
</g>
<!-- Node1&#45;&gt;Node8 -->
<g id="edge7" class="edge">
<title>Node1&#45;&gt;Node8</title>
<path fill="none" stroke="midnightblue" d="M554.07,-72.37C643.04,-66.78 807.41,-54.19 946,-31 951.98,-30 958.25,-28.75 964.4,-27.4"/>
<polygon fill="midnightblue" stroke="midnightblue" points="965.59,-30.72 974.56,-25.07 964.03,-23.89 965.59,-30.72"/>
</g>
</g>
</svg>
