<?xml version="1.0" encoding="UTF-8" standalone="no"?>
<!DOCTYPE svg PUBLIC "-//W3C//DTD SVG 1.1//EN"
 "http://www.w3.org/Graphics/SVG/1.1/DTD/svg11.dtd">
<!-- Generated by graphviz version 2.43.0 (0)
 -->
<!-- Title: FieldFunctions.C Pages: 1 -->
<svg width="1375pt" height="84pt"
 viewBox="0.00 0.00 1374.50 84.00" xmlns="http://www.w3.org/2000/svg" xmlns:xlink="http://www.w3.org/1999/xlink">
<g id="graph0" class="graph" transform="scale(1 1) rotate(0) translate(4 80)">
<title>FieldFunctions.C</title>
<polygon fill="white" stroke="transparent" points="-4,4 -4,-80 1370.5,-80 1370.5,4 -4,4"/>
<!-- Node1 -->
<g id="node1" class="node">
<title>Node1</title>
<g id="a_node1"><a xlink:title=" ">
<polygon fill="#bfbfbf" stroke="black" points="664.5,-56.5 664.5,-75.5 760.5,-75.5 760.5,-56.5 664.5,-56.5"/>
<text text-anchor="middle" x="712.5" y="-63.5" font-family="Helvetica,sans-Serif" font-size="10.00">FieldFunctions.C</text>
</a>
</g>
</g>
<!-- Node2 -->
<g id="node2" class="node">
<title>Node2</title>
<g id="a_node2"><a xlink:title=" ">
<polygon fill="white" stroke="#bfbfbf" points="0,-0.5 0,-19.5 95,-19.5 95,-0.5 0,-0.5"/>
<text text-anchor="middle" x="47.5" y="-7.5" font-family="Helvetica,sans-Serif" font-size="10.00">FieldFunctions.h</text>
</a>
</g>
</g>
<!-- Node1&#45;&gt;Node2 -->
<g id="edge1" class="edge">
<title>Node1&#45;&gt;Node2</title>
<path fill="none" stroke="midnightblue" d="M664.21,-62.84C562.63,-57.99 319.23,-44.77 105.29,-20.12"/>
<polygon fill="midnightblue" stroke="midnightblue" points="105.46,-16.62 95.12,-18.94 104.65,-23.57 105.46,-16.62"/>
</g>
<!-- Node3 -->
<g id="node3" class="node">
<title>Node3</title>
<g id="a_node3"><a xlink:title=" ">
<polygon fill="white" stroke="#bfbfbf" points="113,-0.5 113,-19.5 272,-19.5 272,-0.5 113,-0.5"/>
<text text-anchor="middle" x="192.5" y="-7.5" font-family="Helvetica,sans-Serif" font-size="10.00">stk_mesh/base/BulkData.hpp</text>
</a>
</g>
</g>
<!-- Node1&#45;&gt;Node3 -->
<g id="edge2" class="edge">
<title>Node1&#45;&gt;Node3</title>
<path fill="none" stroke="midnightblue" d="M664.05,-59.97C577.01,-50.93 392.96,-31.82 282.3,-20.33"/>
<polygon fill="midnightblue" stroke="midnightblue" points="282.46,-16.82 272.15,-19.27 281.74,-23.79 282.46,-16.82"/>
</g>
<!-- Node4 -->
<g id="node4" class="node">
<title>Node4</title>
<g id="a_node4"><a xlink:title=" ">
<polygon fill="white" stroke="#bfbfbf" points="290,-0.5 290,-19.5 437,-19.5 437,-0.5 290,-0.5"/>
<text text-anchor="middle" x="363.5" y="-7.5" font-family="Helvetica,sans-Serif" font-size="10.00">stk_mesh/base/Bucket.hpp</text>
</a>
</g>
</g>
<!-- Node1&#45;&gt;Node4 -->
<g id="edge3" class="edge">
<title>Node1&#45;&gt;Node4</title>
<path fill="none" stroke="midnightblue" d="M664.34,-57.55C603.16,-48.08 497.31,-31.7 428.87,-21.11"/>
<polygon fill="midnightblue" stroke="midnightblue" points="429.06,-17.6 418.64,-19.53 427.98,-24.52 429.06,-17.6"/>
</g>
<!-- Node5 -->
<g id="node5" class="node">
<title>Node5</title>
<g id="a_node5"><a xlink:title=" ">
<polygon fill="white" stroke="#bfbfbf" points="455.5,-0.5 455.5,-19.5 617.5,-19.5 617.5,-0.5 455.5,-0.5"/>
<text text-anchor="middle" x="536.5" y="-7.5" font-family="Helvetica,sans-Serif" font-size="10.00">stk_mesh/base/MetaData.hpp</text>
</a>
</g>
</g>
<!-- Node1&#45;&gt;Node5 -->
<g id="edge4" class="edge">
<title>Node1&#45;&gt;Node5</title>
<path fill="none" stroke="midnightblue" d="M684.61,-56.44C654.75,-47.28 607.19,-32.69 574.04,-22.52"/>
<polygon fill="midnightblue" stroke="midnightblue" points="574.84,-19.1 564.26,-19.52 572.79,-25.8 574.84,-19.1"/>
</g>
<!-- Node6 -->
<g id="node6" class="node">
<title>Node6</title>
<g id="a_node6"><a xlink:title=" ">
<polygon fill="white" stroke="#bfbfbf" points="636,-0.5 636,-19.5 789,-19.5 789,-0.5 636,-0.5"/>
<text text-anchor="middle" x="712.5" y="-7.5" font-family="Helvetica,sans-Serif" font-size="10.00">stk_mesh/base/Selector.hpp</text>
</a>
</g>
</g>
<!-- Node1&#45;&gt;Node6 -->
<g id="edge5" class="edge">
<title>Node1&#45;&gt;Node6</title>
<path fill="none" stroke="midnightblue" d="M712.5,-56.08C712.5,-49.01 712.5,-38.86 712.5,-29.99"/>
<polygon fill="midnightblue" stroke="midnightblue" points="716,-29.75 712.5,-19.75 709,-29.75 716,-29.75"/>
</g>
<!-- Node7 -->
<g id="node7" class="node">
<title>Node7</title>
<g id="a_node7"><a xlink:title=" ">
<polygon fill="white" stroke="#bfbfbf" points="807.5,-0.5 807.5,-19.5 977.5,-19.5 977.5,-0.5 807.5,-0.5"/>
<text text-anchor="middle" x="892.5" y="-7.5" font-family="Helvetica,sans-Serif" font-size="10.00">stk_mesh/base/GetBuckets.hpp</text>
</a>
</g>
</g>
<!-- Node1&#45;&gt;Node7 -->
<g id="edge6" class="edge">
<title>Node1&#45;&gt;Node7</title>
<path fill="none" stroke="midnightblue" d="M741.02,-56.44C771.57,-47.28 820.21,-32.69 854.1,-22.52"/>
<polygon fill="midnightblue" stroke="midnightblue" points="855.54,-25.74 864.11,-19.52 853.53,-19.04 855.54,-25.74"/>
</g>
<!-- Node8 -->
<g id="node8" class="node">
<title>Node8</title>
<g id="a_node8"><a xlink:title=" ">
<polygon fill="white" stroke="#bfbfbf" points="996,-0.5 996,-19.5 1129,-19.5 1129,-0.5 996,-0.5"/>
<text text-anchor="middle" x="1062.5" y="-7.5" font-family="Helvetica,sans-Serif" font-size="10.00">stk_mesh/base/Part.hpp</text>
</a>
</g>
</g>
<!-- Node1&#45;&gt;Node8 -->
<g id="edge7" class="edge">
<title>Node1&#45;&gt;Node8</title>
<path fill="none" stroke="midnightblue" d="M760.8,-57.55C822.16,-48.08 928.31,-31.7 996.94,-21.11"/>
<polygon fill="midnightblue" stroke="midnightblue" points="997.86,-24.52 1007.2,-19.53 996.79,-17.6 997.86,-24.52"/>
</g>
<!-- Node9 -->
<g id="node9" class="node">
<title>Node9</title>
<g id="a_node9"><a xlink:title=" ">
<polygon fill="white" stroke="#bfbfbf" points="1147,-0.5 1147,-19.5 1284,-19.5 1284,-0.5 1147,-0.5"/>
<text text-anchor="middle" x="1215.5" y="-7.5" font-family="Helvetica,sans-Serif" font-size="10.00">stk_mesh/base/Field.hpp</text>
</a>
</g>
</g>
<!-- Node1&#45;&gt;Node9 -->
<g id="edge8" class="edge">
<title>Node1&#45;&gt;Node9</title>
<path fill="none" stroke="midnightblue" d="M760.75,-60.08C837.89,-52.17 994.03,-36.01 1136.43,-20.22"/>
<polygon fill="midnightblue" stroke="midnightblue" points="1137.11,-23.67 1146.66,-19.08 1136.33,-16.71 1137.11,-23.67"/>
</g>
<!-- Node10 -->
<g id="node10" class="node">
<title>Node10</title>
<g id="a_node10"><a xlink:title=" ">
<polygon fill="white" stroke="#bfbfbf" points="1302.5,-0.5 1302.5,-19.5 1366.5,-19.5 1366.5,-0.5 1302.5,-0.5"/>
<text text-anchor="middle" x="1334.5" y="-7.5" font-family="Helvetica,sans-Serif" font-size="10.00">algorithm</text>
</a>
</g>
</g>
<!-- Node1&#45;&gt;Node10 -->
<g id="edge9" class="edge">
<title>Node1&#45;&gt;Node10</title>
<path fill="none" stroke="midnightblue" d="M760.58,-63.53C858.77,-60.05 1089.49,-49.37 1292.4,-19.96"/>
<polygon fill="midnightblue" stroke="midnightblue" points="1292.96,-23.42 1302.35,-18.5 1291.95,-16.49 1292.96,-23.42"/>
</g>
</g>
</svg>
