<?xml version="1.0" encoding="UTF-8" standalone="no"?>
<!DOCTYPE svg PUBLIC "-//W3C//DTD SVG 1.1//EN"
 "http://www.w3.org/Graphics/SVG/1.1/DTD/svg11.dtd">
<!-- Generated by graphviz version 2.43.0 (0)
 -->
<!-- Title: FilterDiagonal.C Pages: 1 -->
<svg width="1644pt" height="95pt"
 viewBox="0.00 0.00 1644.00 95.00" xmlns="http://www.w3.org/2000/svg" xmlns:xlink="http://www.w3.org/1999/xlink">
<g id="graph0" class="graph" transform="scale(1 1) rotate(0) translate(4 91)">
<title>FilterDiagonal.C</title>
<polygon fill="white" stroke="transparent" points="-4,4 -4,-91 1640,-91 1640,4 -4,4"/>
<!-- Node1 -->
<g id="node1" class="node">
<title>Node1</title>
<g id="a_node1"><a xlink:title=" ">
<polygon fill="#bfbfbf" stroke="black" points="834.5,-67.5 834.5,-86.5 929.5,-86.5 929.5,-67.5 834.5,-67.5"/>
<text text-anchor="middle" x="882" y="-74.5" font-family="Helvetica,sans-Serif" font-size="10.00">FilterDiagonal.C</text>
</a>
</g>
</g>
<!-- Node2 -->
<g id="node2" class="node">
<title>Node2</title>
<g id="a_node2"><a xlink:title=" ">
<polygon fill="white" stroke="#bfbfbf" points="0,-6 0,-25 154,-25 154,-6 0,-6"/>
<text text-anchor="middle" x="77" y="-13" font-family="Helvetica,sans-Serif" font-size="10.00">matrix_free/FilterDiagonal.h</text>
</a>
</g>
</g>
<!-- Node1&#45;&gt;Node2 -->
<g id="edge1" class="edge">
<title>Node1&#45;&gt;Node2</title>
<path fill="none" stroke="midnightblue" d="M834.31,-74.74C718.79,-71.31 414.91,-60.04 163,-31 153.07,-29.86 142.55,-28.34 132.39,-26.71"/>
<polygon fill="midnightblue" stroke="midnightblue" points="132.83,-23.24 122.4,-25.07 131.7,-30.15 132.83,-23.24"/>
</g>
<!-- Node3 -->
<g id="node3" class="node">
<title>Node3</title>
<g id="a_node3"><a xlink:title=" ">
<polygon fill="white" stroke="#bfbfbf" points="172.5,-6 172.5,-25 315.5,-25 315.5,-6 172.5,-6"/>
<text text-anchor="middle" x="244" y="-13" font-family="Helvetica,sans-Serif" font-size="10.00">matrix_free/Coefficients.h</text>
</a>
</g>
</g>
<!-- Node1&#45;&gt;Node3 -->
<g id="edge2" class="edge">
<title>Node1&#45;&gt;Node3</title>
<path fill="none" stroke="midnightblue" d="M834.43,-73.75C737.9,-68.84 512.16,-55.58 324,-31 315.15,-29.84 305.8,-28.38 296.72,-26.82"/>
<polygon fill="midnightblue" stroke="midnightblue" points="297.1,-23.33 286.64,-25.03 295.88,-30.22 297.1,-23.33"/>
</g>
<!-- Node4 -->
<g id="node4" class="node">
<title>Node4</title>
<g id="a_node4"><a xlink:title=" ">
<polygon fill="white" stroke="#bfbfbf" points="333.5,-6 333.5,-25 506.5,-25 506.5,-6 333.5,-6"/>
<text text-anchor="middle" x="420" y="-13" font-family="Helvetica,sans-Serif" font-size="10.00">matrix_free/PolynomialOrders.h</text>
</a>
</g>
</g>
<!-- Node1&#45;&gt;Node4 -->
<g id="edge3" class="edge">
<title>Node1&#45;&gt;Node4</title>
<path fill="none" stroke="midnightblue" d="M834.43,-70.62C764.4,-62.6 629.47,-46.75 515,-31 505.08,-29.64 494.6,-28.11 484.35,-26.58"/>
<polygon fill="midnightblue" stroke="midnightblue" points="484.63,-23.09 474.22,-25.06 483.58,-30.01 484.63,-23.09"/>
</g>
<!-- Node5 -->
<g id="node5" class="node">
<title>Node5</title>
<g id="a_node5"><a xlink:title=" ">
<polygon fill="white" stroke="#bfbfbf" points="524.5,-6 524.5,-25 691.5,-25 691.5,-6 524.5,-6"/>
<text text-anchor="middle" x="608" y="-13" font-family="Helvetica,sans-Serif" font-size="10.00">matrix_free/ValidSimdLength.h</text>
</a>
</g>
</g>
<!-- Node1&#45;&gt;Node5 -->
<g id="edge4" class="edge">
<title>Node1&#45;&gt;Node5</title>
<path fill="none" stroke="midnightblue" d="M842.74,-67.48C793.81,-56.85 710.16,-38.68 657.05,-27.15"/>
<polygon fill="midnightblue" stroke="midnightblue" points="657.7,-23.71 647.18,-25.01 656.21,-30.55 657.7,-23.71"/>
</g>
<!-- Node6 -->
<g id="node6" class="node">
<title>Node6</title>
<g id="a_node6"><a xlink:title=" ">
<polygon fill="white" stroke="#bfbfbf" points="710,-6 710,-25 882,-25 882,-6 710,-6"/>
<text text-anchor="middle" x="796" y="-13" font-family="Helvetica,sans-Serif" font-size="10.00">matrix_free/KokkosViewTypes.h</text>
</a>
</g>
</g>
<!-- Node1&#45;&gt;Node6 -->
<g id="edge5" class="edge">
<title>Node1&#45;&gt;Node6</title>
<path fill="none" stroke="midnightblue" d="M869.68,-67.48C855.88,-57.93 833.3,-42.31 816.77,-30.87"/>
<polygon fill="midnightblue" stroke="midnightblue" points="818.51,-27.82 808.3,-25.01 814.53,-33.58 818.51,-27.82"/>
</g>
<!-- Node7 -->
<g id="node7" class="node">
<title>Node7</title>
<g id="a_node7"><a xlink:title=" ">
<polygon fill="white" stroke="#bfbfbf" points="900,-6 900,-25 1036,-25 1036,-6 900,-6"/>
<text text-anchor="middle" x="968" y="-13" font-family="Helvetica,sans-Serif" font-size="10.00">matrix_free/LocalArray.h</text>
</a>
</g>
</g>
<!-- Node1&#45;&gt;Node7 -->
<g id="edge6" class="edge">
<title>Node1&#45;&gt;Node7</title>
<path fill="none" stroke="midnightblue" d="M894.32,-67.48C908.12,-57.93 930.7,-42.31 947.23,-30.87"/>
<polygon fill="midnightblue" stroke="midnightblue" points="949.47,-33.58 955.7,-25.01 945.49,-27.82 949.47,-33.58"/>
</g>
<!-- Node8 -->
<g id="node8" class="node">
<title>Node8</title>
<g id="a_node8"><a xlink:title=" ">
<polygon fill="white" stroke="#bfbfbf" points="1054,-6 1054,-25 1190,-25 1190,-6 1054,-6"/>
<text text-anchor="middle" x="1122" y="-13" font-family="Helvetica,sans-Serif" font-size="10.00">matrix_free/LinSysInfo.h</text>
</a>
</g>
</g>
<!-- Node1&#45;&gt;Node8 -->
<g id="edge7" class="edge">
<title>Node1&#45;&gt;Node8</title>
<path fill="none" stroke="midnightblue" d="M916.39,-67.48C958.89,-56.94 1031.3,-38.99 1077.87,-27.44"/>
<polygon fill="midnightblue" stroke="midnightblue" points="1078.81,-30.81 1087.68,-25.01 1077.13,-24.02 1078.81,-30.81"/>
</g>
<!-- Node9 -->
<g id="node9" class="node">
<title>Node9</title>
<g id="a_node9"><a xlink:title=" ">
<polygon fill="white" stroke="#bfbfbf" points="1208,-6 1208,-25 1312,-25 1312,-6 1208,-6"/>
<text text-anchor="middle" x="1260" y="-13" font-family="Helvetica,sans-Serif" font-size="10.00">KokkosInterface.h</text>
</a>
</g>
</g>
<!-- Node1&#45;&gt;Node9 -->
<g id="edge8" class="edge">
<title>Node1&#45;&gt;Node9</title>
<path fill="none" stroke="midnightblue" d="M929.75,-70.62C992,-63.28 1104.11,-48.97 1199,-31 1204.76,-29.91 1210.79,-28.64 1216.72,-27.31"/>
<polygon fill="midnightblue" stroke="midnightblue" points="1217.6,-30.7 1226.56,-25.04 1216.03,-23.88 1217.6,-30.7"/>
</g>
<!-- Node10 -->
<g id="node10" class="node">
<title>Node10</title>
<g id="a_node10"><a xlink:title=" ">
<polygon fill="white" stroke="#bfbfbf" points="1330.5,-6 1330.5,-25 1465.5,-25 1465.5,-6 1330.5,-6"/>
<text text-anchor="middle" x="1398" y="-13" font-family="Helvetica,sans-Serif" font-size="10.00">Kokkos_ScatterView.hpp</text>
</a>
</g>
</g>
<!-- Node1&#45;&gt;Node10 -->
<g id="edge9" class="edge">
<title>Node1&#45;&gt;Node10</title>
<path fill="none" stroke="midnightblue" d="M929.58,-72.44C1010.33,-66.1 1179.22,-51.58 1321,-31 1329.14,-29.82 1337.72,-28.39 1346.09,-26.89"/>
<polygon fill="midnightblue" stroke="midnightblue" points="1346.94,-30.29 1356.15,-25.04 1345.68,-23.41 1346.94,-30.29"/>
</g>
<!-- Node11 -->
<g id="node11" class="node">
<title>Node11</title>
<g id="a_node11"><a xlink:title=" ">
<polygon fill="white" stroke="#bfbfbf" points="1484,-0.5 1484,-30.5 1636,-30.5 1636,-0.5 1484,-0.5"/>
<text text-anchor="start" x="1492" y="-18.5" font-family="Helvetica,sans-Serif" font-size="10.00">stk_mesh/base/NgpProfiling</text>
<text text-anchor="middle" x="1560" y="-7.5" font-family="Helvetica,sans-Serif" font-size="10.00">Block.hpp</text>
</a>
</g>
</g>
<!-- Node1&#45;&gt;Node11 -->
<g id="edge10" class="edge">
<title>Node1&#45;&gt;Node11</title>
<path fill="none" stroke="midnightblue" d="M929.81,-73.89C1029.16,-69.17 1265.35,-56.25 1473.4,-31.12"/>
<polygon fill="midnightblue" stroke="midnightblue" points="1474.09,-34.57 1483.59,-29.88 1473.24,-27.62 1474.09,-34.57"/>
</g>
</g>
</svg>
