<?xml version="1.0" encoding="UTF-8" standalone="no"?>
<!DOCTYPE svg PUBLIC "-//W3C//DTD SVG 1.1//EN"
 "http://www.w3.org/Graphics/SVG/1.1/DTD/svg11.dtd">
<!-- Generated by graphviz version 2.43.0 (0)
 -->
<!-- Title: FlowPastCylinderTempAuxFunction.C Pages: 1 -->
<svg width="479pt" height="95pt"
 viewBox="0.00 0.00 479.00 95.00" xmlns="http://www.w3.org/2000/svg" xmlns:xlink="http://www.w3.org/1999/xlink">
<g id="graph0" class="graph" transform="scale(1 1) rotate(0) translate(4 91)">
<title>FlowPastCylinderTempAuxFunction.C</title>
<polygon fill="white" stroke="transparent" points="-4,4 -4,-91 475,-91 475,4 -4,4"/>
<!-- Node1 -->
<g id="node1" class="node">
<title>Node1</title>
<g id="a_node1"><a xlink:title=" ">
<polygon fill="#bfbfbf" stroke="black" points="201,-67.5 201,-86.5 398,-86.5 398,-67.5 201,-67.5"/>
<text text-anchor="middle" x="299.5" y="-74.5" font-family="Helvetica,sans-Serif" font-size="10.00">FlowPastCylinderTempAuxFunction.C</text>
</a>
</g>
</g>
<!-- Node2 -->
<g id="node2" class="node">
<title>Node2</title>
<g id="a_node2"><a xlink:title=" ">
<polygon fill="white" stroke="#bfbfbf" points="0,-0.5 0,-30.5 175,-30.5 175,-0.5 0,-0.5"/>
<text text-anchor="start" x="8" y="-18.5" font-family="Helvetica,sans-Serif" font-size="10.00">user_functions/FlowPastCylinder</text>
<text text-anchor="middle" x="87.5" y="-7.5" font-family="Helvetica,sans-Serif" font-size="10.00">TempAuxFunction.h</text>
</a>
</g>
</g>
<!-- Node1&#45;&gt;Node2 -->
<g id="edge1" class="edge">
<title>Node1&#45;&gt;Node2</title>
<path fill="none" stroke="midnightblue" d="M269.13,-67.48C237.46,-58.59 187.01,-44.43 147.31,-33.29"/>
<polygon fill="midnightblue" stroke="midnightblue" points="148.04,-29.86 137.46,-30.52 146.15,-36.6 148.04,-29.86"/>
</g>
<!-- Node3 -->
<g id="node3" class="node">
<title>Node3</title>
<g id="a_node3"><a xlink:title=" ">
<polygon fill="white" stroke="#bfbfbf" points="193.5,-6 193.5,-25 257.5,-25 257.5,-6 193.5,-6"/>
<text text-anchor="middle" x="225.5" y="-13" font-family="Helvetica,sans-Serif" font-size="10.00">algorithm</text>
</a>
</g>
</g>
<!-- Node1&#45;&gt;Node3 -->
<g id="edge2" class="edge">
<title>Node1&#45;&gt;Node3</title>
<path fill="none" stroke="midnightblue" d="M288.9,-67.48C277.25,-58.11 258.31,-42.88 244.17,-31.51"/>
<polygon fill="midnightblue" stroke="midnightblue" points="246.07,-28.55 236.08,-25.01 241.68,-34 246.07,-28.55"/>
</g>
<!-- Node4 -->
<g id="node4" class="node">
<title>Node4</title>
<g id="a_node4"><a xlink:title=" ">
<polygon fill="white" stroke="#bfbfbf" points="276,-6 276,-25 323,-25 323,-6 276,-6"/>
<text text-anchor="middle" x="299.5" y="-13" font-family="Helvetica,sans-Serif" font-size="10.00">cmath</text>
</a>
</g>
</g>
<!-- Node1&#45;&gt;Node4 -->
<g id="edge3" class="edge">
<title>Node1&#45;&gt;Node4</title>
<path fill="none" stroke="midnightblue" d="M299.5,-67.48C299.5,-59.08 299.5,-45.98 299.5,-35.16"/>
<polygon fill="midnightblue" stroke="midnightblue" points="303,-35.01 299.5,-25.01 296,-35.01 303,-35.01"/>
</g>
<!-- Node5 -->
<g id="node5" class="node">
<title>Node5</title>
<g id="a_node5"><a xlink:title=" ">
<polygon fill="white" stroke="#bfbfbf" points="341,-6 341,-25 388,-25 388,-6 341,-6"/>
<text text-anchor="middle" x="364.5" y="-13" font-family="Helvetica,sans-Serif" font-size="10.00">vector</text>
</a>
</g>
</g>
<!-- Node1&#45;&gt;Node5 -->
<g id="edge4" class="edge">
<title>Node1&#45;&gt;Node5</title>
<path fill="none" stroke="midnightblue" d="M308.81,-67.48C318.95,-58.2 335.36,-43.17 347.75,-31.83"/>
<polygon fill="midnightblue" stroke="midnightblue" points="350.19,-34.34 355.2,-25.01 345.46,-29.18 350.19,-34.34"/>
</g>
<!-- Node6 -->
<g id="node6" class="node">
<title>Node6</title>
<g id="a_node6"><a xlink:title=" ">
<polygon fill="white" stroke="#bfbfbf" points="406,-6 406,-25 471,-25 471,-6 406,-6"/>
<text text-anchor="middle" x="438.5" y="-13" font-family="Helvetica,sans-Serif" font-size="10.00">stdexcept</text>
</a>
</g>
</g>
<!-- Node1&#45;&gt;Node6 -->
<g id="edge5" class="edge">
<title>Node1&#45;&gt;Node6</title>
<path fill="none" stroke="midnightblue" d="M319.42,-67.48C342.95,-57.4 382.31,-40.55 409.29,-29"/>
<polygon fill="midnightblue" stroke="midnightblue" points="410.81,-32.16 418.62,-25.01 408.05,-25.73 410.81,-32.16"/>
</g>
</g>
</svg>
