<?xml version="1.0" encoding="UTF-8" standalone="no"?>
<!DOCTYPE svg PUBLIC "-//W3C//DTD SVG 1.1//EN"
 "http://www.w3.org/Graphics/SVG/1.1/DTD/svg11.dtd">
<!-- Generated by graphviz version 2.43.0 (0)
 -->
<!-- Title: FrameMoving.C Pages: 1 -->
<svg width="1034pt" height="84pt"
 viewBox="0.00 0.00 1034.00 84.00" xmlns="http://www.w3.org/2000/svg" xmlns:xlink="http://www.w3.org/1999/xlink">
<g id="graph0" class="graph" transform="scale(1 1) rotate(0) translate(4 80)">
<title>FrameMoving.C</title>
<polygon fill="white" stroke="transparent" points="-4,4 -4,-80 1030,-80 1030,4 -4,4"/>
<!-- Node1 -->
<g id="node1" class="node">
<title>Node1</title>
<g id="a_node1"><a xlink:title=" ">
<polygon fill="#bfbfbf" stroke="black" points="455.5,-56.5 455.5,-75.5 548.5,-75.5 548.5,-56.5 455.5,-56.5"/>
<text text-anchor="middle" x="502" y="-63.5" font-family="Helvetica,sans-Serif" font-size="10.00">FrameMoving.C</text>
</a>
</g>
</g>
<!-- Node2 -->
<g id="node2" class="node">
<title>Node2</title>
<g id="a_node2"><a xlink:title=" ">
<polygon fill="white" stroke="#bfbfbf" points="0,-0.5 0,-19.5 162,-19.5 162,-0.5 0,-0.5"/>
<text text-anchor="middle" x="81" y="-7.5" font-family="Helvetica,sans-Serif" font-size="10.00">mesh_motion/FrameMoving.h</text>
</a>
</g>
</g>
<!-- Node1&#45;&gt;Node2 -->
<g id="edge1" class="edge">
<title>Node1&#45;&gt;Node2</title>
<path fill="none" stroke="midnightblue" d="M455.34,-59.01C383.36,-49.78 244.51,-31.97 157.64,-20.83"/>
<polygon fill="midnightblue" stroke="midnightblue" points="157.94,-17.34 147.58,-19.54 157.05,-24.28 157.94,-17.34"/>
</g>
<!-- Node3 -->
<g id="node3" class="node">
<title>Node3</title>
<g id="a_node3"><a xlink:title=" ">
<polygon fill="white" stroke="#bfbfbf" points="180,-0.5 180,-19.5 268,-19.5 268,-0.5 180,-0.5"/>
<text text-anchor="middle" x="224" y="-7.5" font-family="Helvetica,sans-Serif" font-size="10.00">FieldTypeDef.h</text>
</a>
</g>
</g>
<!-- Node1&#45;&gt;Node3 -->
<g id="edge2" class="edge">
<title>Node1&#45;&gt;Node3</title>
<path fill="none" stroke="midnightblue" d="M457.95,-56.44C409.15,-46.96 330.44,-31.67 277.97,-21.48"/>
<polygon fill="midnightblue" stroke="midnightblue" points="278.33,-17.99 267.84,-19.52 276.99,-24.86 278.33,-17.99"/>
</g>
<!-- Node4 -->
<g id="node4" class="node">
<title>Node4</title>
<g id="a_node4"><a xlink:title=" ">
<polygon fill="white" stroke="#bfbfbf" points="286,-0.5 286,-19.5 424,-19.5 424,-0.5 286,-0.5"/>
<text text-anchor="middle" x="355" y="-7.5" font-family="Helvetica,sans-Serif" font-size="10.00">ngp_utils/NgpLoopUtils.h</text>
</a>
</g>
</g>
<!-- Node1&#45;&gt;Node4 -->
<g id="edge3" class="edge">
<title>Node1&#45;&gt;Node4</title>
<path fill="none" stroke="midnightblue" d="M478.71,-56.44C454.19,-47.44 415.4,-33.19 387.8,-23.05"/>
<polygon fill="midnightblue" stroke="midnightblue" points="388.78,-19.68 378.18,-19.52 386.36,-26.25 388.78,-19.68"/>
</g>
<!-- Node5 -->
<g id="node5" class="node">
<title>Node5</title>
<g id="a_node5"><a xlink:title=" ">
<polygon fill="white" stroke="#bfbfbf" points="442,-0.5 442,-19.5 562,-19.5 562,-0.5 442,-0.5"/>
<text text-anchor="middle" x="502" y="-7.5" font-family="Helvetica,sans-Serif" font-size="10.00">ngp_utils/NgpTypes.h</text>
</a>
</g>
</g>
<!-- Node1&#45;&gt;Node5 -->
<g id="edge4" class="edge">
<title>Node1&#45;&gt;Node5</title>
<path fill="none" stroke="midnightblue" d="M502,-56.08C502,-49.01 502,-38.86 502,-29.99"/>
<polygon fill="midnightblue" stroke="midnightblue" points="505.5,-29.75 502,-19.75 498.5,-29.75 505.5,-29.75"/>
</g>
<!-- Node6 -->
<g id="node6" class="node">
<title>Node6</title>
<g id="a_node6"><a xlink:title=" ">
<polygon fill="white" stroke="#bfbfbf" points="580,-0.5 580,-19.5 760,-19.5 760,-0.5 580,-0.5"/>
<text text-anchor="middle" x="670" y="-7.5" font-family="Helvetica,sans-Serif" font-size="10.00">utils/ComputeVectorDivergence.h</text>
</a>
</g>
</g>
<!-- Node1&#45;&gt;Node6 -->
<g id="edge5" class="edge">
<title>Node1&#45;&gt;Node6</title>
<path fill="none" stroke="midnightblue" d="M528.62,-56.44C557.01,-47.32 602.14,-32.81 633.75,-22.65"/>
<polygon fill="midnightblue" stroke="midnightblue" points="635.06,-25.91 643.5,-19.52 632.91,-19.24 635.06,-25.91"/>
</g>
<!-- Node7 -->
<g id="node7" class="node">
<title>Node7</title>
<g id="a_node7"><a xlink:title=" ">
<polygon fill="white" stroke="#bfbfbf" points="778.5,-0.5 778.5,-19.5 955.5,-19.5 955.5,-0.5 778.5,-0.5"/>
<text text-anchor="middle" x="867" y="-7.5" font-family="Helvetica,sans-Serif" font-size="10.00">stk_mesh/base/GetNgpMesh.hpp</text>
</a>
</g>
</g>
<!-- Node1&#45;&gt;Node7 -->
<g id="edge6" class="edge">
<title>Node1&#45;&gt;Node7</title>
<path fill="none" stroke="midnightblue" d="M548.6,-58.11C612.11,-48.71 726.27,-31.82 799.25,-21.02"/>
<polygon fill="midnightblue" stroke="midnightblue" points="799.88,-24.47 809.26,-19.54 798.86,-17.54 799.88,-24.47"/>
</g>
<!-- Node8 -->
<g id="node8" class="node">
<title>Node8</title>
<g id="a_node8"><a xlink:title=" ">
<polygon fill="white" stroke="#bfbfbf" points="974,-0.5 974,-19.5 1026,-19.5 1026,-0.5 974,-0.5"/>
<text text-anchor="middle" x="1000" y="-7.5" font-family="Helvetica,sans-Serif" font-size="10.00">cassert</text>
</a>
</g>
</g>
<!-- Node1&#45;&gt;Node8 -->
<g id="edge7" class="edge">
<title>Node1&#45;&gt;Node8</title>
<path fill="none" stroke="midnightblue" d="M548.65,-62.86C630.72,-58.57 806.32,-47.08 963.4,-20.03"/>
<polygon fill="midnightblue" stroke="midnightblue" points="964.47,-23.39 973.72,-18.22 963.27,-16.5 964.47,-23.39"/>
</g>
</g>
</svg>
