<?xml version="1.0" encoding="UTF-8" standalone="no"?>
<!DOCTYPE svg PUBLIC "-//W3C//DTD SVG 1.1//EN"
 "http://www.w3.org/Graphics/SVG/1.1/DTD/svg11.dtd">
<!-- Generated by graphviz version 2.43.0 (0)
 -->
<!-- Title: GaussJetVelocityAuxFunction.C Pages: 1 -->
<svg width="477pt" height="95pt"
 viewBox="0.00 0.00 477.00 95.00" xmlns="http://www.w3.org/2000/svg" xmlns:xlink="http://www.w3.org/1999/xlink">
<g id="graph0" class="graph" transform="scale(1 1) rotate(0) translate(4 91)">
<title>GaussJetVelocityAuxFunction.C</title>
<polygon fill="white" stroke="transparent" points="-4,4 -4,-91 473,-91 473,4 -4,4"/>
<!-- Node1 -->
<g id="node1" class="node">
<title>Node1</title>
<g id="a_node1"><a xlink:title=" ">
<polygon fill="#bfbfbf" stroke="black" points="213.5,-67.5 213.5,-86.5 381.5,-86.5 381.5,-67.5 213.5,-67.5"/>
<text text-anchor="middle" x="297.5" y="-74.5" font-family="Helvetica,sans-Serif" font-size="10.00">GaussJetVelocityAuxFunction.C</text>
</a>
</g>
</g>
<!-- Node2 -->
<g id="node2" class="node">
<title>Node2</title>
<g id="a_node2"><a xlink:title=" ">
<polygon fill="white" stroke="#bfbfbf" points="0,-0.5 0,-30.5 173,-30.5 173,-0.5 0,-0.5"/>
<text text-anchor="start" x="8" y="-18.5" font-family="Helvetica,sans-Serif" font-size="10.00">user_functions/GaussJetVelocity</text>
<text text-anchor="middle" x="86.5" y="-7.5" font-family="Helvetica,sans-Serif" font-size="10.00">AuxFunction.h</text>
</a>
</g>
</g>
<!-- Node1&#45;&gt;Node2 -->
<g id="edge1" class="edge">
<title>Node1&#45;&gt;Node2</title>
<path fill="none" stroke="midnightblue" d="M267.27,-67.48C235.75,-58.59 185.54,-44.43 146.03,-33.29"/>
<polygon fill="midnightblue" stroke="midnightblue" points="146.8,-29.87 136.23,-30.52 144.9,-36.61 146.8,-29.87"/>
</g>
<!-- Node3 -->
<g id="node3" class="node">
<title>Node3</title>
<g id="a_node3"><a xlink:title=" ">
<polygon fill="white" stroke="#bfbfbf" points="191.5,-6 191.5,-25 255.5,-25 255.5,-6 191.5,-6"/>
<text text-anchor="middle" x="223.5" y="-13" font-family="Helvetica,sans-Serif" font-size="10.00">algorithm</text>
</a>
</g>
</g>
<!-- Node1&#45;&gt;Node3 -->
<g id="edge2" class="edge">
<title>Node1&#45;&gt;Node3</title>
<path fill="none" stroke="midnightblue" d="M286.9,-67.48C275.25,-58.11 256.31,-42.88 242.17,-31.51"/>
<polygon fill="midnightblue" stroke="midnightblue" points="244.07,-28.55 234.08,-25.01 239.68,-34 244.07,-28.55"/>
</g>
<!-- Node4 -->
<g id="node4" class="node">
<title>Node4</title>
<g id="a_node4"><a xlink:title=" ">
<polygon fill="white" stroke="#bfbfbf" points="274,-6 274,-25 321,-25 321,-6 274,-6"/>
<text text-anchor="middle" x="297.5" y="-13" font-family="Helvetica,sans-Serif" font-size="10.00">cmath</text>
</a>
</g>
</g>
<!-- Node1&#45;&gt;Node4 -->
<g id="edge3" class="edge">
<title>Node1&#45;&gt;Node4</title>
<path fill="none" stroke="midnightblue" d="M297.5,-67.48C297.5,-59.08 297.5,-45.98 297.5,-35.16"/>
<polygon fill="midnightblue" stroke="midnightblue" points="301,-35.01 297.5,-25.01 294,-35.01 301,-35.01"/>
</g>
<!-- Node5 -->
<g id="node5" class="node">
<title>Node5</title>
<g id="a_node5"><a xlink:title=" ">
<polygon fill="white" stroke="#bfbfbf" points="339,-6 339,-25 386,-25 386,-6 339,-6"/>
<text text-anchor="middle" x="362.5" y="-13" font-family="Helvetica,sans-Serif" font-size="10.00">vector</text>
</a>
</g>
</g>
<!-- Node1&#45;&gt;Node5 -->
<g id="edge4" class="edge">
<title>Node1&#45;&gt;Node5</title>
<path fill="none" stroke="midnightblue" d="M306.81,-67.48C316.95,-58.2 333.36,-43.17 345.75,-31.83"/>
<polygon fill="midnightblue" stroke="midnightblue" points="348.19,-34.34 353.2,-25.01 343.46,-29.18 348.19,-34.34"/>
</g>
<!-- Node6 -->
<g id="node6" class="node">
<title>Node6</title>
<g id="a_node6"><a xlink:title=" ">
<polygon fill="white" stroke="#bfbfbf" points="404,-6 404,-25 469,-25 469,-6 404,-6"/>
<text text-anchor="middle" x="436.5" y="-13" font-family="Helvetica,sans-Serif" font-size="10.00">stdexcept</text>
</a>
</g>
</g>
<!-- Node1&#45;&gt;Node6 -->
<g id="edge5" class="edge">
<title>Node1&#45;&gt;Node6</title>
<path fill="none" stroke="midnightblue" d="M317.42,-67.48C340.95,-57.4 380.31,-40.55 407.29,-29"/>
<polygon fill="midnightblue" stroke="midnightblue" points="408.81,-32.16 416.62,-25.01 406.05,-25.73 408.81,-32.16"/>
</g>
</g>
</svg>
