<?xml version="1.0" encoding="UTF-8" standalone="no"?>
<!DOCTYPE svg PUBLIC "-//W3C//DTD SVG 1.1//EN"
 "http://www.w3.org/Graphics/SVG/1.1/DTD/svg11.dtd">
<!-- Generated by graphviz version 2.43.0 (0)
 -->
<!-- Title: GenericPropAlgorithm.C Pages: 1 -->
<svg width="1601pt" height="95pt"
 viewBox="0.00 0.00 1600.50 95.00" xmlns="http://www.w3.org/2000/svg" xmlns:xlink="http://www.w3.org/1999/xlink">
<g id="graph0" class="graph" transform="scale(1 1) rotate(0) translate(4 91)">
<title>GenericPropAlgorithm.C</title>
<polygon fill="white" stroke="transparent" points="-4,4 -4,-91 1596.5,-91 1596.5,4 -4,4"/>
<!-- Node1 -->
<g id="node1" class="node">
<title>Node1</title>
<g id="a_node1"><a xlink:title=" ">
<polygon fill="#bfbfbf" stroke="black" points="625,-67.5 625,-86.5 759,-86.5 759,-67.5 625,-67.5"/>
<text text-anchor="middle" x="692" y="-74.5" font-family="Helvetica,sans-Serif" font-size="10.00">GenericPropAlgorithm.C</text>
</a>
</g>
</g>
<!-- Node2 -->
<g id="node2" class="node">
<title>Node2</title>
<g id="a_node2"><a xlink:title=" ">
<polygon fill="white" stroke="#bfbfbf" points="0,-6 0,-25 74,-25 74,-6 0,-6"/>
<text text-anchor="middle" x="37" y="-13" font-family="Helvetica,sans-Serif" font-size="10.00">Algorithm.h</text>
</a>
</g>
</g>
<!-- Node1&#45;&gt;Node2 -->
<g id="edge1" class="edge">
<title>Node1&#45;&gt;Node2</title>
<path fill="none" stroke="midnightblue" d="M624.65,-76.09C511.65,-75.11 277.18,-68.26 83,-31 78.84,-30.2 74.52,-29.15 70.28,-27.98"/>
<polygon fill="midnightblue" stroke="midnightblue" points="71.19,-24.6 60.61,-25.09 69.19,-31.31 71.19,-24.6"/>
</g>
<!-- Node3 -->
<g id="node3" class="node">
<title>Node3</title>
<g id="a_node3"><a xlink:title=" ">
<polygon fill="white" stroke="#bfbfbf" points="92,-0.5 92,-30.5 228,-30.5 228,-0.5 92,-0.5"/>
<text text-anchor="start" x="100" y="-18.5" font-family="Helvetica,sans-Serif" font-size="10.00">property_evaluator</text>
<text text-anchor="middle" x="160" y="-7.5" font-family="Helvetica,sans-Serif" font-size="10.00">/GenericPropAlgorithm.h</text>
</a>
</g>
</g>
<!-- Node1&#45;&gt;Node3 -->
<g id="edge2" class="edge">
<title>Node1&#45;&gt;Node3</title>
<path fill="none" stroke="midnightblue" d="M624.71,-71.2C537.8,-64.58 381.65,-51.29 238.65,-31.16"/>
<polygon fill="midnightblue" stroke="midnightblue" points="238.78,-27.64 228.38,-29.7 237.79,-34.57 238.78,-27.64"/>
</g>
<!-- Node4 -->
<g id="node4" class="node">
<title>Node4</title>
<g id="a_node4"><a xlink:title=" ">
<polygon fill="white" stroke="#bfbfbf" points="246,-6 246,-25 334,-25 334,-6 246,-6"/>
<text text-anchor="middle" x="290" y="-13" font-family="Helvetica,sans-Serif" font-size="10.00">FieldTypeDef.h</text>
</a>
</g>
</g>
<!-- Node1&#45;&gt;Node4 -->
<g id="edge3" class="edge">
<title>Node1&#45;&gt;Node4</title>
<path fill="none" stroke="midnightblue" d="M624.97,-70.15C554.37,-63.33 440.19,-50.46 343,-31 338.22,-30.04 333.24,-28.89 328.33,-27.66"/>
<polygon fill="midnightblue" stroke="midnightblue" points="328.99,-24.22 318.43,-25.06 327.21,-30.99 328.99,-24.22"/>
</g>
<!-- Node5 -->
<g id="node5" class="node">
<title>Node5</title>
<g id="a_node5"><a xlink:title=" ">
<polygon fill="white" stroke="#bfbfbf" points="352,-0.5 352,-30.5 468,-30.5 468,-0.5 352,-0.5"/>
<text text-anchor="start" x="360" y="-18.5" font-family="Helvetica,sans-Serif" font-size="10.00">property_evaluator</text>
<text text-anchor="middle" x="410" y="-7.5" font-family="Helvetica,sans-Serif" font-size="10.00">/PropertyEvaluator.h</text>
</a>
</g>
</g>
<!-- Node1&#45;&gt;Node5 -->
<g id="edge4" class="edge">
<title>Node1&#45;&gt;Node5</title>
<path fill="none" stroke="midnightblue" d="M650.77,-67.46C609.59,-58.9 544.2,-45.27 478.26,-31.26"/>
<polygon fill="midnightblue" stroke="midnightblue" points="478.61,-27.76 468.1,-29.1 477.15,-34.6 478.61,-27.76"/>
</g>
<!-- Node6 -->
<g id="node6" class="node">
<title>Node6</title>
<g id="a_node6"><a xlink:title=" ">
<polygon fill="white" stroke="#bfbfbf" points="486.5,-0.5 486.5,-30.5 645.5,-30.5 645.5,-0.5 486.5,-0.5"/>
<text text-anchor="start" x="494.5" y="-18.5" font-family="Helvetica,sans-Serif" font-size="10.00">property_evaluator</text>
<text text-anchor="middle" x="566" y="-7.5" font-family="Helvetica,sans-Serif" font-size="10.00">/ConstantPropertyEvaluator.h</text>
</a>
</g>
</g>
<!-- Node1&#45;&gt;Node6 -->
<g id="edge5" class="edge">
<title>Node1&#45;&gt;Node6</title>
<path fill="none" stroke="midnightblue" d="M673.95,-67.48C656.01,-59 627.91,-45.74 604.89,-34.86"/>
<polygon fill="midnightblue" stroke="midnightblue" points="606.23,-31.63 595.7,-30.52 603.24,-37.96 606.23,-31.63"/>
</g>
<!-- Node7 -->
<g id="node7" class="node">
<title>Node7</title>
<g id="a_node7"><a xlink:title=" ">
<polygon fill="white" stroke="#bfbfbf" points="663.5,-6 663.5,-25 720.5,-25 720.5,-6 663.5,-6"/>
<text text-anchor="middle" x="692" y="-13" font-family="Helvetica,sans-Serif" font-size="10.00">Realm.h</text>
</a>
</g>
</g>
<!-- Node1&#45;&gt;Node7 -->
<g id="edge6" class="edge">
<title>Node1&#45;&gt;Node7</title>
<path fill="none" stroke="midnightblue" d="M692,-67.48C692,-59.08 692,-45.98 692,-35.16"/>
<polygon fill="midnightblue" stroke="midnightblue" points="695.5,-35.01 692,-25.01 688.5,-35.01 695.5,-35.01"/>
</g>
<!-- Node8 -->
<g id="node8" class="node">
<title>Node8</title>
<g id="a_node8"><a xlink:title=" ">
<polygon fill="white" stroke="#bfbfbf" points="738.5,-6 738.5,-25 897.5,-25 897.5,-6 738.5,-6"/>
<text text-anchor="middle" x="818" y="-13" font-family="Helvetica,sans-Serif" font-size="10.00">stk_mesh/base/BulkData.hpp</text>
</a>
</g>
</g>
<!-- Node1&#45;&gt;Node8 -->
<g id="edge7" class="edge">
<title>Node1&#45;&gt;Node8</title>
<path fill="none" stroke="midnightblue" d="M710.05,-67.48C731.2,-57.49 766.44,-40.85 790.88,-29.31"/>
<polygon fill="midnightblue" stroke="midnightblue" points="792.43,-32.44 799.98,-25.01 789.44,-26.11 792.43,-32.44"/>
</g>
<!-- Node9 -->
<g id="node9" class="node">
<title>Node9</title>
<g id="a_node9"><a xlink:title=" ">
<polygon fill="white" stroke="#bfbfbf" points="915.5,-6 915.5,-25 1052.5,-25 1052.5,-6 915.5,-6"/>
<text text-anchor="middle" x="984" y="-13" font-family="Helvetica,sans-Serif" font-size="10.00">stk_mesh/base/Field.hpp</text>
</a>
</g>
</g>
<!-- Node1&#45;&gt;Node9 -->
<g id="edge8" class="edge">
<title>Node1&#45;&gt;Node9</title>
<path fill="none" stroke="midnightblue" d="M733.84,-67.48C786.2,-56.8 875.87,-38.53 932.43,-27.01"/>
<polygon fill="midnightblue" stroke="midnightblue" points="933.14,-30.44 942.24,-25.01 931.74,-23.58 933.14,-30.44"/>
</g>
<!-- Node10 -->
<g id="node10" class="node">
<title>Node10</title>
<g id="a_node10"><a xlink:title=" ">
<polygon fill="white" stroke="#bfbfbf" points="1071,-6 1071,-25 1241,-25 1241,-6 1071,-6"/>
<text text-anchor="middle" x="1156" y="-13" font-family="Helvetica,sans-Serif" font-size="10.00">stk_mesh/base/GetBuckets.hpp</text>
</a>
</g>
</g>
<!-- Node1&#45;&gt;Node10 -->
<g id="edge9" class="edge">
<title>Node1&#45;&gt;Node10</title>
<path fill="none" stroke="midnightblue" d="M759.26,-68.47C833.47,-60.02 956.39,-45.56 1062,-31 1071.94,-29.63 1082.45,-28.09 1092.71,-26.55"/>
<polygon fill="midnightblue" stroke="midnightblue" points="1093.49,-29.97 1102.85,-25 1092.44,-23.05 1093.49,-29.97"/>
</g>
<!-- Node11 -->
<g id="node11" class="node">
<title>Node11</title>
<g id="a_node11"><a xlink:title=" ">
<polygon fill="white" stroke="#bfbfbf" points="1259,-6 1259,-25 1421,-25 1421,-6 1259,-6"/>
<text text-anchor="middle" x="1340" y="-13" font-family="Helvetica,sans-Serif" font-size="10.00">stk_mesh/base/MetaData.hpp</text>
</a>
</g>
</g>
<!-- Node1&#45;&gt;Node11 -->
<g id="edge10" class="edge">
<title>Node1&#45;&gt;Node11</title>
<path fill="none" stroke="midnightblue" d="M759.17,-72.31C864.16,-66.15 1073.42,-52.31 1250,-31 1260.24,-29.76 1271.1,-28.22 1281.6,-26.6"/>
<polygon fill="midnightblue" stroke="midnightblue" points="1282.19,-30.05 1291.52,-25.03 1281.1,-23.13 1282.19,-30.05"/>
</g>
<!-- Node12 -->
<g id="node12" class="node">
<title>Node12</title>
<g id="a_node12"><a xlink:title=" ">
<polygon fill="white" stroke="#bfbfbf" points="1439.5,-6 1439.5,-25 1592.5,-25 1592.5,-6 1439.5,-6"/>
<text text-anchor="middle" x="1516" y="-13" font-family="Helvetica,sans-Serif" font-size="10.00">stk_mesh/base/Selector.hpp</text>
</a>
</g>
</g>
<!-- Node1&#45;&gt;Node12 -->
<g id="edge11" class="edge">
<title>Node1&#45;&gt;Node12</title>
<path fill="none" stroke="midnightblue" d="M759.11,-74.29C889.01,-70.46 1183.71,-59.19 1430,-31 1440.04,-29.85 1450.69,-28.31 1460.95,-26.67"/>
<polygon fill="midnightblue" stroke="midnightblue" points="1461.75,-30.09 1471.05,-25 1460.61,-23.18 1461.75,-30.09"/>
</g>
</g>
</svg>
