<?xml version="1.0" encoding="UTF-8" standalone="no"?>
<!DOCTYPE svg PUBLIC "-//W3C//DTD SVG 1.1//EN"
 "http://www.w3.org/Graphics/SVG/1.1/DTD/svg11.dtd">
<!-- Generated by graphviz version 2.43.0 (0)
 -->
<!-- Title: GeometryInteriorAlg.C Pages: 1 -->
<svg width="1937pt" height="95pt"
 viewBox="0.00 0.00 1937.00 95.00" xmlns="http://www.w3.org/2000/svg" xmlns:xlink="http://www.w3.org/1999/xlink">
<g id="graph0" class="graph" transform="scale(1 1) rotate(0) translate(4 91)">
<title>GeometryInteriorAlg.C</title>
<polygon fill="white" stroke="transparent" points="-4,4 -4,-91 1933,-91 1933,4 -4,4"/>
<!-- Node1 -->
<g id="node1" class="node">
<title>Node1</title>
<g id="a_node1"><a xlink:title=" ">
<polygon fill="#bfbfbf" stroke="black" points="1033.5,-67.5 1033.5,-86.5 1159.5,-86.5 1159.5,-67.5 1033.5,-67.5"/>
<text text-anchor="middle" x="1096.5" y="-74.5" font-family="Helvetica,sans-Serif" font-size="10.00">GeometryInteriorAlg.C</text>
</a>
</g>
</g>
<!-- Node2 -->
<g id="node2" class="node">
<title>Node2</title>
<g id="a_node2"><a xlink:title=" ">
<polygon fill="white" stroke="#bfbfbf" points="0,-0.5 0,-30.5 179,-30.5 179,-0.5 0,-0.5"/>
<text text-anchor="start" x="8" y="-18.5" font-family="Helvetica,sans-Serif" font-size="10.00">ngp_algorithms/GeometryInterior</text>
<text text-anchor="middle" x="89.5" y="-7.5" font-family="Helvetica,sans-Serif" font-size="10.00">Alg.h</text>
</a>
</g>
</g>
<!-- Node1&#45;&gt;Node2 -->
<g id="edge1" class="edge">
<title>Node1&#45;&gt;Node2</title>
<path fill="none" stroke="midnightblue" d="M1033.25,-74.99C886.62,-72.18 511.94,-62.39 189.19,-31.11"/>
<polygon fill="midnightblue" stroke="midnightblue" points="189.47,-27.62 179.18,-30.13 188.79,-34.58 189.47,-27.62"/>
</g>
<!-- Node3 -->
<g id="node3" class="node">
<title>Node3</title>
<g id="a_node3"><a xlink:title=" ">
<polygon fill="white" stroke="#bfbfbf" points="197,-6 197,-25 298,-25 298,-6 197,-6"/>
<text text-anchor="middle" x="247.5" y="-13" font-family="Helvetica,sans-Serif" font-size="10.00">BuildTemplates.h</text>
</a>
</g>
</g>
<!-- Node1&#45;&gt;Node3 -->
<g id="edge2" class="edge">
<title>Node1&#45;&gt;Node3</title>
<path fill="none" stroke="midnightblue" d="M1033.37,-76.33C898.91,-76.18 574.64,-71.24 306.5,-31 300.27,-30.07 293.74,-28.78 287.38,-27.35"/>
<polygon fill="midnightblue" stroke="midnightblue" points="288.14,-23.94 277.6,-25.03 286.53,-30.75 288.14,-23.94"/>
</g>
<!-- Node4 -->
<g id="node4" class="node">
<title>Node4</title>
<g id="a_node4"><a xlink:title=" ">
<polygon fill="white" stroke="#bfbfbf" points="316,-6 316,-25 499,-25 499,-6 316,-6"/>
<text text-anchor="middle" x="407.5" y="-13" font-family="Helvetica,sans-Serif" font-size="10.00">master_element/MasterElement.h</text>
</a>
</g>
</g>
<!-- Node1&#45;&gt;Node4 -->
<g id="edge3" class="edge">
<title>Node1&#45;&gt;Node4</title>
<path fill="none" stroke="midnightblue" d="M1033.29,-72.54C925.44,-66.33 699.06,-51.95 508.5,-31 496.74,-29.71 484.24,-28.1 472.19,-26.43"/>
<polygon fill="midnightblue" stroke="midnightblue" points="472.58,-22.96 462.19,-25.03 471.61,-29.89 472.58,-22.96"/>
</g>
<!-- Node5 -->
<g id="node5" class="node">
<title>Node5</title>
<g id="a_node5"><a xlink:title=" ">
<polygon fill="white" stroke="#bfbfbf" points="517.5,-0.5 517.5,-30.5 691.5,-30.5 691.5,-0.5 517.5,-0.5"/>
<text text-anchor="start" x="525.5" y="-18.5" font-family="Helvetica,sans-Serif" font-size="10.00">master_element/MasterElement</text>
<text text-anchor="middle" x="604.5" y="-7.5" font-family="Helvetica,sans-Serif" font-size="10.00">Repo.h</text>
</a>
</g>
</g>
<!-- Node1&#45;&gt;Node5 -->
<g id="edge4" class="edge">
<title>Node1&#45;&gt;Node5</title>
<path fill="none" stroke="midnightblue" d="M1033.31,-69.54C957.14,-61.6 825,-47.3 701.61,-31.12"/>
<polygon fill="midnightblue" stroke="midnightblue" points="701.97,-27.64 691.6,-29.8 701.06,-34.58 701.97,-27.64"/>
</g>
<!-- Node6 -->
<g id="node6" class="node">
<title>Node6</title>
<g id="a_node6"><a xlink:title=" ">
<polygon fill="white" stroke="#bfbfbf" points="709.5,-6 709.5,-25 847.5,-25 847.5,-6 709.5,-6"/>
<text text-anchor="middle" x="778.5" y="-13" font-family="Helvetica,sans-Serif" font-size="10.00">ngp_utils/NgpLoopUtils.h</text>
</a>
</g>
</g>
<!-- Node1&#45;&gt;Node6 -->
<g id="edge5" class="edge">
<title>Node1&#45;&gt;Node6</title>
<path fill="none" stroke="midnightblue" d="M1050.94,-67.48C993.67,-56.76 895.45,-38.38 833.9,-26.87"/>
<polygon fill="midnightblue" stroke="midnightblue" points="834.45,-23.41 823.98,-25.01 833.16,-30.29 834.45,-23.41"/>
</g>
<!-- Node7 -->
<g id="node7" class="node">
<title>Node7</title>
<g id="a_node7"><a xlink:title=" ">
<polygon fill="white" stroke="#bfbfbf" points="865.5,-6 865.5,-25 999.5,-25 999.5,-6 865.5,-6"/>
<text text-anchor="middle" x="932.5" y="-13" font-family="Helvetica,sans-Serif" font-size="10.00">ngp_utils/NgpFieldOps.h</text>
</a>
</g>
</g>
<!-- Node1&#45;&gt;Node7 -->
<g id="edge6" class="edge">
<title>Node1&#45;&gt;Node7</title>
<path fill="none" stroke="midnightblue" d="M1073,-67.48C1044.87,-57.27 997.57,-40.11 965.71,-28.55"/>
<polygon fill="midnightblue" stroke="midnightblue" points="966.55,-25.13 955.95,-25.01 964.16,-31.71 966.55,-25.13"/>
</g>
<!-- Node8 -->
<g id="node8" class="node">
<title>Node8</title>
<g id="a_node8"><a xlink:title=" ">
<polygon fill="white" stroke="#bfbfbf" points="1017.5,-6 1017.5,-25 1175.5,-25 1175.5,-6 1017.5,-6"/>
<text text-anchor="middle" x="1096.5" y="-13" font-family="Helvetica,sans-Serif" font-size="10.00">ngp_utils/NgpFieldManager.h</text>
</a>
</g>
</g>
<!-- Node1&#45;&gt;Node8 -->
<g id="edge7" class="edge">
<title>Node1&#45;&gt;Node8</title>
<path fill="none" stroke="midnightblue" d="M1096.5,-67.48C1096.5,-59.08 1096.5,-45.98 1096.5,-35.16"/>
<polygon fill="midnightblue" stroke="midnightblue" points="1100,-35.01 1096.5,-25.01 1093,-35.01 1100,-35.01"/>
</g>
<!-- Node9 -->
<g id="node9" class="node">
<title>Node9</title>
<g id="a_node9"><a xlink:title=" ">
<polygon fill="white" stroke="#bfbfbf" points="1193,-6 1193,-25 1250,-25 1250,-6 1193,-6"/>
<text text-anchor="middle" x="1221.5" y="-13" font-family="Helvetica,sans-Serif" font-size="10.00">Realm.h</text>
</a>
</g>
</g>
<!-- Node1&#45;&gt;Node9 -->
<g id="edge8" class="edge">
<title>Node1&#45;&gt;Node9</title>
<path fill="none" stroke="midnightblue" d="M1114.41,-67.48C1135.39,-57.49 1170.35,-40.85 1194.59,-29.31"/>
<polygon fill="midnightblue" stroke="midnightblue" points="1196.1,-32.47 1203.62,-25.01 1193.09,-26.15 1196.1,-32.47"/>
</g>
<!-- Node10 -->
<g id="node10" class="node">
<title>Node10</title>
<g id="a_node10"><a xlink:title=" ">
<polygon fill="white" stroke="#bfbfbf" points="1268,-6 1268,-25 1359,-25 1359,-6 1268,-6"/>
<text text-anchor="middle" x="1313.5" y="-13" font-family="Helvetica,sans-Serif" font-size="10.00">ScratchViews.h</text>
</a>
</g>
</g>
<!-- Node1&#45;&gt;Node10 -->
<g id="edge9" class="edge">
<title>Node1&#45;&gt;Node10</title>
<path fill="none" stroke="midnightblue" d="M1127.59,-67.48C1165.78,-57 1230.67,-39.21 1272.8,-27.66"/>
<polygon fill="midnightblue" stroke="midnightblue" points="1273.75,-31.03 1282.47,-25.01 1271.9,-24.28 1273.75,-31.03"/>
</g>
<!-- Node11 -->
<g id="node11" class="node">
<title>Node11</title>
<g id="a_node11"><a xlink:title=" ">
<polygon fill="white" stroke="#bfbfbf" points="1377,-6 1377,-25 1480,-25 1480,-6 1377,-6"/>
<text text-anchor="middle" x="1428.5" y="-13" font-family="Helvetica,sans-Serif" font-size="10.00">SolutionOptions.h</text>
</a>
</g>
</g>
<!-- Node1&#45;&gt;Node11 -->
<g id="edge10" class="edge">
<title>Node1&#45;&gt;Node11</title>
<path fill="none" stroke="midnightblue" d="M1155.62,-67.49C1210.88,-59.24 1295.56,-45.83 1368.5,-31 1373.88,-29.91 1379.51,-28.67 1385.08,-27.39"/>
<polygon fill="midnightblue" stroke="midnightblue" points="1386.03,-30.76 1394.96,-25.06 1384.42,-23.95 1386.03,-30.76"/>
</g>
<!-- Node12 -->
<g id="node12" class="node">
<title>Node12</title>
<g id="a_node12"><a xlink:title=" ">
<polygon fill="white" stroke="#bfbfbf" points="1498,-6 1498,-25 1601,-25 1601,-6 1498,-6"/>
<text text-anchor="middle" x="1549.5" y="-13" font-family="Helvetica,sans-Serif" font-size="10.00">utils/StkHelpers.h</text>
</a>
</g>
</g>
<!-- Node1&#45;&gt;Node12 -->
<g id="edge11" class="edge">
<title>Node1&#45;&gt;Node12</title>
<path fill="none" stroke="midnightblue" d="M1159.81,-71.17C1237.76,-64.66 1374.04,-51.48 1489.5,-31 1495.31,-29.97 1501.4,-28.71 1507.38,-27.37"/>
<polygon fill="midnightblue" stroke="midnightblue" points="1508.33,-30.74 1517.27,-25.06 1506.74,-23.93 1508.33,-30.74"/>
</g>
<!-- Node13 -->
<g id="node13" class="node">
<title>Node13</title>
<g id="a_node13"><a xlink:title=" ">
<polygon fill="white" stroke="#bfbfbf" points="1619.5,-6 1619.5,-25 1779.5,-25 1779.5,-6 1619.5,-6"/>
<text text-anchor="middle" x="1699.5" y="-13" font-family="Helvetica,sans-Serif" font-size="10.00">stk_mesh/base/NgpMesh.hpp</text>
</a>
</g>
</g>
<!-- Node1&#45;&gt;Node13 -->
<g id="edge12" class="edge">
<title>Node1&#45;&gt;Node13</title>
<path fill="none" stroke="midnightblue" d="M1159.56,-71.99C1256.66,-65.48 1448.51,-51.26 1610.5,-31 1620.4,-29.76 1630.89,-28.24 1641.06,-26.65"/>
<polygon fill="midnightblue" stroke="midnightblue" points="1641.77,-30.09 1651.09,-25.06 1640.67,-23.17 1641.77,-30.09"/>
</g>
<!-- Node14 -->
<g id="node14" class="node">
<title>Node14</title>
<g id="a_node14"><a xlink:title=" ">
<polygon fill="white" stroke="#bfbfbf" points="1798,-0.5 1798,-30.5 1929,-30.5 1929,-0.5 1798,-0.5"/>
<text text-anchor="start" x="1806" y="-18.5" font-family="Helvetica,sans-Serif" font-size="10.00">stk_util/parallel/Parallel</text>
<text text-anchor="middle" x="1863.5" y="-7.5" font-family="Helvetica,sans-Serif" font-size="10.00">Reduce.hpp</text>
</a>
</g>
</g>
<!-- Node1&#45;&gt;Node14 -->
<g id="edge13" class="edge">
<title>Node1&#45;&gt;Node14</title>
<path fill="none" stroke="midnightblue" d="M1159.73,-74.55C1280.03,-71.22 1550.25,-60.95 1787.52,-31.01"/>
<polygon fill="midnightblue" stroke="midnightblue" points="1788.25,-34.44 1797.73,-29.7 1787.36,-27.5 1788.25,-34.44"/>
</g>
</g>
</svg>
