<?xml version="1.0" encoding="UTF-8" standalone="no"?>
<!DOCTYPE svg PUBLIC "-//W3C//DTD SVG 1.1//EN"
 "http://www.w3.org/Graphics/SVG/1.1/DTD/svg11.dtd">
<!-- Generated by graphviz version 2.43.0 (0)
 -->
<!-- Title: GreenGaussGradientOperator.C Pages: 1 -->
<svg width="1318pt" height="95pt"
 viewBox="0.00 0.00 1317.50 95.00" xmlns="http://www.w3.org/2000/svg" xmlns:xlink="http://www.w3.org/1999/xlink">
<g id="graph0" class="graph" transform="scale(1 1) rotate(0) translate(4 91)">
<title>GreenGaussGradientOperator.C</title>
<polygon fill="white" stroke="transparent" points="-4,4 -4,-91 1313.5,-91 1313.5,4 -4,4"/>
<!-- Node1 -->
<g id="node1" class="node">
<title>Node1</title>
<g id="a_node1"><a xlink:title=" ">
<polygon fill="#bfbfbf" stroke="black" points="594,-67.5 594,-86.5 764,-86.5 764,-67.5 594,-67.5"/>
<text text-anchor="middle" x="679" y="-74.5" font-family="Helvetica,sans-Serif" font-size="10.00">GreenGaussGradientOperator.C</text>
</a>
</g>
</g>
<!-- Node2 -->
<g id="node2" class="node">
<title>Node2</title>
<g id="a_node2"><a xlink:title=" ">
<polygon fill="white" stroke="#bfbfbf" points="0,-0.5 0,-30.5 178,-30.5 178,-0.5 0,-0.5"/>
<text text-anchor="start" x="8" y="-18.5" font-family="Helvetica,sans-Serif" font-size="10.00">matrix_free/GreenGaussGradient</text>
<text text-anchor="middle" x="89" y="-7.5" font-family="Helvetica,sans-Serif" font-size="10.00">Operator.h</text>
</a>
</g>
</g>
<!-- Node1&#45;&gt;Node2 -->
<g id="edge1" class="edge">
<title>Node1&#45;&gt;Node2</title>
<path fill="none" stroke="midnightblue" d="M593.96,-69.67C497.97,-62.19 336.88,-48.66 188.38,-31.12"/>
<polygon fill="midnightblue" stroke="midnightblue" points="188.51,-27.61 178.17,-29.91 187.69,-34.57 188.51,-27.61"/>
</g>
<!-- Node3 -->
<g id="node3" class="node">
<title>Node3</title>
<g id="a_node3"><a xlink:title=" ">
<polygon fill="white" stroke="#bfbfbf" points="196,-0.5 196,-30.5 374,-30.5 374,-0.5 196,-0.5"/>
<text text-anchor="start" x="204" y="-18.5" font-family="Helvetica,sans-Serif" font-size="10.00">matrix_free/GreenGaussGradient</text>
<text text-anchor="middle" x="285" y="-7.5" font-family="Helvetica,sans-Serif" font-size="10.00">Interior.h</text>
</a>
</g>
</g>
<!-- Node1&#45;&gt;Node3 -->
<g id="edge2" class="edge">
<title>Node1&#45;&gt;Node3</title>
<path fill="none" stroke="midnightblue" d="M622.55,-67.48C560.44,-58.1 459.44,-42.84 384.08,-31.46"/>
<polygon fill="midnightblue" stroke="midnightblue" points="384.5,-27.99 374.09,-29.95 383.45,-34.91 384.5,-27.99"/>
</g>
<!-- Node4 -->
<g id="node4" class="node">
<title>Node4</title>
<g id="a_node4"><a xlink:title=" ">
<polygon fill="white" stroke="#bfbfbf" points="392,-0.5 392,-30.5 574,-30.5 574,-0.5 392,-0.5"/>
<text text-anchor="start" x="400" y="-18.5" font-family="Helvetica,sans-Serif" font-size="10.00">matrix_free/GreenGaussBoundary</text>
<text text-anchor="middle" x="483" y="-7.5" font-family="Helvetica,sans-Serif" font-size="10.00">Closure.h</text>
</a>
</g>
</g>
<!-- Node1&#45;&gt;Node4 -->
<g id="edge3" class="edge">
<title>Node1&#45;&gt;Node4</title>
<path fill="none" stroke="midnightblue" d="M650.92,-67.48C621.89,-58.66 575.79,-44.67 539.23,-33.57"/>
<polygon fill="midnightblue" stroke="midnightblue" points="539.78,-30.08 529.19,-30.52 537.75,-36.78 539.78,-30.08"/>
</g>
<!-- Node5 -->
<g id="node5" class="node">
<title>Node5</title>
<g id="a_node5"><a xlink:title=" ">
<polygon fill="white" stroke="#bfbfbf" points="592.5,-6 592.5,-25 765.5,-25 765.5,-6 592.5,-6"/>
<text text-anchor="middle" x="679" y="-13" font-family="Helvetica,sans-Serif" font-size="10.00">matrix_free/PolynomialOrders.h</text>
</a>
</g>
</g>
<!-- Node1&#45;&gt;Node5 -->
<g id="edge4" class="edge">
<title>Node1&#45;&gt;Node5</title>
<path fill="none" stroke="midnightblue" d="M679,-67.48C679,-59.08 679,-45.98 679,-35.16"/>
<polygon fill="midnightblue" stroke="midnightblue" points="682.5,-35.01 679,-25.01 675.5,-35.01 682.5,-35.01"/>
</g>
<!-- Node6 -->
<g id="node6" class="node">
<title>Node6</title>
<g id="a_node6"><a xlink:title=" ">
<polygon fill="white" stroke="#bfbfbf" points="784,-6 784,-25 956,-25 956,-6 784,-6"/>
<text text-anchor="middle" x="870" y="-13" font-family="Helvetica,sans-Serif" font-size="10.00">matrix_free/KokkosViewTypes.h</text>
</a>
</g>
</g>
<!-- Node1&#45;&gt;Node6 -->
<g id="edge5" class="edge">
<title>Node1&#45;&gt;Node6</title>
<path fill="none" stroke="midnightblue" d="M706.37,-67.48C739.55,-57.14 795.65,-39.66 832.76,-28.1"/>
<polygon fill="midnightblue" stroke="midnightblue" points="834.18,-31.32 842.69,-25.01 832.1,-24.64 834.18,-31.32"/>
</g>
<!-- Node7 -->
<g id="node7" class="node">
<title>Node7</title>
<g id="a_node7"><a xlink:title=" ">
<polygon fill="white" stroke="#bfbfbf" points="974,-0.5 974,-30.5 1126,-30.5 1126,-0.5 974,-0.5"/>
<text text-anchor="start" x="982" y="-18.5" font-family="Helvetica,sans-Serif" font-size="10.00">stk_mesh/base/NgpProfiling</text>
<text text-anchor="middle" x="1050" y="-7.5" font-family="Helvetica,sans-Serif" font-size="10.00">Block.hpp</text>
</a>
</g>
</g>
<!-- Node1&#45;&gt;Node7 -->
<g id="edge6" class="edge">
<title>Node1&#45;&gt;Node7</title>
<path fill="none" stroke="midnightblue" d="M734.66,-67.46C790.18,-58.89 878.19,-45.18 963.68,-31.21"/>
<polygon fill="midnightblue" stroke="midnightblue" points="964.25,-34.66 973.55,-29.59 963.12,-27.75 964.25,-34.66"/>
</g>
<!-- Node8 -->
<g id="node8" class="node">
<title>Node8</title>
<g id="a_node8"><a xlink:title=" ">
<polygon fill="white" stroke="#bfbfbf" points="1144.5,-6 1144.5,-25 1309.5,-25 1309.5,-6 1144.5,-6"/>
<text text-anchor="middle" x="1227" y="-13" font-family="Helvetica,sans-Serif" font-size="10.00">stk_util/util/ReportHandler.hpp</text>
</a>
</g>
</g>
<!-- Node1&#45;&gt;Node8 -->
<g id="edge7" class="edge">
<title>Node1&#45;&gt;Node8</title>
<path fill="none" stroke="midnightblue" d="M764.05,-69.09C855.76,-61.29 1005.99,-47.52 1135,-31 1145.21,-29.69 1156.03,-28.14 1166.53,-26.54"/>
<polygon fill="midnightblue" stroke="midnightblue" points="1167.11,-29.99 1176.46,-25.01 1166.04,-23.08 1167.11,-29.99"/>
</g>
</g>
</svg>
