<?xml version="1.0" encoding="UTF-8" standalone="no"?>
<!DOCTYPE svg PUBLIC "-//W3C//DTD SVG 1.1//EN"
 "http://www.w3.org/Graphics/SVG/1.1/DTD/svg11.dtd">
<!-- Generated by graphviz version 2.43.0 (0)
 -->
<!-- Title: GreenGaussGradientInterior.C Pages: 1 -->
<svg width="1890pt" height="95pt"
 viewBox="0.00 0.00 1890.00 95.00" xmlns="http://www.w3.org/2000/svg" xmlns:xlink="http://www.w3.org/1999/xlink">
<g id="graph0" class="graph" transform="scale(1 1) rotate(0) translate(4 91)">
<title>GreenGaussGradientInterior.C</title>
<polygon fill="white" stroke="transparent" points="-4,4 -4,-91 1886,-91 1886,4 -4,4"/>
<!-- Node1 -->
<g id="node1" class="node">
<title>Node1</title>
<g id="a_node1"><a xlink:title=" ">
<polygon fill="#bfbfbf" stroke="black" points="927,-67.5 927,-86.5 1089,-86.5 1089,-67.5 927,-67.5"/>
<text text-anchor="middle" x="1008" y="-74.5" font-family="Helvetica,sans-Serif" font-size="10.00">GreenGaussGradientInterior.C</text>
</a>
</g>
</g>
<!-- Node2 -->
<g id="node2" class="node">
<title>Node2</title>
<g id="a_node2"><a xlink:title=" ">
<polygon fill="white" stroke="#bfbfbf" points="0,-0.5 0,-30.5 178,-30.5 178,-0.5 0,-0.5"/>
<text text-anchor="start" x="8" y="-18.5" font-family="Helvetica,sans-Serif" font-size="10.00">matrix_free/GreenGaussGradient</text>
<text text-anchor="middle" x="89" y="-7.5" font-family="Helvetica,sans-Serif" font-size="10.00">Interior.h</text>
</a>
</g>
</g>
<!-- Node1&#45;&gt;Node2 -->
<g id="edge1" class="edge">
<title>Node1&#45;&gt;Node2</title>
<path fill="none" stroke="midnightblue" d="M926.82,-74.03C781.03,-69.95 465.04,-58.62 188.39,-31.08"/>
<polygon fill="midnightblue" stroke="midnightblue" points="188.45,-27.56 178.15,-30.05 187.75,-34.53 188.45,-27.56"/>
</g>
<!-- Node3 -->
<g id="node3" class="node">
<title>Node3</title>
<g id="a_node3"><a xlink:title=" ">
<polygon fill="white" stroke="#bfbfbf" points="196.5,-6 196.5,-25 339.5,-25 339.5,-6 196.5,-6"/>
<text text-anchor="middle" x="268" y="-13" font-family="Helvetica,sans-Serif" font-size="10.00">matrix_free/Coefficients.h</text>
</a>
</g>
</g>
<!-- Node1&#45;&gt;Node3 -->
<g id="edge2" class="edge">
<title>Node1&#45;&gt;Node3</title>
<path fill="none" stroke="midnightblue" d="M926.95,-73.38C802.18,-68.69 555.71,-56.82 348,-31 338.95,-29.87 329.37,-28.39 320.1,-26.81"/>
<polygon fill="midnightblue" stroke="midnightblue" points="320.67,-23.35 310.21,-25.06 319.45,-30.25 320.67,-23.35"/>
</g>
<!-- Node4 -->
<g id="node4" class="node">
<title>Node4</title>
<g id="a_node4"><a xlink:title=" ">
<polygon fill="white" stroke="#bfbfbf" points="357.5,-6 357.5,-25 542.5,-25 542.5,-6 357.5,-6"/>
<text text-anchor="middle" x="450" y="-13" font-family="Helvetica,sans-Serif" font-size="10.00">matrix_free/ElementFluxIntegral.h</text>
</a>
</g>
</g>
<!-- Node1&#45;&gt;Node4 -->
<g id="edge3" class="edge">
<title>Node1&#45;&gt;Node4</title>
<path fill="none" stroke="midnightblue" d="M926.75,-69.04C835.46,-60.97 682.91,-46.76 552,-31 540.67,-29.64 528.65,-28.05 516.99,-26.44"/>
<polygon fill="midnightblue" stroke="midnightblue" points="517.25,-22.94 506.86,-25.02 516.28,-29.88 517.25,-22.94"/>
</g>
<!-- Node5 -->
<g id="node5" class="node">
<title>Node5</title>
<g id="a_node5"><a xlink:title=" ">
<polygon fill="white" stroke="#bfbfbf" points="561,-0.5 561,-30.5 715,-30.5 715,-0.5 561,-0.5"/>
<text text-anchor="start" x="569" y="-18.5" font-family="Helvetica,sans-Serif" font-size="10.00">matrix_free/ElementVolume</text>
<text text-anchor="middle" x="638" y="-7.5" font-family="Helvetica,sans-Serif" font-size="10.00">Integral.h</text>
</a>
</g>
</g>
<!-- Node1&#45;&gt;Node5 -->
<g id="edge4" class="edge">
<title>Node1&#45;&gt;Node5</title>
<path fill="none" stroke="midnightblue" d="M953.26,-67.49C898.23,-58.9 810.67,-45.13 725.46,-31.23"/>
<polygon fill="midnightblue" stroke="midnightblue" points="725.78,-27.74 715.35,-29.58 724.65,-34.64 725.78,-27.74"/>
</g>
<!-- Node6 -->
<g id="node6" class="node">
<title>Node6</title>
<g id="a_node6"><a xlink:title=" ">
<polygon fill="white" stroke="#bfbfbf" points="733.5,-6 733.5,-25 906.5,-25 906.5,-6 733.5,-6"/>
<text text-anchor="middle" x="820" y="-13" font-family="Helvetica,sans-Serif" font-size="10.00">matrix_free/PolynomialOrders.h</text>
</a>
</g>
</g>
<!-- Node1&#45;&gt;Node6 -->
<g id="edge5" class="edge">
<title>Node1&#45;&gt;Node6</title>
<path fill="none" stroke="midnightblue" d="M981.06,-67.48C948.4,-57.14 893.18,-39.66 856.66,-28.1"/>
<polygon fill="midnightblue" stroke="midnightblue" points="857.48,-24.69 846.89,-25.01 855.36,-31.36 857.48,-24.69"/>
</g>
<!-- Node7 -->
<g id="node7" class="node">
<title>Node7</title>
<g id="a_node7"><a xlink:title=" ">
<polygon fill="white" stroke="#bfbfbf" points="924.5,-6 924.5,-25 1091.5,-25 1091.5,-6 924.5,-6"/>
<text text-anchor="middle" x="1008" y="-13" font-family="Helvetica,sans-Serif" font-size="10.00">matrix_free/ValidSimdLength.h</text>
</a>
</g>
</g>
<!-- Node1&#45;&gt;Node7 -->
<g id="edge6" class="edge">
<title>Node1&#45;&gt;Node7</title>
<path fill="none" stroke="midnightblue" d="M1008,-67.48C1008,-59.08 1008,-45.98 1008,-35.16"/>
<polygon fill="midnightblue" stroke="midnightblue" points="1011.5,-35.01 1008,-25.01 1004.5,-35.01 1011.5,-35.01"/>
</g>
<!-- Node8 -->
<g id="node8" class="node">
<title>Node8</title>
<g id="a_node8"><a xlink:title=" ">
<polygon fill="white" stroke="#bfbfbf" points="1110,-6 1110,-25 1282,-25 1282,-6 1110,-6"/>
<text text-anchor="middle" x="1196" y="-13" font-family="Helvetica,sans-Serif" font-size="10.00">matrix_free/KokkosViewTypes.h</text>
</a>
</g>
</g>
<!-- Node1&#45;&gt;Node8 -->
<g id="edge7" class="edge">
<title>Node1&#45;&gt;Node8</title>
<path fill="none" stroke="midnightblue" d="M1034.94,-67.48C1067.6,-57.14 1122.82,-39.66 1159.34,-28.1"/>
<polygon fill="midnightblue" stroke="midnightblue" points="1160.64,-31.36 1169.11,-25.01 1158.52,-24.69 1160.64,-31.36"/>
</g>
<!-- Node9 -->
<g id="node9" class="node">
<title>Node9</title>
<g id="a_node9"><a xlink:title=" ">
<polygon fill="white" stroke="#bfbfbf" points="1300,-6 1300,-25 1436,-25 1436,-6 1300,-6"/>
<text text-anchor="middle" x="1368" y="-13" font-family="Helvetica,sans-Serif" font-size="10.00">matrix_free/LocalArray.h</text>
</a>
</g>
</g>
<!-- Node1&#45;&gt;Node9 -->
<g id="edge8" class="edge">
<title>Node1&#45;&gt;Node9</title>
<path fill="none" stroke="midnightblue" d="M1064.73,-67.47C1121.92,-58.75 1212.7,-44.6 1291,-31 1298.36,-29.72 1306.11,-28.32 1313.74,-26.92"/>
<polygon fill="midnightblue" stroke="midnightblue" points="1314.47,-30.34 1323.66,-25.07 1313.19,-23.46 1314.47,-30.34"/>
</g>
<!-- Node10 -->
<g id="node10" class="node">
<title>Node10</title>
<g id="a_node10"><a xlink:title=" ">
<polygon fill="white" stroke="#bfbfbf" points="1454,-6 1454,-25 1558,-25 1558,-6 1454,-6"/>
<text text-anchor="middle" x="1506" y="-13" font-family="Helvetica,sans-Serif" font-size="10.00">KokkosInterface.h</text>
</a>
</g>
</g>
<!-- Node1&#45;&gt;Node10 -->
<g id="edge9" class="edge">
<title>Node1&#45;&gt;Node10</title>
<path fill="none" stroke="midnightblue" d="M1089.37,-70.82C1177.46,-64.46 1321.87,-51.88 1445,-31 1450.98,-29.99 1457.25,-28.73 1463.4,-27.38"/>
<polygon fill="midnightblue" stroke="midnightblue" points="1464.59,-30.69 1473.55,-25.04 1463.02,-23.87 1464.59,-30.69"/>
</g>
<!-- Node11 -->
<g id="node11" class="node">
<title>Node11</title>
<g id="a_node11"><a xlink:title=" ">
<polygon fill="white" stroke="#bfbfbf" points="1576.5,-6 1576.5,-25 1711.5,-25 1711.5,-6 1576.5,-6"/>
<text text-anchor="middle" x="1644" y="-13" font-family="Helvetica,sans-Serif" font-size="10.00">Kokkos_ScatterView.hpp</text>
</a>
</g>
</g>
<!-- Node1&#45;&gt;Node11 -->
<g id="edge10" class="edge">
<title>Node1&#45;&gt;Node11</title>
<path fill="none" stroke="midnightblue" d="M1089.29,-72.16C1198.34,-66.39 1397.88,-53.67 1567,-31 1575.43,-29.87 1584.34,-28.43 1592.98,-26.89"/>
<polygon fill="midnightblue" stroke="midnightblue" points="1593.77,-30.31 1602.97,-25.06 1592.5,-23.42 1593.77,-30.31"/>
</g>
<!-- Node12 -->
<g id="node12" class="node">
<title>Node12</title>
<g id="a_node12"><a xlink:title=" ">
<polygon fill="white" stroke="#bfbfbf" points="1730,-0.5 1730,-30.5 1882,-30.5 1882,-0.5 1730,-0.5"/>
<text text-anchor="start" x="1738" y="-18.5" font-family="Helvetica,sans-Serif" font-size="10.00">stk_mesh/base/NgpProfiling</text>
<text text-anchor="middle" x="1806" y="-7.5" font-family="Helvetica,sans-Serif" font-size="10.00">Block.hpp</text>
</a>
</g>
</g>
<!-- Node1&#45;&gt;Node12 -->
<g id="edge11" class="edge">
<title>Node1&#45;&gt;Node12</title>
<path fill="none" stroke="midnightblue" d="M1089.25,-73.67C1219.98,-69.31 1485.28,-57.9 1719.53,-31.09"/>
<polygon fill="midnightblue" stroke="midnightblue" points="1720.07,-34.55 1729.6,-29.93 1719.26,-27.6 1720.07,-34.55"/>
</g>
</g>
</svg>
