<?xml version="1.0" encoding="UTF-8" standalone="no"?>
<!DOCTYPE svg PUBLIC "-//W3C//DTD SVG 1.1//EN"
 "http://www.w3.org/Graphics/SVG/1.1/DTD/svg11.dtd">
<!-- Generated by graphviz version 2.43.0 (0)
 -->
<!-- Title: GreenGaussGradient.C Pages: 1 -->
<svg width="3570pt" height="95pt"
 viewBox="0.00 0.00 3570.00 95.00" xmlns="http://www.w3.org/2000/svg" xmlns:xlink="http://www.w3.org/1999/xlink">
<g id="graph0" class="graph" transform="scale(1 1) rotate(0) translate(4 91)">
<title>GreenGaussGradient.C</title>
<polygon fill="white" stroke="transparent" points="-4,4 -4,-91 3566,-91 3566,4 -4,4"/>
<!-- Node1 -->
<g id="node1" class="node">
<title>Node1</title>
<g id="a_node1"><a xlink:title=" ">
<polygon fill="#bfbfbf" stroke="black" points="2039.5,-67.5 2039.5,-86.5 2167.5,-86.5 2167.5,-67.5 2039.5,-67.5"/>
<text text-anchor="middle" x="2103.5" y="-74.5" font-family="Helvetica,sans-Serif" font-size="10.00">GreenGaussGradient.C</text>
</a>
</g>
</g>
<!-- Node2 -->
<g id="node2" class="node">
<title>Node2</title>
<g id="a_node2"><a xlink:title=" ">
<polygon fill="white" stroke="#bfbfbf" points="0,-6 0,-25 187,-25 187,-6 0,-6"/>
<text text-anchor="middle" x="93.5" y="-13" font-family="Helvetica,sans-Serif" font-size="10.00">matrix_free/GreenGaussGradient.h</text>
</a>
</g>
</g>
<!-- Node1&#45;&gt;Node2 -->
<g id="edge1" class="edge">
<title>Node1&#45;&gt;Node2</title>
<path fill="none" stroke="midnightblue" d="M2039.37,-75.49C1750.28,-73.04 566.38,-61.3 196.5,-31 183.23,-29.91 169.07,-28.25 155.62,-26.43"/>
<polygon fill="midnightblue" stroke="midnightblue" points="155.89,-22.94 145.5,-25.02 154.92,-29.87 155.89,-22.94"/>
</g>
<!-- Node3 -->
<g id="node3" class="node">
<title>Node3</title>
<g id="a_node3"><a xlink:title=" ">
<polygon fill="white" stroke="#bfbfbf" points="205.5,-6 205.5,-25 377.5,-25 377.5,-6 205.5,-6"/>
<text text-anchor="middle" x="291.5" y="-13" font-family="Helvetica,sans-Serif" font-size="10.00">matrix_free/KokkosViewTypes.h</text>
</a>
</g>
</g>
<!-- Node1&#45;&gt;Node3 -->
<g id="edge2" class="edge">
<title>Node1&#45;&gt;Node3</title>
<path fill="none" stroke="midnightblue" d="M2039.05,-75.39C1767.65,-72.67 716.56,-60.4 386.5,-31 374.56,-29.94 361.83,-28.33 349.7,-26.56"/>
<polygon fill="midnightblue" stroke="midnightblue" points="350.1,-23.08 339.69,-25.05 349.05,-30 350.1,-23.08"/>
</g>
<!-- Node4 -->
<g id="node4" class="node">
<title>Node4</title>
<g id="a_node4"><a xlink:title=" ">
<polygon fill="white" stroke="#bfbfbf" points="395.5,-6 395.5,-25 531.5,-25 531.5,-6 395.5,-6"/>
<text text-anchor="middle" x="463.5" y="-13" font-family="Helvetica,sans-Serif" font-size="10.00">matrix_free/LinSysInfo.h</text>
</a>
</g>
</g>
<!-- Node1&#45;&gt;Node4 -->
<g id="edge3" class="edge">
<title>Node1&#45;&gt;Node4</title>
<path fill="none" stroke="midnightblue" d="M2039.27,-75.5C1783.67,-73.3 838.23,-63.12 540.5,-31 531.36,-30.01 521.68,-28.54 512.39,-26.9"/>
<polygon fill="midnightblue" stroke="midnightblue" points="512.96,-23.45 502.49,-25.08 511.69,-30.33 512.96,-23.45"/>
</g>
<!-- Node5 -->
<g id="node5" class="node">
<title>Node5</title>
<g id="a_node5"><a xlink:title=" ">
<polygon fill="white" stroke="#bfbfbf" points="550,-6 550,-25 693,-25 693,-6 550,-6"/>
<text text-anchor="middle" x="621.5" y="-13" font-family="Helvetica,sans-Serif" font-size="10.00">matrix_free/LinearAreas.h</text>
</a>
</g>
</g>
<!-- Node1&#45;&gt;Node5 -->
<g id="edge4" class="edge">
<title>Node1&#45;&gt;Node5</title>
<path fill="none" stroke="midnightblue" d="M2039.14,-75.17C1800.58,-71.92 966.91,-58.76 702.5,-31 692.8,-29.98 682.51,-28.47 672.64,-26.81"/>
<polygon fill="midnightblue" stroke="midnightblue" points="673,-23.32 662.54,-25.04 671.79,-30.22 673,-23.32"/>
</g>
<!-- Node6 -->
<g id="node6" class="node">
<title>Node6</title>
<g id="a_node6"><a xlink:title=" ">
<polygon fill="white" stroke="#bfbfbf" points="711.5,-0.5 711.5,-30.5 859.5,-30.5 859.5,-0.5 711.5,-0.5"/>
<text text-anchor="start" x="719.5" y="-18.5" font-family="Helvetica,sans-Serif" font-size="10.00">matrix_free/LinearExposed</text>
<text text-anchor="middle" x="785.5" y="-7.5" font-family="Helvetica,sans-Serif" font-size="10.00">Areas.h</text>
</a>
</g>
</g>
<!-- Node1&#45;&gt;Node6 -->
<g id="edge5" class="edge">
<title>Node1&#45;&gt;Node6</title>
<path fill="none" stroke="midnightblue" d="M2039.35,-74.82C1822.73,-70.66 1118.56,-55.63 869.72,-31"/>
<polygon fill="midnightblue" stroke="midnightblue" points="869.95,-27.5 859.64,-29.97 869.23,-34.47 869.95,-27.5"/>
</g>
<!-- Node7 -->
<g id="node7" class="node">
<title>Node7</title>
<g id="a_node7"><a xlink:title=" ">
<polygon fill="white" stroke="#bfbfbf" points="877.5,-6 877.5,-25 1029.5,-25 1029.5,-6 877.5,-6"/>
<text text-anchor="middle" x="953.5" y="-13" font-family="Helvetica,sans-Serif" font-size="10.00">matrix_free/LinearVolume.h</text>
</a>
</g>
</g>
<!-- Node1&#45;&gt;Node7 -->
<g id="edge6" class="edge">
<title>Node1&#45;&gt;Node7</title>
<path fill="none" stroke="midnightblue" d="M2039.37,-76.12C1873.42,-75.81 1416.45,-71.06 1038.5,-31 1028.34,-29.92 1017.56,-28.39 1007.2,-26.72"/>
<polygon fill="midnightblue" stroke="midnightblue" points="1007.47,-23.22 997.03,-25.02 1006.32,-30.12 1007.47,-23.22"/>
</g>
<!-- Node8 -->
<g id="node8" class="node">
<title>Node8</title>
<g id="a_node8"><a xlink:title=" ">
<polygon fill="white" stroke="#bfbfbf" points="1048,-6 1048,-25 1221,-25 1221,-6 1048,-6"/>
<text text-anchor="middle" x="1134.5" y="-13" font-family="Helvetica,sans-Serif" font-size="10.00">matrix_free/PolynomialOrders.h</text>
</a>
</g>
</g>
<!-- Node1&#45;&gt;Node8 -->
<g id="edge7" class="edge">
<title>Node1&#45;&gt;Node8</title>
<path fill="none" stroke="midnightblue" d="M2039.46,-74.89C1894.75,-71.92 1531.62,-61.76 1229.5,-31 1218.07,-29.84 1205.92,-28.25 1194.27,-26.55"/>
<polygon fill="midnightblue" stroke="midnightblue" points="1194.59,-23.06 1184.18,-25.04 1193.55,-29.99 1194.59,-23.06"/>
</g>
<!-- Node9 -->
<g id="node9" class="node">
<title>Node9</title>
<g id="a_node9"><a xlink:title=" ">
<polygon fill="white" stroke="#bfbfbf" points="1239,-0.5 1239,-30.5 1418,-30.5 1418,-0.5 1239,-0.5"/>
<text text-anchor="start" x="1247" y="-18.5" font-family="Helvetica,sans-Serif" font-size="10.00">matrix_free/StkSimdConnectivity</text>
<text text-anchor="middle" x="1328.5" y="-7.5" font-family="Helvetica,sans-Serif" font-size="10.00">Map.h</text>
</a>
</g>
</g>
<!-- Node1&#45;&gt;Node9 -->
<g id="edge8" class="edge">
<title>Node1&#45;&gt;Node9</title>
<path fill="none" stroke="midnightblue" d="M2039.04,-73.41C1920.4,-68.26 1659.28,-55.21 1428.32,-31.02"/>
<polygon fill="midnightblue" stroke="midnightblue" points="1428.35,-27.51 1418.04,-29.94 1427.62,-34.47 1428.35,-27.51"/>
</g>
<!-- Node10 -->
<g id="node10" class="node">
<title>Node10</title>
<g id="a_node10"><a xlink:title=" ">
<polygon fill="white" stroke="#bfbfbf" points="1436.5,-0.5 1436.5,-30.5 1636.5,-30.5 1636.5,-0.5 1436.5,-0.5"/>
<text text-anchor="start" x="1444.5" y="-18.5" font-family="Helvetica,sans-Serif" font-size="10.00">matrix_free/StkSimdFaceConnectivity</text>
<text text-anchor="middle" x="1536.5" y="-7.5" font-family="Helvetica,sans-Serif" font-size="10.00">Map.h</text>
</a>
</g>
</g>
<!-- Node1&#45;&gt;Node10 -->
<g id="edge9" class="edge">
<title>Node1&#45;&gt;Node10</title>
<path fill="none" stroke="midnightblue" d="M2039.33,-70.4C1952.67,-62.67 1793.15,-47.9 1646.64,-31.11"/>
<polygon fill="midnightblue" stroke="midnightblue" points="1646.9,-27.61 1636.57,-29.95 1646.1,-34.57 1646.9,-27.61"/>
</g>
<!-- Node11 -->
<g id="node11" class="node">
<title>Node11</title>
<g id="a_node11"><a xlink:title=" ">
<polygon fill="white" stroke="#bfbfbf" points="1654.5,-0.5 1654.5,-30.5 1816.5,-30.5 1816.5,-0.5 1654.5,-0.5"/>
<text text-anchor="start" x="1662.5" y="-18.5" font-family="Helvetica,sans-Serif" font-size="10.00">matrix_free/StkSimdGathered</text>
<text text-anchor="middle" x="1735.5" y="-7.5" font-family="Helvetica,sans-Serif" font-size="10.00">ElementData.h</text>
</a>
</g>
</g>
<!-- Node1&#45;&gt;Node11 -->
<g id="edge10" class="edge">
<title>Node1&#45;&gt;Node11</title>
<path fill="none" stroke="midnightblue" d="M2050.77,-67.48C1992.43,-58.04 1897.35,-42.67 1826.83,-31.27"/>
<polygon fill="midnightblue" stroke="midnightblue" points="1827.05,-27.76 1816.62,-29.62 1825.93,-34.67 1827.05,-27.76"/>
</g>
<!-- Node12 -->
<g id="node12" class="node">
<title>Node12</title>
<g id="a_node12"><a xlink:title=" ">
<polygon fill="white" stroke="#bfbfbf" points="1834.5,-6 1834.5,-25 1998.5,-25 1998.5,-6 1834.5,-6"/>
<text text-anchor="middle" x="1916.5" y="-13" font-family="Helvetica,sans-Serif" font-size="10.00">matrix_free/StkToTpetraMap.h</text>
</a>
</g>
</g>
<!-- Node1&#45;&gt;Node12 -->
<g id="edge11" class="edge">
<title>Node1&#45;&gt;Node12</title>
<path fill="none" stroke="midnightblue" d="M2076.71,-67.48C2044.21,-57.14 1989.29,-39.66 1952.96,-28.1"/>
<polygon fill="midnightblue" stroke="midnightblue" points="1953.83,-24.71 1943.24,-25.01 1951.71,-31.38 1953.83,-24.71"/>
</g>
<!-- Node13 -->
<g id="node13" class="node">
<title>Node13</title>
<g id="a_node13"><a xlink:title=" ">
<polygon fill="white" stroke="#bfbfbf" points="2016.5,-6 2016.5,-25 2190.5,-25 2190.5,-6 2016.5,-6"/>
<text text-anchor="middle" x="2103.5" y="-13" font-family="Helvetica,sans-Serif" font-size="10.00">stk_mesh/base/GetNgpField.hpp</text>
</a>
</g>
</g>
<!-- Node1&#45;&gt;Node13 -->
<g id="edge12" class="edge">
<title>Node1&#45;&gt;Node13</title>
<path fill="none" stroke="midnightblue" d="M2103.5,-67.48C2103.5,-59.08 2103.5,-45.98 2103.5,-35.16"/>
<polygon fill="midnightblue" stroke="midnightblue" points="2107,-35.01 2103.5,-25.01 2100,-35.01 2107,-35.01"/>
</g>
<!-- Node14 -->
<g id="node14" class="node">
<title>Node14</title>
<g id="a_node14"><a xlink:title=" ">
<polygon fill="white" stroke="#bfbfbf" points="2209,-6 2209,-25 2368,-25 2368,-6 2209,-6"/>
<text text-anchor="middle" x="2288.5" y="-13" font-family="Helvetica,sans-Serif" font-size="10.00">stk_mesh/base/BulkData.hpp</text>
</a>
</g>
</g>
<!-- Node1&#45;&gt;Node14 -->
<g id="edge13" class="edge">
<title>Node1&#45;&gt;Node14</title>
<path fill="none" stroke="midnightblue" d="M2130.01,-67.48C2162.15,-57.14 2216.49,-39.66 2252.43,-28.1"/>
<polygon fill="midnightblue" stroke="midnightblue" points="2253.6,-31.4 2262.04,-25.01 2251.45,-24.74 2253.6,-31.4"/>
</g>
<!-- Node15 -->
<g id="node15" class="node">
<title>Node15</title>
<g id="a_node15"><a xlink:title=" ">
<polygon fill="white" stroke="#bfbfbf" points="2386.5,-6 2386.5,-25 2548.5,-25 2548.5,-6 2386.5,-6"/>
<text text-anchor="middle" x="2467.5" y="-13" font-family="Helvetica,sans-Serif" font-size="10.00">stk_mesh/base/MetaData.hpp</text>
</a>
</g>
</g>
<!-- Node1&#45;&gt;Node15 -->
<g id="edge14" class="edge">
<title>Node1&#45;&gt;Node15</title>
<path fill="none" stroke="midnightblue" d="M2155.65,-67.48C2221.61,-56.69 2335.03,-38.15 2405.39,-26.65"/>
<polygon fill="midnightblue" stroke="midnightblue" points="2406.14,-30.08 2415.44,-25.01 2405.01,-23.17 2406.14,-30.08"/>
</g>
<!-- Node16 -->
<g id="node16" class="node">
<title>Node16</title>
<g id="a_node16"><a xlink:title=" ">
<polygon fill="white" stroke="#bfbfbf" points="2566.5,-6 2566.5,-25 2700.5,-25 2700.5,-6 2566.5,-6"/>
<text text-anchor="middle" x="2633.5" y="-13" font-family="Helvetica,sans-Serif" font-size="10.00">stk_mesh/base/Ngp.hpp</text>
</a>
</g>
</g>
<!-- Node1&#45;&gt;Node16 -->
<g id="edge15" class="edge">
<title>Node1&#45;&gt;Node16</title>
<path fill="none" stroke="midnightblue" d="M2167.63,-71.47C2255.76,-64.82 2419.14,-51.01 2557.5,-31 2565.63,-29.82 2574.21,-28.38 2582.56,-26.87"/>
<polygon fill="midnightblue" stroke="midnightblue" points="2583.4,-30.27 2592.59,-25 2582.12,-23.39 2583.4,-30.27"/>
</g>
<!-- Node17 -->
<g id="node17" class="node">
<title>Node17</title>
<g id="a_node17"><a xlink:title=" ">
<polygon fill="white" stroke="#bfbfbf" points="2719,-6 2719,-25 2896,-25 2896,-6 2719,-6"/>
<text text-anchor="middle" x="2807.5" y="-13" font-family="Helvetica,sans-Serif" font-size="10.00">stk_mesh/base/GetNgpMesh.hpp</text>
</a>
</g>
</g>
<!-- Node1&#45;&gt;Node17 -->
<g id="edge16" class="edge">
<title>Node1&#45;&gt;Node17</title>
<path fill="none" stroke="midnightblue" d="M2167.77,-72.77C2278.58,-66.85 2512.64,-52.84 2709.5,-31 2720.87,-29.74 2732.95,-28.15 2744.6,-26.5"/>
<polygon fill="midnightblue" stroke="midnightblue" points="2745.3,-29.93 2754.7,-25.03 2744.3,-23.01 2745.3,-29.93"/>
</g>
<!-- Node18 -->
<g id="node18" class="node">
<title>Node18</title>
<g id="a_node18"><a xlink:title=" ">
<polygon fill="white" stroke="#bfbfbf" points="2914,-6 2914,-25 3063,-25 3063,-6 2914,-6"/>
<text text-anchor="middle" x="2988.5" y="-13" font-family="Helvetica,sans-Serif" font-size="10.00">Teuchos_ParameterList.hpp</text>
</a>
</g>
</g>
<!-- Node1&#45;&gt;Node18 -->
<g id="edge17" class="edge">
<title>Node1&#45;&gt;Node18</title>
<path fill="none" stroke="midnightblue" d="M2167.65,-74.94C2303.94,-72.14 2632.23,-62.43 2905.5,-31 2915.1,-29.9 2925.27,-28.4 2935.08,-26.78"/>
<polygon fill="midnightblue" stroke="midnightblue" points="2935.86,-30.2 2945.13,-25.06 2934.69,-23.3 2935.86,-30.2"/>
</g>
<!-- Node19 -->
<g id="node19" class="node">
<title>Node19</title>
<g id="a_node19"><a xlink:title=" ">
<polygon fill="white" stroke="#bfbfbf" points="3081.5,-6 3081.5,-25 3181.5,-25 3181.5,-6 3081.5,-6"/>
<text text-anchor="middle" x="3131.5" y="-13" font-family="Helvetica,sans-Serif" font-size="10.00">Teuchos_RCP.hpp</text>
</a>
</g>
</g>
<!-- Node1&#45;&gt;Node19 -->
<g id="edge18" class="edge">
<title>Node1&#45;&gt;Node19</title>
<path fill="none" stroke="midnightblue" d="M2167.82,-74.65C2354.98,-70.45 2897.07,-56.38 3072.5,-31 3078.8,-30.09 3085.41,-28.8 3091.84,-27.36"/>
<polygon fill="midnightblue" stroke="midnightblue" points="3092.79,-30.74 3101.71,-25.02 3091.17,-23.92 3092.79,-30.74"/>
</g>
<!-- Node20 -->
<g id="node20" class="node">
<title>Node20</title>
<g id="a_node20"><a xlink:title=" ">
<polygon fill="white" stroke="#bfbfbf" points="3199.5,-6 3199.5,-25 3263.5,-25 3263.5,-6 3199.5,-6"/>
<text text-anchor="middle" x="3231.5" y="-13" font-family="Helvetica,sans-Serif" font-size="10.00">algorithm</text>
</a>
</g>
</g>
<!-- Node1&#45;&gt;Node20 -->
<g id="edge19" class="edge">
<title>Node1&#45;&gt;Node20</title>
<path fill="none" stroke="midnightblue" d="M2167.77,-75.85C2370.19,-74.97 2992.76,-69.16 3190.5,-31 3194.02,-30.32 3197.64,-29.4 3201.2,-28.34"/>
<polygon fill="midnightblue" stroke="midnightblue" points="3202.58,-31.57 3210.98,-25.11 3200.38,-24.92 3202.58,-31.57"/>
</g>
<!-- Node21 -->
<g id="node21" class="node">
<title>Node21</title>
<g id="a_node21"><a xlink:title=" ">
<polygon fill="white" stroke="#bfbfbf" points="3281.5,-6 3281.5,-25 3337.5,-25 3337.5,-6 3281.5,-6"/>
<text text-anchor="middle" x="3309.5" y="-13" font-family="Helvetica,sans-Serif" font-size="10.00">iomanip</text>
</a>
</g>
</g>
<!-- Node1&#45;&gt;Node21 -->
<g id="edge20" class="edge">
<title>Node1&#45;&gt;Node21</title>
<path fill="none" stroke="midnightblue" d="M2167.77,-76.34C2380.29,-77.04 3058.91,-75.63 3272.5,-31 3275.51,-30.37 3278.59,-29.52 3281.63,-28.55"/>
<polygon fill="midnightblue" stroke="midnightblue" points="3282.84,-31.83 3291.05,-25.13 3280.46,-25.25 3282.84,-31.83"/>
</g>
<!-- Node22 -->
<g id="node22" class="node">
<title>Node22</title>
<g id="a_node22"><a xlink:title=" ">
<polygon fill="white" stroke="#bfbfbf" points="3355.5,-6 3355.5,-25 3399.5,-25 3399.5,-6 3355.5,-6"/>
<text text-anchor="middle" x="3377.5" y="-13" font-family="Helvetica,sans-Serif" font-size="10.00">limits</text>
</a>
</g>
</g>
<!-- Node1&#45;&gt;Node22 -->
<g id="edge21" class="edge">
<title>Node1&#45;&gt;Node22</title>
<path fill="none" stroke="midnightblue" d="M2167.5,-75.18C2405.51,-71.92 3231.7,-58.71 3346.5,-31 3348.49,-30.52 3350.51,-29.9 3352.51,-29.2"/>
<polygon fill="midnightblue" stroke="midnightblue" points="3354.31,-32.24 3362.18,-25.15 3351.6,-25.79 3354.31,-32.24"/>
</g>
<!-- Node23 -->
<g id="node23" class="node">
<title>Node23</title>
<g id="a_node23"><a xlink:title=" ">
<polygon fill="white" stroke="#bfbfbf" points="3418,-6 3418,-25 3475,-25 3475,-6 3418,-6"/>
<text text-anchor="middle" x="3446.5" y="-13" font-family="Helvetica,sans-Serif" font-size="10.00">ostream</text>
</a>
</g>
</g>
<!-- Node1&#45;&gt;Node23 -->
<g id="edge22" class="edge">
<title>Node1&#45;&gt;Node23</title>
<path fill="none" stroke="midnightblue" d="M2167.67,-75.03C2413.34,-71.13 3286.5,-55.67 3408.5,-31 3411.58,-30.38 3414.75,-29.53 3417.87,-28.56"/>
<polygon fill="midnightblue" stroke="midnightblue" points="3419.27,-31.77 3427.54,-25.14 3416.94,-25.17 3419.27,-31.77"/>
</g>
<!-- Node24 -->
<g id="node24" class="node">
<title>Node24</title>
<g id="a_node24"><a xlink:title=" ">
<polygon fill="white" stroke="#bfbfbf" points="3493,-6 3493,-25 3562,-25 3562,-6 3493,-6"/>
<text text-anchor="middle" x="3527.5" y="-13" font-family="Helvetica,sans-Serif" font-size="10.00">type_traits</text>
</a>
</g>
</g>
<!-- Node1&#45;&gt;Node24 -->
<g id="edge23" class="edge">
<title>Node1&#45;&gt;Node24</title>
<path fill="none" stroke="midnightblue" d="M2167.52,-76.39C2403.85,-77.45 3226.76,-77.61 3484.5,-31 3488.4,-30.29 3492.43,-29.31 3496.38,-28.17"/>
<polygon fill="midnightblue" stroke="midnightblue" points="3497.48,-31.5 3505.95,-25.14 3495.36,-24.83 3497.48,-31.5"/>
</g>
</g>
</svg>
