<?xml version="1.0" encoding="UTF-8" standalone="no"?>
<!DOCTYPE svg PUBLIC "-//W3C//DTD SVG 1.1//EN"
 "http://www.w3.org/Graphics/SVG/1.1/DTD/svg11.dtd">
<!-- Generated by graphviz version 2.43.0 (0)
 -->
<!-- Title: Hex8FEM.C Pages: 1 -->
<svg width="961pt" height="95pt"
 viewBox="0.00 0.00 960.50 95.00" xmlns="http://www.w3.org/2000/svg" xmlns:xlink="http://www.w3.org/1999/xlink">
<g id="graph0" class="graph" transform="scale(1 1) rotate(0) translate(4 91)">
<title>Hex8FEM.C</title>
<polygon fill="white" stroke="transparent" points="-4,4 -4,-91 956.5,-91 956.5,4 -4,4"/>
<!-- Node1 -->
<g id="node1" class="node">
<title>Node1</title>
<g id="a_node1"><a xlink:title=" ">
<polygon fill="#bfbfbf" stroke="black" points="610,-67.5 610,-86.5 683,-86.5 683,-67.5 610,-67.5"/>
<text text-anchor="middle" x="646.5" y="-74.5" font-family="Helvetica,sans-Serif" font-size="10.00">Hex8FEM.C</text>
</a>
</g>
</g>
<!-- Node2 -->
<g id="node2" class="node">
<title>Node2</title>
<g id="a_node2"><a xlink:title=" ">
<polygon fill="white" stroke="#bfbfbf" points="0,-6 0,-25 155,-25 155,-6 0,-6"/>
<text text-anchor="middle" x="77.5" y="-13" font-family="Helvetica,sans-Serif" font-size="10.00">master_element/Hex8FEM.h</text>
</a>
</g>
</g>
<!-- Node1&#45;&gt;Node2 -->
<g id="edge1" class="edge">
<title>Node1&#45;&gt;Node2</title>
<path fill="none" stroke="midnightblue" d="M609.74,-73.51C528.86,-67.83 329.47,-52.69 163.5,-31 154.03,-29.76 144,-28.25 134.27,-26.68"/>
<polygon fill="midnightblue" stroke="midnightblue" points="134.71,-23.21 124.27,-25.03 133.57,-30.11 134.71,-23.21"/>
</g>
<!-- Node3 -->
<g id="node3" class="node">
<title>Node3</title>
<g id="a_node3"><a xlink:title=" ">
<polygon fill="white" stroke="#bfbfbf" points="173,-6 173,-25 356,-25 356,-6 173,-6"/>
<text text-anchor="middle" x="264.5" y="-13" font-family="Helvetica,sans-Serif" font-size="10.00">master_element/MasterElement.h</text>
</a>
</g>
</g>
<!-- Node1&#45;&gt;Node3 -->
<g id="edge2" class="edge">
<title>Node1&#45;&gt;Node3</title>
<path fill="none" stroke="midnightblue" d="M609.87,-70.29C545.22,-60.23 410.1,-39.18 329.36,-26.6"/>
<polygon fill="midnightblue" stroke="midnightblue" points="329.73,-23.12 319.31,-25.04 328.65,-30.03 329.73,-23.12"/>
</g>
<!-- Node4 -->
<g id="node4" class="node">
<title>Node4</title>
<g id="a_node4"><a xlink:title=" ">
<polygon fill="white" stroke="#bfbfbf" points="374.5,-0.5 374.5,-30.5 548.5,-30.5 548.5,-0.5 374.5,-0.5"/>
<text text-anchor="start" x="382.5" y="-18.5" font-family="Helvetica,sans-Serif" font-size="10.00">master_element/MasterElement</text>
<text text-anchor="middle" x="461.5" y="-7.5" font-family="Helvetica,sans-Serif" font-size="10.00">Functions.h</text>
</a>
</g>
</g>
<!-- Node1&#45;&gt;Node4 -->
<g id="edge3" class="edge">
<title>Node1&#45;&gt;Node4</title>
<path fill="none" stroke="midnightblue" d="M619.99,-67.48C592.71,-58.7 549.45,-44.79 515.02,-33.71"/>
<polygon fill="midnightblue" stroke="midnightblue" points="515.69,-30.25 505.1,-30.52 513.55,-36.92 515.69,-30.25"/>
</g>
<!-- Node5 -->
<g id="node5" class="node">
<title>Node5</title>
<g id="a_node5"><a xlink:title=" ">
<polygon fill="white" stroke="#bfbfbf" points="567,-6 567,-25 726,-25 726,-6 567,-6"/>
<text text-anchor="middle" x="646.5" y="-13" font-family="Helvetica,sans-Serif" font-size="10.00">master_element/TensorOps.h</text>
</a>
</g>
</g>
<!-- Node1&#45;&gt;Node5 -->
<g id="edge4" class="edge">
<title>Node1&#45;&gt;Node5</title>
<path fill="none" stroke="midnightblue" d="M646.5,-67.48C646.5,-59.08 646.5,-45.98 646.5,-35.16"/>
<polygon fill="midnightblue" stroke="midnightblue" points="650,-35.01 646.5,-25.01 643,-35.01 650,-35.01"/>
</g>
<!-- Node6 -->
<g id="node6" class="node">
<title>Node6</title>
<g id="a_node6"><a xlink:title=" ">
<polygon fill="white" stroke="#bfbfbf" points="744,-6 744,-25 809,-25 809,-6 744,-6"/>
<text text-anchor="middle" x="776.5" y="-13" font-family="Helvetica,sans-Serif" font-size="10.00">NaluEnv.h</text>
</a>
</g>
</g>
<!-- Node1&#45;&gt;Node6 -->
<g id="edge5" class="edge">
<title>Node1&#45;&gt;Node6</title>
<path fill="none" stroke="midnightblue" d="M665.13,-67.48C686.94,-57.49 723.3,-40.85 748.52,-29.31"/>
<polygon fill="midnightblue" stroke="midnightblue" points="750.27,-32.35 757.91,-25.01 747.36,-25.99 750.27,-32.35"/>
</g>
<!-- Node7 -->
<g id="node7" class="node">
<title>Node7</title>
<g id="a_node7"><a xlink:title=" ">
<polygon fill="white" stroke="#bfbfbf" points="827,-6 827,-25 874,-25 874,-6 827,-6"/>
<text text-anchor="middle" x="850.5" y="-13" font-family="Helvetica,sans-Serif" font-size="10.00">cmath</text>
</a>
</g>
</g>
<!-- Node1&#45;&gt;Node7 -->
<g id="edge6" class="edge">
<title>Node1&#45;&gt;Node7</title>
<path fill="none" stroke="midnightblue" d="M683.28,-68.28C718.48,-60.45 772.83,-47.19 818.5,-31 820.16,-30.41 821.85,-29.77 823.55,-29.1"/>
<polygon fill="midnightblue" stroke="midnightblue" points="825.29,-32.16 833.11,-25.02 822.54,-25.72 825.29,-32.16"/>
</g>
<!-- Node8 -->
<g id="node8" class="node">
<title>Node8</title>
<g id="a_node8"><a xlink:title=" ">
<polygon fill="white" stroke="#bfbfbf" points="892.5,-6 892.5,-25 952.5,-25 952.5,-6 892.5,-6"/>
<text text-anchor="middle" x="922.5" y="-13" font-family="Helvetica,sans-Serif" font-size="10.00">iostream</text>
</a>
</g>
</g>
<!-- Node1&#45;&gt;Node8 -->
<g id="edge7" class="edge">
<title>Node1&#45;&gt;Node8</title>
<path fill="none" stroke="midnightblue" d="M683.07,-71.01C730.01,-64.16 813.71,-50.45 883.5,-31 886.15,-30.26 888.87,-29.42 891.59,-28.53"/>
<polygon fill="midnightblue" stroke="midnightblue" points="892.98,-31.75 901.26,-25.13 890.66,-25.14 892.98,-31.75"/>
</g>
</g>
</svg>
