<?xml version="1.0" encoding="UTF-8" standalone="no"?>
<!DOCTYPE svg PUBLIC "-//W3C//DTD SVG 1.1//EN"
 "http://www.w3.org/Graphics/SVG/1.1/DTD/svg11.dtd">
<!-- Generated by graphviz version 2.43.0 (0)
 -->
<!-- Title: Hex8CVFEM.C Pages: 1 -->
<svg width="1290pt" height="95pt"
 viewBox="0.00 0.00 1289.50 95.00" xmlns="http://www.w3.org/2000/svg" xmlns:xlink="http://www.w3.org/1999/xlink">
<g id="graph0" class="graph" transform="scale(1 1) rotate(0) translate(4 91)">
<title>Hex8CVFEM.C</title>
<polygon fill="white" stroke="transparent" points="-4,4 -4,-91 1285.5,-91 1285.5,4 -4,4"/>
<!-- Node1 -->
<g id="node1" class="node">
<title>Node1</title>
<g id="a_node1"><a xlink:title=" ">
<polygon fill="#bfbfbf" stroke="black" points="871.5,-67.5 871.5,-86.5 957.5,-86.5 957.5,-67.5 871.5,-67.5"/>
<text text-anchor="middle" x="914.5" y="-74.5" font-family="Helvetica,sans-Serif" font-size="10.00">Hex8CVFEM.C</text>
</a>
</g>
</g>
<!-- Node2 -->
<g id="node2" class="node">
<title>Node2</title>
<g id="a_node2"><a xlink:title=" ">
<polygon fill="white" stroke="#bfbfbf" points="0,-6 0,-25 169,-25 169,-6 0,-6"/>
<text text-anchor="middle" x="84.5" y="-13" font-family="Helvetica,sans-Serif" font-size="10.00">master_element/Hex8CVFEM.h</text>
</a>
</g>
</g>
<!-- Node1&#45;&gt;Node2 -->
<g id="edge1" class="edge">
<title>Node1&#45;&gt;Node2</title>
<path fill="none" stroke="midnightblue" d="M871.18,-74.77C757.28,-71.24 440.04,-59.42 177.5,-31 166.55,-29.82 154.93,-28.25 143.74,-26.59"/>
<polygon fill="midnightblue" stroke="midnightblue" points="144.03,-23.09 133.62,-25.04 142.97,-30.01 144.03,-23.09"/>
</g>
<!-- Node3 -->
<g id="node3" class="node">
<title>Node3</title>
<g id="a_node3"><a xlink:title=" ">
<polygon fill="white" stroke="#bfbfbf" points="187,-6 187,-25 370,-25 370,-6 187,-6"/>
<text text-anchor="middle" x="278.5" y="-13" font-family="Helvetica,sans-Serif" font-size="10.00">master_element/MasterElement.h</text>
</a>
</g>
</g>
<!-- Node1&#45;&gt;Node3 -->
<g id="edge2" class="edge">
<title>Node1&#45;&gt;Node3</title>
<path fill="none" stroke="midnightblue" d="M871.42,-73.24C780.41,-67.21 561.95,-51.75 379.5,-31 368,-29.69 355.78,-28.11 343.97,-26.47"/>
<polygon fill="midnightblue" stroke="midnightblue" points="344.12,-22.96 333.73,-25.03 343.14,-29.89 344.12,-22.96"/>
</g>
<!-- Node4 -->
<g id="node4" class="node">
<title>Node4</title>
<g id="a_node4"><a xlink:title=" ">
<polygon fill="white" stroke="#bfbfbf" points="388.5,-0.5 388.5,-30.5 562.5,-30.5 562.5,-0.5 388.5,-0.5"/>
<text text-anchor="start" x="396.5" y="-18.5" font-family="Helvetica,sans-Serif" font-size="10.00">master_element/MasterElement</text>
<text text-anchor="middle" x="475.5" y="-7.5" font-family="Helvetica,sans-Serif" font-size="10.00">Functions.h</text>
</a>
</g>
</g>
<!-- Node1&#45;&gt;Node4 -->
<g id="edge3" class="edge">
<title>Node1&#45;&gt;Node4</title>
<path fill="none" stroke="midnightblue" d="M871.42,-70.62C808.23,-62.67 686.44,-47.12 572.55,-31.13"/>
<polygon fill="midnightblue" stroke="midnightblue" points="573,-27.66 562.61,-29.73 572.02,-34.59 573,-27.66"/>
</g>
<!-- Node5 -->
<g id="node5" class="node">
<title>Node5</title>
<g id="a_node5"><a xlink:title=" ">
<polygon fill="white" stroke="#bfbfbf" points="581,-6 581,-25 740,-25 740,-6 581,-6"/>
<text text-anchor="middle" x="660.5" y="-13" font-family="Helvetica,sans-Serif" font-size="10.00">master_element/TensorOps.h</text>
</a>
</g>
</g>
<!-- Node1&#45;&gt;Node5 -->
<g id="edge4" class="edge">
<title>Node1&#45;&gt;Node5</title>
<path fill="none" stroke="midnightblue" d="M878.11,-67.48C832.93,-56.89 755.85,-38.84 706.59,-27.3"/>
<polygon fill="midnightblue" stroke="midnightblue" points="707.36,-23.88 696.82,-25.01 705.76,-30.7 707.36,-23.88"/>
</g>
<!-- Node6 -->
<g id="node6" class="node">
<title>Node6</title>
<g id="a_node6"><a xlink:title=" ">
<polygon fill="white" stroke="#bfbfbf" points="758.5,-0.5 758.5,-30.5 932.5,-30.5 932.5,-0.5 758.5,-0.5"/>
<text text-anchor="start" x="766.5" y="-18.5" font-family="Helvetica,sans-Serif" font-size="10.00">master_element/Hex8Geometry</text>
<text text-anchor="middle" x="845.5" y="-7.5" font-family="Helvetica,sans-Serif" font-size="10.00">Functions.h</text>
</a>
</g>
</g>
<!-- Node1&#45;&gt;Node6 -->
<g id="edge5" class="edge">
<title>Node1&#45;&gt;Node6</title>
<path fill="none" stroke="midnightblue" d="M904.61,-67.48C895.44,-59.57 881.43,-47.48 869.35,-37.07"/>
<polygon fill="midnightblue" stroke="midnightblue" points="871.62,-34.4 861.76,-30.52 867.05,-39.7 871.62,-34.4"/>
</g>
<!-- Node7 -->
<g id="node7" class="node">
<title>Node7</title>
<g id="a_node7"><a xlink:title=" ">
<polygon fill="white" stroke="#bfbfbf" points="951,-6 951,-25 1016,-25 1016,-6 951,-6"/>
<text text-anchor="middle" x="983.5" y="-13" font-family="Helvetica,sans-Serif" font-size="10.00">NaluEnv.h</text>
</a>
</g>
</g>
<!-- Node1&#45;&gt;Node7 -->
<g id="edge6" class="edge">
<title>Node1&#45;&gt;Node7</title>
<path fill="none" stroke="midnightblue" d="M924.39,-67.48C935.15,-58.2 952.57,-43.17 965.72,-31.83"/>
<polygon fill="midnightblue" stroke="midnightblue" points="968.34,-34.19 973.63,-25.01 963.77,-28.89 968.34,-34.19"/>
</g>
<!-- Node8 -->
<g id="node8" class="node">
<title>Node8</title>
<g id="a_node8"><a xlink:title=" ">
<polygon fill="white" stroke="#bfbfbf" points="1034,-6 1034,-25 1081,-25 1081,-6 1034,-6"/>
<text text-anchor="middle" x="1057.5" y="-13" font-family="Helvetica,sans-Serif" font-size="10.00">cmath</text>
</a>
</g>
</g>
<!-- Node1&#45;&gt;Node8 -->
<g id="edge7" class="edge">
<title>Node1&#45;&gt;Node8</title>
<path fill="none" stroke="midnightblue" d="M936.3,-67.46C958.76,-58.6 994.73,-44.2 1025.5,-31 1026.87,-30.41 1028.26,-29.81 1029.67,-29.19"/>
<polygon fill="midnightblue" stroke="midnightblue" points="1031.23,-32.33 1038.94,-25.06 1028.38,-25.93 1031.23,-32.33"/>
</g>
<!-- Node9 -->
<g id="node9" class="node">
<title>Node9</title>
<g id="a_node9"><a xlink:title=" ">
<polygon fill="white" stroke="#bfbfbf" points="1099.5,-6 1099.5,-25 1159.5,-25 1159.5,-6 1099.5,-6"/>
<text text-anchor="middle" x="1129.5" y="-13" font-family="Helvetica,sans-Serif" font-size="10.00">iostream</text>
</a>
</g>
</g>
<!-- Node1&#45;&gt;Node9 -->
<g id="edge8" class="edge">
<title>Node1&#45;&gt;Node9</title>
<path fill="none" stroke="midnightblue" d="M952.59,-67.49C988.46,-59.18 1043.54,-45.69 1090.5,-31 1093.06,-30.2 1095.7,-29.32 1098.34,-28.42"/>
<polygon fill="midnightblue" stroke="midnightblue" points="1099.54,-31.7 1107.78,-25.04 1097.18,-25.11 1099.54,-31.7"/>
</g>
<!-- Node10 -->
<g id="node10" class="node">
<title>Node10</title>
<g id="a_node10"><a xlink:title=" ">
<polygon fill="white" stroke="#bfbfbf" points="1177.5,-6 1177.5,-25 1219.5,-25 1219.5,-6 1177.5,-6"/>
<text text-anchor="middle" x="1198.5" y="-13" font-family="Helvetica,sans-Serif" font-size="10.00">array</text>
</a>
</g>
</g>
<!-- Node1&#45;&gt;Node10 -->
<g id="edge9" class="edge">
<title>Node1&#45;&gt;Node10</title>
<path fill="none" stroke="midnightblue" d="M957.62,-72.01C1008.86,-66.44 1096.49,-54.29 1168.5,-31 1170.16,-30.46 1171.86,-29.85 1173.54,-29.18"/>
<polygon fill="midnightblue" stroke="midnightblue" points="1175.23,-32.26 1182.96,-25.01 1172.39,-25.86 1175.23,-32.26"/>
</g>
<!-- Node11 -->
<g id="node11" class="node">
<title>Node11</title>
<g id="a_node11"><a xlink:title=" ">
<polygon fill="white" stroke="#bfbfbf" points="1237.5,-6 1237.5,-25 1281.5,-25 1281.5,-6 1237.5,-6"/>
<text text-anchor="middle" x="1259.5" y="-13" font-family="Helvetica,sans-Serif" font-size="10.00">limits</text>
</a>
</g>
</g>
<!-- Node1&#45;&gt;Node11 -->
<g id="edge10" class="edge">
<title>Node1&#45;&gt;Node11</title>
<path fill="none" stroke="midnightblue" d="M957.51,-73.85C1018.81,-69.89 1134.3,-59.1 1228.5,-31 1230.38,-30.44 1232.29,-29.78 1234.19,-29.06"/>
<polygon fill="midnightblue" stroke="midnightblue" points="1235.63,-32.26 1243.44,-25.11 1232.87,-25.82 1235.63,-32.26"/>
</g>
</g>
</svg>
