<?xml version="1.0" encoding="UTF-8" standalone="no"?>
<!DOCTYPE svg PUBLIC "-//W3C//DTD SVG 1.1//EN"
 "http://www.w3.org/Graphics/SVG/1.1/DTD/svg11.dtd">
<!-- Generated by graphviz version 2.43.0 (0)
 -->
<!-- Title: InputOutputRealm.C Pages: 1 -->
<svg width="1534pt" height="84pt"
 viewBox="0.00 0.00 1533.50 84.00" xmlns="http://www.w3.org/2000/svg" xmlns:xlink="http://www.w3.org/1999/xlink">
<g id="graph0" class="graph" transform="scale(1 1) rotate(0) translate(4 80)">
<title>InputOutputRealm.C</title>
<polygon fill="white" stroke="transparent" points="-4,4 -4,-80 1529.5,-80 1529.5,4 -4,4"/>
<!-- Node1 -->
<g id="node1" class="node">
<title>Node1</title>
<g id="a_node1"><a xlink:title=" ">
<polygon fill="#bfbfbf" stroke="black" points="645.5,-56.5 645.5,-75.5 761.5,-75.5 761.5,-56.5 645.5,-56.5"/>
<text text-anchor="middle" x="703.5" y="-63.5" font-family="Helvetica,sans-Serif" font-size="10.00">InputOutputRealm.C</text>
</a>
</g>
</g>
<!-- Node2 -->
<g id="node2" class="node">
<title>Node2</title>
<g id="a_node2"><a xlink:title=" ">
<polygon fill="white" stroke="#bfbfbf" points="0,-0.5 0,-19.5 115,-19.5 115,-0.5 0,-0.5"/>
<text text-anchor="middle" x="57.5" y="-7.5" font-family="Helvetica,sans-Serif" font-size="10.00">InputOutputRealm.h</text>
</a>
</g>
</g>
<!-- Node1&#45;&gt;Node2 -->
<g id="edge1" class="edge">
<title>Node1&#45;&gt;Node2</title>
<path fill="none" stroke="midnightblue" d="M645.36,-61.61C542.56,-55.37 321.77,-40.87 125.29,-20.14"/>
<polygon fill="midnightblue" stroke="midnightblue" points="125.38,-16.63 115.07,-19.05 124.64,-23.59 125.38,-16.63"/>
</g>
<!-- Node3 -->
<g id="node3" class="node">
<title>Node3</title>
<g id="a_node3"><a xlink:title=" ">
<polygon fill="white" stroke="#bfbfbf" points="133,-0.5 133,-19.5 216,-19.5 216,-0.5 133,-0.5"/>
<text text-anchor="middle" x="174.5" y="-7.5" font-family="Helvetica,sans-Serif" font-size="10.00">NaluParsing.h</text>
</a>
</g>
</g>
<!-- Node1&#45;&gt;Node3 -->
<g id="edge2" class="edge">
<title>Node1&#45;&gt;Node3</title>
<path fill="none" stroke="midnightblue" d="M645.44,-61.13C557.09,-54.9 383.4,-41.28 226.51,-20.18"/>
<polygon fill="midnightblue" stroke="midnightblue" points="226.58,-16.66 216.2,-18.78 225.64,-23.59 226.58,-16.66"/>
</g>
<!-- Node4 -->
<g id="node4" class="node">
<title>Node4</title>
<g id="a_node4"><a xlink:title=" ">
<polygon fill="white" stroke="#bfbfbf" points="234,-0.5 234,-19.5 291,-19.5 291,-0.5 234,-0.5"/>
<text text-anchor="middle" x="262.5" y="-7.5" font-family="Helvetica,sans-Serif" font-size="10.00">Realm.h</text>
</a>
</g>
</g>
<!-- Node1&#45;&gt;Node4 -->
<g id="edge3" class="edge">
<title>Node1&#45;&gt;Node4</title>
<path fill="none" stroke="midnightblue" d="M645.3,-60.86C568.49,-54.89 428.95,-42.23 301.08,-20.09"/>
<polygon fill="midnightblue" stroke="midnightblue" points="301.56,-16.62 291.11,-18.34 300.35,-23.52 301.56,-16.62"/>
</g>
<!-- Node5 -->
<g id="node5" class="node">
<title>Node5</title>
<g id="a_node5"><a xlink:title=" ">
<polygon fill="white" stroke="#bfbfbf" points="309,-0.5 309,-19.5 412,-19.5 412,-0.5 309,-0.5"/>
<text text-anchor="middle" x="360.5" y="-7.5" font-family="Helvetica,sans-Serif" font-size="10.00">SolutionOptions.h</text>
</a>
</g>
</g>
<!-- Node1&#45;&gt;Node5 -->
<g id="edge4" class="edge">
<title>Node1&#45;&gt;Node5</title>
<path fill="none" stroke="midnightblue" d="M649.15,-56.44C587.38,-46.72 486.77,-30.88 422.13,-20.7"/>
<polygon fill="midnightblue" stroke="midnightblue" points="422.49,-17.22 412.07,-19.12 421.41,-24.13 422.49,-17.22"/>
</g>
<!-- Node6 -->
<g id="node6" class="node">
<title>Node6</title>
<g id="a_node6"><a xlink:title=" ">
<polygon fill="white" stroke="#bfbfbf" points="430.5,-0.5 430.5,-19.5 516.5,-19.5 516.5,-0.5 430.5,-0.5"/>
<text text-anchor="middle" x="473.5" y="-7.5" font-family="Helvetica,sans-Serif" font-size="10.00">xfer/Transfer.h</text>
</a>
</g>
</g>
<!-- Node1&#45;&gt;Node6 -->
<g id="edge5" class="edge">
<title>Node1&#45;&gt;Node6</title>
<path fill="none" stroke="midnightblue" d="M667.06,-56.44C627.1,-47.06 562.91,-31.99 519.52,-21.8"/>
<polygon fill="midnightblue" stroke="midnightblue" points="520.31,-18.39 509.77,-19.52 518.71,-25.21 520.31,-18.39"/>
</g>
<!-- Node7 -->
<g id="node7" class="node">
<title>Node7</title>
<g id="a_node7"><a xlink:title=" ">
<polygon fill="white" stroke="#bfbfbf" points="535,-0.5 535,-19.5 694,-19.5 694,-0.5 535,-0.5"/>
<text text-anchor="middle" x="614.5" y="-7.5" font-family="Helvetica,sans-Serif" font-size="10.00">stk_mesh/base/BulkData.hpp</text>
</a>
</g>
</g>
<!-- Node1&#45;&gt;Node7 -->
<g id="edge6" class="edge">
<title>Node1&#45;&gt;Node7</title>
<path fill="none" stroke="midnightblue" d="M689.2,-56.32C675.32,-47.9 654.01,-34.97 637.7,-25.07"/>
<polygon fill="midnightblue" stroke="midnightblue" points="639.13,-21.85 628.76,-19.65 635.5,-27.83 639.13,-21.85"/>
</g>
<!-- Node8 -->
<g id="node8" class="node">
<title>Node8</title>
<g id="a_node8"><a xlink:title=" ">
<polygon fill="white" stroke="#bfbfbf" points="712.5,-0.5 712.5,-19.5 874.5,-19.5 874.5,-0.5 712.5,-0.5"/>
<text text-anchor="middle" x="793.5" y="-7.5" font-family="Helvetica,sans-Serif" font-size="10.00">stk_mesh/base/MetaData.hpp</text>
</a>
</g>
</g>
<!-- Node1&#45;&gt;Node8 -->
<g id="edge7" class="edge">
<title>Node1&#45;&gt;Node8</title>
<path fill="none" stroke="midnightblue" d="M717.96,-56.32C732,-47.9 753.55,-34.97 770.04,-25.07"/>
<polygon fill="midnightblue" stroke="midnightblue" points="772.3,-27.8 779.08,-19.65 768.7,-21.8 772.3,-27.8"/>
</g>
<!-- Node9 -->
<g id="node9" class="node">
<title>Node9</title>
<g id="a_node9"><a xlink:title=" ">
<polygon fill="white" stroke="#bfbfbf" points="893,-0.5 893,-19.5 1030,-19.5 1030,-0.5 893,-0.5"/>
<text text-anchor="middle" x="961.5" y="-7.5" font-family="Helvetica,sans-Serif" font-size="10.00">stk_mesh/base/Field.hpp</text>
</a>
</g>
</g>
<!-- Node1&#45;&gt;Node9 -->
<g id="edge8" class="edge">
<title>Node1&#45;&gt;Node9</title>
<path fill="none" stroke="midnightblue" d="M744.38,-56.44C789.48,-47 862.11,-31.8 910.8,-21.61"/>
<polygon fill="midnightblue" stroke="midnightblue" points="911.74,-24.99 920.81,-19.52 910.31,-18.14 911.74,-24.99"/>
</g>
<!-- Node10 -->
<g id="node10" class="node">
<title>Node10</title>
<g id="a_node10"><a xlink:title=" ">
<polygon fill="white" stroke="#bfbfbf" points="1048.5,-0.5 1048.5,-19.5 1200.5,-19.5 1200.5,-0.5 1048.5,-0.5"/>
<text text-anchor="middle" x="1124.5" y="-7.5" font-family="Helvetica,sans-Serif" font-size="10.00">stk_io/StkMeshIoBroker.hpp</text>
</a>
</g>
</g>
<!-- Node1&#45;&gt;Node10 -->
<g id="edge9" class="edge">
<title>Node1&#45;&gt;Node10</title>
<path fill="none" stroke="midnightblue" d="M761.6,-57.55C836.09,-47.99 965.45,-31.4 1047.92,-20.82"/>
<polygon fill="midnightblue" stroke="midnightblue" points="1048.51,-24.28 1057.99,-19.53 1047.62,-17.33 1048.51,-24.28"/>
</g>
<!-- Node11 -->
<g id="node11" class="node">
<title>Node11</title>
<g id="a_node11"><a xlink:title=" ">
<polygon fill="white" stroke="#bfbfbf" points="1219,-0.5 1219,-19.5 1340,-19.5 1340,-0.5 1219,-0.5"/>
<text text-anchor="middle" x="1279.5" y="-7.5" font-family="Helvetica,sans-Serif" font-size="10.00">stk_io/IossBridge.hpp</text>
</a>
</g>
</g>
<!-- Node1&#45;&gt;Node11 -->
<g id="edge10" class="edge">
<title>Node1&#45;&gt;Node11</title>
<path fill="none" stroke="midnightblue" d="M761.63,-60.58C853.96,-53.38 1040.06,-38.22 1208.75,-20.04"/>
<polygon fill="midnightblue" stroke="midnightblue" points="1209.25,-23.51 1218.81,-18.95 1208.49,-16.55 1209.25,-23.51"/>
</g>
<!-- Node12 -->
<g id="node12" class="node">
<title>Node12</title>
<g id="a_node12"><a xlink:title=" ">
<polygon fill="white" stroke="#bfbfbf" points="1358,-0.5 1358,-19.5 1463,-19.5 1463,-0.5 1358,-0.5"/>
<text text-anchor="middle" x="1410.5" y="-7.5" font-family="Helvetica,sans-Serif" font-size="10.00">Ioss_SubSystem.h</text>
</a>
</g>
</g>
<!-- Node1&#45;&gt;Node12 -->
<g id="edge11" class="edge">
<title>Node1&#45;&gt;Node12</title>
<path fill="none" stroke="midnightblue" d="M761.54,-62.46C873.11,-57.24 1125.44,-43.87 1347.73,-20.12"/>
<polygon fill="midnightblue" stroke="midnightblue" points="1348.39,-23.57 1357.96,-19.01 1347.64,-16.61 1348.39,-23.57"/>
</g>
<!-- Node13 -->
<g id="node13" class="node">
<title>Node13</title>
<g id="a_node13"><a xlink:title=" ">
<polygon fill="white" stroke="#bfbfbf" points="1481.5,-0.5 1481.5,-19.5 1525.5,-19.5 1525.5,-0.5 1481.5,-0.5"/>
<text text-anchor="middle" x="1503.5" y="-7.5" font-family="Helvetica,sans-Serif" font-size="10.00">string</text>
</a>
</g>
</g>
<!-- Node1&#45;&gt;Node13 -->
<g id="edge12" class="edge">
<title>Node1&#45;&gt;Node13</title>
<path fill="none" stroke="midnightblue" d="M761.68,-63.28C913,-58.56 1317.22,-44.18 1471.08,-19.79"/>
<polygon fill="midnightblue" stroke="midnightblue" points="1472,-23.19 1481.29,-18.09 1470.85,-16.28 1472,-23.19"/>
</g>
</g>
</svg>
