<?xml version="1.0" encoding="UTF-8" standalone="no"?>
<!DOCTYPE svg PUBLIC "-//W3C//DTD SVG 1.1//EN"
 "http://www.w3.org/Graphics/SVG/1.1/DTD/svg11.dtd">
<!-- Generated by graphviz version 2.43.0 (0)
 -->
<!-- Title: InverseDualVolumePropAlgorithm.C Pages: 1 -->
<svg width="1348pt" height="95pt"
 viewBox="0.00 0.00 1347.50 95.00" xmlns="http://www.w3.org/2000/svg" xmlns:xlink="http://www.w3.org/1999/xlink">
<g id="graph0" class="graph" transform="scale(1 1) rotate(0) translate(4 91)">
<title>InverseDualVolumePropAlgorithm.C</title>
<polygon fill="white" stroke="transparent" points="-4,4 -4,-91 1343.5,-91 1343.5,4 -4,4"/>
<!-- Node1 -->
<g id="node1" class="node">
<title>Node1</title>
<g id="a_node1"><a xlink:title=" ">
<polygon fill="#bfbfbf" stroke="black" points="469.5,-67.5 469.5,-86.5 660.5,-86.5 660.5,-67.5 469.5,-67.5"/>
<text text-anchor="middle" x="565" y="-74.5" font-family="Helvetica,sans-Serif" font-size="10.00">InverseDualVolumePropAlgorithm.C</text>
</a>
</g>
</g>
<!-- Node2 -->
<g id="node2" class="node">
<title>Node2</title>
<g id="a_node2"><a xlink:title=" ">
<polygon fill="white" stroke="#bfbfbf" points="0,-6 0,-25 74,-25 74,-6 0,-6"/>
<text text-anchor="middle" x="37" y="-13" font-family="Helvetica,sans-Serif" font-size="10.00">Algorithm.h</text>
</a>
</g>
</g>
<!-- Node1&#45;&gt;Node2 -->
<g id="edge1" class="edge">
<title>Node1&#45;&gt;Node2</title>
<path fill="none" stroke="midnightblue" d="M469.47,-73.05C371.6,-68.64 215.43,-57.74 83,-31 78.84,-30.16 74.53,-29.09 70.29,-27.9"/>
<polygon fill="midnightblue" stroke="midnightblue" points="71.21,-24.52 60.62,-25 69.2,-31.23 71.21,-24.52"/>
</g>
<!-- Node3 -->
<g id="node3" class="node">
<title>Node3</title>
<g id="a_node3"><a xlink:title=" ">
<polygon fill="white" stroke="#bfbfbf" points="92,-0.5 92,-30.5 286,-30.5 286,-0.5 92,-0.5"/>
<text text-anchor="start" x="100" y="-18.5" font-family="Helvetica,sans-Serif" font-size="10.00">property_evaluator</text>
<text text-anchor="middle" x="189" y="-7.5" font-family="Helvetica,sans-Serif" font-size="10.00">/InverseDualVolumePropAlgorithm.h</text>
</a>
</g>
</g>
<!-- Node1&#45;&gt;Node3 -->
<g id="edge2" class="edge">
<title>Node1&#45;&gt;Node3</title>
<path fill="none" stroke="midnightblue" d="M511.13,-67.48C452.95,-58.27 359,-43.4 287.54,-32.09"/>
<polygon fill="midnightblue" stroke="midnightblue" points="288.04,-28.63 277.62,-30.52 286.95,-35.54 288.04,-28.63"/>
</g>
<!-- Node4 -->
<g id="node4" class="node">
<title>Node4</title>
<g id="a_node4"><a xlink:title=" ">
<polygon fill="white" stroke="#bfbfbf" points="304,-6 304,-25 392,-25 392,-6 304,-6"/>
<text text-anchor="middle" x="348" y="-13" font-family="Helvetica,sans-Serif" font-size="10.00">FieldTypeDef.h</text>
</a>
</g>
</g>
<!-- Node1&#45;&gt;Node4 -->
<g id="edge3" class="edge">
<title>Node1&#45;&gt;Node4</title>
<path fill="none" stroke="midnightblue" d="M533.91,-67.48C495.72,-57 430.83,-39.21 388.7,-27.66"/>
<polygon fill="midnightblue" stroke="midnightblue" points="389.6,-24.28 379.03,-25.01 387.75,-31.03 389.6,-24.28"/>
</g>
<!-- Node5 -->
<g id="node5" class="node">
<title>Node5</title>
<g id="a_node5"><a xlink:title=" ">
<polygon fill="white" stroke="#bfbfbf" points="410.5,-6 410.5,-25 467.5,-25 467.5,-6 410.5,-6"/>
<text text-anchor="middle" x="439" y="-13" font-family="Helvetica,sans-Serif" font-size="10.00">Realm.h</text>
</a>
</g>
</g>
<!-- Node1&#45;&gt;Node5 -->
<g id="edge4" class="edge">
<title>Node1&#45;&gt;Node5</title>
<path fill="none" stroke="midnightblue" d="M546.95,-67.48C525.8,-57.49 490.56,-40.85 466.12,-29.31"/>
<polygon fill="midnightblue" stroke="midnightblue" points="467.56,-26.11 457.02,-25.01 464.57,-32.44 467.56,-26.11"/>
</g>
<!-- Node6 -->
<g id="node6" class="node">
<title>Node6</title>
<g id="a_node6"><a xlink:title=" ">
<polygon fill="white" stroke="#bfbfbf" points="485.5,-6 485.5,-25 644.5,-25 644.5,-6 485.5,-6"/>
<text text-anchor="middle" x="565" y="-13" font-family="Helvetica,sans-Serif" font-size="10.00">stk_mesh/base/BulkData.hpp</text>
</a>
</g>
</g>
<!-- Node1&#45;&gt;Node6 -->
<g id="edge5" class="edge">
<title>Node1&#45;&gt;Node6</title>
<path fill="none" stroke="midnightblue" d="M565,-67.48C565,-59.08 565,-45.98 565,-35.16"/>
<polygon fill="midnightblue" stroke="midnightblue" points="568.5,-35.01 565,-25.01 561.5,-35.01 568.5,-35.01"/>
</g>
<!-- Node7 -->
<g id="node7" class="node">
<title>Node7</title>
<g id="a_node7"><a xlink:title=" ">
<polygon fill="white" stroke="#bfbfbf" points="662.5,-6 662.5,-25 799.5,-25 799.5,-6 662.5,-6"/>
<text text-anchor="middle" x="731" y="-13" font-family="Helvetica,sans-Serif" font-size="10.00">stk_mesh/base/Field.hpp</text>
</a>
</g>
</g>
<!-- Node1&#45;&gt;Node7 -->
<g id="edge6" class="edge">
<title>Node1&#45;&gt;Node7</title>
<path fill="none" stroke="midnightblue" d="M588.78,-67.48C617.38,-57.22 665.55,-39.96 697.8,-28.4"/>
<polygon fill="midnightblue" stroke="midnightblue" points="699.03,-31.68 707.26,-25.01 696.67,-25.09 699.03,-31.68"/>
</g>
<!-- Node8 -->
<g id="node8" class="node">
<title>Node8</title>
<g id="a_node8"><a xlink:title=" ">
<polygon fill="white" stroke="#bfbfbf" points="818,-6 818,-25 988,-25 988,-6 818,-6"/>
<text text-anchor="middle" x="903" y="-13" font-family="Helvetica,sans-Serif" font-size="10.00">stk_mesh/base/GetBuckets.hpp</text>
</a>
</g>
</g>
<!-- Node1&#45;&gt;Node8 -->
<g id="edge7" class="edge">
<title>Node1&#45;&gt;Node8</title>
<path fill="none" stroke="midnightblue" d="M613.43,-67.48C674.42,-56.74 779.13,-38.31 844.52,-26.79"/>
<polygon fill="midnightblue" stroke="midnightblue" points="845.42,-30.19 854.66,-25.01 844.21,-23.3 845.42,-30.19"/>
</g>
<!-- Node9 -->
<g id="node9" class="node">
<title>Node9</title>
<g id="a_node9"><a xlink:title=" ">
<polygon fill="white" stroke="#bfbfbf" points="1006,-6 1006,-25 1168,-25 1168,-6 1006,-6"/>
<text text-anchor="middle" x="1087" y="-13" font-family="Helvetica,sans-Serif" font-size="10.00">stk_mesh/base/MetaData.hpp</text>
</a>
</g>
</g>
<!-- Node1&#45;&gt;Node9 -->
<g id="edge8" class="edge">
<title>Node1&#45;&gt;Node9</title>
<path fill="none" stroke="midnightblue" d="M660.84,-67.57C748.5,-59.49 881.69,-46.28 997,-31 1006.77,-29.71 1017.1,-28.18 1027.16,-26.62"/>
<polygon fill="midnightblue" stroke="midnightblue" points="1027.76,-30.07 1037.09,-25.05 1026.66,-23.16 1027.76,-30.07"/>
</g>
<!-- Node10 -->
<g id="node10" class="node">
<title>Node10</title>
<g id="a_node10"><a xlink:title=" ">
<polygon fill="white" stroke="#bfbfbf" points="1186.5,-6 1186.5,-25 1339.5,-25 1339.5,-6 1186.5,-6"/>
<text text-anchor="middle" x="1263" y="-13" font-family="Helvetica,sans-Serif" font-size="10.00">stk_mesh/base/Selector.hpp</text>
</a>
</g>
</g>
<!-- Node1&#45;&gt;Node10 -->
<g id="edge9" class="edge">
<title>Node1&#45;&gt;Node10</title>
<path fill="none" stroke="midnightblue" d="M660.67,-71.74C781.35,-65.74 995.08,-52.98 1177,-31 1186.81,-29.82 1197.2,-28.29 1207.25,-26.68"/>
<polygon fill="midnightblue" stroke="midnightblue" points="1207.85,-30.13 1217.14,-25.05 1206.71,-23.22 1207.85,-30.13"/>
</g>
</g>
</svg>
