<?xml version="1.0" encoding="UTF-8" standalone="no"?>
<!DOCTYPE svg PUBLIC "-//W3C//DTD SVG 1.1//EN"
 "http://www.w3.org/Graphics/SVG/1.1/DTD/svg11.dtd">
<!-- Generated by graphviz version 2.43.0 (0)
 -->
<!-- Title: KovasznayVelocityAuxFunction.C Pages: 1 -->
<svg width="630pt" height="95pt"
 viewBox="0.00 0.00 630.00 95.00" xmlns="http://www.w3.org/2000/svg" xmlns:xlink="http://www.w3.org/1999/xlink">
<g id="graph0" class="graph" transform="scale(1 1) rotate(0) translate(4 91)">
<title>KovasznayVelocityAuxFunction.C</title>
<polygon fill="white" stroke="transparent" points="-4,4 -4,-91 626,-91 626,4 -4,4"/>
<!-- Node1 -->
<g id="node1" class="node">
<title>Node1</title>
<g id="a_node1"><a xlink:title=" ">
<polygon fill="#bfbfbf" stroke="black" points="299.5,-67.5 299.5,-86.5 477.5,-86.5 477.5,-67.5 299.5,-67.5"/>
<text text-anchor="middle" x="388.5" y="-74.5" font-family="Helvetica,sans-Serif" font-size="10.00">KovasznayVelocityAuxFunction.C</text>
</a>
</g>
</g>
<!-- Node2 -->
<g id="node2" class="node">
<title>Node2</title>
<g id="a_node2"><a xlink:title=" ">
<polygon fill="white" stroke="#bfbfbf" points="0,-0.5 0,-30.5 143,-30.5 143,-0.5 0,-0.5"/>
<text text-anchor="start" x="8" y="-18.5" font-family="Helvetica,sans-Serif" font-size="10.00">user_functions/Kovasznay</text>
<text text-anchor="middle" x="71.5" y="-7.5" font-family="Helvetica,sans-Serif" font-size="10.00">VelocityAuxFunction.h</text>
</a>
</g>
</g>
<!-- Node1&#45;&gt;Node2 -->
<g id="edge1" class="edge">
<title>Node1&#45;&gt;Node2</title>
<path fill="none" stroke="midnightblue" d="M343.08,-67.48C293.62,-58.19 213.5,-43.15 153.08,-31.81"/>
<polygon fill="midnightblue" stroke="midnightblue" points="153.65,-28.36 143.18,-29.95 152.36,-35.24 153.65,-28.36"/>
</g>
<!-- Node3 -->
<g id="node3" class="node">
<title>Node3</title>
<g id="a_node3"><a xlink:title=" ">
<polygon fill="white" stroke="#bfbfbf" points="161.5,-6 161.5,-25 225.5,-25 225.5,-6 161.5,-6"/>
<text text-anchor="middle" x="193.5" y="-13" font-family="Helvetica,sans-Serif" font-size="10.00">algorithm</text>
</a>
</g>
</g>
<!-- Node1&#45;&gt;Node3 -->
<g id="edge2" class="edge">
<title>Node1&#45;&gt;Node3</title>
<path fill="none" stroke="midnightblue" d="M357.37,-67.45C326.16,-58.75 276.78,-44.64 234.5,-31 231.9,-30.16 229.21,-29.27 226.51,-28.35"/>
<polygon fill="midnightblue" stroke="midnightblue" points="227.43,-24.97 216.84,-25.01 225.15,-31.58 227.43,-24.97"/>
</g>
<!-- Node4 -->
<g id="node4" class="node">
<title>Node4</title>
<g id="a_node4"><a xlink:title=" ">
<polygon fill="white" stroke="#bfbfbf" points="244,-6 244,-25 409,-25 409,-6 244,-6"/>
<text text-anchor="middle" x="326.5" y="-13" font-family="Helvetica,sans-Serif" font-size="10.00">stk_util/util/ReportHandler.hpp</text>
</a>
</g>
</g>
<!-- Node1&#45;&gt;Node4 -->
<g id="edge3" class="edge">
<title>Node1&#45;&gt;Node4</title>
<path fill="none" stroke="midnightblue" d="M379.62,-67.48C370.04,-58.28 354.59,-43.46 342.81,-32.16"/>
<polygon fill="midnightblue" stroke="midnightblue" points="345.01,-29.41 335.37,-25.01 340.16,-34.46 345.01,-29.41"/>
</g>
<!-- Node5 -->
<g id="node5" class="node">
<title>Node5</title>
<g id="a_node5"><a xlink:title=" ">
<polygon fill="white" stroke="#bfbfbf" points="427,-6 427,-25 474,-25 474,-6 427,-6"/>
<text text-anchor="middle" x="450.5" y="-13" font-family="Helvetica,sans-Serif" font-size="10.00">cmath</text>
</a>
</g>
</g>
<!-- Node1&#45;&gt;Node5 -->
<g id="edge4" class="edge">
<title>Node1&#45;&gt;Node5</title>
<path fill="none" stroke="midnightblue" d="M397.38,-67.48C406.96,-58.28 422.41,-43.46 434.19,-32.16"/>
<polygon fill="midnightblue" stroke="midnightblue" points="436.84,-34.46 441.63,-25.01 431.99,-29.41 436.84,-34.46"/>
</g>
<!-- Node6 -->
<g id="node6" class="node">
<title>Node6</title>
<g id="a_node6"><a xlink:title=" ">
<polygon fill="white" stroke="#bfbfbf" points="492,-6 492,-25 539,-25 539,-6 492,-6"/>
<text text-anchor="middle" x="515.5" y="-13" font-family="Helvetica,sans-Serif" font-size="10.00">vector</text>
</a>
</g>
</g>
<!-- Node1&#45;&gt;Node6 -->
<g id="edge5" class="edge">
<title>Node1&#45;&gt;Node6</title>
<path fill="none" stroke="midnightblue" d="M406.7,-67.48C428.01,-57.49 463.53,-40.85 488.16,-29.31"/>
<polygon fill="midnightblue" stroke="midnightblue" points="489.77,-32.42 497.34,-25.01 486.8,-26.08 489.77,-32.42"/>
</g>
<!-- Node7 -->
<g id="node7" class="node">
<title>Node7</title>
<g id="a_node7"><a xlink:title=" ">
<polygon fill="white" stroke="#bfbfbf" points="557,-6 557,-25 622,-25 622,-6 557,-6"/>
<text text-anchor="middle" x="589.5" y="-13" font-family="Helvetica,sans-Serif" font-size="10.00">stdexcept</text>
</a>
</g>
</g>
<!-- Node1&#45;&gt;Node7 -->
<g id="edge6" class="edge">
<title>Node1&#45;&gt;Node7</title>
<path fill="none" stroke="midnightblue" d="M421.17,-67.49C453.64,-58.87 504.77,-44.87 548.5,-31 551.11,-30.17 553.8,-29.29 556.5,-28.38"/>
<polygon fill="midnightblue" stroke="midnightblue" points="557.86,-31.62 566.17,-25.05 555.58,-25 557.86,-31.62"/>
</g>
</g>
</svg>
