<?xml version="1.0" encoding="UTF-8" standalone="no"?>
<!DOCTYPE svg PUBLIC "-//W3C//DTD SVG 1.1//EN"
 "http://www.w3.org/Graphics/SVG/1.1/DTD/svg11.dtd">
<!-- Generated by graphviz version 2.43.0 (0)
 -->
<!-- Title: LinearAreas.C Pages: 1 -->
<svg width="1201pt" height="84pt"
 viewBox="0.00 0.00 1201.00 84.00" xmlns="http://www.w3.org/2000/svg" xmlns:xlink="http://www.w3.org/1999/xlink">
<g id="graph0" class="graph" transform="scale(1 1) rotate(0) translate(4 80)">
<title>LinearAreas.C</title>
<polygon fill="white" stroke="transparent" points="-4,4 -4,-80 1197,-80 1197,4 -4,4"/>
<!-- Node1 -->
<g id="node1" class="node">
<title>Node1</title>
<g id="a_node1"><a xlink:title=" ">
<polygon fill="#bfbfbf" stroke="black" points="619.5,-56.5 619.5,-75.5 703.5,-75.5 703.5,-56.5 619.5,-56.5"/>
<text text-anchor="middle" x="661.5" y="-63.5" font-family="Helvetica,sans-Serif" font-size="10.00">LinearAreas.C</text>
</a>
</g>
</g>
<!-- Node2 -->
<g id="node2" class="node">
<title>Node2</title>
<g id="a_node2"><a xlink:title=" ">
<polygon fill="white" stroke="#bfbfbf" points="0,-0.5 0,-19.5 143,-19.5 143,-0.5 0,-0.5"/>
<text text-anchor="middle" x="71.5" y="-7.5" font-family="Helvetica,sans-Serif" font-size="10.00">matrix_free/LinearAreas.h</text>
</a>
</g>
</g>
<!-- Node1&#45;&gt;Node2 -->
<g id="edge1" class="edge">
<title>Node1&#45;&gt;Node2</title>
<path fill="none" stroke="midnightblue" d="M619.49,-61.64C533.85,-54.71 332.71,-38.05 153.18,-20.15"/>
<polygon fill="midnightblue" stroke="midnightblue" points="153.32,-16.65 143.02,-19.13 152.62,-23.61 153.32,-16.65"/>
</g>
<!-- Node3 -->
<g id="node3" class="node">
<title>Node3</title>
<g id="a_node3"><a xlink:title=" ">
<polygon fill="white" stroke="#bfbfbf" points="161,-0.5 161,-19.5 344,-19.5 344,-0.5 161,-0.5"/>
<text text-anchor="middle" x="252.5" y="-7.5" font-family="Helvetica,sans-Serif" font-size="10.00">matrix_free/GeometricFunctions.h</text>
</a>
</g>
</g>
<!-- Node1&#45;&gt;Node3 -->
<g id="edge2" class="edge">
<title>Node1&#45;&gt;Node3</title>
<path fill="none" stroke="midnightblue" d="M619.27,-59.42C550.36,-50.33 412.84,-32.17 327.17,-20.86"/>
<polygon fill="midnightblue" stroke="midnightblue" points="327.61,-17.39 317.24,-19.55 326.7,-24.33 327.61,-17.39"/>
</g>
<!-- Node4 -->
<g id="node4" class="node">
<title>Node4</title>
<g id="a_node4"><a xlink:title=" ">
<polygon fill="white" stroke="#bfbfbf" points="362,-0.5 362,-19.5 557,-19.5 557,-0.5 362,-0.5"/>
<text text-anchor="middle" x="459.5" y="-7.5" font-family="Helvetica,sans-Serif" font-size="10.00">matrix_free/HexVertexCoordinates.h</text>
</a>
</g>
</g>
<!-- Node1&#45;&gt;Node4 -->
<g id="edge3" class="edge">
<title>Node1&#45;&gt;Node4</title>
<path fill="none" stroke="midnightblue" d="M629.49,-56.44C594.77,-47.16 539.21,-32.31 501.12,-22.13"/>
<polygon fill="midnightblue" stroke="midnightblue" points="501.92,-18.72 491.36,-19.52 500.11,-25.48 501.92,-18.72"/>
</g>
<!-- Node5 -->
<g id="node5" class="node">
<title>Node5</title>
<g id="a_node5"><a xlink:title=" ">
<polygon fill="white" stroke="#bfbfbf" points="575.5,-0.5 575.5,-19.5 747.5,-19.5 747.5,-0.5 575.5,-0.5"/>
<text text-anchor="middle" x="661.5" y="-7.5" font-family="Helvetica,sans-Serif" font-size="10.00">matrix_free/KokkosViewTypes.h</text>
</a>
</g>
</g>
<!-- Node1&#45;&gt;Node5 -->
<g id="edge4" class="edge">
<title>Node1&#45;&gt;Node5</title>
<path fill="none" stroke="midnightblue" d="M661.5,-56.08C661.5,-49.01 661.5,-38.86 661.5,-29.99"/>
<polygon fill="midnightblue" stroke="midnightblue" points="665,-29.75 661.5,-19.75 658,-29.75 665,-29.75"/>
</g>
<!-- Node6 -->
<g id="node6" class="node">
<title>Node6</title>
<g id="a_node6"><a xlink:title=" ">
<polygon fill="white" stroke="#bfbfbf" points="766,-0.5 766,-19.5 939,-19.5 939,-0.5 766,-0.5"/>
<text text-anchor="middle" x="852.5" y="-7.5" font-family="Helvetica,sans-Serif" font-size="10.00">matrix_free/PolynomialOrders.h</text>
</a>
</g>
</g>
<!-- Node1&#45;&gt;Node6 -->
<g id="edge5" class="edge">
<title>Node1&#45;&gt;Node6</title>
<path fill="none" stroke="midnightblue" d="M691.76,-56.44C724.46,-47.2 776.68,-32.44 812.68,-22.26"/>
<polygon fill="midnightblue" stroke="midnightblue" points="813.71,-25.61 822.38,-19.52 811.8,-18.87 813.71,-25.61"/>
</g>
<!-- Node7 -->
<g id="node7" class="node">
<title>Node7</title>
<g id="a_node7"><a xlink:title=" ">
<polygon fill="white" stroke="#bfbfbf" points="957.5,-0.5 957.5,-19.5 1061.5,-19.5 1061.5,-0.5 957.5,-0.5"/>
<text text-anchor="middle" x="1009.5" y="-7.5" font-family="Helvetica,sans-Serif" font-size="10.00">KokkosInterface.h</text>
</a>
</g>
</g>
<!-- Node1&#45;&gt;Node7 -->
<g id="edge6" class="edge">
<title>Node1&#45;&gt;Node7</title>
<path fill="none" stroke="midnightblue" d="M703.82,-58.43C764.6,-49 876.98,-31.56 947.23,-20.66"/>
<polygon fill="midnightblue" stroke="midnightblue" points="947.94,-24.09 957.28,-19.1 946.86,-17.18 947.94,-24.09"/>
</g>
<!-- Node8 -->
<g id="node8" class="node">
<title>Node8</title>
<g id="a_node8"><a xlink:title=" ">
<polygon fill="white" stroke="#bfbfbf" points="1080,-0.5 1080,-19.5 1193,-19.5 1193,-0.5 1080,-0.5"/>
<text text-anchor="middle" x="1136.5" y="-7.5" font-family="Helvetica,sans-Serif" font-size="10.00">Kokkos_Macros.hpp</text>
</a>
</g>
</g>
<!-- Node1&#45;&gt;Node8 -->
<g id="edge7" class="edge">
<title>Node1&#45;&gt;Node8</title>
<path fill="none" stroke="midnightblue" d="M703.64,-60.73C776.11,-53.3 929.28,-37.26 1069.89,-20.05"/>
<polygon fill="midnightblue" stroke="midnightblue" points="1070.49,-23.5 1079.99,-18.8 1069.63,-16.55 1070.49,-23.5"/>
</g>
</g>
</svg>
