<?xml version="1.0" encoding="UTF-8" standalone="no"?>
<!DOCTYPE svg PUBLIC "-//W3C//DTD SVG 1.1//EN"
 "http://www.w3.org/Graphics/SVG/1.1/DTD/svg11.dtd">
<!-- Generated by graphviz version 2.43.0 (0)
 -->
<!-- Title: LinearVolume.C Pages: 1 -->
<svg width="1907pt" height="84pt"
 viewBox="0.00 0.00 1906.50 84.00" xmlns="http://www.w3.org/2000/svg" xmlns:xlink="http://www.w3.org/1999/xlink">
<g id="graph0" class="graph" transform="scale(1 1) rotate(0) translate(4 80)">
<title>LinearVolume.C</title>
<polygon fill="white" stroke="transparent" points="-4,4 -4,-80 1902.5,-80 1902.5,4 -4,4"/>
<!-- Node1 -->
<g id="node1" class="node">
<title>Node1</title>
<g id="a_node1"><a xlink:title=" ">
<polygon fill="#bfbfbf" stroke="black" points="978.5,-56.5 978.5,-75.5 1071.5,-75.5 1071.5,-56.5 978.5,-56.5"/>
<text text-anchor="middle" x="1025" y="-63.5" font-family="Helvetica,sans-Serif" font-size="10.00">LinearVolume.C</text>
</a>
</g>
</g>
<!-- Node2 -->
<g id="node2" class="node">
<title>Node2</title>
<g id="a_node2"><a xlink:title=" ">
<polygon fill="white" stroke="#bfbfbf" points="0,-0.5 0,-19.5 152,-19.5 152,-0.5 0,-0.5"/>
<text text-anchor="middle" x="76" y="-7.5" font-family="Helvetica,sans-Serif" font-size="10.00">matrix_free/LinearVolume.h</text>
</a>
</g>
</g>
<!-- Node1&#45;&gt;Node2 -->
<g id="edge1" class="edge">
<title>Node1&#45;&gt;Node2</title>
<path fill="none" stroke="midnightblue" d="M978.11,-63.44C849.57,-58.97 480.5,-44.89 162.77,-20.1"/>
<polygon fill="midnightblue" stroke="midnightblue" points="162.68,-16.58 152.44,-19.29 162.13,-23.56 162.68,-16.58"/>
</g>
<!-- Node3 -->
<g id="node3" class="node">
<title>Node3</title>
<g id="a_node3"><a xlink:title=" ">
<polygon fill="white" stroke="#bfbfbf" points="170.5,-0.5 170.5,-19.5 313.5,-19.5 313.5,-0.5 170.5,-0.5"/>
<text text-anchor="middle" x="242" y="-7.5" font-family="Helvetica,sans-Serif" font-size="10.00">matrix_free/Coefficients.h</text>
</a>
</g>
</g>
<!-- Node1&#45;&gt;Node3 -->
<g id="edge2" class="edge">
<title>Node1&#45;&gt;Node3</title>
<path fill="none" stroke="midnightblue" d="M978.46,-62.8C867.2,-57.36 576.79,-42.19 323.64,-20.11"/>
<polygon fill="midnightblue" stroke="midnightblue" points="323.78,-16.61 313.51,-19.22 323.17,-23.58 323.78,-16.61"/>
</g>
<!-- Node4 -->
<g id="node4" class="node">
<title>Node4</title>
<g id="a_node4"><a xlink:title=" ">
<polygon fill="white" stroke="#bfbfbf" points="331.5,-0.5 331.5,-19.5 526.5,-19.5 526.5,-0.5 331.5,-0.5"/>
<text text-anchor="middle" x="429" y="-7.5" font-family="Helvetica,sans-Serif" font-size="10.00">matrix_free/HexVertexCoordinates.h</text>
</a>
</g>
</g>
<!-- Node1&#45;&gt;Node4 -->
<g id="edge3" class="edge">
<title>Node1&#45;&gt;Node4</title>
<path fill="none" stroke="midnightblue" d="M978.23,-60.76C882.82,-52.12 663.71,-32.27 532.91,-20.41"/>
<polygon fill="midnightblue" stroke="midnightblue" points="533.14,-16.92 522.87,-19.5 532.51,-23.89 533.14,-16.92"/>
</g>
<!-- Node5 -->
<g id="node5" class="node">
<title>Node5</title>
<g id="a_node5"><a xlink:title=" ">
<polygon fill="white" stroke="#bfbfbf" points="544.5,-0.5 544.5,-19.5 727.5,-19.5 727.5,-0.5 544.5,-0.5"/>
<text text-anchor="middle" x="636" y="-7.5" font-family="Helvetica,sans-Serif" font-size="10.00">matrix_free/GeometricFunctions.h</text>
</a>
</g>
</g>
<!-- Node1&#45;&gt;Node5 -->
<g id="edge4" class="edge">
<title>Node1&#45;&gt;Node5</title>
<path fill="none" stroke="midnightblue" d="M978.46,-58.54C911.3,-49.22 786.61,-31.91 707.65,-20.95"/>
<polygon fill="midnightblue" stroke="midnightblue" points="707.69,-17.42 697.3,-19.51 706.72,-24.35 707.69,-17.42"/>
</g>
<!-- Node6 -->
<g id="node6" class="node">
<title>Node6</title>
<g id="a_node6"><a xlink:title=" ">
<polygon fill="white" stroke="#bfbfbf" points="745.5,-0.5 745.5,-19.5 920.5,-19.5 920.5,-0.5 745.5,-0.5"/>
<text text-anchor="middle" x="833" y="-7.5" font-family="Helvetica,sans-Serif" font-size="10.00">matrix_free/KokkosFramework.h</text>
</a>
</g>
</g>
<!-- Node1&#45;&gt;Node6 -->
<g id="edge5" class="edge">
<title>Node1&#45;&gt;Node6</title>
<path fill="none" stroke="midnightblue" d="M994.58,-56.44C961.72,-47.2 909.22,-32.44 873.03,-22.26"/>
<polygon fill="midnightblue" stroke="midnightblue" points="873.85,-18.85 863.28,-19.52 871.96,-25.59 873.85,-18.85"/>
</g>
<!-- Node7 -->
<g id="node7" class="node">
<title>Node7</title>
<g id="a_node7"><a xlink:title=" ">
<polygon fill="white" stroke="#bfbfbf" points="939,-0.5 939,-19.5 1111,-19.5 1111,-0.5 939,-0.5"/>
<text text-anchor="middle" x="1025" y="-7.5" font-family="Helvetica,sans-Serif" font-size="10.00">matrix_free/KokkosViewTypes.h</text>
</a>
</g>
</g>
<!-- Node1&#45;&gt;Node7 -->
<g id="edge6" class="edge">
<title>Node1&#45;&gt;Node7</title>
<path fill="none" stroke="midnightblue" d="M1025,-56.08C1025,-49.01 1025,-38.86 1025,-29.99"/>
<polygon fill="midnightblue" stroke="midnightblue" points="1028.5,-29.75 1025,-19.75 1021.5,-29.75 1028.5,-29.75"/>
</g>
<!-- Node8 -->
<g id="node8" class="node">
<title>Node8</title>
<g id="a_node8"><a xlink:title=" ">
<polygon fill="white" stroke="#bfbfbf" points="1129,-0.5 1129,-19.5 1265,-19.5 1265,-0.5 1129,-0.5"/>
<text text-anchor="middle" x="1197" y="-7.5" font-family="Helvetica,sans-Serif" font-size="10.00">matrix_free/LocalArray.h</text>
</a>
</g>
</g>
<!-- Node1&#45;&gt;Node8 -->
<g id="edge7" class="edge">
<title>Node1&#45;&gt;Node8</title>
<path fill="none" stroke="midnightblue" d="M1052.25,-56.44C1081.44,-47.28 1127.92,-32.69 1160.31,-22.52"/>
<polygon fill="midnightblue" stroke="midnightblue" points="1161.38,-25.85 1169.87,-19.52 1159.28,-19.17 1161.38,-25.85"/>
</g>
<!-- Node9 -->
<g id="node9" class="node">
<title>Node9</title>
<g id="a_node9"><a xlink:title=" ">
<polygon fill="white" stroke="#bfbfbf" points="1283.5,-0.5 1283.5,-19.5 1456.5,-19.5 1456.5,-0.5 1283.5,-0.5"/>
<text text-anchor="middle" x="1370" y="-7.5" font-family="Helvetica,sans-Serif" font-size="10.00">matrix_free/PolynomialOrders.h</text>
</a>
</g>
</g>
<!-- Node1&#45;&gt;Node9 -->
<g id="edge8" class="edge">
<title>Node1&#45;&gt;Node9</title>
<path fill="none" stroke="midnightblue" d="M1071.53,-57.72C1131.8,-48.28 1237.18,-31.79 1305.24,-21.14"/>
<polygon fill="midnightblue" stroke="midnightblue" points="1306.07,-24.55 1315.41,-19.54 1304.99,-17.63 1306.07,-24.55"/>
</g>
<!-- Node10 -->
<g id="node10" class="node">
<title>Node10</title>
<g id="a_node10"><a xlink:title=" ">
<polygon fill="white" stroke="#bfbfbf" points="1475,-0.5 1475,-19.5 1645,-19.5 1645,-0.5 1475,-0.5"/>
<text text-anchor="middle" x="1560" y="-7.5" font-family="Helvetica,sans-Serif" font-size="10.00">matrix_free/TensorOperations.h</text>
</a>
</g>
</g>
<!-- Node1&#45;&gt;Node10 -->
<g id="edge9" class="edge">
<title>Node1&#45;&gt;Node10</title>
<path fill="none" stroke="midnightblue" d="M1071.54,-60.3C1159.02,-51.47 1349.56,-32.24 1465.1,-20.58"/>
<polygon fill="midnightblue" stroke="midnightblue" points="1465.76,-24.03 1475.36,-19.54 1465.05,-17.07 1465.76,-24.03"/>
</g>
<!-- Node11 -->
<g id="node11" class="node">
<title>Node11</title>
<g id="a_node11"><a xlink:title=" ">
<polygon fill="white" stroke="#bfbfbf" points="1663,-0.5 1663,-19.5 1767,-19.5 1767,-0.5 1663,-0.5"/>
<text text-anchor="middle" x="1715" y="-7.5" font-family="Helvetica,sans-Serif" font-size="10.00">KokkosInterface.h</text>
</a>
</g>
</g>
<!-- Node1&#45;&gt;Node11 -->
<g id="edge10" class="edge">
<title>Node1&#45;&gt;Node11</title>
<path fill="none" stroke="midnightblue" d="M1071.66,-62.86C1174.64,-57.89 1429.28,-44.16 1652.84,-20.05"/>
<polygon fill="midnightblue" stroke="midnightblue" points="1653.23,-23.53 1662.79,-18.97 1652.47,-16.57 1653.23,-23.53"/>
</g>
<!-- Node12 -->
<g id="node12" class="node">
<title>Node12</title>
<g id="a_node12"><a xlink:title=" ">
<polygon fill="white" stroke="#bfbfbf" points="1785.5,-0.5 1785.5,-19.5 1898.5,-19.5 1898.5,-0.5 1785.5,-0.5"/>
<text text-anchor="middle" x="1842" y="-7.5" font-family="Helvetica,sans-Serif" font-size="10.00">Kokkos_Macros.hpp</text>
</a>
</g>
</g>
<!-- Node1&#45;&gt;Node12 -->
<g id="edge11" class="edge">
<title>Node1&#45;&gt;Node12</title>
<path fill="none" stroke="midnightblue" d="M1071.68,-63.43C1188.37,-59.25 1502.37,-46.37 1775.06,-20.01"/>
<polygon fill="midnightblue" stroke="midnightblue" points="1775.54,-23.48 1785.15,-19.03 1774.86,-16.52 1775.54,-23.48"/>
</g>
</g>
</svg>
