<?xml version="1.0" encoding="UTF-8" standalone="no"?>
<!DOCTYPE svg PUBLIC "-//W3C//DTD SVG 1.1//EN"
 "http://www.w3.org/Graphics/SVG/1.1/DTD/svg11.dtd">
<!-- Generated by graphviz version 2.43.0 (0)
 -->
<!-- Title: LinearSystem.C Pages: 1 -->
<!--zoomable 95 -->
<svg id="main" version="1.1" xmlns="http://www.w3.org/2000/svg" xmlns:xlink="http://www.w3.org/1999/xlink" xml:space="preserve" onload="init(evt)">
<style type="text/css"><![CDATA[
.edge:hover path { stroke: red; }
.edge:hover polygon { stroke: red; fill: red; }
]]></style>
<script type="text/javascript"><![CDATA[
var edges = document.getElementsByTagName('g');
if (edges && edges.length) {
  for (var i=0;i<edges.length;i++) {
    if (edges[i].id.substr(0,4)=='edge') {
      edges[i].setAttribute('class','edge');
    }
  }
}
]]></script>
        <defs>
                <circle id="rim" cx="0" cy="0" r="7"/>
                <circle id="rim2" cx="0" cy="0" r="3.5"/>
                <g id="zoomPlus">
                        <use xlink:href="#rim" fill="#404040">
                                <set attributeName="fill" to="#808080" begin="zoomplus.mouseover" end="zoomplus.mouseout"/>
                        </use>
                        <path d="M-4,0h8M0,-4v8" fill="none" stroke="white" stroke-width="1.5" pointer-events="none"/>
                </g>
                <g id="zoomMin">
                        <use xlink:href="#rim" fill="#404040">
                                <set attributeName="fill" to="#808080" begin="zoomminus.mouseover" end="zoomminus.mouseout"/>
                        </use>
                        <path d="M-4,0h8" fill="none" stroke="white" stroke-width="1.5" pointer-events="none"/>
                </g>
                <g id="dirArrow">
                        <path fill="none" stroke="white" stroke-width="1.5" d="M0,-3.0v7 M-2.5,-0.5L0,-3.0L2.5,-0.5"/>
                </g>
               <g id="resetDef">
                       <use xlink:href="#rim2" fill="#404040">
                               <set attributeName="fill" to="#808080" begin="reset.mouseover" end="reset.mouseout"/>
                       </use>
               </g>
        </defs>

<script type="text/javascript">
var viewWidth = 3296;
var viewHeight = 95;
var sectionId = 'dynsection-0';
</script>
<script xlink:href="svgpan.js"/>
<svg id="graph" class="graph">
<g id="viewport">
<title>LinearSystem.C</title>
<polygon fill="white" stroke="transparent" points="-4,4 -4,-91 3292,-91 3292,4 -4,4"/>
<!-- Node1 -->
<g id="node1" class="node">
<title>Node1</title>
<g id="a_node1"><a xlink:title=" ">
<polygon fill="#bfbfbf" stroke="black" points="1403.5,-67.5 1403.5,-86.5 1496.5,-86.5 1496.5,-67.5 1403.5,-67.5"/>
<text text-anchor="middle" x="1450" y="-74.5" font-family="Helvetica,sans-Serif" font-size="10.00">LinearSystem.C</text>
</a>
</g>
</g>
<!-- Node2 -->
<g id="node2" class="node">
<title>Node2</title>
<g id="a_node2"><a xlink:title=" ">
<polygon fill="white" stroke="#bfbfbf" points="0,-6 0,-25 92,-25 92,-6 0,-6"/>
<text text-anchor="middle" x="46" y="-13" font-family="Helvetica,sans-Serif" font-size="10.00">LinearSystem.h</text>
</a>
</g>
</g>
<!-- Node1&#45;&gt;Node2 -->
<g id="edge1" class="edge">
<title>Node1&#45;&gt;Node2</title>
<path fill="none" stroke="midnightblue" d="M1403.17,-75.85C1195.94,-74.95 360.24,-69 101,-31 95.18,-30.15 89.09,-28.91 83.17,-27.5"/>
<polygon fill="midnightblue" stroke="midnightblue" points="84,-24.1 73.45,-25.03 82.28,-30.89 84,-24.1"/>
</g>
<!-- Node3 -->
<g id="node3" class="node">
<title>Node3</title>
<g id="a_node3"><a xlink:title=" ">
<polygon fill="white" stroke="#bfbfbf" points="110.5,-6 110.5,-25 215.5,-25 215.5,-6 110.5,-6"/>
<text text-anchor="middle" x="163" y="-13" font-family="Helvetica,sans-Serif" font-size="10.00">EquationSystem.h</text>
</a>
</g>
</g>
<!-- Node1&#45;&gt;Node3 -->
<g id="edge2" class="edge">
<title>Node1&#45;&gt;Node3</title>
<path fill="none" stroke="midnightblue" d="M1403.26,-75.51C1208.2,-73.29 458.27,-62.83 224,-31 217.49,-30.12 210.65,-28.84 204.01,-27.41"/>
<polygon fill="midnightblue" stroke="midnightblue" points="204.34,-23.89 193.81,-25.07 202.77,-30.72 204.34,-23.89"/>
</g>
<!-- Node4 -->
<g id="node4" class="node">
<title>Node4</title>
<g id="a_node4"><a xlink:title=" ">
<polygon fill="white" stroke="#bfbfbf" points="233.5,-6 233.5,-25 290.5,-25 290.5,-6 233.5,-6"/>
<text text-anchor="middle" x="262" y="-13" font-family="Helvetica,sans-Serif" font-size="10.00">Realm.h</text>
</a>
</g>
</g>
<!-- Node1&#45;&gt;Node4 -->
<g id="edge3" class="edge">
<title>Node1&#45;&gt;Node4</title>
<path fill="none" stroke="midnightblue" d="M1403.2,-76.19C1215.4,-76.64 516.18,-75.23 300,-31 296.92,-30.37 293.76,-29.52 290.64,-28.54"/>
<polygon fill="midnightblue" stroke="midnightblue" points="291.56,-25.16 280.97,-25.12 289.23,-31.76 291.56,-25.16"/>
</g>
<!-- Node5 -->
<g id="node5" class="node">
<title>Node5</title>
<g id="a_node5"><a xlink:title=" ">
<polygon fill="white" stroke="#bfbfbf" points="309,-6 309,-25 387,-25 387,-6 309,-6"/>
<text text-anchor="middle" x="348" y="-13" font-family="Helvetica,sans-Serif" font-size="10.00">Simulation.h</text>
</a>
</g>
</g>
<!-- Node1&#45;&gt;Node5 -->
<g id="edge4" class="edge">
<title>Node1&#45;&gt;Node5</title>
<path fill="none" stroke="midnightblue" d="M1403.31,-75.56C1225.94,-73.65 593.95,-64.58 396,-31 391.44,-30.23 386.7,-29.15 382.05,-27.92"/>
<polygon fill="midnightblue" stroke="midnightblue" points="382.71,-24.47 372.14,-25.08 380.78,-31.2 382.71,-24.47"/>
</g>
<!-- Node6 -->
<g id="node6" class="node">
<title>Node6</title>
<g id="a_node6"><a xlink:title=" ">
<polygon fill="white" stroke="#bfbfbf" points="405,-6 405,-25 491,-25 491,-6 405,-6"/>
<text text-anchor="middle" x="448" y="-13" font-family="Helvetica,sans-Serif" font-size="10.00">LinearSolver.h</text>
</a>
</g>
</g>
<!-- Node1&#45;&gt;Node6 -->
<g id="edge5" class="edge">
<title>Node1&#45;&gt;Node6</title>
<path fill="none" stroke="midnightblue" d="M1403.46,-75.18C1237.78,-72.04 677.08,-59.51 500,-31 494.81,-30.16 489.4,-29 484.12,-27.69"/>
<polygon fill="midnightblue" stroke="midnightblue" points="484.76,-24.24 474.2,-25.04 482.96,-31 484.76,-24.24"/>
</g>
<!-- Node7 -->
<g id="node7" class="node">
<title>Node7</title>
<g id="a_node7"><a xlink:title=" ">
<polygon fill="white" stroke="#bfbfbf" points="509.5,-6 509.5,-25 692.5,-25 692.5,-6 509.5,-6"/>
<text text-anchor="middle" x="601" y="-13" font-family="Helvetica,sans-Serif" font-size="10.00">master_element/MasterElement.h</text>
</a>
</g>
</g>
<!-- Node1&#45;&gt;Node7 -->
<g id="edge6" class="edge">
<title>Node1&#45;&gt;Node7</title>
<path fill="none" stroke="midnightblue" d="M1403.44,-74.56C1285.58,-70.63 966.02,-58.13 701,-31 689,-29.77 676.24,-28.16 663.98,-26.45"/>
<polygon fill="midnightblue" stroke="midnightblue" points="664.23,-22.95 653.83,-25.01 663.24,-29.88 664.23,-22.95"/>
</g>
<!-- Node8 -->
<g id="node8" class="node">
<title>Node8</title>
<g id="a_node8"><a xlink:title=" ">
<polygon fill="white" stroke="#bfbfbf" points="710.5,-6 710.5,-25 775.5,-25 775.5,-6 710.5,-6"/>
<text text-anchor="middle" x="743" y="-13" font-family="Helvetica,sans-Serif" font-size="10.00">NaluEnv.h</text>
</a>
</g>
</g>
<!-- Node1&#45;&gt;Node8 -->
<g id="edge7" class="edge">
<title>Node1&#45;&gt;Node8</title>
<path fill="none" stroke="midnightblue" d="M1403.44,-74.45C1272.63,-69.85 903.65,-55.05 785,-31 781.49,-30.29 777.88,-29.36 774.3,-28.31"/>
<polygon fill="midnightblue" stroke="midnightblue" points="775.09,-24.89 764.49,-25.14 772.93,-31.55 775.09,-24.89"/>
</g>
<!-- Node9 -->
<g id="node9" class="node">
<title>Node9</title>
<g id="a_node9"><a xlink:title=" ">
<polygon fill="white" stroke="#bfbfbf" points="794,-6 794,-25 946,-25 946,-6 794,-6"/>
<text text-anchor="middle" x="870" y="-13" font-family="Helvetica,sans-Serif" font-size="10.00">stk_util/parallel/Parallel.hpp</text>
</a>
</g>
</g>
<!-- Node1&#45;&gt;Node9 -->
<g id="edge8" class="edge">
<title>Node1&#45;&gt;Node9</title>
<path fill="none" stroke="midnightblue" d="M1403.46,-72.99C1315.58,-67.04 1119.29,-52.45 955,-31 945.64,-29.78 935.72,-28.28 926.1,-26.71"/>
<polygon fill="midnightblue" stroke="midnightblue" points="926.66,-23.25 916.22,-25.06 925.51,-30.16 926.66,-23.25"/>
</g>
<!-- Node10 -->
<g id="node10" class="node">
<title>Node10</title>
<g id="a_node10"><a xlink:title=" ">
<polygon fill="white" stroke="#bfbfbf" points="964.5,-0.5 964.5,-30.5 1095.5,-30.5 1095.5,-0.5 964.5,-0.5"/>
<text text-anchor="start" x="972.5" y="-18.5" font-family="Helvetica,sans-Serif" font-size="10.00">stk_util/parallel/Parallel</text>
<text text-anchor="middle" x="1030" y="-7.5" font-family="Helvetica,sans-Serif" font-size="10.00">Reduce.hpp</text>
</a>
</g>
</g>
<!-- Node1&#45;&gt;Node10 -->
<g id="edge9" class="edge">
<title>Node1&#45;&gt;Node10</title>
<path fill="none" stroke="midnightblue" d="M1403.41,-70.9C1338.79,-63.62 1218.06,-49.25 1105.86,-31.25"/>
<polygon fill="midnightblue" stroke="midnightblue" points="1106.16,-27.75 1095.73,-29.61 1105.04,-34.66 1106.16,-27.75"/>
</g>
<!-- Node11 -->
<g id="node11" class="node">
<title>Node11</title>
<g id="a_node11"><a xlink:title=" ">
<polygon fill="white" stroke="#bfbfbf" points="1113.5,-6 1113.5,-25 1272.5,-25 1272.5,-6 1113.5,-6"/>
<text text-anchor="middle" x="1193" y="-13" font-family="Helvetica,sans-Serif" font-size="10.00">stk_mesh/base/BulkData.hpp</text>
</a>
</g>
</g>
<!-- Node1&#45;&gt;Node11 -->
<g id="edge10" class="edge">
<title>Node1&#45;&gt;Node11</title>
<path fill="none" stroke="midnightblue" d="M1413.18,-67.48C1367.47,-56.89 1289.47,-38.84 1239.63,-27.3"/>
<polygon fill="midnightblue" stroke="midnightblue" points="1240.29,-23.85 1229.75,-25.01 1238.71,-30.67 1240.29,-23.85"/>
</g>
<!-- Node12 -->
<g id="node12" class="node">
<title>Node12</title>
<g id="a_node12"><a xlink:title=" ">
<polygon fill="white" stroke="#bfbfbf" points="1290.5,-6 1290.5,-25 1437.5,-25 1437.5,-6 1290.5,-6"/>
<text text-anchor="middle" x="1364" y="-13" font-family="Helvetica,sans-Serif" font-size="10.00">stk_mesh/base/Bucket.hpp</text>
</a>
</g>
</g>
<!-- Node1&#45;&gt;Node12 -->
<g id="edge11" class="edge">
<title>Node1&#45;&gt;Node12</title>
<path fill="none" stroke="midnightblue" d="M1437.68,-67.48C1423.88,-57.93 1401.3,-42.31 1384.77,-30.87"/>
<polygon fill="midnightblue" stroke="midnightblue" points="1386.51,-27.82 1376.3,-25.01 1382.53,-33.58 1386.51,-27.82"/>
</g>
<!-- Node13 -->
<g id="node13" class="node">
<title>Node13</title>
<g id="a_node13"><a xlink:title=" ">
<polygon fill="white" stroke="#bfbfbf" points="1456,-6 1456,-25 1618,-25 1618,-6 1456,-6"/>
<text text-anchor="middle" x="1537" y="-13" font-family="Helvetica,sans-Serif" font-size="10.00">stk_mesh/base/MetaData.hpp</text>
</a>
</g>
</g>
<!-- Node1&#45;&gt;Node13 -->
<g id="edge12" class="edge">
<title>Node1&#45;&gt;Node13</title>
<path fill="none" stroke="midnightblue" d="M1462.46,-67.48C1476.42,-57.93 1499.26,-42.31 1515.99,-30.87"/>
<polygon fill="midnightblue" stroke="midnightblue" points="1518.28,-33.54 1524.56,-25.01 1514.33,-27.77 1518.28,-33.54"/>
</g>
<!-- Node14 -->
<g id="node14" class="node">
<title>Node14</title>
<g id="a_node14"><a xlink:title=" ">
<polygon fill="white" stroke="#bfbfbf" points="1636.5,-6 1636.5,-25 1789.5,-25 1789.5,-6 1636.5,-6"/>
<text text-anchor="middle" x="1713" y="-13" font-family="Helvetica,sans-Serif" font-size="10.00">stk_mesh/base/Selector.hpp</text>
</a>
</g>
</g>
<!-- Node1&#45;&gt;Node14 -->
<g id="edge13" class="edge">
<title>Node1&#45;&gt;Node14</title>
<path fill="none" stroke="midnightblue" d="M1487.68,-67.48C1534.55,-56.87 1614.61,-38.76 1665.6,-27.22"/>
<polygon fill="midnightblue" stroke="midnightblue" points="1666.41,-30.63 1675.39,-25.01 1664.86,-23.8 1666.41,-30.63"/>
</g>
<!-- Node15 -->
<g id="node15" class="node">
<title>Node15</title>
<g id="a_node15"><a xlink:title=" ">
<polygon fill="white" stroke="#bfbfbf" points="1808,-6 1808,-25 1978,-25 1978,-6 1808,-6"/>
<text text-anchor="middle" x="1893" y="-13" font-family="Helvetica,sans-Serif" font-size="10.00">stk_mesh/base/GetBuckets.hpp</text>
</a>
</g>
</g>
<!-- Node1&#45;&gt;Node15 -->
<g id="edge14" class="edge">
<title>Node1&#45;&gt;Node15</title>
<path fill="none" stroke="midnightblue" d="M1496.62,-70.36C1563.59,-62.18 1690.88,-46.31 1799,-31 1808.81,-29.61 1819.18,-28.08 1829.32,-26.54"/>
<polygon fill="midnightblue" stroke="midnightblue" points="1829.99,-29.98 1839.35,-25.01 1828.93,-23.06 1829.99,-29.98"/>
</g>
<!-- Node16 -->
<g id="node16" class="node">
<title>Node16</title>
<g id="a_node16"><a xlink:title=" ">
<polygon fill="white" stroke="#bfbfbf" points="1996.5,-6 1996.5,-25 2129.5,-25 2129.5,-6 1996.5,-6"/>
<text text-anchor="middle" x="2063" y="-13" font-family="Helvetica,sans-Serif" font-size="10.00">stk_mesh/base/Part.hpp</text>
</a>
</g>
</g>
<!-- Node1&#45;&gt;Node16 -->
<g id="edge15" class="edge">
<title>Node1&#45;&gt;Node16</title>
<path fill="none" stroke="midnightblue" d="M1496.51,-73.75C1589.84,-68.87 1806.48,-55.71 1987,-31 1995.32,-29.86 2004.11,-28.41 2012.65,-26.88"/>
<polygon fill="midnightblue" stroke="midnightblue" points="2013.31,-30.31 2022.5,-25.04 2012.03,-23.43 2013.31,-30.31"/>
</g>
<!-- Node17 -->
<g id="node17" class="node">
<title>Node17</title>
<g id="a_node17"><a xlink:title=" ">
<polygon fill="white" stroke="#bfbfbf" points="2148,-6 2148,-25 2308,-25 2308,-6 2148,-6"/>
<text text-anchor="middle" x="2228" y="-13" font-family="Helvetica,sans-Serif" font-size="10.00">stk_mesh/base/NgpMesh.hpp</text>
</a>
</g>
</g>
<!-- Node1&#45;&gt;Node17 -->
<g id="edge16" class="edge">
<title>Node1&#45;&gt;Node17</title>
<path fill="none" stroke="midnightblue" d="M1496.51,-74.51C1607.8,-70.6 1898.11,-58.42 2139,-31 2149.37,-29.82 2160.38,-28.27 2170.99,-26.62"/>
<polygon fill="midnightblue" stroke="midnightblue" points="2171.68,-30.06 2181,-25.02 2170.58,-23.14 2171.68,-30.06"/>
</g>
<!-- Node18 -->
<g id="node18" class="node">
<title>Node18</title>
<g id="a_node18"><a xlink:title=" ">
<polygon fill="white" stroke="#bfbfbf" points="2326.5,-6 2326.5,-25 2471.5,-25 2471.5,-6 2326.5,-6"/>
<text text-anchor="middle" x="2399" y="-13" font-family="Helvetica,sans-Serif" font-size="10.00">stk_topology/topology.hpp</text>
</a>
</g>
</g>
<!-- Node1&#45;&gt;Node18 -->
<g id="edge17" class="edge">
<title>Node1&#45;&gt;Node18</title>
<path fill="none" stroke="midnightblue" d="M1496.69,-75.6C1626.93,-74.03 2005.14,-66.53 2317,-31 2326.59,-29.91 2336.77,-28.4 2346.56,-26.76"/>
<polygon fill="midnightblue" stroke="midnightblue" points="2347.33,-30.18 2356.59,-25.03 2346.14,-23.28 2347.33,-30.18"/>
</g>
<!-- Node19 -->
<g id="node19" class="node">
<title>Node19</title>
<g id="a_node19"><a xlink:title=" ">
<polygon fill="white" stroke="#bfbfbf" points="2489.5,-6 2489.5,-25 2662.5,-25 2662.5,-6 2489.5,-6"/>
<text text-anchor="middle" x="2576" y="-13" font-family="Helvetica,sans-Serif" font-size="10.00">stk_mesh/base/FieldParallel.hpp</text>
</a>
</g>
</g>
<!-- Node1&#45;&gt;Node19 -->
<g id="edge18" class="edge">
<title>Node1&#45;&gt;Node19</title>
<path fill="none" stroke="midnightblue" d="M1496.62,-75.75C1642.38,-74.6 2102.31,-68.06 2481,-31 2492.56,-29.87 2504.86,-28.28 2516.63,-26.57"/>
<polygon fill="midnightblue" stroke="midnightblue" points="2517.45,-29.98 2526.82,-25.04 2516.41,-23.06 2517.45,-29.98"/>
</g>
<!-- Node20 -->
<g id="node20" class="node">
<title>Node20</title>
<g id="a_node20"><a xlink:title=" ">
<polygon fill="white" stroke="#bfbfbf" points="2680.5,-6 2680.5,-25 2873.5,-25 2873.5,-6 2680.5,-6"/>
<text text-anchor="middle" x="2777" y="-13" font-family="Helvetica,sans-Serif" font-size="10.00">stk_mesh/base/NgpFieldParallel.hpp</text>
</a>
</g>
</g>
<!-- Node1&#45;&gt;Node20 -->
<g id="edge19" class="edge">
<title>Node1&#45;&gt;Node20</title>
<path fill="none" stroke="midnightblue" d="M1496.72,-75.97C1659.28,-75.49 2215.17,-70.85 2672,-31 2685.22,-29.85 2699.33,-28.19 2712.77,-26.41"/>
<polygon fill="midnightblue" stroke="midnightblue" points="2713.46,-29.85 2722.89,-25.03 2712.51,-22.91 2713.46,-29.85"/>
</g>
<!-- Node21 -->
<g id="node21" class="node">
<title>Node21</title>
<g id="a_node21"><a xlink:title=" ">
<polygon fill="white" stroke="#bfbfbf" points="2892,-6 2892,-25 3044,-25 3044,-6 2892,-6"/>
<text text-anchor="middle" x="2968" y="-13" font-family="Helvetica,sans-Serif" font-size="10.00">Teuchos_VerboseObject.hpp</text>
</a>
</g>
</g>
<!-- Node1&#45;&gt;Node21 -->
<g id="edge20" class="edge">
<title>Node1&#45;&gt;Node21</title>
<path fill="none" stroke="midnightblue" d="M1496.76,-75.4C1711.55,-72.5 2604.85,-58.96 2883,-31 2893.38,-29.96 2904.42,-28.41 2914.97,-26.7"/>
<polygon fill="midnightblue" stroke="midnightblue" points="2915.63,-30.14 2924.91,-25.03 2914.47,-23.24 2915.63,-30.14"/>
</g>
<!-- Node22 -->
<g id="node22" class="node">
<title>Node22</title>
<g id="a_node22"><a xlink:title=" ">
<polygon fill="white" stroke="#bfbfbf" points="3062,-6 3062,-25 3214,-25 3214,-6 3062,-6"/>
<text text-anchor="middle" x="3138" y="-13" font-family="Helvetica,sans-Serif" font-size="10.00">Teuchos_FancyOStream.hpp</text>
</a>
</g>
</g>
<!-- Node1&#45;&gt;Node22 -->
<g id="edge21" class="edge">
<title>Node1&#45;&gt;Node22</title>
<path fill="none" stroke="midnightblue" d="M1496.83,-75.58C1726.96,-73.36 2739.4,-61.99 3053,-31 3063.39,-29.97 3074.42,-28.43 3084.98,-26.73"/>
<polygon fill="midnightblue" stroke="midnightblue" points="3085.64,-30.17 3094.92,-25.06 3084.48,-23.26 3085.64,-30.17"/>
</g>
<!-- Node23 -->
<g id="node23" class="node">
<title>Node23</title>
<g id="a_node23"><a xlink:title=" ">
<polygon fill="white" stroke="#bfbfbf" points="3232,-6 3232,-25 3288,-25 3288,-6 3232,-6"/>
<text text-anchor="middle" x="3260" y="-13" font-family="Helvetica,sans-Serif" font-size="10.00">sstream</text>
</a>
</g>
</g>
<!-- Node1&#45;&gt;Node23 -->
<g id="edge22" class="edge">
<title>Node1&#45;&gt;Node23</title>
<path fill="none" stroke="midnightblue" d="M1496.63,-75.78C1759.41,-74.43 3049.65,-66.04 3223,-31 3226.08,-30.38 3229.23,-29.52 3232.34,-28.53"/>
<polygon fill="midnightblue" stroke="midnightblue" points="3233.74,-31.74 3241.94,-25.03 3231.35,-25.16 3233.74,-31.74"/>
</g>
</g>
</svg>
        <g id="navigator" transform="translate(0 0)" fill="#404254">
                <rect fill="#f2f5e9" fill-opacity="0.5" stroke="#606060" stroke-width=".5" x="0" y="0" width="60" height="60"/>
                <use id="zoomplus" xlink:href="#zoomPlus" x="17" y="9" onmousedown="handleZoom(evt,'in')"/>
                <use id="zoomminus" xlink:href="#zoomMin" x="42" y="9" onmousedown="handleZoom(evt,'out')"/>
                <use id="reset" xlink:href="#resetDef" x="30" y="36" onmousedown="handleReset()"/>
                <g id="arrowUp" xlink:href="#dirArrow" transform="translate(30 24)" onmousedown="handlePan(0,-1)">
                  <use xlink:href="#rim" fill="#404040">
                        <set attributeName="fill" to="#808080" begin="arrowUp.mouseover" end="arrowUp.mouseout"/>
                  </use>
                  <path fill="none" stroke="white" stroke-width="1.5" d="M0,-3.0v7 M-2.5,-0.5L0,-3.0L2.5,-0.5"/>
                </g>
                <g id="arrowRight" xlink:href="#dirArrow" transform="rotate(90) translate(36 -43)" onmousedown="handlePan(1,0)">
                  <use xlink:href="#rim" fill="#404040">
                        <set attributeName="fill" to="#808080" begin="arrowRight.mouseover" end="arrowRight.mouseout"/>
                  </use>
                  <path fill="none" stroke="white" stroke-width="1.5" d="M0,-3.0v7 M-2.5,-0.5L0,-3.0L2.5,-0.5"/>
                </g>
                <g id="arrowDown" xlink:href="#dirArrow" transform="rotate(180) translate(-30 -48)" onmousedown="handlePan(0,1)">
                  <use xlink:href="#rim" fill="#404040">
                        <set attributeName="fill" to="#808080" begin="arrowDown.mouseover" end="arrowDown.mouseout"/>
                  </use>
                  <path fill="none" stroke="white" stroke-width="1.5" d="M0,-3.0v7 M-2.5,-0.5L0,-3.0L2.5,-0.5"/>
                </g>
                <g id="arrowLeft" xlink:href="#dirArrow" transform="rotate(270) translate(-36 17)" onmousedown="handlePan(-1,0)">
                  <use xlink:href="#rim" fill="#404040">
                        <set attributeName="fill" to="#808080" begin="arrowLeft.mouseover" end="arrowLeft.mouseout"/>
                  </use>
                  <path fill="none" stroke="white" stroke-width="1.5" d="M0,-3.0v7 M-2.5,-0.5L0,-3.0L2.5,-0.5"/>
                </g>
        </g>
        <svg viewBox="0 0 15 15" width="100%" height="30px" preserveAspectRatio="xMaxYMin meet">
         <g id="arrow_out" transform="scale(0.3 0.3)">
          <a xlink:href="_linear_system_8_c__incl_org.svg" target="_base">
           <rect id="button" ry="5" rx="5" y="6" x="6" height="38" width="38"
                fill="#f2f5e9" fill-opacity="0.5" stroke="#606060" stroke-width="1.0"/>
           <path id="arrow"
             d="M 11.500037,31.436501 C 11.940474,20.09759 22.043105,11.32322 32.158766,21.979434 L 37.068811,17.246167 C 37.068811,17.246167 37.088388,32 37.088388,32 L 22.160133,31.978069 C 22.160133,31.978069 26.997745,27.140456 26.997745,27.140456 C 18.528582,18.264221 13.291696,25.230495 11.500037,31.436501 z"
             style="fill:#404040;"/>
          </a>
         </g>
        </svg>
</svg>
