<?xml version="1.0" encoding="UTF-8" standalone="no"?>
<!DOCTYPE svg PUBLIC "-//W3C//DTD SVG 1.1//EN"
 "http://www.w3.org/Graphics/SVG/1.1/DTD/svg11.dtd">
<!-- Generated by graphviz version 2.43.0 (0)
 -->
<!-- Title: LinearDiffusionMetric.C Pages: 1 -->
<svg width="1609pt" height="95pt"
 viewBox="0.00 0.00 1609.00 95.00" xmlns="http://www.w3.org/2000/svg" xmlns:xlink="http://www.w3.org/1999/xlink">
<g id="graph0" class="graph" transform="scale(1 1) rotate(0) translate(4 91)">
<title>LinearDiffusionMetric.C</title>
<polygon fill="white" stroke="transparent" points="-4,4 -4,-91 1605,-91 1605,4 -4,4"/>
<!-- Node1 -->
<g id="node1" class="node">
<title>Node1</title>
<g id="a_node1"><a xlink:title=" ">
<polygon fill="#bfbfbf" stroke="black" points="785.5,-67.5 785.5,-86.5 916.5,-86.5 916.5,-67.5 785.5,-67.5"/>
<text text-anchor="middle" x="851" y="-74.5" font-family="Helvetica,sans-Serif" font-size="10.00">LinearDiffusionMetric.C</text>
</a>
</g>
</g>
<!-- Node2 -->
<g id="node2" class="node">
<title>Node2</title>
<g id="a_node2"><a xlink:title=" ">
<polygon fill="white" stroke="#bfbfbf" points="0,-0.5 0,-30.5 150,-30.5 150,-0.5 0,-0.5"/>
<text text-anchor="start" x="8" y="-18.5" font-family="Helvetica,sans-Serif" font-size="10.00">matrix_free/LinearDiffusion</text>
<text text-anchor="middle" x="75" y="-7.5" font-family="Helvetica,sans-Serif" font-size="10.00">Metric.h</text>
</a>
</g>
</g>
<!-- Node1&#45;&gt;Node2 -->
<g id="edge1" class="edge">
<title>Node1&#45;&gt;Node2</title>
<path fill="none" stroke="midnightblue" d="M785.43,-74.05C664.05,-69.94 395.98,-58.49 160.19,-31.05"/>
<polygon fill="midnightblue" stroke="midnightblue" points="160.39,-27.55 150.05,-29.86 159.57,-34.5 160.39,-27.55"/>
</g>
<!-- Node3 -->
<g id="node3" class="node">
<title>Node3</title>
<g id="a_node3"><a xlink:title=" ">
<polygon fill="white" stroke="#bfbfbf" points="168.5,-6 168.5,-25 311.5,-25 311.5,-6 168.5,-6"/>
<text text-anchor="middle" x="240" y="-13" font-family="Helvetica,sans-Serif" font-size="10.00">matrix_free/Coefficients.h</text>
</a>
</g>
</g>
<!-- Node1&#45;&gt;Node3 -->
<g id="edge2" class="edge">
<title>Node1&#45;&gt;Node3</title>
<path fill="none" stroke="midnightblue" d="M785.1,-72.37C684.67,-66.39 487.4,-52.91 321,-31 312.15,-29.83 302.79,-28.37 293.71,-26.83"/>
<polygon fill="midnightblue" stroke="midnightblue" points="294.06,-23.34 283.6,-25.07 292.85,-30.24 294.06,-23.34"/>
</g>
<!-- Node4 -->
<g id="node4" class="node">
<title>Node4</title>
<g id="a_node4"><a xlink:title=" ">
<polygon fill="white" stroke="#bfbfbf" points="330,-6 330,-25 528,-25 528,-6 330,-6"/>
<text text-anchor="middle" x="429" y="-13" font-family="Helvetica,sans-Serif" font-size="10.00">matrix_free/ElementSCSInterpolate.h</text>
</a>
</g>
</g>
<!-- Node1&#45;&gt;Node4 -->
<g id="edge3" class="edge">
<title>Node1&#45;&gt;Node4</title>
<path fill="none" stroke="midnightblue" d="M790.54,-67.48C713.61,-56.63 580.96,-37.93 499.51,-26.44"/>
<polygon fill="midnightblue" stroke="midnightblue" points="499.74,-22.94 489.35,-25.01 498.76,-29.87 499.74,-22.94"/>
</g>
<!-- Node5 -->
<g id="node5" class="node">
<title>Node5</title>
<g id="a_node5"><a xlink:title=" ">
<polygon fill="white" stroke="#bfbfbf" points="546.5,-6 546.5,-25 741.5,-25 741.5,-6 546.5,-6"/>
<text text-anchor="middle" x="644" y="-13" font-family="Helvetica,sans-Serif" font-size="10.00">matrix_free/HexVertexCoordinates.h</text>
</a>
</g>
</g>
<!-- Node1&#45;&gt;Node5 -->
<g id="edge4" class="edge">
<title>Node1&#45;&gt;Node5</title>
<path fill="none" stroke="midnightblue" d="M821.34,-67.48C785.07,-57.05 723.54,-39.36 683.34,-27.81"/>
<polygon fill="midnightblue" stroke="midnightblue" points="684.18,-24.41 673.6,-25.01 682.25,-31.14 684.18,-24.41"/>
</g>
<!-- Node6 -->
<g id="node6" class="node">
<title>Node6</title>
<g id="a_node6"><a xlink:title=" ">
<polygon fill="white" stroke="#bfbfbf" points="759.5,-6 759.5,-25 942.5,-25 942.5,-6 759.5,-6"/>
<text text-anchor="middle" x="851" y="-13" font-family="Helvetica,sans-Serif" font-size="10.00">matrix_free/GeometricFunctions.h</text>
</a>
</g>
</g>
<!-- Node1&#45;&gt;Node6 -->
<g id="edge5" class="edge">
<title>Node1&#45;&gt;Node6</title>
<path fill="none" stroke="midnightblue" d="M851,-67.48C851,-59.08 851,-45.98 851,-35.16"/>
<polygon fill="midnightblue" stroke="midnightblue" points="854.5,-35.01 851,-25.01 847.5,-35.01 854.5,-35.01"/>
</g>
<!-- Node7 -->
<g id="node7" class="node">
<title>Node7</title>
<g id="a_node7"><a xlink:title=" ">
<polygon fill="white" stroke="#bfbfbf" points="961,-6 961,-25 1133,-25 1133,-6 961,-6"/>
<text text-anchor="middle" x="1047" y="-13" font-family="Helvetica,sans-Serif" font-size="10.00">matrix_free/KokkosViewTypes.h</text>
</a>
</g>
</g>
<!-- Node1&#45;&gt;Node7 -->
<g id="edge6" class="edge">
<title>Node1&#45;&gt;Node7</title>
<path fill="none" stroke="midnightblue" d="M879.08,-67.48C913.29,-57.09 971.2,-39.51 1009.27,-27.95"/>
<polygon fill="midnightblue" stroke="midnightblue" points="1010.42,-31.26 1018.97,-25.01 1008.38,-24.56 1010.42,-31.26"/>
</g>
<!-- Node8 -->
<g id="node8" class="node">
<title>Node8</title>
<g id="a_node8"><a xlink:title=" ">
<polygon fill="white" stroke="#bfbfbf" points="1151,-6 1151,-25 1287,-25 1287,-6 1151,-6"/>
<text text-anchor="middle" x="1219" y="-13" font-family="Helvetica,sans-Serif" font-size="10.00">matrix_free/LocalArray.h</text>
</a>
</g>
</g>
<!-- Node1&#45;&gt;Node8 -->
<g id="edge7" class="edge">
<title>Node1&#45;&gt;Node8</title>
<path fill="none" stroke="midnightblue" d="M909.89,-67.47C968.74,-58.81 1061.76,-44.76 1142,-31 1149.46,-29.72 1157.31,-28.31 1165.03,-26.89"/>
<polygon fill="midnightblue" stroke="midnightblue" points="1165.88,-30.3 1175.07,-25.03 1164.6,-23.42 1165.88,-30.3"/>
</g>
<!-- Node9 -->
<g id="node9" class="node">
<title>Node9</title>
<g id="a_node9"><a xlink:title=" ">
<polygon fill="white" stroke="#bfbfbf" points="1305.5,-6 1305.5,-25 1478.5,-25 1478.5,-6 1305.5,-6"/>
<text text-anchor="middle" x="1392" y="-13" font-family="Helvetica,sans-Serif" font-size="10.00">matrix_free/PolynomialOrders.h</text>
</a>
</g>
</g>
<!-- Node1&#45;&gt;Node9 -->
<g id="edge8" class="edge">
<title>Node1&#45;&gt;Node9</title>
<path fill="none" stroke="midnightblue" d="M916.71,-70.37C1003.64,-62.69 1161.56,-47.94 1296,-31 1306.63,-29.66 1317.89,-28.09 1328.83,-26.49"/>
<polygon fill="midnightblue" stroke="midnightblue" points="1329.37,-29.95 1338.75,-25.02 1328.34,-23.03 1329.37,-29.95"/>
</g>
<!-- Node10 -->
<g id="node10" class="node">
<title>Node10</title>
<g id="a_node10"><a xlink:title=" ">
<polygon fill="white" stroke="#bfbfbf" points="1497,-6 1497,-25 1601,-25 1601,-6 1497,-6"/>
<text text-anchor="middle" x="1549" y="-13" font-family="Helvetica,sans-Serif" font-size="10.00">KokkosInterface.h</text>
</a>
</g>
</g>
<!-- Node1&#45;&gt;Node10 -->
<g id="edge9" class="edge">
<title>Node1&#45;&gt;Node10</title>
<path fill="none" stroke="midnightblue" d="M916.96,-74.87C1033.04,-72.1 1281.15,-62.67 1488,-31 1494.36,-30.03 1501.02,-28.73 1507.53,-27.31"/>
<polygon fill="midnightblue" stroke="midnightblue" points="1508.57,-30.66 1517.53,-25.01 1507,-23.84 1508.57,-30.66"/>
</g>
</g>
</svg>
