<?xml version="1.0" encoding="UTF-8" standalone="no"?>
<!DOCTYPE svg PUBLIC "-//W3C//DTD SVG 1.1//EN"
 "http://www.w3.org/Graphics/SVG/1.1/DTD/svg11.dtd">
<!-- Generated by graphviz version 2.43.0 (0)
 -->
<!-- Title: LinearAdvectionMetric.C Pages: 1 -->
<svg width="1353pt" height="95pt"
 viewBox="0.00 0.00 1352.50 95.00" xmlns="http://www.w3.org/2000/svg" xmlns:xlink="http://www.w3.org/1999/xlink">
<g id="graph0" class="graph" transform="scale(1 1) rotate(0) translate(4 91)">
<title>LinearAdvectionMetric.C</title>
<polygon fill="white" stroke="transparent" points="-4,4 -4,-91 1348.5,-91 1348.5,4 -4,4"/>
<!-- Node1 -->
<g id="node1" class="node">
<title>Node1</title>
<g id="a_node1"><a xlink:title=" ">
<polygon fill="#bfbfbf" stroke="black" points="631.5,-67.5 631.5,-86.5 767.5,-86.5 767.5,-67.5 631.5,-67.5"/>
<text text-anchor="middle" x="699.5" y="-74.5" font-family="Helvetica,sans-Serif" font-size="10.00">LinearAdvectionMetric.C</text>
</a>
</g>
</g>
<!-- Node2 -->
<g id="node2" class="node">
<title>Node2</title>
<g id="a_node2"><a xlink:title=" ">
<polygon fill="white" stroke="#bfbfbf" points="0,-0.5 0,-30.5 155,-30.5 155,-0.5 0,-0.5"/>
<text text-anchor="start" x="8" y="-18.5" font-family="Helvetica,sans-Serif" font-size="10.00">matrix_free/LinearAdvection</text>
<text text-anchor="middle" x="77.5" y="-7.5" font-family="Helvetica,sans-Serif" font-size="10.00">Metric.h</text>
</a>
</g>
</g>
<!-- Node1&#45;&gt;Node2 -->
<g id="edge1" class="edge">
<title>Node1&#45;&gt;Node2</title>
<path fill="none" stroke="midnightblue" d="M631.2,-72.09C531.1,-65.96 338.48,-52.63 165.33,-31.17"/>
<polygon fill="midnightblue" stroke="midnightblue" points="165.63,-27.68 155.27,-29.91 164.76,-34.63 165.63,-27.68"/>
</g>
<!-- Node3 -->
<g id="node3" class="node">
<title>Node3</title>
<g id="a_node3"><a xlink:title=" ">
<polygon fill="white" stroke="#bfbfbf" points="173,-6 173,-25 316,-25 316,-6 173,-6"/>
<text text-anchor="middle" x="244.5" y="-13" font-family="Helvetica,sans-Serif" font-size="10.00">matrix_free/Coefficients.h</text>
</a>
</g>
</g>
<!-- Node1&#45;&gt;Node3 -->
<g id="edge2" class="edge">
<title>Node1&#45;&gt;Node3</title>
<path fill="none" stroke="midnightblue" d="M631.25,-69.05C555.97,-61.1 431.33,-47.08 324.5,-31 316.17,-29.75 307.38,-28.29 298.8,-26.79"/>
<polygon fill="midnightblue" stroke="midnightblue" points="299.31,-23.33 288.85,-25.03 298.09,-30.22 299.31,-23.33"/>
</g>
<!-- Node4 -->
<g id="node4" class="node">
<title>Node4</title>
<g id="a_node4"><a xlink:title=" ">
<polygon fill="white" stroke="#bfbfbf" points="334,-6 334,-25 509,-25 509,-6 334,-6"/>
<text text-anchor="middle" x="421.5" y="-13" font-family="Helvetica,sans-Serif" font-size="10.00">matrix_free/KokkosFramework.h</text>
</a>
</g>
</g>
<!-- Node1&#45;&gt;Node4 -->
<g id="edge3" class="edge">
<title>Node1&#45;&gt;Node4</title>
<path fill="none" stroke="midnightblue" d="M659.67,-67.48C610.02,-56.85 525.15,-38.68 471.27,-27.15"/>
<polygon fill="midnightblue" stroke="midnightblue" points="471.77,-23.68 461.26,-25.01 470.3,-30.52 471.77,-23.68"/>
</g>
<!-- Node5 -->
<g id="node5" class="node">
<title>Node5</title>
<g id="a_node5"><a xlink:title=" ">
<polygon fill="white" stroke="#bfbfbf" points="527.5,-6 527.5,-25 699.5,-25 699.5,-6 527.5,-6"/>
<text text-anchor="middle" x="613.5" y="-13" font-family="Helvetica,sans-Serif" font-size="10.00">matrix_free/KokkosViewTypes.h</text>
</a>
</g>
</g>
<!-- Node1&#45;&gt;Node5 -->
<g id="edge4" class="edge">
<title>Node1&#45;&gt;Node5</title>
<path fill="none" stroke="midnightblue" d="M687.18,-67.48C673.38,-57.93 650.8,-42.31 634.27,-30.87"/>
<polygon fill="midnightblue" stroke="midnightblue" points="636.01,-27.82 625.8,-25.01 632.03,-33.58 636.01,-27.82"/>
</g>
<!-- Node6 -->
<g id="node6" class="node">
<title>Node6</title>
<g id="a_node6"><a xlink:title=" ">
<polygon fill="white" stroke="#bfbfbf" points="717.5,-6 717.5,-25 853.5,-25 853.5,-6 717.5,-6"/>
<text text-anchor="middle" x="785.5" y="-13" font-family="Helvetica,sans-Serif" font-size="10.00">matrix_free/LocalArray.h</text>
</a>
</g>
</g>
<!-- Node1&#45;&gt;Node6 -->
<g id="edge5" class="edge">
<title>Node1&#45;&gt;Node6</title>
<path fill="none" stroke="midnightblue" d="M711.82,-67.48C725.62,-57.93 748.2,-42.31 764.73,-30.87"/>
<polygon fill="midnightblue" stroke="midnightblue" points="766.97,-33.58 773.2,-25.01 762.99,-27.82 766.97,-33.58"/>
</g>
<!-- Node7 -->
<g id="node7" class="node">
<title>Node7</title>
<g id="a_node7"><a xlink:title=" ">
<polygon fill="white" stroke="#bfbfbf" points="872,-6 872,-25 1045,-25 1045,-6 872,-6"/>
<text text-anchor="middle" x="958.5" y="-13" font-family="Helvetica,sans-Serif" font-size="10.00">matrix_free/PolynomialOrders.h</text>
</a>
</g>
</g>
<!-- Node1&#45;&gt;Node7 -->
<g id="edge6" class="edge">
<title>Node1&#45;&gt;Node7</title>
<path fill="none" stroke="midnightblue" d="M736.61,-67.48C782.67,-56.89 861.27,-38.84 911.5,-27.3"/>
<polygon fill="midnightblue" stroke="midnightblue" points="912.5,-30.66 921.46,-25.01 910.93,-23.84 912.5,-30.66"/>
</g>
<!-- Node8 -->
<g id="node8" class="node">
<title>Node8</title>
<g id="a_node8"><a xlink:title=" ">
<polygon fill="white" stroke="#bfbfbf" points="1063,-6 1063,-25 1222,-25 1222,-6 1063,-6"/>
<text text-anchor="middle" x="1142.5" y="-13" font-family="Helvetica,sans-Serif" font-size="10.00">matrix_free/ShuffledAccess.h</text>
</a>
</g>
</g>
<!-- Node1&#45;&gt;Node8 -->
<g id="edge7" class="edge">
<title>Node1&#45;&gt;Node8</title>
<path fill="none" stroke="midnightblue" d="M767.66,-68.12C839.2,-59.68 954.91,-45.51 1054.5,-31 1063.61,-29.67 1073.24,-28.18 1082.66,-26.67"/>
<polygon fill="midnightblue" stroke="midnightblue" points="1083.44,-30.09 1092.75,-25.03 1082.32,-23.18 1083.44,-30.09"/>
</g>
<!-- Node9 -->
<g id="node9" class="node">
<title>Node9</title>
<g id="a_node9"><a xlink:title=" ">
<polygon fill="white" stroke="#bfbfbf" points="1240.5,-6 1240.5,-25 1344.5,-25 1344.5,-6 1240.5,-6"/>
<text text-anchor="middle" x="1292.5" y="-13" font-family="Helvetica,sans-Serif" font-size="10.00">KokkosInterface.h</text>
</a>
</g>
</g>
<!-- Node1&#45;&gt;Node9 -->
<g id="edge8" class="edge">
<title>Node1&#45;&gt;Node9</title>
<path fill="none" stroke="midnightblue" d="M767.92,-73.47C869.58,-68.98 1066.3,-57.47 1231.5,-31 1237.78,-29.99 1244.37,-28.69 1250.8,-27.28"/>
<polygon fill="midnightblue" stroke="midnightblue" points="1251.74,-30.66 1260.7,-25 1250.17,-23.83 1251.74,-30.66"/>
</g>
</g>
</svg>
