<?xml version="1.0" encoding="UTF-8" standalone="no"?>
<!DOCTYPE svg PUBLIC "-//W3C//DTD SVG 1.1//EN"
 "http://www.w3.org/Graphics/SVG/1.1/DTD/svg11.dtd">
<!-- Generated by graphviz version 2.43.0 (0)
 -->
<!-- Title: LinearSolver.C Pages: 1 -->
<svg width="1459pt" height="95pt"
 viewBox="0.00 0.00 1459.00 95.00" xmlns="http://www.w3.org/2000/svg" xmlns:xlink="http://www.w3.org/1999/xlink">
<g id="graph0" class="graph" transform="scale(1 1) rotate(0) translate(4 91)">
<title>LinearSolver.C</title>
<polygon fill="white" stroke="transparent" points="-4,4 -4,-91 1455,-91 1455,4 -4,4"/>
<!-- Node1 -->
<g id="node1" class="node">
<title>Node1</title>
<g id="a_node1"><a xlink:title=" ">
<polygon fill="#bfbfbf" stroke="black" points="634,-67.5 634,-86.5 720,-86.5 720,-67.5 634,-67.5"/>
<text text-anchor="middle" x="677" y="-74.5" font-family="Helvetica,sans-Serif" font-size="10.00">LinearSolver.C</text>
</a>
</g>
</g>
<!-- Node2 -->
<g id="node2" class="node">
<title>Node2</title>
<g id="a_node2"><a xlink:title=" ">
<polygon fill="white" stroke="#bfbfbf" points="0,-6 0,-25 86,-25 86,-6 0,-6"/>
<text text-anchor="middle" x="43" y="-13" font-family="Helvetica,sans-Serif" font-size="10.00">LinearSolver.h</text>
</a>
</g>
</g>
<!-- Node1&#45;&gt;Node2 -->
<g id="edge1" class="edge">
<title>Node1&#45;&gt;Node2</title>
<path fill="none" stroke="midnightblue" d="M633.93,-75.53C536.95,-73.85 294.36,-66.16 95,-31 89.94,-30.11 84.66,-28.93 79.49,-27.64"/>
<polygon fill="midnightblue" stroke="midnightblue" points="80.32,-24.24 69.76,-25.04 78.52,-31 80.32,-24.24"/>
</g>
<!-- Node3 -->
<g id="node3" class="node">
<title>Node3</title>
<g id="a_node3"><a xlink:title=" ">
<polygon fill="white" stroke="#bfbfbf" points="104,-6 104,-25 196,-25 196,-6 104,-6"/>
<text text-anchor="middle" x="150" y="-13" font-family="Helvetica,sans-Serif" font-size="10.00">LinearSolvers.h</text>
</a>
</g>
</g>
<!-- Node1&#45;&gt;Node3 -->
<g id="edge2" class="edge">
<title>Node1&#45;&gt;Node3</title>
<path fill="none" stroke="midnightblue" d="M633.73,-74.23C550.25,-70.3 361.4,-58.88 205,-31 199.79,-30.07 194.34,-28.89 189,-27.62"/>
<polygon fill="midnightblue" stroke="midnightblue" points="189.47,-24.13 178.92,-25.07 187.76,-30.91 189.47,-24.13"/>
</g>
<!-- Node4 -->
<g id="node4" class="node">
<title>Node4</title>
<g id="a_node4"><a xlink:title=" ">
<polygon fill="white" stroke="#bfbfbf" points="214.5,-6 214.5,-25 279.5,-25 279.5,-6 214.5,-6"/>
<text text-anchor="middle" x="247" y="-13" font-family="Helvetica,sans-Serif" font-size="10.00">NaluEnv.h</text>
</a>
</g>
</g>
<!-- Node1&#45;&gt;Node4 -->
<g id="edge3" class="edge">
<title>Node1&#45;&gt;Node4</title>
<path fill="none" stroke="midnightblue" d="M633.71,-74.05C561.48,-70.1 412.15,-59.05 289,-31 285.59,-30.22 282.06,-29.27 278.58,-28.22"/>
<polygon fill="midnightblue" stroke="midnightblue" points="279.56,-24.86 268.97,-25.09 277.4,-31.51 279.56,-24.86"/>
</g>
<!-- Node5 -->
<g id="node5" class="node">
<title>Node5</title>
<g id="a_node5"><a xlink:title=" ">
<polygon fill="white" stroke="#bfbfbf" points="298,-6 298,-25 412,-25 412,-6 298,-6"/>
<text text-anchor="middle" x="355" y="-13" font-family="Helvetica,sans-Serif" font-size="10.00">LinearSolverTypes.h</text>
</a>
</g>
</g>
<!-- Node1&#45;&gt;Node5 -->
<g id="edge4" class="edge">
<title>Node1&#45;&gt;Node5</title>
<path fill="none" stroke="midnightblue" d="M633.87,-68.99C582.9,-60.57 495.59,-45.74 421,-31 415.1,-29.83 408.92,-28.55 402.8,-27.25"/>
<polygon fill="midnightblue" stroke="midnightblue" points="403.15,-23.75 392.64,-25.06 401.67,-30.59 403.15,-23.75"/>
</g>
<!-- Node6 -->
<g id="node6" class="node">
<title>Node6</title>
<g id="a_node6"><a xlink:title=" ">
<polygon fill="white" stroke="#bfbfbf" points="430.5,-6 430.5,-25 595.5,-25 595.5,-6 430.5,-6"/>
<text text-anchor="middle" x="513" y="-13" font-family="Helvetica,sans-Serif" font-size="10.00">stk_util/util/ReportHandler.hpp</text>
</a>
</g>
</g>
<!-- Node1&#45;&gt;Node6 -->
<g id="edge5" class="edge">
<title>Node1&#45;&gt;Node6</title>
<path fill="none" stroke="midnightblue" d="M653.5,-67.48C625.37,-57.27 578.07,-40.11 546.21,-28.55"/>
<polygon fill="midnightblue" stroke="midnightblue" points="547.05,-25.13 536.45,-25.01 544.66,-31.71 547.05,-25.13"/>
</g>
<!-- Node7 -->
<g id="node7" class="node">
<title>Node7</title>
<g id="a_node7"><a xlink:title=" ">
<polygon fill="white" stroke="#bfbfbf" points="614,-6 614,-25 740,-25 740,-6 614,-6"/>
<text text-anchor="middle" x="677" y="-13" font-family="Helvetica,sans-Serif" font-size="10.00">Teuchos_ArrayRCP.hpp</text>
</a>
</g>
</g>
<!-- Node1&#45;&gt;Node7 -->
<g id="edge6" class="edge">
<title>Node1&#45;&gt;Node7</title>
<path fill="none" stroke="midnightblue" d="M677,-67.48C677,-59.08 677,-45.98 677,-35.16"/>
<polygon fill="midnightblue" stroke="midnightblue" points="680.5,-35.01 677,-25.01 673.5,-35.01 680.5,-35.01"/>
</g>
<!-- Node8 -->
<g id="node8" class="node">
<title>Node8</title>
<g id="a_node8"><a xlink:title=" ">
<polygon fill="white" stroke="#bfbfbf" points="758,-6 758,-25 926,-25 926,-6 758,-6"/>
<text text-anchor="middle" x="842" y="-13" font-family="Helvetica,sans-Serif" font-size="10.00">Teuchos_DefaultMpiComm.hpp</text>
</a>
</g>
</g>
<!-- Node1&#45;&gt;Node8 -->
<g id="edge7" class="edge">
<title>Node1&#45;&gt;Node8</title>
<path fill="none" stroke="midnightblue" d="M700.64,-67.48C728.94,-57.27 776.53,-40.11 808.59,-28.55"/>
<polygon fill="midnightblue" stroke="midnightblue" points="810.18,-31.69 818.4,-25.01 807.81,-25.11 810.18,-31.69"/>
</g>
<!-- Node9 -->
<g id="node9" class="node">
<title>Node9</title>
<g id="a_node9"><a xlink:title=" ">
<polygon fill="white" stroke="#bfbfbf" points="944.5,-6 944.5,-25 1087.5,-25 1087.5,-6 944.5,-6"/>
<text text-anchor="middle" x="1016" y="-13" font-family="Helvetica,sans-Serif" font-size="10.00">Teuchos_OrdinalTraits.hpp</text>
</a>
</g>
</g>
<!-- Node1&#45;&gt;Node9 -->
<g id="edge8" class="edge">
<title>Node1&#45;&gt;Node9</title>
<path fill="none" stroke="midnightblue" d="M720.38,-68.49C771.65,-59.61 859.56,-44.33 935,-31 942.62,-29.65 950.63,-28.23 958.54,-26.82"/>
<polygon fill="midnightblue" stroke="midnightblue" points="959.24,-30.25 968.46,-25.05 958,-23.36 959.24,-30.25"/>
</g>
<!-- Node10 -->
<g id="node10" class="node">
<title>Node10</title>
<g id="a_node10"><a xlink:title=" ">
<polygon fill="white" stroke="#bfbfbf" points="1105.5,-0.5 1105.5,-30.5 1254.5,-30.5 1254.5,-0.5 1105.5,-0.5"/>
<text text-anchor="start" x="1113.5" y="-18.5" font-family="Helvetica,sans-Serif" font-size="10.00">Teuchos_ParameterXMLFile</text>
<text text-anchor="middle" x="1180" y="-7.5" font-family="Helvetica,sans-Serif" font-size="10.00">Reader.hpp</text>
</a>
</g>
</g>
<!-- Node1&#45;&gt;Node10 -->
<g id="edge9" class="edge">
<title>Node1&#45;&gt;Node10</title>
<path fill="none" stroke="midnightblue" d="M720.04,-72.34C794.45,-65.8 952.13,-51.03 1095.11,-31.21"/>
<polygon fill="midnightblue" stroke="midnightblue" points="1095.96,-34.63 1105.38,-29.78 1094.99,-27.69 1095.96,-34.63"/>
</g>
<!-- Node11 -->
<g id="node11" class="node">
<title>Node11</title>
<g id="a_node11"><a xlink:title=" ">
<polygon fill="white" stroke="#bfbfbf" points="1273,-6 1273,-25 1373,-25 1373,-6 1273,-6"/>
<text text-anchor="middle" x="1323" y="-13" font-family="Helvetica,sans-Serif" font-size="10.00">Kokkos_Core.hpp</text>
</a>
</g>
</g>
<!-- Node1&#45;&gt;Node11 -->
<g id="edge10" class="edge">
<title>Node1&#45;&gt;Node11</title>
<path fill="none" stroke="midnightblue" d="M720,-75.12C817.42,-72.6 1062.15,-63.31 1264,-31 1269.94,-30.05 1276.16,-28.8 1282.24,-27.44"/>
<polygon fill="midnightblue" stroke="midnightblue" points="1283.34,-30.77 1292.27,-25.07 1281.73,-23.96 1283.34,-30.77"/>
</g>
<!-- Node12 -->
<g id="node12" class="node">
<title>Node12</title>
<g id="a_node12"><a xlink:title=" ">
<polygon fill="white" stroke="#bfbfbf" points="1391,-6 1391,-25 1451,-25 1451,-6 1391,-6"/>
<text text-anchor="middle" x="1421" y="-13" font-family="Helvetica,sans-Serif" font-size="10.00">iostream</text>
</a>
</g>
</g>
<!-- Node1&#45;&gt;Node12 -->
<g id="edge11" class="edge">
<title>Node1&#45;&gt;Node12</title>
<path fill="none" stroke="midnightblue" d="M720.11,-74.89C852.92,-71.23 1254.55,-58.15 1382,-31 1385.25,-30.31 1388.59,-29.4 1391.89,-28.37"/>
<polygon fill="midnightblue" stroke="midnightblue" points="1393.2,-31.62 1401.49,-25.02 1390.9,-25 1393.2,-31.62"/>
</g>
</g>
</svg>
