<?xml version="1.0" encoding="UTF-8" standalone="no"?>
<!DOCTYPE svg PUBLIC "-//W3C//DTD SVG 1.1//EN"
 "http://www.w3.org/Graphics/SVG/1.1/DTD/svg11.dtd">
<!-- Generated by graphviz version 2.43.0 (0)
 -->
<!-- Title: LinearPropAlgorithm.C Pages: 1 -->
<svg width="1282pt" height="95pt"
 viewBox="0.00 0.00 1281.50 95.00" xmlns="http://www.w3.org/2000/svg" xmlns:xlink="http://www.w3.org/1999/xlink">
<g id="graph0" class="graph" transform="scale(1 1) rotate(0) translate(4 91)">
<title>LinearPropAlgorithm.C</title>
<polygon fill="white" stroke="transparent" points="-4,4 -4,-91 1277.5,-91 1277.5,4 -4,4"/>
<!-- Node1 -->
<g id="node1" class="node">
<title>Node1</title>
<g id="a_node1"><a xlink:title=" ">
<polygon fill="#bfbfbf" stroke="black" points="436,-67.5 436,-86.5 562,-86.5 562,-67.5 436,-67.5"/>
<text text-anchor="middle" x="499" y="-74.5" font-family="Helvetica,sans-Serif" font-size="10.00">LinearPropAlgorithm.C</text>
</a>
</g>
</g>
<!-- Node2 -->
<g id="node2" class="node">
<title>Node2</title>
<g id="a_node2"><a xlink:title=" ">
<polygon fill="white" stroke="#bfbfbf" points="0,-6 0,-25 74,-25 74,-6 0,-6"/>
<text text-anchor="middle" x="37" y="-13" font-family="Helvetica,sans-Serif" font-size="10.00">Algorithm.h</text>
</a>
</g>
</g>
<!-- Node1&#45;&gt;Node2 -->
<g id="edge1" class="edge">
<title>Node1&#45;&gt;Node2</title>
<path fill="none" stroke="midnightblue" d="M435.67,-73.05C353.59,-68.33 206.36,-56.85 83,-31 79.06,-30.17 74.97,-29.15 70.93,-28.02"/>
<polygon fill="midnightblue" stroke="midnightblue" points="71.7,-24.6 61.11,-25.09 69.69,-31.3 71.7,-24.6"/>
</g>
<!-- Node3 -->
<g id="node3" class="node">
<title>Node3</title>
<g id="a_node3"><a xlink:title=" ">
<polygon fill="white" stroke="#bfbfbf" points="92,-0.5 92,-30.5 220,-30.5 220,-0.5 92,-0.5"/>
<text text-anchor="start" x="100" y="-18.5" font-family="Helvetica,sans-Serif" font-size="10.00">property_evaluator</text>
<text text-anchor="middle" x="156" y="-7.5" font-family="Helvetica,sans-Serif" font-size="10.00">/LinearPropAlgorithm.h</text>
</a>
</g>
</g>
<!-- Node1&#45;&gt;Node3 -->
<g id="edge2" class="edge">
<title>Node1&#45;&gt;Node3</title>
<path fill="none" stroke="midnightblue" d="M444.87,-67.48C392.53,-59.13 310.73,-45.79 230.37,-31.22"/>
<polygon fill="midnightblue" stroke="midnightblue" points="230.54,-27.69 220.07,-29.34 229.28,-34.58 230.54,-27.69"/>
</g>
<!-- Node4 -->
<g id="node4" class="node">
<title>Node4</title>
<g id="a_node4"><a xlink:title=" ">
<polygon fill="white" stroke="#bfbfbf" points="238,-6 238,-25 326,-25 326,-6 238,-6"/>
<text text-anchor="middle" x="282" y="-13" font-family="Helvetica,sans-Serif" font-size="10.00">FieldTypeDef.h</text>
</a>
</g>
</g>
<!-- Node1&#45;&gt;Node4 -->
<g id="edge3" class="edge">
<title>Node1&#45;&gt;Node4</title>
<path fill="none" stroke="midnightblue" d="M467.91,-67.48C429.72,-57 364.83,-39.21 322.7,-27.66"/>
<polygon fill="midnightblue" stroke="midnightblue" points="323.6,-24.28 313.03,-25.01 321.75,-31.03 323.6,-24.28"/>
</g>
<!-- Node5 -->
<g id="node5" class="node">
<title>Node5</title>
<g id="a_node5"><a xlink:title=" ">
<polygon fill="white" stroke="#bfbfbf" points="344.5,-6 344.5,-25 401.5,-25 401.5,-6 344.5,-6"/>
<text text-anchor="middle" x="373" y="-13" font-family="Helvetica,sans-Serif" font-size="10.00">Realm.h</text>
</a>
</g>
</g>
<!-- Node1&#45;&gt;Node5 -->
<g id="edge4" class="edge">
<title>Node1&#45;&gt;Node5</title>
<path fill="none" stroke="midnightblue" d="M480.95,-67.48C459.8,-57.49 424.56,-40.85 400.12,-29.31"/>
<polygon fill="midnightblue" stroke="midnightblue" points="401.56,-26.11 391.02,-25.01 398.57,-32.44 401.56,-26.11"/>
</g>
<!-- Node6 -->
<g id="node6" class="node">
<title>Node6</title>
<g id="a_node6"><a xlink:title=" ">
<polygon fill="white" stroke="#bfbfbf" points="419.5,-6 419.5,-25 578.5,-25 578.5,-6 419.5,-6"/>
<text text-anchor="middle" x="499" y="-13" font-family="Helvetica,sans-Serif" font-size="10.00">stk_mesh/base/BulkData.hpp</text>
</a>
</g>
</g>
<!-- Node1&#45;&gt;Node6 -->
<g id="edge5" class="edge">
<title>Node1&#45;&gt;Node6</title>
<path fill="none" stroke="midnightblue" d="M499,-67.48C499,-59.08 499,-45.98 499,-35.16"/>
<polygon fill="midnightblue" stroke="midnightblue" points="502.5,-35.01 499,-25.01 495.5,-35.01 502.5,-35.01"/>
</g>
<!-- Node7 -->
<g id="node7" class="node">
<title>Node7</title>
<g id="a_node7"><a xlink:title=" ">
<polygon fill="white" stroke="#bfbfbf" points="596.5,-6 596.5,-25 733.5,-25 733.5,-6 596.5,-6"/>
<text text-anchor="middle" x="665" y="-13" font-family="Helvetica,sans-Serif" font-size="10.00">stk_mesh/base/Field.hpp</text>
</a>
</g>
</g>
<!-- Node1&#45;&gt;Node7 -->
<g id="edge6" class="edge">
<title>Node1&#45;&gt;Node7</title>
<path fill="none" stroke="midnightblue" d="M522.78,-67.48C551.38,-57.22 599.55,-39.96 631.8,-28.4"/>
<polygon fill="midnightblue" stroke="midnightblue" points="633.03,-31.68 641.26,-25.01 630.67,-25.09 633.03,-31.68"/>
</g>
<!-- Node8 -->
<g id="node8" class="node">
<title>Node8</title>
<g id="a_node8"><a xlink:title=" ">
<polygon fill="white" stroke="#bfbfbf" points="752,-6 752,-25 922,-25 922,-6 752,-6"/>
<text text-anchor="middle" x="837" y="-13" font-family="Helvetica,sans-Serif" font-size="10.00">stk_mesh/base/GetBuckets.hpp</text>
</a>
</g>
</g>
<!-- Node1&#45;&gt;Node8 -->
<g id="edge7" class="edge">
<title>Node1&#45;&gt;Node8</title>
<path fill="none" stroke="midnightblue" d="M547.43,-67.48C608.42,-56.74 713.13,-38.31 778.52,-26.79"/>
<polygon fill="midnightblue" stroke="midnightblue" points="779.42,-30.19 788.66,-25.01 778.21,-23.3 779.42,-30.19"/>
</g>
<!-- Node9 -->
<g id="node9" class="node">
<title>Node9</title>
<g id="a_node9"><a xlink:title=" ">
<polygon fill="white" stroke="#bfbfbf" points="940,-6 940,-25 1102,-25 1102,-6 940,-6"/>
<text text-anchor="middle" x="1021" y="-13" font-family="Helvetica,sans-Serif" font-size="10.00">stk_mesh/base/MetaData.hpp</text>
</a>
</g>
</g>
<!-- Node1&#45;&gt;Node9 -->
<g id="edge8" class="edge">
<title>Node1&#45;&gt;Node9</title>
<path fill="none" stroke="midnightblue" d="M562.09,-70.54C646.34,-63 800.18,-48.34 931,-31 940.77,-29.71 951.1,-28.18 961.16,-26.62"/>
<polygon fill="midnightblue" stroke="midnightblue" points="961.76,-30.07 971.09,-25.05 960.66,-23.16 961.76,-30.07"/>
</g>
<!-- Node10 -->
<g id="node10" class="node">
<title>Node10</title>
<g id="a_node10"><a xlink:title=" ">
<polygon fill="white" stroke="#bfbfbf" points="1120.5,-6 1120.5,-25 1273.5,-25 1273.5,-6 1120.5,-6"/>
<text text-anchor="middle" x="1197" y="-13" font-family="Helvetica,sans-Serif" font-size="10.00">stk_mesh/base/Selector.hpp</text>
</a>
</g>
</g>
<!-- Node1&#45;&gt;Node10 -->
<g id="edge9" class="edge">
<title>Node1&#45;&gt;Node10</title>
<path fill="none" stroke="midnightblue" d="M562.18,-73.31C673.42,-68.13 911.36,-55.12 1111,-31 1120.81,-29.82 1131.2,-28.29 1141.25,-26.68"/>
<polygon fill="midnightblue" stroke="midnightblue" points="1141.85,-30.13 1151.14,-25.05 1140.71,-23.22 1141.85,-30.13"/>
</g>
</g>
</svg>
