<?xml version="1.0" encoding="UTF-8" standalone="no"?>
<!DOCTYPE svg PUBLIC "-//W3C//DTD SVG 1.1//EN"
 "http://www.w3.org/Graphics/SVG/1.1/DTD/svg11.dtd">
<!-- Generated by graphviz version 2.43.0 (0)
 -->
<!-- Title: LobattoQuadratureRule.C Pages: 1 -->
<svg width="553pt" height="95pt"
 viewBox="0.00 0.00 552.50 95.00" xmlns="http://www.w3.org/2000/svg" xmlns:xlink="http://www.w3.org/1999/xlink">
<g id="graph0" class="graph" transform="scale(1 1) rotate(0) translate(4 91)">
<title>LobattoQuadratureRule.C</title>
<polygon fill="white" stroke="transparent" points="-4,4 -4,-91 548.5,-91 548.5,4 -4,4"/>
<!-- Node1 -->
<g id="node1" class="node">
<title>Node1</title>
<g id="a_node1"><a xlink:title=" ">
<polygon fill="#bfbfbf" stroke="black" points="245,-67.5 245,-86.5 385,-86.5 385,-67.5 245,-67.5"/>
<text text-anchor="middle" x="315" y="-74.5" font-family="Helvetica,sans-Serif" font-size="10.00">LobattoQuadratureRule.C</text>
</a>
</g>
</g>
<!-- Node2 -->
<g id="node2" class="node">
<title>Node2</title>
<g id="a_node2"><a xlink:title=" ">
<polygon fill="white" stroke="#bfbfbf" points="0,-0.5 0,-30.5 168,-30.5 168,-0.5 0,-0.5"/>
<text text-anchor="start" x="8" y="-18.5" font-family="Helvetica,sans-Serif" font-size="10.00">matrix_free/LobattoQuadrature</text>
<text text-anchor="middle" x="84" y="-7.5" font-family="Helvetica,sans-Serif" font-size="10.00">Rule.h</text>
</a>
</g>
</g>
<!-- Node1&#45;&gt;Node2 -->
<g id="edge1" class="edge">
<title>Node1&#45;&gt;Node2</title>
<path fill="none" stroke="midnightblue" d="M281.9,-67.48C247.18,-58.53 191.73,-44.25 148.35,-33.07"/>
<polygon fill="midnightblue" stroke="midnightblue" points="149,-29.63 138.44,-30.52 147.25,-36.41 149,-29.63"/>
</g>
<!-- Node3 -->
<g id="node3" class="node">
<title>Node3</title>
<g id="a_node3"><a xlink:title=" ">
<polygon fill="white" stroke="#bfbfbf" points="186,-6 186,-25 288,-25 288,-6 186,-6"/>
<text text-anchor="middle" x="237" y="-13" font-family="Helvetica,sans-Serif" font-size="10.00">Kokkos_Array.hpp</text>
</a>
</g>
</g>
<!-- Node1&#45;&gt;Node3 -->
<g id="edge2" class="edge">
<title>Node1&#45;&gt;Node3</title>
<path fill="none" stroke="midnightblue" d="M303.82,-67.48C291.43,-58.02 271.21,-42.6 256.25,-31.19"/>
<polygon fill="midnightblue" stroke="midnightblue" points="258.23,-28.29 248.15,-25.01 253.98,-33.86 258.23,-28.29"/>
</g>
<!-- Node4 -->
<g id="node4" class="node">
<title>Node4</title>
<g id="a_node4"><a xlink:title=" ">
<polygon fill="white" stroke="#bfbfbf" points="306.5,-6 306.5,-25 479.5,-25 479.5,-6 306.5,-6"/>
<text text-anchor="middle" x="393" y="-13" font-family="Helvetica,sans-Serif" font-size="10.00">matrix_free/PolynomialOrders.h</text>
</a>
</g>
</g>
<!-- Node1&#45;&gt;Node4 -->
<g id="edge3" class="edge">
<title>Node1&#45;&gt;Node4</title>
<path fill="none" stroke="midnightblue" d="M326.18,-67.48C338.57,-58.02 358.79,-42.6 373.75,-31.19"/>
<polygon fill="midnightblue" stroke="midnightblue" points="376.02,-33.86 381.85,-25.01 371.77,-28.29 376.02,-33.86"/>
</g>
<!-- Node5 -->
<g id="node5" class="node">
<title>Node5</title>
<g id="a_node5"><a xlink:title=" ">
<polygon fill="white" stroke="#bfbfbf" points="497.5,-6 497.5,-25 544.5,-25 544.5,-6 497.5,-6"/>
<text text-anchor="middle" x="521" y="-13" font-family="Helvetica,sans-Serif" font-size="10.00">vector</text>
</a>
</g>
</g>
<!-- Node1&#45;&gt;Node5 -->
<g id="edge4" class="edge">
<title>Node1&#45;&gt;Node5</title>
<path fill="none" stroke="midnightblue" d="M356.03,-67.49C391.67,-59.6 444.42,-46.73 489,-31 490.66,-30.41 492.35,-29.78 494.05,-29.1"/>
<polygon fill="midnightblue" stroke="midnightblue" points="495.79,-32.17 503.62,-25.03 493.05,-25.73 495.79,-32.17"/>
</g>
</g>
</svg>
