<?xml version="1.0" encoding="UTF-8" standalone="no"?>
<!DOCTYPE svg PUBLIC "-//W3C//DTD SVG 1.1//EN"
 "http://www.w3.org/Graphics/SVG/1.1/DTD/svg11.dtd">
<!-- Generated by graphviz version 2.43.0 (0)
 -->
<!-- Title: LocalVolumeSearch.C Pages: 1 -->
<svg width="1899pt" height="95pt"
 viewBox="0.00 0.00 1898.50 95.00" xmlns="http://www.w3.org/2000/svg" xmlns:xlink="http://www.w3.org/1999/xlink">
<g id="graph0" class="graph" transform="scale(1 1) rotate(0) translate(4 91)">
<title>LocalVolumeSearch.C</title>
<polygon fill="white" stroke="transparent" points="-4,4 -4,-91 1894.5,-91 1894.5,4 -4,4"/>
<!-- Node1 -->
<g id="node1" class="node">
<title>Node1</title>
<g id="a_node1"><a xlink:title=" ">
<polygon fill="#bfbfbf" stroke="black" points="908.5,-67.5 908.5,-86.5 1030.5,-86.5 1030.5,-67.5 908.5,-67.5"/>
<text text-anchor="middle" x="969.5" y="-74.5" font-family="Helvetica,sans-Serif" font-size="10.00">LocalVolumeSearch.C</text>
</a>
</g>
</g>
<!-- Node2 -->
<g id="node2" class="node">
<title>Node2</title>
<g id="a_node2"><a xlink:title=" ">
<polygon fill="white" stroke="#bfbfbf" points="0,-6 0,-25 143,-25 143,-6 0,-6"/>
<text text-anchor="middle" x="71.5" y="-13" font-family="Helvetica,sans-Serif" font-size="10.00">xfer/LocalVolumeSearch.h</text>
</a>
</g>
</g>
<!-- Node1&#45;&gt;Node2 -->
<g id="edge1" class="edge">
<title>Node1&#45;&gt;Node2</title>
<path fill="none" stroke="midnightblue" d="M908.48,-75.23C772.24,-72.95 433.13,-64.14 151.5,-31 142.23,-29.91 132.42,-28.42 122.96,-26.8"/>
<polygon fill="midnightblue" stroke="midnightblue" points="123.33,-23.31 112.87,-25.01 122.11,-30.2 123.33,-23.31"/>
</g>
<!-- Node3 -->
<g id="node3" class="node">
<title>Node3</title>
<g id="a_node3"><a xlink:title=" ">
<polygon fill="white" stroke="#bfbfbf" points="161,-6 161,-25 344,-25 344,-6 161,-6"/>
<text text-anchor="middle" x="252.5" y="-13" font-family="Helvetica,sans-Serif" font-size="10.00">master_element/MasterElement.h</text>
</a>
</g>
</g>
<!-- Node1&#45;&gt;Node3 -->
<g id="edge2" class="edge">
<title>Node1&#45;&gt;Node3</title>
<path fill="none" stroke="midnightblue" d="M908.17,-72.94C797.26,-67.09 556.05,-52.91 353.5,-31 341.67,-29.72 329.09,-28.11 316.97,-26.44"/>
<polygon fill="midnightblue" stroke="midnightblue" points="317.32,-22.95 306.93,-25.02 316.34,-29.88 317.32,-22.95"/>
</g>
<!-- Node4 -->
<g id="node4" class="node">
<title>Node4</title>
<g id="a_node4"><a xlink:title=" ">
<polygon fill="white" stroke="#bfbfbf" points="362.5,-0.5 362.5,-30.5 536.5,-30.5 536.5,-0.5 362.5,-0.5"/>
<text text-anchor="start" x="370.5" y="-18.5" font-family="Helvetica,sans-Serif" font-size="10.00">master_element/MasterElement</text>
<text text-anchor="middle" x="449.5" y="-7.5" font-family="Helvetica,sans-Serif" font-size="10.00">Repo.h</text>
</a>
</g>
</g>
<!-- Node1&#45;&gt;Node4 -->
<g id="edge3" class="edge">
<title>Node1&#45;&gt;Node4</title>
<path fill="none" stroke="midnightblue" d="M908.31,-70.36C827.82,-62.75 681.71,-48.29 546.71,-31.12"/>
<polygon fill="midnightblue" stroke="midnightblue" points="546.96,-27.62 536.6,-29.83 546.07,-34.57 546.96,-27.62"/>
</g>
<!-- Node5 -->
<g id="node5" class="node">
<title>Node5</title>
<g id="a_node5"><a xlink:title=" ">
<polygon fill="white" stroke="#bfbfbf" points="554.5,-6 554.5,-25 622.5,-25 622.5,-6 554.5,-6"/>
<text text-anchor="middle" x="588.5" y="-13" font-family="Helvetica,sans-Serif" font-size="10.00">AlgTraits.h</text>
</a>
</g>
</g>
<!-- Node1&#45;&gt;Node5 -->
<g id="edge4" class="edge">
<title>Node1&#45;&gt;Node5</title>
<path fill="none" stroke="midnightblue" d="M908.42,-71.44C840.23,-65.52 726.92,-53.22 631.5,-31 628.02,-30.19 624.42,-29.21 620.86,-28.15"/>
<polygon fill="midnightblue" stroke="midnightblue" points="621.62,-24.72 611.03,-25.01 619.49,-31.38 621.62,-24.72"/>
</g>
<!-- Node6 -->
<g id="node6" class="node">
<title>Node6</title>
<g id="a_node6"><a xlink:title=" ">
<polygon fill="white" stroke="#bfbfbf" points="641,-6 641,-25 800,-25 800,-6 641,-6"/>
<text text-anchor="middle" x="720.5" y="-13" font-family="Helvetica,sans-Serif" font-size="10.00">stk_mesh/base/BulkData.hpp</text>
</a>
</g>
</g>
<!-- Node1&#45;&gt;Node6 -->
<g id="edge5" class="edge">
<title>Node1&#45;&gt;Node6</title>
<path fill="none" stroke="midnightblue" d="M933.82,-67.48C889.63,-56.92 814.29,-38.91 765.99,-27.37"/>
<polygon fill="midnightblue" stroke="midnightblue" points="766.65,-23.93 756.11,-25.01 765.02,-30.74 766.65,-23.93"/>
</g>
<!-- Node7 -->
<g id="node7" class="node">
<title>Node7</title>
<g id="a_node7"><a xlink:title=" ">
<polygon fill="white" stroke="#bfbfbf" points="818,-6 818,-25 955,-25 955,-6 818,-6"/>
<text text-anchor="middle" x="886.5" y="-13" font-family="Helvetica,sans-Serif" font-size="10.00">stk_mesh/base/Field.hpp</text>
</a>
</g>
</g>
<!-- Node1&#45;&gt;Node7 -->
<g id="edge6" class="edge">
<title>Node1&#45;&gt;Node7</title>
<path fill="none" stroke="midnightblue" d="M957.61,-67.48C944.3,-57.93 922.5,-42.31 906.54,-30.87"/>
<polygon fill="midnightblue" stroke="midnightblue" points="908.54,-27.99 898.37,-25.01 904.46,-33.68 908.54,-27.99"/>
</g>
<!-- Node8 -->
<g id="node8" class="node">
<title>Node8</title>
<g id="a_node8"><a xlink:title=" ">
<polygon fill="white" stroke="#bfbfbf" points="973.5,-6 973.5,-25 1131.5,-25 1131.5,-6 973.5,-6"/>
<text text-anchor="middle" x="1052.5" y="-13" font-family="Helvetica,sans-Serif" font-size="10.00">stk_search/BoundingBox.hpp</text>
</a>
</g>
</g>
<!-- Node1&#45;&gt;Node8 -->
<g id="edge7" class="edge">
<title>Node1&#45;&gt;Node8</title>
<path fill="none" stroke="midnightblue" d="M981.39,-67.48C994.7,-57.93 1016.5,-42.31 1032.46,-30.87"/>
<polygon fill="midnightblue" stroke="midnightblue" points="1034.54,-33.68 1040.63,-25.01 1030.46,-27.99 1034.54,-33.68"/>
</g>
<!-- Node9 -->
<g id="node9" class="node">
<title>Node9</title>
<g id="a_node9"><a xlink:title=" ">
<polygon fill="white" stroke="#bfbfbf" points="1150,-6 1150,-25 1289,-25 1289,-6 1150,-6"/>
<text text-anchor="middle" x="1219.5" y="-13" font-family="Helvetica,sans-Serif" font-size="10.00">stk_search/IdentProc.hpp</text>
</a>
</g>
</g>
<!-- Node1&#45;&gt;Node9 -->
<g id="edge8" class="edge">
<title>Node1&#45;&gt;Node9</title>
<path fill="none" stroke="midnightblue" d="M1005.32,-67.48C1049.69,-56.92 1125.34,-38.91 1173.83,-27.37"/>
<polygon fill="midnightblue" stroke="midnightblue" points="1174.83,-30.73 1183.75,-25.01 1173.21,-23.92 1174.83,-30.73"/>
</g>
<!-- Node10 -->
<g id="node10" class="node">
<title>Node10</title>
<g id="a_node10"><a xlink:title=" ">
<polygon fill="white" stroke="#bfbfbf" points="1307,-6 1307,-25 1470,-25 1470,-6 1307,-6"/>
<text text-anchor="middle" x="1388.5" y="-13" font-family="Helvetica,sans-Serif" font-size="10.00">stk_search/SearchMethod.hpp</text>
</a>
</g>
</g>
<!-- Node1&#45;&gt;Node10 -->
<g id="edge9" class="edge">
<title>Node1&#45;&gt;Node10</title>
<path fill="none" stroke="midnightblue" d="M1030.5,-68.1C1096.6,-59.43 1205.13,-44.91 1298.5,-31 1307.58,-29.65 1317.17,-28.16 1326.57,-26.68"/>
<polygon fill="midnightblue" stroke="midnightblue" points="1327.33,-30.1 1336.66,-25.07 1326.23,-23.19 1327.33,-30.1"/>
</g>
<!-- Node11 -->
<g id="node11" class="node">
<title>Node11</title>
<g id="a_node11"><a xlink:title=" ">
<polygon fill="white" stroke="#bfbfbf" points="1488.5,-6 1488.5,-25 1650.5,-25 1650.5,-6 1488.5,-6"/>
<text text-anchor="middle" x="1569.5" y="-13" font-family="Helvetica,sans-Serif" font-size="10.00">stk_mesh/base/MetaData.hpp</text>
</a>
</g>
</g>
<!-- Node1&#45;&gt;Node11 -->
<g id="edge10" class="edge">
<title>Node1&#45;&gt;Node11</title>
<path fill="none" stroke="midnightblue" d="M1030.88,-72.01C1126.83,-65.46 1318.09,-51.1 1479.5,-31 1489.51,-29.75 1500.12,-28.23 1510.4,-26.64"/>
<polygon fill="midnightblue" stroke="midnightblue" points="1511.21,-30.06 1520.55,-25.04 1510.12,-23.14 1511.21,-30.06"/>
</g>
<!-- Node12 -->
<g id="node12" class="node">
<title>Node12</title>
<g id="a_node12"><a xlink:title=" ">
<polygon fill="white" stroke="#bfbfbf" points="1668.5,-6 1668.5,-25 1828.5,-25 1828.5,-6 1668.5,-6"/>
<text text-anchor="middle" x="1748.5" y="-13" font-family="Helvetica,sans-Serif" font-size="10.00">stk_search/CoarseSearch.hpp</text>
</a>
</g>
</g>
<!-- Node1&#45;&gt;Node12 -->
<g id="edge11" class="edge">
<title>Node1&#45;&gt;Node12</title>
<path fill="none" stroke="midnightblue" d="M1030.59,-73.99C1151.16,-69.6 1428.1,-57.33 1659.5,-31 1669.87,-29.82 1680.88,-28.27 1691.49,-26.62"/>
<polygon fill="midnightblue" stroke="midnightblue" points="1692.18,-30.06 1701.5,-25.03 1691.08,-23.15 1692.18,-30.06"/>
</g>
<!-- Node13 -->
<g id="node13" class="node">
<title>Node13</title>
<g id="a_node13"><a xlink:title=" ">
<polygon fill="white" stroke="#bfbfbf" points="1846.5,-6 1846.5,-25 1890.5,-25 1890.5,-6 1846.5,-6"/>
<text text-anchor="middle" x="1868.5" y="-13" font-family="Helvetica,sans-Serif" font-size="10.00">mpi.h</text>
</a>
</g>
</g>
<!-- Node1&#45;&gt;Node13 -->
<g id="edge12" class="edge">
<title>Node1&#45;&gt;Node13</title>
<path fill="none" stroke="midnightblue" d="M1030.75,-75.87C1202.21,-75.03 1684.42,-69.22 1837.5,-31 1839.49,-30.5 1841.5,-29.88 1843.5,-29.17"/>
<polygon fill="midnightblue" stroke="midnightblue" points="1845.31,-32.2 1853.16,-25.1 1842.59,-25.75 1845.31,-32.2"/>
</g>
</g>
</svg>
