<?xml version="1.0" encoding="UTF-8" standalone="no"?>
<!DOCTYPE svg PUBLIC "-//W3C//DTD SVG 1.1//EN"
 "http://www.w3.org/Graphics/SVG/1.1/DTD/svg11.dtd">
<!-- Generated by graphviz version 2.43.0 (0)
 -->
<!-- Title: LocalDualNodalVolume.C Pages: 1 -->
<svg width="1640pt" height="95pt"
 viewBox="0.00 0.00 1639.50 95.00" xmlns="http://www.w3.org/2000/svg" xmlns:xlink="http://www.w3.org/1999/xlink">
<g id="graph0" class="graph" transform="scale(1 1) rotate(0) translate(4 91)">
<title>LocalDualNodalVolume.C</title>
<polygon fill="white" stroke="transparent" points="-4,4 -4,-91 1635.5,-91 1635.5,4 -4,4"/>
<!-- Node1 -->
<g id="node1" class="node">
<title>Node1</title>
<g id="a_node1"><a xlink:title=" ">
<polygon fill="#bfbfbf" stroke="black" points="775.5,-67.5 775.5,-86.5 915.5,-86.5 915.5,-67.5 775.5,-67.5"/>
<text text-anchor="middle" x="845.5" y="-74.5" font-family="Helvetica,sans-Serif" font-size="10.00">LocalDualNodalVolume.C</text>
</a>
</g>
</g>
<!-- Node2 -->
<g id="node2" class="node">
<title>Node2</title>
<g id="a_node2"><a xlink:title=" ">
<polygon fill="white" stroke="#bfbfbf" points="0,-0.5 0,-30.5 153,-30.5 153,-0.5 0,-0.5"/>
<text text-anchor="start" x="8" y="-18.5" font-family="Helvetica,sans-Serif" font-size="10.00">matrix_free/LocalDualNodal</text>
<text text-anchor="middle" x="76.5" y="-7.5" font-family="Helvetica,sans-Serif" font-size="10.00">Volume.h</text>
</a>
</g>
</g>
<!-- Node1&#45;&gt;Node2 -->
<g id="edge1" class="edge">
<title>Node1&#45;&gt;Node2</title>
<path fill="none" stroke="midnightblue" d="M775.37,-73.78C653.06,-69.37 392.65,-57.68 163.56,-31.17"/>
<polygon fill="midnightblue" stroke="midnightblue" points="163.7,-27.66 153.36,-29.98 162.89,-34.61 163.7,-27.66"/>
</g>
<!-- Node3 -->
<g id="node3" class="node">
<title>Node3</title>
<g id="a_node3"><a xlink:title=" ">
<polygon fill="white" stroke="#bfbfbf" points="171,-6 171,-25 366,-25 366,-6 171,-6"/>
<text text-anchor="middle" x="268.5" y="-13" font-family="Helvetica,sans-Serif" font-size="10.00">matrix_free/HexVertexCoordinates.h</text>
</a>
</g>
</g>
<!-- Node1&#45;&gt;Node3 -->
<g id="edge2" class="edge">
<title>Node1&#45;&gt;Node3</title>
<path fill="none" stroke="midnightblue" d="M775.18,-70.18C683.04,-62.35 516.48,-47.49 374.5,-31 362.61,-29.62 349.99,-28.01 337.75,-26.39"/>
<polygon fill="midnightblue" stroke="midnightblue" points="337.97,-22.88 327.59,-25.02 337.04,-29.82 337.97,-22.88"/>
</g>
<!-- Node4 -->
<g id="node4" class="node">
<title>Node4</title>
<g id="a_node4"><a xlink:title=" ">
<polygon fill="white" stroke="#bfbfbf" points="384,-6 384,-25 557,-25 557,-6 384,-6"/>
<text text-anchor="middle" x="470.5" y="-13" font-family="Helvetica,sans-Serif" font-size="10.00">matrix_free/PolynomialOrders.h</text>
</a>
</g>
</g>
<!-- Node1&#45;&gt;Node4 -->
<g id="edge3" class="edge">
<title>Node1&#45;&gt;Node4</title>
<path fill="none" stroke="midnightblue" d="M791.77,-67.48C723.69,-56.67 606.5,-38.08 534.05,-26.58"/>
<polygon fill="midnightblue" stroke="midnightblue" points="534.55,-23.12 524.13,-25.01 533.46,-30.03 534.55,-23.12"/>
</g>
<!-- Node5 -->
<g id="node5" class="node">
<title>Node5</title>
<g id="a_node5"><a xlink:title=" ">
<polygon fill="white" stroke="#bfbfbf" points="575,-6 575,-25 742,-25 742,-6 575,-6"/>
<text text-anchor="middle" x="658.5" y="-13" font-family="Helvetica,sans-Serif" font-size="10.00">matrix_free/ValidSimdLength.h</text>
</a>
</g>
</g>
<!-- Node1&#45;&gt;Node5 -->
<g id="edge4" class="edge">
<title>Node1&#45;&gt;Node5</title>
<path fill="none" stroke="midnightblue" d="M818.71,-67.48C786.21,-57.14 731.29,-39.66 694.96,-28.1"/>
<polygon fill="midnightblue" stroke="midnightblue" points="695.83,-24.71 685.24,-25.01 693.71,-31.38 695.83,-24.71"/>
</g>
<!-- Node6 -->
<g id="node6" class="node">
<title>Node6</title>
<g id="a_node6"><a xlink:title=" ">
<polygon fill="white" stroke="#bfbfbf" points="760.5,-6 760.5,-25 930.5,-25 930.5,-6 760.5,-6"/>
<text text-anchor="middle" x="845.5" y="-13" font-family="Helvetica,sans-Serif" font-size="10.00">matrix_free/TensorOperations.h</text>
</a>
</g>
</g>
<!-- Node1&#45;&gt;Node6 -->
<g id="edge5" class="edge">
<title>Node1&#45;&gt;Node6</title>
<path fill="none" stroke="midnightblue" d="M845.5,-67.48C845.5,-59.08 845.5,-45.98 845.5,-35.16"/>
<polygon fill="midnightblue" stroke="midnightblue" points="849,-35.01 845.5,-25.01 842,-35.01 849,-35.01"/>
</g>
<!-- Node7 -->
<g id="node7" class="node">
<title>Node7</title>
<g id="a_node7"><a xlink:title=" ">
<polygon fill="white" stroke="#bfbfbf" points="949,-6 949,-25 1132,-25 1132,-6 949,-6"/>
<text text-anchor="middle" x="1040.5" y="-13" font-family="Helvetica,sans-Serif" font-size="10.00">matrix_free/GeometricFunctions.h</text>
</a>
</g>
</g>
<!-- Node1&#45;&gt;Node7 -->
<g id="edge6" class="edge">
<title>Node1&#45;&gt;Node7</title>
<path fill="none" stroke="midnightblue" d="M873.44,-67.48C907.47,-57.09 965.08,-39.51 1002.96,-27.95"/>
<polygon fill="midnightblue" stroke="midnightblue" points="1004.07,-31.28 1012.61,-25.01 1002.03,-24.58 1004.07,-31.28"/>
</g>
<!-- Node8 -->
<g id="node8" class="node">
<title>Node8</title>
<g id="a_node8"><a xlink:title=" ">
<polygon fill="white" stroke="#bfbfbf" points="1150,-0.5 1150,-30.5 1329,-30.5 1329,-0.5 1150,-0.5"/>
<text text-anchor="start" x="1158" y="-18.5" font-family="Helvetica,sans-Serif" font-size="10.00">matrix_free/StkSimdConnectivity</text>
<text text-anchor="middle" x="1239.5" y="-7.5" font-family="Helvetica,sans-Serif" font-size="10.00">Map.h</text>
</a>
</g>
</g>
<!-- Node1&#45;&gt;Node8 -->
<g id="edge7" class="edge">
<title>Node1&#45;&gt;Node8</title>
<path fill="none" stroke="midnightblue" d="M901.95,-67.48C963.86,-58.13 1064.4,-42.94 1139.68,-31.57"/>
<polygon fill="midnightblue" stroke="midnightblue" points="1140.3,-35.02 1149.66,-30.07 1139.25,-28.1 1140.3,-35.02"/>
</g>
<!-- Node9 -->
<g id="node9" class="node">
<title>Node9</title>
<g id="a_node9"><a xlink:title=" ">
<polygon fill="white" stroke="#bfbfbf" points="1347.5,-0.5 1347.5,-30.5 1509.5,-30.5 1509.5,-0.5 1347.5,-0.5"/>
<text text-anchor="start" x="1355.5" y="-18.5" font-family="Helvetica,sans-Serif" font-size="10.00">matrix_free/StkSimdGathered</text>
<text text-anchor="middle" x="1428.5" y="-7.5" font-family="Helvetica,sans-Serif" font-size="10.00">ElementData.h</text>
</a>
</g>
</g>
<!-- Node1&#45;&gt;Node9 -->
<g id="edge8" class="edge">
<title>Node1&#45;&gt;Node9</title>
<path fill="none" stroke="midnightblue" d="M915.88,-71.1C1009.62,-64.24 1180.87,-50.52 1336.85,-31.16"/>
<polygon fill="midnightblue" stroke="midnightblue" points="1337.61,-34.59 1347.1,-29.87 1336.74,-27.64 1337.61,-34.59"/>
</g>
<!-- Node10 -->
<g id="node10" class="node">
<title>Node10</title>
<g id="a_node10"><a xlink:title=" ">
<polygon fill="white" stroke="#bfbfbf" points="1527.5,-6 1527.5,-25 1631.5,-25 1631.5,-6 1527.5,-6"/>
<text text-anchor="middle" x="1579.5" y="-13" font-family="Helvetica,sans-Serif" font-size="10.00">KokkosInterface.h</text>
</a>
</g>
</g>
<!-- Node1&#45;&gt;Node10 -->
<g id="edge9" class="edge">
<title>Node1&#45;&gt;Node10</title>
<path fill="none" stroke="midnightblue" d="M915.67,-75.15C1038.52,-72.8 1300.25,-64 1518.5,-31 1524.86,-30.04 1531.53,-28.75 1538.03,-27.33"/>
<polygon fill="midnightblue" stroke="midnightblue" points="1539.07,-30.69 1548.04,-25.04 1537.51,-23.86 1539.07,-30.69"/>
</g>
</g>
</svg>
