<?xml version="1.0" encoding="UTF-8" standalone="no"?>
<!DOCTYPE svg PUBLIC "-//W3C//DTD SVG 1.1//EN"
 "http://www.w3.org/Graphics/SVG/1.1/DTD/svg11.dtd">
<!-- Generated by graphviz version 2.43.0 (0)
 -->
<!-- Title: LowMachGatheredFieldManager.C Pages: 1 -->
<!--zoomable 95 -->
<svg id="main" version="1.1" xmlns="http://www.w3.org/2000/svg" xmlns:xlink="http://www.w3.org/1999/xlink" xml:space="preserve" onload="init(evt)">
<style type="text/css"><![CDATA[
.edge:hover path { stroke: red; }
.edge:hover polygon { stroke: red; fill: red; }
]]></style>
<script type="text/javascript"><![CDATA[
var edges = document.getElementsByTagName('g');
if (edges && edges.length) {
  for (var i=0;i<edges.length;i++) {
    if (edges[i].id.substr(0,4)=='edge') {
      edges[i].setAttribute('class','edge');
    }
  }
}
]]></script>
        <defs>
                <circle id="rim" cx="0" cy="0" r="7"/>
                <circle id="rim2" cx="0" cy="0" r="3.5"/>
                <g id="zoomPlus">
                        <use xlink:href="#rim" fill="#404040">
                                <set attributeName="fill" to="#808080" begin="zoomplus.mouseover" end="zoomplus.mouseout"/>
                        </use>
                        <path d="M-4,0h8M0,-4v8" fill="none" stroke="white" stroke-width="1.5" pointer-events="none"/>
                </g>
                <g id="zoomMin">
                        <use xlink:href="#rim" fill="#404040">
                                <set attributeName="fill" to="#808080" begin="zoomminus.mouseover" end="zoomminus.mouseout"/>
                        </use>
                        <path d="M-4,0h8" fill="none" stroke="white" stroke-width="1.5" pointer-events="none"/>
                </g>
                <g id="dirArrow">
                        <path fill="none" stroke="white" stroke-width="1.5" d="M0,-3.0v7 M-2.5,-0.5L0,-3.0L2.5,-0.5"/>
                </g>
               <g id="resetDef">
                       <use xlink:href="#rim2" fill="#404040">
                               <set attributeName="fill" to="#808080" begin="reset.mouseover" end="reset.mouseout"/>
                       </use>
               </g>
        </defs>

<script type="text/javascript">
var viewWidth = 4402;
var viewHeight = 95;
var sectionId = 'dynsection-0';
</script>
<script xlink:href="svgpan.js"/>
<svg id="graph" class="graph">
<g id="viewport">
<title>LowMachGatheredFieldManager.C</title>
<polygon fill="white" stroke="transparent" points="-4,4 -4,-91 4398,-91 4398,4 -4,4"/>
<!-- Node1 -->
<g id="node1" class="node">
<title>Node1</title>
<g id="a_node1"><a xlink:title=" ">
<polygon fill="#bfbfbf" stroke="black" points="2269.5,-67.5 2269.5,-86.5 2451.5,-86.5 2451.5,-67.5 2269.5,-67.5"/>
<text text-anchor="middle" x="2360.5" y="-74.5" font-family="Helvetica,sans-Serif" font-size="10.00">LowMachGatheredFieldManager.C</text>
</a>
</g>
</g>
<!-- Node2 -->
<g id="node2" class="node">
<title>Node2</title>
<g id="a_node2"><a xlink:title=" ">
<polygon fill="white" stroke="#bfbfbf" points="0,-6 0,-25 195,-25 195,-6 0,-6"/>
<text text-anchor="middle" x="97.5" y="-13" font-family="Helvetica,sans-Serif" font-size="10.00">matrix_free/HexVertexCoordinates.h</text>
</a>
</g>
</g>
<!-- Node1&#45;&gt;Node2 -->
<g id="edge1" class="edge">
<title>Node1&#45;&gt;Node2</title>
<path fill="none" stroke="midnightblue" d="M2269.2,-75.5C1912.76,-73.32 614.37,-63.28 203.5,-31 189.64,-29.91 174.83,-28.22 160.8,-26.37"/>
<polygon fill="midnightblue" stroke="midnightblue" points="161.13,-22.88 150.75,-25 160.19,-29.82 161.13,-22.88"/>
</g>
<!-- Node3 -->
<g id="node3" class="node">
<title>Node3</title>
<g id="a_node3"><a xlink:title=" ">
<polygon fill="white" stroke="#bfbfbf" points="213,-0.5 213,-30.5 380,-30.5 380,-0.5 213,-0.5"/>
<text text-anchor="start" x="221" y="-18.5" font-family="Helvetica,sans-Serif" font-size="10.00">matrix_free/LowMachGathered</text>
<text text-anchor="middle" x="296.5" y="-7.5" font-family="Helvetica,sans-Serif" font-size="10.00">FieldManager.h</text>
</a>
</g>
</g>
<!-- Node1&#45;&gt;Node3 -->
<g id="edge2" class="edge">
<title>Node1&#45;&gt;Node3</title>
<path fill="none" stroke="midnightblue" d="M2269.36,-75.54C1935.86,-73.59 781.45,-64.61 390.4,-31.07"/>
<polygon fill="midnightblue" stroke="midnightblue" points="390.45,-27.56 380.18,-30.17 389.83,-34.54 390.45,-27.56"/>
</g>
<!-- Node4 -->
<g id="node4" class="node">
<title>Node4</title>
<g id="a_node4"><a xlink:title=" ">
<polygon fill="white" stroke="#bfbfbf" points="397.5,-6 397.5,-25 547.5,-25 547.5,-6 397.5,-6"/>
<text text-anchor="middle" x="472.5" y="-13" font-family="Helvetica,sans-Serif" font-size="10.00">matrix_free/LowMachInfo.h</text>
</a>
</g>
</g>
<!-- Node1&#45;&gt;Node4 -->
<g id="edge3" class="edge">
<title>Node1&#45;&gt;Node4</title>
<path fill="none" stroke="midnightblue" d="M2269.29,-75.49C1951.51,-73.42 894.11,-64.17 556.5,-31 546.12,-29.98 535.09,-28.42 524.55,-26.7"/>
<polygon fill="midnightblue" stroke="midnightblue" points="525.08,-23.24 514.64,-25.01 523.91,-30.14 525.08,-23.24"/>
</g>
<!-- Node5 -->
<g id="node5" class="node">
<title>Node5</title>
<g id="a_node5"><a xlink:title=" ">
<polygon fill="white" stroke="#bfbfbf" points="565.5,-0.5 565.5,-30.5 713.5,-30.5 713.5,-0.5 565.5,-0.5"/>
<text text-anchor="start" x="573.5" y="-18.5" font-family="Helvetica,sans-Serif" font-size="10.00">matrix_free/LinearExposed</text>
<text text-anchor="middle" x="639.5" y="-7.5" font-family="Helvetica,sans-Serif" font-size="10.00">Areas.h</text>
</a>
</g>
</g>
<!-- Node1&#45;&gt;Node5 -->
<g id="edge4" class="edge">
<title>Node1&#45;&gt;Node5</title>
<path fill="none" stroke="midnightblue" d="M2269.25,-75.24C1974.11,-72.52 1046.3,-61.76 723.92,-31.01"/>
<polygon fill="midnightblue" stroke="midnightblue" points="723.93,-27.49 713.64,-30 723.25,-34.46 723.93,-27.49"/>
</g>
<!-- Node6 -->
<g id="node6" class="node">
<title>Node6</title>
<g id="a_node6"><a xlink:title=" ">
<polygon fill="white" stroke="#bfbfbf" points="731.5,-6 731.5,-25 891.5,-25 891.5,-6 731.5,-6"/>
<text text-anchor="middle" x="811.5" y="-13" font-family="Helvetica,sans-Serif" font-size="10.00">matrix_free/LowMachFields.h</text>
</a>
</g>
</g>
<!-- Node1&#45;&gt;Node6 -->
<g id="edge5" class="edge">
<title>Node1&#45;&gt;Node6</title>
<path fill="none" stroke="midnightblue" d="M2269.16,-74.75C1992.76,-70.72 1167.91,-56.79 900.5,-31 889.52,-29.94 877.85,-28.37 866.69,-26.64"/>
<polygon fill="midnightblue" stroke="midnightblue" points="867.06,-23.16 856.63,-25.03 865.95,-30.07 867.06,-23.16"/>
</g>
<!-- Node7 -->
<g id="node7" class="node">
<title>Node7</title>
<g id="a_node7"><a xlink:title=" ">
<polygon fill="white" stroke="#bfbfbf" points="910,-0.5 910,-30.5 1065,-30.5 1065,-0.5 910,-0.5"/>
<text text-anchor="start" x="918" y="-18.5" font-family="Helvetica,sans-Serif" font-size="10.00">matrix_free/LinearAdvection</text>
<text text-anchor="middle" x="987.5" y="-7.5" font-family="Helvetica,sans-Serif" font-size="10.00">Metric.h</text>
</a>
</g>
</g>
<!-- Node1&#45;&gt;Node7 -->
<g id="edge6" class="edge">
<title>Node1&#45;&gt;Node7</title>
<path fill="none" stroke="midnightblue" d="M2269.41,-74.36C2019.55,-69.6 1325.96,-54.72 1075.38,-30.96"/>
<polygon fill="midnightblue" stroke="midnightblue" points="1075.51,-27.46 1065.22,-29.97 1074.83,-34.42 1075.51,-27.46"/>
</g>
<!-- Node8 -->
<g id="node8" class="node">
<title>Node8</title>
<g id="a_node8"><a xlink:title=" ">
<polygon fill="white" stroke="#bfbfbf" points="1083.5,-6 1083.5,-25 1255.5,-25 1255.5,-6 1083.5,-6"/>
<text text-anchor="middle" x="1169.5" y="-13" font-family="Helvetica,sans-Serif" font-size="10.00">matrix_free/KokkosViewTypes.h</text>
</a>
</g>
</g>
<!-- Node1&#45;&gt;Node8 -->
<g id="edge7" class="edge">
<title>Node1&#45;&gt;Node8</title>
<path fill="none" stroke="midnightblue" d="M2269.33,-75.65C2081.11,-74.19 1636.03,-66.87 1264.5,-31 1252.94,-29.88 1240.64,-28.3 1228.86,-26.59"/>
<polygon fill="midnightblue" stroke="midnightblue" points="1229.09,-23.09 1218.68,-25.06 1228.05,-30.01 1229.09,-23.09"/>
</g>
<!-- Node9 -->
<g id="node9" class="node">
<title>Node9</title>
<g id="a_node9"><a xlink:title=" ">
<polygon fill="white" stroke="#bfbfbf" points="1274,-6 1274,-25 1447,-25 1447,-6 1274,-6"/>
<text text-anchor="middle" x="1360.5" y="-13" font-family="Helvetica,sans-Serif" font-size="10.00">matrix_free/PolynomialOrders.h</text>
</a>
</g>
</g>
<!-- Node1&#45;&gt;Node9 -->
<g id="edge8" class="edge">
<title>Node1&#45;&gt;Node9</title>
<path fill="none" stroke="midnightblue" d="M2269.39,-74.53C2105.95,-71.22 1752.3,-60.95 1455.5,-31 1444.07,-29.85 1431.92,-28.27 1420.26,-26.57"/>
<polygon fill="midnightblue" stroke="midnightblue" points="1420.58,-23.08 1410.18,-25.06 1419.55,-30 1420.58,-23.08"/>
</g>
<!-- Node10 -->
<g id="node10" class="node">
<title>Node10</title>
<g id="a_node10"><a xlink:title=" ">
<polygon fill="white" stroke="#bfbfbf" points="1465,-6 1465,-25 1624,-25 1624,-6 1465,-6"/>
<text text-anchor="middle" x="1544.5" y="-13" font-family="Helvetica,sans-Serif" font-size="10.00">matrix_free/ShuffledAccess.h</text>
</a>
</g>
</g>
<!-- Node1&#45;&gt;Node10 -->
<g id="edge9" class="edge">
<title>Node1&#45;&gt;Node10</title>
<path fill="none" stroke="midnightblue" d="M2269.45,-73.34C2131.36,-68.64 1860.88,-56.81 1632.5,-31 1622.24,-29.84 1611.35,-28.3 1600.86,-26.66"/>
<polygon fill="midnightblue" stroke="midnightblue" points="1601.39,-23.2 1590.96,-25.06 1600.28,-30.11 1601.39,-23.2"/>
</g>
<!-- Node11 -->
<g id="node11" class="node">
<title>Node11</title>
<g id="a_node11"><a xlink:title=" ">
<polygon fill="white" stroke="#bfbfbf" points="1642,-0.5 1642,-30.5 1821,-30.5 1821,-0.5 1642,-0.5"/>
<text text-anchor="start" x="1650" y="-18.5" font-family="Helvetica,sans-Serif" font-size="10.00">matrix_free/StkSimdConnectivity</text>
<text text-anchor="middle" x="1731.5" y="-7.5" font-family="Helvetica,sans-Serif" font-size="10.00">Map.h</text>
</a>
</g>
</g>
<!-- Node1&#45;&gt;Node11 -->
<g id="edge10" class="edge">
<title>Node1&#45;&gt;Node11</title>
<path fill="none" stroke="midnightblue" d="M2269.36,-69.95C2165.8,-62.7 1991.49,-49.32 1831.1,-31.02"/>
<polygon fill="midnightblue" stroke="midnightblue" points="1831.38,-27.53 1821.05,-29.86 1830.58,-34.48 1831.38,-27.53"/>
</g>
<!-- Node12 -->
<g id="node12" class="node">
<title>Node12</title>
<g id="a_node12"><a xlink:title=" ">
<polygon fill="white" stroke="#bfbfbf" points="1839.5,-0.5 1839.5,-30.5 2039.5,-30.5 2039.5,-0.5 1839.5,-0.5"/>
<text text-anchor="start" x="1847.5" y="-18.5" font-family="Helvetica,sans-Serif" font-size="10.00">matrix_free/StkSimdFaceConnectivity</text>
<text text-anchor="middle" x="1939.5" y="-7.5" font-family="Helvetica,sans-Serif" font-size="10.00">Map.h</text>
</a>
</g>
</g>
<!-- Node1&#45;&gt;Node12 -->
<g id="edge11" class="edge">
<title>Node1&#45;&gt;Node12</title>
<path fill="none" stroke="midnightblue" d="M2300.18,-67.48C2234.77,-58.23 2128.99,-43.28 2048.86,-31.96"/>
<polygon fill="midnightblue" stroke="midnightblue" points="2049.11,-28.46 2038.72,-30.52 2048.13,-35.39 2049.11,-28.46"/>
</g>
<!-- Node13 -->
<g id="node13" class="node">
<title>Node13</title>
<g id="a_node13"><a xlink:title=" ">
<polygon fill="white" stroke="#bfbfbf" points="2057.5,-0.5 2057.5,-30.5 2261.5,-30.5 2261.5,-0.5 2057.5,-0.5"/>
<text text-anchor="start" x="2065.5" y="-18.5" font-family="Helvetica,sans-Serif" font-size="10.00">matrix_free/StkSimdNodeConnectivity</text>
<text text-anchor="middle" x="2159.5" y="-7.5" font-family="Helvetica,sans-Serif" font-size="10.00">Map.h</text>
</a>
</g>
</g>
<!-- Node1&#45;&gt;Node13 -->
<g id="edge12" class="edge">
<title>Node1&#45;&gt;Node13</title>
<path fill="none" stroke="midnightblue" d="M2331.7,-67.48C2301.81,-58.63 2254.25,-44.55 2216.68,-33.43"/>
<polygon fill="midnightblue" stroke="midnightblue" points="2217.45,-30.01 2206.87,-30.52 2215.47,-36.72 2217.45,-30.01"/>
</g>
<!-- Node14 -->
<g id="node14" class="node">
<title>Node14</title>
<g id="a_node14"><a xlink:title=" ">
<polygon fill="white" stroke="#bfbfbf" points="2279.5,-0.5 2279.5,-30.5 2441.5,-30.5 2441.5,-0.5 2279.5,-0.5"/>
<text text-anchor="start" x="2287.5" y="-18.5" font-family="Helvetica,sans-Serif" font-size="10.00">matrix_free/StkSimdGathered</text>
<text text-anchor="middle" x="2360.5" y="-7.5" font-family="Helvetica,sans-Serif" font-size="10.00">ElementData.h</text>
</a>
</g>
</g>
<!-- Node1&#45;&gt;Node14 -->
<g id="edge13" class="edge">
<title>Node1&#45;&gt;Node14</title>
<path fill="none" stroke="midnightblue" d="M2360.5,-67.48C2360.5,-60.47 2360.5,-50.19 2360.5,-40.7"/>
<polygon fill="midnightblue" stroke="midnightblue" points="2364,-40.52 2360.5,-30.52 2357,-40.52 2364,-40.52"/>
</g>
<!-- Node15 -->
<g id="node15" class="node">
<title>Node15</title>
<g id="a_node15"><a xlink:title=" ">
<polygon fill="white" stroke="#bfbfbf" points="2460,-6 2460,-25 2627,-25 2627,-6 2460,-6"/>
<text text-anchor="middle" x="2543.5" y="-13" font-family="Helvetica,sans-Serif" font-size="10.00">matrix_free/ValidSimdLength.h</text>
</a>
</g>
</g>
<!-- Node1&#45;&gt;Node15 -->
<g id="edge14" class="edge">
<title>Node1&#45;&gt;Node15</title>
<path fill="none" stroke="midnightblue" d="M2386.72,-67.48C2418.52,-57.14 2472.27,-39.66 2507.82,-28.1"/>
<polygon fill="midnightblue" stroke="midnightblue" points="2508.9,-31.43 2517.33,-25.01 2506.74,-24.77 2508.9,-31.43"/>
</g>
<!-- Node16 -->
<g id="node16" class="node">
<title>Node16</title>
<g id="a_node16"><a xlink:title=" ">
<polygon fill="white" stroke="#bfbfbf" points="2645.5,-6 2645.5,-25 2843.5,-25 2843.5,-6 2645.5,-6"/>
<text text-anchor="middle" x="2744.5" y="-13" font-family="Helvetica,sans-Serif" font-size="10.00">matrix_free/ElementSCSInterpolate.h</text>
</a>
</g>
</g>
<!-- Node1&#45;&gt;Node16 -->
<g id="edge15" class="edge">
<title>Node1&#45;&gt;Node16</title>
<path fill="none" stroke="midnightblue" d="M2415.52,-67.48C2485.24,-56.67 2605.24,-38.08 2679.43,-26.58"/>
<polygon fill="midnightblue" stroke="midnightblue" points="2680.24,-30 2689.58,-25.01 2679.17,-23.08 2680.24,-30"/>
</g>
<!-- Node17 -->
<g id="node17" class="node">
<title>Node17</title>
<g id="a_node17"><a xlink:title=" ">
<polygon fill="white" stroke="#bfbfbf" points="2861.5,-6 2861.5,-25 2965.5,-25 2965.5,-6 2861.5,-6"/>
<text text-anchor="middle" x="2913.5" y="-13" font-family="Helvetica,sans-Serif" font-size="10.00">KokkosInterface.h</text>
</a>
</g>
</g>
<!-- Node1&#45;&gt;Node17 -->
<g id="edge16" class="edge">
<title>Node1&#45;&gt;Node17</title>
<path fill="none" stroke="midnightblue" d="M2451.67,-71.55C2550.81,-65.8 2713.68,-53.73 2852.5,-31 2858.7,-29.98 2865.21,-28.69 2871.57,-27.29"/>
<polygon fill="midnightblue" stroke="midnightblue" points="2872.42,-30.69 2881.38,-25.04 2870.85,-23.87 2872.42,-30.69"/>
</g>
<!-- Node18 -->
<g id="node18" class="node">
<title>Node18</title>
<g id="a_node18"><a xlink:title=" ">
<polygon fill="white" stroke="#bfbfbf" points="2984,-6 2984,-25 3097,-25 3097,-6 2984,-6"/>
<text text-anchor="middle" x="3040.5" y="-13" font-family="Helvetica,sans-Serif" font-size="10.00">Kokkos_Macros.hpp</text>
</a>
</g>
</g>
<!-- Node1&#45;&gt;Node18 -->
<g id="edge17" class="edge">
<title>Node1&#45;&gt;Node18</title>
<path fill="none" stroke="midnightblue" d="M2451.71,-73.39C2572.01,-69.02 2790.07,-57.88 2974.5,-31 2981.44,-29.99 2988.74,-28.66 2995.85,-27.21"/>
<polygon fill="midnightblue" stroke="midnightblue" points="2997.02,-30.54 3006.08,-25.04 2995.57,-23.7 2997.02,-30.54"/>
</g>
<!-- Node19 -->
<g id="node19" class="node">
<title>Node19</title>
<g id="a_node19"><a xlink:title=" ">
<polygon fill="white" stroke="#bfbfbf" points="3115,-6 3115,-25 3278,-25 3278,-6 3115,-6"/>
<text text-anchor="middle" x="3196.5" y="-13" font-family="Helvetica,sans-Serif" font-size="10.00">stk_mesh/base/FieldState.hpp</text>
</a>
</g>
</g>
<!-- Node1&#45;&gt;Node19 -->
<g id="edge18" class="edge">
<title>Node1&#45;&gt;Node19</title>
<path fill="none" stroke="midnightblue" d="M2451.76,-73.42C2592.61,-68.78 2871.3,-56.98 3106.5,-31 3116.99,-29.84 3128.12,-28.3 3138.85,-26.66"/>
<polygon fill="midnightblue" stroke="midnightblue" points="3139.65,-30.08 3148.98,-25.06 3138.55,-23.16 3139.65,-30.08"/>
</g>
<!-- Node20 -->
<g id="node20" class="node">
<title>Node20</title>
<g id="a_node20"><a xlink:title=" ">
<polygon fill="white" stroke="#bfbfbf" points="3296.5,-6 3296.5,-25 3470.5,-25 3470.5,-6 3296.5,-6"/>
<text text-anchor="middle" x="3383.5" y="-13" font-family="Helvetica,sans-Serif" font-size="10.00">stk_mesh/base/GetNgpField.hpp</text>
</a>
</g>
</g>
<!-- Node1&#45;&gt;Node20 -->
<g id="edge19" class="edge">
<title>Node1&#45;&gt;Node20</title>
<path fill="none" stroke="midnightblue" d="M2451.52,-74.64C2617.88,-71.48 2982.06,-61.4 3287.5,-31 3299.05,-29.85 3311.32,-28.27 3323.1,-26.58"/>
<polygon fill="midnightblue" stroke="midnightblue" points="3323.92,-29.99 3333.3,-25.06 3322.89,-23.07 3323.92,-29.99"/>
</g>
<!-- Node21 -->
<g id="node21" class="node">
<title>Node21</title>
<g id="a_node21"><a xlink:title=" ">
<polygon fill="white" stroke="#bfbfbf" points="3488.5,-6 3488.5,-25 3650.5,-25 3650.5,-6 3488.5,-6"/>
<text text-anchor="middle" x="3569.5" y="-13" font-family="Helvetica,sans-Serif" font-size="10.00">stk_mesh/base/MetaData.hpp</text>
</a>
</g>
</g>
<!-- Node1&#45;&gt;Node21 -->
<g id="edge20" class="edge">
<title>Node1&#45;&gt;Node21</title>
<path fill="none" stroke="midnightblue" d="M2451.78,-76.02C2642.92,-75.24 3099.11,-69.15 3479.5,-31 3490.47,-29.9 3502.14,-28.32 3513.31,-26.61"/>
<polygon fill="midnightblue" stroke="midnightblue" points="3514.06,-30.04 3523.39,-25.01 3512.97,-23.12 3514.06,-30.04"/>
</g>
<!-- Node22 -->
<g id="node22" class="node">
<title>Node22</title>
<g id="a_node22"><a xlink:title=" ">
<polygon fill="white" stroke="#bfbfbf" points="3668.5,-0.5 3668.5,-30.5 3820.5,-30.5 3820.5,-0.5 3668.5,-0.5"/>
<text text-anchor="start" x="3676.5" y="-18.5" font-family="Helvetica,sans-Serif" font-size="10.00">stk_mesh/base/NgpProfiling</text>
<text text-anchor="middle" x="3744.5" y="-7.5" font-family="Helvetica,sans-Serif" font-size="10.00">Block.hpp</text>
</a>
</g>
</g>
<!-- Node1&#45;&gt;Node22 -->
<g id="edge21" class="edge">
<title>Node1&#45;&gt;Node22</title>
<path fill="none" stroke="midnightblue" d="M2451.6,-74.44C2703.21,-69.87 3405.22,-55.38 3657.87,-31.05"/>
<polygon fill="midnightblue" stroke="midnightblue" points="3658.51,-34.5 3668.11,-30.03 3657.81,-27.53 3658.51,-34.5"/>
</g>
<!-- Node23 -->
<g id="node23" class="node">
<title>Node23</title>
<g id="a_node23"><a xlink:title=" ">
<polygon fill="white" stroke="#bfbfbf" points="3839,-6 3839,-25 4016,-25 4016,-6 3839,-6"/>
<text text-anchor="middle" x="3927.5" y="-13" font-family="Helvetica,sans-Serif" font-size="10.00">stk_mesh/base/GetNgpMesh.hpp</text>
</a>
</g>
</g>
<!-- Node1&#45;&gt;Node23 -->
<g id="edge22" class="edge">
<title>Node1&#45;&gt;Node23</title>
<path fill="none" stroke="midnightblue" d="M2451.9,-74.59C2729.47,-70.1 3560.1,-54.97 3829.5,-31 3841.94,-29.89 3855.2,-28.25 3867.82,-26.46"/>
<polygon fill="midnightblue" stroke="midnightblue" points="3868.39,-29.91 3877.78,-25 3867.38,-22.99 3868.39,-29.91"/>
</g>
<!-- Node24 -->
<g id="node24" class="node">
<title>Node24</title>
<g id="a_node24"><a xlink:title=" ">
<polygon fill="white" stroke="#bfbfbf" points="4034.5,-6 4034.5,-25 4082.5,-25 4082.5,-6 4034.5,-6"/>
<text text-anchor="middle" x="4058.5" y="-13" font-family="Helvetica,sans-Serif" font-size="10.00">iosfwd</text>
</a>
</g>
</g>
<!-- Node1&#45;&gt;Node24 -->
<g id="edge23" class="edge">
<title>Node1&#45;&gt;Node24</title>
<path fill="none" stroke="midnightblue" d="M2451.74,-75.59C2777.49,-73.83 3872.07,-65.39 4025.5,-31 4028.01,-30.44 4030.57,-29.68 4033.09,-28.81"/>
<polygon fill="midnightblue" stroke="midnightblue" points="4034.51,-32.01 4042.48,-25.03 4031.89,-25.52 4034.51,-32.01"/>
</g>
<!-- Node25 -->
<g id="node25" class="node">
<title>Node25</title>
<g id="a_node25"><a xlink:title=" ">
<polygon fill="white" stroke="#bfbfbf" points="4100.5,-6 4100.5,-25 4210.5,-25 4210.5,-6 4100.5,-6"/>
<text text-anchor="middle" x="4155.5" y="-13" font-family="Helvetica,sans-Serif" font-size="10.00">stk_simd/Simd.hpp</text>
</a>
</g>
</g>
<!-- Node1&#45;&gt;Node25 -->
<g id="edge24" class="edge">
<title>Node1&#45;&gt;Node25</title>
<path fill="none" stroke="midnightblue" d="M2451.55,-76C2760.84,-75.61 3769.71,-71.24 4091.5,-31 4098.73,-30.1 4106.34,-28.74 4113.69,-27.21"/>
<polygon fill="midnightblue" stroke="midnightblue" points="4114.48,-30.62 4123.49,-25.05 4112.97,-23.79 4114.48,-30.62"/>
</g>
<!-- Node26 -->
<g id="node26" class="node">
<title>Node26</title>
<g id="a_node26"><a xlink:title=" ">
<polygon fill="white" stroke="#bfbfbf" points="4229,-6 4229,-25 4394,-25 4394,-6 4229,-6"/>
<text text-anchor="middle" x="4311.5" y="-13" font-family="Helvetica,sans-Serif" font-size="10.00">stk_util/util/ReportHandler.hpp</text>
</a>
</g>
</g>
<!-- Node1&#45;&gt;Node26 -->
<g id="edge25" class="edge">
<title>Node1&#45;&gt;Node26</title>
<path fill="none" stroke="midnightblue" d="M2451.66,-75.39C2775.59,-72.97 3870.35,-62.6 4219.5,-31 4231.08,-29.95 4243.42,-28.35 4255.17,-26.58"/>
<polygon fill="midnightblue" stroke="midnightblue" points="4255.98,-30 4265.32,-25 4254.9,-23.08 4255.98,-30"/>
</g>
</g>
</svg>
        <g id="navigator" transform="translate(0 0)" fill="#404254">
                <rect fill="#f2f5e9" fill-opacity="0.5" stroke="#606060" stroke-width=".5" x="0" y="0" width="60" height="60"/>
                <use id="zoomplus" xlink:href="#zoomPlus" x="17" y="9" onmousedown="handleZoom(evt,'in')"/>
                <use id="zoomminus" xlink:href="#zoomMin" x="42" y="9" onmousedown="handleZoom(evt,'out')"/>
                <use id="reset" xlink:href="#resetDef" x="30" y="36" onmousedown="handleReset()"/>
                <g id="arrowUp" xlink:href="#dirArrow" transform="translate(30 24)" onmousedown="handlePan(0,-1)">
                  <use xlink:href="#rim" fill="#404040">
                        <set attributeName="fill" to="#808080" begin="arrowUp.mouseover" end="arrowUp.mouseout"/>
                  </use>
                  <path fill="none" stroke="white" stroke-width="1.5" d="M0,-3.0v7 M-2.5,-0.5L0,-3.0L2.5,-0.5"/>
                </g>
                <g id="arrowRight" xlink:href="#dirArrow" transform="rotate(90) translate(36 -43)" onmousedown="handlePan(1,0)">
                  <use xlink:href="#rim" fill="#404040">
                        <set attributeName="fill" to="#808080" begin="arrowRight.mouseover" end="arrowRight.mouseout"/>
                  </use>
                  <path fill="none" stroke="white" stroke-width="1.5" d="M0,-3.0v7 M-2.5,-0.5L0,-3.0L2.5,-0.5"/>
                </g>
                <g id="arrowDown" xlink:href="#dirArrow" transform="rotate(180) translate(-30 -48)" onmousedown="handlePan(0,1)">
                  <use xlink:href="#rim" fill="#404040">
                        <set attributeName="fill" to="#808080" begin="arrowDown.mouseover" end="arrowDown.mouseout"/>
                  </use>
                  <path fill="none" stroke="white" stroke-width="1.5" d="M0,-3.0v7 M-2.5,-0.5L0,-3.0L2.5,-0.5"/>
                </g>
                <g id="arrowLeft" xlink:href="#dirArrow" transform="rotate(270) translate(-36 17)" onmousedown="handlePan(-1,0)">
                  <use xlink:href="#rim" fill="#404040">
                        <set attributeName="fill" to="#808080" begin="arrowLeft.mouseover" end="arrowLeft.mouseout"/>
                  </use>
                  <path fill="none" stroke="white" stroke-width="1.5" d="M0,-3.0v7 M-2.5,-0.5L0,-3.0L2.5,-0.5"/>
                </g>
        </g>
        <svg viewBox="0 0 15 15" width="100%" height="30px" preserveAspectRatio="xMaxYMin meet">
         <g id="arrow_out" transform="scale(0.3 0.3)">
          <a xlink:href="_low_mach_gathered_field_manager_8_c__incl_org.svg" target="_base">
           <rect id="button" ry="5" rx="5" y="6" x="6" height="38" width="38"
                fill="#f2f5e9" fill-opacity="0.5" stroke="#606060" stroke-width="1.0"/>
           <path id="arrow"
             d="M 11.500037,31.436501 C 11.940474,20.09759 22.043105,11.32322 32.158766,21.979434 L 37.068811,17.246167 C 37.068811,17.246167 37.088388,32 37.088388,32 L 22.160133,31.978069 C 22.160133,31.978069 26.997745,27.140456 26.997745,27.140456 C 18.528582,18.264221 13.291696,25.230495 11.500037,31.436501 z"
             style="fill:#404040;"/>
          </a>
         </g>
        </svg>
</svg>
