<?xml version="1.0" encoding="UTF-8" standalone="no"?>
<!DOCTYPE svg PUBLIC "-//W3C//DTD SVG 1.1//EN"
 "http://www.w3.org/Graphics/SVG/1.1/DTD/svg11.dtd">
<!-- Generated by graphviz version 2.43.0 (0)
 -->
<!-- Title: LowMachFields.C Pages: 1 -->
<svg width="1942pt" height="95pt"
 viewBox="0.00 0.00 1942.00 95.00" xmlns="http://www.w3.org/2000/svg" xmlns:xlink="http://www.w3.org/1999/xlink">
<g id="graph0" class="graph" transform="scale(1 1) rotate(0) translate(4 91)">
<title>LowMachFields.C</title>
<polygon fill="white" stroke="transparent" points="-4,4 -4,-91 1938,-91 1938,4 -4,4"/>
<!-- Node1 -->
<g id="node1" class="node">
<title>Node1</title>
<g id="a_node1"><a xlink:title=" ">
<polygon fill="#bfbfbf" stroke="black" points="897.5,-67.5 897.5,-86.5 998.5,-86.5 998.5,-67.5 897.5,-67.5"/>
<text text-anchor="middle" x="948" y="-74.5" font-family="Helvetica,sans-Serif" font-size="10.00">LowMachFields.C</text>
</a>
</g>
</g>
<!-- Node2 -->
<g id="node2" class="node">
<title>Node2</title>
<g id="a_node2"><a xlink:title=" ">
<polygon fill="white" stroke="#bfbfbf" points="0,-6 0,-25 160,-25 160,-6 0,-6"/>
<text text-anchor="middle" x="80" y="-13" font-family="Helvetica,sans-Serif" font-size="10.00">matrix_free/LowMachFields.h</text>
</a>
</g>
</g>
<!-- Node1&#45;&gt;Node2 -->
<g id="edge1" class="edge">
<title>Node1&#45;&gt;Node2</title>
<path fill="none" stroke="midnightblue" d="M897.27,-74.89C772.83,-71.78 442.69,-61.12 169,-31 158.5,-29.85 147.36,-28.29 136.64,-26.63"/>
<polygon fill="midnightblue" stroke="midnightblue" points="136.95,-23.14 126.53,-25.02 135.85,-30.05 136.95,-23.14"/>
</g>
<!-- Node3 -->
<g id="node3" class="node">
<title>Node3</title>
<g id="a_node3"><a xlink:title=" ">
<polygon fill="white" stroke="#bfbfbf" points="178.5,-6 178.5,-25 351.5,-25 351.5,-6 178.5,-6"/>
<text text-anchor="middle" x="265" y="-13" font-family="Helvetica,sans-Serif" font-size="10.00">matrix_free/PolynomialOrders.h</text>
</a>
</g>
</g>
<!-- Node1&#45;&gt;Node3 -->
<g id="edge2" class="edge">
<title>Node1&#45;&gt;Node3</title>
<path fill="none" stroke="midnightblue" d="M897.15,-73.4C795.08,-67.89 558.1,-53.67 360,-31 349.09,-29.75 337.5,-28.19 326.31,-26.55"/>
<polygon fill="midnightblue" stroke="midnightblue" points="326.59,-23.05 316.18,-25.03 325.55,-29.97 326.59,-23.05"/>
</g>
<!-- Node4 -->
<g id="node4" class="node">
<title>Node4</title>
<g id="a_node4"><a xlink:title=" ">
<polygon fill="white" stroke="#bfbfbf" points="369.5,-0.5 369.5,-30.5 524.5,-30.5 524.5,-0.5 369.5,-0.5"/>
<text text-anchor="start" x="377.5" y="-18.5" font-family="Helvetica,sans-Serif" font-size="10.00">matrix_free/LinearAdvection</text>
<text text-anchor="middle" x="447" y="-7.5" font-family="Helvetica,sans-Serif" font-size="10.00">Metric.h</text>
</a>
</g>
</g>
<!-- Node1&#45;&gt;Node4 -->
<g id="edge3" class="edge">
<title>Node1&#45;&gt;Node4</title>
<path fill="none" stroke="midnightblue" d="M897.41,-71.49C821.05,-64.46 671.54,-49.87 535.01,-31.23"/>
<polygon fill="midnightblue" stroke="midnightblue" points="535.17,-27.72 524.78,-29.83 534.21,-34.66 535.17,-27.72"/>
</g>
<!-- Node5 -->
<g id="node5" class="node">
<title>Node5</title>
<g id="a_node5"><a xlink:title=" ">
<polygon fill="white" stroke="#bfbfbf" points="542.5,-6 542.5,-25 685.5,-25 685.5,-6 542.5,-6"/>
<text text-anchor="middle" x="614" y="-13" font-family="Helvetica,sans-Serif" font-size="10.00">matrix_free/LinearAreas.h</text>
</a>
</g>
</g>
<!-- Node1&#45;&gt;Node5 -->
<g id="edge4" class="edge">
<title>Node1&#45;&gt;Node5</title>
<path fill="none" stroke="midnightblue" d="M899.97,-67.47C849.07,-58.43 766.37,-43.73 695,-31 687.39,-29.64 679.37,-28.21 671.46,-26.79"/>
<polygon fill="midnightblue" stroke="midnightblue" points="672,-23.34 661.54,-25.02 670.77,-30.23 672,-23.34"/>
</g>
<!-- Node6 -->
<g id="node6" class="node">
<title>Node6</title>
<g id="a_node6"><a xlink:title=" ">
<polygon fill="white" stroke="#bfbfbf" points="704,-0.5 704,-30.5 854,-30.5 854,-0.5 704,-0.5"/>
<text text-anchor="start" x="712" y="-18.5" font-family="Helvetica,sans-Serif" font-size="10.00">matrix_free/LinearDiffusion</text>
<text text-anchor="middle" x="779" y="-7.5" font-family="Helvetica,sans-Serif" font-size="10.00">Metric.h</text>
</a>
</g>
</g>
<!-- Node1&#45;&gt;Node6 -->
<g id="edge5" class="edge">
<title>Node1&#45;&gt;Node6</title>
<path fill="none" stroke="midnightblue" d="M923.79,-67.48C898.97,-58.74 859.69,-44.91 828.29,-33.86"/>
<polygon fill="midnightblue" stroke="midnightblue" points="829.42,-30.54 818.83,-30.52 827.1,-37.15 829.42,-30.54"/>
</g>
<!-- Node7 -->
<g id="node7" class="node">
<title>Node7</title>
<g id="a_node7"><a xlink:title=" ">
<polygon fill="white" stroke="#bfbfbf" points="872,-6 872,-25 1024,-25 1024,-6 872,-6"/>
<text text-anchor="middle" x="948" y="-13" font-family="Helvetica,sans-Serif" font-size="10.00">matrix_free/LinearVolume.h</text>
</a>
</g>
</g>
<!-- Node1&#45;&gt;Node7 -->
<g id="edge6" class="edge">
<title>Node1&#45;&gt;Node7</title>
<path fill="none" stroke="midnightblue" d="M948,-67.48C948,-59.08 948,-45.98 948,-35.16"/>
<polygon fill="midnightblue" stroke="midnightblue" points="951.5,-35.01 948,-25.01 944.5,-35.01 951.5,-35.01"/>
</g>
<!-- Node8 -->
<g id="node8" class="node">
<title>Node8</title>
<g id="a_node8"><a xlink:title=" ">
<polygon fill="white" stroke="#bfbfbf" points="1042,-6 1042,-25 1192,-25 1192,-6 1042,-6"/>
<text text-anchor="middle" x="1117" y="-13" font-family="Helvetica,sans-Serif" font-size="10.00">matrix_free/LowMachInfo.h</text>
</a>
</g>
</g>
<!-- Node1&#45;&gt;Node8 -->
<g id="edge7" class="edge">
<title>Node1&#45;&gt;Node8</title>
<path fill="none" stroke="midnightblue" d="M972.21,-67.48C1001.33,-57.22 1050.37,-39.96 1083.2,-28.4"/>
<polygon fill="midnightblue" stroke="midnightblue" points="1084.56,-31.63 1092.83,-25.01 1082.24,-25.03 1084.56,-31.63"/>
</g>
<!-- Node9 -->
<g id="node9" class="node">
<title>Node9</title>
<g id="a_node9"><a xlink:title=" ">
<polygon fill="white" stroke="#bfbfbf" points="1210,-0.5 1210,-30.5 1372,-30.5 1372,-0.5 1210,-0.5"/>
<text text-anchor="start" x="1218" y="-18.5" font-family="Helvetica,sans-Serif" font-size="10.00">matrix_free/StkSimdGathered</text>
<text text-anchor="middle" x="1291" y="-7.5" font-family="Helvetica,sans-Serif" font-size="10.00">ElementData.h</text>
</a>
</g>
</g>
<!-- Node1&#45;&gt;Node9 -->
<g id="edge8" class="edge">
<title>Node1&#45;&gt;Node9</title>
<path fill="none" stroke="midnightblue" d="M997.14,-67.48C1050,-58.31 1135.22,-43.52 1200.3,-32.23"/>
<polygon fill="midnightblue" stroke="midnightblue" points="1200.91,-35.68 1210.16,-30.52 1199.71,-28.78 1200.91,-35.68"/>
</g>
<!-- Node10 -->
<g id="node10" class="node">
<title>Node10</title>
<g id="a_node10"><a xlink:title=" ">
<polygon fill="white" stroke="#bfbfbf" points="1390,-6 1390,-25 1562,-25 1562,-6 1390,-6"/>
<text text-anchor="middle" x="1476" y="-13" font-family="Helvetica,sans-Serif" font-size="10.00">matrix_free/KokkosViewTypes.h</text>
</a>
</g>
</g>
<!-- Node1&#45;&gt;Node10 -->
<g id="edge9" class="edge">
<title>Node1&#45;&gt;Node10</title>
<path fill="none" stroke="midnightblue" d="M998.75,-71.52C1079.72,-64.19 1243.06,-48.68 1381,-31 1391.41,-29.67 1402.44,-28.11 1413.15,-26.53"/>
<polygon fill="midnightblue" stroke="midnightblue" points="1413.93,-29.95 1423.3,-25 1412.89,-23.03 1413.93,-29.95"/>
</g>
<!-- Node11 -->
<g id="node11" class="node">
<title>Node11</title>
<g id="a_node11"><a xlink:title=" ">
<polygon fill="white" stroke="#bfbfbf" points="1580,-6 1580,-25 1754,-25 1754,-6 1580,-6"/>
<text text-anchor="middle" x="1667" y="-13" font-family="Helvetica,sans-Serif" font-size="10.00">stk_mesh/base/GetNgpField.hpp</text>
</a>
</g>
</g>
<!-- Node1&#45;&gt;Node11 -->
<g id="edge10" class="edge">
<title>Node1&#45;&gt;Node11</title>
<path fill="none" stroke="midnightblue" d="M998.59,-73.68C1104.85,-68.52 1358.95,-54.64 1571,-31 1582.14,-29.76 1593.98,-28.18 1605.39,-26.53"/>
<polygon fill="midnightblue" stroke="midnightblue" points="1605.9,-29.99 1615.28,-25.07 1604.88,-23.07 1605.9,-29.99"/>
</g>
<!-- Node12 -->
<g id="node12" class="node">
<title>Node12</title>
<g id="a_node12"><a xlink:title=" ">
<polygon fill="white" stroke="#bfbfbf" points="1772,-6 1772,-25 1934,-25 1934,-6 1772,-6"/>
<text text-anchor="middle" x="1853" y="-13" font-family="Helvetica,sans-Serif" font-size="10.00">stk_mesh/base/MetaData.hpp</text>
</a>
</g>
</g>
<!-- Node1&#45;&gt;Node12 -->
<g id="edge11" class="edge">
<title>Node1&#45;&gt;Node12</title>
<path fill="none" stroke="midnightblue" d="M998.7,-75.04C1127,-72.22 1474.88,-62.08 1763,-31 1773.72,-29.84 1785.11,-28.28 1796.06,-26.6"/>
<polygon fill="midnightblue" stroke="midnightblue" points="1796.62,-30.05 1805.95,-25.03 1795.52,-23.14 1796.62,-30.05"/>
</g>
</g>
</svg>
