<?xml version="1.0" encoding="UTF-8" standalone="no"?>
<!DOCTYPE svg PUBLIC "-//W3C//DTD SVG 1.1//EN"
 "http://www.w3.org/Graphics/SVG/1.1/DTD/svg11.dtd">
<!-- Generated by graphviz version 2.43.0 (0)
 -->
<!-- Title: LowMachUpdate.C Pages: 1 -->
<svg width="2044pt" height="95pt"
 viewBox="0.00 0.00 2044.00 95.00" xmlns="http://www.w3.org/2000/svg" xmlns:xlink="http://www.w3.org/1999/xlink">
<g id="graph0" class="graph" transform="scale(1 1) rotate(0) translate(4 91)">
<title>LowMachUpdate.C</title>
<polygon fill="white" stroke="transparent" points="-4,4 -4,-91 2040,-91 2040,4 -4,4"/>
<!-- Node1 -->
<g id="node1" class="node">
<title>Node1</title>
<g id="a_node1"><a xlink:title=" ">
<polygon fill="#bfbfbf" stroke="black" points="972,-67.5 972,-86.5 1079,-86.5 1079,-67.5 972,-67.5"/>
<text text-anchor="middle" x="1025.5" y="-74.5" font-family="Helvetica,sans-Serif" font-size="10.00">LowMachUpdate.C</text>
</a>
</g>
</g>
<!-- Node2 -->
<g id="node2" class="node">
<title>Node2</title>
<g id="a_node2"><a xlink:title=" ">
<polygon fill="white" stroke="#bfbfbf" points="0,-6 0,-25 167,-25 167,-6 0,-6"/>
<text text-anchor="middle" x="83.5" y="-13" font-family="Helvetica,sans-Serif" font-size="10.00">matrix_free/LowMachUpdate.h</text>
</a>
</g>
</g>
<!-- Node1&#45;&gt;Node2 -->
<g id="edge1" class="edge">
<title>Node1&#45;&gt;Node2</title>
<path fill="none" stroke="midnightblue" d="M971.71,-75.05C837.29,-72.25 475.99,-62.2 176.5,-31 165.43,-29.85 153.66,-28.28 142.35,-26.6"/>
<polygon fill="midnightblue" stroke="midnightblue" points="142.54,-23.09 132.13,-25.04 141.48,-30.01 142.54,-23.09"/>
</g>
<!-- Node3 -->
<g id="node3" class="node">
<title>Node3</title>
<g id="a_node3"><a xlink:title=" ">
<polygon fill="white" stroke="#bfbfbf" points="185.5,-6 185.5,-25 375.5,-25 375.5,-6 185.5,-6"/>
<text text-anchor="middle" x="280.5" y="-13" font-family="Helvetica,sans-Serif" font-size="10.00">matrix_free/MaxCourantReynolds.h</text>
</a>
</g>
</g>
<!-- Node1&#45;&gt;Node3 -->
<g id="edge2" class="edge">
<title>Node1&#45;&gt;Node3</title>
<path fill="none" stroke="midnightblue" d="M971.79,-73.47C861.52,-68.01 601.69,-53.74 384.5,-31 372.2,-29.71 359.11,-28.09 346.52,-26.4"/>
<polygon fill="midnightblue" stroke="midnightblue" points="346.93,-22.92 336.55,-25.03 345.98,-29.86 346.93,-22.92"/>
</g>
<!-- Node4 -->
<g id="node4" class="node">
<title>Node4</title>
<g id="a_node4"><a xlink:title=" ">
<polygon fill="white" stroke="#bfbfbf" points="393.5,-6 393.5,-25 543.5,-25 543.5,-6 393.5,-6"/>
<text text-anchor="middle" x="468.5" y="-13" font-family="Helvetica,sans-Serif" font-size="10.00">matrix_free/LowMachInfo.h</text>
</a>
</g>
</g>
<!-- Node1&#45;&gt;Node4 -->
<g id="edge3" class="edge">
<title>Node1&#45;&gt;Node4</title>
<path fill="none" stroke="midnightblue" d="M971.79,-72.23C883.9,-65.76 703.96,-51.25 552.5,-31 543.34,-29.78 533.66,-28.29 524.25,-26.73"/>
<polygon fill="midnightblue" stroke="midnightblue" points="524.62,-23.25 514.18,-25.03 523.46,-30.15 524.62,-23.25"/>
</g>
<!-- Node5 -->
<g id="node5" class="node">
<title>Node5</title>
<g id="a_node5"><a xlink:title=" ">
<polygon fill="white" stroke="#bfbfbf" points="562,-6 562,-25 735,-25 735,-6 562,-6"/>
<text text-anchor="middle" x="648.5" y="-13" font-family="Helvetica,sans-Serif" font-size="10.00">matrix_free/PolynomialOrders.h</text>
</a>
</g>
</g>
<!-- Node1&#45;&gt;Node5 -->
<g id="edge4" class="edge">
<title>Node1&#45;&gt;Node5</title>
<path fill="none" stroke="midnightblue" d="M971.89,-67.54C903.54,-56.75 785.52,-38.13 712.53,-26.61"/>
<polygon fill="midnightblue" stroke="midnightblue" points="712.96,-23.13 702.54,-25.03 711.87,-30.05 712.96,-23.13"/>
</g>
<!-- Node6 -->
<g id="node6" class="node">
<title>Node6</title>
<g id="a_node6"><a xlink:title=" ">
<polygon fill="white" stroke="#bfbfbf" points="753.5,-6 753.5,-25 917.5,-25 917.5,-6 753.5,-6"/>
<text text-anchor="middle" x="835.5" y="-13" font-family="Helvetica,sans-Serif" font-size="10.00">matrix_free/StkToTpetraMap.h</text>
</a>
</g>
</g>
<!-- Node1&#45;&gt;Node6 -->
<g id="edge5" class="edge">
<title>Node1&#45;&gt;Node6</title>
<path fill="none" stroke="midnightblue" d="M998.28,-67.48C965.26,-57.14 909.46,-39.66 872.55,-28.1"/>
<polygon fill="midnightblue" stroke="midnightblue" points="873.26,-24.66 862.67,-25.01 871.17,-31.34 873.26,-24.66"/>
</g>
<!-- Node7 -->
<g id="node7" class="node">
<title>Node7</title>
<g id="a_node7"><a xlink:title=" ">
<polygon fill="white" stroke="#bfbfbf" points="936,-0.5 936,-30.5 1115,-30.5 1115,-0.5 936,-0.5"/>
<text text-anchor="start" x="944" y="-18.5" font-family="Helvetica,sans-Serif" font-size="10.00">matrix_free/StkSimdConnectivity</text>
<text text-anchor="middle" x="1025.5" y="-7.5" font-family="Helvetica,sans-Serif" font-size="10.00">Map.h</text>
</a>
</g>
</g>
<!-- Node1&#45;&gt;Node7 -->
<g id="edge6" class="edge">
<title>Node1&#45;&gt;Node7</title>
<path fill="none" stroke="midnightblue" d="M1025.5,-67.48C1025.5,-60.47 1025.5,-50.19 1025.5,-40.7"/>
<polygon fill="midnightblue" stroke="midnightblue" points="1029,-40.52 1025.5,-30.52 1022,-40.52 1029,-40.52"/>
</g>
<!-- Node8 -->
<g id="node8" class="node">
<title>Node8</title>
<g id="a_node8"><a xlink:title=" ">
<polygon fill="white" stroke="#bfbfbf" points="1133.5,-0.5 1133.5,-30.5 1333.5,-30.5 1333.5,-0.5 1133.5,-0.5"/>
<text text-anchor="start" x="1141.5" y="-18.5" font-family="Helvetica,sans-Serif" font-size="10.00">matrix_free/StkSimdFaceConnectivity</text>
<text text-anchor="middle" x="1233.5" y="-7.5" font-family="Helvetica,sans-Serif" font-size="10.00">Map.h</text>
</a>
</g>
</g>
<!-- Node1&#45;&gt;Node8 -->
<g id="edge7" class="edge">
<title>Node1&#45;&gt;Node8</title>
<path fill="none" stroke="midnightblue" d="M1055.3,-67.48C1086.37,-58.59 1135.87,-44.43 1174.82,-33.29"/>
<polygon fill="midnightblue" stroke="midnightblue" points="1175.83,-36.64 1184.48,-30.52 1173.9,-29.91 1175.83,-36.64"/>
</g>
<!-- Node9 -->
<g id="node9" class="node">
<title>Node9</title>
<g id="a_node9"><a xlink:title=" ">
<polygon fill="white" stroke="#bfbfbf" points="1351.5,-0.5 1351.5,-30.5 1555.5,-30.5 1555.5,-0.5 1351.5,-0.5"/>
<text text-anchor="start" x="1359.5" y="-18.5" font-family="Helvetica,sans-Serif" font-size="10.00">matrix_free/StkSimdNodeConnectivity</text>
<text text-anchor="middle" x="1453.5" y="-7.5" font-family="Helvetica,sans-Serif" font-size="10.00">Map.h</text>
</a>
</g>
</g>
<!-- Node1&#45;&gt;Node9 -->
<g id="edge8" class="edge">
<title>Node1&#45;&gt;Node9</title>
<path fill="none" stroke="midnightblue" d="M1079.27,-68.52C1145.03,-59.38 1258.03,-43.67 1342.69,-31.9"/>
<polygon fill="midnightblue" stroke="midnightblue" points="1343.19,-35.37 1352.61,-30.53 1342.22,-28.44 1343.19,-35.37"/>
</g>
<!-- Node10 -->
<g id="node10" class="node">
<title>Node10</title>
<g id="a_node10"><a xlink:title=" ">
<polygon fill="white" stroke="#bfbfbf" points="1573,-6 1573,-25 1722,-25 1722,-6 1573,-6"/>
<text text-anchor="middle" x="1647.5" y="-13" font-family="Helvetica,sans-Serif" font-size="10.00">Teuchos_ParameterList.hpp</text>
</a>
</g>
</g>
<!-- Node1&#45;&gt;Node10 -->
<g id="edge9" class="edge">
<title>Node1&#45;&gt;Node10</title>
<path fill="none" stroke="midnightblue" d="M1079.22,-73.11C1176.36,-67.54 1387.55,-53.8 1564.5,-31 1573.66,-29.82 1583.36,-28.34 1592.76,-26.78"/>
<polygon fill="midnightblue" stroke="midnightblue" points="1593.54,-30.2 1602.81,-25.06 1592.37,-23.29 1593.54,-30.2"/>
</g>
<!-- Node11 -->
<g id="node11" class="node">
<title>Node11</title>
<g id="a_node11"><a xlink:title=" ">
<polygon fill="white" stroke="#bfbfbf" points="1740.5,-6 1740.5,-25 1840.5,-25 1840.5,-6 1740.5,-6"/>
<text text-anchor="middle" x="1790.5" y="-13" font-family="Helvetica,sans-Serif" font-size="10.00">Teuchos_RCP.hpp</text>
</a>
</g>
</g>
<!-- Node1&#45;&gt;Node11 -->
<g id="edge10" class="edge">
<title>Node1&#45;&gt;Node11</title>
<path fill="none" stroke="midnightblue" d="M1079.43,-75.81C1198.05,-74.69 1490.23,-68.04 1731.5,-31 1737.51,-30.08 1743.81,-28.83 1749.96,-27.46"/>
<polygon fill="midnightblue" stroke="midnightblue" points="1751.16,-30.77 1760.09,-25.07 1749.55,-23.96 1751.16,-30.77"/>
</g>
<!-- Node12 -->
<g id="node12" class="node">
<title>Node12</title>
<g id="a_node12"><a xlink:title=" ">
<polygon fill="white" stroke="#bfbfbf" points="1859,-6 1859,-25 2036,-25 2036,-6 1859,-6"/>
<text text-anchor="middle" x="1947.5" y="-13" font-family="Helvetica,sans-Serif" font-size="10.00">stk_mesh/base/GetNgpMesh.hpp</text>
</a>
</g>
</g>
<!-- Node1&#45;&gt;Node12 -->
<g id="edge11" class="edge">
<title>Node1&#45;&gt;Node12</title>
<path fill="none" stroke="midnightblue" d="M1079.14,-74.79C1210.7,-71.43 1559.78,-60.28 1849.5,-31 1861.33,-29.8 1873.92,-28.2 1885.99,-26.49"/>
<polygon fill="midnightblue" stroke="midnightblue" points="1886.6,-29.94 1895.99,-25.03 1885.59,-23.01 1886.6,-29.94"/>
</g>
</g>
</svg>
