<?xml version="1.0" encoding="UTF-8" standalone="no"?>
<!DOCTYPE svg PUBLIC "-//W3C//DTD SVG 1.1//EN"
 "http://www.w3.org/Graphics/SVG/1.1/DTD/svg11.dtd">
<!-- Generated by graphviz version 2.43.0 (0)
 -->
<!-- Title: MapLoad.C Pages: 1 -->
<svg width="698pt" height="95pt"
 viewBox="0.00 0.00 698.00 95.00" xmlns="http://www.w3.org/2000/svg" xmlns:xlink="http://www.w3.org/1999/xlink">
<g id="graph0" class="graph" transform="scale(1 1) rotate(0) translate(4 91)">
<title>MapLoad.C</title>
<polygon fill="white" stroke="transparent" points="-4,4 -4,-91 694,-91 694,4 -4,4"/>
<!-- Node1 -->
<g id="node1" class="node">
<title>Node1</title>
<g id="a_node1"><a xlink:title=" ">
<polygon fill="#bfbfbf" stroke="black" points="273.5,-67.5 273.5,-86.5 344.5,-86.5 344.5,-67.5 273.5,-67.5"/>
<text text-anchor="middle" x="309" y="-74.5" font-family="Helvetica,sans-Serif" font-size="10.00">MapLoad.C</text>
</a>
</g>
</g>
<!-- Node2 -->
<g id="node2" class="node">
<title>Node2</title>
<g id="a_node2"><a xlink:title=" ">
<polygon fill="white" stroke="#bfbfbf" points="0,-6 0,-25 110,-25 110,-6 0,-6"/>
<text text-anchor="middle" x="55" y="-13" font-family="Helvetica,sans-Serif" font-size="10.00">aero/fsi/MapLoad.h</text>
</a>
</g>
</g>
<!-- Node1&#45;&gt;Node2 -->
<g id="edge1" class="edge">
<title>Node1&#45;&gt;Node2</title>
<path fill="none" stroke="midnightblue" d="M273.41,-67.66C228.45,-57.13 150.97,-38.98 101.41,-27.37"/>
<polygon fill="midnightblue" stroke="midnightblue" points="102.11,-23.94 91.58,-25.07 100.52,-30.76 102.11,-23.94"/>
</g>
<!-- Node3 -->
<g id="node3" class="node">
<title>Node3</title>
<g id="a_node3"><a xlink:title=" ">
<polygon fill="white" stroke="#bfbfbf" points="128,-6 128,-25 296,-25 296,-6 128,-6"/>
<text text-anchor="middle" x="212" y="-13" font-family="Helvetica,sans-Serif" font-size="10.00">aero/aero_utils/ForceMoment.h</text>
</a>
</g>
</g>
<!-- Node1&#45;&gt;Node3 -->
<g id="edge2" class="edge">
<title>Node1&#45;&gt;Node3</title>
<path fill="none" stroke="midnightblue" d="M295.1,-67.48C279.33,-57.8 253.36,-41.87 234.65,-30.39"/>
<polygon fill="midnightblue" stroke="midnightblue" points="236.23,-27.25 225.87,-25.01 232.57,-33.22 236.23,-27.25"/>
</g>
<!-- Node4 -->
<g id="node4" class="node">
<title>Node4</title>
<g id="a_node4"><a xlink:title=" ">
<polygon fill="white" stroke="#bfbfbf" points="314.5,-6 314.5,-25 497.5,-25 497.5,-6 314.5,-6"/>
<text text-anchor="middle" x="406" y="-13" font-family="Helvetica,sans-Serif" font-size="10.00">master_element/MasterElement.h</text>
</a>
</g>
</g>
<!-- Node1&#45;&gt;Node4 -->
<g id="edge3" class="edge">
<title>Node1&#45;&gt;Node4</title>
<path fill="none" stroke="midnightblue" d="M322.9,-67.48C338.67,-57.8 364.64,-41.87 383.35,-30.39"/>
<polygon fill="midnightblue" stroke="midnightblue" points="385.43,-33.22 392.13,-25.01 381.77,-27.25 385.43,-33.22"/>
</g>
<!-- Node5 -->
<g id="node5" class="node">
<title>Node5</title>
<g id="a_node5"><a xlink:title=" ">
<polygon fill="white" stroke="#bfbfbf" points="516,-0.5 516,-30.5 690,-30.5 690,-0.5 516,-0.5"/>
<text text-anchor="start" x="524" y="-18.5" font-family="Helvetica,sans-Serif" font-size="10.00">master_element/MasterElement</text>
<text text-anchor="middle" x="603" y="-7.5" font-family="Helvetica,sans-Serif" font-size="10.00">Repo.h</text>
</a>
</g>
</g>
<!-- Node1&#45;&gt;Node5 -->
<g id="edge4" class="edge">
<title>Node1&#45;&gt;Node5</title>
<path fill="none" stroke="midnightblue" d="M344.76,-68.76C388.95,-59.82 465.45,-44.34 523.75,-32.54"/>
<polygon fill="midnightblue" stroke="midnightblue" points="524.57,-35.94 533.68,-30.53 523.18,-29.08 524.57,-35.94"/>
</g>
</g>
</svg>
