<?xml version="1.0" encoding="UTF-8" standalone="no"?>
<!DOCTYPE svg PUBLIC "-//W3C//DTD SVG 1.1//EN"
 "http://www.w3.org/Graphics/SVG/1.1/DTD/svg11.dtd">
<!-- Generated by graphviz version 2.43.0 (0)
 -->
<!-- Title: MasterElementRepo.C Pages: 1 -->
<!--zoomable 95 -->
<svg id="main" version="1.1" xmlns="http://www.w3.org/2000/svg" xmlns:xlink="http://www.w3.org/1999/xlink" xml:space="preserve" onload="init(evt)">
<style type="text/css"><![CDATA[
.edge:hover path { stroke: red; }
.edge:hover polygon { stroke: red; fill: red; }
]]></style>
<script type="text/javascript"><![CDATA[
var edges = document.getElementsByTagName('g');
if (edges && edges.length) {
  for (var i=0;i<edges.length;i++) {
    if (edges[i].id.substr(0,4)=='edge') {
      edges[i].setAttribute('class','edge');
    }
  }
}
]]></script>
        <defs>
                <circle id="rim" cx="0" cy="0" r="7"/>
                <circle id="rim2" cx="0" cy="0" r="3.5"/>
                <g id="zoomPlus">
                        <use xlink:href="#rim" fill="#404040">
                                <set attributeName="fill" to="#808080" begin="zoomplus.mouseover" end="zoomplus.mouseout"/>
                        </use>
                        <path d="M-4,0h8M0,-4v8" fill="none" stroke="white" stroke-width="1.5" pointer-events="none"/>
                </g>
                <g id="zoomMin">
                        <use xlink:href="#rim" fill="#404040">
                                <set attributeName="fill" to="#808080" begin="zoomminus.mouseover" end="zoomminus.mouseout"/>
                        </use>
                        <path d="M-4,0h8" fill="none" stroke="white" stroke-width="1.5" pointer-events="none"/>
                </g>
                <g id="dirArrow">
                        <path fill="none" stroke="white" stroke-width="1.5" d="M0,-3.0v7 M-2.5,-0.5L0,-3.0L2.5,-0.5"/>
                </g>
               <g id="resetDef">
                       <use xlink:href="#rim2" fill="#404040">
                               <set attributeName="fill" to="#808080" begin="reset.mouseover" end="reset.mouseout"/>
                       </use>
               </g>
        </defs>

<script type="text/javascript">
var viewWidth = 2963;
var viewHeight = 95;
var sectionId = 'dynsection-0';
</script>
<script xlink:href="svgpan.js"/>
<svg id="graph" class="graph">
<g id="viewport">
<title>MasterElementRepo.C</title>
<polygon fill="white" stroke="transparent" points="-4,4 -4,-91 2959,-91 2959,4 -4,4"/>
<!-- Node1 -->
<g id="node1" class="node">
<title>Node1</title>
<g id="a_node1"><a xlink:title=" ">
<polygon fill="#bfbfbf" stroke="black" points="1670.5,-67.5 1670.5,-86.5 1795.5,-86.5 1795.5,-67.5 1670.5,-67.5"/>
<text text-anchor="middle" x="1733" y="-74.5" font-family="Helvetica,sans-Serif" font-size="10.00">MasterElementRepo.C</text>
</a>
</g>
</g>
<!-- Node2 -->
<g id="node2" class="node">
<title>Node2</title>
<g id="a_node2"><a xlink:title=" ">
<polygon fill="white" stroke="#bfbfbf" points="0,-0.5 0,-30.5 174,-30.5 174,-0.5 0,-0.5"/>
<text text-anchor="start" x="8" y="-18.5" font-family="Helvetica,sans-Serif" font-size="10.00">master_element/MasterElement</text>
<text text-anchor="middle" x="87" y="-7.5" font-family="Helvetica,sans-Serif" font-size="10.00">Repo.h</text>
</a>
</g>
</g>
<!-- Node1&#45;&gt;Node2 -->
<g id="edge1" class="edge">
<title>Node1&#45;&gt;Node2</title>
<path fill="none" stroke="midnightblue" d="M1670.19,-75.19C1420.81,-71.82 499.21,-57.87 184.11,-31"/>
<polygon fill="midnightblue" stroke="midnightblue" points="184.33,-27.51 174.07,-30.12 183.72,-34.48 184.33,-27.51"/>
</g>
<!-- Node3 -->
<g id="node3" class="node">
<title>Node3</title>
<g id="a_node3"><a xlink:title=" ">
<polygon fill="white" stroke="#bfbfbf" points="192.5,-6 192.5,-25 375.5,-25 375.5,-6 192.5,-6"/>
<text text-anchor="middle" x="284" y="-13" font-family="Helvetica,sans-Serif" font-size="10.00">master_element/MasterElement.h</text>
</a>
</g>
</g>
<!-- Node1&#45;&gt;Node3 -->
<g id="edge2" class="edge">
<title>Node1&#45;&gt;Node3</title>
<path fill="none" stroke="midnightblue" d="M1670.32,-76.37C1477.81,-76.98 878.25,-74.94 384,-31 371.38,-29.88 357.93,-28.24 345.11,-26.46"/>
<polygon fill="midnightblue" stroke="midnightblue" points="345.4,-22.96 335,-25.01 344.4,-29.89 345.4,-22.96"/>
</g>
<!-- Node4 -->
<g id="node4" class="node">
<title>Node4</title>
<g id="a_node4"><a xlink:title=" ">
<polygon fill="white" stroke="#bfbfbf" points="393.5,-6 393.5,-25 562.5,-25 562.5,-6 393.5,-6"/>
<text text-anchor="middle" x="478" y="-13" font-family="Helvetica,sans-Serif" font-size="10.00">master_element/Hex8CVFEM.h</text>
</a>
</g>
</g>
<!-- Node1&#45;&gt;Node4 -->
<g id="edge3" class="edge">
<title>Node1&#45;&gt;Node4</title>
<path fill="none" stroke="midnightblue" d="M1670.22,-76.08C1495.66,-75.78 989.89,-71.2 572,-31 560.43,-29.89 548.12,-28.29 536.35,-26.56"/>
<polygon fill="midnightblue" stroke="midnightblue" points="536.58,-23.06 526.17,-25.01 535.53,-29.98 536.58,-23.06"/>
</g>
<!-- Node5 -->
<g id="node5" class="node">
<title>Node5</title>
<g id="a_node5"><a xlink:title=" ">
<polygon fill="white" stroke="#bfbfbf" points="581,-6 581,-25 745,-25 745,-6 581,-6"/>
<text text-anchor="middle" x="663" y="-13" font-family="Helvetica,sans-Serif" font-size="10.00">master_element/Tet4CVFEM.h</text>
</a>
</g>
</g>
<!-- Node1&#45;&gt;Node5 -->
<g id="edge4" class="edge">
<title>Node1&#45;&gt;Node5</title>
<path fill="none" stroke="midnightblue" d="M1670.4,-75.55C1514.93,-73.91 1098.87,-66.29 754,-31 743.03,-29.88 731.38,-28.31 720.2,-26.62"/>
<polygon fill="midnightblue" stroke="midnightblue" points="720.52,-23.12 710.1,-25.03 719.44,-30.04 720.52,-23.12"/>
</g>
<!-- Node6 -->
<g id="node6" class="node">
<title>Node6</title>
<g id="a_node6"><a xlink:title=" ">
<polygon fill="white" stroke="#bfbfbf" points="763.5,-6 763.5,-25 928.5,-25 928.5,-6 763.5,-6"/>
<text text-anchor="middle" x="846" y="-13" font-family="Helvetica,sans-Serif" font-size="10.00">master_element/Pyr5CVFEM.h</text>
</a>
</g>
</g>
<!-- Node1&#45;&gt;Node6 -->
<g id="edge5" class="edge">
<title>Node1&#45;&gt;Node6</title>
<path fill="none" stroke="midnightblue" d="M1670.47,-74.58C1536.08,-71.07 1209.83,-60.04 938,-31 927.04,-29.83 915.4,-28.25 904.22,-26.57"/>
<polygon fill="midnightblue" stroke="midnightblue" points="904.52,-23.08 894.1,-25.01 903.45,-30 904.52,-23.08"/>
</g>
<!-- Node7 -->
<g id="node7" class="node">
<title>Node7</title>
<g id="a_node7"><a xlink:title=" ">
<polygon fill="white" stroke="#bfbfbf" points="947,-6 947,-25 1117,-25 1117,-6 947,-6"/>
<text text-anchor="middle" x="1032" y="-13" font-family="Helvetica,sans-Serif" font-size="10.00">master_element/Wed6CVFEM.h</text>
</a>
</g>
</g>
<!-- Node1&#45;&gt;Node7 -->
<g id="edge6" class="edge">
<title>Node1&#45;&gt;Node7</title>
<path fill="none" stroke="midnightblue" d="M1670.37,-72.99C1560.09,-67.33 1324.17,-53.59 1126,-31 1115.2,-29.77 1103.73,-28.21 1092.66,-26.58"/>
<polygon fill="midnightblue" stroke="midnightblue" points="1093.05,-23.1 1082.64,-25.06 1092,-30.02 1093.05,-23.1"/>
</g>
<!-- Node8 -->
<g id="node8" class="node">
<title>Node8</title>
<g id="a_node8"><a xlink:title=" ">
<polygon fill="white" stroke="#bfbfbf" points="1135,-6 1135,-25 1323,-25 1323,-6 1135,-6"/>
<text text-anchor="middle" x="1229" y="-13" font-family="Helvetica,sans-Serif" font-size="10.00">master_element/Quad43DCVFEM.h</text>
</a>
</g>
</g>
<!-- Node1&#45;&gt;Node8 -->
<g id="edge7" class="edge">
<title>Node1&#45;&gt;Node8</title>
<path fill="none" stroke="midnightblue" d="M1670.42,-69.53C1591.47,-61.24 1451.54,-46.12 1332,-31 1320.85,-29.59 1309.02,-28.01 1297.52,-26.42"/>
<polygon fill="midnightblue" stroke="midnightblue" points="1297.9,-22.94 1287.52,-25.03 1296.94,-29.87 1297.9,-22.94"/>
</g>
<!-- Node9 -->
<g id="node9" class="node">
<title>Node9</title>
<g id="a_node9"><a xlink:title=" ">
<polygon fill="white" stroke="#bfbfbf" points="1341,-6 1341,-25 1529,-25 1529,-6 1341,-6"/>
<text text-anchor="middle" x="1435" y="-13" font-family="Helvetica,sans-Serif" font-size="10.00">master_element/Quad42DCVFEM.h</text>
</a>
</g>
</g>
<!-- Node1&#45;&gt;Node9 -->
<g id="edge8" class="edge">
<title>Node1&#45;&gt;Node9</title>
<path fill="none" stroke="midnightblue" d="M1690.3,-67.48C1636.86,-56.8 1545.35,-38.53 1487.63,-27.01"/>
<polygon fill="midnightblue" stroke="midnightblue" points="1488.11,-23.53 1477.62,-25.01 1486.74,-30.4 1488.11,-23.53"/>
</g>
<!-- Node10 -->
<g id="node10" class="node">
<title>Node10</title>
<g id="a_node10"><a xlink:title=" ">
<polygon fill="white" stroke="#bfbfbf" points="1547,-6 1547,-25 1721,-25 1721,-6 1547,-6"/>
<text text-anchor="middle" x="1634" y="-13" font-family="Helvetica,sans-Serif" font-size="10.00">master_element/Tri32DCVFEM.h</text>
</a>
</g>
</g>
<!-- Node1&#45;&gt;Node10 -->
<g id="edge9" class="edge">
<title>Node1&#45;&gt;Node10</title>
<path fill="none" stroke="midnightblue" d="M1718.82,-67.48C1702.64,-57.75 1675.97,-41.73 1656.86,-30.24"/>
<polygon fill="midnightblue" stroke="midnightblue" points="1658.53,-27.16 1648.16,-25.01 1654.93,-33.16 1658.53,-27.16"/>
</g>
<!-- Node11 -->
<g id="node11" class="node">
<title>Node11</title>
<g id="a_node11"><a xlink:title=" ">
<polygon fill="white" stroke="#bfbfbf" points="1739.5,-6 1739.5,-25 1926.5,-25 1926.5,-6 1739.5,-6"/>
<text text-anchor="middle" x="1833" y="-13" font-family="Helvetica,sans-Serif" font-size="10.00">master_element/Edge22DCVFEM.h</text>
</a>
</g>
</g>
<!-- Node1&#45;&gt;Node11 -->
<g id="edge10" class="edge">
<title>Node1&#45;&gt;Node11</title>
<path fill="none" stroke="midnightblue" d="M1747.33,-67.48C1763.66,-57.75 1790.6,-41.73 1809.91,-30.24"/>
<polygon fill="midnightblue" stroke="midnightblue" points="1811.89,-33.13 1818.7,-25.01 1808.32,-27.11 1811.89,-33.13"/>
</g>
<!-- Node12 -->
<g id="node12" class="node">
<title>Node12</title>
<g id="a_node12"><a xlink:title=" ">
<polygon fill="white" stroke="#bfbfbf" points="1945,-6 1945,-25 2119,-25 2119,-6 1945,-6"/>
<text text-anchor="middle" x="2032" y="-13" font-family="Helvetica,sans-Serif" font-size="10.00">master_element/Tri33DCVFEM.h</text>
</a>
</g>
</g>
<!-- Node1&#45;&gt;Node12 -->
<g id="edge11" class="edge">
<title>Node1&#45;&gt;Node12</title>
<path fill="none" stroke="midnightblue" d="M1775.84,-67.48C1829.46,-56.8 1921.28,-38.53 1979.19,-27.01"/>
<polygon fill="midnightblue" stroke="midnightblue" points="1980.12,-30.39 1989.24,-25.01 1978.75,-23.53 1980.12,-30.39"/>
</g>
<!-- Node13 -->
<g id="node13" class="node">
<title>Node13</title>
<g id="a_node13"><a xlink:title=" ">
<polygon fill="white" stroke="#bfbfbf" points="2137.5,-6 2137.5,-25 2202.5,-25 2202.5,-6 2137.5,-6"/>
<text text-anchor="middle" x="2170" y="-13" font-family="Helvetica,sans-Serif" font-size="10.00">NaluEnv.h</text>
</a>
</g>
</g>
<!-- Node1&#45;&gt;Node13 -->
<g id="edge12" class="edge">
<title>Node1&#45;&gt;Node13</title>
<path fill="none" stroke="midnightblue" d="M1795.62,-73.1C1874.11,-68.51 2012.39,-57.21 2128,-31 2131.41,-30.23 2134.94,-29.27 2138.42,-28.22"/>
<polygon fill="midnightblue" stroke="midnightblue" points="2139.6,-31.52 2148.03,-25.1 2137.44,-24.86 2139.6,-31.52"/>
</g>
<!-- Node14 -->
<g id="node14" class="node">
<title>Node14</title>
<g id="a_node14"><a xlink:title=" ">
<polygon fill="white" stroke="#bfbfbf" points="2220.5,-6 2220.5,-25 2389.5,-25 2389.5,-6 2220.5,-6"/>
<text text-anchor="middle" x="2305" y="-13" font-family="Helvetica,sans-Serif" font-size="10.00">utils/CreateDeviceExpression.h</text>
</a>
</g>
</g>
<!-- Node1&#45;&gt;Node14 -->
<g id="edge13" class="edge">
<title>Node1&#45;&gt;Node14</title>
<path fill="none" stroke="midnightblue" d="M1795.52,-71.35C1887.1,-64.26 2063.02,-49.59 2212,-31 2222.32,-29.71 2233.26,-28.17 2243.87,-26.57"/>
<polygon fill="midnightblue" stroke="midnightblue" points="2244.56,-30.01 2253.91,-25.04 2243.5,-23.09 2244.56,-30.01"/>
</g>
<!-- Node15 -->
<g id="node15" class="node">
<title>Node15</title>
<g id="a_node15"><a xlink:title=" ">
<polygon fill="white" stroke="#bfbfbf" points="2407.5,-6 2407.5,-25 2572.5,-25 2572.5,-6 2407.5,-6"/>
<text text-anchor="middle" x="2490" y="-13" font-family="Helvetica,sans-Serif" font-size="10.00">stk_util/util/ReportHandler.hpp</text>
</a>
</g>
</g>
<!-- Node1&#45;&gt;Node15 -->
<g id="edge14" class="edge">
<title>Node1&#45;&gt;Node15</title>
<path fill="none" stroke="midnightblue" d="M1795.61,-73.66C1913.83,-68.83 2177.91,-56.03 2399,-31 2409.48,-29.81 2420.6,-28.28 2431.33,-26.65"/>
<polygon fill="midnightblue" stroke="midnightblue" points="2432.13,-30.07 2441.47,-25.07 2431.05,-23.15 2432.13,-30.07"/>
</g>
<!-- Node16 -->
<g id="node16" class="node">
<title>Node16</title>
<g id="a_node16"><a xlink:title=" ">
<polygon fill="white" stroke="#bfbfbf" points="2590.5,-6 2590.5,-25 2735.5,-25 2735.5,-6 2590.5,-6"/>
<text text-anchor="middle" x="2663" y="-13" font-family="Helvetica,sans-Serif" font-size="10.00">stk_topology/topology.hpp</text>
</a>
</g>
</g>
<!-- Node1&#45;&gt;Node16 -->
<g id="edge15" class="edge">
<title>Node1&#45;&gt;Node16</title>
<path fill="none" stroke="midnightblue" d="M1795.53,-75.34C1936.4,-73.27 2289.11,-64.84 2582,-31 2591.48,-29.9 2601.53,-28.39 2611.2,-26.76"/>
<polygon fill="midnightblue" stroke="midnightblue" points="2611.86,-30.2 2621.11,-25.02 2610.65,-23.3 2611.86,-30.2"/>
</g>
<!-- Node17 -->
<g id="node17" class="node">
<title>Node17</title>
<g id="a_node17"><a xlink:title=" ">
<polygon fill="white" stroke="#bfbfbf" points="2753.5,-6 2753.5,-25 2800.5,-25 2800.5,-6 2753.5,-6"/>
<text text-anchor="middle" x="2777" y="-13" font-family="Helvetica,sans-Serif" font-size="10.00">cmath</text>
</a>
</g>
</g>
<!-- Node1&#45;&gt;Node17 -->
<g id="edge16" class="edge">
<title>Node1&#45;&gt;Node17</title>
<path fill="none" stroke="midnightblue" d="M1795.66,-76.31C1987.3,-76.78 2563.49,-74.45 2745,-31 2747.22,-30.47 2749.47,-29.78 2751.7,-29"/>
<polygon fill="midnightblue" stroke="midnightblue" points="2753.23,-32.16 2761.15,-25.12 2750.57,-25.68 2753.23,-32.16"/>
</g>
<!-- Node18 -->
<g id="node18" class="node">
<title>Node18</title>
<g id="a_node18"><a xlink:title=" ">
<polygon fill="white" stroke="#bfbfbf" points="2819,-6 2819,-25 2879,-25 2879,-6 2819,-6"/>
<text text-anchor="middle" x="2849" y="-13" font-family="Helvetica,sans-Serif" font-size="10.00">iostream</text>
</a>
</g>
</g>
<!-- Node1&#45;&gt;Node18 -->
<g id="edge17" class="edge">
<title>Node1&#45;&gt;Node18</title>
<path fill="none" stroke="midnightblue" d="M1795.65,-75.96C1995.17,-75.41 2614.05,-70.49 2810,-31 2813.26,-30.34 2816.6,-29.45 2819.9,-28.44"/>
<polygon fill="midnightblue" stroke="midnightblue" points="2821.21,-31.69 2829.51,-25.11 2818.92,-25.08 2821.21,-31.69"/>
</g>
<!-- Node19 -->
<g id="node19" class="node">
<title>Node19</title>
<g id="a_node19"><a xlink:title=" ">
<polygon fill="white" stroke="#bfbfbf" points="2897,-6 2897,-25 2955,-25 2955,-6 2897,-6"/>
<text text-anchor="middle" x="2926" y="-13" font-family="Helvetica,sans-Serif" font-size="10.00">memory</text>
</a>
</g>
</g>
<!-- Node1&#45;&gt;Node19 -->
<g id="edge18" class="edge">
<title>Node1&#45;&gt;Node19</title>
<path fill="none" stroke="midnightblue" d="M1795.76,-76.23C2004.86,-76.59 2676.53,-74.25 2888,-31 2891.08,-30.37 2894.24,-29.52 2897.36,-28.54"/>
<polygon fill="midnightblue" stroke="midnightblue" points="2898.77,-31.76 2907.03,-25.13 2896.44,-25.16 2898.77,-31.76"/>
</g>
</g>
</svg>
        <g id="navigator" transform="translate(0 0)" fill="#404254">
                <rect fill="#f2f5e9" fill-opacity="0.5" stroke="#606060" stroke-width=".5" x="0" y="0" width="60" height="60"/>
                <use id="zoomplus" xlink:href="#zoomPlus" x="17" y="9" onmousedown="handleZoom(evt,'in')"/>
                <use id="zoomminus" xlink:href="#zoomMin" x="42" y="9" onmousedown="handleZoom(evt,'out')"/>
                <use id="reset" xlink:href="#resetDef" x="30" y="36" onmousedown="handleReset()"/>
                <g id="arrowUp" xlink:href="#dirArrow" transform="translate(30 24)" onmousedown="handlePan(0,-1)">
                  <use xlink:href="#rim" fill="#404040">
                        <set attributeName="fill" to="#808080" begin="arrowUp.mouseover" end="arrowUp.mouseout"/>
                  </use>
                  <path fill="none" stroke="white" stroke-width="1.5" d="M0,-3.0v7 M-2.5,-0.5L0,-3.0L2.5,-0.5"/>
                </g>
                <g id="arrowRight" xlink:href="#dirArrow" transform="rotate(90) translate(36 -43)" onmousedown="handlePan(1,0)">
                  <use xlink:href="#rim" fill="#404040">
                        <set attributeName="fill" to="#808080" begin="arrowRight.mouseover" end="arrowRight.mouseout"/>
                  </use>
                  <path fill="none" stroke="white" stroke-width="1.5" d="M0,-3.0v7 M-2.5,-0.5L0,-3.0L2.5,-0.5"/>
                </g>
                <g id="arrowDown" xlink:href="#dirArrow" transform="rotate(180) translate(-30 -48)" onmousedown="handlePan(0,1)">
                  <use xlink:href="#rim" fill="#404040">
                        <set attributeName="fill" to="#808080" begin="arrowDown.mouseover" end="arrowDown.mouseout"/>
                  </use>
                  <path fill="none" stroke="white" stroke-width="1.5" d="M0,-3.0v7 M-2.5,-0.5L0,-3.0L2.5,-0.5"/>
                </g>
                <g id="arrowLeft" xlink:href="#dirArrow" transform="rotate(270) translate(-36 17)" onmousedown="handlePan(-1,0)">
                  <use xlink:href="#rim" fill="#404040">
                        <set attributeName="fill" to="#808080" begin="arrowLeft.mouseover" end="arrowLeft.mouseout"/>
                  </use>
                  <path fill="none" stroke="white" stroke-width="1.5" d="M0,-3.0v7 M-2.5,-0.5L0,-3.0L2.5,-0.5"/>
                </g>
        </g>
        <svg viewBox="0 0 15 15" width="100%" height="30px" preserveAspectRatio="xMaxYMin meet">
         <g id="arrow_out" transform="scale(0.3 0.3)">
          <a xlink:href="_master_element_repo_8_c__incl_org.svg" target="_base">
           <rect id="button" ry="5" rx="5" y="6" x="6" height="38" width="38"
                fill="#f2f5e9" fill-opacity="0.5" stroke="#606060" stroke-width="1.0"/>
           <path id="arrow"
             d="M 11.500037,31.436501 C 11.940474,20.09759 22.043105,11.32322 32.158766,21.979434 L 37.068811,17.246167 C 37.068811,17.246167 37.088388,32 37.088388,32 L 22.160133,31.978069 C 22.160133,31.978069 26.997745,27.140456 26.997745,27.140456 C 18.528582,18.264221 13.291696,25.230495 11.500037,31.436501 z"
             style="fill:#404040;"/>
          </a>
         </g>
        </svg>
</svg>
