<?xml version="1.0" encoding="UTF-8" standalone="no"?>
<!DOCTYPE svg PUBLIC "-//W3C//DTD SVG 1.1//EN"
 "http://www.w3.org/Graphics/SVG/1.1/DTD/svg11.dtd">
<!-- Generated by graphviz version 2.43.0 (0)
 -->
<!-- Title: MasterElement.C Pages: 1 -->
<svg width="1298pt" height="95pt"
 viewBox="0.00 0.00 1297.50 95.00" xmlns="http://www.w3.org/2000/svg" xmlns:xlink="http://www.w3.org/1999/xlink">
<g id="graph0" class="graph" transform="scale(1 1) rotate(0) translate(4 91)">
<title>MasterElement.C</title>
<polygon fill="white" stroke="transparent" points="-4,4 -4,-91 1293.5,-91 1293.5,4 -4,4"/>
<!-- Node1 -->
<g id="node1" class="node">
<title>Node1</title>
<g id="a_node1"><a xlink:title=" ">
<polygon fill="#bfbfbf" stroke="black" points="828,-67.5 828,-86.5 929,-86.5 929,-67.5 828,-67.5"/>
<text text-anchor="middle" x="878.5" y="-74.5" font-family="Helvetica,sans-Serif" font-size="10.00">MasterElement.C</text>
</a>
</g>
</g>
<!-- Node2 -->
<g id="node2" class="node">
<title>Node2</title>
<g id="a_node2"><a xlink:title=" ">
<polygon fill="white" stroke="#bfbfbf" points="0,-6 0,-25 183,-25 183,-6 0,-6"/>
<text text-anchor="middle" x="91.5" y="-13" font-family="Helvetica,sans-Serif" font-size="10.00">master_element/MasterElement.h</text>
</a>
</g>
</g>
<!-- Node1&#45;&gt;Node2 -->
<g id="edge1" class="edge">
<title>Node1&#45;&gt;Node2</title>
<path fill="none" stroke="midnightblue" d="M827.61,-74.01C713.64,-69.24 429.32,-55.73 192.5,-31 180.52,-29.75 167.79,-28.14 155.54,-26.45"/>
<polygon fill="midnightblue" stroke="midnightblue" points="155.78,-22.95 145.39,-25.02 154.81,-29.88 155.78,-22.95"/>
</g>
<!-- Node3 -->
<g id="node3" class="node">
<title>Node3</title>
<g id="a_node3"><a xlink:title=" ">
<polygon fill="white" stroke="#bfbfbf" points="201.5,-0.5 201.5,-30.5 375.5,-30.5 375.5,-0.5 201.5,-0.5"/>
<text text-anchor="start" x="209.5" y="-18.5" font-family="Helvetica,sans-Serif" font-size="10.00">master_element/MasterElement</text>
<text text-anchor="middle" x="288.5" y="-7.5" font-family="Helvetica,sans-Serif" font-size="10.00">Functions.h</text>
</a>
</g>
</g>
<!-- Node1&#45;&gt;Node3 -->
<g id="edge2" class="edge">
<title>Node1&#45;&gt;Node3</title>
<path fill="none" stroke="midnightblue" d="M827.9,-72.38C740.09,-65.89 553.56,-51.14 385.6,-31.09"/>
<polygon fill="midnightblue" stroke="midnightblue" points="385.94,-27.6 375.59,-29.88 385.1,-34.55 385.94,-27.6"/>
</g>
<!-- Node4 -->
<g id="node4" class="node">
<title>Node4</title>
<g id="a_node4"><a xlink:title=" ">
<polygon fill="white" stroke="#bfbfbf" points="393.5,-6 393.5,-25 461.5,-25 461.5,-6 393.5,-6"/>
<text text-anchor="middle" x="427.5" y="-13" font-family="Helvetica,sans-Serif" font-size="10.00">AlgTraits.h</text>
</a>
</g>
</g>
<!-- Node1&#45;&gt;Node4 -->
<g id="edge3" class="edge">
<title>Node1&#45;&gt;Node4</title>
<path fill="none" stroke="midnightblue" d="M827.68,-73.91C749.93,-69.93 597.14,-58.99 470.5,-31 467.01,-30.23 463.41,-29.27 459.84,-28.23"/>
<polygon fill="midnightblue" stroke="midnightblue" points="460.59,-24.8 450,-25.1 458.48,-31.47 460.59,-24.8"/>
</g>
<!-- Node5 -->
<g id="node5" class="node">
<title>Node5</title>
<g id="a_node5"><a xlink:title=" ">
<polygon fill="white" stroke="#bfbfbf" points="480,-6 480,-25 545,-25 545,-6 480,-6"/>
<text text-anchor="middle" x="512.5" y="-13" font-family="Helvetica,sans-Serif" font-size="10.00">NaluEnv.h</text>
</a>
</g>
</g>
<!-- Node1&#45;&gt;Node5 -->
<g id="edge4" class="edge">
<title>Node1&#45;&gt;Node5</title>
<path fill="none" stroke="midnightblue" d="M827.8,-72.18C763.34,-66.59 648.97,-54.24 553.5,-31 550.27,-30.21 546.94,-29.27 543.64,-28.25"/>
<polygon fill="midnightblue" stroke="midnightblue" points="544.55,-24.86 533.96,-25.01 542.33,-31.5 544.55,-24.86"/>
</g>
<!-- Node6 -->
<g id="node6" class="node">
<title>Node6</title>
<g id="a_node6"><a xlink:title=" ">
<polygon fill="white" stroke="#bfbfbf" points="563,-6 563,-25 728,-25 728,-6 563,-6"/>
<text text-anchor="middle" x="645.5" y="-13" font-family="Helvetica,sans-Serif" font-size="10.00">stk_util/util/ReportHandler.hpp</text>
</a>
</g>
</g>
<!-- Node1&#45;&gt;Node6 -->
<g id="edge5" class="edge">
<title>Node1&#45;&gt;Node6</title>
<path fill="none" stroke="midnightblue" d="M845.12,-67.48C803.94,-56.96 733.85,-39.06 688.63,-27.51"/>
<polygon fill="midnightblue" stroke="midnightblue" points="689.38,-24.09 678.82,-25.01 687.64,-30.87 689.38,-24.09"/>
</g>
<!-- Node7 -->
<g id="node7" class="node">
<title>Node7</title>
<g id="a_node7"><a xlink:title=" ">
<polygon fill="white" stroke="#bfbfbf" points="746,-6 746,-25 891,-25 891,-6 746,-6"/>
<text text-anchor="middle" x="818.5" y="-13" font-family="Helvetica,sans-Serif" font-size="10.00">stk_topology/topology.hpp</text>
</a>
</g>
</g>
<!-- Node1&#45;&gt;Node7 -->
<g id="edge6" class="edge">
<title>Node1&#45;&gt;Node7</title>
<path fill="none" stroke="midnightblue" d="M869.9,-67.48C860.64,-58.28 845.68,-43.46 834.29,-32.16"/>
<polygon fill="midnightblue" stroke="midnightblue" points="836.65,-29.57 827.08,-25.01 831.72,-34.54 836.65,-29.57"/>
</g>
<!-- Node8 -->
<g id="node8" class="node">
<title>Node8</title>
<g id="a_node8"><a xlink:title=" ">
<polygon fill="white" stroke="#bfbfbf" points="909.5,-6 909.5,-25 969.5,-25 969.5,-6 909.5,-6"/>
<text text-anchor="middle" x="939.5" y="-13" font-family="Helvetica,sans-Serif" font-size="10.00">iostream</text>
</a>
</g>
</g>
<!-- Node1&#45;&gt;Node8 -->
<g id="edge7" class="edge">
<title>Node1&#45;&gt;Node8</title>
<path fill="none" stroke="midnightblue" d="M887.24,-67.48C896.66,-58.28 911.86,-43.46 923.45,-32.16"/>
<polygon fill="midnightblue" stroke="midnightblue" points="926.06,-34.5 930.78,-25.01 921.17,-29.49 926.06,-34.5"/>
</g>
<!-- Node9 -->
<g id="node9" class="node">
<title>Node9</title>
<g id="a_node9"><a xlink:title=" ">
<polygon fill="white" stroke="#bfbfbf" points="988,-6 988,-25 1035,-25 1035,-6 988,-6"/>
<text text-anchor="middle" x="1011.5" y="-13" font-family="Helvetica,sans-Serif" font-size="10.00">cmath</text>
</a>
</g>
</g>
<!-- Node1&#45;&gt;Node9 -->
<g id="edge8" class="edge">
<title>Node1&#45;&gt;Node9</title>
<path fill="none" stroke="midnightblue" d="M897.56,-67.48C919.97,-57.45 957.41,-40.7 983.21,-29.15"/>
<polygon fill="midnightblue" stroke="midnightblue" points="984.78,-32.29 992.48,-25.01 981.92,-25.9 984.78,-32.29"/>
</g>
<!-- Node10 -->
<g id="node10" class="node">
<title>Node10</title>
<g id="a_node10"><a xlink:title=" ">
<polygon fill="white" stroke="#bfbfbf" points="1053.5,-6 1053.5,-25 1097.5,-25 1097.5,-6 1053.5,-6"/>
<text text-anchor="middle" x="1075.5" y="-13" font-family="Helvetica,sans-Serif" font-size="10.00">limits</text>
</a>
</g>
</g>
<!-- Node1&#45;&gt;Node10 -->
<g id="edge9" class="edge">
<title>Node1&#45;&gt;Node10</title>
<path fill="none" stroke="midnightblue" d="M917.33,-67.48C951.35,-59.55 1001.88,-46.61 1044.5,-31 1046.11,-30.41 1047.75,-29.77 1049.4,-29.09"/>
<polygon fill="midnightblue" stroke="midnightblue" points="1050.93,-32.25 1058.67,-25.02 1048.11,-25.84 1050.93,-32.25"/>
</g>
<!-- Node11 -->
<g id="node11" class="node">
<title>Node11</title>
<g id="a_node11"><a xlink:title=" ">
<polygon fill="white" stroke="#bfbfbf" points="1115.5,-6 1115.5,-25 1157.5,-25 1157.5,-6 1115.5,-6"/>
<text text-anchor="middle" x="1136.5" y="-13" font-family="Helvetica,sans-Serif" font-size="10.00">array</text>
</a>
</g>
</g>
<!-- Node1&#45;&gt;Node11 -->
<g id="edge10" class="edge">
<title>Node1&#45;&gt;Node11</title>
<path fill="none" stroke="midnightblue" d="M929.27,-69.77C976.12,-63.14 1047.19,-50.82 1106.5,-31 1108.12,-30.46 1109.77,-29.85 1111.41,-29.19"/>
<polygon fill="midnightblue" stroke="midnightblue" points="1112.9,-32.36 1120.62,-25.1 1110.06,-25.96 1112.9,-32.36"/>
</g>
<!-- Node12 -->
<g id="node12" class="node">
<title>Node12</title>
<g id="a_node12"><a xlink:title=" ">
<polygon fill="white" stroke="#bfbfbf" points="1175.5,-6 1175.5,-25 1213.5,-25 1213.5,-6 1175.5,-6"/>
<text text-anchor="middle" x="1194.5" y="-13" font-family="Helvetica,sans-Serif" font-size="10.00">map</text>
</a>
</g>
</g>
<!-- Node1&#45;&gt;Node12 -->
<g id="edge11" class="edge">
<title>Node1&#45;&gt;Node12</title>
<path fill="none" stroke="midnightblue" d="M929.08,-73.04C987.51,-68.5 1085.94,-57.38 1166.5,-31 1167.93,-30.53 1169.38,-30 1170.82,-29.41"/>
<polygon fill="midnightblue" stroke="midnightblue" points="1172.48,-32.5 1180.07,-25.1 1169.52,-26.16 1172.48,-32.5"/>
</g>
<!-- Node13 -->
<g id="node13" class="node">
<title>Node13</title>
<g id="a_node13"><a xlink:title=" ">
<polygon fill="white" stroke="#bfbfbf" points="1231.5,-6 1231.5,-25 1289.5,-25 1289.5,-6 1231.5,-6"/>
<text text-anchor="middle" x="1260.5" y="-13" font-family="Helvetica,sans-Serif" font-size="10.00">memory</text>
</a>
</g>
</g>
<!-- Node1&#45;&gt;Node13 -->
<g id="edge12" class="edge">
<title>Node1&#45;&gt;Node13</title>
<path fill="none" stroke="midnightblue" d="M929.04,-73.11C996.72,-68.39 1120.16,-56.84 1222.5,-31 1225.32,-30.29 1228.22,-29.43 1231.1,-28.49"/>
<polygon fill="midnightblue" stroke="midnightblue" points="1232.43,-31.73 1240.67,-25.07 1230.07,-25.14 1232.43,-31.73"/>
</g>
</g>
</svg>
