<?xml version="1.0" encoding="UTF-8" standalone="no"?>
<!DOCTYPE svg PUBLIC "-//W3C//DTD SVG 1.1//EN"
 "http://www.w3.org/Graphics/SVG/1.1/DTD/svg11.dtd">
<!-- Generated by graphviz version 2.43.0 (0)
 -->
<!-- Title: MaterialPropertys.C Pages: 1 -->
<svg width="1163pt" height="95pt"
 viewBox="0.00 0.00 1162.50 95.00" xmlns="http://www.w3.org/2000/svg" xmlns:xlink="http://www.w3.org/1999/xlink">
<g id="graph0" class="graph" transform="scale(1 1) rotate(0) translate(4 91)">
<title>MaterialPropertys.C</title>
<polygon fill="white" stroke="transparent" points="-4,4 -4,-91 1158.5,-91 1158.5,4 -4,4"/>
<!-- Node1 -->
<g id="node1" class="node">
<title>Node1</title>
<g id="a_node1"><a xlink:title=" ">
<polygon fill="#bfbfbf" stroke="black" points="534,-67.5 534,-86.5 647,-86.5 647,-67.5 534,-67.5"/>
<text text-anchor="middle" x="590.5" y="-74.5" font-family="Helvetica,sans-Serif" font-size="10.00">MaterialPropertys.C</text>
</a>
</g>
</g>
<!-- Node2 -->
<g id="node2" class="node">
<title>Node2</title>
<g id="a_node2"><a xlink:title=" ">
<polygon fill="white" stroke="#bfbfbf" points="0,-6 0,-25 113,-25 113,-6 0,-6"/>
<text text-anchor="middle" x="56.5" y="-13" font-family="Helvetica,sans-Serif" font-size="10.00">MaterialPropertys.h</text>
</a>
</g>
</g>
<!-- Node1&#45;&gt;Node2 -->
<g id="edge1" class="edge">
<title>Node1&#45;&gt;Node2</title>
<path fill="none" stroke="midnightblue" d="M533.9,-72.84C445.47,-67.39 269.34,-54.49 121.5,-31 114.83,-29.94 107.81,-28.61 100.96,-27.18"/>
<polygon fill="midnightblue" stroke="midnightblue" points="101.61,-23.74 91.09,-25.05 100.13,-30.58 101.61,-23.74"/>
</g>
<!-- Node3 -->
<g id="node3" class="node">
<title>Node3</title>
<g id="a_node3"><a xlink:title=" ">
<polygon fill="white" stroke="#bfbfbf" points="131,-6 131,-25 190,-25 190,-6 131,-6"/>
<text text-anchor="middle" x="160.5" y="-13" font-family="Helvetica,sans-Serif" font-size="10.00">Enums.h</text>
</a>
</g>
</g>
<!-- Node1&#45;&gt;Node3 -->
<g id="edge2" class="edge">
<title>Node1&#45;&gt;Node3</title>
<path fill="none" stroke="midnightblue" d="M533.9,-73.94C456.98,-70.14 315.63,-59.59 198.5,-31 195.67,-30.31 192.77,-29.46 189.88,-28.53"/>
<polygon fill="midnightblue" stroke="midnightblue" points="190.91,-25.18 180.32,-25.13 188.57,-31.78 190.91,-25.18"/>
</g>
<!-- Node4 -->
<g id="node4" class="node">
<title>Node4</title>
<g id="a_node4"><a xlink:title=" ">
<polygon fill="white" stroke="#bfbfbf" points="208,-6 208,-25 265,-25 265,-6 208,-6"/>
<text text-anchor="middle" x="236.5" y="-13" font-family="Helvetica,sans-Serif" font-size="10.00">Realm.h</text>
</a>
</g>
</g>
<!-- Node1&#45;&gt;Node4 -->
<g id="edge3" class="edge">
<title>Node1&#45;&gt;Node4</title>
<path fill="none" stroke="midnightblue" d="M533.89,-71.95C469.86,-66.46 362.87,-54.51 273.5,-31 270.84,-30.3 268.11,-29.47 265.4,-28.56"/>
<polygon fill="midnightblue" stroke="midnightblue" points="266.4,-25.2 255.8,-25.04 263.99,-31.77 266.4,-25.2"/>
</g>
<!-- Node5 -->
<g id="node5" class="node">
<title>Node5</title>
<g id="a_node5"><a xlink:title=" ">
<polygon fill="white" stroke="#bfbfbf" points="283,-6 283,-25 348,-25 348,-6 283,-6"/>
<text text-anchor="middle" x="315.5" y="-13" font-family="Helvetica,sans-Serif" font-size="10.00">NaluEnv.h</text>
</a>
</g>
</g>
<!-- Node1&#45;&gt;Node5 -->
<g id="edge4" class="edge">
<title>Node1&#45;&gt;Node5</title>
<path fill="none" stroke="midnightblue" d="M534.44,-67.46C486.93,-59.69 417.2,-46.98 357.5,-31 354.47,-30.19 351.34,-29.27 348.22,-28.29"/>
<polygon fill="midnightblue" stroke="midnightblue" points="349.02,-24.87 338.43,-25.07 346.83,-31.52 349.02,-24.87"/>
</g>
<!-- Node6 -->
<g id="node6" class="node">
<title>Node6</title>
<g id="a_node6"><a xlink:title=" ">
<polygon fill="white" stroke="#bfbfbf" points="366.5,-0.5 366.5,-30.5 500.5,-30.5 500.5,-0.5 366.5,-0.5"/>
<text text-anchor="start" x="374.5" y="-18.5" font-family="Helvetica,sans-Serif" font-size="10.00">property_evaluator</text>
<text text-anchor="middle" x="433.5" y="-7.5" font-family="Helvetica,sans-Serif" font-size="10.00">/MaterialPropertyData.h</text>
</a>
</g>
</g>
<!-- Node1&#45;&gt;Node6 -->
<g id="edge5" class="edge">
<title>Node1&#45;&gt;Node6</title>
<path fill="none" stroke="midnightblue" d="M568.01,-67.48C545.15,-58.81 509.09,-45.15 480.05,-34.14"/>
<polygon fill="midnightblue" stroke="midnightblue" points="481.09,-30.79 470.5,-30.52 478.61,-37.34 481.09,-30.79"/>
</g>
<!-- Node7 -->
<g id="node7" class="node">
<title>Node7</title>
<g id="a_node7"><a xlink:title=" ">
<polygon fill="white" stroke="#bfbfbf" points="519,-0.5 519,-30.5 662,-30.5 662,-0.5 519,-0.5"/>
<text text-anchor="start" x="527" y="-18.5" font-family="Helvetica,sans-Serif" font-size="10.00">property_evaluator</text>
<text text-anchor="middle" x="590.5" y="-7.5" font-family="Helvetica,sans-Serif" font-size="10.00">/ReferencePropertyData.h</text>
</a>
</g>
</g>
<!-- Node1&#45;&gt;Node7 -->
<g id="edge6" class="edge">
<title>Node1&#45;&gt;Node7</title>
<path fill="none" stroke="midnightblue" d="M590.5,-67.48C590.5,-60.47 590.5,-50.19 590.5,-40.7"/>
<polygon fill="midnightblue" stroke="midnightblue" points="594,-40.52 590.5,-30.52 587,-40.52 594,-40.52"/>
</g>
<!-- Node8 -->
<g id="node8" class="node">
<title>Node8</title>
<g id="a_node8"><a xlink:title=" ">
<polygon fill="white" stroke="#bfbfbf" points="680.5,-0.5 680.5,-30.5 796.5,-30.5 796.5,-0.5 680.5,-0.5"/>
<text text-anchor="start" x="688.5" y="-18.5" font-family="Helvetica,sans-Serif" font-size="10.00">property_evaluator</text>
<text text-anchor="middle" x="738.5" y="-7.5" font-family="Helvetica,sans-Serif" font-size="10.00">/PropertyEvaluator.h</text>
</a>
</g>
</g>
<!-- Node1&#45;&gt;Node8 -->
<g id="edge7" class="edge">
<title>Node1&#45;&gt;Node8</title>
<path fill="none" stroke="midnightblue" d="M611.7,-67.48C633.15,-58.85 666.95,-45.26 694.26,-34.29"/>
<polygon fill="midnightblue" stroke="midnightblue" points="695.65,-37.5 703.62,-30.52 693.04,-31.01 695.65,-37.5"/>
</g>
<!-- Node9 -->
<g id="node9" class="node">
<title>Node9</title>
<g id="a_node9"><a xlink:title=" ">
<polygon fill="white" stroke="#bfbfbf" points="815,-6 815,-25 914,-25 914,-6 815,-6"/>
<text text-anchor="middle" x="864.5" y="-13" font-family="Helvetica,sans-Serif" font-size="10.00">yaml&#45;cpp/yaml.h</text>
</a>
</g>
</g>
<!-- Node1&#45;&gt;Node9 -->
<g id="edge8" class="edge">
<title>Node1&#45;&gt;Node9</title>
<path fill="none" stroke="midnightblue" d="M633.43,-67.47C676.89,-58.73 746,-44.53 805.5,-31 810.45,-29.87 815.63,-28.66 820.77,-27.43"/>
<polygon fill="midnightblue" stroke="midnightblue" points="821.65,-30.82 830.54,-25.06 820,-24.01 821.65,-30.82"/>
</g>
<!-- Node10 -->
<g id="node10" class="node">
<title>Node10</title>
<g id="a_node10"><a xlink:title=" ">
<polygon fill="white" stroke="#bfbfbf" points="932,-6 932,-25 1015,-25 1015,-6 932,-6"/>
<text text-anchor="middle" x="973.5" y="-13" font-family="Helvetica,sans-Serif" font-size="10.00">NaluParsing.h</text>
</a>
</g>
</g>
<!-- Node1&#45;&gt;Node10 -->
<g id="edge9" class="edge">
<title>Node1&#45;&gt;Node10</title>
<path fill="none" stroke="midnightblue" d="M647.2,-70.92C713.83,-64.35 827.47,-51.3 923.5,-31 927.9,-30.07 932.47,-28.96 936.99,-27.76"/>
<polygon fill="midnightblue" stroke="midnightblue" points="938,-31.11 946.7,-25.06 936.13,-24.37 938,-31.11"/>
</g>
<!-- Node11 -->
<g id="node11" class="node">
<title>Node11</title>
<g id="a_node11"><a xlink:title=" ">
<polygon fill="white" stroke="#bfbfbf" points="1033,-6 1033,-25 1098,-25 1098,-6 1033,-6"/>
<text text-anchor="middle" x="1065.5" y="-13" font-family="Helvetica,sans-Serif" font-size="10.00">stdexcept</text>
</a>
</g>
</g>
<!-- Node1&#45;&gt;Node11 -->
<g id="edge10" class="edge">
<title>Node1&#45;&gt;Node11</title>
<path fill="none" stroke="midnightblue" d="M647.02,-74.4C730.51,-71.07 891.3,-61.01 1024.5,-31 1027.74,-30.27 1031.08,-29.36 1034.38,-28.36"/>
<polygon fill="midnightblue" stroke="midnightblue" points="1035.68,-31.62 1044.08,-25.15 1033.48,-24.97 1035.68,-31.62"/>
</g>
<!-- Node12 -->
<g id="node12" class="node">
<title>Node12</title>
<g id="a_node12"><a xlink:title=" ">
<polygon fill="white" stroke="#bfbfbf" points="1116.5,-6 1116.5,-25 1154.5,-25 1154.5,-6 1116.5,-6"/>
<text text-anchor="middle" x="1135.5" y="-13" font-family="Helvetica,sans-Serif" font-size="10.00">map</text>
</a>
</g>
</g>
<!-- Node1&#45;&gt;Node12 -->
<g id="edge11" class="edge">
<title>Node1&#45;&gt;Node12</title>
<path fill="none" stroke="midnightblue" d="M647.08,-73.85C762.72,-69.01 1022.38,-55.69 1107.5,-31 1109.16,-30.52 1110.84,-29.93 1112.51,-29.28"/>
<polygon fill="midnightblue" stroke="midnightblue" points="1114.11,-32.39 1121.7,-25 1111.16,-26.05 1114.11,-32.39"/>
</g>
</g>
</svg>
