<?xml version="1.0" encoding="UTF-8" standalone="no"?>
<!DOCTYPE svg PUBLIC "-//W3C//DTD SVG 1.1//EN"
 "http://www.w3.org/Graphics/SVG/1.1/DTD/svg11.dtd">
<!-- Generated by graphviz version 2.43.0 (0)
 -->
<!-- Title: MatrixFreeLowMachEquationSystem.C Pages: 1 -->
<svg width="6083pt" height="106pt"
 viewBox="0.00 0.00 6082.50 106.00" xmlns="http://www.w3.org/2000/svg" xmlns:xlink="http://www.w3.org/1999/xlink">
<g id="graph0" class="graph" transform="scale(1 1) rotate(0) translate(4 102)">
<title>MatrixFreeLowMachEquationSystem.C</title>
<polygon fill="white" stroke="transparent" points="-4,4 -4,-102 6078.5,-102 6078.5,4 -4,4"/>
<!-- Node1 -->
<g id="node1" class="node">
<title>Node1</title>
<g id="a_node1"><a xlink:title=" ">
<polygon fill="#bfbfbf" stroke="black" points="2904,-67.5 2904,-97.5 3062,-97.5 3062,-67.5 2904,-67.5"/>
<text text-anchor="start" x="2912" y="-85.5" font-family="Helvetica,sans-Serif" font-size="10.00">MatrixFreeLowMachEquation</text>
<text text-anchor="middle" x="2983" y="-74.5" font-family="Helvetica,sans-Serif" font-size="10.00">System.C</text>
</a>
</g>
</g>
<!-- Node2 -->
<g id="node2" class="node">
<title>Node2</title>
<g id="a_node2"><a xlink:title=" ">
<polygon fill="white" stroke="#bfbfbf" points="0,-0.5 0,-30.5 158,-30.5 158,-0.5 0,-0.5"/>
<text text-anchor="start" x="8" y="-18.5" font-family="Helvetica,sans-Serif" font-size="10.00">MatrixFreeLowMachEquation</text>
<text text-anchor="middle" x="79" y="-7.5" font-family="Helvetica,sans-Serif" font-size="10.00">System.h</text>
</a>
</g>
</g>
<!-- Node1&#45;&gt;Node2 -->
<g id="edge1" class="edge">
<title>Node1&#45;&gt;Node2</title>
<path fill="none" stroke="midnightblue" d="M2903.73,-81.64C2507.71,-82.08 740.43,-81.22 168.08,-30.98"/>
<polygon fill="midnightblue" stroke="midnightblue" points="168.36,-27.49 158.08,-30.09 167.73,-34.46 168.36,-27.49"/>
</g>
<!-- Node3 -->
<g id="node3" class="node">
<title>Node3</title>
<g id="a_node3"><a xlink:title=" ">
<polygon fill="white" stroke="#bfbfbf" points="176,-6 176,-25 340,-25 340,-6 176,-6"/>
<text text-anchor="middle" x="258" y="-13" font-family="Helvetica,sans-Serif" font-size="10.00">matrix_free/EquationUpdate.h</text>
</a>
</g>
</g>
<!-- Node1&#45;&gt;Node3 -->
<g id="edge2" class="edge">
<title>Node1&#45;&gt;Node3</title>
<path fill="none" stroke="midnightblue" d="M2903.85,-81.47C2521.57,-81.07 863.67,-76.71 349,-31 337.54,-29.98 325.33,-28.39 313.71,-26.63"/>
<polygon fill="midnightblue" stroke="midnightblue" points="314.1,-23.15 303.67,-25.05 313.01,-30.06 314.1,-23.15"/>
</g>
<!-- Node4 -->
<g id="node4" class="node">
<title>Node4</title>
<g id="a_node4"><a xlink:title=" ">
<polygon fill="white" stroke="#bfbfbf" points="358.5,-0.5 358.5,-30.5 511.5,-30.5 511.5,-0.5 358.5,-0.5"/>
<text text-anchor="start" x="366.5" y="-18.5" font-family="Helvetica,sans-Serif" font-size="10.00">matrix_free/LocalDualNodal</text>
<text text-anchor="middle" x="435" y="-7.5" font-family="Helvetica,sans-Serif" font-size="10.00">Volume.h</text>
</a>
</g>
</g>
<!-- Node1&#45;&gt;Node4 -->
<g id="edge3" class="edge">
<title>Node1&#45;&gt;Node4</title>
<path fill="none" stroke="midnightblue" d="M2903.86,-81.46C2539.41,-81.03 1019.71,-76.55 521.97,-31.08"/>
<polygon fill="midnightblue" stroke="midnightblue" points="522.12,-27.58 511.84,-30.13 521.47,-34.55 522.12,-27.58"/>
</g>
<!-- Node5 -->
<g id="node5" class="node">
<title>Node5</title>
<g id="a_node5"><a xlink:title=" ">
<polygon fill="white" stroke="#bfbfbf" points="529.5,-6 529.5,-25 696.5,-25 696.5,-6 529.5,-6"/>
<text text-anchor="middle" x="613" y="-13" font-family="Helvetica,sans-Serif" font-size="10.00">matrix_free/LowMachUpdate.h</text>
</a>
</g>
</g>
<!-- Node1&#45;&gt;Node5 -->
<g id="edge4" class="edge">
<title>Node1&#45;&gt;Node5</title>
<path fill="none" stroke="midnightblue" d="M2903.8,-81.15C2554.1,-79.4 1146.27,-70.03 706,-31 694.17,-29.95 681.57,-28.33 669.58,-26.55"/>
<polygon fill="midnightblue" stroke="midnightblue" points="670.1,-23.09 659.69,-25.02 669.03,-30 670.1,-23.09"/>
</g>
<!-- Node6 -->
<g id="node6" class="node">
<title>Node6</title>
<g id="a_node6"><a xlink:title=" ">
<polygon fill="white" stroke="#bfbfbf" points="715,-6 715,-25 905,-25 905,-6 715,-6"/>
<text text-anchor="middle" x="810" y="-13" font-family="Helvetica,sans-Serif" font-size="10.00">matrix_free/MaxCourantReynolds.h</text>
</a>
</g>
</g>
<!-- Node1&#45;&gt;Node6 -->
<g id="edge5" class="edge">
<title>Node1&#45;&gt;Node6</title>
<path fill="none" stroke="midnightblue" d="M2903.97,-80.78C2574.79,-77.59 1311.4,-63.45 914,-31 900.61,-29.91 886.3,-28.24 872.73,-26.42"/>
<polygon fill="midnightblue" stroke="midnightblue" points="872.9,-22.91 862.51,-25.01 871.94,-29.85 872.9,-22.91"/>
</g>
<!-- Node7 -->
<g id="node7" class="node">
<title>Node7</title>
<g id="a_node7"><a xlink:title=" ">
<polygon fill="white" stroke="#bfbfbf" points="923.5,-0.5 923.5,-30.5 1072.5,-30.5 1072.5,-0.5 923.5,-0.5"/>
<text text-anchor="start" x="931.5" y="-18.5" font-family="Helvetica,sans-Serif" font-size="10.00">matrix_free/SparsifiedEdge</text>
<text text-anchor="middle" x="998" y="-7.5" font-family="Helvetica,sans-Serif" font-size="10.00">Laplacian.h</text>
</a>
</g>
</g>
<!-- Node1&#45;&gt;Node7 -->
<g id="edge6" class="edge">
<title>Node1&#45;&gt;Node7</title>
<path fill="none" stroke="midnightblue" d="M2903.84,-80.92C2594.23,-78.43 1464.12,-67.07 1082.55,-30.92"/>
<polygon fill="midnightblue" stroke="midnightblue" points="1082.87,-27.43 1072.58,-29.95 1082.19,-34.4 1082.87,-27.43"/>
</g>
<!-- Node8 -->
<g id="node8" class="node">
<title>Node8</title>
<g id="a_node8"><a xlink:title=" ">
<polygon fill="white" stroke="#bfbfbf" points="1091,-6 1091,-25 1225,-25 1225,-6 1091,-6"/>
<text text-anchor="middle" x="1158" y="-13" font-family="Helvetica,sans-Serif" font-size="10.00">AuxFunctionAlgorithm.h</text>
</a>
</g>
</g>
<!-- Node1&#45;&gt;Node8 -->
<g id="edge7" class="edge">
<title>Node1&#45;&gt;Node8</title>
<path fill="none" stroke="midnightblue" d="M2903.92,-80.9C2607.76,-78.37 1564.38,-67.05 1234,-31 1224.88,-30 1215.22,-28.51 1205.95,-26.85"/>
<polygon fill="midnightblue" stroke="midnightblue" points="1206.57,-23.4 1196.09,-25 1205.28,-30.28 1206.57,-23.4"/>
</g>
<!-- Node9 -->
<g id="node9" class="node">
<title>Node9</title>
<g id="a_node9"><a xlink:title=" ">
<polygon fill="white" stroke="#bfbfbf" points="1243.5,-6 1243.5,-25 1372.5,-25 1372.5,-6 1243.5,-6"/>
<text text-anchor="middle" x="1308" y="-13" font-family="Helvetica,sans-Serif" font-size="10.00">ConstantAuxFunction.h</text>
</a>
</g>
</g>
<!-- Node1&#45;&gt;Node9 -->
<g id="edge8" class="edge">
<title>Node1&#45;&gt;Node9</title>
<path fill="none" stroke="midnightblue" d="M2903.73,-80.7C2623.7,-77.61 1681.82,-64.88 1382,-31 1373.4,-30.03 1364.3,-28.59 1355.54,-26.99"/>
<polygon fill="midnightblue" stroke="midnightblue" points="1355.94,-23.51 1345.46,-25.06 1354.63,-30.38 1355.94,-23.51"/>
</g>
<!-- Node10 -->
<g id="node10" class="node">
<title>Node10</title>
<g id="a_node10"><a xlink:title=" ">
<polygon fill="white" stroke="#bfbfbf" points="1391,-6 1391,-25 1513,-25 1513,-6 1391,-6"/>
<text text-anchor="middle" x="1452" y="-13" font-family="Helvetica,sans-Serif" font-size="10.00">CopyFieldAlgorithm.h</text>
</a>
</g>
</g>
<!-- Node1&#45;&gt;Node10 -->
<g id="edge9" class="edge">
<title>Node1&#45;&gt;Node10</title>
<path fill="none" stroke="midnightblue" d="M2903.88,-80.54C2640.25,-77.05 1793.05,-63.52 1522,-31 1513.94,-30.03 1505.43,-28.61 1497.22,-27.04"/>
<polygon fill="midnightblue" stroke="midnightblue" points="1497.91,-23.6 1487.42,-25.05 1496.53,-30.47 1497.91,-23.6"/>
</g>
<!-- Node11 -->
<g id="node11" class="node">
<title>Node11</title>
<g id="a_node11"><a xlink:title=" ">
<polygon fill="white" stroke="#bfbfbf" points="1531.5,-6 1531.5,-25 1590.5,-25 1590.5,-6 1531.5,-6"/>
<text text-anchor="middle" x="1561" y="-13" font-family="Helvetica,sans-Serif" font-size="10.00">Enums.h</text>
</a>
</g>
</g>
<!-- Node1&#45;&gt;Node11 -->
<g id="edge10" class="edge">
<title>Node1&#45;&gt;Node11</title>
<path fill="none" stroke="midnightblue" d="M2903.9,-81.92C2649.17,-82.74 1852.15,-81.12 1600,-31 1596.74,-30.35 1593.39,-29.47 1590.1,-28.46"/>
<polygon fill="midnightblue" stroke="midnightblue" points="1591.08,-25.09 1580.48,-25.13 1588.79,-31.71 1591.08,-25.09"/>
</g>
<!-- Node12 -->
<g id="node12" class="node">
<title>Node12</title>
<g id="a_node12"><a xlink:title=" ">
<polygon fill="white" stroke="#bfbfbf" points="1609,-6 1609,-25 1719,-25 1719,-6 1609,-6"/>
<text text-anchor="middle" x="1664" y="-13" font-family="Helvetica,sans-Serif" font-size="10.00">EquationSystems.h</text>
</a>
</g>
</g>
<!-- Node1&#45;&gt;Node12 -->
<g id="edge11" class="edge">
<title>Node1&#45;&gt;Node12</title>
<path fill="none" stroke="midnightblue" d="M2903.99,-80.21C2665.76,-76.02 1956.88,-61.27 1728,-31 1721.02,-30.08 1713.68,-28.75 1706.56,-27.28"/>
<polygon fill="midnightblue" stroke="midnightblue" points="1706.87,-23.76 1696.35,-25.04 1705.37,-30.6 1706.87,-23.76"/>
</g>
<!-- Node13 -->
<g id="node13" class="node">
<title>Node13</title>
<g id="a_node13"><a xlink:title=" ">
<polygon fill="white" stroke="#bfbfbf" points="1737,-6 1737,-25 1825,-25 1825,-6 1737,-6"/>
<text text-anchor="middle" x="1781" y="-13" font-family="Helvetica,sans-Serif" font-size="10.00">FieldTypeDef.h</text>
</a>
</g>
</g>
<!-- Node1&#45;&gt;Node13 -->
<g id="edge12" class="edge">
<title>Node1&#45;&gt;Node13</title>
<path fill="none" stroke="midnightblue" d="M2903.9,-80.32C2679.33,-76.6 2040.76,-63.41 1834,-31 1828.58,-30.15 1822.92,-28.95 1817.41,-27.6"/>
<polygon fill="midnightblue" stroke="midnightblue" points="1818.27,-24.21 1807.71,-25.05 1816.49,-30.98 1818.27,-24.21"/>
</g>
<!-- Node14 -->
<g id="node14" class="node">
<title>Node14</title>
<g id="a_node14"><a xlink:title=" ">
<polygon fill="white" stroke="#bfbfbf" points="1843.5,-6 1843.5,-25 1960.5,-25 1960.5,-6 1843.5,-6"/>
<text text-anchor="middle" x="1902" y="-13" font-family="Helvetica,sans-Serif" font-size="10.00">LinearSolverConfig.h</text>
</a>
</g>
</g>
<!-- Node1&#45;&gt;Node14 -->
<g id="edge13" class="edge">
<title>Node1&#45;&gt;Node14</title>
<path fill="none" stroke="midnightblue" d="M2903.8,-81.86C2732.63,-81.68 2315.71,-76.18 1970,-31 1962.43,-30.01 1954.44,-28.62 1946.71,-27.1"/>
<polygon fill="midnightblue" stroke="midnightblue" points="1947.26,-23.64 1936.76,-25.03 1945.84,-30.49 1947.26,-23.64"/>
</g>
<!-- Node15 -->
<g id="node15" class="node">
<title>Node15</title>
<g id="a_node15"><a xlink:title=" ">
<polygon fill="white" stroke="#bfbfbf" points="1979,-6 1979,-25 2071,-25 2071,-6 1979,-6"/>
<text text-anchor="middle" x="2025" y="-13" font-family="Helvetica,sans-Serif" font-size="10.00">LinearSolvers.h</text>
</a>
</g>
</g>
<!-- Node1&#45;&gt;Node15 -->
<g id="edge14" class="edge">
<title>Node1&#45;&gt;Node15</title>
<path fill="none" stroke="midnightblue" d="M2903.92,-82.41C2746.18,-83.07 2381.65,-78.7 2080,-31 2074.45,-30.12 2068.66,-28.92 2062.99,-27.58"/>
<polygon fill="midnightblue" stroke="midnightblue" points="2063.58,-24.12 2053.03,-25.06 2061.87,-30.9 2063.58,-24.12"/>
</g>
<!-- Node16 -->
<g id="node16" class="node">
<title>Node16</title>
<g id="a_node16"><a xlink:title=" ">
<polygon fill="white" stroke="#bfbfbf" points="2089.5,-6 2089.5,-25 2154.5,-25 2154.5,-6 2089.5,-6"/>
<text text-anchor="middle" x="2122" y="-13" font-family="Helvetica,sans-Serif" font-size="10.00">NaluEnv.h</text>
</a>
</g>
</g>
<!-- Node1&#45;&gt;Node16 -->
<g id="edge15" class="edge">
<title>Node1&#45;&gt;Node16</title>
<path fill="none" stroke="midnightblue" d="M2903.85,-79.43C2726.75,-74.34 2303.12,-59.51 2163,-31 2159.49,-30.29 2155.87,-29.34 2152.31,-28.27"/>
<polygon fill="midnightblue" stroke="midnightblue" points="2153.13,-24.85 2142.54,-25.02 2150.93,-31.5 2153.13,-24.85"/>
</g>
<!-- Node17 -->
<g id="node17" class="node">
<title>Node17</title>
<g id="a_node17"><a xlink:title=" ">
<polygon fill="white" stroke="#bfbfbf" points="2172.5,-6 2172.5,-25 2255.5,-25 2255.5,-6 2172.5,-6"/>
<text text-anchor="middle" x="2214" y="-13" font-family="Helvetica,sans-Serif" font-size="10.00">NaluParsing.h</text>
</a>
</g>
</g>
<!-- Node1&#45;&gt;Node17 -->
<g id="edge16" class="edge">
<title>Node1&#45;&gt;Node17</title>
<path fill="none" stroke="midnightblue" d="M2903.87,-81.4C2770.72,-80.02 2493.92,-71.93 2264,-31 2259.19,-30.14 2254.19,-29 2249.28,-27.74"/>
<polygon fill="midnightblue" stroke="midnightblue" points="2250.02,-24.31 2239.45,-25.01 2248.15,-31.05 2250.02,-24.31"/>
</g>
<!-- Node18 -->
<g id="node18" class="node">
<title>Node18</title>
<g id="a_node18"><a xlink:title=" ">
<polygon fill="white" stroke="#bfbfbf" points="2273.5,-6 2273.5,-25 2330.5,-25 2330.5,-6 2273.5,-6"/>
<text text-anchor="middle" x="2302" y="-13" font-family="Helvetica,sans-Serif" font-size="10.00">Realm.h</text>
</a>
</g>
</g>
<!-- Node1&#45;&gt;Node18 -->
<g id="edge17" class="edge">
<title>Node1&#45;&gt;Node18</title>
<path fill="none" stroke="midnightblue" d="M2903.92,-78.12C2756.54,-71.34 2445.28,-54.7 2340,-31 2337,-30.32 2333.91,-29.46 2330.87,-28.49"/>
<polygon fill="midnightblue" stroke="midnightblue" points="2331.99,-25.17 2321.39,-25.12 2329.65,-31.77 2331.99,-25.17"/>
</g>
<!-- Node19 -->
<g id="node19" class="node">
<title>Node19</title>
<g id="a_node19"><a xlink:title=" ">
<polygon fill="white" stroke="#bfbfbf" points="2349,-6 2349,-25 2427,-25 2427,-6 2349,-6"/>
<text text-anchor="middle" x="2388" y="-13" font-family="Helvetica,sans-Serif" font-size="10.00">Simulation.h</text>
</a>
</g>
</g>
<!-- Node1&#45;&gt;Node19 -->
<g id="edge18" class="edge">
<title>Node1&#45;&gt;Node19</title>
<path fill="none" stroke="midnightblue" d="M2903.94,-79.19C2796.95,-74.93 2600.51,-63.1 2436,-31 2431.77,-30.17 2427.38,-29.13 2423.05,-27.97"/>
<polygon fill="midnightblue" stroke="midnightblue" points="2423.75,-24.53 2413.17,-25.14 2421.82,-31.26 2423.75,-24.53"/>
</g>
<!-- Node20 -->
<g id="node20" class="node">
<title>Node20</title>
<g id="a_node20"><a xlink:title=" ">
<polygon fill="white" stroke="#bfbfbf" points="2445.5,-6 2445.5,-25 2548.5,-25 2548.5,-6 2445.5,-6"/>
<text text-anchor="middle" x="2497" y="-13" font-family="Helvetica,sans-Serif" font-size="10.00">SolutionOptions.h</text>
</a>
</g>
</g>
<!-- Node1&#45;&gt;Node20 -->
<g id="edge19" class="edge">
<title>Node1&#45;&gt;Node20</title>
<path fill="none" stroke="midnightblue" d="M2903.88,-74.84C2818.23,-67 2677.8,-52.28 2558,-31 2552.1,-29.95 2545.91,-28.68 2539.83,-27.34"/>
<polygon fill="midnightblue" stroke="midnightblue" points="2540.31,-23.85 2529.78,-25.02 2538.74,-30.68 2540.31,-23.85"/>
</g>
<!-- Node21 -->
<g id="node21" class="node">
<title>Node21</title>
<g id="a_node21"><a xlink:title=" ">
<polygon fill="white" stroke="#bfbfbf" points="2567,-6 2567,-25 2665,-25 2665,-6 2567,-6"/>
<text text-anchor="middle" x="2616" y="-13" font-family="Helvetica,sans-Serif" font-size="10.00">TimeIntegrator.h</text>
</a>
</g>
</g>
<!-- Node1&#45;&gt;Node21 -->
<g id="edge20" class="edge">
<title>Node1&#45;&gt;Node21</title>
<path fill="none" stroke="midnightblue" d="M2903.93,-70.42C2841.3,-61.21 2751.72,-47.04 2674,-31 2668.86,-29.94 2663.48,-28.73 2658.17,-27.48"/>
<polygon fill="midnightblue" stroke="midnightblue" points="2658.65,-23.99 2648.1,-25.03 2656.99,-30.79 2658.65,-23.99"/>
</g>
<!-- Node22 -->
<g id="node22" class="node">
<title>Node22</title>
<g id="a_node22"><a xlink:title=" ">
<polygon fill="white" stroke="#bfbfbf" points="2683,-6 2683,-25 2807,-25 2807,-6 2683,-6"/>
<text text-anchor="middle" x="2745" y="-13" font-family="Helvetica,sans-Serif" font-size="10.00">TpetraLinearSystem.h</text>
</a>
</g>
</g>
<!-- Node1&#45;&gt;Node22 -->
<g id="edge21" class="edge">
<title>Node1&#45;&gt;Node22</title>
<path fill="none" stroke="midnightblue" d="M2931.65,-67.48C2888.06,-55.57 2826.34,-38.72 2786,-27.7"/>
<polygon fill="midnightblue" stroke="midnightblue" points="2786.8,-24.29 2776.23,-25.03 2784.95,-31.04 2786.8,-24.29"/>
</g>
<!-- Node23 -->
<g id="node23" class="node">
<title>Node23</title>
<g id="a_node23"><a xlink:title=" ">
<polygon fill="white" stroke="#bfbfbf" points="2825.5,-0.5 2825.5,-30.5 2974.5,-30.5 2974.5,-0.5 2825.5,-0.5"/>
<text text-anchor="start" x="2833.5" y="-18.5" font-family="Helvetica,sans-Serif" font-size="10.00">user_functions/TaylorGreen</text>
<text text-anchor="middle" x="2900" y="-7.5" font-family="Helvetica,sans-Serif" font-size="10.00">PressureAuxFunction.h</text>
</a>
</g>
</g>
<!-- Node1&#45;&gt;Node23 -->
<g id="edge22" class="edge">
<title>Node1&#45;&gt;Node23</title>
<path fill="none" stroke="midnightblue" d="M2964.99,-67.4C2953.57,-58.45 2938.61,-46.74 2925.92,-36.8"/>
<polygon fill="midnightblue" stroke="midnightblue" points="2928.01,-33.99 2917.97,-30.58 2923.69,-39.5 2928.01,-33.99"/>
</g>
<!-- Node24 -->
<g id="node24" class="node">
<title>Node24</title>
<g id="a_node24"><a xlink:title=" ">
<polygon fill="white" stroke="#bfbfbf" points="2992.5,-0.5 2992.5,-30.5 3141.5,-30.5 3141.5,-0.5 2992.5,-0.5"/>
<text text-anchor="start" x="3000.5" y="-18.5" font-family="Helvetica,sans-Serif" font-size="10.00">user_functions/TaylorGreen</text>
<text text-anchor="middle" x="3067" y="-7.5" font-family="Helvetica,sans-Serif" font-size="10.00">VelocityAuxFunction.h</text>
</a>
</g>
</g>
<!-- Node1&#45;&gt;Node24 -->
<g id="edge23" class="edge">
<title>Node1&#45;&gt;Node24</title>
<path fill="none" stroke="midnightblue" d="M3001.23,-67.4C3012.78,-58.45 3027.92,-46.74 3040.76,-36.8"/>
<polygon fill="midnightblue" stroke="midnightblue" points="3043.04,-39.46 3048.81,-30.58 3038.76,-33.93 3043.04,-39.46"/>
</g>
<!-- Node25 -->
<g id="node25" class="node">
<title>Node25</title>
<g id="a_node25"><a xlink:title=" ">
<polygon fill="white" stroke="#bfbfbf" points="3160,-0.5 3160,-30.5 3348,-30.5 3348,-0.5 3160,-0.5"/>
<text text-anchor="start" x="3168" y="-18.5" font-family="Helvetica,sans-Serif" font-size="10.00">user_functions/SinProfile</text>
<text text-anchor="middle" x="3254" y="-7.5" font-family="Helvetica,sans-Serif" font-size="10.00">ChannelFlowVelocityAuxFunction.h</text>
</a>
</g>
</g>
<!-- Node1&#45;&gt;Node25 -->
<g id="edge24" class="edge">
<title>Node1&#45;&gt;Node25</title>
<path fill="none" stroke="midnightblue" d="M3041.47,-67.48C3083.71,-57.34 3140.9,-43.63 3185.32,-32.97"/>
<polygon fill="midnightblue" stroke="midnightblue" points="3186.26,-36.35 3195.17,-30.61 3184.63,-29.54 3186.26,-36.35"/>
</g>
<!-- Node26 -->
<g id="node26" class="node">
<title>Node26</title>
<g id="a_node26"><a xlink:title=" ">
<polygon fill="white" stroke="#bfbfbf" points="3366.5,-6 3366.5,-25 3469.5,-25 3469.5,-6 3366.5,-6"/>
<text text-anchor="middle" x="3418" y="-13" font-family="Helvetica,sans-Serif" font-size="10.00">utils/StkHelpers.h</text>
</a>
</g>
</g>
<!-- Node1&#45;&gt;Node26 -->
<g id="edge25" class="edge">
<title>Node1&#45;&gt;Node26</title>
<path fill="none" stroke="midnightblue" d="M3062.16,-73.12C3138.11,-64.53 3255.87,-49.8 3357,-31 3362.83,-29.92 3368.94,-28.64 3374.94,-27.3"/>
<polygon fill="midnightblue" stroke="midnightblue" points="3375.93,-30.66 3384.89,-25 3374.35,-23.84 3375.93,-30.66"/>
</g>
<!-- Node27 -->
<g id="node27" class="node">
<title>Node27</title>
<g id="a_node27"><a xlink:title=" ">
<polygon fill="white" stroke="#bfbfbf" points="3488,-6 3488,-25 3588,-25 3588,-6 3488,-6"/>
<text text-anchor="middle" x="3538" y="-13" font-family="Helvetica,sans-Serif" font-size="10.00">Kokkos_Core.hpp</text>
</a>
</g>
</g>
<!-- Node1&#45;&gt;Node27 -->
<g id="edge26" class="edge">
<title>Node1&#45;&gt;Node27</title>
<path fill="none" stroke="midnightblue" d="M3062.06,-76.86C3160.34,-70.32 3332.94,-56.26 3479,-31 3484.79,-30 3490.86,-28.75 3496.81,-27.4"/>
<polygon fill="midnightblue" stroke="midnightblue" points="3497.71,-30.78 3506.63,-25.07 3496.1,-23.97 3497.71,-30.78"/>
</g>
<!-- Node28 -->
<g id="node28" class="node">
<title>Node28</title>
<g id="a_node28"><a xlink:title=" ">
<polygon fill="white" stroke="#bfbfbf" points="3606,-6 3606,-25 3706,-25 3706,-6 3606,-6"/>
<text text-anchor="middle" x="3656" y="-13" font-family="Helvetica,sans-Serif" font-size="10.00">Teuchos_RCP.hpp</text>
</a>
</g>
</g>
<!-- Node1&#45;&gt;Node28 -->
<g id="edge27" class="edge">
<title>Node1&#45;&gt;Node28</title>
<path fill="none" stroke="midnightblue" d="M3062.48,-79C3180,-74.38 3406.72,-62.01 3597,-31 3602.94,-30.03 3609.15,-28.78 3615.23,-27.41"/>
<polygon fill="midnightblue" stroke="midnightblue" points="3616.34,-30.74 3625.26,-25.03 3614.73,-23.93 3616.34,-30.74"/>
</g>
<!-- Node29 -->
<g id="node29" class="node">
<title>Node29</title>
<g id="a_node29"><a xlink:title=" ">
<polygon fill="white" stroke="#bfbfbf" points="3724.5,-6 3724.5,-25 3861.5,-25 3861.5,-6 3724.5,-6"/>
<text text-anchor="middle" x="3793" y="-13" font-family="Helvetica,sans-Serif" font-size="10.00">stk_mesh/base/Field.hpp</text>
</a>
</g>
</g>
<!-- Node1&#45;&gt;Node29 -->
<g id="edge28" class="edge">
<title>Node1&#45;&gt;Node29</title>
<path fill="none" stroke="midnightblue" d="M3062.09,-79.02C3196.65,-74.14 3478.53,-61.04 3715,-31 3723.74,-29.89 3732.97,-28.43 3741.92,-26.86"/>
<polygon fill="midnightblue" stroke="midnightblue" points="3742.63,-30.29 3751.85,-25.06 3741.39,-23.4 3742.63,-30.29"/>
</g>
<!-- Node30 -->
<g id="node30" class="node">
<title>Node30</title>
<g id="a_node30"><a xlink:title=" ">
<polygon fill="white" stroke="#bfbfbf" points="3879.5,-6 3879.5,-25 4042.5,-25 4042.5,-6 3879.5,-6"/>
<text text-anchor="middle" x="3961" y="-13" font-family="Helvetica,sans-Serif" font-size="10.00">stk_mesh/base/FieldState.hpp</text>
</a>
</g>
</g>
<!-- Node1&#45;&gt;Node30 -->
<g id="edge29" class="edge">
<title>Node1&#45;&gt;Node30</title>
<path fill="none" stroke="midnightblue" d="M3062.22,-79.73C3217.71,-75.65 3573.57,-63.33 3871,-31 3881.72,-29.83 3893.11,-28.26 3904.05,-26.58"/>
<polygon fill="midnightblue" stroke="midnightblue" points="3904.62,-30.04 3913.95,-25.02 3903.52,-23.12 3904.62,-30.04"/>
</g>
<!-- Node31 -->
<g id="node31" class="node">
<title>Node31</title>
<g id="a_node31"><a xlink:title=" ">
<polygon fill="white" stroke="#bfbfbf" points="4061,-6 4061,-25 4223,-25 4223,-6 4061,-6"/>
<text text-anchor="middle" x="4142" y="-13" font-family="Helvetica,sans-Serif" font-size="10.00">stk_mesh/base/MetaData.hpp</text>
</a>
</g>
</g>
<!-- Node1&#45;&gt;Node31 -->
<g id="edge30" class="edge">
<title>Node1&#45;&gt;Node31</title>
<path fill="none" stroke="midnightblue" d="M3062.02,-80.81C3239.5,-78.58 3683.09,-69.31 4052,-31 4062.85,-29.87 4074.38,-28.3 4085.43,-26.61"/>
<polygon fill="midnightblue" stroke="midnightblue" points="4086.09,-30.05 4095.42,-25.03 4085,-23.13 4086.09,-30.05"/>
</g>
<!-- Node32 -->
<g id="node32" class="node">
<title>Node32</title>
<g id="a_node32"><a xlink:title=" ">
<polygon fill="white" stroke="#bfbfbf" points="4241,-6 4241,-25 4375,-25 4375,-6 4241,-6"/>
<text text-anchor="middle" x="4308" y="-13" font-family="Helvetica,sans-Serif" font-size="10.00">stk_mesh/base/Ngp.hpp</text>
</a>
</g>
</g>
<!-- Node1&#45;&gt;Node32 -->
<g id="edge31" class="edge">
<title>Node1&#45;&gt;Node32</title>
<path fill="none" stroke="midnightblue" d="M3062.01,-79.84C3299.39,-74.6 4003.87,-57.23 4232,-31 4240.82,-29.99 4250.16,-28.53 4259.15,-26.92"/>
<polygon fill="midnightblue" stroke="midnightblue" points="4259.93,-30.34 4269.12,-25.07 4258.64,-23.46 4259.93,-30.34"/>
</g>
<!-- Node33 -->
<g id="node33" class="node">
<title>Node33</title>
<g id="a_node33"><a xlink:title=" ">
<polygon fill="white" stroke="#bfbfbf" points="4393.5,-6 4393.5,-25 4550.5,-25 4550.5,-6 4393.5,-6"/>
<text text-anchor="middle" x="4472" y="-13" font-family="Helvetica,sans-Serif" font-size="10.00">stk_mesh/base/NgpField.hpp</text>
</a>
</g>
</g>
<!-- Node1&#45;&gt;Node33 -->
<g id="edge32" class="edge">
<title>Node1&#45;&gt;Node33</title>
<path fill="none" stroke="midnightblue" d="M3062.24,-82.17C3276.08,-83.21 3882.69,-81.13 4384,-31 4394.62,-29.94 4405.91,-28.4 4416.73,-26.71"/>
<polygon fill="midnightblue" stroke="midnightblue" points="4417.61,-30.11 4426.93,-25.06 4416.5,-23.2 4417.61,-30.11"/>
</g>
<!-- Node34 -->
<g id="node34" class="node">
<title>Node34</title>
<g id="a_node34"><a xlink:title=" ">
<polygon fill="white" stroke="#bfbfbf" points="4568.5,-6 4568.5,-25 4761.5,-25 4761.5,-6 4568.5,-6"/>
<text text-anchor="middle" x="4665" y="-13" font-family="Helvetica,sans-Serif" font-size="10.00">stk_mesh/base/NgpFieldParallel.hpp</text>
</a>
</g>
</g>
<!-- Node1&#45;&gt;Node34 -->
<g id="edge33" class="edge">
<title>Node1&#45;&gt;Node34</title>
<path fill="none" stroke="midnightblue" d="M3062.35,-81.9C3293.65,-82.45 3987.16,-79.59 4560,-31 4573.37,-29.87 4587.64,-28.2 4601.22,-26.4"/>
<polygon fill="midnightblue" stroke="midnightblue" points="4602,-29.83 4611.44,-25 4601.05,-22.89 4602,-29.83"/>
</g>
<!-- Node35 -->
<g id="node35" class="node">
<title>Node35</title>
<g id="a_node35"><a xlink:title=" ">
<polygon fill="white" stroke="#bfbfbf" points="4780,-0.5 4780,-30.5 4932,-30.5 4932,-0.5 4780,-0.5"/>
<text text-anchor="start" x="4788" y="-18.5" font-family="Helvetica,sans-Serif" font-size="10.00">stk_mesh/base/NgpProfiling</text>
<text text-anchor="middle" x="4856" y="-7.5" font-family="Helvetica,sans-Serif" font-size="10.00">Block.hpp</text>
</a>
</g>
</g>
<!-- Node1&#45;&gt;Node35 -->
<g id="edge34" class="edge">
<title>Node1&#45;&gt;Node35</title>
<path fill="none" stroke="midnightblue" d="M3062.02,-80.75C3359.38,-77.69 4411.92,-64.76 4769.49,-31.03"/>
<polygon fill="midnightblue" stroke="midnightblue" points="4770,-34.5 4779.61,-30.05 4769.32,-27.53 4770,-34.5"/>
</g>
<!-- Node36 -->
<g id="node36" class="node">
<title>Node36</title>
<g id="a_node36"><a xlink:title=" ">
<polygon fill="white" stroke="#bfbfbf" points="4950.5,-6 4950.5,-25 5083.5,-25 5083.5,-6 4950.5,-6"/>
<text text-anchor="middle" x="5017" y="-13" font-family="Helvetica,sans-Serif" font-size="10.00">stk_mesh/base/Part.hpp</text>
</a>
</g>
</g>
<!-- Node1&#45;&gt;Node36 -->
<g id="edge35" class="edge">
<title>Node1&#45;&gt;Node36</title>
<path fill="none" stroke="midnightblue" d="M3062.11,-81.18C3380.31,-79.62 4567.51,-71.17 4941,-31 4950.12,-30.02 4959.79,-28.53 4969.05,-26.87"/>
<polygon fill="midnightblue" stroke="midnightblue" points="4969.72,-30.31 4978.91,-25.02 4968.44,-23.43 4969.72,-30.31"/>
</g>
<!-- Node37 -->
<g id="node37" class="node">
<title>Node37</title>
<g id="a_node37"><a xlink:title=" ">
<polygon fill="white" stroke="#bfbfbf" points="5102,-6 5102,-25 5244,-25 5244,-6 5102,-6"/>
<text text-anchor="middle" x="5173" y="-13" font-family="Helvetica,sans-Serif" font-size="10.00">stk_mesh/base/Types.hpp</text>
</a>
</g>
</g>
<!-- Node1&#45;&gt;Node37 -->
<g id="edge36" class="edge">
<title>Node1&#45;&gt;Node37</title>
<path fill="none" stroke="midnightblue" d="M3062.23,-81.25C3395.86,-79.95 4687.91,-72.31 5093,-31 5102.69,-30.01 5112.97,-28.5 5122.82,-26.82"/>
<polygon fill="midnightblue" stroke="midnightblue" points="5123.66,-30.23 5132.89,-25.03 5122.43,-23.34 5123.66,-30.23"/>
</g>
<!-- Node38 -->
<g id="node38" class="node">
<title>Node38</title>
<g id="a_node38"><a xlink:title=" ">
<polygon fill="white" stroke="#bfbfbf" points="5262.5,-0.5 5262.5,-30.5 5393.5,-30.5 5393.5,-0.5 5262.5,-0.5"/>
<text text-anchor="start" x="5270.5" y="-18.5" font-family="Helvetica,sans-Serif" font-size="10.00">stk_util/parallel/Parallel</text>
<text text-anchor="middle" x="5328" y="-7.5" font-family="Helvetica,sans-Serif" font-size="10.00">Reduce.hpp</text>
</a>
</g>
</g>
<!-- Node1&#45;&gt;Node38 -->
<g id="edge37" class="edge">
<title>Node1&#45;&gt;Node38</title>
<path fill="none" stroke="midnightblue" d="M3062.29,-81.53C3409.01,-81.39 4794.49,-77.93 5252.26,-30.91"/>
<polygon fill="midnightblue" stroke="midnightblue" points="5252.66,-34.39 5262.24,-29.86 5251.93,-27.43 5252.66,-34.39"/>
</g>
<!-- Node39 -->
<g id="node39" class="node">
<title>Node39</title>
<g id="a_node39"><a xlink:title=" ">
<polygon fill="white" stroke="#bfbfbf" points="5411.5,-6 5411.5,-25 5576.5,-25 5576.5,-6 5411.5,-6"/>
<text text-anchor="middle" x="5494" y="-13" font-family="Helvetica,sans-Serif" font-size="10.00">stk_util/util/ReportHandler.hpp</text>
</a>
</g>
</g>
<!-- Node1&#45;&gt;Node39 -->
<g id="edge38" class="edge">
<title>Node1&#45;&gt;Node39</title>
<path fill="none" stroke="midnightblue" d="M3062.26,-81.31C3425.45,-80.21 4933.05,-73.14 5403,-31 5414.46,-29.97 5426.67,-28.38 5438.29,-26.61"/>
<polygon fill="midnightblue" stroke="midnightblue" points="5438.99,-30.05 5448.33,-25.03 5437.9,-23.13 5438.99,-30.05"/>
</g>
<!-- Node40 -->
<g id="node40" class="node">
<title>Node40</title>
<g id="a_node40"><a xlink:title=" ">
<polygon fill="white" stroke="#bfbfbf" points="5594.5,-6 5594.5,-25 5715.5,-25 5715.5,-6 5594.5,-6"/>
<text text-anchor="middle" x="5655" y="-13" font-family="Helvetica,sans-Serif" font-size="10.00">stk_io/IossBridge.hpp</text>
</a>
</g>
</g>
<!-- Node1&#45;&gt;Node40 -->
<g id="edge39" class="edge">
<title>Node1&#45;&gt;Node40</title>
<path fill="none" stroke="midnightblue" d="M3062.09,-80.85C3470.38,-77.38 5330.36,-60.08 5586,-31 5594.13,-30.08 5602.71,-28.65 5610.97,-27.04"/>
<polygon fill="midnightblue" stroke="midnightblue" points="5611.72,-30.45 5620.81,-25.01 5610.31,-23.6 5611.72,-30.45"/>
</g>
<!-- Node41 -->
<g id="node41" class="node">
<title>Node41</title>
<g id="a_node41"><a xlink:title=" ">
<polygon fill="white" stroke="#bfbfbf" points="5734,-6 5734,-25 5778,-25 5778,-6 5734,-6"/>
<text text-anchor="middle" x="5756" y="-13" font-family="Helvetica,sans-Serif" font-size="10.00">string</text>
</a>
</g>
</g>
<!-- Node1&#45;&gt;Node41 -->
<g id="edge40" class="edge">
<title>Node1&#45;&gt;Node41</title>
<path fill="none" stroke="midnightblue" d="M3062.21,-80.97C3498.32,-77.94 5592.09,-61.83 5725,-31 5727.21,-30.49 5729.45,-29.8 5731.66,-29.01"/>
<polygon fill="midnightblue" stroke="midnightblue" points="5733.16,-32.18 5741.01,-25.05 5730.43,-25.74 5733.16,-32.18"/>
</g>
<!-- Node42 -->
<g id="node42" class="node">
<title>Node42</title>
<g id="a_node42"><a xlink:title=" ">
<polygon fill="white" stroke="#bfbfbf" points="5796.5,-6 5796.5,-25 5841.5,-25 5841.5,-6 5796.5,-6"/>
<text text-anchor="middle" x="5819" y="-13" font-family="Helvetica,sans-Serif" font-size="10.00">utility</text>
</a>
</g>
</g>
<!-- Node1&#45;&gt;Node42 -->
<g id="edge41" class="edge">
<title>Node1&#45;&gt;Node42</title>
<path fill="none" stroke="midnightblue" d="M3062.18,-80.98C3504.09,-77.95 5650.71,-61.73 5787,-31 5789.36,-30.47 5791.76,-29.75 5794.12,-28.92"/>
<polygon fill="midnightblue" stroke="midnightblue" points="5795.59,-32.11 5803.49,-25.06 5792.92,-25.64 5795.59,-32.11"/>
</g>
<!-- Node43 -->
<g id="node43" class="node">
<title>Node43</title>
<g id="a_node43"><a xlink:title=" ">
<polygon fill="white" stroke="#bfbfbf" points="5860,-6 5860,-25 5916,-25 5916,-6 5860,-6"/>
<text text-anchor="middle" x="5888" y="-13" font-family="Helvetica,sans-Serif" font-size="10.00">iomanip</text>
</a>
</g>
</g>
<!-- Node1&#45;&gt;Node43 -->
<g id="edge42" class="edge">
<title>Node1&#45;&gt;Node43</title>
<path fill="none" stroke="midnightblue" d="M3062.29,-81.78C3495.94,-83.09 5571.26,-86.41 5851,-31 5854.08,-30.39 5857.24,-29.54 5860.34,-28.55"/>
<polygon fill="midnightblue" stroke="midnightblue" points="5861.74,-31.76 5869.94,-25.06 5859.35,-25.19 5861.74,-31.76"/>
</g>
<!-- Node44 -->
<g id="node44" class="node">
<title>Node44</title>
<g id="a_node44"><a xlink:title=" ">
<polygon fill="white" stroke="#bfbfbf" points="5934.5,-6 5934.5,-25 5991.5,-25 5991.5,-6 5934.5,-6"/>
<text text-anchor="middle" x="5963" y="-13" font-family="Helvetica,sans-Serif" font-size="10.00">ostream</text>
</a>
</g>
</g>
<!-- Node1&#45;&gt;Node44 -->
<g id="edge43" class="edge">
<title>Node1&#45;&gt;Node44</title>
<path fill="none" stroke="midnightblue" d="M3062.16,-81.78C3502.15,-83.1 5637.31,-86.58 5925,-31 5928.26,-30.37 5931.6,-29.48 5934.89,-28.45"/>
<polygon fill="midnightblue" stroke="midnightblue" points="5936.19,-31.71 5944.44,-25.06 5933.84,-25.11 5936.19,-31.71"/>
</g>
<!-- Node45 -->
<g id="node45" class="node">
<title>Node45</title>
<g id="a_node45"><a xlink:title=" ">
<polygon fill="white" stroke="#bfbfbf" points="6009.5,-6 6009.5,-25 6074.5,-25 6074.5,-6 6009.5,-6"/>
<text text-anchor="middle" x="6042" y="-13" font-family="Helvetica,sans-Serif" font-size="10.00">stdexcept</text>
</a>
</g>
</g>
<!-- Node1&#45;&gt;Node45 -->
<g id="edge44" class="edge">
<title>Node1&#45;&gt;Node45</title>
<path fill="none" stroke="midnightblue" d="M3062.35,-81.7C3509.45,-82.62 5704.78,-84.39 6001,-31 6004.71,-30.33 6008.53,-29.37 6012.28,-28.26"/>
<polygon fill="midnightblue" stroke="midnightblue" points="6013.53,-31.53 6021.92,-25.06 6011.32,-24.89 6013.53,-31.53"/>
</g>
</g>
</svg>
