<?xml version="1.0" encoding="UTF-8" standalone="no"?>
<!DOCTYPE svg PUBLIC "-//W3C//DTD SVG 1.1//EN"
 "http://www.w3.org/Graphics/SVG/1.1/DTD/svg11.dtd">
<!-- Generated by graphviz version 2.43.0 (0)
 -->
<!-- Title: MaxCourantReynolds.C Pages: 1 -->
<svg width="1708pt" height="95pt"
 viewBox="0.00 0.00 1708.00 95.00" xmlns="http://www.w3.org/2000/svg" xmlns:xlink="http://www.w3.org/1999/xlink">
<g id="graph0" class="graph" transform="scale(1 1) rotate(0) translate(4 91)">
<title>MaxCourantReynolds.C</title>
<polygon fill="white" stroke="transparent" points="-4,4 -4,-91 1704,-91 1704,4 -4,4"/>
<!-- Node1 -->
<g id="node1" class="node">
<title>Node1</title>
<g id="a_node1"><a xlink:title=" ">
<polygon fill="#bfbfbf" stroke="black" points="870.5,-67.5 870.5,-86.5 1001.5,-86.5 1001.5,-67.5 870.5,-67.5"/>
<text text-anchor="middle" x="936" y="-74.5" font-family="Helvetica,sans-Serif" font-size="10.00">MaxCourantReynolds.C</text>
</a>
</g>
</g>
<!-- Node2 -->
<g id="node2" class="node">
<title>Node2</title>
<g id="a_node2"><a xlink:title=" ">
<polygon fill="white" stroke="#bfbfbf" points="0,-6 0,-25 190,-25 190,-6 0,-6"/>
<text text-anchor="middle" x="95" y="-13" font-family="Helvetica,sans-Serif" font-size="10.00">matrix_free/MaxCourantReynolds.h</text>
</a>
</g>
</g>
<!-- Node1&#45;&gt;Node2 -->
<g id="edge1" class="edge">
<title>Node1&#45;&gt;Node2</title>
<path fill="none" stroke="midnightblue" d="M870.3,-73.7C741.34,-68.81 446.13,-55.74 199,-31 186.48,-29.75 173.14,-28.11 160.35,-26.4"/>
<polygon fill="midnightblue" stroke="midnightblue" points="160.61,-22.9 150.23,-25.01 159.66,-29.84 160.61,-22.9"/>
</g>
<!-- Node3 -->
<g id="node3" class="node">
<title>Node3</title>
<g id="a_node3"><a xlink:title=" ">
<polygon fill="white" stroke="#bfbfbf" points="208.5,-6 208.5,-25 381.5,-25 381.5,-6 208.5,-6"/>
<text text-anchor="middle" x="295" y="-13" font-family="Helvetica,sans-Serif" font-size="10.00">matrix_free/PolynomialOrders.h</text>
</a>
</g>
</g>
<!-- Node1&#45;&gt;Node3 -->
<g id="edge2" class="edge">
<title>Node1&#45;&gt;Node3</title>
<path fill="none" stroke="midnightblue" d="M870.3,-72.06C767.6,-65.57 562.87,-51.29 390,-31 379.22,-29.73 367.78,-28.17 356.71,-26.55"/>
<polygon fill="midnightblue" stroke="midnightblue" points="357.09,-23.07 346.68,-25.05 356.05,-29.99 357.09,-23.07"/>
</g>
<!-- Node4 -->
<g id="node4" class="node">
<title>Node4</title>
<g id="a_node4"><a xlink:title=" ">
<polygon fill="white" stroke="#bfbfbf" points="399.5,-6 399.5,-25 558.5,-25 558.5,-6 399.5,-6"/>
<text text-anchor="middle" x="479" y="-13" font-family="Helvetica,sans-Serif" font-size="10.00">matrix_free/ShuffledAccess.h</text>
</a>
</g>
</g>
<!-- Node1&#45;&gt;Node4 -->
<g id="edge3" class="edge">
<title>Node1&#45;&gt;Node4</title>
<path fill="none" stroke="midnightblue" d="M870.23,-68.82C796.35,-60.56 672.89,-46.17 567,-31 557.88,-29.69 548.25,-28.21 538.84,-26.71"/>
<polygon fill="midnightblue" stroke="midnightblue" points="539.17,-23.21 528.74,-25.07 538.05,-30.12 539.17,-23.21"/>
</g>
<!-- Node5 -->
<g id="node5" class="node">
<title>Node5</title>
<g id="a_node5"><a xlink:title=" ">
<polygon fill="white" stroke="#bfbfbf" points="576.5,-6 576.5,-25 743.5,-25 743.5,-6 576.5,-6"/>
<text text-anchor="middle" x="660" y="-13" font-family="Helvetica,sans-Serif" font-size="10.00">matrix_free/ValidSimdLength.h</text>
</a>
</g>
</g>
<!-- Node1&#45;&gt;Node5 -->
<g id="edge4" class="edge">
<title>Node1&#45;&gt;Node5</title>
<path fill="none" stroke="midnightblue" d="M896.46,-67.48C847.17,-56.85 762.91,-38.68 709.41,-27.15"/>
<polygon fill="midnightblue" stroke="midnightblue" points="709.98,-23.7 699.47,-25.01 708.51,-30.54 709.98,-23.7"/>
</g>
<!-- Node6 -->
<g id="node6" class="node">
<title>Node6</title>
<g id="a_node6"><a xlink:title=" ">
<polygon fill="white" stroke="#bfbfbf" points="762,-0.5 762,-30.5 916,-30.5 916,-0.5 762,-0.5"/>
<text text-anchor="start" x="770" y="-18.5" font-family="Helvetica,sans-Serif" font-size="10.00">matrix_free/ElementVolume</text>
<text text-anchor="middle" x="839" y="-7.5" font-family="Helvetica,sans-Serif" font-size="10.00">Integral.h</text>
</a>
</g>
</g>
<!-- Node1&#45;&gt;Node6 -->
<g id="edge5" class="edge">
<title>Node1&#45;&gt;Node6</title>
<path fill="none" stroke="midnightblue" d="M922.1,-67.48C908.72,-59.27 888,-46.56 870.6,-35.88"/>
<polygon fill="midnightblue" stroke="midnightblue" points="872.22,-32.77 861.86,-30.52 868.56,-38.74 872.22,-32.77"/>
</g>
<!-- Node7 -->
<g id="node7" class="node">
<title>Node7</title>
<g id="a_node7"><a xlink:title=" ">
<polygon fill="white" stroke="#bfbfbf" points="934,-6 934,-25 1132,-25 1132,-6 934,-6"/>
<text text-anchor="middle" x="1033" y="-13" font-family="Helvetica,sans-Serif" font-size="10.00">matrix_free/ElementSCSInterpolate.h</text>
</a>
</g>
</g>
<!-- Node1&#45;&gt;Node7 -->
<g id="edge6" class="edge">
<title>Node1&#45;&gt;Node7</title>
<path fill="none" stroke="midnightblue" d="M949.9,-67.48C965.67,-57.8 991.64,-41.87 1010.35,-30.39"/>
<polygon fill="midnightblue" stroke="midnightblue" points="1012.43,-33.22 1019.13,-25.01 1008.77,-27.25 1012.43,-33.22"/>
</g>
<!-- Node8 -->
<g id="node8" class="node">
<title>Node8</title>
<g id="a_node8"><a xlink:title=" ">
<polygon fill="white" stroke="#bfbfbf" points="1150,-6 1150,-25 1286,-25 1286,-6 1150,-6"/>
<text text-anchor="middle" x="1218" y="-13" font-family="Helvetica,sans-Serif" font-size="10.00">matrix_free/LocalArray.h</text>
</a>
</g>
</g>
<!-- Node1&#45;&gt;Node8 -->
<g id="edge7" class="edge">
<title>Node1&#45;&gt;Node8</title>
<path fill="none" stroke="midnightblue" d="M976.4,-67.48C1026.87,-56.83 1113.21,-38.61 1167.85,-27.08"/>
<polygon fill="midnightblue" stroke="midnightblue" points="1168.61,-30.5 1177.67,-25.01 1167.16,-23.65 1168.61,-30.5"/>
</g>
<!-- Node9 -->
<g id="node9" class="node">
<title>Node9</title>
<g id="a_node9"><a xlink:title=" ">
<polygon fill="white" stroke="#bfbfbf" points="1304,-6 1304,-25 1408,-25 1408,-6 1304,-6"/>
<text text-anchor="middle" x="1356" y="-13" font-family="Helvetica,sans-Serif" font-size="10.00">KokkosInterface.h</text>
</a>
</g>
</g>
<!-- Node1&#45;&gt;Node9 -->
<g id="edge8" class="edge">
<title>Node1&#45;&gt;Node9</title>
<path fill="none" stroke="midnightblue" d="M1001.51,-69.95C1073.72,-62.78 1193.17,-49.43 1295,-31 1300.83,-29.94 1306.94,-28.68 1312.95,-27.35"/>
<polygon fill="midnightblue" stroke="midnightblue" points="1313.94,-30.71 1322.9,-25.06 1312.37,-23.89 1313.94,-30.71"/>
</g>
<!-- Node10 -->
<g id="node10" class="node">
<title>Node10</title>
<g id="a_node10"><a xlink:title=" ">
<polygon fill="white" stroke="#bfbfbf" points="1426.5,-6 1426.5,-25 1571.5,-25 1571.5,-6 1426.5,-6"/>
<text text-anchor="middle" x="1499" y="-13" font-family="Helvetica,sans-Serif" font-size="10.00">Kokkos_NumericTraits.hpp</text>
</a>
</g>
</g>
<!-- Node1&#45;&gt;Node10 -->
<g id="edge9" class="edge">
<title>Node1&#45;&gt;Node10</title>
<path fill="none" stroke="midnightblue" d="M1001.54,-71.57C1094.3,-64.92 1269.05,-50.97 1417,-31 1425.85,-29.81 1435.2,-28.34 1444.3,-26.81"/>
<polygon fill="midnightblue" stroke="midnightblue" points="1445.16,-30.22 1454.42,-25.07 1443.97,-23.32 1445.16,-30.22"/>
</g>
<!-- Node11 -->
<g id="node11" class="node">
<title>Node11</title>
<g id="a_node11"><a xlink:title=" ">
<polygon fill="white" stroke="#bfbfbf" points="1590,-6 1590,-25 1700,-25 1700,-6 1590,-6"/>
<text text-anchor="middle" x="1645" y="-13" font-family="Helvetica,sans-Serif" font-size="10.00">stk_simd/Simd.hpp</text>
</a>
</g>
</g>
<!-- Node1&#45;&gt;Node11 -->
<g id="edge10" class="edge">
<title>Node1&#45;&gt;Node11</title>
<path fill="none" stroke="midnightblue" d="M1001.82,-74.73C1118.91,-71.73 1370.83,-61.95 1581,-31 1587.74,-30.01 1594.82,-28.69 1601.72,-27.25"/>
<polygon fill="midnightblue" stroke="midnightblue" points="1602.62,-30.63 1611.63,-25.07 1601.12,-23.8 1602.62,-30.63"/>
</g>
</g>
</svg>
