<?xml version="1.0" encoding="UTF-8" standalone="no"?>
<!DOCTYPE svg PUBLIC "-//W3C//DTD SVG 1.1//EN"
 "http://www.w3.org/Graphics/SVG/1.1/DTD/svg11.dtd">
<!-- Generated by graphviz version 2.43.0 (0)
 -->
<!-- Title: MdotOpenCorrectorAlg.C Pages: 1 -->
<svg width="1369pt" height="95pt"
 viewBox="0.00 0.00 1368.50 95.00" xmlns="http://www.w3.org/2000/svg" xmlns:xlink="http://www.w3.org/1999/xlink">
<g id="graph0" class="graph" transform="scale(1 1) rotate(0) translate(4 91)">
<title>MdotOpenCorrectorAlg.C</title>
<polygon fill="white" stroke="transparent" points="-4,4 -4,-91 1364.5,-91 1364.5,4 -4,4"/>
<!-- Node1 -->
<g id="node1" class="node">
<title>Node1</title>
<g id="a_node1"><a xlink:title=" ">
<polygon fill="#bfbfbf" stroke="black" points="675,-67.5 675,-86.5 812,-86.5 812,-67.5 675,-67.5"/>
<text text-anchor="middle" x="743.5" y="-74.5" font-family="Helvetica,sans-Serif" font-size="10.00">MdotOpenCorrectorAlg.C</text>
</a>
</g>
</g>
<!-- Node2 -->
<g id="node2" class="node">
<title>Node2</title>
<g id="a_node2"><a xlink:title=" ">
<polygon fill="white" stroke="#bfbfbf" points="0,-0.5 0,-30.5 191,-30.5 191,-0.5 0,-0.5"/>
<text text-anchor="start" x="8" y="-18.5" font-family="Helvetica,sans-Serif" font-size="10.00">ngp_algorithms/MdotOpenCorrector</text>
<text text-anchor="middle" x="95.5" y="-7.5" font-family="Helvetica,sans-Serif" font-size="10.00">Alg.h</text>
</a>
</g>
</g>
<!-- Node1&#45;&gt;Node2 -->
<g id="edge1" class="edge">
<title>Node1&#45;&gt;Node2</title>
<path fill="none" stroke="midnightblue" d="M674.68,-71.55C573.25,-64.71 377.42,-50.46 201.22,-31.15"/>
<polygon fill="midnightblue" stroke="midnightblue" points="201.57,-27.67 191.24,-30.05 200.8,-34.63 201.57,-27.67"/>
</g>
<!-- Node3 -->
<g id="node3" class="node">
<title>Node3</title>
<g id="a_node3"><a xlink:title=" ">
<polygon fill="white" stroke="#bfbfbf" points="209,-6 209,-25 310,-25 310,-6 209,-6"/>
<text text-anchor="middle" x="259.5" y="-13" font-family="Helvetica,sans-Serif" font-size="10.00">BuildTemplates.h</text>
</a>
</g>
</g>
<!-- Node1&#45;&gt;Node3 -->
<g id="edge2" class="edge">
<title>Node1&#45;&gt;Node3</title>
<path fill="none" stroke="midnightblue" d="M674.82,-71.5C590.65,-65.34 443.86,-52.53 319.5,-31 313.61,-29.98 307.45,-28.72 301.4,-27.37"/>
<polygon fill="midnightblue" stroke="midnightblue" points="301.94,-23.9 291.41,-25.03 300.35,-30.72 301.94,-23.9"/>
</g>
<!-- Node4 -->
<g id="node4" class="node">
<title>Node4</title>
<g id="a_node4"><a xlink:title=" ">
<polygon fill="white" stroke="#bfbfbf" points="328.5,-6 328.5,-25 502.5,-25 502.5,-6 328.5,-6"/>
<text text-anchor="middle" x="415.5" y="-13" font-family="Helvetica,sans-Serif" font-size="10.00">ngp_algorithms/MdotAlgDriver.h</text>
</a>
</g>
</g>
<!-- Node1&#45;&gt;Node4 -->
<g id="edge3" class="edge">
<title>Node1&#45;&gt;Node4</title>
<path fill="none" stroke="midnightblue" d="M696.51,-67.48C637.32,-56.74 535.71,-38.31 472.25,-26.79"/>
<polygon fill="midnightblue" stroke="midnightblue" points="472.87,-23.35 462.41,-25.01 471.62,-30.24 472.87,-23.35"/>
</g>
<!-- Node5 -->
<g id="node5" class="node">
<title>Node5</title>
<g id="a_node5"><a xlink:title=" ">
<polygon fill="white" stroke="#bfbfbf" points="520.5,-6 520.5,-25 658.5,-25 658.5,-6 520.5,-6"/>
<text text-anchor="middle" x="589.5" y="-13" font-family="Helvetica,sans-Serif" font-size="10.00">ngp_utils/NgpLoopUtils.h</text>
</a>
</g>
</g>
<!-- Node1&#45;&gt;Node5 -->
<g id="edge4" class="edge">
<title>Node1&#45;&gt;Node5</title>
<path fill="none" stroke="midnightblue" d="M721.44,-67.48C695.13,-57.31 650.99,-40.26 621.08,-28.7"/>
<polygon fill="midnightblue" stroke="midnightblue" points="622.11,-25.35 611.52,-25.01 619.59,-31.88 622.11,-25.35"/>
</g>
<!-- Node6 -->
<g id="node6" class="node">
<title>Node6</title>
<g id="a_node6"><a xlink:title=" ">
<polygon fill="white" stroke="#bfbfbf" points="676.5,-6 676.5,-25 810.5,-25 810.5,-6 676.5,-6"/>
<text text-anchor="middle" x="743.5" y="-13" font-family="Helvetica,sans-Serif" font-size="10.00">ngp_utils/NgpFieldOps.h</text>
</a>
</g>
</g>
<!-- Node1&#45;&gt;Node6 -->
<g id="edge5" class="edge">
<title>Node1&#45;&gt;Node6</title>
<path fill="none" stroke="midnightblue" d="M743.5,-67.48C743.5,-59.08 743.5,-45.98 743.5,-35.16"/>
<polygon fill="midnightblue" stroke="midnightblue" points="747,-35.01 743.5,-25.01 740,-35.01 747,-35.01"/>
</g>
<!-- Node7 -->
<g id="node7" class="node">
<title>Node7</title>
<g id="a_node7"><a xlink:title=" ">
<polygon fill="white" stroke="#bfbfbf" points="828.5,-6 828.5,-25 986.5,-25 986.5,-6 828.5,-6"/>
<text text-anchor="middle" x="907.5" y="-13" font-family="Helvetica,sans-Serif" font-size="10.00">ngp_utils/NgpFieldManager.h</text>
</a>
</g>
</g>
<!-- Node1&#45;&gt;Node7 -->
<g id="edge6" class="edge">
<title>Node1&#45;&gt;Node7</title>
<path fill="none" stroke="midnightblue" d="M767,-67.48C795.13,-57.27 842.43,-40.11 874.29,-28.55"/>
<polygon fill="midnightblue" stroke="midnightblue" points="875.84,-31.71 884.05,-25.01 873.45,-25.13 875.84,-31.71"/>
</g>
<!-- Node8 -->
<g id="node8" class="node">
<title>Node8</title>
<g id="a_node8"><a xlink:title=" ">
<polygon fill="white" stroke="#bfbfbf" points="1004,-6 1004,-25 1061,-25 1061,-6 1004,-6"/>
<text text-anchor="middle" x="1032.5" y="-13" font-family="Helvetica,sans-Serif" font-size="10.00">Realm.h</text>
</a>
</g>
</g>
<!-- Node1&#45;&gt;Node8 -->
<g id="edge7" class="edge">
<title>Node1&#45;&gt;Node8</title>
<path fill="none" stroke="midnightblue" d="M811.97,-67.49C863.12,-60.24 934.44,-48.23 995.5,-31 998.09,-30.27 1000.74,-29.43 1003.39,-28.52"/>
<polygon fill="midnightblue" stroke="midnightblue" points="1004.6,-31.8 1012.78,-25.06 1002.18,-25.23 1004.6,-31.8"/>
</g>
<!-- Node9 -->
<g id="node9" class="node">
<title>Node9</title>
<g id="a_node9"><a xlink:title=" ">
<polygon fill="white" stroke="#bfbfbf" points="1079,-6 1079,-25 1182,-25 1182,-6 1079,-6"/>
<text text-anchor="middle" x="1130.5" y="-13" font-family="Helvetica,sans-Serif" font-size="10.00">utils/StkHelpers.h</text>
</a>
</g>
</g>
<!-- Node1&#45;&gt;Node9 -->
<g id="edge8" class="edge">
<title>Node1&#45;&gt;Node9</title>
<path fill="none" stroke="midnightblue" d="M812.09,-68.59C878.48,-60.94 981.82,-47.77 1070.5,-31 1076.03,-29.95 1081.81,-28.73 1087.52,-27.44"/>
<polygon fill="midnightblue" stroke="midnightblue" points="1088.68,-30.76 1097.62,-25.08 1087.08,-23.94 1088.68,-30.76"/>
</g>
<!-- Node10 -->
<g id="node10" class="node">
<title>Node10</title>
<g id="a_node10"><a xlink:title=" ">
<polygon fill="white" stroke="#bfbfbf" points="1200.5,-6 1200.5,-25 1360.5,-25 1360.5,-6 1200.5,-6"/>
<text text-anchor="middle" x="1280.5" y="-13" font-family="Helvetica,sans-Serif" font-size="10.00">stk_mesh/base/NgpMesh.hpp</text>
</a>
</g>
</g>
<!-- Node1&#45;&gt;Node10 -->
<g id="edge9" class="edge">
<title>Node1&#45;&gt;Node10</title>
<path fill="none" stroke="midnightblue" d="M812.34,-70.41C900.42,-62.95 1057.62,-48.61 1191.5,-31 1201.28,-29.71 1211.63,-28.18 1221.69,-26.6"/>
<polygon fill="midnightblue" stroke="midnightblue" points="1222.29,-30.05 1231.62,-25.02 1221.19,-23.14 1222.29,-30.05"/>
</g>
</g>
</svg>
