<?xml version="1.0" encoding="UTF-8" standalone="no"?>
<!DOCTYPE svg PUBLIC "-//W3C//DTD SVG 1.1//EN"
 "http://www.w3.org/Graphics/SVG/1.1/DTD/svg11.dtd">
<!-- Generated by graphviz version 2.43.0 (0)
 -->
<!-- Title: MdotOpenEdgeAlg.C Pages: 1 -->
<svg width="2141pt" height="95pt"
 viewBox="0.00 0.00 2141.00 95.00" xmlns="http://www.w3.org/2000/svg" xmlns:xlink="http://www.w3.org/1999/xlink">
<g id="graph0" class="graph" transform="scale(1 1) rotate(0) translate(4 91)">
<title>MdotOpenEdgeAlg.C</title>
<polygon fill="white" stroke="transparent" points="-4,4 -4,-91 2137,-91 2137,4 -4,4"/>
<!-- Node1 -->
<g id="node1" class="node">
<title>Node1</title>
<g id="a_node1"><a xlink:title=" ">
<polygon fill="#bfbfbf" stroke="black" points="1137,-67.5 1137,-86.5 1253,-86.5 1253,-67.5 1137,-67.5"/>
<text text-anchor="middle" x="1195" y="-74.5" font-family="Helvetica,sans-Serif" font-size="10.00">MdotOpenEdgeAlg.C</text>
</a>
</g>
</g>
<!-- Node2 -->
<g id="node2" class="node">
<title>Node2</title>
<g id="a_node2"><a xlink:title=" ">
<polygon fill="white" stroke="#bfbfbf" points="0,-0.5 0,-30.5 170,-30.5 170,-0.5 0,-0.5"/>
<text text-anchor="start" x="8" y="-18.5" font-family="Helvetica,sans-Serif" font-size="10.00">ngp_algorithms/MdotOpenEdge</text>
<text text-anchor="middle" x="85" y="-7.5" font-family="Helvetica,sans-Serif" font-size="10.00">Alg.h</text>
</a>
</g>
</g>
<!-- Node1&#45;&gt;Node2 -->
<g id="edge1" class="edge">
<title>Node1&#45;&gt;Node2</title>
<path fill="none" stroke="midnightblue" d="M1136.99,-75.64C982.86,-74.2 550.18,-67.09 180.11,-31.03"/>
<polygon fill="midnightblue" stroke="midnightblue" points="180.3,-27.53 170,-30.04 179.61,-34.5 180.3,-27.53"/>
</g>
<!-- Node3 -->
<g id="node3" class="node">
<title>Node3</title>
<g id="a_node3"><a xlink:title=" ">
<polygon fill="white" stroke="#bfbfbf" points="188.5,-6 188.5,-25 289.5,-25 289.5,-6 188.5,-6"/>
<text text-anchor="middle" x="239" y="-13" font-family="Helvetica,sans-Serif" font-size="10.00">BuildTemplates.h</text>
</a>
</g>
</g>
<!-- Node1&#45;&gt;Node3 -->
<g id="edge2" class="edge">
<title>Node1&#45;&gt;Node3</title>
<path fill="none" stroke="midnightblue" d="M1136.99,-74.54C965.18,-69.98 460.86,-54.87 298,-31 291.77,-30.09 285.23,-28.81 278.87,-27.39"/>
<polygon fill="midnightblue" stroke="midnightblue" points="279.64,-23.97 269.1,-25.07 278.02,-30.78 279.64,-23.97"/>
</g>
<!-- Node4 -->
<g id="node4" class="node">
<title>Node4</title>
<g id="a_node4"><a xlink:title=" ">
<polygon fill="white" stroke="#bfbfbf" points="307.5,-6 307.5,-25 490.5,-25 490.5,-6 307.5,-6"/>
<text text-anchor="middle" x="399" y="-13" font-family="Helvetica,sans-Serif" font-size="10.00">master_element/MasterElement.h</text>
</a>
</g>
</g>
<!-- Node1&#45;&gt;Node4 -->
<g id="edge3" class="edge">
<title>Node1&#45;&gt;Node4</title>
<path fill="none" stroke="midnightblue" d="M1136.75,-73.76C1017.17,-68.83 735.42,-55.48 500,-31 488.02,-29.75 475.29,-28.15 463.04,-26.46"/>
<polygon fill="midnightblue" stroke="midnightblue" points="463.28,-22.96 452.89,-25.03 462.31,-29.89 463.28,-22.96"/>
</g>
<!-- Node5 -->
<g id="node5" class="node">
<title>Node5</title>
<g id="a_node5"><a xlink:title=" ">
<polygon fill="white" stroke="#bfbfbf" points="509,-0.5 509,-30.5 683,-30.5 683,-0.5 509,-0.5"/>
<text text-anchor="start" x="517" y="-18.5" font-family="Helvetica,sans-Serif" font-size="10.00">master_element/MasterElement</text>
<text text-anchor="middle" x="596" y="-7.5" font-family="Helvetica,sans-Serif" font-size="10.00">Repo.h</text>
</a>
</g>
</g>
<!-- Node1&#45;&gt;Node5 -->
<g id="edge4" class="edge">
<title>Node1&#45;&gt;Node5</title>
<path fill="none" stroke="midnightblue" d="M1136.79,-71.95C1044.81,-65.28 860.01,-50.87 693.05,-31.08"/>
<polygon fill="midnightblue" stroke="midnightblue" points="693.43,-27.6 683.09,-29.89 692.6,-34.55 693.43,-27.6"/>
</g>
<!-- Node6 -->
<g id="node6" class="node">
<title>Node6</title>
<g id="a_node6"><a xlink:title=" ">
<polygon fill="white" stroke="#bfbfbf" points="701,-6 701,-25 875,-25 875,-6 701,-6"/>
<text text-anchor="middle" x="788" y="-13" font-family="Helvetica,sans-Serif" font-size="10.00">ngp_algorithms/MdotAlgDriver.h</text>
</a>
</g>
</g>
<!-- Node1&#45;&gt;Node6 -->
<g id="edge5" class="edge">
<title>Node1&#45;&gt;Node6</title>
<path fill="none" stroke="midnightblue" d="M1136.81,-67.69C1074.31,-58.74 972.1,-44.03 884,-31 874.31,-29.57 864.07,-28.04 854.03,-26.53"/>
<polygon fill="midnightblue" stroke="midnightblue" points="854.49,-23.06 844.08,-25.03 853.45,-29.98 854.49,-23.06"/>
</g>
<!-- Node7 -->
<g id="node7" class="node">
<title>Node7</title>
<g id="a_node7"><a xlink:title=" ">
<polygon fill="white" stroke="#bfbfbf" points="893,-6 893,-25 1027,-25 1027,-6 893,-6"/>
<text text-anchor="middle" x="960" y="-13" font-family="Helvetica,sans-Serif" font-size="10.00">ngp_utils/NgpFieldOps.h</text>
</a>
</g>
</g>
<!-- Node1&#45;&gt;Node7 -->
<g id="edge6" class="edge">
<title>Node1&#45;&gt;Node7</title>
<path fill="none" stroke="midnightblue" d="M1161.33,-67.48C1119.8,-56.96 1049.11,-39.06 1003.5,-27.51"/>
<polygon fill="midnightblue" stroke="midnightblue" points="1004.16,-24.07 993.61,-25.01 1002.44,-30.86 1004.16,-24.07"/>
</g>
<!-- Node8 -->
<g id="node8" class="node">
<title>Node8</title>
<g id="a_node8"><a xlink:title=" ">
<polygon fill="white" stroke="#bfbfbf" points="1045,-6 1045,-25 1183,-25 1183,-6 1045,-6"/>
<text text-anchor="middle" x="1114" y="-13" font-family="Helvetica,sans-Serif" font-size="10.00">ngp_utils/NgpLoopUtils.h</text>
</a>
</g>
</g>
<!-- Node1&#45;&gt;Node8 -->
<g id="edge7" class="edge">
<title>Node1&#45;&gt;Node8</title>
<path fill="none" stroke="midnightblue" d="M1183.39,-67.48C1170.52,-58.02 1149.53,-42.6 1133.99,-31.19"/>
<polygon fill="midnightblue" stroke="midnightblue" points="1135.72,-28.11 1125.58,-25.01 1131.57,-33.75 1135.72,-28.11"/>
</g>
<!-- Node9 -->
<g id="node9" class="node">
<title>Node9</title>
<g id="a_node9"><a xlink:title=" ">
<polygon fill="white" stroke="#bfbfbf" points="1201.5,-6 1201.5,-25 1352.5,-25 1352.5,-6 1201.5,-6"/>
<text text-anchor="middle" x="1277" y="-13" font-family="Helvetica,sans-Serif" font-size="10.00">ngp_utils/NgpReduceUtils.h</text>
</a>
</g>
</g>
<!-- Node1&#45;&gt;Node9 -->
<g id="edge8" class="edge">
<title>Node1&#45;&gt;Node9</title>
<path fill="none" stroke="midnightblue" d="M1206.75,-67.48C1219.78,-58.02 1241.04,-42.6 1256.76,-31.19"/>
<polygon fill="midnightblue" stroke="midnightblue" points="1259.23,-33.71 1265.27,-25.01 1255.12,-28.05 1259.23,-33.71"/>
</g>
<!-- Node10 -->
<g id="node10" class="node">
<title>Node10</title>
<g id="a_node10"><a xlink:title=" ">
<polygon fill="white" stroke="#bfbfbf" points="1371,-6 1371,-25 1529,-25 1529,-6 1371,-6"/>
<text text-anchor="middle" x="1450" y="-13" font-family="Helvetica,sans-Serif" font-size="10.00">ngp_utils/NgpFieldManager.h</text>
</a>
</g>
</g>
<!-- Node1&#45;&gt;Node10 -->
<g id="edge9" class="edge">
<title>Node1&#45;&gt;Node10</title>
<path fill="none" stroke="midnightblue" d="M1231.54,-67.48C1276.89,-56.89 1354.28,-38.84 1403.73,-27.3"/>
<polygon fill="midnightblue" stroke="midnightblue" points="1404.59,-30.69 1413.53,-25.01 1403,-23.87 1404.59,-30.69"/>
</g>
<!-- Node11 -->
<g id="node11" class="node">
<title>Node11</title>
<g id="a_node11"><a xlink:title=" ">
<polygon fill="white" stroke="#bfbfbf" points="1546.5,-6 1546.5,-25 1603.5,-25 1603.5,-6 1546.5,-6"/>
<text text-anchor="middle" x="1575" y="-13" font-family="Helvetica,sans-Serif" font-size="10.00">Realm.h</text>
</a>
</g>
</g>
<!-- Node1&#45;&gt;Node11 -->
<g id="edge10" class="edge">
<title>Node1&#45;&gt;Node11</title>
<path fill="none" stroke="midnightblue" d="M1253.17,-72.69C1322.06,-67.78 1439.85,-56.27 1538,-31 1540.66,-30.31 1543.4,-29.49 1546.11,-28.59"/>
<polygon fill="midnightblue" stroke="midnightblue" points="1547.51,-31.8 1555.71,-25.08 1545.11,-25.23 1547.51,-31.8"/>
</g>
<!-- Node12 -->
<g id="node12" class="node">
<title>Node12</title>
<g id="a_node12"><a xlink:title=" ">
<polygon fill="white" stroke="#bfbfbf" points="1621.5,-6 1621.5,-25 1712.5,-25 1712.5,-6 1621.5,-6"/>
<text text-anchor="middle" x="1667" y="-13" font-family="Helvetica,sans-Serif" font-size="10.00">ScratchViews.h</text>
</a>
</g>
</g>
<!-- Node1&#45;&gt;Node12 -->
<g id="edge11" class="edge">
<title>Node1&#45;&gt;Node12</title>
<path fill="none" stroke="midnightblue" d="M1253.23,-72.59C1334.37,-67.2 1485.83,-54.77 1613,-31 1618.12,-30.04 1623.46,-28.85 1628.71,-27.56"/>
<polygon fill="midnightblue" stroke="midnightblue" points="1629.8,-30.9 1638.6,-25.01 1628.05,-24.12 1629.8,-30.9"/>
</g>
<!-- Node13 -->
<g id="node13" class="node">
<title>Node13</title>
<g id="a_node13"><a xlink:title=" ">
<polygon fill="white" stroke="#bfbfbf" points="1730.5,-6 1730.5,-25 1833.5,-25 1833.5,-6 1730.5,-6"/>
<text text-anchor="middle" x="1782" y="-13" font-family="Helvetica,sans-Serif" font-size="10.00">SolutionOptions.h</text>
</a>
</g>
</g>
<!-- Node1&#45;&gt;Node13 -->
<g id="edge12" class="edge">
<title>Node1&#45;&gt;Node13</title>
<path fill="none" stroke="midnightblue" d="M1253.06,-73.93C1350.52,-69.8 1552.96,-58.48 1722,-31 1728.18,-30 1734.66,-28.69 1740.99,-27.29"/>
<polygon fill="midnightblue" stroke="midnightblue" points="1741.79,-30.69 1750.73,-25.01 1740.2,-23.88 1741.79,-30.69"/>
</g>
<!-- Node14 -->
<g id="node14" class="node">
<title>Node14</title>
<g id="a_node14"><a xlink:title=" ">
<polygon fill="white" stroke="#bfbfbf" points="1851.5,-6 1851.5,-25 1954.5,-25 1954.5,-6 1851.5,-6"/>
<text text-anchor="middle" x="1903" y="-13" font-family="Helvetica,sans-Serif" font-size="10.00">utils/StkHelpers.h</text>
</a>
</g>
</g>
<!-- Node1&#45;&gt;Node14 -->
<g id="edge13" class="edge">
<title>Node1&#45;&gt;Node14</title>
<path fill="none" stroke="midnightblue" d="M1253.01,-75.23C1366.81,-72.99 1627.07,-64.35 1843,-31 1849.26,-30.03 1855.82,-28.74 1862.21,-27.33"/>
<polygon fill="midnightblue" stroke="midnightblue" points="1863.11,-30.71 1872.06,-25.03 1861.52,-23.89 1863.11,-30.71"/>
</g>
<!-- Node15 -->
<g id="node15" class="node">
<title>Node15</title>
<g id="a_node15"><a xlink:title=" ">
<polygon fill="white" stroke="#bfbfbf" points="1973,-6 1973,-25 2133,-25 2133,-6 1973,-6"/>
<text text-anchor="middle" x="2053" y="-13" font-family="Helvetica,sans-Serif" font-size="10.00">stk_mesh/base/NgpMesh.hpp</text>
</a>
</g>
</g>
<!-- Node1&#45;&gt;Node15 -->
<g id="edge14" class="edge">
<title>Node1&#45;&gt;Node15</title>
<path fill="none" stroke="midnightblue" d="M1253.05,-74.64C1381.53,-71.2 1699.47,-60.21 1964,-31 1974.49,-29.84 1985.64,-28.29 1996.36,-26.62"/>
<polygon fill="midnightblue" stroke="midnightblue" points="1997.15,-30.04 2006.47,-25.01 1996.04,-23.13 1997.15,-30.04"/>
</g>
</g>
</svg>
