<?xml version="1.0" encoding="UTF-8" standalone="no"?>
<!DOCTYPE svg PUBLIC "-//W3C//DTD SVG 1.1//EN"
 "http://www.w3.org/Graphics/SVG/1.1/DTD/svg11.dtd">
<!-- Generated by graphviz version 2.43.0 (0)
 -->
<!-- Title: MdotDensityAccumAlg.C Pages: 1 -->
<svg width="1953pt" height="95pt"
 viewBox="0.00 0.00 1953.00 95.00" xmlns="http://www.w3.org/2000/svg" xmlns:xlink="http://www.w3.org/1999/xlink">
<g id="graph0" class="graph" transform="scale(1 1) rotate(0) translate(4 91)">
<title>MdotDensityAccumAlg.C</title>
<polygon fill="white" stroke="transparent" points="-4,4 -4,-91 1949,-91 1949,4 -4,4"/>
<!-- Node1 -->
<g id="node1" class="node">
<title>Node1</title>
<g id="a_node1"><a xlink:title=" ">
<polygon fill="#bfbfbf" stroke="black" points="1035.5,-67.5 1035.5,-86.5 1172.5,-86.5 1172.5,-67.5 1035.5,-67.5"/>
<text text-anchor="middle" x="1104" y="-74.5" font-family="Helvetica,sans-Serif" font-size="10.00">MdotDensityAccumAlg.C</text>
</a>
</g>
</g>
<!-- Node2 -->
<g id="node2" class="node">
<title>Node2</title>
<g id="a_node2"><a xlink:title=" ">
<polygon fill="white" stroke="#bfbfbf" points="0,-0.5 0,-30.5 158,-30.5 158,-0.5 0,-0.5"/>
<text text-anchor="start" x="8" y="-18.5" font-family="Helvetica,sans-Serif" font-size="10.00">ngp_algorithms/MdotDensity</text>
<text text-anchor="middle" x="79" y="-7.5" font-family="Helvetica,sans-Serif" font-size="10.00">AccumAlg.h</text>
</a>
</g>
</g>
<!-- Node1&#45;&gt;Node2 -->
<g id="edge1" class="edge">
<title>Node1&#45;&gt;Node2</title>
<path fill="none" stroke="midnightblue" d="M1035.31,-75.41C881.71,-73.5 498.67,-65.49 168.34,-31.05"/>
<polygon fill="midnightblue" stroke="midnightblue" points="168.41,-27.54 158.1,-29.97 167.67,-34.5 168.41,-27.54"/>
</g>
<!-- Node3 -->
<g id="node3" class="node">
<title>Node3</title>
<g id="a_node3"><a xlink:title=" ">
<polygon fill="white" stroke="#bfbfbf" points="176.5,-6 176.5,-25 277.5,-25 277.5,-6 176.5,-6"/>
<text text-anchor="middle" x="227" y="-13" font-family="Helvetica,sans-Serif" font-size="10.00">BuildTemplates.h</text>
</a>
</g>
</g>
<!-- Node1&#45;&gt;Node3 -->
<g id="edge2" class="edge">
<title>Node1&#45;&gt;Node3</title>
<path fill="none" stroke="midnightblue" d="M1035.43,-76.52C894.32,-76.64 561.55,-72.07 286,-31 279.77,-30.07 273.24,-28.79 266.88,-27.36"/>
<polygon fill="midnightblue" stroke="midnightblue" points="267.64,-23.95 257.1,-25.04 266.02,-30.76 267.64,-23.95"/>
</g>
<!-- Node4 -->
<g id="node4" class="node">
<title>Node4</title>
<g id="a_node4"><a xlink:title=" ">
<polygon fill="white" stroke="#bfbfbf" points="295.5,-6 295.5,-25 478.5,-25 478.5,-6 295.5,-6"/>
<text text-anchor="middle" x="387" y="-13" font-family="Helvetica,sans-Serif" font-size="10.00">master_element/MasterElement.h</text>
</a>
</g>
</g>
<!-- Node1&#45;&gt;Node4 -->
<g id="edge3" class="edge">
<title>Node1&#45;&gt;Node4</title>
<path fill="none" stroke="midnightblue" d="M1035.49,-72.56C921.62,-66.49 686.29,-52.45 488,-31 476.17,-29.72 463.59,-28.11 451.47,-26.44"/>
<polygon fill="midnightblue" stroke="midnightblue" points="451.82,-22.95 441.43,-25.02 450.84,-29.88 451.82,-22.95"/>
</g>
<!-- Node5 -->
<g id="node5" class="node">
<title>Node5</title>
<g id="a_node5"><a xlink:title=" ">
<polygon fill="white" stroke="#bfbfbf" points="497,-0.5 497,-30.5 671,-30.5 671,-0.5 497,-0.5"/>
<text text-anchor="start" x="505" y="-18.5" font-family="Helvetica,sans-Serif" font-size="10.00">master_element/MasterElement</text>
<text text-anchor="middle" x="584" y="-7.5" font-family="Helvetica,sans-Serif" font-size="10.00">Repo.h</text>
</a>
</g>
</g>
<!-- Node1&#45;&gt;Node5 -->
<g id="edge4" class="edge">
<title>Node1&#45;&gt;Node5</title>
<path fill="none" stroke="midnightblue" d="M1035.23,-69.64C953.4,-61.87 812.39,-47.8 681.32,-31.13"/>
<polygon fill="midnightblue" stroke="midnightblue" points="681.46,-27.62 671.1,-29.83 680.57,-34.57 681.46,-27.62"/>
</g>
<!-- Node6 -->
<g id="node6" class="node">
<title>Node6</title>
<g id="a_node6"><a xlink:title=" ">
<polygon fill="white" stroke="#bfbfbf" points="689,-6 689,-25 863,-25 863,-6 689,-6"/>
<text text-anchor="middle" x="776" y="-13" font-family="Helvetica,sans-Serif" font-size="10.00">ngp_algorithms/MdotAlgDriver.h</text>
</a>
</g>
</g>
<!-- Node1&#45;&gt;Node6 -->
<g id="edge5" class="edge">
<title>Node1&#45;&gt;Node6</title>
<path fill="none" stroke="midnightblue" d="M1057.01,-67.48C997.82,-56.74 896.21,-38.31 832.75,-26.79"/>
<polygon fill="midnightblue" stroke="midnightblue" points="833.37,-23.35 822.91,-25.01 832.12,-30.24 833.37,-23.35"/>
</g>
<!-- Node7 -->
<g id="node7" class="node">
<title>Node7</title>
<g id="a_node7"><a xlink:title=" ">
<polygon fill="white" stroke="#bfbfbf" points="881,-6 881,-25 1019,-25 1019,-6 881,-6"/>
<text text-anchor="middle" x="950" y="-13" font-family="Helvetica,sans-Serif" font-size="10.00">ngp_utils/NgpLoopUtils.h</text>
</a>
</g>
</g>
<!-- Node1&#45;&gt;Node7 -->
<g id="edge6" class="edge">
<title>Node1&#45;&gt;Node7</title>
<path fill="none" stroke="midnightblue" d="M1081.94,-67.48C1055.63,-57.31 1011.49,-40.26 981.58,-28.7"/>
<polygon fill="midnightblue" stroke="midnightblue" points="982.61,-25.35 972.02,-25.01 980.09,-31.88 982.61,-25.35"/>
</g>
<!-- Node8 -->
<g id="node8" class="node">
<title>Node8</title>
<g id="a_node8"><a xlink:title=" ">
<polygon fill="white" stroke="#bfbfbf" points="1037,-6 1037,-25 1171,-25 1171,-6 1037,-6"/>
<text text-anchor="middle" x="1104" y="-13" font-family="Helvetica,sans-Serif" font-size="10.00">ngp_utils/NgpFieldOps.h</text>
</a>
</g>
</g>
<!-- Node1&#45;&gt;Node8 -->
<g id="edge7" class="edge">
<title>Node1&#45;&gt;Node8</title>
<path fill="none" stroke="midnightblue" d="M1104,-67.48C1104,-59.08 1104,-45.98 1104,-35.16"/>
<polygon fill="midnightblue" stroke="midnightblue" points="1107.5,-35.01 1104,-25.01 1100.5,-35.01 1107.5,-35.01"/>
</g>
<!-- Node9 -->
<g id="node9" class="node">
<title>Node9</title>
<g id="a_node9"><a xlink:title=" ">
<polygon fill="white" stroke="#bfbfbf" points="1189.5,-6 1189.5,-25 1340.5,-25 1340.5,-6 1189.5,-6"/>
<text text-anchor="middle" x="1265" y="-13" font-family="Helvetica,sans-Serif" font-size="10.00">ngp_utils/NgpReduceUtils.h</text>
</a>
</g>
</g>
<!-- Node1&#45;&gt;Node9 -->
<g id="edge8" class="edge">
<title>Node1&#45;&gt;Node9</title>
<path fill="none" stroke="midnightblue" d="M1127.07,-67.48C1154.68,-57.27 1201.12,-40.11 1232.4,-28.55"/>
<polygon fill="midnightblue" stroke="midnightblue" points="1233.81,-31.76 1241.98,-25.01 1231.38,-25.19 1233.81,-31.76"/>
</g>
<!-- Node10 -->
<g id="node10" class="node">
<title>Node10</title>
<g id="a_node10"><a xlink:title=" ">
<polygon fill="white" stroke="#bfbfbf" points="1358.5,-6 1358.5,-25 1415.5,-25 1415.5,-6 1358.5,-6"/>
<text text-anchor="middle" x="1387" y="-13" font-family="Helvetica,sans-Serif" font-size="10.00">Realm.h</text>
</a>
</g>
</g>
<!-- Node1&#45;&gt;Node10 -->
<g id="edge9" class="edge">
<title>Node1&#45;&gt;Node10</title>
<path fill="none" stroke="midnightblue" d="M1169.79,-67.48C1219.79,-60.17 1289.97,-48.08 1350,-31 1352.59,-30.26 1355.24,-29.42 1357.89,-28.51"/>
<polygon fill="midnightblue" stroke="midnightblue" points="1359.1,-31.79 1367.27,-25.04 1356.68,-25.22 1359.1,-31.79"/>
</g>
<!-- Node11 -->
<g id="node11" class="node">
<title>Node11</title>
<g id="a_node11"><a xlink:title=" ">
<polygon fill="white" stroke="#bfbfbf" points="1433.5,-6 1433.5,-25 1524.5,-25 1524.5,-6 1433.5,-6"/>
<text text-anchor="middle" x="1479" y="-13" font-family="Helvetica,sans-Serif" font-size="10.00">ScratchViews.h</text>
</a>
</g>
</g>
<!-- Node1&#45;&gt;Node11 -->
<g id="edge10" class="edge">
<title>Node1&#45;&gt;Node11</title>
<path fill="none" stroke="midnightblue" d="M1172.67,-68.85C1237.95,-61.47 1338.7,-48.57 1425,-31 1429.8,-30.02 1434.81,-28.87 1439.75,-27.64"/>
<polygon fill="midnightblue" stroke="midnightblue" points="1440.92,-30.95 1449.73,-25.06 1439.17,-24.18 1440.92,-30.95"/>
</g>
<!-- Node12 -->
<g id="node12" class="node">
<title>Node12</title>
<g id="a_node12"><a xlink:title=" ">
<polygon fill="white" stroke="#bfbfbf" points="1542.5,-6 1542.5,-25 1645.5,-25 1645.5,-6 1542.5,-6"/>
<text text-anchor="middle" x="1594" y="-13" font-family="Helvetica,sans-Serif" font-size="10.00">SolutionOptions.h</text>
</a>
</g>
</g>
<!-- Node1&#45;&gt;Node12 -->
<g id="edge11" class="edge">
<title>Node1&#45;&gt;Node12</title>
<path fill="none" stroke="midnightblue" d="M1172.53,-71.65C1257.71,-65.59 1407.33,-52.84 1534,-31 1539.89,-29.99 1546.05,-28.73 1552.1,-27.37"/>
<polygon fill="midnightblue" stroke="midnightblue" points="1553.15,-30.72 1562.09,-25.04 1551.56,-23.91 1553.15,-30.72"/>
</g>
<!-- Node13 -->
<g id="node13" class="node">
<title>Node13</title>
<g id="a_node13"><a xlink:title=" ">
<polygon fill="white" stroke="#bfbfbf" points="1663.5,-6 1663.5,-25 1766.5,-25 1766.5,-6 1663.5,-6"/>
<text text-anchor="middle" x="1715" y="-13" font-family="Helvetica,sans-Serif" font-size="10.00">utils/StkHelpers.h</text>
</a>
</g>
</g>
<!-- Node1&#45;&gt;Node13 -->
<g id="edge12" class="edge">
<title>Node1&#45;&gt;Node13</title>
<path fill="none" stroke="midnightblue" d="M1172.7,-73.82C1277.36,-69.73 1482.77,-58.67 1655,-31 1661.18,-30.01 1667.66,-28.71 1673.99,-27.31"/>
<polygon fill="midnightblue" stroke="midnightblue" points="1674.79,-30.71 1683.74,-25.03 1673.2,-23.9 1674.79,-30.71"/>
</g>
<!-- Node14 -->
<g id="node14" class="node">
<title>Node14</title>
<g id="a_node14"><a xlink:title=" ">
<polygon fill="white" stroke="#bfbfbf" points="1785,-6 1785,-25 1945,-25 1945,-6 1785,-6"/>
<text text-anchor="middle" x="1865" y="-13" font-family="Helvetica,sans-Serif" font-size="10.00">stk_mesh/base/NgpMesh.hpp</text>
</a>
</g>
</g>
<!-- Node1&#45;&gt;Node14 -->
<g id="edge13" class="edge">
<title>Node1&#45;&gt;Node14</title>
<path fill="none" stroke="midnightblue" d="M1172.88,-73.54C1294.8,-68.71 1556.45,-56.18 1776,-31 1786.37,-29.81 1797.38,-28.26 1807.99,-26.61"/>
<polygon fill="midnightblue" stroke="midnightblue" points="1808.68,-30.04 1818,-25.01 1807.58,-23.13 1808.68,-30.04"/>
</g>
</g>
</svg>
