<?xml version="1.0" encoding="UTF-8" standalone="no"?>
<!DOCTYPE svg PUBLIC "-//W3C//DTD SVG 1.1//EN"
 "http://www.w3.org/Graphics/SVG/1.1/DTD/svg11.dtd">
<!-- Generated by graphviz version 2.43.0 (0)
 -->
<!-- Title: MeshVelocityEdgeAlg.C Pages: 1 -->
<!--zoomable 95 -->
<svg id="main" version="1.1" xmlns="http://www.w3.org/2000/svg" xmlns:xlink="http://www.w3.org/1999/xlink" xml:space="preserve" onload="init(evt)">
<style type="text/css"><![CDATA[
.edge:hover path { stroke: red; }
.edge:hover polygon { stroke: red; fill: red; }
]]></style>
<script type="text/javascript"><![CDATA[
var edges = document.getElementsByTagName('g');
if (edges && edges.length) {
  for (var i=0;i<edges.length;i++) {
    if (edges[i].id.substr(0,4)=='edge') {
      edges[i].setAttribute('class','edge');
    }
  }
}
]]></script>
        <defs>
                <circle id="rim" cx="0" cy="0" r="7"/>
                <circle id="rim2" cx="0" cy="0" r="3.5"/>
                <g id="zoomPlus">
                        <use xlink:href="#rim" fill="#404040">
                                <set attributeName="fill" to="#808080" begin="zoomplus.mouseover" end="zoomplus.mouseout"/>
                        </use>
                        <path d="M-4,0h8M0,-4v8" fill="none" stroke="white" stroke-width="1.5" pointer-events="none"/>
                </g>
                <g id="zoomMin">
                        <use xlink:href="#rim" fill="#404040">
                                <set attributeName="fill" to="#808080" begin="zoomminus.mouseover" end="zoomminus.mouseout"/>
                        </use>
                        <path d="M-4,0h8" fill="none" stroke="white" stroke-width="1.5" pointer-events="none"/>
                </g>
                <g id="dirArrow">
                        <path fill="none" stroke="white" stroke-width="1.5" d="M0,-3.0v7 M-2.5,-0.5L0,-3.0L2.5,-0.5"/>
                </g>
               <g id="resetDef">
                       <use xlink:href="#rim2" fill="#404040">
                               <set attributeName="fill" to="#808080" begin="reset.mouseover" end="reset.mouseout"/>
                       </use>
               </g>
        </defs>

<script type="text/javascript">
var viewWidth = 1661;
var viewHeight = 95;
var sectionId = 'dynsection-0';
</script>
<script xlink:href="svgpan.js"/>
<svg id="graph" class="graph">
<g id="viewport">
<title>MeshVelocityEdgeAlg.C</title>
<polygon fill="white" stroke="transparent" points="-4,4 -4,-91 1656.5,-91 1656.5,4 -4,4"/>
<!-- Node1 -->
<g id="node1" class="node">
<title>Node1</title>
<g id="a_node1"><a xlink:title=" ">
<polygon fill="#bfbfbf" stroke="black" points="951.5,-67.5 951.5,-86.5 1082.5,-86.5 1082.5,-67.5 951.5,-67.5"/>
<text text-anchor="middle" x="1017" y="-74.5" font-family="Helvetica,sans-Serif" font-size="10.00">MeshVelocityEdgeAlg.C</text>
</a>
</g>
</g>
<!-- Node2 -->
<g id="node2" class="node">
<title>Node2</title>
<g id="a_node2"><a xlink:title=" ">
<polygon fill="white" stroke="#bfbfbf" points="0,-6 0,-25 148,-25 148,-6 0,-6"/>
<text text-anchor="middle" x="74" y="-13" font-family="Helvetica,sans-Serif" font-size="10.00">gcl/MeshVelocityEdgeAlg.h</text>
</a>
</g>
</g>
<!-- Node1&#45;&gt;Node2 -->
<g id="edge1" class="edge">
<title>Node1&#45;&gt;Node2</title>
<path fill="none" stroke="midnightblue" d="M951.24,-75.26C806.98,-73.05 452.08,-64.37 157,-31 147.29,-29.9 137,-28.39 127.09,-26.75"/>
<polygon fill="midnightblue" stroke="midnightblue" points="127.38,-23.25 116.94,-25.02 126.2,-30.15 127.38,-23.25"/>
</g>
<!-- Node3 -->
<g id="node3" class="node">
<title>Node3</title>
<g id="a_node3"><a xlink:title=" ">
<polygon fill="white" stroke="#bfbfbf" points="166.5,-6 166.5,-25 267.5,-25 267.5,-6 166.5,-6"/>
<text text-anchor="middle" x="217" y="-13" font-family="Helvetica,sans-Serif" font-size="10.00">BuildTemplates.h</text>
</a>
</g>
</g>
<!-- Node1&#45;&gt;Node3 -->
<g id="edge2" class="edge">
<title>Node1&#45;&gt;Node3</title>
<path fill="none" stroke="midnightblue" d="M951.16,-75.97C821.28,-75.04 523.19,-68.57 276,-31 269.77,-30.05 263.24,-28.76 256.88,-27.33"/>
<polygon fill="midnightblue" stroke="midnightblue" points="257.65,-23.92 247.11,-25.01 256.03,-30.73 257.65,-23.92"/>
</g>
<!-- Node4 -->
<g id="node4" class="node">
<title>Node4</title>
<g id="a_node4"><a xlink:title=" ">
<polygon fill="white" stroke="#bfbfbf" points="285.5,-6 285.5,-25 468.5,-25 468.5,-6 285.5,-6"/>
<text text-anchor="middle" x="377" y="-13" font-family="Helvetica,sans-Serif" font-size="10.00">master_element/MasterElement.h</text>
</a>
</g>
</g>
<!-- Node1&#45;&gt;Node4 -->
<g id="edge3" class="edge">
<title>Node1&#45;&gt;Node4</title>
<path fill="none" stroke="midnightblue" d="M951.33,-71.78C849.7,-64.96 648.28,-50.31 478,-31 466.5,-29.7 454.28,-28.11 442.47,-26.48"/>
<polygon fill="midnightblue" stroke="midnightblue" points="442.62,-22.96 432.23,-25.03 441.64,-29.89 442.62,-22.96"/>
</g>
<!-- Node5 -->
<g id="node5" class="node">
<title>Node5</title>
<g id="a_node5"><a xlink:title=" ">
<polygon fill="white" stroke="#bfbfbf" points="487,-0.5 487,-30.5 661,-30.5 661,-0.5 487,-0.5"/>
<text text-anchor="start" x="495" y="-18.5" font-family="Helvetica,sans-Serif" font-size="10.00">master_element/MasterElement</text>
<text text-anchor="middle" x="574" y="-7.5" font-family="Helvetica,sans-Serif" font-size="10.00">Repo.h</text>
</a>
</g>
</g>
<!-- Node1&#45;&gt;Node5 -->
<g id="edge4" class="edge">
<title>Node1&#45;&gt;Node5</title>
<path fill="none" stroke="midnightblue" d="M951.39,-67.91C883.75,-59.47 774.97,-45.64 671.14,-31.14"/>
<polygon fill="midnightblue" stroke="midnightblue" points="671.5,-27.66 661.11,-29.74 670.53,-34.59 671.5,-27.66"/>
</g>
<!-- Node6 -->
<g id="node6" class="node">
<title>Node6</title>
<g id="a_node6"><a xlink:title=" ">
<polygon fill="white" stroke="#bfbfbf" points="679,-0.5 679,-30.5 853,-30.5 853,-0.5 679,-0.5"/>
<text text-anchor="start" x="687" y="-18.5" font-family="Helvetica,sans-Serif" font-size="10.00">master_element/Hex8Geometry</text>
<text text-anchor="middle" x="766" y="-7.5" font-family="Helvetica,sans-Serif" font-size="10.00">Functions.h</text>
</a>
</g>
</g>
<!-- Node1&#45;&gt;Node6 -->
<g id="edge5" class="edge">
<title>Node1&#45;&gt;Node6</title>
<path fill="none" stroke="midnightblue" d="M981.04,-67.48C943.07,-58.48 882.3,-44.07 835.02,-32.86"/>
<polygon fill="midnightblue" stroke="midnightblue" points="835.69,-29.42 825.16,-30.52 834.08,-36.24 835.69,-29.42"/>
</g>
<!-- Node7 -->
<g id="node7" class="node">
<title>Node7</title>
<g id="a_node7"><a xlink:title=" ">
<polygon fill="white" stroke="#bfbfbf" points="871,-6 871,-25 1009,-25 1009,-6 871,-6"/>
<text text-anchor="middle" x="940" y="-13" font-family="Helvetica,sans-Serif" font-size="10.00">ngp_utils/NgpLoopUtils.h</text>
</a>
</g>
</g>
<!-- Node1&#45;&gt;Node7 -->
<g id="edge6" class="edge">
<title>Node1&#45;&gt;Node7</title>
<path fill="none" stroke="midnightblue" d="M1005.97,-67.48C993.73,-58.02 973.77,-42.6 959.01,-31.19"/>
<polygon fill="midnightblue" stroke="midnightblue" points="961.06,-28.35 951.01,-25.01 956.78,-33.89 961.06,-28.35"/>
</g>
<!-- Node8 -->
<g id="node8" class="node">
<title>Node8</title>
<g id="a_node8"><a xlink:title=" ">
<polygon fill="white" stroke="#bfbfbf" points="1027,-6 1027,-25 1161,-25 1161,-6 1027,-6"/>
<text text-anchor="middle" x="1094" y="-13" font-family="Helvetica,sans-Serif" font-size="10.00">ngp_utils/NgpFieldOps.h</text>
</a>
</g>
</g>
<!-- Node1&#45;&gt;Node8 -->
<g id="edge7" class="edge">
<title>Node1&#45;&gt;Node8</title>
<path fill="none" stroke="midnightblue" d="M1028.03,-67.48C1040.27,-58.02 1060.23,-42.6 1074.99,-31.19"/>
<polygon fill="midnightblue" stroke="midnightblue" points="1077.22,-33.89 1082.99,-25.01 1072.94,-28.35 1077.22,-33.89"/>
</g>
<!-- Node9 -->
<g id="node9" class="node">
<title>Node9</title>
<g id="a_node9"><a xlink:title=" ">
<polygon fill="white" stroke="#bfbfbf" points="1179.5,-6 1179.5,-25 1236.5,-25 1236.5,-6 1179.5,-6"/>
<text text-anchor="middle" x="1208" y="-13" font-family="Helvetica,sans-Serif" font-size="10.00">Realm.h</text>
</a>
</g>
</g>
<!-- Node1&#45;&gt;Node9 -->
<g id="edge8" class="edge">
<title>Node1&#45;&gt;Node9</title>
<path fill="none" stroke="midnightblue" d="M1048.58,-67.49C1079.67,-58.93 1128.42,-45.02 1170,-31 1172.26,-30.24 1174.58,-29.43 1176.91,-28.59"/>
<polygon fill="midnightblue" stroke="midnightblue" points="1178.24,-31.83 1186.4,-25.08 1175.81,-25.26 1178.24,-31.83"/>
</g>
<!-- Node10 -->
<g id="node10" class="node">
<title>Node10</title>
<g id="a_node10"><a xlink:title=" ">
<polygon fill="white" stroke="#bfbfbf" points="1254.5,-6 1254.5,-25 1345.5,-25 1345.5,-6 1254.5,-6"/>
<text text-anchor="middle" x="1300" y="-13" font-family="Helvetica,sans-Serif" font-size="10.00">ScratchViews.h</text>
</a>
</g>
</g>
<!-- Node1&#45;&gt;Node10 -->
<g id="edge9" class="edge">
<title>Node1&#45;&gt;Node10</title>
<path fill="none" stroke="midnightblue" d="M1065.45,-67.47C1111.95,-59.05 1184.04,-45.39 1246,-31 1250.43,-29.97 1255.04,-28.83 1259.63,-27.66"/>
<polygon fill="midnightblue" stroke="midnightblue" points="1260.75,-30.99 1269.53,-25.07 1258.97,-24.22 1260.75,-30.99"/>
</g>
<!-- Node11 -->
<g id="node11" class="node">
<title>Node11</title>
<g id="a_node11"><a xlink:title=" ">
<polygon fill="white" stroke="#bfbfbf" points="1363.5,-6 1363.5,-25 1466.5,-25 1466.5,-6 1363.5,-6"/>
<text text-anchor="middle" x="1415" y="-13" font-family="Helvetica,sans-Serif" font-size="10.00">SolutionOptions.h</text>
</a>
</g>
</g>
<!-- Node1&#45;&gt;Node11 -->
<g id="edge10" class="edge">
<title>Node1&#45;&gt;Node11</title>
<path fill="none" stroke="midnightblue" d="M1082.75,-69.31C1151.1,-61.87 1261.02,-48.56 1355,-31 1360.74,-29.93 1366.75,-28.66 1372.66,-27.32"/>
<polygon fill="midnightblue" stroke="midnightblue" points="1373.5,-30.71 1382.44,-25.03 1371.9,-23.9 1373.5,-30.71"/>
</g>
<!-- Node12 -->
<g id="node12" class="node">
<title>Node12</title>
<g id="a_node12"><a xlink:title=" ">
<polygon fill="white" stroke="#bfbfbf" points="1484.5,-6 1484.5,-25 1587.5,-25 1587.5,-6 1484.5,-6"/>
<text text-anchor="middle" x="1536" y="-13" font-family="Helvetica,sans-Serif" font-size="10.00">utils/StkHelpers.h</text>
</a>
</g>
</g>
<!-- Node1&#45;&gt;Node12 -->
<g id="edge11" class="edge">
<title>Node1&#45;&gt;Node12</title>
<path fill="none" stroke="midnightblue" d="M1082.75,-72.44C1172.21,-66.95 1337.05,-54.48 1476,-31 1481.96,-29.99 1488.2,-28.73 1494.31,-27.36"/>
<polygon fill="midnightblue" stroke="midnightblue" points="1495.47,-30.69 1504.41,-25.01 1493.88,-23.87 1495.47,-30.69"/>
</g>
<!-- Node13 -->
<g id="node13" class="node">
<title>Node13</title>
<g id="a_node13"><a xlink:title=" ">
<polygon fill="white" stroke="#bfbfbf" points="1605.5,-6 1605.5,-25 1652.5,-25 1652.5,-6 1605.5,-6"/>
<text text-anchor="middle" x="1629" y="-13" font-family="Helvetica,sans-Serif" font-size="10.00">cmath</text>
</a>
</g>
</g>
<!-- Node1&#45;&gt;Node13 -->
<g id="edge12" class="edge">
<title>Node1&#45;&gt;Node13</title>
<path fill="none" stroke="midnightblue" d="M1082.6,-73.77C1213.18,-68.87 1501.32,-55.58 1597,-31 1599.21,-30.43 1601.45,-29.72 1603.68,-28.92"/>
<polygon fill="midnightblue" stroke="midnightblue" points="1605.22,-32.07 1613.12,-25.01 1602.54,-25.6 1605.22,-32.07"/>
</g>
</g>
</svg>
        <g id="navigator" transform="translate(0 0)" fill="#404254">
                <rect fill="#f2f5e9" fill-opacity="0.5" stroke="#606060" stroke-width=".5" x="0" y="0" width="60" height="60"/>
                <use id="zoomplus" xlink:href="#zoomPlus" x="17" y="9" onmousedown="handleZoom(evt,'in')"/>
                <use id="zoomminus" xlink:href="#zoomMin" x="42" y="9" onmousedown="handleZoom(evt,'out')"/>
                <use id="reset" xlink:href="#resetDef" x="30" y="36" onmousedown="handleReset()"/>
                <g id="arrowUp" xlink:href="#dirArrow" transform="translate(30 24)" onmousedown="handlePan(0,-1)">
                  <use xlink:href="#rim" fill="#404040">
                        <set attributeName="fill" to="#808080" begin="arrowUp.mouseover" end="arrowUp.mouseout"/>
                  </use>
                  <path fill="none" stroke="white" stroke-width="1.5" d="M0,-3.0v7 M-2.5,-0.5L0,-3.0L2.5,-0.5"/>
                </g>
                <g id="arrowRight" xlink:href="#dirArrow" transform="rotate(90) translate(36 -43)" onmousedown="handlePan(1,0)">
                  <use xlink:href="#rim" fill="#404040">
                        <set attributeName="fill" to="#808080" begin="arrowRight.mouseover" end="arrowRight.mouseout"/>
                  </use>
                  <path fill="none" stroke="white" stroke-width="1.5" d="M0,-3.0v7 M-2.5,-0.5L0,-3.0L2.5,-0.5"/>
                </g>
                <g id="arrowDown" xlink:href="#dirArrow" transform="rotate(180) translate(-30 -48)" onmousedown="handlePan(0,1)">
                  <use xlink:href="#rim" fill="#404040">
                        <set attributeName="fill" to="#808080" begin="arrowDown.mouseover" end="arrowDown.mouseout"/>
                  </use>
                  <path fill="none" stroke="white" stroke-width="1.5" d="M0,-3.0v7 M-2.5,-0.5L0,-3.0L2.5,-0.5"/>
                </g>
                <g id="arrowLeft" xlink:href="#dirArrow" transform="rotate(270) translate(-36 17)" onmousedown="handlePan(-1,0)">
                  <use xlink:href="#rim" fill="#404040">
                        <set attributeName="fill" to="#808080" begin="arrowLeft.mouseover" end="arrowLeft.mouseout"/>
                  </use>
                  <path fill="none" stroke="white" stroke-width="1.5" d="M0,-3.0v7 M-2.5,-0.5L0,-3.0L2.5,-0.5"/>
                </g>
        </g>
        <svg viewBox="0 0 15 15" width="100%" height="30px" preserveAspectRatio="xMaxYMin meet">
         <g id="arrow_out" transform="scale(0.3 0.3)">
          <a xlink:href="_mesh_velocity_edge_alg_8_c__incl_org.svg" target="_base">
           <rect id="button" ry="5" rx="5" y="6" x="6" height="38" width="38"
                fill="#f2f5e9" fill-opacity="0.5" stroke="#606060" stroke-width="1.0"/>
           <path id="arrow"
             d="M 11.500037,31.436501 C 11.940474,20.09759 22.043105,11.32322 32.158766,21.979434 L 37.068811,17.246167 C 37.068811,17.246167 37.088388,32 37.088388,32 L 22.160133,31.978069 C 22.160133,31.978069 26.997745,27.140456 26.997745,27.140456 C 18.528582,18.264221 13.291696,25.230495 11.500037,31.436501 z"
             style="fill:#404040;"/>
          </a>
         </g>
        </svg>
</svg>
