<?xml version="1.0" encoding="UTF-8" standalone="no"?>
<!DOCTYPE svg PUBLIC "-//W3C//DTD SVG 1.1//EN"
 "http://www.w3.org/Graphics/SVG/1.1/DTD/svg11.dtd">
<!-- Generated by graphviz version 2.43.0 (0)
 -->
<!-- Title: MeshTransformationAlg.C Pages: 1 -->
<svg width="638pt" height="95pt"
 viewBox="0.00 0.00 638.00 95.00" xmlns="http://www.w3.org/2000/svg" xmlns:xlink="http://www.w3.org/1999/xlink">
<g id="graph0" class="graph" transform="scale(1 1) rotate(0) translate(4 91)">
<title>MeshTransformationAlg.C</title>
<polygon fill="white" stroke="transparent" points="-4,4 -4,-91 634,-91 634,4 -4,4"/>
<!-- Node1 -->
<g id="node1" class="node">
<title>Node1</title>
<g id="a_node1"><a xlink:title=" ">
<polygon fill="#bfbfbf" stroke="black" points="369,-67.5 369,-86.5 511,-86.5 511,-67.5 369,-67.5"/>
<text text-anchor="middle" x="440" y="-74.5" font-family="Helvetica,sans-Serif" font-size="10.00">MeshTransformationAlg.C</text>
</a>
</g>
</g>
<!-- Node2 -->
<g id="node2" class="node">
<title>Node2</title>
<g id="a_node2"><a xlink:title=" ">
<polygon fill="white" stroke="#bfbfbf" points="0,-0.5 0,-30.5 186,-30.5 186,-0.5 0,-0.5"/>
<text text-anchor="start" x="8" y="-18.5" font-family="Helvetica,sans-Serif" font-size="10.00">mesh_motion/MeshTransformation</text>
<text text-anchor="middle" x="93" y="-7.5" font-family="Helvetica,sans-Serif" font-size="10.00">Alg.h</text>
</a>
</g>
</g>
<!-- Node1&#45;&gt;Node2 -->
<g id="edge1" class="edge">
<title>Node1&#45;&gt;Node2</title>
<path fill="none" stroke="midnightblue" d="M390.28,-67.48C336.81,-58.31 250.6,-43.52 184.75,-32.23"/>
<polygon fill="midnightblue" stroke="midnightblue" points="185.23,-28.76 174.78,-30.52 184.05,-35.66 185.23,-28.76"/>
</g>
<!-- Node3 -->
<g id="node3" class="node">
<title>Node3</title>
<g id="a_node3"><a xlink:title=" ">
<polygon fill="white" stroke="#bfbfbf" points="204,-6 204,-25 380,-25 380,-6 204,-6"/>
<text text-anchor="middle" x="292" y="-13" font-family="Helvetica,sans-Serif" font-size="10.00">mesh_motion/FrameReference.h</text>
</a>
</g>
</g>
<!-- Node1&#45;&gt;Node3 -->
<g id="edge2" class="edge">
<title>Node1&#45;&gt;Node3</title>
<path fill="none" stroke="midnightblue" d="M418.8,-67.48C393.63,-57.36 351.46,-40.4 322.72,-28.85"/>
<polygon fill="midnightblue" stroke="midnightblue" points="323.75,-25.49 313.17,-25.01 321.14,-31.99 323.75,-25.49"/>
</g>
<!-- Node4 -->
<g id="node4" class="node">
<title>Node4</title>
<g id="a_node4"><a xlink:title=" ">
<polygon fill="white" stroke="#bfbfbf" points="398.5,-6 398.5,-25 481.5,-25 481.5,-6 398.5,-6"/>
<text text-anchor="middle" x="440" y="-13" font-family="Helvetica,sans-Serif" font-size="10.00">NaluParsing.h</text>
</a>
</g>
</g>
<!-- Node1&#45;&gt;Node4 -->
<g id="edge3" class="edge">
<title>Node1&#45;&gt;Node4</title>
<path fill="none" stroke="midnightblue" d="M440,-67.48C440,-59.08 440,-45.98 440,-35.16"/>
<polygon fill="midnightblue" stroke="midnightblue" points="443.5,-35.01 440,-25.01 436.5,-35.01 443.5,-35.01"/>
</g>
<!-- Node5 -->
<g id="node5" class="node">
<title>Node5</title>
<g id="a_node5"><a xlink:title=" ">
<polygon fill="white" stroke="#bfbfbf" points="500,-6 500,-25 552,-25 552,-6 500,-6"/>
<text text-anchor="middle" x="526" y="-13" font-family="Helvetica,sans-Serif" font-size="10.00">cassert</text>
</a>
</g>
</g>
<!-- Node1&#45;&gt;Node5 -->
<g id="edge4" class="edge">
<title>Node1&#45;&gt;Node5</title>
<path fill="none" stroke="midnightblue" d="M452.32,-67.48C466.12,-57.93 488.7,-42.31 505.23,-30.87"/>
<polygon fill="midnightblue" stroke="midnightblue" points="507.47,-33.58 513.7,-25.01 503.49,-27.82 507.47,-33.58"/>
</g>
<!-- Node6 -->
<g id="node6" class="node">
<title>Node6</title>
<g id="a_node6"><a xlink:title=" ">
<polygon fill="white" stroke="#bfbfbf" points="570,-6 570,-25 630,-25 630,-6 570,-6"/>
<text text-anchor="middle" x="600" y="-13" font-family="Helvetica,sans-Serif" font-size="10.00">iostream</text>
</a>
</g>
</g>
<!-- Node1&#45;&gt;Node6 -->
<g id="edge5" class="edge">
<title>Node1&#45;&gt;Node6</title>
<path fill="none" stroke="midnightblue" d="M462.92,-67.48C490.37,-57.27 536.52,-40.11 567.6,-28.55"/>
<polygon fill="midnightblue" stroke="midnightblue" points="568.97,-31.78 577.12,-25.01 566.53,-25.21 568.97,-31.78"/>
</g>
</g>
</svg>
