<?xml version="1.0" encoding="UTF-8" standalone="no"?>
<!DOCTYPE svg PUBLIC "-//W3C//DTD SVG 1.1//EN"
 "http://www.w3.org/Graphics/SVG/1.1/DTD/svg11.dtd">
<!-- Generated by graphviz version 2.43.0 (0)
 -->
<!-- Title: MomentumBuoyancySrcNodeSuppAlg.C Pages: 1 -->
<svg width="1326pt" height="106pt"
 viewBox="0.00 0.00 1326.00 106.00" xmlns="http://www.w3.org/2000/svg" xmlns:xlink="http://www.w3.org/1999/xlink">
<g id="graph0" class="graph" transform="scale(1 1) rotate(0) translate(4 102)">
<title>MomentumBuoyancySrcNodeSuppAlg.C</title>
<polygon fill="white" stroke="transparent" points="-4,4 -4,-102 1322,-102 1322,4 -4,4"/>
<!-- Node1 -->
<g id="node1" class="node">
<title>Node1</title>
<g id="a_node1"><a xlink:title=" ">
<polygon fill="#bfbfbf" stroke="black" points="483,-67.5 483,-97.5 668,-97.5 668,-67.5 483,-67.5"/>
<text text-anchor="start" x="491" y="-85.5" font-family="Helvetica,sans-Serif" font-size="10.00">MomentumBuoyancySrcNodeSupp</text>
<text text-anchor="middle" x="575.5" y="-74.5" font-family="Helvetica,sans-Serif" font-size="10.00">Alg.C</text>
</a>
</g>
</g>
<!-- Node2 -->
<g id="node2" class="node">
<title>Node2</title>
<g id="a_node2"><a xlink:title=" ">
<polygon fill="white" stroke="#bfbfbf" points="0,-0.5 0,-30.5 185,-30.5 185,-0.5 0,-0.5"/>
<text text-anchor="start" x="8" y="-18.5" font-family="Helvetica,sans-Serif" font-size="10.00">MomentumBuoyancySrcNodeSupp</text>
<text text-anchor="middle" x="92.5" y="-7.5" font-family="Helvetica,sans-Serif" font-size="10.00">Alg.h</text>
</a>
</g>
</g>
<!-- Node1&#45;&gt;Node2 -->
<g id="edge1" class="edge">
<title>Node1&#45;&gt;Node2</title>
<path fill="none" stroke="midnightblue" d="M482.83,-69.54C407.87,-59.8 299.28,-45.54 195.28,-31.24"/>
<polygon fill="midnightblue" stroke="midnightblue" points="195.62,-27.75 185.23,-29.85 194.66,-34.69 195.62,-27.75"/>
</g>
<!-- Node3 -->
<g id="node3" class="node">
<title>Node3</title>
<g id="a_node3"><a xlink:title=" ">
<polygon fill="white" stroke="#bfbfbf" points="202.5,-6 202.5,-25 290.5,-25 290.5,-6 202.5,-6"/>
<text text-anchor="middle" x="246.5" y="-13" font-family="Helvetica,sans-Serif" font-size="10.00">FieldTypeDef.h</text>
</a>
</g>
</g>
<!-- Node1&#45;&gt;Node3 -->
<g id="edge2" class="edge">
<title>Node1&#45;&gt;Node3</title>
<path fill="none" stroke="midnightblue" d="M488.09,-67.49C433.61,-58.26 362.19,-45.28 299.5,-31 295.04,-29.98 290.38,-28.84 285.77,-27.65"/>
<polygon fill="midnightblue" stroke="midnightblue" points="286.39,-24.19 275.82,-25.01 284.59,-30.96 286.39,-24.19"/>
</g>
<!-- Node4 -->
<g id="node4" class="node">
<title>Node4</title>
<g id="a_node4"><a xlink:title=" ">
<polygon fill="white" stroke="#bfbfbf" points="309,-6 309,-25 366,-25 366,-6 309,-6"/>
<text text-anchor="middle" x="337.5" y="-13" font-family="Helvetica,sans-Serif" font-size="10.00">Realm.h</text>
</a>
</g>
</g>
<!-- Node1&#45;&gt;Node4 -->
<g id="edge3" class="edge">
<title>Node1&#45;&gt;Node4</title>
<path fill="none" stroke="midnightblue" d="M510.64,-67.42C470.97,-58.26 419.39,-45.37 374.5,-31 372.23,-30.27 369.89,-29.48 367.55,-28.64"/>
<polygon fill="midnightblue" stroke="midnightblue" points="368.67,-25.32 358.08,-25.1 366.22,-31.88 368.67,-25.32"/>
</g>
<!-- Node5 -->
<g id="node5" class="node">
<title>Node5</title>
<g id="a_node5"><a xlink:title=" ">
<polygon fill="white" stroke="#bfbfbf" points="384,-6 384,-25 487,-25 487,-6 384,-6"/>
<text text-anchor="middle" x="435.5" y="-13" font-family="Helvetica,sans-Serif" font-size="10.00">SolutionOptions.h</text>
</a>
</g>
</g>
<!-- Node1&#45;&gt;Node5 -->
<g id="edge4" class="edge">
<title>Node1&#45;&gt;Node5</title>
<path fill="none" stroke="midnightblue" d="M545.12,-67.4C520.67,-56.04 486.59,-40.22 462.95,-29.24"/>
<polygon fill="midnightblue" stroke="midnightblue" points="464.37,-26.04 453.82,-25.01 461.42,-32.39 464.37,-26.04"/>
</g>
<!-- Node6 -->
<g id="node6" class="node">
<title>Node6</title>
<g id="a_node6"><a xlink:title=" ">
<polygon fill="white" stroke="#bfbfbf" points="505,-6 505,-25 646,-25 646,-6 505,-6"/>
<text text-anchor="middle" x="575.5" y="-13" font-family="Helvetica,sans-Serif" font-size="10.00">SupplementalAlgorithm.h</text>
</a>
</g>
</g>
<!-- Node1&#45;&gt;Node6 -->
<g id="edge5" class="edge">
<title>Node1&#45;&gt;Node6</title>
<path fill="none" stroke="midnightblue" d="M575.5,-67.4C575.5,-58.06 575.5,-45.71 575.5,-35.52"/>
<polygon fill="midnightblue" stroke="midnightblue" points="579,-35.19 575.5,-25.19 572,-35.19 579,-35.19"/>
</g>
<!-- Node7 -->
<g id="node7" class="node">
<title>Node7</title>
<g id="a_node7"><a xlink:title=" ">
<polygon fill="white" stroke="#bfbfbf" points="664,-6 664,-25 805,-25 805,-6 664,-6"/>
<text text-anchor="middle" x="734.5" y="-13" font-family="Helvetica,sans-Serif" font-size="10.00">stk_mesh/base/Entity.hpp</text>
</a>
</g>
</g>
<!-- Node1&#45;&gt;Node7 -->
<g id="edge6" class="edge">
<title>Node1&#45;&gt;Node7</title>
<path fill="none" stroke="midnightblue" d="M610,-67.4C638.15,-55.89 677.51,-39.8 704.39,-28.81"/>
<polygon fill="midnightblue" stroke="midnightblue" points="705.76,-32.03 713.69,-25.01 703.11,-25.55 705.76,-32.03"/>
</g>
<!-- Node8 -->
<g id="node8" class="node">
<title>Node8</title>
<g id="a_node8"><a xlink:title=" ">
<polygon fill="white" stroke="#bfbfbf" points="823.5,-6 823.5,-25 985.5,-25 985.5,-6 823.5,-6"/>
<text text-anchor="middle" x="904.5" y="-13" font-family="Helvetica,sans-Serif" font-size="10.00">stk_mesh/base/MetaData.hpp</text>
</a>
</g>
</g>
<!-- Node1&#45;&gt;Node8 -->
<g id="edge7" class="edge">
<title>Node1&#45;&gt;Node8</title>
<path fill="none" stroke="midnightblue" d="M646.48,-67.48C708.01,-55.32 795.68,-38 851.33,-27.01"/>
<polygon fill="midnightblue" stroke="midnightblue" points="852.2,-30.4 861.33,-25.03 850.84,-23.53 852.2,-30.4"/>
</g>
<!-- Node9 -->
<g id="node9" class="node">
<title>Node9</title>
<g id="a_node9"><a xlink:title=" ">
<polygon fill="white" stroke="#bfbfbf" points="1004,-6 1004,-25 1163,-25 1163,-6 1004,-6"/>
<text text-anchor="middle" x="1083.5" y="-13" font-family="Helvetica,sans-Serif" font-size="10.00">stk_mesh/base/BulkData.hpp</text>
</a>
</g>
</g>
<!-- Node1&#45;&gt;Node9 -->
<g id="edge8" class="edge">
<title>Node1&#45;&gt;Node9</title>
<path fill="none" stroke="midnightblue" d="M668.01,-71.47C753.01,-61.98 882.42,-46.88 994.5,-31 1003.82,-29.68 1013.67,-28.18 1023.29,-26.66"/>
<polygon fill="midnightblue" stroke="midnightblue" points="1023.87,-30.11 1033.19,-25.07 1022.77,-23.2 1023.87,-30.11"/>
</g>
<!-- Node10 -->
<g id="node10" class="node">
<title>Node10</title>
<g id="a_node10"><a xlink:title=" ">
<polygon fill="white" stroke="#bfbfbf" points="1181,-6 1181,-25 1318,-25 1318,-6 1181,-6"/>
<text text-anchor="middle" x="1249.5" y="-13" font-family="Helvetica,sans-Serif" font-size="10.00">stk_mesh/base/Field.hpp</text>
</a>
</g>
</g>
<!-- Node1&#45;&gt;Node10 -->
<g id="edge9" class="edge">
<title>Node1&#45;&gt;Node10</title>
<path fill="none" stroke="midnightblue" d="M668.12,-76.59C785.76,-69.69 994.84,-55.18 1172.5,-31 1180.93,-29.85 1189.83,-28.4 1198.48,-26.86"/>
<polygon fill="midnightblue" stroke="midnightblue" points="1199.26,-30.28 1208.47,-25.03 1198,-23.39 1199.26,-30.28"/>
</g>
</g>
</svg>
