<?xml version="1.0" encoding="UTF-8" standalone="no"?>
<!DOCTYPE svg PUBLIC "-//W3C//DTD SVG 1.1//EN"
 "http://www.w3.org/Graphics/SVG/1.1/DTD/svg11.dtd">
<!-- Generated by graphviz version 2.43.0 (0)
 -->
<!-- Title: MomentumBuoyancyNodeKernel.C Pages: 1 -->
<svg width="855pt" height="95pt"
 viewBox="0.00 0.00 854.50 95.00" xmlns="http://www.w3.org/2000/svg" xmlns:xlink="http://www.w3.org/1999/xlink">
<g id="graph0" class="graph" transform="scale(1 1) rotate(0) translate(4 91)">
<title>MomentumBuoyancyNodeKernel.C</title>
<polygon fill="white" stroke="transparent" points="-4,4 -4,-91 850.5,-91 850.5,4 -4,4"/>
<!-- Node1 -->
<g id="node1" class="node">
<title>Node1</title>
<g id="a_node1"><a xlink:title=" ">
<polygon fill="#bfbfbf" stroke="black" points="354.5,-67.5 354.5,-86.5 541.5,-86.5 541.5,-67.5 354.5,-67.5"/>
<text text-anchor="middle" x="448" y="-74.5" font-family="Helvetica,sans-Serif" font-size="10.00">MomentumBuoyancyNodeKernel.C</text>
</a>
</g>
</g>
<!-- Node2 -->
<g id="node2" class="node">
<title>Node2</title>
<g id="a_node2"><a xlink:title=" ">
<polygon fill="white" stroke="#bfbfbf" points="0,-0.5 0,-30.5 188,-30.5 188,-0.5 0,-0.5"/>
<text text-anchor="start" x="8" y="-18.5" font-family="Helvetica,sans-Serif" font-size="10.00">node_kernels/MomentumBuoyancy</text>
<text text-anchor="middle" x="94" y="-7.5" font-family="Helvetica,sans-Serif" font-size="10.00">NodeKernel.h</text>
</a>
</g>
</g>
<!-- Node1&#45;&gt;Node2 -->
<g id="edge1" class="edge">
<title>Node1&#45;&gt;Node2</title>
<path fill="none" stroke="midnightblue" d="M397.28,-67.48C342.73,-58.31 254.78,-43.52 187.6,-32.23"/>
<polygon fill="midnightblue" stroke="midnightblue" points="187.87,-28.73 177.43,-30.52 186.71,-35.63 187.87,-28.73"/>
</g>
<!-- Node3 -->
<g id="node3" class="node">
<title>Node3</title>
<g id="a_node3"><a xlink:title=" ">
<polygon fill="white" stroke="#bfbfbf" points="206.5,-6 206.5,-25 263.5,-25 263.5,-6 206.5,-6"/>
<text text-anchor="middle" x="235" y="-13" font-family="Helvetica,sans-Serif" font-size="10.00">Realm.h</text>
</a>
</g>
</g>
<!-- Node1&#45;&gt;Node3 -->
<g id="edge2" class="edge">
<title>Node1&#45;&gt;Node3</title>
<path fill="none" stroke="midnightblue" d="M409.76,-67.48C374.07,-59.22 319.48,-45.79 273,-31 270.59,-30.23 268.1,-29.39 265.62,-28.52"/>
<polygon fill="midnightblue" stroke="midnightblue" points="266.75,-25.21 256.15,-25.06 264.34,-31.78 266.75,-25.21"/>
</g>
<!-- Node4 -->
<g id="node4" class="node">
<title>Node4</title>
<g id="a_node4"><a xlink:title=" ">
<polygon fill="white" stroke="#bfbfbf" points="282,-6 282,-25 444,-25 444,-6 282,-6"/>
<text text-anchor="middle" x="363" y="-13" font-family="Helvetica,sans-Serif" font-size="10.00">stk_mesh/base/MetaData.hpp</text>
</a>
</g>
</g>
<!-- Node1&#45;&gt;Node4 -->
<g id="edge3" class="edge">
<title>Node1&#45;&gt;Node4</title>
<path fill="none" stroke="midnightblue" d="M435.82,-67.48C422.19,-57.93 399.87,-42.31 383.53,-30.87"/>
<polygon fill="midnightblue" stroke="midnightblue" points="385.36,-27.88 375.16,-25.01 381.34,-33.61 385.36,-27.88"/>
</g>
<!-- Node5 -->
<g id="node5" class="node">
<title>Node5</title>
<g id="a_node5"><a xlink:title=" ">
<polygon fill="white" stroke="#bfbfbf" points="462,-6 462,-25 604,-25 604,-6 462,-6"/>
<text text-anchor="middle" x="533" y="-13" font-family="Helvetica,sans-Serif" font-size="10.00">stk_mesh/base/Types.hpp</text>
</a>
</g>
</g>
<!-- Node1&#45;&gt;Node5 -->
<g id="edge4" class="edge">
<title>Node1&#45;&gt;Node5</title>
<path fill="none" stroke="midnightblue" d="M460.18,-67.48C473.81,-57.93 496.13,-42.31 512.47,-30.87"/>
<polygon fill="midnightblue" stroke="midnightblue" points="514.66,-33.61 520.84,-25.01 510.64,-27.88 514.66,-33.61"/>
</g>
<!-- Node6 -->
<g id="node6" class="node">
<title>Node6</title>
<g id="a_node6"><a xlink:title=" ">
<polygon fill="white" stroke="#bfbfbf" points="622.5,-6 622.5,-25 725.5,-25 725.5,-6 622.5,-6"/>
<text text-anchor="middle" x="674" y="-13" font-family="Helvetica,sans-Serif" font-size="10.00">utils/StkHelpers.h</text>
</a>
</g>
</g>
<!-- Node1&#45;&gt;Node6 -->
<g id="edge5" class="edge">
<title>Node1&#45;&gt;Node6</title>
<path fill="none" stroke="midnightblue" d="M480.38,-67.48C520.24,-56.98 588.02,-39.14 631.89,-27.59"/>
<polygon fill="midnightblue" stroke="midnightblue" points="632.9,-30.94 641.68,-25.01 631.12,-24.17 632.9,-30.94"/>
</g>
<!-- Node7 -->
<g id="node7" class="node">
<title>Node7</title>
<g id="a_node7"><a xlink:title=" ">
<polygon fill="white" stroke="#bfbfbf" points="743.5,-6 743.5,-25 846.5,-25 846.5,-6 743.5,-6"/>
<text text-anchor="middle" x="795" y="-13" font-family="Helvetica,sans-Serif" font-size="10.00">SolutionOptions.h</text>
</a>
</g>
</g>
<!-- Node1&#45;&gt;Node7 -->
<g id="edge6" class="edge">
<title>Node1&#45;&gt;Node7</title>
<path fill="none" stroke="midnightblue" d="M512.1,-67.48C570.44,-59.36 658.82,-46.15 735,-31 740.45,-29.92 746.16,-28.68 751.79,-27.39"/>
<polygon fill="midnightblue" stroke="midnightblue" points="752.85,-30.73 761.78,-25.04 751.25,-23.92 752.85,-30.73"/>
</g>
</g>
</svg>
