<?xml version="1.0" encoding="UTF-8" standalone="no"?>
<!DOCTYPE svg PUBLIC "-//W3C//DTD SVG 1.1//EN"
 "http://www.w3.org/Graphics/SVG/1.1/DTD/svg11.dtd">
<!-- Generated by graphviz version 2.43.0 (0)
 -->
<!-- Title: MomentumWallFunctionElemKernel.C Pages: 1 -->
<svg width="1713pt" height="106pt"
 viewBox="0.00 0.00 1712.50 106.00" xmlns="http://www.w3.org/2000/svg" xmlns:xlink="http://www.w3.org/1999/xlink">
<g id="graph0" class="graph" transform="scale(1 1) rotate(0) translate(4 102)">
<title>MomentumWallFunctionElemKernel.C</title>
<polygon fill="white" stroke="transparent" points="-4,4 -4,-102 1708.5,-102 1708.5,4 -4,4"/>
<!-- Node1 -->
<g id="node1" class="node">
<title>Node1</title>
<g id="a_node1"><a xlink:title=" ">
<polygon fill="#bfbfbf" stroke="black" points="786,-67.5 786,-97.5 946,-97.5 946,-67.5 786,-67.5"/>
<text text-anchor="start" x="794" y="-85.5" font-family="Helvetica,sans-Serif" font-size="10.00">MomentumWallFunctionElem</text>
<text text-anchor="middle" x="866" y="-74.5" font-family="Helvetica,sans-Serif" font-size="10.00">Kernel.C</text>
</a>
</g>
</g>
<!-- Node2 -->
<g id="node2" class="node">
<title>Node2</title>
<g id="a_node2"><a xlink:title=" ">
<polygon fill="white" stroke="#bfbfbf" points="0,-0.5 0,-30.5 168,-30.5 168,-0.5 0,-0.5"/>
<text text-anchor="start" x="8" y="-18.5" font-family="Helvetica,sans-Serif" font-size="10.00">kernel/MomentumWallFunction</text>
<text text-anchor="middle" x="84" y="-7.5" font-family="Helvetica,sans-Serif" font-size="10.00">ElemKernel.h</text>
</a>
</g>
</g>
<!-- Node1&#45;&gt;Node2 -->
<g id="edge1" class="edge">
<title>Node1&#45;&gt;Node2</title>
<path fill="none" stroke="midnightblue" d="M785.97,-77.76C659.22,-71.36 404.31,-56.58 178.17,-31.07"/>
<polygon fill="midnightblue" stroke="midnightblue" points="178.44,-27.58 168.11,-29.93 177.65,-34.54 178.44,-27.58"/>
</g>
<!-- Node3 -->
<g id="node3" class="node">
<title>Node3</title>
<g id="a_node3"><a xlink:title=" ">
<polygon fill="white" stroke="#bfbfbf" points="186.5,-6 186.5,-25 369.5,-25 369.5,-6 186.5,-6"/>
<text text-anchor="middle" x="278" y="-13" font-family="Helvetica,sans-Serif" font-size="10.00">master_element/MasterElement.h</text>
</a>
</g>
</g>
<!-- Node1&#45;&gt;Node3 -->
<g id="edge2" class="edge">
<title>Node1&#45;&gt;Node3</title>
<path fill="none" stroke="midnightblue" d="M785.75,-74.15C689.13,-65.08 521.99,-48.67 379,-31 367.85,-29.62 356.03,-28.04 344.55,-26.43"/>
<polygon fill="midnightblue" stroke="midnightblue" points="344.96,-22.96 334.57,-25.02 343.98,-29.89 344.96,-22.96"/>
</g>
<!-- Node4 -->
<g id="node4" class="node">
<title>Node4</title>
<g id="a_node4"><a xlink:title=" ">
<polygon fill="white" stroke="#bfbfbf" points="388,-0.5 388,-30.5 562,-30.5 562,-0.5 388,-0.5"/>
<text text-anchor="start" x="396" y="-18.5" font-family="Helvetica,sans-Serif" font-size="10.00">master_element/MasterElement</text>
<text text-anchor="middle" x="475" y="-7.5" font-family="Helvetica,sans-Serif" font-size="10.00">Repo.h</text>
</a>
</g>
</g>
<!-- Node1&#45;&gt;Node4 -->
<g id="edge3" class="edge">
<title>Node1&#45;&gt;Node4</title>
<path fill="none" stroke="midnightblue" d="M785.93,-68.19C723.13,-57.75 635.58,-43.19 569.38,-32.19"/>
<polygon fill="midnightblue" stroke="midnightblue" points="569.79,-28.71 559.36,-30.52 568.65,-35.62 569.79,-28.71"/>
</g>
<!-- Node5 -->
<g id="node5" class="node">
<title>Node5</title>
<g id="a_node5"><a xlink:title=" ">
<polygon fill="white" stroke="#bfbfbf" points="580.5,-6 580.5,-25 683.5,-25 683.5,-6 580.5,-6"/>
<text text-anchor="middle" x="632" y="-13" font-family="Helvetica,sans-Serif" font-size="10.00">SolutionOptions.h</text>
</a>
</g>
</g>
<!-- Node1&#45;&gt;Node5 -->
<g id="edge4" class="edge">
<title>Node1&#45;&gt;Node5</title>
<path fill="none" stroke="midnightblue" d="M815.51,-67.48C772.75,-55.6 712.23,-38.79 672.56,-27.77"/>
<polygon fill="midnightblue" stroke="midnightblue" points="673.28,-24.33 662.7,-25.03 671.4,-31.08 673.28,-24.33"/>
</g>
<!-- Node6 -->
<g id="node6" class="node">
<title>Node6</title>
<g id="a_node6"><a xlink:title=" ">
<polygon fill="white" stroke="#bfbfbf" points="701.5,-6 701.5,-25 802.5,-25 802.5,-6 701.5,-6"/>
<text text-anchor="middle" x="752" y="-13" font-family="Helvetica,sans-Serif" font-size="10.00">BuildTemplates.h</text>
</a>
</g>
</g>
<!-- Node1&#45;&gt;Node6 -->
<g id="edge5" class="edge">
<title>Node1&#45;&gt;Node6</title>
<path fill="none" stroke="midnightblue" d="M841.26,-67.4C821.79,-56.29 794.83,-40.92 775.65,-29.98"/>
<polygon fill="midnightblue" stroke="midnightblue" points="777.34,-26.92 766.92,-25.01 773.87,-33 777.34,-26.92"/>
</g>
<!-- Node7 -->
<g id="node7" class="node">
<title>Node7</title>
<g id="a_node7"><a xlink:title=" ">
<polygon fill="white" stroke="#bfbfbf" points="820.5,-6 820.5,-25 911.5,-25 911.5,-6 820.5,-6"/>
<text text-anchor="middle" x="866" y="-13" font-family="Helvetica,sans-Serif" font-size="10.00">ScratchViews.h</text>
</a>
</g>
</g>
<!-- Node1&#45;&gt;Node7 -->
<g id="edge6" class="edge">
<title>Node1&#45;&gt;Node7</title>
<path fill="none" stroke="midnightblue" d="M866,-67.4C866,-58.06 866,-45.71 866,-35.52"/>
<polygon fill="midnightblue" stroke="midnightblue" points="869.5,-35.19 866,-25.19 862.5,-35.19 869.5,-35.19"/>
</g>
<!-- Node8 -->
<g id="node8" class="node">
<title>Node8</title>
<g id="a_node8"><a xlink:title=" ">
<polygon fill="white" stroke="#bfbfbf" points="929.5,-6 929.5,-25 1032.5,-25 1032.5,-6 929.5,-6"/>
<text text-anchor="middle" x="981" y="-13" font-family="Helvetica,sans-Serif" font-size="10.00">utils/StkHelpers.h</text>
</a>
</g>
</g>
<!-- Node1&#45;&gt;Node8 -->
<g id="edge7" class="edge">
<title>Node1&#45;&gt;Node8</title>
<path fill="none" stroke="midnightblue" d="M890.95,-67.4C910.6,-56.29 937.79,-40.92 957.15,-29.98"/>
<polygon fill="midnightblue" stroke="midnightblue" points="958.97,-32.97 965.95,-25.01 955.52,-26.88 958.97,-32.97"/>
</g>
<!-- Node9 -->
<g id="node9" class="node">
<title>Node9</title>
<g id="a_node9"><a xlink:title=" ">
<polygon fill="white" stroke="#bfbfbf" points="1050.5,-6 1050.5,-25 1191.5,-25 1191.5,-6 1050.5,-6"/>
<text text-anchor="middle" x="1121" y="-13" font-family="Helvetica,sans-Serif" font-size="10.00">stk_mesh/base/Entity.hpp</text>
</a>
</g>
</g>
<!-- Node1&#45;&gt;Node9 -->
<g id="edge8" class="edge">
<title>Node1&#45;&gt;Node9</title>
<path fill="none" stroke="midnightblue" d="M921.02,-67.48C967.92,-55.52 1034.41,-38.57 1077.62,-27.56"/>
<polygon fill="midnightblue" stroke="midnightblue" points="1078.72,-30.89 1087.54,-25.03 1076.99,-24.11 1078.72,-30.89"/>
</g>
<!-- Node10 -->
<g id="node10" class="node">
<title>Node10</title>
<g id="a_node10"><a xlink:title=" ">
<polygon fill="white" stroke="#bfbfbf" points="1210,-6 1210,-25 1372,-25 1372,-6 1210,-6"/>
<text text-anchor="middle" x="1291" y="-13" font-family="Helvetica,sans-Serif" font-size="10.00">stk_mesh/base/MetaData.hpp</text>
</a>
</g>
</g>
<!-- Node1&#45;&gt;Node10 -->
<g id="edge9" class="edge">
<title>Node1&#45;&gt;Node10</title>
<path fill="none" stroke="midnightblue" d="M946.25,-69.64C1014.13,-59.54 1113.97,-44.57 1201,-31 1209.96,-29.6 1219.41,-28.11 1228.69,-26.62"/>
<polygon fill="midnightblue" stroke="midnightblue" points="1229.34,-30.06 1238.66,-25.02 1228.24,-23.15 1229.34,-30.06"/>
</g>
<!-- Node11 -->
<g id="node11" class="node">
<title>Node11</title>
<g id="a_node11"><a xlink:title=" ">
<polygon fill="white" stroke="#bfbfbf" points="1390.5,-6 1390.5,-25 1549.5,-25 1549.5,-6 1390.5,-6"/>
<text text-anchor="middle" x="1470" y="-13" font-family="Helvetica,sans-Serif" font-size="10.00">stk_mesh/base/BulkData.hpp</text>
</a>
</g>
</g>
<!-- Node1&#45;&gt;Node11 -->
<g id="edge10" class="edge">
<title>Node1&#45;&gt;Node11</title>
<path fill="none" stroke="midnightblue" d="M946.02,-75.24C1047.44,-66.95 1227.55,-51 1381,-31 1390.78,-29.73 1401.14,-28.2 1411.19,-26.62"/>
<polygon fill="midnightblue" stroke="midnightblue" points="1411.79,-30.07 1421.12,-25.04 1410.69,-23.16 1411.79,-30.07"/>
</g>
<!-- Node12 -->
<g id="node12" class="node">
<title>Node12</title>
<g id="a_node12"><a xlink:title=" ">
<polygon fill="white" stroke="#bfbfbf" points="1567.5,-6 1567.5,-25 1704.5,-25 1704.5,-6 1567.5,-6"/>
<text text-anchor="middle" x="1636" y="-13" font-family="Helvetica,sans-Serif" font-size="10.00">stk_mesh/base/Field.hpp</text>
</a>
</g>
</g>
<!-- Node1&#45;&gt;Node12 -->
<g id="edge11" class="edge">
<title>Node1&#45;&gt;Node12</title>
<path fill="none" stroke="midnightblue" d="M946.07,-78.62C1075.41,-73.3 1338.15,-59.75 1559,-31 1567.53,-29.89 1576.55,-28.44 1585.29,-26.89"/>
<polygon fill="midnightblue" stroke="midnightblue" points="1586.17,-30.29 1595.38,-25.04 1584.91,-23.4 1586.17,-30.29"/>
</g>
</g>
</svg>
