<?xml version="1.0" encoding="UTF-8" standalone="no"?>
<!DOCTYPE svg PUBLIC "-//W3C//DTD SVG 1.1//EN"
 "http://www.w3.org/Graphics/SVG/1.1/DTD/svg11.dtd">
<!-- Generated by graphviz version 2.43.0 (0)
 -->
<!-- Title: MomentumEdgePecletAlg.C Pages: 1 -->
<svg width="1631pt" height="95pt"
 viewBox="0.00 0.00 1630.50 95.00" xmlns="http://www.w3.org/2000/svg" xmlns:xlink="http://www.w3.org/1999/xlink">
<g id="graph0" class="graph" transform="scale(1 1) rotate(0) translate(4 91)">
<title>MomentumEdgePecletAlg.C</title>
<polygon fill="white" stroke="transparent" points="-4,4 -4,-91 1626.5,-91 1626.5,4 -4,4"/>
<!-- Node1 -->
<g id="node1" class="node">
<title>Node1</title>
<g id="a_node1"><a xlink:title=" ">
<polygon fill="#bfbfbf" stroke="black" points="599,-67.5 599,-86.5 751,-86.5 751,-67.5 599,-67.5"/>
<text text-anchor="middle" x="675" y="-74.5" font-family="Helvetica,sans-Serif" font-size="10.00">MomentumEdgePecletAlg.C</text>
</a>
</g>
</g>
<!-- Node2 -->
<g id="node2" class="node">
<title>Node2</title>
<g id="a_node2"><a xlink:title=" ">
<polygon fill="white" stroke="#bfbfbf" points="0,-0.5 0,-30.5 164,-30.5 164,-0.5 0,-0.5"/>
<text text-anchor="start" x="8" y="-18.5" font-family="Helvetica,sans-Serif" font-size="10.00">edge_kernels/MomentumEdge</text>
<text text-anchor="middle" x="82" y="-7.5" font-family="Helvetica,sans-Serif" font-size="10.00">PecletAlg.h</text>
</a>
</g>
</g>
<!-- Node1&#45;&gt;Node2 -->
<g id="edge1" class="edge">
<title>Node1&#45;&gt;Node2</title>
<path fill="none" stroke="midnightblue" d="M598.71,-70.8C502.29,-63.86 331,-50.3 174.58,-31.14"/>
<polygon fill="midnightblue" stroke="midnightblue" points="174.66,-27.63 164.3,-29.87 173.8,-34.57 174.66,-27.63"/>
</g>
<!-- Node3 -->
<g id="node3" class="node">
<title>Node3</title>
<g id="a_node3"><a xlink:title=" ">
<polygon fill="white" stroke="#bfbfbf" points="182.5,-6 182.5,-25 239.5,-25 239.5,-6 182.5,-6"/>
<text text-anchor="middle" x="211" y="-13" font-family="Helvetica,sans-Serif" font-size="10.00">Realm.h</text>
</a>
</g>
</g>
<!-- Node1&#45;&gt;Node3 -->
<g id="edge2" class="edge">
<title>Node1&#45;&gt;Node3</title>
<path fill="none" stroke="midnightblue" d="M598.75,-74.11C512.5,-70.57 368.4,-60.37 248,-31 245.17,-30.31 242.27,-29.45 239.4,-28.51"/>
<polygon fill="midnightblue" stroke="midnightblue" points="240.48,-25.17 229.89,-25.03 238.08,-31.75 240.48,-25.17"/>
</g>
<!-- Node4 -->
<g id="node4" class="node">
<title>Node4</title>
<g id="a_node4"><a xlink:title=" ">
<polygon fill="white" stroke="#bfbfbf" points="257.5,-6 257.5,-25 360.5,-25 360.5,-6 257.5,-6"/>
<text text-anchor="middle" x="309" y="-13" font-family="Helvetica,sans-Serif" font-size="10.00">SolutionOptions.h</text>
</a>
</g>
</g>
<!-- Node1&#45;&gt;Node4 -->
<g id="edge3" class="edge">
<title>Node1&#45;&gt;Node4</title>
<path fill="none" stroke="midnightblue" d="M604.51,-67.49C542.28,-59.53 449.26,-46.57 369,-31 363.48,-29.93 357.7,-28.69 351.99,-27.39"/>
<polygon fill="midnightblue" stroke="midnightblue" points="352.43,-23.9 341.89,-25.02 350.83,-30.71 352.43,-23.9"/>
</g>
<!-- Node5 -->
<g id="node5" class="node">
<title>Node5</title>
<g id="a_node5"><a xlink:title=" ">
<polygon fill="white" stroke="#bfbfbf" points="378.5,-6 378.5,-25 437.5,-25 437.5,-6 378.5,-6"/>
<text text-anchor="middle" x="408" y="-13" font-family="Helvetica,sans-Serif" font-size="10.00">Enums.h</text>
</a>
</g>
</g>
<!-- Node1&#45;&gt;Node5 -->
<g id="edge4" class="edge">
<title>Node1&#45;&gt;Node5</title>
<path fill="none" stroke="midnightblue" d="M618.65,-67.48C572.14,-59.83 504.66,-47.29 447,-31 444.35,-30.25 441.63,-29.41 438.92,-28.51"/>
<polygon fill="midnightblue" stroke="midnightblue" points="439.85,-25.12 429.25,-25.11 437.52,-31.73 439.85,-25.12"/>
</g>
<!-- Node6 -->
<g id="node6" class="node">
<title>Node6</title>
<g id="a_node6"><a xlink:title=" ">
<polygon fill="white" stroke="#bfbfbf" points="456,-6 456,-25 500,-25 500,-6 456,-6"/>
<text text-anchor="middle" x="478" y="-13" font-family="Helvetica,sans-Serif" font-size="10.00">string</text>
</a>
</g>
</g>
<!-- Node1&#45;&gt;Node6 -->
<g id="edge5" class="edge">
<title>Node1&#45;&gt;Node6</title>
<path fill="none" stroke="midnightblue" d="M636.17,-67.48C602.15,-59.55 551.62,-46.61 509,-31 507.39,-30.41 505.75,-29.77 504.1,-29.09"/>
<polygon fill="midnightblue" stroke="midnightblue" points="505.39,-25.84 494.83,-25.02 502.57,-32.25 505.39,-25.84"/>
</g>
<!-- Node7 -->
<g id="node7" class="node">
<title>Node7</title>
<g id="a_node7"><a xlink:title=" ">
<polygon fill="white" stroke="#bfbfbf" points="518.5,-6 518.5,-25 675.5,-25 675.5,-6 518.5,-6"/>
<text text-anchor="middle" x="597" y="-13" font-family="Helvetica,sans-Serif" font-size="10.00">stk_mesh/base/NgpField.hpp</text>
</a>
</g>
</g>
<!-- Node1&#45;&gt;Node7 -->
<g id="edge6" class="edge">
<title>Node1&#45;&gt;Node7</title>
<path fill="none" stroke="midnightblue" d="M663.82,-67.48C651.43,-58.02 631.21,-42.6 616.25,-31.19"/>
<polygon fill="midnightblue" stroke="midnightblue" points="618.23,-28.29 608.15,-25.01 613.98,-33.86 618.23,-28.29"/>
</g>
<!-- Node8 -->
<g id="node8" class="node">
<title>Node8</title>
<g id="a_node8"><a xlink:title=" ">
<polygon fill="white" stroke="#bfbfbf" points="694,-6 694,-25 814,-25 814,-6 694,-6"/>
<text text-anchor="middle" x="754" y="-13" font-family="Helvetica,sans-Serif" font-size="10.00">ngp_utils/NgpTypes.h</text>
</a>
</g>
</g>
<!-- Node1&#45;&gt;Node8 -->
<g id="edge7" class="edge">
<title>Node1&#45;&gt;Node8</title>
<path fill="none" stroke="midnightblue" d="M686.32,-67.48C698.87,-58.02 719.35,-42.6 734.5,-31.19"/>
<polygon fill="midnightblue" stroke="midnightblue" points="736.82,-33.82 742.7,-25.01 732.61,-28.23 736.82,-33.82"/>
</g>
<!-- Node9 -->
<g id="node9" class="node">
<title>Node9</title>
<g id="a_node9"><a xlink:title=" ">
<polygon fill="white" stroke="#bfbfbf" points="832.5,-6 832.5,-25 937.5,-25 937.5,-6 832.5,-6"/>
<text text-anchor="middle" x="885" y="-13" font-family="Helvetica,sans-Serif" font-size="10.00">EquationSystem.h</text>
</a>
</g>
</g>
<!-- Node1&#45;&gt;Node9 -->
<g id="edge8" class="edge">
<title>Node1&#45;&gt;Node9</title>
<path fill="none" stroke="midnightblue" d="M705.09,-67.48C741.89,-57.05 804.31,-39.36 845.09,-27.81"/>
<polygon fill="midnightblue" stroke="midnightblue" points="846.3,-31.1 854.97,-25.01 844.39,-24.37 846.3,-31.1"/>
</g>
<!-- Node10 -->
<g id="node10" class="node">
<title>Node10</title>
<g id="a_node10"><a xlink:title=" ">
<polygon fill="white" stroke="#bfbfbf" points="956,-6 956,-25 1094,-25 1094,-6 956,-6"/>
<text text-anchor="middle" x="1025" y="-13" font-family="Helvetica,sans-Serif" font-size="10.00">ngp_utils/NgpFieldUtils.h</text>
</a>
</g>
</g>
<!-- Node1&#45;&gt;Node10 -->
<g id="edge9" class="edge">
<title>Node1&#45;&gt;Node10</title>
<path fill="none" stroke="midnightblue" d="M728.47,-67.48C783.36,-58.65 871.22,-44.31 947,-31 954.45,-29.69 962.3,-28.28 970.02,-26.86"/>
<polygon fill="midnightblue" stroke="midnightblue" points="970.87,-30.26 980.07,-25.01 969.6,-23.38 970.87,-30.26"/>
</g>
<!-- Node11 -->
<g id="node11" class="node">
<title>Node11</title>
<g id="a_node11"><a xlink:title=" ">
<polygon fill="white" stroke="#bfbfbf" points="1112,-6 1112,-25 1250,-25 1250,-6 1112,-6"/>
<text text-anchor="middle" x="1181" y="-13" font-family="Helvetica,sans-Serif" font-size="10.00">ngp_utils/NgpLoopUtils.h</text>
</a>
</g>
</g>
<!-- Node1&#45;&gt;Node11 -->
<g id="edge10" class="edge">
<title>Node1&#45;&gt;Node11</title>
<path fill="none" stroke="midnightblue" d="M751.38,-69.8C837.17,-62.42 980.45,-48.81 1103,-31 1111.33,-29.79 1120.12,-28.33 1128.69,-26.81"/>
<polygon fill="midnightblue" stroke="midnightblue" points="1129.38,-30.24 1138.6,-25.01 1128.13,-23.36 1129.38,-30.24"/>
</g>
<!-- Node12 -->
<g id="node12" class="node">
<title>Node12</title>
<g id="a_node12"><a xlink:title=" ">
<polygon fill="white" stroke="#bfbfbf" points="1268.5,-6 1268.5,-25 1441.5,-25 1441.5,-6 1268.5,-6"/>
<text text-anchor="middle" x="1355" y="-13" font-family="Helvetica,sans-Serif" font-size="10.00">stk_mesh/base/FieldParallel.hpp</text>
</a>
</g>
</g>
<!-- Node1&#45;&gt;Node12 -->
<g id="edge11" class="edge">
<title>Node1&#45;&gt;Node12</title>
<path fill="none" stroke="midnightblue" d="M751.23,-71.91C862.89,-65.51 1077.39,-51.68 1259,-31 1270.14,-29.73 1281.97,-28.14 1293.38,-26.49"/>
<polygon fill="midnightblue" stroke="midnightblue" points="1293.9,-29.95 1303.28,-25.02 1292.87,-23.02 1293.9,-29.95"/>
</g>
<!-- Node13 -->
<g id="node13" class="node">
<title>Node13</title>
<g id="a_node13"><a xlink:title=" ">
<polygon fill="white" stroke="#bfbfbf" points="1459.5,-6 1459.5,-25 1622.5,-25 1622.5,-6 1459.5,-6"/>
<text text-anchor="middle" x="1541" y="-13" font-family="Helvetica,sans-Serif" font-size="10.00">stk_mesh/base/FieldBLAS.hpp</text>
</a>
</g>
</g>
<!-- Node1&#45;&gt;Node13 -->
<g id="edge12" class="edge">
<title>Node1&#45;&gt;Node13</title>
<path fill="none" stroke="midnightblue" d="M751.22,-74.15C890.52,-70.21 1195.44,-58.92 1451,-31 1461.72,-29.83 1473.11,-28.25 1484.05,-26.57"/>
<polygon fill="midnightblue" stroke="midnightblue" points="1484.62,-30.03 1493.95,-25.01 1483.52,-23.11 1484.62,-30.03"/>
</g>
</g>
</svg>
