<?xml version="1.0" encoding="UTF-8" standalone="no"?>
<!DOCTYPE svg PUBLIC "-//W3C//DTD SVG 1.1//EN"
 "http://www.w3.org/Graphics/SVG/1.1/DTD/svg11.dtd">
<!-- Generated by graphviz version 2.43.0 (0)
 -->
<!-- Title: MomentumABLForceNodeKernel.C Pages: 1 -->
<svg width="1062pt" height="95pt"
 viewBox="0.00 0.00 1061.50 95.00" xmlns="http://www.w3.org/2000/svg" xmlns:xlink="http://www.w3.org/1999/xlink">
<g id="graph0" class="graph" transform="scale(1 1) rotate(0) translate(4 91)">
<title>MomentumABLForceNodeKernel.C</title>
<polygon fill="white" stroke="transparent" points="-4,4 -4,-91 1057.5,-91 1057.5,4 -4,4"/>
<!-- Node1 -->
<g id="node1" class="node">
<title>Node1</title>
<g id="a_node1"><a xlink:title=" ">
<polygon fill="#bfbfbf" stroke="black" points="448.5,-67.5 448.5,-86.5 632.5,-86.5 632.5,-67.5 448.5,-67.5"/>
<text text-anchor="middle" x="540.5" y="-74.5" font-family="Helvetica,sans-Serif" font-size="10.00">MomentumABLForceNodeKernel.C</text>
</a>
</g>
</g>
<!-- Node2 -->
<g id="node2" class="node">
<title>Node2</title>
<g id="a_node2"><a xlink:title=" ">
<polygon fill="white" stroke="#bfbfbf" points="0,-0.5 0,-30.5 185,-30.5 185,-0.5 0,-0.5"/>
<text text-anchor="start" x="8" y="-18.5" font-family="Helvetica,sans-Serif" font-size="10.00">node_kernels/MomentumABLForce</text>
<text text-anchor="middle" x="92.5" y="-7.5" font-family="Helvetica,sans-Serif" font-size="10.00">NodeKernel.h</text>
</a>
</g>
</g>
<!-- Node1&#45;&gt;Node2 -->
<g id="edge1" class="edge">
<title>Node1&#45;&gt;Node2</title>
<path fill="none" stroke="midnightblue" d="M472.64,-67.48C404.92,-58.91 297.6,-45.16 195.42,-31.25"/>
<polygon fill="midnightblue" stroke="midnightblue" points="195.61,-27.75 185.23,-29.86 194.67,-34.68 195.61,-27.75"/>
</g>
<!-- Node3 -->
<g id="node3" class="node">
<title>Node3</title>
<g id="a_node3"><a xlink:title=" ">
<polygon fill="white" stroke="#bfbfbf" points="203,-6 203,-25 396,-25 396,-6 203,-6"/>
<text text-anchor="middle" x="299.5" y="-13" font-family="Helvetica,sans-Serif" font-size="10.00">wind_energy/ABLForcingAlgorithm.h</text>
</a>
</g>
</g>
<!-- Node1&#45;&gt;Node3 -->
<g id="edge2" class="edge">
<title>Node1&#45;&gt;Node3</title>
<path fill="none" stroke="midnightblue" d="M505.97,-67.48C463.29,-56.94 390.58,-38.99 343.82,-27.44"/>
<polygon fill="midnightblue" stroke="midnightblue" points="344.51,-24.01 333.97,-25.01 342.83,-30.8 344.51,-24.01"/>
</g>
<!-- Node4 -->
<g id="node4" class="node">
<title>Node4</title>
<g id="a_node4"><a xlink:title=" ">
<polygon fill="white" stroke="#bfbfbf" points="414,-6 414,-25 471,-25 471,-6 414,-6"/>
<text text-anchor="middle" x="442.5" y="-13" font-family="Helvetica,sans-Serif" font-size="10.00">Realm.h</text>
</a>
</g>
</g>
<!-- Node1&#45;&gt;Node4 -->
<g id="edge3" class="edge">
<title>Node1&#45;&gt;Node4</title>
<path fill="none" stroke="midnightblue" d="M526.46,-67.48C510.45,-57.75 484.05,-41.73 465.13,-30.24"/>
<polygon fill="midnightblue" stroke="midnightblue" points="466.88,-27.21 456.51,-25.01 463.25,-33.19 466.88,-27.21"/>
</g>
<!-- Node5 -->
<g id="node5" class="node">
<title>Node5</title>
<g id="a_node5"><a xlink:title=" ">
<polygon fill="white" stroke="#bfbfbf" points="489,-6 489,-25 592,-25 592,-6 489,-6"/>
<text text-anchor="middle" x="540.5" y="-13" font-family="Helvetica,sans-Serif" font-size="10.00">SolutionOptions.h</text>
</a>
</g>
</g>
<!-- Node1&#45;&gt;Node5 -->
<g id="edge4" class="edge">
<title>Node1&#45;&gt;Node5</title>
<path fill="none" stroke="midnightblue" d="M540.5,-67.48C540.5,-59.08 540.5,-45.98 540.5,-35.16"/>
<polygon fill="midnightblue" stroke="midnightblue" points="544,-35.01 540.5,-25.01 537,-35.01 544,-35.01"/>
</g>
<!-- Node6 -->
<g id="node6" class="node">
<title>Node6</title>
<g id="a_node6"><a xlink:title=" ">
<polygon fill="white" stroke="#bfbfbf" points="610,-6 610,-25 713,-25 713,-6 610,-6"/>
<text text-anchor="middle" x="661.5" y="-13" font-family="Helvetica,sans-Serif" font-size="10.00">utils/StkHelpers.h</text>
</a>
</g>
</g>
<!-- Node1&#45;&gt;Node6 -->
<g id="edge5" class="edge">
<title>Node1&#45;&gt;Node6</title>
<path fill="none" stroke="midnightblue" d="M557.84,-67.48C578.05,-57.53 611.69,-40.99 635.14,-29.46"/>
<polygon fill="midnightblue" stroke="midnightblue" points="636.77,-32.56 644.2,-25.01 633.68,-26.28 636.77,-32.56"/>
</g>
<!-- Node7 -->
<g id="node7" class="node">
<title>Node7</title>
<g id="a_node7"><a xlink:title=" ">
<polygon fill="white" stroke="#bfbfbf" points="731.5,-6 731.5,-25 893.5,-25 893.5,-6 731.5,-6"/>
<text text-anchor="middle" x="812.5" y="-13" font-family="Helvetica,sans-Serif" font-size="10.00">stk_mesh/base/MetaData.hpp</text>
</a>
</g>
</g>
<!-- Node1&#45;&gt;Node7 -->
<g id="edge6" class="edge">
<title>Node1&#45;&gt;Node7</title>
<path fill="none" stroke="midnightblue" d="M579.47,-67.48C628.05,-56.85 711.08,-38.68 763.8,-27.15"/>
<polygon fill="midnightblue" stroke="midnightblue" points="764.58,-30.57 773.6,-25.01 763.08,-23.73 764.58,-30.57"/>
</g>
<!-- Node8 -->
<g id="node8" class="node">
<title>Node8</title>
<g id="a_node8"><a xlink:title=" ">
<polygon fill="white" stroke="#bfbfbf" points="911.5,-6 911.5,-25 1053.5,-25 1053.5,-6 911.5,-6"/>
<text text-anchor="middle" x="982.5" y="-13" font-family="Helvetica,sans-Serif" font-size="10.00">stk_mesh/base/Types.hpp</text>
</a>
</g>
</g>
<!-- Node1&#45;&gt;Node8 -->
<g id="edge7" class="edge">
<title>Node1&#45;&gt;Node8</title>
<path fill="none" stroke="midnightblue" d="M619.41,-67.47C692.86,-59.23 805.3,-45.84 902.5,-31 910.63,-29.76 919.21,-28.33 927.61,-26.86"/>
<polygon fill="midnightblue" stroke="midnightblue" points="928.49,-30.26 937.72,-25.07 927.27,-23.37 928.49,-30.26"/>
</g>
</g>
</svg>
