<?xml version="1.0" encoding="UTF-8" standalone="no"?>
<!DOCTYPE svg PUBLIC "-//W3C//DTD SVG 1.1//EN"
 "http://www.w3.org/Graphics/SVG/1.1/DTD/svg11.dtd">
<!-- Generated by graphviz version 2.43.0 (0)
 -->
<!-- Title: MomentumOpenEdgeKernel.C Pages: 1 -->
<svg width="1599pt" height="95pt"
 viewBox="0.00 0.00 1599.00 95.00" xmlns="http://www.w3.org/2000/svg" xmlns:xlink="http://www.w3.org/1999/xlink">
<g id="graph0" class="graph" transform="scale(1 1) rotate(0) translate(4 91)">
<title>MomentumOpenEdgeKernel.C</title>
<polygon fill="white" stroke="transparent" points="-4,4 -4,-91 1595,-91 1595,4 -4,4"/>
<!-- Node1 -->
<g id="node1" class="node">
<title>Node1</title>
<g id="a_node1"><a xlink:title=" ">
<polygon fill="#bfbfbf" stroke="black" points="746,-67.5 746,-86.5 909,-86.5 909,-67.5 746,-67.5"/>
<text text-anchor="middle" x="827.5" y="-74.5" font-family="Helvetica,sans-Serif" font-size="10.00">MomentumOpenEdgeKernel.C</text>
</a>
</g>
</g>
<!-- Node2 -->
<g id="node2" class="node">
<title>Node2</title>
<g id="a_node2"><a xlink:title=" ">
<polygon fill="white" stroke="#bfbfbf" points="0,-6 0,-25 59,-25 59,-6 0,-6"/>
<text text-anchor="middle" x="29.5" y="-13" font-family="Helvetica,sans-Serif" font-size="10.00">Enums.h</text>
</a>
</g>
</g>
<!-- Node1&#45;&gt;Node2 -->
<g id="edge1" class="edge">
<title>Node1&#45;&gt;Node2</title>
<path fill="none" stroke="midnightblue" d="M745.73,-74.21C577.09,-70.02 195.81,-57.81 68.5,-31 65.25,-30.32 61.91,-29.41 58.61,-28.38"/>
<polygon fill="midnightblue" stroke="midnightblue" points="59.6,-25.02 49,-25.04 57.3,-31.63 59.6,-25.02"/>
</g>
<!-- Node3 -->
<g id="node3" class="node">
<title>Node3</title>
<g id="a_node3"><a xlink:title=" ">
<polygon fill="white" stroke="#bfbfbf" points="77.5,-0.5 77.5,-30.5 243.5,-30.5 243.5,-0.5 77.5,-0.5"/>
<text text-anchor="start" x="85.5" y="-18.5" font-family="Helvetica,sans-Serif" font-size="10.00">edge_kernels/MomentumOpen</text>
<text text-anchor="middle" x="160.5" y="-7.5" font-family="Helvetica,sans-Serif" font-size="10.00">EdgeKernel.h</text>
</a>
</g>
</g>
<!-- Node1&#45;&gt;Node3 -->
<g id="edge2" class="edge">
<title>Node1&#45;&gt;Node3</title>
<path fill="none" stroke="midnightblue" d="M745.89,-71.63C636.27,-65.31 435.2,-52.13 253.7,-31.08"/>
<polygon fill="midnightblue" stroke="midnightblue" points="254.04,-27.6 243.7,-29.91 253.23,-34.55 254.04,-27.6"/>
</g>
<!-- Node4 -->
<g id="node4" class="node">
<title>Node4</title>
<g id="a_node4"><a xlink:title=" ">
<polygon fill="white" stroke="#bfbfbf" points="262,-6 262,-25 445,-25 445,-6 262,-6"/>
<text text-anchor="middle" x="353.5" y="-13" font-family="Helvetica,sans-Serif" font-size="10.00">master_element/MasterElement.h</text>
</a>
</g>
</g>
<!-- Node1&#45;&gt;Node4 -->
<g id="edge3" class="edge">
<title>Node1&#45;&gt;Node4</title>
<path fill="none" stroke="midnightblue" d="M752.78,-67.49C677.43,-58.78 557.8,-44.64 454.5,-31 443.74,-29.58 432.35,-28.01 421.25,-26.44"/>
<polygon fill="midnightblue" stroke="midnightblue" points="421.55,-22.95 411.15,-25.01 420.56,-29.88 421.55,-22.95"/>
</g>
<!-- Node5 -->
<g id="node5" class="node">
<title>Node5</title>
<g id="a_node5"><a xlink:title=" ">
<polygon fill="white" stroke="#bfbfbf" points="463.5,-0.5 463.5,-30.5 637.5,-30.5 637.5,-0.5 463.5,-0.5"/>
<text text-anchor="start" x="471.5" y="-18.5" font-family="Helvetica,sans-Serif" font-size="10.00">master_element/MasterElement</text>
<text text-anchor="middle" x="550.5" y="-7.5" font-family="Helvetica,sans-Serif" font-size="10.00">Repo.h</text>
</a>
</g>
</g>
<!-- Node1&#45;&gt;Node5 -->
<g id="edge4" class="edge">
<title>Node1&#45;&gt;Node5</title>
<path fill="none" stroke="midnightblue" d="M787.81,-67.48C745.65,-58.42 678,-43.89 625.69,-32.65"/>
<polygon fill="midnightblue" stroke="midnightblue" points="626.3,-29.2 615.78,-30.52 624.83,-36.05 626.3,-29.2"/>
</g>
<!-- Node6 -->
<g id="node6" class="node">
<title>Node6</title>
<g id="a_node6"><a xlink:title=" ">
<polygon fill="white" stroke="#bfbfbf" points="656,-6 656,-25 759,-25 759,-6 656,-6"/>
<text text-anchor="middle" x="707.5" y="-13" font-family="Helvetica,sans-Serif" font-size="10.00">SolutionOptions.h</text>
</a>
</g>
</g>
<!-- Node1&#45;&gt;Node6 -->
<g id="edge5" class="edge">
<title>Node1&#45;&gt;Node6</title>
<path fill="none" stroke="midnightblue" d="M810.31,-67.48C790.26,-57.53 756.9,-40.99 733.64,-29.46"/>
<polygon fill="midnightblue" stroke="midnightblue" points="735.18,-26.32 724.66,-25.01 732.07,-32.59 735.18,-26.32"/>
</g>
<!-- Node7 -->
<g id="node7" class="node">
<title>Node7</title>
<g id="a_node7"><a xlink:title=" ">
<polygon fill="white" stroke="#bfbfbf" points="777,-6 777,-25 878,-25 878,-6 777,-6"/>
<text text-anchor="middle" x="827.5" y="-13" font-family="Helvetica,sans-Serif" font-size="10.00">BuildTemplates.h</text>
</a>
</g>
</g>
<!-- Node1&#45;&gt;Node7 -->
<g id="edge6" class="edge">
<title>Node1&#45;&gt;Node7</title>
<path fill="none" stroke="midnightblue" d="M827.5,-67.48C827.5,-59.08 827.5,-45.98 827.5,-35.16"/>
<polygon fill="midnightblue" stroke="midnightblue" points="831,-35.01 827.5,-25.01 824,-35.01 831,-35.01"/>
</g>
<!-- Node8 -->
<g id="node8" class="node">
<title>Node8</title>
<g id="a_node8"><a xlink:title=" ">
<polygon fill="white" stroke="#bfbfbf" points="896,-6 896,-25 987,-25 987,-6 896,-6"/>
<text text-anchor="middle" x="941.5" y="-13" font-family="Helvetica,sans-Serif" font-size="10.00">ScratchViews.h</text>
</a>
</g>
</g>
<!-- Node1&#45;&gt;Node8 -->
<g id="edge7" class="edge">
<title>Node1&#45;&gt;Node8</title>
<path fill="none" stroke="midnightblue" d="M843.83,-67.48C862.71,-57.62 894.01,-41.29 916.08,-29.77"/>
<polygon fill="midnightblue" stroke="midnightblue" points="917.95,-32.74 925.2,-25.01 914.71,-26.53 917.95,-32.74"/>
</g>
<!-- Node9 -->
<g id="node9" class="node">
<title>Node9</title>
<g id="a_node9"><a xlink:title=" ">
<polygon fill="white" stroke="#bfbfbf" points="1005,-6 1005,-25 1108,-25 1108,-6 1005,-6"/>
<text text-anchor="middle" x="1056.5" y="-13" font-family="Helvetica,sans-Serif" font-size="10.00">utils/StkHelpers.h</text>
</a>
</g>
</g>
<!-- Node1&#45;&gt;Node9 -->
<g id="edge8" class="edge">
<title>Node1&#45;&gt;Node9</title>
<path fill="none" stroke="midnightblue" d="M860.31,-67.48C900.7,-56.98 969.38,-39.14 1013.83,-27.59"/>
<polygon fill="midnightblue" stroke="midnightblue" points="1014.95,-30.91 1023.75,-25.01 1013.19,-24.14 1014.95,-30.91"/>
</g>
<!-- Node10 -->
<g id="node10" class="node">
<title>Node10</title>
<g id="a_node10"><a xlink:title=" ">
<polygon fill="white" stroke="#bfbfbf" points="1126,-6 1126,-25 1263,-25 1263,-6 1126,-6"/>
<text text-anchor="middle" x="1194.5" y="-13" font-family="Helvetica,sans-Serif" font-size="10.00">stk_mesh/base/Field.hpp</text>
</a>
</g>
</g>
<!-- Node1&#45;&gt;Node10 -->
<g id="edge9" class="edge">
<title>Node1&#45;&gt;Node10</title>
<path fill="none" stroke="midnightblue" d="M886.19,-67.46C944.83,-58.79 1037.53,-44.73 1117.5,-31 1124.96,-29.72 1132.81,-28.31 1140.53,-26.89"/>
<polygon fill="midnightblue" stroke="midnightblue" points="1141.38,-30.29 1150.57,-25.03 1140.1,-23.41 1141.38,-30.29"/>
</g>
<!-- Node11 -->
<g id="node11" class="node">
<title>Node11</title>
<g id="a_node11"><a xlink:title=" ">
<polygon fill="white" stroke="#bfbfbf" points="1281,-6 1281,-25 1408,-25 1408,-6 1281,-6"/>
<text text-anchor="middle" x="1344.5" y="-13" font-family="Helvetica,sans-Serif" font-size="10.00">stk_math/StkMath.hpp</text>
</a>
</g>
</g>
<!-- Node1&#45;&gt;Node11 -->
<g id="edge10" class="edge">
<title>Node1&#45;&gt;Node11</title>
<path fill="none" stroke="midnightblue" d="M909,-70.17C998.47,-63.2 1146.19,-50.06 1272.5,-31 1280.04,-29.86 1287.98,-28.47 1295.74,-26.99"/>
<polygon fill="midnightblue" stroke="midnightblue" points="1296.62,-30.38 1305.76,-25.03 1295.28,-23.52 1296.62,-30.38"/>
</g>
<!-- Node12 -->
<g id="node12" class="node">
<title>Node12</title>
<g id="a_node12"><a xlink:title=" ">
<polygon fill="white" stroke="#bfbfbf" points="1426,-6 1426,-25 1591,-25 1591,-6 1426,-6"/>
<text text-anchor="middle" x="1508.5" y="-13" font-family="Helvetica,sans-Serif" font-size="10.00">stk_util/util/ReportHandler.hpp</text>
</a>
</g>
</g>
<!-- Node1&#45;&gt;Node12 -->
<g id="edge11" class="edge">
<title>Node1&#45;&gt;Node12</title>
<path fill="none" stroke="midnightblue" d="M909.31,-71.88C1023.4,-65.66 1236.66,-52.27 1417.5,-31 1427.85,-29.78 1438.84,-28.24 1449.45,-26.63"/>
<polygon fill="midnightblue" stroke="midnightblue" points="1450.14,-30.06 1459.49,-25.06 1449.07,-23.15 1450.14,-30.06"/>
</g>
</g>
</svg>
