<?xml version="1.0" encoding="UTF-8" standalone="no"?>
<!DOCTYPE svg PUBLIC "-//W3C//DTD SVG 1.1//EN"
 "http://www.w3.org/Graphics/SVG/1.1/DTD/svg11.dtd">
<!-- Generated by graphviz version 2.43.0 (0)
 -->
<!-- Title: MomentumSolutionUpdate.C Pages: 1 -->
<!--zoomable 95 -->
<svg id="main" version="1.1" xmlns="http://www.w3.org/2000/svg" xmlns:xlink="http://www.w3.org/1999/xlink" xml:space="preserve" onload="init(evt)">
<style type="text/css"><![CDATA[
.edge:hover path { stroke: red; }
.edge:hover polygon { stroke: red; fill: red; }
]]></style>
<script type="text/javascript"><![CDATA[
var edges = document.getElementsByTagName('g');
if (edges && edges.length) {
  for (var i=0;i<edges.length;i++) {
    if (edges[i].id.substr(0,4)=='edge') {
      edges[i].setAttribute('class','edge');
    }
  }
}
]]></script>
        <defs>
                <circle id="rim" cx="0" cy="0" r="7"/>
                <circle id="rim2" cx="0" cy="0" r="3.5"/>
                <g id="zoomPlus">
                        <use xlink:href="#rim" fill="#404040">
                                <set attributeName="fill" to="#808080" begin="zoomplus.mouseover" end="zoomplus.mouseout"/>
                        </use>
                        <path d="M-4,0h8M0,-4v8" fill="none" stroke="white" stroke-width="1.5" pointer-events="none"/>
                </g>
                <g id="zoomMin">
                        <use xlink:href="#rim" fill="#404040">
                                <set attributeName="fill" to="#808080" begin="zoomminus.mouseover" end="zoomminus.mouseout"/>
                        </use>
                        <path d="M-4,0h8" fill="none" stroke="white" stroke-width="1.5" pointer-events="none"/>
                </g>
                <g id="dirArrow">
                        <path fill="none" stroke="white" stroke-width="1.5" d="M0,-3.0v7 M-2.5,-0.5L0,-3.0L2.5,-0.5"/>
                </g>
               <g id="resetDef">
                       <use xlink:href="#rim2" fill="#404040">
                               <set attributeName="fill" to="#808080" begin="reset.mouseover" end="reset.mouseout"/>
                       </use>
               </g>
        </defs>

<script type="text/javascript">
var viewWidth = 1984;
var viewHeight = 95;
var sectionId = 'dynsection-0';
</script>
<script xlink:href="svgpan.js"/>
<svg id="graph" class="graph">
<g id="viewport">
<title>MomentumSolutionUpdate.C</title>
<polygon fill="white" stroke="transparent" points="-4,4 -4,-91 1980,-91 1980,4 -4,4"/>
<!-- Node1 -->
<g id="node1" class="node">
<title>Node1</title>
<g id="a_node1"><a xlink:title=" ">
<polygon fill="#bfbfbf" stroke="black" points="1045.5,-67.5 1045.5,-86.5 1203.5,-86.5 1203.5,-67.5 1045.5,-67.5"/>
<text text-anchor="middle" x="1124.5" y="-74.5" font-family="Helvetica,sans-Serif" font-size="10.00">MomentumSolutionUpdate.C</text>
</a>
</g>
</g>
<!-- Node2 -->
<g id="node2" class="node">
<title>Node2</title>
<g id="a_node2"><a xlink:title=" ">
<polygon fill="white" stroke="#bfbfbf" points="0,-0.5 0,-30.5 173,-30.5 173,-0.5 0,-0.5"/>
<text text-anchor="start" x="8" y="-18.5" font-family="Helvetica,sans-Serif" font-size="10.00">matrix_free/MomentumSolution</text>
<text text-anchor="middle" x="86.5" y="-7.5" font-family="Helvetica,sans-Serif" font-size="10.00">Update.h</text>
</a>
</g>
</g>
<!-- Node1&#45;&gt;Node2 -->
<g id="edge1" class="edge">
<title>Node1&#45;&gt;Node2</title>
<path fill="none" stroke="midnightblue" d="M1045.21,-74.94C884.58,-72.21 509.03,-62.8 183.17,-30.99"/>
<polygon fill="midnightblue" stroke="midnightblue" points="183.35,-27.49 173.06,-29.99 182.66,-34.45 183.35,-27.49"/>
</g>
<!-- Node3 -->
<g id="node3" class="node">
<title>Node3</title>
<g id="a_node3"><a xlink:title=" ">
<polygon fill="white" stroke="#bfbfbf" points="191.5,-6 191.5,-25 359.5,-25 359.5,-6 191.5,-6"/>
<text text-anchor="middle" x="275.5" y="-13" font-family="Helvetica,sans-Serif" font-size="10.00">matrix_free/MatrixFreeSolver.h</text>
</a>
</g>
</g>
<!-- Node1&#45;&gt;Node3 -->
<g id="edge2" class="edge">
<title>Node1&#45;&gt;Node3</title>
<path fill="none" stroke="midnightblue" d="M1045.39,-73.77C907.56,-69.33 614.6,-57.45 368.5,-31 357.55,-29.82 345.93,-28.26 334.74,-26.6"/>
<polygon fill="midnightblue" stroke="midnightblue" points="335.03,-23.1 324.61,-25.05 333.97,-30.02 335.03,-23.1"/>
</g>
<!-- Node4 -->
<g id="node4" class="node">
<title>Node4</title>
<g id="a_node4"><a xlink:title=" ">
<polygon fill="white" stroke="#bfbfbf" points="377.5,-6 377.5,-25 537.5,-25 537.5,-6 377.5,-6"/>
<text text-anchor="middle" x="457.5" y="-13" font-family="Helvetica,sans-Serif" font-size="10.00">matrix_free/LowMachFields.h</text>
</a>
</g>
</g>
<!-- Node1&#45;&gt;Node4 -->
<g id="edge3" class="edge">
<title>Node1&#45;&gt;Node4</title>
<path fill="none" stroke="midnightblue" d="M1045.29,-71.94C933.74,-65.74 724.13,-52.35 546.5,-31 536.47,-29.8 525.85,-28.28 515.57,-26.68"/>
<polygon fill="midnightblue" stroke="midnightblue" points="515.86,-23.18 505.43,-25.07 514.76,-30.09 515.86,-23.18"/>
</g>
<!-- Node5 -->
<g id="node5" class="node">
<title>Node5</title>
<g id="a_node5"><a xlink:title=" ">
<polygon fill="white" stroke="#bfbfbf" points="555.5,-6 555.5,-25 739.5,-25 739.5,-6 555.5,-6"/>
<text text-anchor="middle" x="647.5" y="-13" font-family="Helvetica,sans-Serif" font-size="10.00">matrix_free/MomentumOperator.h</text>
</a>
</g>
</g>
<!-- Node1&#45;&gt;Node5 -->
<g id="edge4" class="edge">
<title>Node1&#45;&gt;Node5</title>
<path fill="none" stroke="midnightblue" d="M1048.82,-67.47C972.84,-58.78 852.46,-44.68 748.5,-31 737.74,-29.58 726.35,-28.02 715.24,-26.45"/>
<polygon fill="midnightblue" stroke="midnightblue" points="715.54,-22.96 705.15,-25.02 714.56,-29.89 715.54,-22.96"/>
</g>
<!-- Node6 -->
<g id="node6" class="node">
<title>Node6</title>
<g id="a_node6"><a xlink:title=" ">
<polygon fill="white" stroke="#bfbfbf" points="758,-6 758,-25 931,-25 931,-6 758,-6"/>
<text text-anchor="middle" x="844.5" y="-13" font-family="Helvetica,sans-Serif" font-size="10.00">matrix_free/PolynomialOrders.h</text>
</a>
</g>
</g>
<!-- Node1&#45;&gt;Node6 -->
<g id="edge5" class="edge">
<title>Node1&#45;&gt;Node6</title>
<path fill="none" stroke="midnightblue" d="M1084.38,-67.48C1034.38,-56.85 948.9,-38.68 894.63,-27.15"/>
<polygon fill="midnightblue" stroke="midnightblue" points="895.05,-23.66 884.54,-25.01 893.6,-30.51 895.05,-23.66"/>
</g>
<!-- Node7 -->
<g id="node7" class="node">
<title>Node7</title>
<g id="a_node7"><a xlink:title=" ">
<polygon fill="white" stroke="#bfbfbf" points="949.5,-6 949.5,-25 1113.5,-25 1113.5,-6 949.5,-6"/>
<text text-anchor="middle" x="1031.5" y="-13" font-family="Helvetica,sans-Serif" font-size="10.00">matrix_free/StkToTpetraMap.h</text>
</a>
</g>
</g>
<!-- Node1&#45;&gt;Node7 -->
<g id="edge6" class="edge">
<title>Node1&#45;&gt;Node7</title>
<path fill="none" stroke="midnightblue" d="M1111.18,-67.48C1096.12,-57.84 1071.38,-42.02 1053.46,-30.55"/>
<polygon fill="midnightblue" stroke="midnightblue" points="1055.11,-27.45 1044.8,-25.01 1051.34,-33.35 1055.11,-27.45"/>
</g>
<!-- Node8 -->
<g id="node8" class="node">
<title>Node8</title>
<g id="a_node8"><a xlink:title=" ">
<polygon fill="white" stroke="#bfbfbf" points="1131.5,-6 1131.5,-25 1303.5,-25 1303.5,-6 1131.5,-6"/>
<text text-anchor="middle" x="1217.5" y="-13" font-family="Helvetica,sans-Serif" font-size="10.00">matrix_free/KokkosViewTypes.h</text>
</a>
</g>
</g>
<!-- Node1&#45;&gt;Node8 -->
<g id="edge7" class="edge">
<title>Node1&#45;&gt;Node8</title>
<path fill="none" stroke="midnightblue" d="M1137.82,-67.48C1152.88,-57.84 1177.62,-42.02 1195.54,-30.55"/>
<polygon fill="midnightblue" stroke="midnightblue" points="1197.66,-33.35 1204.2,-25.01 1193.89,-27.45 1197.66,-33.35"/>
</g>
<!-- Node9 -->
<g id="node9" class="node">
<title>Node9</title>
<g id="a_node9"><a xlink:title=" ">
<polygon fill="white" stroke="#bfbfbf" points="1321.5,-0.5 1321.5,-30.5 1473.5,-30.5 1473.5,-0.5 1321.5,-0.5"/>
<text text-anchor="start" x="1329.5" y="-18.5" font-family="Helvetica,sans-Serif" font-size="10.00">stk_mesh/base/NgpProfiling</text>
<text text-anchor="middle" x="1397.5" y="-7.5" font-family="Helvetica,sans-Serif" font-size="10.00">Block.hpp</text>
</a>
</g>
</g>
<!-- Node1&#45;&gt;Node9 -->
<g id="edge8" class="edge">
<title>Node1&#45;&gt;Node9</title>
<path fill="none" stroke="midnightblue" d="M1163.61,-67.48C1205.08,-58.44 1271.57,-43.95 1323.07,-32.72"/>
<polygon fill="midnightblue" stroke="midnightblue" points="1324.13,-36.07 1333.16,-30.52 1322.64,-29.23 1324.13,-36.07"/>
</g>
<!-- Node10 -->
<g id="node10" class="node">
<title>Node10</title>
<g id="a_node10"><a xlink:title=" ">
<polygon fill="white" stroke="#bfbfbf" points="1491.5,-6 1491.5,-25 1591.5,-25 1591.5,-6 1491.5,-6"/>
<text text-anchor="middle" x="1541.5" y="-13" font-family="Helvetica,sans-Serif" font-size="10.00">Teuchos_RCP.hpp</text>
</a>
</g>
</g>
<!-- Node1&#45;&gt;Node10 -->
<g id="edge9" class="edge">
<title>Node1&#45;&gt;Node10</title>
<path fill="none" stroke="midnightblue" d="M1203.83,-68.69C1276.64,-61.36 1387.33,-48.61 1482.5,-31 1488.07,-29.97 1493.91,-28.73 1499.65,-27.42"/>
<polygon fill="midnightblue" stroke="midnightblue" points="1500.88,-30.72 1509.8,-25.01 1499.26,-23.91 1500.88,-30.72"/>
</g>
<!-- Node11 -->
<g id="node11" class="node">
<title>Node11</title>
<g id="a_node11"><a xlink:title=" ">
<polygon fill="white" stroke="#bfbfbf" points="1609.5,-6 1609.5,-25 1715.5,-25 1715.5,-6 1609.5,-6"/>
<text text-anchor="middle" x="1662.5" y="-13" font-family="Helvetica,sans-Serif" font-size="10.00">Tpetra_Export.hpp</text>
</a>
</g>
</g>
<!-- Node1&#45;&gt;Node11 -->
<g id="edge10" class="edge">
<title>Node1&#45;&gt;Node11</title>
<path fill="none" stroke="midnightblue" d="M1203.67,-71.81C1298.47,-66.03 1461.85,-53.66 1600.5,-31 1606.8,-29.97 1613.41,-28.67 1619.88,-27.27"/>
<polygon fill="midnightblue" stroke="midnightblue" points="1620.86,-30.63 1629.85,-25.01 1619.32,-23.8 1620.86,-30.63"/>
</g>
<!-- Node12 -->
<g id="node12" class="node">
<title>Node12</title>
<g id="a_node12"><a xlink:title=" ">
<polygon fill="white" stroke="#bfbfbf" points="1734,-6 1734,-25 1829,-25 1829,-6 1734,-6"/>
<text text-anchor="middle" x="1781.5" y="-13" font-family="Helvetica,sans-Serif" font-size="10.00">Tpetra_Map.hpp</text>
</a>
</g>
</g>
<!-- Node1&#45;&gt;Node12 -->
<g id="edge11" class="edge">
<title>Node1&#45;&gt;Node12</title>
<path fill="none" stroke="midnightblue" d="M1203.64,-74.45C1318.92,-71.2 1539.45,-61.24 1724.5,-31 1730.31,-30.05 1736.39,-28.79 1742.33,-27.41"/>
<polygon fill="midnightblue" stroke="midnightblue" points="1743.24,-30.8 1752.12,-25.01 1741.58,-24 1743.24,-30.8"/>
</g>
<!-- Node13 -->
<g id="node13" class="node">
<title>Node13</title>
<g id="a_node13"><a xlink:title=" ">
<polygon fill="white" stroke="#bfbfbf" points="1847,-6 1847,-25 1976,-25 1976,-6 1847,-6"/>
<text text-anchor="middle" x="1911.5" y="-13" font-family="Helvetica,sans-Serif" font-size="10.00">Tpetra_MultiVector.hpp</text>
</a>
</g>
</g>
<!-- Node1&#45;&gt;Node13 -->
<g id="edge12" class="edge">
<title>Node1&#45;&gt;Node13</title>
<path fill="none" stroke="midnightblue" d="M1203.54,-74.45C1335.57,-71.1 1609.11,-60.88 1838.5,-31 1846.61,-29.94 1855.17,-28.52 1863.46,-26.99"/>
<polygon fill="midnightblue" stroke="midnightblue" points="1864.24,-30.4 1873.39,-25.06 1862.91,-23.53 1864.24,-30.4"/>
</g>
</g>
</svg>
        <g id="navigator" transform="translate(0 0)" fill="#404254">
                <rect fill="#f2f5e9" fill-opacity="0.5" stroke="#606060" stroke-width=".5" x="0" y="0" width="60" height="60"/>
                <use id="zoomplus" xlink:href="#zoomPlus" x="17" y="9" onmousedown="handleZoom(evt,'in')"/>
                <use id="zoomminus" xlink:href="#zoomMin" x="42" y="9" onmousedown="handleZoom(evt,'out')"/>
                <use id="reset" xlink:href="#resetDef" x="30" y="36" onmousedown="handleReset()"/>
                <g id="arrowUp" xlink:href="#dirArrow" transform="translate(30 24)" onmousedown="handlePan(0,-1)">
                  <use xlink:href="#rim" fill="#404040">
                        <set attributeName="fill" to="#808080" begin="arrowUp.mouseover" end="arrowUp.mouseout"/>
                  </use>
                  <path fill="none" stroke="white" stroke-width="1.5" d="M0,-3.0v7 M-2.5,-0.5L0,-3.0L2.5,-0.5"/>
                </g>
                <g id="arrowRight" xlink:href="#dirArrow" transform="rotate(90) translate(36 -43)" onmousedown="handlePan(1,0)">
                  <use xlink:href="#rim" fill="#404040">
                        <set attributeName="fill" to="#808080" begin="arrowRight.mouseover" end="arrowRight.mouseout"/>
                  </use>
                  <path fill="none" stroke="white" stroke-width="1.5" d="M0,-3.0v7 M-2.5,-0.5L0,-3.0L2.5,-0.5"/>
                </g>
                <g id="arrowDown" xlink:href="#dirArrow" transform="rotate(180) translate(-30 -48)" onmousedown="handlePan(0,1)">
                  <use xlink:href="#rim" fill="#404040">
                        <set attributeName="fill" to="#808080" begin="arrowDown.mouseover" end="arrowDown.mouseout"/>
                  </use>
                  <path fill="none" stroke="white" stroke-width="1.5" d="M0,-3.0v7 M-2.5,-0.5L0,-3.0L2.5,-0.5"/>
                </g>
                <g id="arrowLeft" xlink:href="#dirArrow" transform="rotate(270) translate(-36 17)" onmousedown="handlePan(-1,0)">
                  <use xlink:href="#rim" fill="#404040">
                        <set attributeName="fill" to="#808080" begin="arrowLeft.mouseover" end="arrowLeft.mouseout"/>
                  </use>
                  <path fill="none" stroke="white" stroke-width="1.5" d="M0,-3.0v7 M-2.5,-0.5L0,-3.0L2.5,-0.5"/>
                </g>
        </g>
        <svg viewBox="0 0 15 15" width="100%" height="30px" preserveAspectRatio="xMaxYMin meet">
         <g id="arrow_out" transform="scale(0.3 0.3)">
          <a xlink:href="_momentum_solution_update_8_c__incl_org.svg" target="_base">
           <rect id="button" ry="5" rx="5" y="6" x="6" height="38" width="38"
                fill="#f2f5e9" fill-opacity="0.5" stroke="#606060" stroke-width="1.0"/>
           <path id="arrow"
             d="M 11.500037,31.436501 C 11.940474,20.09759 22.043105,11.32322 32.158766,21.979434 L 37.068811,17.246167 C 37.068811,17.246167 37.088388,32 37.088388,32 L 22.160133,31.978069 C 22.160133,31.978069 26.997745,27.140456 26.997745,27.140456 C 18.528582,18.264221 13.291696,25.230495 11.500037,31.436501 z"
             style="fill:#404040;"/>
          </a>
         </g>
        </svg>
</svg>
