<?xml version="1.0" encoding="UTF-8" standalone="no"?>
<!DOCTYPE svg PUBLIC "-//W3C//DTD SVG 1.1//EN"
 "http://www.w3.org/Graphics/SVG/1.1/DTD/svg11.dtd">
<!-- Generated by graphviz version 2.43.0 (0)
 -->
<!-- Title: MomentumEdgeSolverAlg.C Pages: 1 -->
<svg width="1261pt" height="95pt"
 viewBox="0.00 0.00 1260.50 95.00" xmlns="http://www.w3.org/2000/svg" xmlns:xlink="http://www.w3.org/1999/xlink">
<g id="graph0" class="graph" transform="scale(1 1) rotate(0) translate(4 91)">
<title>MomentumEdgeSolverAlg.C</title>
<polygon fill="white" stroke="transparent" points="-4,4 -4,-91 1256.5,-91 1256.5,4 -4,4"/>
<!-- Node1 -->
<g id="node1" class="node">
<title>Node1</title>
<g id="a_node1"><a xlink:title=" ">
<polygon fill="#bfbfbf" stroke="black" points="479,-67.5 479,-86.5 632,-86.5 632,-67.5 479,-67.5"/>
<text text-anchor="middle" x="555.5" y="-74.5" font-family="Helvetica,sans-Serif" font-size="10.00">MomentumEdgeSolverAlg.C</text>
</a>
</g>
</g>
<!-- Node2 -->
<g id="node2" class="node">
<title>Node2</title>
<g id="a_node2"><a xlink:title=" ">
<polygon fill="white" stroke="#bfbfbf" points="0,-6 0,-25 65,-25 65,-6 0,-6"/>
<text text-anchor="middle" x="32.5" y="-13" font-family="Helvetica,sans-Serif" font-size="10.00">NaluEnv.h</text>
</a>
</g>
</g>
<!-- Node1&#45;&gt;Node2 -->
<g id="edge1" class="edge">
<title>Node1&#45;&gt;Node2</title>
<path fill="none" stroke="midnightblue" d="M478.83,-74.46C383.18,-71.26 215.09,-61.39 74.5,-31 71,-30.24 67.39,-29.29 63.82,-28.22"/>
<polygon fill="midnightblue" stroke="midnightblue" points="64.61,-24.8 54.02,-25.03 62.44,-31.45 64.61,-24.8"/>
</g>
<!-- Node3 -->
<g id="node3" class="node">
<title>Node3</title>
<g id="a_node3"><a xlink:title=" ">
<polygon fill="white" stroke="#bfbfbf" points="83.5,-0.5 83.5,-30.5 247.5,-30.5 247.5,-0.5 83.5,-0.5"/>
<text text-anchor="start" x="91.5" y="-18.5" font-family="Helvetica,sans-Serif" font-size="10.00">edge_kernels/MomentumEdge</text>
<text text-anchor="middle" x="165.5" y="-7.5" font-family="Helvetica,sans-Serif" font-size="10.00">SolverAlg.h</text>
</a>
</g>
</g>
<!-- Node1&#45;&gt;Node3 -->
<g id="edge2" class="edge">
<title>Node1&#45;&gt;Node3</title>
<path fill="none" stroke="midnightblue" d="M497.88,-67.48C439.83,-58.86 347.39,-45.04 257.89,-31.21"/>
<polygon fill="midnightblue" stroke="midnightblue" points="258.25,-27.72 247.83,-29.65 257.18,-34.64 258.25,-27.72"/>
</g>
<!-- Node4 -->
<g id="node4" class="node">
<title>Node4</title>
<g id="a_node4"><a xlink:title=" ">
<polygon fill="white" stroke="#bfbfbf" points="266,-6 266,-25 371,-25 371,-6 266,-6"/>
<text text-anchor="middle" x="318.5" y="-13" font-family="Helvetica,sans-Serif" font-size="10.00">EquationSystem.h</text>
</a>
</g>
</g>
<!-- Node1&#45;&gt;Node4 -->
<g id="edge3" class="edge">
<title>Node1&#45;&gt;Node4</title>
<path fill="none" stroke="midnightblue" d="M521.54,-67.48C479.66,-56.96 408.37,-39.06 362.37,-27.51"/>
<polygon fill="midnightblue" stroke="midnightblue" points="362.94,-24.05 352.39,-25.01 361.24,-30.84 362.94,-24.05"/>
</g>
<!-- Node5 -->
<g id="node5" class="node">
<title>Node5</title>
<g id="a_node5"><a xlink:title=" ">
<polygon fill="white" stroke="#bfbfbf" points="389,-6 389,-25 486,-25 486,-6 389,-6"/>
<text text-anchor="middle" x="437.5" y="-13" font-family="Helvetica,sans-Serif" font-size="10.00">PecletFunction.h</text>
</a>
</g>
</g>
<!-- Node1&#45;&gt;Node5 -->
<g id="edge4" class="edge">
<title>Node1&#45;&gt;Node5</title>
<path fill="none" stroke="midnightblue" d="M538.59,-67.48C518.97,-57.58 486.37,-41.14 463.51,-29.62"/>
<polygon fill="midnightblue" stroke="midnightblue" points="464.88,-26.39 454.38,-25.01 461.73,-32.64 464.88,-26.39"/>
</g>
<!-- Node6 -->
<g id="node6" class="node">
<title>Node6</title>
<g id="a_node6"><a xlink:title=" ">
<polygon fill="white" stroke="#bfbfbf" points="504,-6 504,-25 607,-25 607,-6 504,-6"/>
<text text-anchor="middle" x="555.5" y="-13" font-family="Helvetica,sans-Serif" font-size="10.00">SolutionOptions.h</text>
</a>
</g>
</g>
<!-- Node1&#45;&gt;Node6 -->
<g id="edge5" class="edge">
<title>Node1&#45;&gt;Node6</title>
<path fill="none" stroke="midnightblue" d="M555.5,-67.48C555.5,-59.08 555.5,-45.98 555.5,-35.16"/>
<polygon fill="midnightblue" stroke="midnightblue" points="559,-35.01 555.5,-25.01 552,-35.01 559,-35.01"/>
</g>
<!-- Node7 -->
<g id="node7" class="node">
<title>Node7</title>
<g id="a_node7"><a xlink:title=" ">
<polygon fill="white" stroke="#bfbfbf" points="625,-6 625,-25 728,-25 728,-6 625,-6"/>
<text text-anchor="middle" x="676.5" y="-13" font-family="Helvetica,sans-Serif" font-size="10.00">utils/StkHelpers.h</text>
</a>
</g>
</g>
<!-- Node1&#45;&gt;Node7 -->
<g id="edge6" class="edge">
<title>Node1&#45;&gt;Node7</title>
<path fill="none" stroke="midnightblue" d="M572.84,-67.48C593.05,-57.53 626.69,-40.99 650.14,-29.46"/>
<polygon fill="midnightblue" stroke="midnightblue" points="651.77,-32.56 659.2,-25.01 648.68,-26.28 651.77,-32.56"/>
</g>
<!-- Node8 -->
<g id="node8" class="node">
<title>Node8</title>
<g id="a_node8"><a xlink:title=" ">
<polygon fill="white" stroke="#bfbfbf" points="746.5,-6 746.5,-25 916.5,-25 916.5,-6 746.5,-6"/>
<text text-anchor="middle" x="831.5" y="-13" font-family="Helvetica,sans-Serif" font-size="10.00">edge_kernels/EdgeKernelUtils.h</text>
</a>
</g>
</g>
<!-- Node1&#45;&gt;Node8 -->
<g id="edge7" class="edge">
<title>Node1&#45;&gt;Node8</title>
<path fill="none" stroke="midnightblue" d="M595.04,-67.48C644.33,-56.85 728.59,-38.68 782.09,-27.15"/>
<polygon fill="midnightblue" stroke="midnightblue" points="782.99,-30.54 792.03,-25.01 781.52,-23.7 782.99,-30.54"/>
</g>
<!-- Node9 -->
<g id="node9" class="node">
<title>Node9</title>
<g id="a_node9"><a xlink:title=" ">
<polygon fill="white" stroke="#bfbfbf" points="935,-6 935,-25 1092,-25 1092,-6 935,-6"/>
<text text-anchor="middle" x="1013.5" y="-13" font-family="Helvetica,sans-Serif" font-size="10.00">stk_mesh/base/NgpField.hpp</text>
</a>
</g>
</g>
<!-- Node1&#45;&gt;Node9 -->
<g id="edge8" class="edge">
<title>Node1&#45;&gt;Node9</title>
<path fill="none" stroke="midnightblue" d="M632.16,-67.63C707.07,-59.23 824.29,-45.49 925.5,-31 934.62,-29.69 944.25,-28.21 953.66,-26.71"/>
<polygon fill="midnightblue" stroke="midnightblue" points="954.45,-30.13 963.76,-25.07 953.33,-23.22 954.45,-30.13"/>
</g>
<!-- Node10 -->
<g id="node10" class="node">
<title>Node10</title>
<g id="a_node10"><a xlink:title=" ">
<polygon fill="white" stroke="#bfbfbf" points="1110.5,-6 1110.5,-25 1252.5,-25 1252.5,-6 1110.5,-6"/>
<text text-anchor="middle" x="1181.5" y="-13" font-family="Helvetica,sans-Serif" font-size="10.00">stk_mesh/base/Types.hpp</text>
</a>
</g>
</g>
<!-- Node1&#45;&gt;Node10 -->
<g id="edge9" class="edge">
<title>Node1&#45;&gt;Node10</title>
<path fill="none" stroke="midnightblue" d="M632.16,-72.03C738.03,-66.02 934.82,-52.92 1101.5,-31 1110.35,-29.84 1119.7,-28.36 1128.77,-26.8"/>
<polygon fill="midnightblue" stroke="midnightblue" points="1129.62,-30.21 1138.86,-25.02 1128.4,-23.32 1129.62,-30.21"/>
</g>
</g>
</svg>
