<?xml version="1.0" encoding="UTF-8" standalone="no"?>
<!DOCTYPE svg PUBLIC "-//W3C//DTD SVG 1.1//EN"
 "http://www.w3.org/Graphics/SVG/1.1/DTD/svg11.dtd">
<!-- Generated by graphviz version 2.43.0 (0)
 -->
<!-- Title: MomentumSymmetryEdgeKernel.C Pages: 1 -->
<svg width="1331pt" height="95pt"
 viewBox="0.00 0.00 1330.50 95.00" xmlns="http://www.w3.org/2000/svg" xmlns:xlink="http://www.w3.org/1999/xlink">
<g id="graph0" class="graph" transform="scale(1 1) rotate(0) translate(4 91)">
<title>MomentumSymmetryEdgeKernel.C</title>
<polygon fill="white" stroke="transparent" points="-4,4 -4,-91 1326.5,-91 1326.5,4 -4,4"/>
<!-- Node1 -->
<g id="node1" class="node">
<title>Node1</title>
<g id="a_node1"><a xlink:title=" ">
<polygon fill="#bfbfbf" stroke="black" points="673,-67.5 673,-86.5 861,-86.5 861,-67.5 673,-67.5"/>
<text text-anchor="middle" x="767" y="-74.5" font-family="Helvetica,sans-Serif" font-size="10.00">MomentumSymmetryEdgeKernel.C</text>
</a>
</g>
</g>
<!-- Node2 -->
<g id="node2" class="node">
<title>Node2</title>
<g id="a_node2"><a xlink:title=" ">
<polygon fill="white" stroke="#bfbfbf" points="0,-6 0,-25 94,-25 94,-6 0,-6"/>
<text text-anchor="middle" x="47" y="-13" font-family="Helvetica,sans-Serif" font-size="10.00">SimdInterface.h</text>
</a>
</g>
</g>
<!-- Node1&#45;&gt;Node2 -->
<g id="edge1" class="edge">
<title>Node1&#45;&gt;Node2</title>
<path fill="none" stroke="midnightblue" d="M672.91,-75.11C543.66,-72.63 304.31,-63.59 103,-31 97.42,-30.1 91.59,-28.89 85.89,-27.56"/>
<polygon fill="midnightblue" stroke="midnightblue" points="86.4,-24.08 75.85,-25.06 84.71,-30.87 86.4,-24.08"/>
</g>
<!-- Node3 -->
<g id="node3" class="node">
<title>Node3</title>
<g id="a_node3"><a xlink:title=" ">
<polygon fill="white" stroke="#bfbfbf" points="112.5,-0.5 112.5,-30.5 303.5,-30.5 303.5,-0.5 112.5,-0.5"/>
<text text-anchor="start" x="120.5" y="-18.5" font-family="Helvetica,sans-Serif" font-size="10.00">edge_kernels/MomentumSymmetry</text>
<text text-anchor="middle" x="208" y="-7.5" font-family="Helvetica,sans-Serif" font-size="10.00">EdgeKernel.h</text>
</a>
</g>
</g>
<!-- Node1&#45;&gt;Node3 -->
<g id="edge2" class="edge">
<title>Node1&#45;&gt;Node3</title>
<path fill="none" stroke="midnightblue" d="M672.77,-67.79C583.01,-59.71 443.82,-46.52 313.89,-31.2"/>
<polygon fill="midnightblue" stroke="midnightblue" points="314.09,-27.7 303.75,-30 313.27,-34.65 314.09,-27.7"/>
</g>
<!-- Node4 -->
<g id="node4" class="node">
<title>Node4</title>
<g id="a_node4"><a xlink:title=" ">
<polygon fill="white" stroke="#bfbfbf" points="321.5,-6 321.5,-25 504.5,-25 504.5,-6 321.5,-6"/>
<text text-anchor="middle" x="413" y="-13" font-family="Helvetica,sans-Serif" font-size="10.00">master_element/MasterElement.h</text>
</a>
</g>
</g>
<!-- Node1&#45;&gt;Node4 -->
<g id="edge3" class="edge">
<title>Node1&#45;&gt;Node4</title>
<path fill="none" stroke="midnightblue" d="M716.28,-67.48C652.27,-56.72 542.29,-38.23 473.83,-26.72"/>
<polygon fill="midnightblue" stroke="midnightblue" points="474.07,-23.22 463.63,-25.01 472.91,-30.12 474.07,-23.22"/>
</g>
<!-- Node5 -->
<g id="node5" class="node">
<title>Node5</title>
<g id="a_node5"><a xlink:title=" ">
<polygon fill="white" stroke="#bfbfbf" points="523,-0.5 523,-30.5 697,-30.5 697,-0.5 523,-0.5"/>
<text text-anchor="start" x="531" y="-18.5" font-family="Helvetica,sans-Serif" font-size="10.00">master_element/MasterElement</text>
<text text-anchor="middle" x="610" y="-7.5" font-family="Helvetica,sans-Serif" font-size="10.00">Repo.h</text>
</a>
</g>
</g>
<!-- Node1&#45;&gt;Node5 -->
<g id="edge4" class="edge">
<title>Node1&#45;&gt;Node5</title>
<path fill="none" stroke="midnightblue" d="M744.51,-67.48C721.65,-58.81 685.59,-45.15 656.55,-34.14"/>
<polygon fill="midnightblue" stroke="midnightblue" points="657.59,-30.79 647,-30.52 655.11,-37.34 657.59,-30.79"/>
</g>
<!-- Node6 -->
<g id="node6" class="node">
<title>Node6</title>
<g id="a_node6"><a xlink:title=" ">
<polygon fill="white" stroke="#bfbfbf" points="715.5,-6 715.5,-25 818.5,-25 818.5,-6 715.5,-6"/>
<text text-anchor="middle" x="767" y="-13" font-family="Helvetica,sans-Serif" font-size="10.00">SolutionOptions.h</text>
</a>
</g>
</g>
<!-- Node1&#45;&gt;Node6 -->
<g id="edge5" class="edge">
<title>Node1&#45;&gt;Node6</title>
<path fill="none" stroke="midnightblue" d="M767,-67.48C767,-59.08 767,-45.98 767,-35.16"/>
<polygon fill="midnightblue" stroke="midnightblue" points="770.5,-35.01 767,-25.01 763.5,-35.01 770.5,-35.01"/>
</g>
<!-- Node7 -->
<g id="node7" class="node">
<title>Node7</title>
<g id="a_node7"><a xlink:title=" ">
<polygon fill="white" stroke="#bfbfbf" points="836.5,-6 836.5,-25 937.5,-25 937.5,-6 836.5,-6"/>
<text text-anchor="middle" x="887" y="-13" font-family="Helvetica,sans-Serif" font-size="10.00">BuildTemplates.h</text>
</a>
</g>
</g>
<!-- Node1&#45;&gt;Node7 -->
<g id="edge6" class="edge">
<title>Node1&#45;&gt;Node7</title>
<path fill="none" stroke="midnightblue" d="M784.19,-67.48C804.24,-57.53 837.6,-40.99 860.86,-29.46"/>
<polygon fill="midnightblue" stroke="midnightblue" points="862.43,-32.59 869.84,-25.01 859.32,-26.32 862.43,-32.59"/>
</g>
<!-- Node8 -->
<g id="node8" class="node">
<title>Node8</title>
<g id="a_node8"><a xlink:title=" ">
<polygon fill="white" stroke="#bfbfbf" points="955.5,-6 955.5,-25 1046.5,-25 1046.5,-6 955.5,-6"/>
<text text-anchor="middle" x="1001" y="-13" font-family="Helvetica,sans-Serif" font-size="10.00">ScratchViews.h</text>
</a>
</g>
</g>
<!-- Node1&#45;&gt;Node8 -->
<g id="edge7" class="edge">
<title>Node1&#45;&gt;Node8</title>
<path fill="none" stroke="midnightblue" d="M801.89,-67.47C838.19,-58.55 896.64,-44.05 947,-31 951.12,-29.93 955.42,-28.8 959.71,-27.67"/>
<polygon fill="midnightblue" stroke="midnightblue" points="960.85,-30.98 969.61,-25.03 959.05,-24.22 960.85,-30.98"/>
</g>
<!-- Node9 -->
<g id="node9" class="node">
<title>Node9</title>
<g id="a_node9"><a xlink:title=" ">
<polygon fill="white" stroke="#bfbfbf" points="1064.5,-6 1064.5,-25 1167.5,-25 1167.5,-6 1064.5,-6"/>
<text text-anchor="middle" x="1116" y="-13" font-family="Helvetica,sans-Serif" font-size="10.00">utils/StkHelpers.h</text>
</a>
</g>
</g>
<!-- Node1&#45;&gt;Node9 -->
<g id="edge8" class="edge">
<title>Node1&#45;&gt;Node9</title>
<path fill="none" stroke="midnightblue" d="M831.83,-67.47C890.58,-59.36 979.42,-46.19 1056,-31 1061.45,-29.92 1067.16,-28.68 1072.79,-27.39"/>
<polygon fill="midnightblue" stroke="midnightblue" points="1073.85,-30.74 1082.78,-25.04 1072.25,-23.92 1073.85,-30.74"/>
</g>
<!-- Node10 -->
<g id="node10" class="node">
<title>Node10</title>
<g id="a_node10"><a xlink:title=" ">
<polygon fill="white" stroke="#bfbfbf" points="1185.5,-6 1185.5,-25 1322.5,-25 1322.5,-6 1185.5,-6"/>
<text text-anchor="middle" x="1254" y="-13" font-family="Helvetica,sans-Serif" font-size="10.00">stk_mesh/base/Field.hpp</text>
</a>
</g>
</g>
<!-- Node1&#45;&gt;Node10 -->
<g id="edge9" class="edge">
<title>Node1&#45;&gt;Node10</title>
<path fill="none" stroke="midnightblue" d="M861.31,-67.72C944.58,-59.92 1069.16,-47.05 1177,-31 1185.04,-29.8 1193.51,-28.38 1201.79,-26.89"/>
<polygon fill="midnightblue" stroke="midnightblue" points="1202.53,-30.31 1211.74,-25.06 1201.27,-23.43 1202.53,-30.31"/>
</g>
</g>
</svg>
