<?xml version="1.0" encoding="UTF-8" standalone="no"?>
<!DOCTYPE svg PUBLIC "-//W3C//DTD SVG 1.1//EN"
 "http://www.w3.org/Graphics/SVG/1.1/DTD/svg11.dtd">
<!-- Generated by graphviz version 2.43.0 (0)
 -->
<!-- Title: MomentumBoussinesqRASrcNodeSuppAlg.C Pages: 1 -->
<svg width="1628pt" height="106pt"
 viewBox="0.00 0.00 1627.50 106.00" xmlns="http://www.w3.org/2000/svg" xmlns:xlink="http://www.w3.org/1999/xlink">
<g id="graph0" class="graph" transform="scale(1 1) rotate(0) translate(4 102)">
<title>MomentumBoussinesqRASrcNodeSuppAlg.C</title>
<polygon fill="white" stroke="transparent" points="-4,4 -4,-102 1623.5,-102 1623.5,4 -4,4"/>
<!-- Node1 -->
<g id="node1" class="node">
<title>Node1</title>
<g id="a_node1"><a xlink:title=" ">
<polygon fill="#bfbfbf" stroke="black" points="620,-67.5 620,-97.5 802,-97.5 802,-67.5 620,-67.5"/>
<text text-anchor="start" x="628" y="-85.5" font-family="Helvetica,sans-Serif" font-size="10.00">MomentumBoussinesqRASrcNode</text>
<text text-anchor="middle" x="711" y="-74.5" font-family="Helvetica,sans-Serif" font-size="10.00">SuppAlg.C</text>
</a>
</g>
</g>
<!-- Node2 -->
<g id="node2" class="node">
<title>Node2</title>
<g id="a_node2"><a xlink:title=" ">
<polygon fill="white" stroke="#bfbfbf" points="0,-0.5 0,-30.5 182,-30.5 182,-0.5 0,-0.5"/>
<text text-anchor="start" x="8" y="-18.5" font-family="Helvetica,sans-Serif" font-size="10.00">MomentumBoussinesqRASrcNode</text>
<text text-anchor="middle" x="91" y="-7.5" font-family="Helvetica,sans-Serif" font-size="10.00">SuppAlg.h</text>
</a>
</g>
</g>
<!-- Node1&#45;&gt;Node2 -->
<g id="edge1" class="edge">
<title>Node1&#45;&gt;Node2</title>
<path fill="none" stroke="midnightblue" d="M619.74,-73.95C518.03,-65.24 348.41,-49.82 192.51,-31.15"/>
<polygon fill="midnightblue" stroke="midnightblue" points="192.61,-27.64 182.26,-29.91 191.77,-34.59 192.61,-27.64"/>
</g>
<!-- Node3 -->
<g id="node3" class="node">
<title>Node3</title>
<g id="a_node3"><a xlink:title=" ">
<polygon fill="white" stroke="#bfbfbf" points="200,-6 200,-25 288,-25 288,-6 200,-6"/>
<text text-anchor="middle" x="244" y="-13" font-family="Helvetica,sans-Serif" font-size="10.00">FieldTypeDef.h</text>
</a>
</g>
</g>
<!-- Node1&#45;&gt;Node3 -->
<g id="edge2" class="edge">
<title>Node1&#45;&gt;Node3</title>
<path fill="none" stroke="midnightblue" d="M619.95,-74.24C535.66,-66.6 407.12,-52.66 297,-31 292.16,-30.05 287.12,-28.89 282.15,-27.65"/>
<polygon fill="midnightblue" stroke="midnightblue" points="282.71,-24.18 272.15,-25.02 280.93,-30.95 282.71,-24.18"/>
</g>
<!-- Node4 -->
<g id="node4" class="node">
<title>Node4</title>
<g id="a_node4"><a xlink:title=" ">
<polygon fill="white" stroke="#bfbfbf" points="306.5,-6 306.5,-25 363.5,-25 363.5,-6 306.5,-6"/>
<text text-anchor="middle" x="335" y="-13" font-family="Helvetica,sans-Serif" font-size="10.00">Realm.h</text>
</a>
</g>
</g>
<!-- Node1&#45;&gt;Node4 -->
<g id="edge3" class="edge">
<title>Node1&#45;&gt;Node4</title>
<path fill="none" stroke="midnightblue" d="M619.94,-73.56C551.03,-66.21 454.5,-53.01 372,-31 369.34,-30.29 366.61,-29.45 363.9,-28.54"/>
<polygon fill="midnightblue" stroke="midnightblue" points="364.9,-25.18 354.31,-25.02 362.49,-31.75 364.9,-25.18"/>
</g>
<!-- Node5 -->
<g id="node5" class="node">
<title>Node5</title>
<g id="a_node5"><a xlink:title=" ">
<polygon fill="white" stroke="#bfbfbf" points="381.5,-6 381.5,-25 484.5,-25 484.5,-6 381.5,-6"/>
<text text-anchor="middle" x="433" y="-13" font-family="Helvetica,sans-Serif" font-size="10.00">SolutionOptions.h</text>
</a>
</g>
</g>
<!-- Node1&#45;&gt;Node5 -->
<g id="edge4" class="edge">
<title>Node1&#45;&gt;Node5</title>
<path fill="none" stroke="midnightblue" d="M649.42,-67.4C605.73,-57.35 545.74,-43.48 493,-31 488.23,-29.87 483.25,-28.68 478.29,-27.49"/>
<polygon fill="midnightblue" stroke="midnightblue" points="478.74,-24 468.2,-25.07 477.11,-30.81 478.74,-24"/>
</g>
<!-- Node6 -->
<g id="node6" class="node">
<title>Node6</title>
<g id="a_node6"><a xlink:title=" ">
<polygon fill="white" stroke="#bfbfbf" points="502.5,-6 502.5,-25 643.5,-25 643.5,-6 502.5,-6"/>
<text text-anchor="middle" x="573" y="-13" font-family="Helvetica,sans-Serif" font-size="10.00">SupplementalAlgorithm.h</text>
</a>
</g>
</g>
<!-- Node1&#45;&gt;Node6 -->
<g id="edge5" class="edge">
<title>Node1&#45;&gt;Node6</title>
<path fill="none" stroke="midnightblue" d="M681.06,-67.4C657.06,-56.09 623.66,-40.36 600.37,-29.39"/>
<polygon fill="midnightblue" stroke="midnightblue" points="601.6,-26.1 591.06,-25.01 598.62,-32.43 601.6,-26.1"/>
</g>
<!-- Node7 -->
<g id="node7" class="node">
<title>Node7</title>
<g id="a_node7"><a xlink:title=" ">
<polygon fill="white" stroke="#bfbfbf" points="662,-6 662,-25 760,-25 760,-6 662,-6"/>
<text text-anchor="middle" x="711" y="-13" font-family="Helvetica,sans-Serif" font-size="10.00">TimeIntegrator.h</text>
</a>
</g>
</g>
<!-- Node1&#45;&gt;Node7 -->
<g id="edge6" class="edge">
<title>Node1&#45;&gt;Node7</title>
<path fill="none" stroke="midnightblue" d="M711,-67.4C711,-58.06 711,-45.71 711,-35.52"/>
<polygon fill="midnightblue" stroke="midnightblue" points="714.5,-35.19 711,-25.19 707.5,-35.19 714.5,-35.19"/>
</g>
<!-- Node8 -->
<g id="node8" class="node">
<title>Node8</title>
<g id="a_node8"><a xlink:title=" ">
<polygon fill="white" stroke="#bfbfbf" points="778.5,-6 778.5,-25 947.5,-25 947.5,-6 778.5,-6"/>
<text text-anchor="middle" x="863" y="-13" font-family="Helvetica,sans-Serif" font-size="10.00">MovingAveragePostProcessor.h</text>
</a>
</g>
</g>
<!-- Node1&#45;&gt;Node8 -->
<g id="edge7" class="edge">
<title>Node1&#45;&gt;Node8</title>
<path fill="none" stroke="midnightblue" d="M743.98,-67.4C770.77,-55.94 808.19,-39.94 833.88,-28.95"/>
<polygon fill="midnightblue" stroke="midnightblue" points="835.29,-32.16 843.11,-25.01 832.54,-25.72 835.29,-32.16"/>
</g>
<!-- Node9 -->
<g id="node9" class="node">
<title>Node9</title>
<g id="a_node9"><a xlink:title=" ">
<polygon fill="white" stroke="#bfbfbf" points="965.5,-6 965.5,-25 1106.5,-25 1106.5,-6 965.5,-6"/>
<text text-anchor="middle" x="1036" y="-13" font-family="Helvetica,sans-Serif" font-size="10.00">stk_mesh/base/Entity.hpp</text>
</a>
</g>
</g>
<!-- Node1&#45;&gt;Node9 -->
<g id="edge8" class="edge">
<title>Node1&#45;&gt;Node9</title>
<path fill="none" stroke="midnightblue" d="M781.12,-67.48C841.9,-55.32 928.5,-38 983.47,-27.01"/>
<polygon fill="midnightblue" stroke="midnightblue" points="984.24,-30.42 993.36,-25.03 982.86,-23.56 984.24,-30.42"/>
</g>
<!-- Node10 -->
<g id="node10" class="node">
<title>Node10</title>
<g id="a_node10"><a xlink:title=" ">
<polygon fill="white" stroke="#bfbfbf" points="1125,-6 1125,-25 1287,-25 1287,-6 1125,-6"/>
<text text-anchor="middle" x="1206" y="-13" font-family="Helvetica,sans-Serif" font-size="10.00">stk_mesh/base/MetaData.hpp</text>
</a>
</g>
</g>
<!-- Node1&#45;&gt;Node10 -->
<g id="edge9" class="edge">
<title>Node1&#45;&gt;Node10</title>
<path fill="none" stroke="midnightblue" d="M802,-71.09C884.17,-61.47 1008.33,-46.38 1116,-31 1125.42,-29.65 1135.38,-28.14 1145.1,-26.61"/>
<polygon fill="midnightblue" stroke="midnightblue" points="1145.79,-30.05 1155.12,-25.02 1144.69,-23.13 1145.79,-30.05"/>
</g>
<!-- Node11 -->
<g id="node11" class="node">
<title>Node11</title>
<g id="a_node11"><a xlink:title=" ">
<polygon fill="white" stroke="#bfbfbf" points="1305.5,-6 1305.5,-25 1464.5,-25 1464.5,-6 1305.5,-6"/>
<text text-anchor="middle" x="1385" y="-13" font-family="Helvetica,sans-Serif" font-size="10.00">stk_mesh/base/BulkData.hpp</text>
</a>
</g>
</g>
<!-- Node1&#45;&gt;Node11 -->
<g id="edge10" class="edge">
<title>Node1&#45;&gt;Node11</title>
<path fill="none" stroke="midnightblue" d="M802.17,-75.77C917.44,-68.03 1121.88,-52.67 1296,-31 1305.9,-29.77 1316.39,-28.25 1326.56,-26.67"/>
<polygon fill="midnightblue" stroke="midnightblue" points="1327.27,-30.1 1336.6,-25.07 1326.17,-23.18 1327.27,-30.1"/>
</g>
<!-- Node12 -->
<g id="node12" class="node">
<title>Node12</title>
<g id="a_node12"><a xlink:title=" ">
<polygon fill="white" stroke="#bfbfbf" points="1482.5,-6 1482.5,-25 1619.5,-25 1619.5,-6 1482.5,-6"/>
<text text-anchor="middle" x="1551" y="-13" font-family="Helvetica,sans-Serif" font-size="10.00">stk_mesh/base/Field.hpp</text>
</a>
</g>
</g>
<!-- Node1&#45;&gt;Node12 -->
<g id="edge11" class="edge">
<title>Node1&#45;&gt;Node12</title>
<path fill="none" stroke="midnightblue" d="M802.07,-79.01C945.48,-74.28 1232.49,-61.62 1474,-31 1482.73,-29.89 1491.96,-28.42 1500.88,-26.84"/>
<polygon fill="midnightblue" stroke="midnightblue" points="1501.58,-30.27 1510.78,-25.02 1500.31,-23.38 1501.58,-30.27"/>
</g>
</g>
</svg>
