<?xml version="1.0" encoding="UTF-8" standalone="no"?>
<!DOCTYPE svg PUBLIC "-//W3C//DTD SVG 1.1//EN"
 "http://www.w3.org/Graphics/SVG/1.1/DTD/svg11.dtd">
<!-- Generated by graphviz version 2.43.0 (0)
 -->
<!-- Title: MomentumSSTAMSForcingNodeKernel.C Pages: 1 -->
<svg width="994pt" height="106pt"
 viewBox="0.00 0.00 993.50 106.00" xmlns="http://www.w3.org/2000/svg" xmlns:xlink="http://www.w3.org/1999/xlink">
<g id="graph0" class="graph" transform="scale(1 1) rotate(0) translate(4 102)">
<title>MomentumSSTAMSForcingNodeKernel.C</title>
<polygon fill="white" stroke="transparent" points="-4,4 -4,-102 989.5,-102 989.5,4 -4,4"/>
<!-- Node1 -->
<g id="node1" class="node">
<title>Node1</title>
<g id="a_node1"><a xlink:title=" ">
<polygon fill="#bfbfbf" stroke="black" points="424,-67.5 424,-97.5 597,-97.5 597,-67.5 424,-67.5"/>
<text text-anchor="start" x="432" y="-85.5" font-family="Helvetica,sans-Serif" font-size="10.00">MomentumSSTAMSForcingNode</text>
<text text-anchor="middle" x="510.5" y="-74.5" font-family="Helvetica,sans-Serif" font-size="10.00">Kernel.C</text>
</a>
</g>
</g>
<!-- Node2 -->
<g id="node2" class="node">
<title>Node2</title>
<g id="a_node2"><a xlink:title=" ">
<polygon fill="white" stroke="#bfbfbf" points="0,-0.5 0,-30.5 215,-30.5 215,-0.5 0,-0.5"/>
<text text-anchor="start" x="8" y="-18.5" font-family="Helvetica,sans-Serif" font-size="10.00">node_kernels/MomentumSSTAMSForcing</text>
<text text-anchor="middle" x="107.5" y="-7.5" font-family="Helvetica,sans-Serif" font-size="10.00">NodeKernel.h</text>
</a>
</g>
</g>
<!-- Node1&#45;&gt;Node2 -->
<g id="edge1" class="edge">
<title>Node1&#45;&gt;Node2</title>
<path fill="none" stroke="midnightblue" d="M423.55,-67.48C359.17,-57.09 271.44,-42.94 204.74,-32.18"/>
<polygon fill="midnightblue" stroke="midnightblue" points="205.07,-28.69 194.64,-30.55 203.96,-35.6 205.07,-28.69"/>
</g>
<!-- Node3 -->
<g id="node3" class="node">
<title>Node3</title>
<g id="a_node3"><a xlink:title=" ">
<polygon fill="white" stroke="#bfbfbf" points="233,-6 233,-25 290,-25 290,-6 233,-6"/>
<text text-anchor="middle" x="261.5" y="-13" font-family="Helvetica,sans-Serif" font-size="10.00">Realm.h</text>
</a>
</g>
</g>
<!-- Node1&#45;&gt;Node3 -->
<g id="edge2" class="edge">
<title>Node1&#45;&gt;Node3</title>
<path fill="none" stroke="midnightblue" d="M440.61,-67.43C398.96,-58.4 345.25,-45.65 298.5,-31 296.22,-30.29 293.88,-29.5 291.54,-28.68"/>
<polygon fill="midnightblue" stroke="midnightblue" points="292.65,-25.35 282.06,-25.15 290.21,-31.91 292.65,-25.35"/>
</g>
<!-- Node4 -->
<g id="node4" class="node">
<title>Node4</title>
<g id="a_node4"><a xlink:title=" ">
<polygon fill="white" stroke="#bfbfbf" points="308,-6 308,-25 411,-25 411,-6 308,-6"/>
<text text-anchor="middle" x="359.5" y="-13" font-family="Helvetica,sans-Serif" font-size="10.00">SolutionOptions.h</text>
</a>
</g>
</g>
<!-- Node1&#45;&gt;Node4 -->
<g id="edge3" class="edge">
<title>Node1&#45;&gt;Node4</title>
<path fill="none" stroke="midnightblue" d="M477.74,-67.4C451.24,-55.99 414.28,-40.08 388.77,-29.1"/>
<polygon fill="midnightblue" stroke="midnightblue" points="389.83,-25.75 379.26,-25.01 387.06,-32.18 389.83,-25.75"/>
</g>
<!-- Node5 -->
<g id="node5" class="node">
<title>Node5</title>
<g id="a_node5"><a xlink:title=" ">
<polygon fill="white" stroke="#bfbfbf" points="429.5,-6 429.5,-25 591.5,-25 591.5,-6 429.5,-6"/>
<text text-anchor="middle" x="510.5" y="-13" font-family="Helvetica,sans-Serif" font-size="10.00">stk_mesh/base/MetaData.hpp</text>
</a>
</g>
</g>
<!-- Node1&#45;&gt;Node5 -->
<g id="edge4" class="edge">
<title>Node1&#45;&gt;Node5</title>
<path fill="none" stroke="midnightblue" d="M510.5,-67.4C510.5,-58.06 510.5,-45.71 510.5,-35.52"/>
<polygon fill="midnightblue" stroke="midnightblue" points="514,-35.19 510.5,-25.19 507,-35.19 514,-35.19"/>
</g>
<!-- Node6 -->
<g id="node6" class="node">
<title>Node6</title>
<g id="a_node6"><a xlink:title=" ">
<polygon fill="white" stroke="#bfbfbf" points="609.5,-6 609.5,-25 751.5,-25 751.5,-6 609.5,-6"/>
<text text-anchor="middle" x="680.5" y="-13" font-family="Helvetica,sans-Serif" font-size="10.00">stk_mesh/base/Types.hpp</text>
</a>
</g>
</g>
<!-- Node1&#45;&gt;Node6 -->
<g id="edge5" class="edge">
<title>Node1&#45;&gt;Node6</title>
<path fill="none" stroke="midnightblue" d="M547.39,-67.4C577.61,-55.84 619.94,-39.66 648.69,-28.66"/>
<polygon fill="midnightblue" stroke="midnightblue" points="650.16,-31.85 658.25,-25.01 647.66,-25.31 650.16,-31.85"/>
</g>
<!-- Node7 -->
<g id="node7" class="node">
<title>Node7</title>
<g id="a_node7"><a xlink:title=" ">
<polygon fill="white" stroke="#bfbfbf" points="770,-6 770,-25 873,-25 873,-6 770,-6"/>
<text text-anchor="middle" x="821.5" y="-13" font-family="Helvetica,sans-Serif" font-size="10.00">utils/StkHelpers.h</text>
</a>
</g>
</g>
<!-- Node1&#45;&gt;Node7 -->
<g id="edge6" class="edge">
<title>Node1&#45;&gt;Node7</title>
<path fill="none" stroke="midnightblue" d="M583.39,-67.46C633.33,-57.67 701.04,-44.07 760.5,-31 765.62,-29.88 770.97,-28.66 776.28,-27.43"/>
<polygon fill="midnightblue" stroke="midnightblue" points="777.45,-30.75 786.39,-25.06 775.85,-23.94 777.45,-30.75"/>
</g>
<!-- Node8 -->
<g id="node8" class="node">
<title>Node8</title>
<g id="a_node8"><a xlink:title=" ">
<polygon fill="white" stroke="#bfbfbf" points="891.5,-6 891.5,-25 985.5,-25 985.5,-6 891.5,-6"/>
<text text-anchor="middle" x="938.5" y="-13" font-family="Helvetica,sans-Serif" font-size="10.00">SimdInterface.h</text>
</a>
</g>
</g>
<!-- Node1&#45;&gt;Node8 -->
<g id="edge7" class="edge">
<title>Node1&#45;&gt;Node8</title>
<path fill="none" stroke="midnightblue" d="M597.05,-72.69C672.75,-64.29 785.45,-50.08 882.5,-31 887.6,-30 892.94,-28.81 898.19,-27.54"/>
<polygon fill="midnightblue" stroke="midnightblue" points="899.28,-30.88 908.13,-25.06 897.58,-24.09 899.28,-30.88"/>
</g>
</g>
</svg>
