<?xml version="1.0" encoding="UTF-8" standalone="no"?>
<!DOCTYPE svg PUBLIC "-//W3C//DTD SVG 1.1//EN"
 "http://www.w3.org/Graphics/SVG/1.1/DTD/svg11.dtd">
<!-- Generated by graphviz version 2.43.0 (0)
 -->
<!-- Title: MomentumABLWallShearStressEdgeKernel.C Pages: 1 -->
<svg width="1389pt" height="106pt"
 viewBox="0.00 0.00 1389.00 106.00" xmlns="http://www.w3.org/2000/svg" xmlns:xlink="http://www.w3.org/1999/xlink">
<g id="graph0" class="graph" transform="scale(1 1) rotate(0) translate(4 102)">
<title>MomentumABLWallShearStressEdgeKernel.C</title>
<polygon fill="white" stroke="transparent" points="-4,4 -4,-102 1385,-102 1385,4 -4,4"/>
<!-- Node1 -->
<g id="node1" class="node">
<title>Node1</title>
<g id="a_node1"><a xlink:title=" ">
<polygon fill="#bfbfbf" stroke="black" points="677.5,-67.5 677.5,-97.5 847.5,-97.5 847.5,-67.5 677.5,-67.5"/>
<text text-anchor="start" x="685.5" y="-85.5" font-family="Helvetica,sans-Serif" font-size="10.00">MomentumABLWallShearStress</text>
<text text-anchor="middle" x="762.5" y="-74.5" font-family="Helvetica,sans-Serif" font-size="10.00">EdgeKernel.C</text>
</a>
</g>
</g>
<!-- Node2 -->
<g id="node2" class="node">
<title>Node2</title>
<g id="a_node2"><a xlink:title=" ">
<polygon fill="white" stroke="#bfbfbf" points="0,-0.5 0,-30.5 179,-30.5 179,-0.5 0,-0.5"/>
<text text-anchor="start" x="8" y="-18.5" font-family="Helvetica,sans-Serif" font-size="10.00">edge_kernels/MomentumABLWall</text>
<text text-anchor="middle" x="89.5" y="-7.5" font-family="Helvetica,sans-Serif" font-size="10.00">ShearStressEdgeKernel.h</text>
</a>
</g>
</g>
<!-- Node1&#45;&gt;Node2 -->
<g id="edge1" class="edge">
<title>Node1&#45;&gt;Node2</title>
<path fill="none" stroke="midnightblue" d="M677.09,-75.59C566.74,-67.59 368.45,-52.02 189.33,-31.18"/>
<polygon fill="midnightblue" stroke="midnightblue" points="189.53,-27.68 179.19,-29.99 188.72,-34.63 189.53,-27.68"/>
</g>
<!-- Node3 -->
<g id="node3" class="node">
<title>Node3</title>
<g id="a_node3"><a xlink:title=" ">
<polygon fill="white" stroke="#bfbfbf" points="197,-6 197,-25 380,-25 380,-6 197,-6"/>
<text text-anchor="middle" x="288.5" y="-13" font-family="Helvetica,sans-Serif" font-size="10.00">master_element/MasterElement.h</text>
</a>
</g>
</g>
<!-- Node1&#45;&gt;Node3 -->
<g id="edge2" class="edge">
<title>Node1&#45;&gt;Node3</title>
<path fill="none" stroke="midnightblue" d="M677.29,-70.16C601.67,-60.05 488.2,-44.77 389.5,-31 379.13,-29.55 368.16,-28 357.43,-26.47"/>
<polygon fill="midnightblue" stroke="midnightblue" points="357.63,-22.96 347.24,-25.01 356.64,-29.89 357.63,-22.96"/>
</g>
<!-- Node4 -->
<g id="node4" class="node">
<title>Node4</title>
<g id="a_node4"><a xlink:title=" ">
<polygon fill="white" stroke="#bfbfbf" points="398.5,-0.5 398.5,-30.5 572.5,-30.5 572.5,-0.5 398.5,-0.5"/>
<text text-anchor="start" x="406.5" y="-18.5" font-family="Helvetica,sans-Serif" font-size="10.00">master_element/MasterElement</text>
<text text-anchor="middle" x="485.5" y="-7.5" font-family="Helvetica,sans-Serif" font-size="10.00">Repo.h</text>
</a>
</g>
</g>
<!-- Node1&#45;&gt;Node4 -->
<g id="edge3" class="edge">
<title>Node1&#45;&gt;Node4</title>
<path fill="none" stroke="midnightblue" d="M702.74,-67.48C659.47,-57.32 600.85,-43.57 555.41,-32.91"/>
<polygon fill="midnightblue" stroke="midnightblue" points="556.17,-29.49 545.63,-30.61 554.57,-36.3 556.17,-29.49"/>
</g>
<!-- Node5 -->
<g id="node5" class="node">
<title>Node5</title>
<g id="a_node5"><a xlink:title=" ">
<polygon fill="white" stroke="#bfbfbf" points="591,-6 591,-25 694,-25 694,-6 591,-6"/>
<text text-anchor="middle" x="642.5" y="-13" font-family="Helvetica,sans-Serif" font-size="10.00">SolutionOptions.h</text>
</a>
</g>
</g>
<!-- Node1&#45;&gt;Node5 -->
<g id="edge4" class="edge">
<title>Node1&#45;&gt;Node5</title>
<path fill="none" stroke="midnightblue" d="M736.46,-67.4C715.87,-56.24 687.33,-40.78 667.12,-29.83"/>
<polygon fill="midnightblue" stroke="midnightblue" points="668.67,-26.69 658.21,-25.01 665.33,-32.85 668.67,-26.69"/>
</g>
<!-- Node6 -->
<g id="node6" class="node">
<title>Node6</title>
<g id="a_node6"><a xlink:title=" ">
<polygon fill="white" stroke="#bfbfbf" points="712,-6 712,-25 813,-25 813,-6 712,-6"/>
<text text-anchor="middle" x="762.5" y="-13" font-family="Helvetica,sans-Serif" font-size="10.00">BuildTemplates.h</text>
</a>
</g>
</g>
<!-- Node1&#45;&gt;Node6 -->
<g id="edge5" class="edge">
<title>Node1&#45;&gt;Node6</title>
<path fill="none" stroke="midnightblue" d="M762.5,-67.4C762.5,-58.06 762.5,-45.71 762.5,-35.52"/>
<polygon fill="midnightblue" stroke="midnightblue" points="766,-35.19 762.5,-25.19 759,-35.19 766,-35.19"/>
</g>
<!-- Node7 -->
<g id="node7" class="node">
<title>Node7</title>
<g id="a_node7"><a xlink:title=" ">
<polygon fill="white" stroke="#bfbfbf" points="831,-6 831,-25 922,-25 922,-6 831,-6"/>
<text text-anchor="middle" x="876.5" y="-13" font-family="Helvetica,sans-Serif" font-size="10.00">ScratchViews.h</text>
</a>
</g>
</g>
<!-- Node1&#45;&gt;Node7 -->
<g id="edge6" class="edge">
<title>Node1&#45;&gt;Node7</title>
<path fill="none" stroke="midnightblue" d="M787.24,-67.4C806.71,-56.29 833.67,-40.92 852.85,-29.98"/>
<polygon fill="midnightblue" stroke="midnightblue" points="854.63,-33 861.58,-25.01 851.16,-26.92 854.63,-33"/>
</g>
<!-- Node8 -->
<g id="node8" class="node">
<title>Node8</title>
<g id="a_node8"><a xlink:title=" ">
<polygon fill="white" stroke="#bfbfbf" points="940,-6 940,-25 1043,-25 1043,-6 940,-6"/>
<text text-anchor="middle" x="991.5" y="-13" font-family="Helvetica,sans-Serif" font-size="10.00">utils/StkHelpers.h</text>
</a>
</g>
</g>
<!-- Node1&#45;&gt;Node8 -->
<g id="edge7" class="edge">
<title>Node1&#45;&gt;Node8</title>
<path fill="none" stroke="midnightblue" d="M811.91,-67.48C853.67,-55.62 912.73,-38.86 951.56,-27.84"/>
<polygon fill="midnightblue" stroke="midnightblue" points="952.79,-31.13 961.45,-25.03 950.88,-24.39 952.79,-31.13"/>
</g>
<!-- Node9 -->
<g id="node9" class="node">
<title>Node9</title>
<g id="a_node9"><a xlink:title=" ">
<polygon fill="white" stroke="#bfbfbf" points="1061.5,-6 1061.5,-25 1225.5,-25 1225.5,-6 1061.5,-6"/>
<text text-anchor="middle" x="1143.5" y="-13" font-family="Helvetica,sans-Serif" font-size="10.00">wind_energy/MoninObukhov.h</text>
</a>
</g>
</g>
<!-- Node1&#45;&gt;Node9 -->
<g id="edge8" class="edge">
<title>Node1&#45;&gt;Node9</title>
<path fill="none" stroke="midnightblue" d="M844.7,-67.48C916.55,-55.22 1019.17,-37.71 1083.52,-26.73"/>
<polygon fill="midnightblue" stroke="midnightblue" points="1084.24,-30.16 1093.51,-25.03 1083.06,-23.26 1084.24,-30.16"/>
</g>
<!-- Node10 -->
<g id="node10" class="node">
<title>Node10</title>
<g id="a_node10"><a xlink:title=" ">
<polygon fill="white" stroke="#bfbfbf" points="1244,-6 1244,-25 1381,-25 1381,-6 1244,-6"/>
<text text-anchor="middle" x="1312.5" y="-13" font-family="Helvetica,sans-Serif" font-size="10.00">stk_mesh/base/Field.hpp</text>
</a>
</g>
</g>
<!-- Node1&#45;&gt;Node10 -->
<g id="edge9" class="edge">
<title>Node1&#45;&gt;Node10</title>
<path fill="none" stroke="midnightblue" d="M847.59,-74.39C942.29,-66.01 1099.75,-50.7 1234.5,-31 1242.64,-29.81 1251.23,-28.39 1259.61,-26.9"/>
<polygon fill="midnightblue" stroke="midnightblue" points="1260.47,-30.3 1269.69,-25.07 1259.22,-23.41 1260.47,-30.3"/>
</g>
</g>
</svg>
