<?xml version="1.0" encoding="UTF-8" standalone="no"?>
<!DOCTYPE svg PUBLIC "-//W3C//DTD SVG 1.1//EN"
 "http://www.w3.org/Graphics/SVG/1.1/DTD/svg11.dtd">
<!-- Generated by graphviz version 2.43.0 (0)
 -->
<!-- Title: MomentumABLWallFuncEdgeKernel.C Pages: 1 -->
<svg width="1389pt" height="95pt"
 viewBox="0.00 0.00 1389.00 95.00" xmlns="http://www.w3.org/2000/svg" xmlns:xlink="http://www.w3.org/1999/xlink">
<g id="graph0" class="graph" transform="scale(1 1) rotate(0) translate(4 91)">
<title>MomentumABLWallFuncEdgeKernel.C</title>
<polygon fill="white" stroke="transparent" points="-4,4 -4,-91 1385,-91 1385,4 -4,4"/>
<!-- Node1 -->
<g id="node1" class="node">
<title>Node1</title>
<g id="a_node1"><a xlink:title=" ">
<polygon fill="#bfbfbf" stroke="black" points="663,-67.5 663,-86.5 862,-86.5 862,-67.5 663,-67.5"/>
<text text-anchor="middle" x="762.5" y="-74.5" font-family="Helvetica,sans-Serif" font-size="10.00">MomentumABLWallFuncEdgeKernel.C</text>
</a>
</g>
</g>
<!-- Node2 -->
<g id="node2" class="node">
<title>Node2</title>
<g id="a_node2"><a xlink:title=" ">
<polygon fill="white" stroke="#bfbfbf" points="0,-0.5 0,-30.5 179,-30.5 179,-0.5 0,-0.5"/>
<text text-anchor="start" x="8" y="-18.5" font-family="Helvetica,sans-Serif" font-size="10.00">edge_kernels/MomentumABLWall</text>
<text text-anchor="middle" x="89.5" y="-7.5" font-family="Helvetica,sans-Serif" font-size="10.00">FuncEdgeKernel.h</text>
</a>
</g>
</g>
<!-- Node1&#45;&gt;Node2 -->
<g id="edge1" class="edge">
<title>Node1&#45;&gt;Node2</title>
<path fill="none" stroke="midnightblue" d="M662.84,-70.29C550.2,-63.36 361.16,-50.3 189.18,-31.14"/>
<polygon fill="midnightblue" stroke="midnightblue" points="189.52,-27.66 179.19,-30.02 188.74,-34.62 189.52,-27.66"/>
</g>
<!-- Node3 -->
<g id="node3" class="node">
<title>Node3</title>
<g id="a_node3"><a xlink:title=" ">
<polygon fill="white" stroke="#bfbfbf" points="197,-6 197,-25 380,-25 380,-6 197,-6"/>
<text text-anchor="middle" x="288.5" y="-13" font-family="Helvetica,sans-Serif" font-size="10.00">master_element/MasterElement.h</text>
</a>
</g>
</g>
<!-- Node1&#45;&gt;Node3 -->
<g id="edge2" class="edge">
<title>Node1&#45;&gt;Node3</title>
<path fill="none" stroke="midnightblue" d="M687.78,-67.49C612.43,-58.78 492.8,-44.64 389.5,-31 378.74,-29.58 367.35,-28.01 356.25,-26.44"/>
<polygon fill="midnightblue" stroke="midnightblue" points="356.55,-22.95 346.15,-25.01 355.56,-29.88 356.55,-22.95"/>
</g>
<!-- Node4 -->
<g id="node4" class="node">
<title>Node4</title>
<g id="a_node4"><a xlink:title=" ">
<polygon fill="white" stroke="#bfbfbf" points="398.5,-0.5 398.5,-30.5 572.5,-30.5 572.5,-0.5 398.5,-0.5"/>
<text text-anchor="start" x="406.5" y="-18.5" font-family="Helvetica,sans-Serif" font-size="10.00">master_element/MasterElement</text>
<text text-anchor="middle" x="485.5" y="-7.5" font-family="Helvetica,sans-Serif" font-size="10.00">Repo.h</text>
</a>
</g>
</g>
<!-- Node1&#45;&gt;Node4 -->
<g id="edge3" class="edge">
<title>Node1&#45;&gt;Node4</title>
<path fill="none" stroke="midnightblue" d="M722.81,-67.48C680.65,-58.42 613,-43.89 560.69,-32.65"/>
<polygon fill="midnightblue" stroke="midnightblue" points="561.3,-29.2 550.78,-30.52 559.83,-36.05 561.3,-29.2"/>
</g>
<!-- Node5 -->
<g id="node5" class="node">
<title>Node5</title>
<g id="a_node5"><a xlink:title=" ">
<polygon fill="white" stroke="#bfbfbf" points="591,-6 591,-25 694,-25 694,-6 591,-6"/>
<text text-anchor="middle" x="642.5" y="-13" font-family="Helvetica,sans-Serif" font-size="10.00">SolutionOptions.h</text>
</a>
</g>
</g>
<!-- Node1&#45;&gt;Node5 -->
<g id="edge4" class="edge">
<title>Node1&#45;&gt;Node5</title>
<path fill="none" stroke="midnightblue" d="M745.31,-67.48C725.26,-57.53 691.9,-40.99 668.64,-29.46"/>
<polygon fill="midnightblue" stroke="midnightblue" points="670.18,-26.32 659.66,-25.01 667.07,-32.59 670.18,-26.32"/>
</g>
<!-- Node6 -->
<g id="node6" class="node">
<title>Node6</title>
<g id="a_node6"><a xlink:title=" ">
<polygon fill="white" stroke="#bfbfbf" points="712,-6 712,-25 813,-25 813,-6 712,-6"/>
<text text-anchor="middle" x="762.5" y="-13" font-family="Helvetica,sans-Serif" font-size="10.00">BuildTemplates.h</text>
</a>
</g>
</g>
<!-- Node1&#45;&gt;Node6 -->
<g id="edge5" class="edge">
<title>Node1&#45;&gt;Node6</title>
<path fill="none" stroke="midnightblue" d="M762.5,-67.48C762.5,-59.08 762.5,-45.98 762.5,-35.16"/>
<polygon fill="midnightblue" stroke="midnightblue" points="766,-35.01 762.5,-25.01 759,-35.01 766,-35.01"/>
</g>
<!-- Node7 -->
<g id="node7" class="node">
<title>Node7</title>
<g id="a_node7"><a xlink:title=" ">
<polygon fill="white" stroke="#bfbfbf" points="831,-6 831,-25 922,-25 922,-6 831,-6"/>
<text text-anchor="middle" x="876.5" y="-13" font-family="Helvetica,sans-Serif" font-size="10.00">ScratchViews.h</text>
</a>
</g>
</g>
<!-- Node1&#45;&gt;Node7 -->
<g id="edge6" class="edge">
<title>Node1&#45;&gt;Node7</title>
<path fill="none" stroke="midnightblue" d="M778.83,-67.48C797.71,-57.62 829.01,-41.29 851.08,-29.77"/>
<polygon fill="midnightblue" stroke="midnightblue" points="852.95,-32.74 860.2,-25.01 849.71,-26.53 852.95,-32.74"/>
</g>
<!-- Node8 -->
<g id="node8" class="node">
<title>Node8</title>
<g id="a_node8"><a xlink:title=" ">
<polygon fill="white" stroke="#bfbfbf" points="940,-6 940,-25 1043,-25 1043,-6 940,-6"/>
<text text-anchor="middle" x="991.5" y="-13" font-family="Helvetica,sans-Serif" font-size="10.00">utils/StkHelpers.h</text>
</a>
</g>
</g>
<!-- Node1&#45;&gt;Node8 -->
<g id="edge7" class="edge">
<title>Node1&#45;&gt;Node8</title>
<path fill="none" stroke="midnightblue" d="M795.31,-67.48C835.7,-56.98 904.38,-39.14 948.83,-27.59"/>
<polygon fill="midnightblue" stroke="midnightblue" points="949.95,-30.91 958.75,-25.01 948.19,-24.14 949.95,-30.91"/>
</g>
<!-- Node9 -->
<g id="node9" class="node">
<title>Node9</title>
<g id="a_node9"><a xlink:title=" ">
<polygon fill="white" stroke="#bfbfbf" points="1061.5,-6 1061.5,-25 1225.5,-25 1225.5,-6 1061.5,-6"/>
<text text-anchor="middle" x="1143.5" y="-13" font-family="Helvetica,sans-Serif" font-size="10.00">wind_energy/MoninObukhov.h</text>
</a>
</g>
</g>
<!-- Node1&#45;&gt;Node9 -->
<g id="edge8" class="edge">
<title>Node1&#45;&gt;Node9</title>
<path fill="none" stroke="midnightblue" d="M817.84,-67.48C876.2,-58.48 970.84,-43.84 1052.5,-31 1061.44,-29.59 1070.87,-28.1 1080.13,-26.63"/>
<polygon fill="midnightblue" stroke="midnightblue" points="1080.77,-30.07 1090.09,-25.05 1079.67,-23.16 1080.77,-30.07"/>
</g>
<!-- Node10 -->
<g id="node10" class="node">
<title>Node10</title>
<g id="a_node10"><a xlink:title=" ">
<polygon fill="white" stroke="#bfbfbf" points="1244,-6 1244,-25 1381,-25 1381,-6 1244,-6"/>
<text text-anchor="middle" x="1312.5" y="-13" font-family="Helvetica,sans-Serif" font-size="10.00">stk_mesh/base/Field.hpp</text>
</a>
</g>
</g>
<!-- Node1&#45;&gt;Node10 -->
<g id="edge9" class="edge">
<title>Node1&#45;&gt;Node10</title>
<path fill="none" stroke="midnightblue" d="M862.25,-69.07C957.99,-61.82 1106.52,-48.96 1234.5,-31 1242.93,-29.82 1251.84,-28.36 1260.5,-26.83"/>
<polygon fill="midnightblue" stroke="midnightblue" points="1261.3,-30.24 1270.51,-25.01 1260.05,-23.35 1261.3,-30.24"/>
</g>
</g>
</svg>
