<?xml version="1.0" encoding="UTF-8" standalone="no"?>
<!DOCTYPE svg PUBLIC "-//W3C//DTD SVG 1.1//EN"
 "http://www.w3.org/Graphics/SVG/1.1/DTD/svg11.dtd">
<!-- Generated by graphviz version 2.43.0 (0)
 -->
<!-- Title: MomentumABLWallFuncMaskUtil.C Pages: 1 -->
<svg width="1223pt" height="95pt"
 viewBox="0.00 0.00 1222.50 95.00" xmlns="http://www.w3.org/2000/svg" xmlns:xlink="http://www.w3.org/1999/xlink">
<g id="graph0" class="graph" transform="scale(1 1) rotate(0) translate(4 91)">
<title>MomentumABLWallFuncMaskUtil.C</title>
<polygon fill="white" stroke="transparent" points="-4,4 -4,-91 1218.5,-91 1218.5,4 -4,4"/>
<!-- Node1 -->
<g id="node1" class="node">
<title>Node1</title>
<g id="a_node1"><a xlink:title=" ">
<polygon fill="#bfbfbf" stroke="black" points="507.5,-67.5 507.5,-86.5 695.5,-86.5 695.5,-67.5 507.5,-67.5"/>
<text text-anchor="middle" x="601.5" y="-74.5" font-family="Helvetica,sans-Serif" font-size="10.00">MomentumABLWallFuncMaskUtil.C</text>
</a>
</g>
</g>
<!-- Node2 -->
<g id="node2" class="node">
<title>Node2</title>
<g id="a_node2"><a xlink:title=" ">
<polygon fill="white" stroke="#bfbfbf" points="0,-0.5 0,-30.5 191,-30.5 191,-0.5 0,-0.5"/>
<text text-anchor="start" x="8" y="-18.5" font-family="Helvetica,sans-Serif" font-size="10.00">ngp_algorithms/MomentumABLWall</text>
<text text-anchor="middle" x="95.5" y="-7.5" font-family="Helvetica,sans-Serif" font-size="10.00">FuncMaskUtil.h</text>
</a>
</g>
</g>
<!-- Node1&#45;&gt;Node2 -->
<g id="edge1" class="edge">
<title>Node1&#45;&gt;Node2</title>
<path fill="none" stroke="midnightblue" d="M519.43,-67.47C440.43,-59.11 317.33,-45.69 201.38,-31.22"/>
<polygon fill="midnightblue" stroke="midnightblue" points="201.61,-27.72 191.26,-29.95 200.74,-34.67 201.61,-27.72"/>
</g>
<!-- Node3 -->
<g id="node3" class="node">
<title>Node3</title>
<g id="a_node3"><a xlink:title=" ">
<polygon fill="white" stroke="#bfbfbf" points="209,-6 209,-25 266,-25 266,-6 209,-6"/>
<text text-anchor="middle" x="237.5" y="-13" font-family="Helvetica,sans-Serif" font-size="10.00">Realm.h</text>
</a>
</g>
</g>
<!-- Node1&#45;&gt;Node3 -->
<g id="edge2" class="edge">
<title>Node1&#45;&gt;Node3</title>
<path fill="none" stroke="midnightblue" d="M507.32,-68.99C441.36,-62.64 351.58,-51.1 274.5,-31 271.84,-30.31 269.11,-29.48 266.39,-28.57"/>
<polygon fill="midnightblue" stroke="midnightblue" points="267.39,-25.21 256.8,-25.06 264.99,-31.78 267.39,-25.21"/>
</g>
<!-- Node4 -->
<g id="node4" class="node">
<title>Node4</title>
<g id="a_node4"><a xlink:title=" ">
<polygon fill="white" stroke="#bfbfbf" points="284,-6 284,-25 441,-25 441,-6 284,-6"/>
<text text-anchor="middle" x="362.5" y="-13" font-family="Helvetica,sans-Serif" font-size="10.00">stk_mesh/base/NgpField.hpp</text>
</a>
</g>
</g>
<!-- Node1&#45;&gt;Node4 -->
<g id="edge3" class="edge">
<title>Node1&#45;&gt;Node4</title>
<path fill="none" stroke="midnightblue" d="M567.26,-67.48C524.93,-56.94 452.82,-38.99 406.45,-27.44"/>
<polygon fill="midnightblue" stroke="midnightblue" points="407.23,-24.03 396.68,-25.01 405.54,-30.82 407.23,-24.03"/>
</g>
<!-- Node5 -->
<g id="node5" class="node">
<title>Node5</title>
<g id="a_node5"><a xlink:title=" ">
<polygon fill="white" stroke="#bfbfbf" points="459.5,-6 459.5,-25 597.5,-25 597.5,-6 459.5,-6"/>
<text text-anchor="middle" x="528.5" y="-13" font-family="Helvetica,sans-Serif" font-size="10.00">ngp_utils/NgpLoopUtils.h</text>
</a>
</g>
</g>
<!-- Node1&#45;&gt;Node5 -->
<g id="edge4" class="edge">
<title>Node1&#45;&gt;Node5</title>
<path fill="none" stroke="midnightblue" d="M591.04,-67.48C579.55,-58.11 560.87,-42.88 546.91,-31.51"/>
<polygon fill="midnightblue" stroke="midnightblue" points="548.9,-28.61 538.94,-25.01 544.48,-34.04 548.9,-28.61"/>
</g>
<!-- Node6 -->
<g id="node6" class="node">
<title>Node6</title>
<g id="a_node6"><a xlink:title=" ">
<polygon fill="white" stroke="#bfbfbf" points="615.5,-6 615.5,-25 735.5,-25 735.5,-6 615.5,-6"/>
<text text-anchor="middle" x="675.5" y="-13" font-family="Helvetica,sans-Serif" font-size="10.00">ngp_utils/NgpTypes.h</text>
</a>
</g>
</g>
<!-- Node1&#45;&gt;Node6 -->
<g id="edge5" class="edge">
<title>Node1&#45;&gt;Node6</title>
<path fill="none" stroke="midnightblue" d="M612.1,-67.48C623.75,-58.11 642.69,-42.88 656.83,-31.51"/>
<polygon fill="midnightblue" stroke="midnightblue" points="659.32,-34 664.92,-25.01 654.93,-28.55 659.32,-34"/>
</g>
<!-- Node7 -->
<g id="node7" class="node">
<title>Node7</title>
<g id="a_node7"><a xlink:title=" ">
<polygon fill="white" stroke="#bfbfbf" points="754,-6 754,-25 887,-25 887,-6 754,-6"/>
<text text-anchor="middle" x="820.5" y="-13" font-family="Helvetica,sans-Serif" font-size="10.00">stk_mesh/base/Part.hpp</text>
</a>
</g>
</g>
<!-- Node1&#45;&gt;Node7 -->
<g id="edge6" class="edge">
<title>Node1&#45;&gt;Node7</title>
<path fill="none" stroke="midnightblue" d="M632.88,-67.48C671.42,-57 736.91,-39.21 779.42,-27.66"/>
<polygon fill="midnightblue" stroke="midnightblue" points="780.45,-31.01 789.18,-25.01 778.61,-24.25 780.45,-31.01"/>
</g>
<!-- Node8 -->
<g id="node8" class="node">
<title>Node8</title>
<g id="a_node8"><a xlink:title=" ">
<polygon fill="white" stroke="#bfbfbf" points="905,-6 905,-25 1058,-25 1058,-6 905,-6"/>
<text text-anchor="middle" x="981.5" y="-13" font-family="Helvetica,sans-Serif" font-size="10.00">stk_mesh/base/Selector.hpp</text>
</a>
</g>
</g>
<!-- Node1&#45;&gt;Node8 -->
<g id="edge7" class="edge">
<title>Node1&#45;&gt;Node8</title>
<path fill="none" stroke="midnightblue" d="M659.48,-67.46C719,-58.63 814.29,-44.28 896.5,-31 904.89,-29.64 913.74,-28.18 922.44,-26.71"/>
<polygon fill="midnightblue" stroke="midnightblue" points="923.26,-30.12 932.53,-25 922.09,-23.22 923.26,-30.12"/>
</g>
<!-- Node9 -->
<g id="node9" class="node">
<title>Node9</title>
<g id="a_node9"><a xlink:title=" ">
<polygon fill="white" stroke="#bfbfbf" points="1076.5,-6 1076.5,-25 1214.5,-25 1214.5,-6 1076.5,-6"/>
<text text-anchor="middle" x="1145.5" y="-13" font-family="Helvetica,sans-Serif" font-size="10.00">ngp_utils/NgpFieldUtils.h</text>
</a>
</g>
</g>
<!-- Node1&#45;&gt;Node9 -->
<g id="edge8" class="edge">
<title>Node1&#45;&gt;Node9</title>
<path fill="none" stroke="midnightblue" d="M695.5,-69.35C789.82,-62.11 939.13,-49.09 1067.5,-31 1075.93,-29.81 1084.84,-28.35 1093.5,-26.82"/>
<polygon fill="midnightblue" stroke="midnightblue" points="1094.3,-30.23 1103.51,-25 1093.05,-23.35 1094.3,-30.23"/>
</g>
</g>
</svg>
