<?xml version="1.0" encoding="UTF-8" standalone="no"?>
<!DOCTYPE svg PUBLIC "-//W3C//DTD SVG 1.1//EN"
 "http://www.w3.org/Graphics/SVG/1.1/DTD/svg11.dtd">
<!-- Generated by graphviz version 2.43.0 (0)
 -->
<!-- Title: MomentumDiagonal.C Pages: 1 -->
<svg width="1656pt" height="84pt"
 viewBox="0.00 0.00 1655.50 84.00" xmlns="http://www.w3.org/2000/svg" xmlns:xlink="http://www.w3.org/1999/xlink">
<g id="graph0" class="graph" transform="scale(1 1) rotate(0) translate(4 80)">
<title>MomentumDiagonal.C</title>
<polygon fill="white" stroke="transparent" points="-4,4 -4,-80 1651.5,-80 1651.5,4 -4,4"/>
<!-- Node1 -->
<g id="node1" class="node">
<title>Node1</title>
<g id="a_node1"><a xlink:title=" ">
<polygon fill="#bfbfbf" stroke="black" points="848.5,-56.5 848.5,-75.5 974.5,-75.5 974.5,-56.5 848.5,-56.5"/>
<text text-anchor="middle" x="911.5" y="-63.5" font-family="Helvetica,sans-Serif" font-size="10.00">MomentumDiagonal.C</text>
</a>
</g>
</g>
<!-- Node2 -->
<g id="node2" class="node">
<title>Node2</title>
<g id="a_node2"><a xlink:title=" ">
<polygon fill="white" stroke="#bfbfbf" points="0,-0.5 0,-19.5 185,-19.5 185,-0.5 0,-0.5"/>
<text text-anchor="middle" x="92.5" y="-7.5" font-family="Helvetica,sans-Serif" font-size="10.00">matrix_free/MomentumDiagonal.h</text>
</a>
</g>
</g>
<!-- Node1&#45;&gt;Node2 -->
<g id="edge1" class="edge">
<title>Node1&#45;&gt;Node2</title>
<path fill="none" stroke="midnightblue" d="M848.07,-61.59C724.57,-54.82 442.94,-38.78 195.5,-20.14"/>
<polygon fill="midnightblue" stroke="midnightblue" points="195.47,-16.62 185.23,-19.36 194.94,-23.6 195.47,-16.62"/>
</g>
<!-- Node3 -->
<g id="node3" class="node">
<title>Node3</title>
<g id="a_node3"><a xlink:title=" ">
<polygon fill="white" stroke="#bfbfbf" points="203,-0.5 203,-19.5 346,-19.5 346,-0.5 203,-0.5"/>
<text text-anchor="middle" x="274.5" y="-7.5" font-family="Helvetica,sans-Serif" font-size="10.00">matrix_free/Coefficients.h</text>
</a>
</g>
</g>
<!-- Node1&#45;&gt;Node3 -->
<g id="edge2" class="edge">
<title>Node1&#45;&gt;Node3</title>
<path fill="none" stroke="midnightblue" d="M848.38,-60.55C746.92,-53.25 541,-37.85 356.2,-20.14"/>
<polygon fill="midnightblue" stroke="midnightblue" points="356.31,-16.63 346.02,-19.16 355.64,-23.6 356.31,-16.63"/>
</g>
<!-- Node4 -->
<g id="node4" class="node">
<title>Node4</title>
<g id="a_node4"><a xlink:title=" ">
<polygon fill="white" stroke="#bfbfbf" points="364,-0.5 364,-19.5 537,-19.5 537,-0.5 364,-0.5"/>
<text text-anchor="middle" x="450.5" y="-7.5" font-family="Helvetica,sans-Serif" font-size="10.00">matrix_free/PolynomialOrders.h</text>
</a>
</g>
</g>
<!-- Node1&#45;&gt;Node4 -->
<g id="edge3" class="edge">
<title>Node1&#45;&gt;Node4</title>
<path fill="none" stroke="midnightblue" d="M848.37,-57.6C766.48,-48.01 623.47,-31.26 533.05,-20.67"/>
<polygon fill="midnightblue" stroke="midnightblue" points="533.45,-17.19 523.11,-19.51 532.63,-24.14 533.45,-17.19"/>
</g>
<!-- Node5 -->
<g id="node5" class="node">
<title>Node5</title>
<g id="a_node5"><a xlink:title=" ">
<polygon fill="white" stroke="#bfbfbf" points="555,-0.5 555,-19.5 722,-19.5 722,-0.5 555,-0.5"/>
<text text-anchor="middle" x="638.5" y="-7.5" font-family="Helvetica,sans-Serif" font-size="10.00">matrix_free/ValidSimdLength.h</text>
</a>
</g>
</g>
<!-- Node1&#45;&gt;Node5 -->
<g id="edge4" class="edge">
<title>Node1&#45;&gt;Node5</title>
<path fill="none" stroke="midnightblue" d="M868.24,-56.44C820.32,-46.96 743.02,-31.67 691.5,-21.48"/>
<polygon fill="midnightblue" stroke="midnightblue" points="692.04,-18.02 681.56,-19.52 690.69,-24.89 692.04,-18.02"/>
</g>
<!-- Node6 -->
<g id="node6" class="node">
<title>Node6</title>
<g id="a_node6"><a xlink:title=" ">
<polygon fill="white" stroke="#bfbfbf" points="740,-0.5 740,-19.5 899,-19.5 899,-0.5 740,-0.5"/>
<text text-anchor="middle" x="819.5" y="-7.5" font-family="Helvetica,sans-Serif" font-size="10.00">matrix_free/ShuffledAccess.h</text>
</a>
</g>
</g>
<!-- Node1&#45;&gt;Node6 -->
<g id="edge5" class="edge">
<title>Node1&#45;&gt;Node6</title>
<path fill="none" stroke="midnightblue" d="M896.72,-56.32C882.23,-47.82 859.93,-34.73 843.01,-24.8"/>
<polygon fill="midnightblue" stroke="midnightblue" points="844.64,-21.7 834.24,-19.65 841.1,-27.74 844.64,-21.7"/>
</g>
<!-- Node7 -->
<g id="node7" class="node">
<title>Node7</title>
<g id="a_node7"><a xlink:title=" ">
<polygon fill="white" stroke="#bfbfbf" points="917.5,-0.5 917.5,-19.5 1089.5,-19.5 1089.5,-0.5 917.5,-0.5"/>
<text text-anchor="middle" x="1003.5" y="-7.5" font-family="Helvetica,sans-Serif" font-size="10.00">matrix_free/KokkosViewTypes.h</text>
</a>
</g>
</g>
<!-- Node1&#45;&gt;Node7 -->
<g id="edge6" class="edge">
<title>Node1&#45;&gt;Node7</title>
<path fill="none" stroke="midnightblue" d="M926.28,-56.32C940.77,-47.82 963.07,-34.73 979.99,-24.8"/>
<polygon fill="midnightblue" stroke="midnightblue" points="981.9,-27.74 988.76,-19.65 978.36,-21.7 981.9,-27.74"/>
</g>
<!-- Node8 -->
<g id="node8" class="node">
<title>Node8</title>
<g id="a_node8"><a xlink:title=" ">
<polygon fill="white" stroke="#bfbfbf" points="1107.5,-0.5 1107.5,-19.5 1243.5,-19.5 1243.5,-0.5 1107.5,-0.5"/>
<text text-anchor="middle" x="1175.5" y="-7.5" font-family="Helvetica,sans-Serif" font-size="10.00">matrix_free/LocalArray.h</text>
</a>
</g>
</g>
<!-- Node1&#45;&gt;Node8 -->
<g id="edge7" class="edge">
<title>Node1&#45;&gt;Node8</title>
<path fill="none" stroke="midnightblue" d="M953.33,-56.44C999.58,-46.98 1074.11,-31.74 1123.94,-21.55"/>
<polygon fill="midnightblue" stroke="midnightblue" points="1124.77,-24.95 1133.86,-19.52 1123.37,-18.09 1124.77,-24.95"/>
</g>
<!-- Node9 -->
<g id="node9" class="node">
<title>Node9</title>
<g id="a_node9"><a xlink:title=" ">
<polygon fill="white" stroke="#bfbfbf" points="1261.5,-0.5 1261.5,-19.5 1365.5,-19.5 1365.5,-0.5 1261.5,-0.5"/>
<text text-anchor="middle" x="1313.5" y="-7.5" font-family="Helvetica,sans-Serif" font-size="10.00">KokkosInterface.h</text>
</a>
</g>
</g>
<!-- Node1&#45;&gt;Node9 -->
<g id="edge8" class="edge">
<title>Node1&#45;&gt;Node9</title>
<path fill="none" stroke="midnightblue" d="M974.7,-56.95C1041.05,-48.44 1148.67,-34.44 1251.35,-20.14"/>
<polygon fill="midnightblue" stroke="midnightblue" points="1251.84,-23.61 1261.26,-18.76 1250.88,-16.68 1251.84,-23.61"/>
</g>
<!-- Node10 -->
<g id="node10" class="node">
<title>Node10</title>
<g id="a_node10"><a xlink:title=" ">
<polygon fill="white" stroke="#bfbfbf" points="1384,-0.5 1384,-19.5 1519,-19.5 1519,-0.5 1384,-0.5"/>
<text text-anchor="middle" x="1451.5" y="-7.5" font-family="Helvetica,sans-Serif" font-size="10.00">Kokkos_ScatterView.hpp</text>
</a>
</g>
</g>
<!-- Node1&#45;&gt;Node10 -->
<g id="edge9" class="edge">
<title>Node1&#45;&gt;Node10</title>
<path fill="none" stroke="midnightblue" d="M974.82,-59.24C1062.02,-51.22 1224.27,-35.98 1373.63,-20.07"/>
<polygon fill="midnightblue" stroke="midnightblue" points="1374.33,-23.52 1383.9,-18.98 1373.59,-16.56 1374.33,-23.52"/>
</g>
<!-- Node11 -->
<g id="node11" class="node">
<title>Node11</title>
<g id="a_node11"><a xlink:title=" ">
<polygon fill="white" stroke="#bfbfbf" points="1537.5,-0.5 1537.5,-19.5 1647.5,-19.5 1647.5,-0.5 1537.5,-0.5"/>
<text text-anchor="middle" x="1592.5" y="-7.5" font-family="Helvetica,sans-Serif" font-size="10.00">stk_simd/Simd.hpp</text>
</a>
</g>
</g>
<!-- Node1&#45;&gt;Node11 -->
<g id="edge10" class="edge">
<title>Node1&#45;&gt;Node11</title>
<path fill="none" stroke="midnightblue" d="M974.69,-61.79C1084.74,-55.89 1318.95,-41.99 1527.16,-20.07"/>
<polygon fill="midnightblue" stroke="midnightblue" points="1527.8,-23.53 1537.37,-18.99 1527.06,-16.57 1527.8,-23.53"/>
</g>
</g>
</svg>
