<?xml version="1.0" encoding="UTF-8" standalone="no"?>
<!DOCTYPE svg PUBLIC "-//W3C//DTD SVG 1.1//EN"
 "http://www.w3.org/Graphics/SVG/1.1/DTD/svg11.dtd">
<!-- Generated by graphviz version 2.43.0 (0)
 -->
<!-- Title: MomentumInterior.C Pages: 1 -->
<svg width="3069pt" height="95pt"
 viewBox="0.00 0.00 3069.00 95.00" xmlns="http://www.w3.org/2000/svg" xmlns:xlink="http://www.w3.org/1999/xlink">
<g id="graph0" class="graph" transform="scale(1 1) rotate(0) translate(4 91)">
<title>MomentumInterior.C</title>
<polygon fill="white" stroke="transparent" points="-4,4 -4,-91 3065,-91 3065,4 -4,4"/>
<!-- Node1 -->
<g id="node1" class="node">
<title>Node1</title>
<g id="a_node1"><a xlink:title=" ">
<polygon fill="#bfbfbf" stroke="black" points="1542.5,-67.5 1542.5,-86.5 1659.5,-86.5 1659.5,-67.5 1542.5,-67.5"/>
<text text-anchor="middle" x="1601" y="-74.5" font-family="Helvetica,sans-Serif" font-size="10.00">MomentumInterior.C</text>
</a>
</g>
</g>
<!-- Node2 -->
<g id="node2" class="node">
<title>Node2</title>
<g id="a_node2"><a xlink:title=" ">
<polygon fill="white" stroke="#bfbfbf" points="0,-6 0,-25 176,-25 176,-6 0,-6"/>
<text text-anchor="middle" x="88" y="-13" font-family="Helvetica,sans-Serif" font-size="10.00">matrix_free/MomentumInterior.h</text>
</a>
</g>
</g>
<!-- Node1&#45;&gt;Node2 -->
<g id="edge1" class="edge">
<title>Node1&#45;&gt;Node2</title>
<path fill="none" stroke="midnightblue" d="M1542.18,-76.58C1347.99,-77.98 709.83,-78.4 185,-31 172.94,-29.91 160.1,-28.31 147.84,-26.56"/>
<polygon fill="midnightblue" stroke="midnightblue" points="148.11,-23.06 137.71,-25.07 147.09,-29.99 148.11,-23.06"/>
</g>
<!-- Node3 -->
<g id="node3" class="node">
<title>Node3</title>
<g id="a_node3"><a xlink:title=" ">
<polygon fill="white" stroke="#bfbfbf" points="194,-6 194,-25 362,-25 362,-6 194,-6"/>
<text text-anchor="middle" x="278" y="-13" font-family="Helvetica,sans-Serif" font-size="10.00">matrix_free/ElementGradient.h</text>
</a>
</g>
</g>
<!-- Node1&#45;&gt;Node3 -->
<g id="edge2" class="edge">
<title>Node1&#45;&gt;Node3</title>
<path fill="none" stroke="midnightblue" d="M1542.21,-76.34C1364.81,-76.85 819.41,-74.47 370,-31 358.67,-29.9 346.62,-28.32 335.1,-26.59"/>
<polygon fill="midnightblue" stroke="midnightblue" points="335.56,-23.12 325.14,-25.04 334.48,-30.03 335.56,-23.12"/>
</g>
<!-- Node4 -->
<g id="node4" class="node">
<title>Node4</title>
<g id="a_node4"><a xlink:title=" ">
<polygon fill="white" stroke="#bfbfbf" points="379.5,-6 379.5,-25 574.5,-25 574.5,-6 379.5,-6"/>
<text text-anchor="middle" x="477" y="-13" font-family="Helvetica,sans-Serif" font-size="10.00">matrix_free/HexVertexCoordinates.h</text>
</a>
</g>
</g>
<!-- Node1&#45;&gt;Node4 -->
<g id="edge3" class="edge">
<title>Node1&#45;&gt;Node4</title>
<path fill="none" stroke="midnightblue" d="M1542.35,-75.29C1386.08,-72.99 946.84,-63.86 583,-31 569.81,-29.81 555.74,-28.16 542.3,-26.39"/>
<polygon fill="midnightblue" stroke="midnightblue" points="542.56,-22.89 532.18,-25.02 541.62,-29.83 542.56,-22.89"/>
</g>
<!-- Node5 -->
<g id="node5" class="node">
<title>Node5</title>
<g id="a_node5"><a xlink:title=" ">
<polygon fill="white" stroke="#bfbfbf" points="592.5,-6 592.5,-25 735.5,-25 735.5,-6 592.5,-6"/>
<text text-anchor="middle" x="664" y="-13" font-family="Helvetica,sans-Serif" font-size="10.00">matrix_free/Coefficients.h</text>
</a>
</g>
</g>
<!-- Node1&#45;&gt;Node5 -->
<g id="edge4" class="edge">
<title>Node1&#45;&gt;Node5</title>
<path fill="none" stroke="midnightblue" d="M1542.34,-75.48C1403.25,-73.69 1042.76,-65.78 744,-31 734.73,-29.92 724.92,-28.43 715.46,-26.82"/>
<polygon fill="midnightblue" stroke="midnightblue" points="715.83,-23.33 705.37,-25.03 714.61,-30.22 715.83,-23.33"/>
</g>
<!-- Node6 -->
<g id="node6" class="node">
<title>Node6</title>
<g id="a_node6"><a xlink:title=" ">
<polygon fill="white" stroke="#bfbfbf" points="753.5,-6 753.5,-25 938.5,-25 938.5,-6 753.5,-6"/>
<text text-anchor="middle" x="846" y="-13" font-family="Helvetica,sans-Serif" font-size="10.00">matrix_free/ElementFluxIntegral.h</text>
</a>
</g>
</g>
<!-- Node1&#45;&gt;Node6 -->
<g id="edge5" class="edge">
<title>Node1&#45;&gt;Node6</title>
<path fill="none" stroke="midnightblue" d="M1542.34,-73.38C1427.85,-67.96 1166.68,-54.05 948,-31 935.98,-29.73 923.2,-28.12 910.89,-26.44"/>
<polygon fill="midnightblue" stroke="midnightblue" points="911.09,-22.94 900.7,-25.02 910.12,-29.87 911.09,-22.94"/>
</g>
<!-- Node7 -->
<g id="node7" class="node">
<title>Node7</title>
<g id="a_node7"><a xlink:title=" ">
<polygon fill="white" stroke="#bfbfbf" points="957,-0.5 957,-30.5 1111,-30.5 1111,-0.5 957,-0.5"/>
<text text-anchor="start" x="965" y="-18.5" font-family="Helvetica,sans-Serif" font-size="10.00">matrix_free/ElementVolume</text>
<text text-anchor="middle" x="1034" y="-7.5" font-family="Helvetica,sans-Serif" font-size="10.00">Integral.h</text>
</a>
</g>
</g>
<!-- Node1&#45;&gt;Node7 -->
<g id="edge6" class="edge">
<title>Node1&#45;&gt;Node7</title>
<path fill="none" stroke="midnightblue" d="M1542.35,-71.91C1453.55,-65.42 1279.46,-51.48 1121.68,-31.16"/>
<polygon fill="midnightblue" stroke="midnightblue" points="1121.68,-27.63 1111.31,-29.81 1120.78,-34.57 1121.68,-27.63"/>
</g>
<!-- Node8 -->
<g id="node8" class="node">
<title>Node8</title>
<g id="a_node8"><a xlink:title=" ">
<polygon fill="white" stroke="#bfbfbf" points="1129.5,-6 1129.5,-25 1312.5,-25 1312.5,-6 1129.5,-6"/>
<text text-anchor="middle" x="1221" y="-13" font-family="Helvetica,sans-Serif" font-size="10.00">matrix_free/GeometricFunctions.h</text>
</a>
</g>
</g>
<!-- Node1&#45;&gt;Node8 -->
<g id="edge7" class="edge">
<title>Node1&#45;&gt;Node8</title>
<path fill="none" stroke="midnightblue" d="M1546.56,-67.48C1477.56,-56.67 1358.81,-38.08 1285.39,-26.58"/>
<polygon fill="midnightblue" stroke="midnightblue" points="1285.76,-23.1 1275.34,-25.01 1284.68,-30.01 1285.76,-23.1"/>
</g>
<!-- Node9 -->
<g id="node9" class="node">
<title>Node9</title>
<g id="a_node9"><a xlink:title=" ">
<polygon fill="white" stroke="#bfbfbf" points="1330.5,-6 1330.5,-25 1503.5,-25 1503.5,-6 1330.5,-6"/>
<text text-anchor="middle" x="1417" y="-13" font-family="Helvetica,sans-Serif" font-size="10.00">matrix_free/PolynomialOrders.h</text>
</a>
</g>
</g>
<!-- Node1&#45;&gt;Node9 -->
<g id="edge8" class="edge">
<title>Node1&#45;&gt;Node9</title>
<path fill="none" stroke="midnightblue" d="M1574.64,-67.48C1542.66,-57.14 1488.62,-39.66 1452.88,-28.1"/>
<polygon fill="midnightblue" stroke="midnightblue" points="1453.91,-24.76 1443.31,-25.01 1451.75,-31.42 1453.91,-24.76"/>
</g>
<!-- Node10 -->
<g id="node10" class="node">
<title>Node10</title>
<g id="a_node10"><a xlink:title=" ">
<polygon fill="white" stroke="#bfbfbf" points="1521.5,-6 1521.5,-25 1680.5,-25 1680.5,-6 1521.5,-6"/>
<text text-anchor="middle" x="1601" y="-13" font-family="Helvetica,sans-Serif" font-size="10.00">matrix_free/ShuffledAccess.h</text>
</a>
</g>
</g>
<!-- Node1&#45;&gt;Node10 -->
<g id="edge9" class="edge">
<title>Node1&#45;&gt;Node10</title>
<path fill="none" stroke="midnightblue" d="M1601,-67.48C1601,-59.08 1601,-45.98 1601,-35.16"/>
<polygon fill="midnightblue" stroke="midnightblue" points="1604.5,-35.01 1601,-25.01 1597.5,-35.01 1604.5,-35.01"/>
</g>
<!-- Node11 -->
<g id="node11" class="node">
<title>Node11</title>
<g id="a_node11"><a xlink:title=" ">
<polygon fill="white" stroke="#bfbfbf" points="1699,-6 1699,-25 1869,-25 1869,-6 1699,-6"/>
<text text-anchor="middle" x="1784" y="-13" font-family="Helvetica,sans-Serif" font-size="10.00">matrix_free/TensorOperations.h</text>
</a>
</g>
</g>
<!-- Node1&#45;&gt;Node11 -->
<g id="edge10" class="edge">
<title>Node1&#45;&gt;Node11</title>
<path fill="none" stroke="midnightblue" d="M1627.22,-67.48C1659.02,-57.14 1712.77,-39.66 1748.32,-28.1"/>
<polygon fill="midnightblue" stroke="midnightblue" points="1749.4,-31.43 1757.83,-25.01 1747.24,-24.77 1749.4,-31.43"/>
</g>
<!-- Node12 -->
<g id="node12" class="node">
<title>Node12</title>
<g id="a_node12"><a xlink:title=" ">
<polygon fill="white" stroke="#bfbfbf" points="1887.5,-6 1887.5,-25 2054.5,-25 2054.5,-6 1887.5,-6"/>
<text text-anchor="middle" x="1971" y="-13" font-family="Helvetica,sans-Serif" font-size="10.00">matrix_free/ValidSimdLength.h</text>
</a>
</g>
</g>
<!-- Node1&#45;&gt;Node12 -->
<g id="edge11" class="edge">
<title>Node1&#45;&gt;Node12</title>
<path fill="none" stroke="midnightblue" d="M1654.01,-67.48C1721.05,-56.69 1836.34,-38.15 1907.86,-26.65"/>
<polygon fill="midnightblue" stroke="midnightblue" points="1908.77,-30.05 1918.09,-25.01 1907.66,-23.14 1908.77,-30.05"/>
</g>
<!-- Node13 -->
<g id="node13" class="node">
<title>Node13</title>
<g id="a_node13"><a xlink:title=" ">
<polygon fill="white" stroke="#bfbfbf" points="2073,-6 2073,-25 2245,-25 2245,-6 2073,-6"/>
<text text-anchor="middle" x="2159" y="-13" font-family="Helvetica,sans-Serif" font-size="10.00">matrix_free/KokkosViewTypes.h</text>
</a>
</g>
</g>
<!-- Node1&#45;&gt;Node13 -->
<g id="edge12" class="edge">
<title>Node1&#45;&gt;Node13</title>
<path fill="none" stroke="midnightblue" d="M1659.58,-71.34C1747.56,-64.1 1918.95,-49.1 2064,-31 2074.41,-29.7 2085.44,-28.16 2096.16,-26.59"/>
<polygon fill="midnightblue" stroke="midnightblue" points="2096.94,-30.01 2106.31,-25.07 2095.9,-23.09 2096.94,-30.01"/>
</g>
<!-- Node14 -->
<g id="node14" class="node">
<title>Node14</title>
<g id="a_node14"><a xlink:title=" ">
<polygon fill="white" stroke="#bfbfbf" points="2263,-6 2263,-25 2399,-25 2399,-6 2263,-6"/>
<text text-anchor="middle" x="2331" y="-13" font-family="Helvetica,sans-Serif" font-size="10.00">matrix_free/LocalArray.h</text>
</a>
</g>
</g>
<!-- Node1&#45;&gt;Node14 -->
<g id="edge13" class="edge">
<title>Node1&#45;&gt;Node14</title>
<path fill="none" stroke="midnightblue" d="M1659.76,-74.26C1774.43,-70.36 2035.9,-58.95 2254,-31 2262.53,-29.91 2271.55,-28.47 2280.29,-26.92"/>
<polygon fill="midnightblue" stroke="midnightblue" points="2281.18,-30.32 2290.38,-25.07 2279.91,-23.43 2281.18,-30.32"/>
</g>
<!-- Node15 -->
<g id="node15" class="node">
<title>Node15</title>
<g id="a_node15"><a xlink:title=" ">
<polygon fill="white" stroke="#bfbfbf" points="2417,-6 2417,-25 2615,-25 2615,-6 2417,-6"/>
<text text-anchor="middle" x="2516" y="-13" font-family="Helvetica,sans-Serif" font-size="10.00">matrix_free/ElementSCSInterpolate.h</text>
</a>
</g>
</g>
<!-- Node1&#45;&gt;Node15 -->
<g id="edge14" class="edge">
<title>Node1&#45;&gt;Node15</title>
<path fill="none" stroke="midnightblue" d="M1659.85,-74.29C1793.21,-70.06 2128.61,-57.5 2408,-31 2421.21,-29.75 2435.28,-28.09 2448.76,-26.35"/>
<polygon fill="midnightblue" stroke="midnightblue" points="2449.47,-29.79 2458.92,-25.01 2448.55,-22.85 2449.47,-29.79"/>
</g>
<!-- Node16 -->
<g id="node16" class="node">
<title>Node16</title>
<g id="a_node16"><a xlink:title=" ">
<polygon fill="white" stroke="#bfbfbf" points="2633,-6 2633,-25 2737,-25 2737,-6 2633,-6"/>
<text text-anchor="middle" x="2685" y="-13" font-family="Helvetica,sans-Serif" font-size="10.00">KokkosInterface.h</text>
</a>
</g>
</g>
<!-- Node1&#45;&gt;Node16 -->
<g id="edge15" class="edge">
<title>Node1&#45;&gt;Node16</title>
<path fill="none" stroke="midnightblue" d="M1659.69,-74.88C1848.01,-71.06 2435.72,-57.28 2624,-31 2630.51,-30.09 2637.34,-28.81 2643.98,-27.37"/>
<polygon fill="midnightblue" stroke="midnightblue" points="2645.22,-30.68 2654.18,-25.02 2643.65,-23.85 2645.22,-30.68"/>
</g>
<!-- Node17 -->
<g id="node17" class="node">
<title>Node17</title>
<g id="a_node17"><a xlink:title=" ">
<polygon fill="white" stroke="#bfbfbf" points="2755.5,-6 2755.5,-25 2890.5,-25 2890.5,-6 2755.5,-6"/>
<text text-anchor="middle" x="2823" y="-13" font-family="Helvetica,sans-Serif" font-size="10.00">Kokkos_ScatterView.hpp</text>
</a>
</g>
</g>
<!-- Node1&#45;&gt;Node17 -->
<g id="edge16" class="edge">
<title>Node1&#45;&gt;Node17</title>
<path fill="none" stroke="midnightblue" d="M1659.78,-74.83C1862.59,-70.62 2532.26,-55.19 2746,-31 2754.94,-29.99 2764.39,-28.53 2773.51,-26.93"/>
<polygon fill="midnightblue" stroke="midnightblue" points="2774.4,-30.32 2783.6,-25.07 2773.13,-23.44 2774.4,-30.32"/>
</g>
<!-- Node18 -->
<g id="node18" class="node">
<title>Node18</title>
<g id="a_node18"><a xlink:title=" ">
<polygon fill="white" stroke="#bfbfbf" points="2909,-0.5 2909,-30.5 3061,-30.5 3061,-0.5 2909,-0.5"/>
<text text-anchor="start" x="2917" y="-18.5" font-family="Helvetica,sans-Serif" font-size="10.00">stk_mesh/base/NgpProfiling</text>
<text text-anchor="middle" x="2985" y="-7.5" font-family="Helvetica,sans-Serif" font-size="10.00">Block.hpp</text>
</a>
</g>
</g>
<!-- Node1&#45;&gt;Node18 -->
<g id="edge17" class="edge">
<title>Node1&#45;&gt;Node18</title>
<path fill="none" stroke="midnightblue" d="M1659.53,-75.02C1876.29,-71.22 2633.98,-56.49 2898.28,-31.05"/>
<polygon fill="midnightblue" stroke="midnightblue" points="2899.01,-34.5 2908.61,-30.03 2898.31,-27.53 2899.01,-34.5"/>
</g>
</g>
</svg>
