<?xml version="1.0" encoding="UTF-8" standalone="no"?>
<!DOCTYPE svg PUBLIC "-//W3C//DTD SVG 1.1//EN"
 "http://www.w3.org/Graphics/SVG/1.1/DTD/svg11.dtd">
<!-- Generated by graphviz version 2.43.0 (0)
 -->
<!-- Title: MomentumBoussinesqNodeKernel.C Pages: 1 -->
<svg width="863pt" height="95pt"
 viewBox="0.00 0.00 862.50 95.00" xmlns="http://www.w3.org/2000/svg" xmlns:xlink="http://www.w3.org/1999/xlink">
<g id="graph0" class="graph" transform="scale(1 1) rotate(0) translate(4 91)">
<title>MomentumBoussinesqNodeKernel.C</title>
<polygon fill="white" stroke="transparent" points="-4,4 -4,-91 858.5,-91 858.5,4 -4,4"/>
<!-- Node1 -->
<g id="node1" class="node">
<title>Node1</title>
<g id="a_node1"><a xlink:title=" ">
<polygon fill="#bfbfbf" stroke="black" points="359,-67.5 359,-86.5 553,-86.5 553,-67.5 359,-67.5"/>
<text text-anchor="middle" x="456" y="-74.5" font-family="Helvetica,sans-Serif" font-size="10.00">MomentumBoussinesqNodeKernel.C</text>
</a>
</g>
</g>
<!-- Node2 -->
<g id="node2" class="node">
<title>Node2</title>
<g id="a_node2"><a xlink:title=" ">
<polygon fill="white" stroke="#bfbfbf" points="0,-0.5 0,-30.5 196,-30.5 196,-0.5 0,-0.5"/>
<text text-anchor="start" x="8" y="-18.5" font-family="Helvetica,sans-Serif" font-size="10.00">node_kernels/MomentumBoussinesq</text>
<text text-anchor="middle" x="98" y="-7.5" font-family="Helvetica,sans-Serif" font-size="10.00">NodeKernel.h</text>
</a>
</g>
</g>
<!-- Node1&#45;&gt;Node2 -->
<g id="edge1" class="edge">
<title>Node1&#45;&gt;Node2</title>
<path fill="none" stroke="midnightblue" d="M404.71,-67.48C349.42,-58.29 260.23,-43.46 192.24,-32.16"/>
<polygon fill="midnightblue" stroke="midnightblue" points="192.81,-28.71 182.37,-30.52 191.66,-35.62 192.81,-28.71"/>
</g>
<!-- Node3 -->
<g id="node3" class="node">
<title>Node3</title>
<g id="a_node3"><a xlink:title=" ">
<polygon fill="white" stroke="#bfbfbf" points="214.5,-6 214.5,-25 271.5,-25 271.5,-6 214.5,-6"/>
<text text-anchor="middle" x="243" y="-13" font-family="Helvetica,sans-Serif" font-size="10.00">Realm.h</text>
</a>
</g>
</g>
<!-- Node1&#45;&gt;Node3 -->
<g id="edge2" class="edge">
<title>Node1&#45;&gt;Node3</title>
<path fill="none" stroke="midnightblue" d="M417.76,-67.48C382.07,-59.22 327.48,-45.79 281,-31 278.59,-30.23 276.1,-29.39 273.62,-28.52"/>
<polygon fill="midnightblue" stroke="midnightblue" points="274.75,-25.21 264.15,-25.06 272.34,-31.78 274.75,-25.21"/>
</g>
<!-- Node4 -->
<g id="node4" class="node">
<title>Node4</title>
<g id="a_node4"><a xlink:title=" ">
<polygon fill="white" stroke="#bfbfbf" points="290,-6 290,-25 452,-25 452,-6 290,-6"/>
<text text-anchor="middle" x="371" y="-13" font-family="Helvetica,sans-Serif" font-size="10.00">stk_mesh/base/MetaData.hpp</text>
</a>
</g>
</g>
<!-- Node1&#45;&gt;Node4 -->
<g id="edge3" class="edge">
<title>Node1&#45;&gt;Node4</title>
<path fill="none" stroke="midnightblue" d="M443.82,-67.48C430.19,-57.93 407.87,-42.31 391.53,-30.87"/>
<polygon fill="midnightblue" stroke="midnightblue" points="393.36,-27.88 383.16,-25.01 389.34,-33.61 393.36,-27.88"/>
</g>
<!-- Node5 -->
<g id="node5" class="node">
<title>Node5</title>
<g id="a_node5"><a xlink:title=" ">
<polygon fill="white" stroke="#bfbfbf" points="470,-6 470,-25 612,-25 612,-6 470,-6"/>
<text text-anchor="middle" x="541" y="-13" font-family="Helvetica,sans-Serif" font-size="10.00">stk_mesh/base/Types.hpp</text>
</a>
</g>
</g>
<!-- Node1&#45;&gt;Node5 -->
<g id="edge4" class="edge">
<title>Node1&#45;&gt;Node5</title>
<path fill="none" stroke="midnightblue" d="M468.18,-67.48C481.81,-57.93 504.13,-42.31 520.47,-30.87"/>
<polygon fill="midnightblue" stroke="midnightblue" points="522.66,-33.61 528.84,-25.01 518.64,-27.88 522.66,-33.61"/>
</g>
<!-- Node6 -->
<g id="node6" class="node">
<title>Node6</title>
<g id="a_node6"><a xlink:title=" ">
<polygon fill="white" stroke="#bfbfbf" points="630.5,-6 630.5,-25 733.5,-25 733.5,-6 630.5,-6"/>
<text text-anchor="middle" x="682" y="-13" font-family="Helvetica,sans-Serif" font-size="10.00">utils/StkHelpers.h</text>
</a>
</g>
</g>
<!-- Node1&#45;&gt;Node6 -->
<g id="edge5" class="edge">
<title>Node1&#45;&gt;Node6</title>
<path fill="none" stroke="midnightblue" d="M488.38,-67.48C528.24,-56.98 596.02,-39.14 639.89,-27.59"/>
<polygon fill="midnightblue" stroke="midnightblue" points="640.9,-30.94 649.68,-25.01 639.12,-24.17 640.9,-30.94"/>
</g>
<!-- Node7 -->
<g id="node7" class="node">
<title>Node7</title>
<g id="a_node7"><a xlink:title=" ">
<polygon fill="white" stroke="#bfbfbf" points="751.5,-6 751.5,-25 854.5,-25 854.5,-6 751.5,-6"/>
<text text-anchor="middle" x="803" y="-13" font-family="Helvetica,sans-Serif" font-size="10.00">SolutionOptions.h</text>
</a>
</g>
</g>
<!-- Node1&#45;&gt;Node7 -->
<g id="edge6" class="edge">
<title>Node1&#45;&gt;Node7</title>
<path fill="none" stroke="midnightblue" d="M520.1,-67.48C578.44,-59.36 666.82,-46.15 743,-31 748.45,-29.92 754.16,-28.68 759.79,-27.39"/>
<polygon fill="midnightblue" stroke="midnightblue" points="760.85,-30.73 769.78,-25.04 759.25,-23.92 760.85,-30.73"/>
</g>
</g>
</svg>
