<?xml version="1.0" encoding="UTF-8" standalone="no"?>
<!DOCTYPE svg PUBLIC "-//W3C//DTD SVG 1.1//EN"
 "http://www.w3.org/Graphics/SVG/1.1/DTD/svg11.dtd">
<!-- Generated by graphviz version 2.43.0 (0)
 -->
<!-- Title: MomentumOpenAdvDiffElemKernel.C Pages: 1 -->
<svg width="1849pt" height="95pt"
 viewBox="0.00 0.00 1849.00 95.00" xmlns="http://www.w3.org/2000/svg" xmlns:xlink="http://www.w3.org/1999/xlink">
<g id="graph0" class="graph" transform="scale(1 1) rotate(0) translate(4 91)">
<title>MomentumOpenAdvDiffElemKernel.C</title>
<polygon fill="white" stroke="transparent" points="-4,4 -4,-91 1845,-91 1845,4 -4,4"/>
<!-- Node1 -->
<g id="node1" class="node">
<title>Node1</title>
<g id="a_node1"><a xlink:title=" ">
<polygon fill="#bfbfbf" stroke="black" points="845.5,-67.5 845.5,-86.5 1045.5,-86.5 1045.5,-67.5 845.5,-67.5"/>
<text text-anchor="middle" x="945.5" y="-74.5" font-family="Helvetica,sans-Serif" font-size="10.00">MomentumOpenAdvDiffElemKernel.C</text>
</a>
</g>
</g>
<!-- Node2 -->
<g id="node2" class="node">
<title>Node2</title>
<g id="a_node2"><a xlink:title=" ">
<polygon fill="white" stroke="#bfbfbf" points="0,-6 0,-25 59,-25 59,-6 0,-6"/>
<text text-anchor="middle" x="29.5" y="-13" font-family="Helvetica,sans-Serif" font-size="10.00">Enums.h</text>
</a>
</g>
</g>
<!-- Node1&#45;&gt;Node2 -->
<g id="edge1" class="edge">
<title>Node1&#45;&gt;Node2</title>
<path fill="none" stroke="midnightblue" d="M845.27,-74.8C647.43,-71.77 213.3,-61.75 67.5,-31 64.42,-30.35 61.26,-29.49 58.15,-28.51"/>
<polygon fill="midnightblue" stroke="midnightblue" points="59.07,-25.12 48.48,-25.08 56.73,-31.72 59.07,-25.12"/>
</g>
<!-- Node3 -->
<g id="node3" class="node">
<title>Node3</title>
<g id="a_node3"><a xlink:title=" ">
<polygon fill="white" stroke="#bfbfbf" points="77,-0.5 77,-30.5 244,-30.5 244,-0.5 77,-0.5"/>
<text text-anchor="start" x="85" y="-18.5" font-family="Helvetica,sans-Serif" font-size="10.00">kernel/MomentumOpenAdvDiff</text>
<text text-anchor="middle" x="160.5" y="-7.5" font-family="Helvetica,sans-Serif" font-size="10.00">ElemKernel.h</text>
</a>
</g>
</g>
<!-- Node1&#45;&gt;Node3 -->
<g id="edge2" class="edge">
<title>Node1&#45;&gt;Node3</title>
<path fill="none" stroke="midnightblue" d="M845.41,-72.38C712.49,-66.92 470.27,-54.73 254.14,-31.12"/>
<polygon fill="midnightblue" stroke="midnightblue" points="254.52,-27.64 244.19,-30.02 253.75,-34.6 254.52,-27.64"/>
</g>
<!-- Node4 -->
<g id="node4" class="node">
<title>Node4</title>
<g id="a_node4"><a xlink:title=" ">
<polygon fill="white" stroke="#bfbfbf" points="262,-6 262,-25 367,-25 367,-6 262,-6"/>
<text text-anchor="middle" x="314.5" y="-13" font-family="Helvetica,sans-Serif" font-size="10.00">EquationSystem.h</text>
</a>
</g>
</g>
<!-- Node1&#45;&gt;Node4 -->
<g id="edge3" class="edge">
<title>Node1&#45;&gt;Node4</title>
<path fill="none" stroke="midnightblue" d="M845.33,-72.78C731.06,-68.02 538.89,-56.71 375.5,-31 369.22,-30.01 362.63,-28.72 356.2,-27.31"/>
<polygon fill="midnightblue" stroke="midnightblue" points="356.82,-23.87 346.29,-25.04 355.25,-30.69 356.82,-23.87"/>
</g>
<!-- Node5 -->
<g id="node5" class="node">
<title>Node5</title>
<g id="a_node5"><a xlink:title=" ">
<polygon fill="white" stroke="#bfbfbf" points="385,-6 385,-25 568,-25 568,-6 385,-6"/>
<text text-anchor="middle" x="476.5" y="-13" font-family="Helvetica,sans-Serif" font-size="10.00">master_element/MasterElement.h</text>
</a>
</g>
</g>
<!-- Node1&#45;&gt;Node5 -->
<g id="edge4" class="edge">
<title>Node1&#45;&gt;Node5</title>
<path fill="none" stroke="midnightblue" d="M872.13,-67.49C797.81,-58.75 679.59,-44.57 577.5,-31 566.81,-29.58 555.5,-28.01 544.46,-26.45"/>
<polygon fill="midnightblue" stroke="midnightblue" points="544.81,-22.97 534.42,-25.03 543.83,-29.9 544.81,-22.97"/>
</g>
<!-- Node6 -->
<g id="node6" class="node">
<title>Node6</title>
<g id="a_node6"><a xlink:title=" ">
<polygon fill="white" stroke="#bfbfbf" points="586.5,-0.5 586.5,-30.5 760.5,-30.5 760.5,-0.5 586.5,-0.5"/>
<text text-anchor="start" x="594.5" y="-18.5" font-family="Helvetica,sans-Serif" font-size="10.00">master_element/MasterElement</text>
<text text-anchor="middle" x="673.5" y="-7.5" font-family="Helvetica,sans-Serif" font-size="10.00">Repo.h</text>
</a>
</g>
</g>
<!-- Node1&#45;&gt;Node6 -->
<g id="edge5" class="edge">
<title>Node1&#45;&gt;Node6</title>
<path fill="none" stroke="midnightblue" d="M906.53,-67.48C865.21,-58.44 798.97,-43.95 747.66,-32.72"/>
<polygon fill="midnightblue" stroke="midnightblue" points="748.12,-29.24 737.61,-30.52 746.63,-36.08 748.12,-29.24"/>
</g>
<!-- Node7 -->
<g id="node7" class="node">
<title>Node7</title>
<g id="a_node7"><a xlink:title=" ">
<polygon fill="white" stroke="#bfbfbf" points="779,-6 779,-25 876,-25 876,-6 779,-6"/>
<text text-anchor="middle" x="827.5" y="-13" font-family="Helvetica,sans-Serif" font-size="10.00">PecletFunction.h</text>
</a>
</g>
</g>
<!-- Node1&#45;&gt;Node7 -->
<g id="edge6" class="edge">
<title>Node1&#45;&gt;Node7</title>
<path fill="none" stroke="midnightblue" d="M928.59,-67.48C908.97,-57.58 876.37,-41.14 853.51,-29.62"/>
<polygon fill="midnightblue" stroke="midnightblue" points="854.88,-26.39 844.38,-25.01 851.73,-32.64 854.88,-26.39"/>
</g>
<!-- Node8 -->
<g id="node8" class="node">
<title>Node8</title>
<g id="a_node8"><a xlink:title=" ">
<polygon fill="white" stroke="#bfbfbf" points="894,-6 894,-25 997,-25 997,-6 894,-6"/>
<text text-anchor="middle" x="945.5" y="-13" font-family="Helvetica,sans-Serif" font-size="10.00">SolutionOptions.h</text>
</a>
</g>
</g>
<!-- Node1&#45;&gt;Node8 -->
<g id="edge7" class="edge">
<title>Node1&#45;&gt;Node8</title>
<path fill="none" stroke="midnightblue" d="M945.5,-67.48C945.5,-59.08 945.5,-45.98 945.5,-35.16"/>
<polygon fill="midnightblue" stroke="midnightblue" points="949,-35.01 945.5,-25.01 942,-35.01 949,-35.01"/>
</g>
<!-- Node9 -->
<g id="node9" class="node">
<title>Node9</title>
<g id="a_node9"><a xlink:title=" ">
<polygon fill="white" stroke="#bfbfbf" points="1015,-6 1015,-25 1116,-25 1116,-6 1015,-6"/>
<text text-anchor="middle" x="1065.5" y="-13" font-family="Helvetica,sans-Serif" font-size="10.00">BuildTemplates.h</text>
</a>
</g>
</g>
<!-- Node1&#45;&gt;Node9 -->
<g id="edge8" class="edge">
<title>Node1&#45;&gt;Node9</title>
<path fill="none" stroke="midnightblue" d="M962.69,-67.48C982.74,-57.53 1016.1,-40.99 1039.36,-29.46"/>
<polygon fill="midnightblue" stroke="midnightblue" points="1040.93,-32.59 1048.34,-25.01 1037.82,-26.32 1040.93,-32.59"/>
</g>
<!-- Node10 -->
<g id="node10" class="node">
<title>Node10</title>
<g id="a_node10"><a xlink:title=" ">
<polygon fill="white" stroke="#bfbfbf" points="1134,-6 1134,-25 1225,-25 1225,-6 1134,-6"/>
<text text-anchor="middle" x="1179.5" y="-13" font-family="Helvetica,sans-Serif" font-size="10.00">ScratchViews.h</text>
</a>
</g>
</g>
<!-- Node1&#45;&gt;Node10 -->
<g id="edge9" class="edge">
<title>Node1&#45;&gt;Node10</title>
<path fill="none" stroke="midnightblue" d="M980.39,-67.47C1016.69,-58.55 1075.14,-44.05 1125.5,-31 1129.62,-29.93 1133.92,-28.8 1138.21,-27.67"/>
<polygon fill="midnightblue" stroke="midnightblue" points="1139.35,-30.98 1148.11,-25.03 1137.55,-24.22 1139.35,-30.98"/>
</g>
<!-- Node11 -->
<g id="node11" class="node">
<title>Node11</title>
<g id="a_node11"><a xlink:title=" ">
<polygon fill="white" stroke="#bfbfbf" points="1243,-6 1243,-25 1346,-25 1346,-6 1243,-6"/>
<text text-anchor="middle" x="1294.5" y="-13" font-family="Helvetica,sans-Serif" font-size="10.00">utils/StkHelpers.h</text>
</a>
</g>
</g>
<!-- Node1&#45;&gt;Node11 -->
<g id="edge10" class="edge">
<title>Node1&#45;&gt;Node11</title>
<path fill="none" stroke="midnightblue" d="M1010.33,-67.47C1069.08,-59.36 1157.92,-46.19 1234.5,-31 1239.95,-29.92 1245.66,-28.68 1251.29,-27.39"/>
<polygon fill="midnightblue" stroke="midnightblue" points="1252.35,-30.74 1261.28,-25.04 1250.75,-23.92 1252.35,-30.74"/>
</g>
<!-- Node12 -->
<g id="node12" class="node">
<title>Node12</title>
<g id="a_node12"><a xlink:title=" ">
<polygon fill="white" stroke="#bfbfbf" points="1364,-6 1364,-25 1505,-25 1505,-6 1364,-6"/>
<text text-anchor="middle" x="1434.5" y="-13" font-family="Helvetica,sans-Serif" font-size="10.00">stk_mesh/base/Entity.hpp</text>
</a>
</g>
</g>
<!-- Node1&#45;&gt;Node12 -->
<g id="edge11" class="edge">
<title>Node1&#45;&gt;Node12</title>
<path fill="none" stroke="midnightblue" d="M1041.02,-67.49C1124.27,-59.59 1248.16,-46.72 1355.5,-31 1363.83,-29.78 1372.63,-28.33 1381.2,-26.82"/>
<polygon fill="midnightblue" stroke="midnightblue" points="1381.91,-30.25 1391.13,-25.04 1380.67,-23.36 1381.91,-30.25"/>
</g>
<!-- Node13 -->
<g id="node13" class="node">
<title>Node13</title>
<g id="a_node13"><a xlink:title=" ">
<polygon fill="white" stroke="#bfbfbf" points="1523.5,-6 1523.5,-25 1685.5,-25 1685.5,-6 1523.5,-6"/>
<text text-anchor="middle" x="1604.5" y="-13" font-family="Helvetica,sans-Serif" font-size="10.00">stk_mesh/base/MetaData.hpp</text>
</a>
</g>
</g>
<!-- Node1&#45;&gt;Node13 -->
<g id="edge12" class="edge">
<title>Node1&#45;&gt;Node13</title>
<path fill="none" stroke="midnightblue" d="M1045.7,-70.53C1159.55,-63.75 1350.81,-50.63 1514.5,-31 1524.74,-29.77 1535.6,-28.23 1546.1,-26.61"/>
<polygon fill="midnightblue" stroke="midnightblue" points="1546.69,-30.06 1556.02,-25.05 1545.6,-23.15 1546.69,-30.06"/>
</g>
<!-- Node14 -->
<g id="node14" class="node">
<title>Node14</title>
<g id="a_node14"><a xlink:title=" ">
<polygon fill="white" stroke="#bfbfbf" points="1704,-6 1704,-25 1841,-25 1841,-6 1704,-6"/>
<text text-anchor="middle" x="1772.5" y="-13" font-family="Helvetica,sans-Serif" font-size="10.00">stk_mesh/base/Field.hpp</text>
</a>
</g>
</g>
<!-- Node1&#45;&gt;Node14 -->
<g id="edge13" class="edge">
<title>Node1&#45;&gt;Node14</title>
<path fill="none" stroke="midnightblue" d="M1045.51,-73.92C1189.46,-70.04 1463.21,-59.34 1694.5,-31 1703.34,-29.92 1712.69,-28.46 1721.73,-26.88"/>
<polygon fill="midnightblue" stroke="midnightblue" points="1722.55,-30.29 1731.76,-25.06 1721.3,-23.4 1722.55,-30.29"/>
</g>
</g>
</svg>
