<?xml version="1.0" encoding="UTF-8" standalone="no"?>
<!DOCTYPE svg PUBLIC "-//W3C//DTD SVG 1.1//EN"
 "http://www.w3.org/Graphics/SVG/1.1/DTD/svg11.dtd">
<!-- Generated by graphviz version 2.43.0 (0)
 -->
<!-- Title: MotionTranslationKernel.C Pages: 1 -->
<svg width="347pt" height="95pt"
 viewBox="0.00 0.00 347.00 95.00" xmlns="http://www.w3.org/2000/svg" xmlns:xlink="http://www.w3.org/1999/xlink">
<g id="graph0" class="graph" transform="scale(1 1) rotate(0) translate(4 91)">
<title>MotionTranslationKernel.C</title>
<polygon fill="white" stroke="transparent" points="-4,4 -4,-91 343,-91 343,4 -4,4"/>
<!-- Node1 -->
<g id="node1" class="node">
<title>Node1</title>
<g id="a_node1"><a xlink:title=" ">
<polygon fill="#bfbfbf" stroke="black" points="160.5,-67.5 160.5,-86.5 304.5,-86.5 304.5,-67.5 160.5,-67.5"/>
<text text-anchor="middle" x="232.5" y="-74.5" font-family="Helvetica,sans-Serif" font-size="10.00">MotionTranslationKernel.C</text>
</a>
</g>
</g>
<!-- Node2 -->
<g id="node2" class="node">
<title>Node2</title>
<g id="a_node2"><a xlink:title=" ">
<polygon fill="white" stroke="#bfbfbf" points="0,-0.5 0,-30.5 173,-30.5 173,-0.5 0,-0.5"/>
<text text-anchor="start" x="8" y="-18.5" font-family="Helvetica,sans-Serif" font-size="10.00">mesh_motion/MotionTranslation</text>
<text text-anchor="middle" x="86.5" y="-7.5" font-family="Helvetica,sans-Serif" font-size="10.00">Kernel.h</text>
</a>
</g>
</g>
<!-- Node1&#45;&gt;Node2 -->
<g id="edge1" class="edge">
<title>Node1&#45;&gt;Node2</title>
<path fill="none" stroke="midnightblue" d="M211.58,-67.48C190.51,-58.89 157.37,-45.38 130.49,-34.43"/>
<polygon fill="midnightblue" stroke="midnightblue" points="131.49,-31.06 120.91,-30.52 128.85,-37.54 131.49,-31.06"/>
</g>
<!-- Node3 -->
<g id="node3" class="node">
<title>Node3</title>
<g id="a_node3"><a xlink:title=" ">
<polygon fill="white" stroke="#bfbfbf" points="191,-6 191,-25 274,-25 274,-6 191,-6"/>
<text text-anchor="middle" x="232.5" y="-13" font-family="Helvetica,sans-Serif" font-size="10.00">NaluParsing.h</text>
</a>
</g>
</g>
<!-- Node1&#45;&gt;Node3 -->
<g id="edge2" class="edge">
<title>Node1&#45;&gt;Node3</title>
<path fill="none" stroke="midnightblue" d="M232.5,-67.48C232.5,-59.08 232.5,-45.98 232.5,-35.16"/>
<polygon fill="midnightblue" stroke="midnightblue" points="236,-35.01 232.5,-25.01 229,-35.01 236,-35.01"/>
</g>
<!-- Node4 -->
<g id="node4" class="node">
<title>Node4</title>
<g id="a_node4"><a xlink:title=" ">
<polygon fill="white" stroke="#bfbfbf" points="292,-6 292,-25 339,-25 339,-6 292,-6"/>
<text text-anchor="middle" x="315.5" y="-13" font-family="Helvetica,sans-Serif" font-size="10.00">cmath</text>
</a>
</g>
</g>
<!-- Node1&#45;&gt;Node4 -->
<g id="edge3" class="edge">
<title>Node1&#45;&gt;Node4</title>
<path fill="none" stroke="midnightblue" d="M244.39,-67.48C257.7,-57.93 279.5,-42.31 295.46,-30.87"/>
<polygon fill="midnightblue" stroke="midnightblue" points="297.54,-33.68 303.63,-25.01 293.46,-27.99 297.54,-33.68"/>
</g>
</g>
</svg>
