<?xml version="1.0" encoding="UTF-8" standalone="no"?>
<!DOCTYPE svg PUBLIC "-//W3C//DTD SVG 1.1//EN"
 "http://www.w3.org/Graphics/SVG/1.1/DTD/svg11.dtd">
<!-- Generated by graphviz version 2.43.0 (0)
 -->
<!-- Title: MotionDeformingInteriorKernel.C Pages: 1 -->
<svg width="727pt" height="95pt"
 viewBox="0.00 0.00 726.50 95.00" xmlns="http://www.w3.org/2000/svg" xmlns:xlink="http://www.w3.org/1999/xlink">
<g id="graph0" class="graph" transform="scale(1 1) rotate(0) translate(4 91)">
<title>MotionDeformingInteriorKernel.C</title>
<polygon fill="white" stroke="transparent" points="-4,4 -4,-91 722.5,-91 722.5,4 -4,4"/>
<!-- Node1 -->
<g id="node1" class="node">
<title>Node1</title>
<g id="a_node1"><a xlink:title=" ">
<polygon fill="#bfbfbf" stroke="black" points="293,-67.5 293,-86.5 471,-86.5 471,-67.5 293,-67.5"/>
<text text-anchor="middle" x="382" y="-74.5" font-family="Helvetica,sans-Serif" font-size="10.00">MotionDeformingInteriorKernel.C</text>
</a>
</g>
</g>
<!-- Node2 -->
<g id="node2" class="node">
<title>Node2</title>
<g id="a_node2"><a xlink:title=" ">
<polygon fill="white" stroke="#bfbfbf" points="0,-0.5 0,-30.5 172,-30.5 172,-0.5 0,-0.5"/>
<text text-anchor="start" x="8" y="-18.5" font-family="Helvetica,sans-Serif" font-size="10.00">mesh_motion/MotionDeforming</text>
<text text-anchor="middle" x="86" y="-7.5" font-family="Helvetica,sans-Serif" font-size="10.00">InteriorKernel.h</text>
</a>
</g>
</g>
<!-- Node1&#45;&gt;Node2 -->
<g id="edge1" class="edge">
<title>Node1&#45;&gt;Node2</title>
<path fill="none" stroke="midnightblue" d="M339.59,-67.48C294.35,-58.38 221.64,-43.77 165.66,-32.51"/>
<polygon fill="midnightblue" stroke="midnightblue" points="166.26,-29.06 155.76,-30.52 164.88,-35.93 166.26,-29.06"/>
</g>
<!-- Node3 -->
<g id="node3" class="node">
<title>Node3</title>
<g id="a_node3"><a xlink:title=" ">
<polygon fill="white" stroke="#bfbfbf" points="190.5,-6 190.5,-25 273.5,-25 273.5,-6 190.5,-6"/>
<text text-anchor="middle" x="232" y="-13" font-family="Helvetica,sans-Serif" font-size="10.00">NaluParsing.h</text>
</a>
</g>
</g>
<!-- Node1&#45;&gt;Node3 -->
<g id="edge2" class="edge">
<title>Node1&#45;&gt;Node3</title>
<path fill="none" stroke="midnightblue" d="M360.51,-67.48C334.89,-57.31 291.89,-40.26 262.76,-28.7"/>
<polygon fill="midnightblue" stroke="midnightblue" points="264.04,-25.44 253.45,-25.01 261.46,-31.95 264.04,-25.44"/>
</g>
<!-- Node4 -->
<g id="node4" class="node">
<title>Node4</title>
<g id="a_node4"><a xlink:title=" ">
<polygon fill="white" stroke="#bfbfbf" points="292,-6 292,-25 472,-25 472,-6 292,-6"/>
<text text-anchor="middle" x="382" y="-13" font-family="Helvetica,sans-Serif" font-size="10.00">utils/ComputeVectorDivergence.h</text>
</a>
</g>
</g>
<!-- Node1&#45;&gt;Node4 -->
<g id="edge3" class="edge">
<title>Node1&#45;&gt;Node4</title>
<path fill="none" stroke="midnightblue" d="M382,-67.48C382,-59.08 382,-45.98 382,-35.16"/>
<polygon fill="midnightblue" stroke="midnightblue" points="385.5,-35.01 382,-25.01 378.5,-35.01 385.5,-35.01"/>
</g>
<!-- Node5 -->
<g id="node5" class="node">
<title>Node5</title>
<g id="a_node5"><a xlink:title=" ">
<polygon fill="white" stroke="#bfbfbf" points="490.5,-6 490.5,-25 653.5,-25 653.5,-6 490.5,-6"/>
<text text-anchor="middle" x="572" y="-13" font-family="Helvetica,sans-Serif" font-size="10.00">stk_mesh/base/FieldBLAS.hpp</text>
</a>
</g>
</g>
<!-- Node1&#45;&gt;Node5 -->
<g id="edge4" class="edge">
<title>Node1&#45;&gt;Node5</title>
<path fill="none" stroke="midnightblue" d="M409.22,-67.48C442.24,-57.14 498.04,-39.66 534.95,-28.1"/>
<polygon fill="midnightblue" stroke="midnightblue" points="536.33,-31.34 544.83,-25.01 534.24,-24.66 536.33,-31.34"/>
</g>
<!-- Node6 -->
<g id="node6" class="node">
<title>Node6</title>
<g id="a_node6"><a xlink:title=" ">
<polygon fill="white" stroke="#bfbfbf" points="671.5,-6 671.5,-25 718.5,-25 718.5,-6 671.5,-6"/>
<text text-anchor="middle" x="695" y="-13" font-family="Helvetica,sans-Serif" font-size="10.00">cmath</text>
</a>
</g>
</g>
<!-- Node1&#45;&gt;Node6 -->
<g id="edge5" class="edge">
<title>Node1&#45;&gt;Node6</title>
<path fill="none" stroke="midnightblue" d="M471.01,-67.89C526.96,-61.29 600.19,-49.89 663,-31 664.93,-30.42 666.89,-29.75 668.85,-29.02"/>
<polygon fill="midnightblue" stroke="midnightblue" points="670.5,-32.12 678.38,-25.04 667.81,-25.66 670.5,-32.12"/>
</g>
</g>
</svg>
