<?xml version="1.0" encoding="UTF-8" standalone="no"?>
<!DOCTYPE svg PUBLIC "-//W3C//DTD SVG 1.1//EN"
 "http://www.w3.org/Graphics/SVG/1.1/DTD/svg11.dtd">
<!-- Generated by graphviz version 2.43.0 (0)
 -->
<!-- Title: MovingAveragePostProcessor.C Pages: 1 -->
<svg width="2024pt" height="95pt"
 viewBox="0.00 0.00 2023.50 95.00" xmlns="http://www.w3.org/2000/svg" xmlns:xlink="http://www.w3.org/1999/xlink">
<g id="graph0" class="graph" transform="scale(1 1) rotate(0) translate(4 91)">
<title>MovingAveragePostProcessor.C</title>
<polygon fill="white" stroke="transparent" points="-4,4 -4,-91 2019.5,-91 2019.5,4 -4,4"/>
<!-- Node1 -->
<g id="node1" class="node">
<title>Node1</title>
<g id="a_node1"><a xlink:title=" ">
<polygon fill="#bfbfbf" stroke="black" points="856.5,-67.5 856.5,-86.5 1026.5,-86.5 1026.5,-67.5 856.5,-67.5"/>
<text text-anchor="middle" x="941.5" y="-74.5" font-family="Helvetica,sans-Serif" font-size="10.00">MovingAveragePostProcessor.C</text>
</a>
</g>
</g>
<!-- Node2 -->
<g id="node2" class="node">
<title>Node2</title>
<g id="a_node2"><a xlink:title=" ">
<polygon fill="white" stroke="#bfbfbf" points="0,-6 0,-25 169,-25 169,-6 0,-6"/>
<text text-anchor="middle" x="84.5" y="-13" font-family="Helvetica,sans-Serif" font-size="10.00">MovingAveragePostProcessor.h</text>
</a>
</g>
</g>
<!-- Node1&#45;&gt;Node2 -->
<g id="edge1" class="edge">
<title>Node1&#45;&gt;Node2</title>
<path fill="none" stroke="midnightblue" d="M856.32,-73.59C715.11,-69.02 423.76,-57.09 178.5,-31 167.44,-29.82 155.69,-28.26 144.38,-26.6"/>
<polygon fill="midnightblue" stroke="midnightblue" points="144.56,-23.09 134.15,-25.05 143.51,-30.01 144.56,-23.09"/>
</g>
<!-- Node3 -->
<g id="node3" class="node">
<title>Node3</title>
<g id="a_node3"><a xlink:title=" ">
<polygon fill="white" stroke="#bfbfbf" points="187.5,-6 187.5,-25 261.5,-25 261.5,-6 187.5,-6"/>
<text text-anchor="middle" x="224.5" y="-13" font-family="Helvetica,sans-Serif" font-size="10.00">Algorithm.h</text>
</a>
</g>
</g>
<!-- Node1&#45;&gt;Node3 -->
<g id="edge2" class="edge">
<title>Node1&#45;&gt;Node3</title>
<path fill="none" stroke="midnightblue" d="M856.47,-76.75C728.3,-76.43 478.46,-70.17 270.5,-31 266.33,-30.22 262.02,-29.17 257.77,-28.01"/>
<polygon fill="midnightblue" stroke="midnightblue" points="258.68,-24.63 248.1,-25.12 256.68,-31.34 258.68,-24.63"/>
</g>
<!-- Node4 -->
<g id="node4" class="node">
<title>Node4</title>
<g id="a_node4"><a xlink:title=" ">
<polygon fill="white" stroke="#bfbfbf" points="279.5,-6 279.5,-25 367.5,-25 367.5,-6 279.5,-6"/>
<text text-anchor="middle" x="323.5" y="-13" font-family="Helvetica,sans-Serif" font-size="10.00">FieldTypeDef.h</text>
</a>
</g>
</g>
<!-- Node1&#45;&gt;Node4 -->
<g id="edge3" class="edge">
<title>Node1&#45;&gt;Node4</title>
<path fill="none" stroke="midnightblue" d="M856.16,-74.18C744.98,-70.67 544.91,-60.48 376.5,-31 371.35,-30.1 365.97,-28.92 360.7,-27.62"/>
<polygon fill="midnightblue" stroke="midnightblue" points="361.35,-24.17 350.79,-25.02 359.57,-30.94 361.35,-24.17"/>
</g>
<!-- Node5 -->
<g id="node5" class="node">
<title>Node5</title>
<g id="a_node5"><a xlink:title=" ">
<polygon fill="white" stroke="#bfbfbf" points="386,-6 386,-25 443,-25 443,-6 386,-6"/>
<text text-anchor="middle" x="414.5" y="-13" font-family="Helvetica,sans-Serif" font-size="10.00">Realm.h</text>
</a>
</g>
</g>
<!-- Node1&#45;&gt;Node5 -->
<g id="edge4" class="edge">
<title>Node1&#45;&gt;Node5</title>
<path fill="none" stroke="midnightblue" d="M856.46,-75.16C758.02,-72.6 591.6,-63.3 452.5,-31 449.5,-30.3 446.42,-29.42 443.38,-28.44"/>
<polygon fill="midnightblue" stroke="midnightblue" points="444.5,-25.13 433.9,-25.07 442.15,-31.72 444.5,-25.13"/>
</g>
<!-- Node6 -->
<g id="node6" class="node">
<title>Node6</title>
<g id="a_node6"><a xlink:title=" ">
<polygon fill="white" stroke="#bfbfbf" points="461.5,-6 461.5,-25 559.5,-25 559.5,-6 461.5,-6"/>
<text text-anchor="middle" x="510.5" y="-13" font-family="Helvetica,sans-Serif" font-size="10.00">TimeIntegrator.h</text>
</a>
</g>
</g>
<!-- Node1&#45;&gt;Node6 -->
<g id="edge5" class="edge">
<title>Node1&#45;&gt;Node6</title>
<path fill="none" stroke="midnightblue" d="M856.23,-68.77C780.33,-61.61 666.48,-49.08 568.5,-31 563.01,-29.99 557.27,-28.76 551.63,-27.45"/>
<polygon fill="midnightblue" stroke="midnightblue" points="552.19,-23.99 541.65,-25.05 550.55,-30.79 552.19,-23.99"/>
</g>
<!-- Node7 -->
<g id="node7" class="node">
<title>Node7</title>
<g id="a_node7"><a xlink:title=" ">
<polygon fill="white" stroke="#bfbfbf" points="578,-6 578,-25 761,-25 761,-6 578,-6"/>
<text text-anchor="middle" x="669.5" y="-13" font-family="Helvetica,sans-Serif" font-size="10.00">master_element/MasterElement.h</text>
</a>
</g>
</g>
<!-- Node1&#45;&gt;Node7 -->
<g id="edge6" class="edge">
<title>Node1&#45;&gt;Node7</title>
<path fill="none" stroke="midnightblue" d="M902.53,-67.48C853.95,-56.85 770.92,-38.68 718.2,-27.15"/>
<polygon fill="midnightblue" stroke="midnightblue" points="718.92,-23.73 708.4,-25.01 717.42,-30.57 718.92,-23.73"/>
</g>
<!-- Node8 -->
<g id="node8" class="node">
<title>Node8</title>
<g id="a_node8"><a xlink:title=" ">
<polygon fill="white" stroke="#bfbfbf" points="779,-6 779,-25 938,-25 938,-6 779,-6"/>
<text text-anchor="middle" x="858.5" y="-13" font-family="Helvetica,sans-Serif" font-size="10.00">stk_mesh/base/BulkData.hpp</text>
</a>
</g>
</g>
<!-- Node1&#45;&gt;Node8 -->
<g id="edge7" class="edge">
<title>Node1&#45;&gt;Node8</title>
<path fill="none" stroke="midnightblue" d="M929.61,-67.48C916.3,-57.93 894.5,-42.31 878.54,-30.87"/>
<polygon fill="midnightblue" stroke="midnightblue" points="880.54,-27.99 870.37,-25.01 876.46,-33.68 880.54,-27.99"/>
</g>
<!-- Node9 -->
<g id="node9" class="node">
<title>Node9</title>
<g id="a_node9"><a xlink:title=" ">
<polygon fill="white" stroke="#bfbfbf" points="956,-6 956,-25 1093,-25 1093,-6 956,-6"/>
<text text-anchor="middle" x="1024.5" y="-13" font-family="Helvetica,sans-Serif" font-size="10.00">stk_mesh/base/Field.hpp</text>
</a>
</g>
</g>
<!-- Node1&#45;&gt;Node9 -->
<g id="edge8" class="edge">
<title>Node1&#45;&gt;Node9</title>
<path fill="none" stroke="midnightblue" d="M953.39,-67.48C966.7,-57.93 988.5,-42.31 1004.46,-30.87"/>
<polygon fill="midnightblue" stroke="midnightblue" points="1006.54,-33.68 1012.63,-25.01 1002.46,-27.99 1006.54,-33.68"/>
</g>
<!-- Node10 -->
<g id="node10" class="node">
<title>Node10</title>
<g id="a_node10"><a xlink:title=" ">
<polygon fill="white" stroke="#bfbfbf" points="1111,-6 1111,-25 1284,-25 1284,-6 1111,-6"/>
<text text-anchor="middle" x="1197.5" y="-13" font-family="Helvetica,sans-Serif" font-size="10.00">stk_mesh/base/FieldParallel.hpp</text>
</a>
</g>
</g>
<!-- Node1&#45;&gt;Node10 -->
<g id="edge9" class="edge">
<title>Node1&#45;&gt;Node10</title>
<path fill="none" stroke="midnightblue" d="M978.18,-67.48C1023.71,-56.89 1101.4,-38.84 1151.05,-27.3"/>
<polygon fill="midnightblue" stroke="midnightblue" points="1151.94,-30.68 1160.89,-25.01 1150.36,-23.86 1151.94,-30.68"/>
</g>
<!-- Node11 -->
<g id="node11" class="node">
<title>Node11</title>
<g id="a_node11"><a xlink:title=" ">
<polygon fill="white" stroke="#bfbfbf" points="1302.5,-6 1302.5,-25 1472.5,-25 1472.5,-6 1302.5,-6"/>
<text text-anchor="middle" x="1387.5" y="-13" font-family="Helvetica,sans-Serif" font-size="10.00">stk_mesh/base/GetBuckets.hpp</text>
</a>
</g>
</g>
<!-- Node1&#45;&gt;Node11 -->
<g id="edge10" class="edge">
<title>Node1&#45;&gt;Node11</title>
<path fill="none" stroke="midnightblue" d="M1012.36,-67.49C1083.5,-58.81 1196.2,-44.72 1293.5,-31 1303.31,-29.62 1313.69,-28.09 1323.82,-26.55"/>
<polygon fill="midnightblue" stroke="midnightblue" points="1324.49,-29.99 1333.85,-25.02 1323.44,-23.07 1324.49,-29.99"/>
</g>
<!-- Node12 -->
<g id="node12" class="node">
<title>Node12</title>
<g id="a_node12"><a xlink:title=" ">
<polygon fill="white" stroke="#bfbfbf" points="1490.5,-6 1490.5,-25 1652.5,-25 1652.5,-6 1490.5,-6"/>
<text text-anchor="middle" x="1571.5" y="-13" font-family="Helvetica,sans-Serif" font-size="10.00">stk_mesh/base/MetaData.hpp</text>
</a>
</g>
</g>
<!-- Node1&#45;&gt;Node12 -->
<g id="edge11" class="edge">
<title>Node1&#45;&gt;Node12</title>
<path fill="none" stroke="midnightblue" d="M1026.82,-70.92C1133.43,-64.1 1321.35,-50.54 1481.5,-31 1491.74,-29.75 1502.6,-28.2 1513.1,-26.58"/>
<polygon fill="midnightblue" stroke="midnightblue" points="1513.69,-30.03 1523.02,-25.01 1512.6,-23.11 1513.69,-30.03"/>
</g>
<!-- Node13 -->
<g id="node13" class="node">
<title>Node13</title>
<g id="a_node13"><a xlink:title=" ">
<polygon fill="white" stroke="#bfbfbf" points="1671,-6 1671,-25 1804,-25 1804,-6 1671,-6"/>
<text text-anchor="middle" x="1737.5" y="-13" font-family="Helvetica,sans-Serif" font-size="10.00">stk_mesh/base/Part.hpp</text>
</a>
</g>
</g>
<!-- Node1&#45;&gt;Node13 -->
<g id="edge12" class="edge">
<title>Node1&#45;&gt;Node13</title>
<path fill="none" stroke="midnightblue" d="M1026.62,-74.15C1161.68,-70.44 1433.17,-59.8 1661.5,-31 1670.03,-29.92 1679.03,-28.48 1687.76,-26.92"/>
<polygon fill="midnightblue" stroke="midnightblue" points="1688.62,-30.32 1697.81,-25.05 1687.34,-23.44 1688.62,-30.32"/>
</g>
<!-- Node14 -->
<g id="node14" class="node">
<title>Node14</title>
<g id="a_node14"><a xlink:title=" ">
<polygon fill="white" stroke="#bfbfbf" points="1822,-0.5 1822,-30.5 1953,-30.5 1953,-0.5 1822,-0.5"/>
<text text-anchor="start" x="1830" y="-18.5" font-family="Helvetica,sans-Serif" font-size="10.00">stk_util/parallel/Parallel</text>
<text text-anchor="middle" x="1887.5" y="-7.5" font-family="Helvetica,sans-Serif" font-size="10.00">Reduce.hpp</text>
</a>
</g>
</g>
<!-- Node1&#45;&gt;Node14 -->
<g id="edge13" class="edge">
<title>Node1&#45;&gt;Node14</title>
<path fill="none" stroke="midnightblue" d="M1026.64,-75.61C1181.31,-74.02 1518.82,-66.51 1811.84,-31.09"/>
<polygon fill="midnightblue" stroke="midnightblue" points="1812.31,-34.56 1821.81,-29.87 1811.46,-27.61 1812.31,-34.56"/>
</g>
<!-- Node15 -->
<g id="node15" class="node">
<title>Node15</title>
<g id="a_node15"><a xlink:title=" ">
<polygon fill="white" stroke="#bfbfbf" points="1971.5,-6 1971.5,-25 2015.5,-25 2015.5,-6 1971.5,-6"/>
<text text-anchor="middle" x="1993.5" y="-13" font-family="Helvetica,sans-Serif" font-size="10.00">limits</text>
</a>
</g>
</g>
<!-- Node1&#45;&gt;Node15 -->
<g id="edge14" class="edge">
<title>Node1&#45;&gt;Node15</title>
<path fill="none" stroke="midnightblue" d="M1026.67,-76.52C1238.75,-77.13 1786.1,-74.31 1962.5,-31 1964.49,-30.51 1966.51,-29.89 1968.51,-29.18"/>
<polygon fill="midnightblue" stroke="midnightblue" points="1970.31,-32.22 1978.17,-25.12 1967.59,-25.77 1970.31,-32.22"/>
</g>
</g>
</svg>
