<?xml version="1.0" encoding="UTF-8" standalone="no"?>
<!DOCTYPE svg PUBLIC "-//W3C//DTD SVG 1.1//EN"
 "http://www.w3.org/Graphics/SVG/1.1/DTD/svg11.dtd">
<!-- Generated by graphviz version 2.43.0 (0)
 -->
<!-- Title: NaluParsing.C Pages: 1 -->
<svg width="1128pt" height="95pt"
 viewBox="0.00 0.00 1128.00 95.00" xmlns="http://www.w3.org/2000/svg" xmlns:xlink="http://www.w3.org/1999/xlink">
<g id="graph0" class="graph" transform="scale(1 1) rotate(0) translate(4 91)">
<title>NaluParsing.C</title>
<polygon fill="white" stroke="transparent" points="-4,4 -4,-91 1124,-91 1124,4 -4,4"/>
<!-- Node1 -->
<g id="node1" class="node">
<title>Node1</title>
<g id="a_node1"><a xlink:title=" ">
<polygon fill="#bfbfbf" stroke="black" points="533,-67.5 533,-86.5 617,-86.5 617,-67.5 533,-67.5"/>
<text text-anchor="middle" x="575" y="-74.5" font-family="Helvetica,sans-Serif" font-size="10.00">NaluParsing.C</text>
</a>
</g>
</g>
<!-- Node2 -->
<g id="node2" class="node">
<title>Node2</title>
<g id="a_node2"><a xlink:title=" ">
<polygon fill="white" stroke="#bfbfbf" points="0,-0.5 0,-30.5 166,-30.5 166,-0.5 0,-0.5"/>
<text text-anchor="start" x="8" y="-18.5" font-family="Helvetica,sans-Serif" font-size="10.00">edge_kernels/MomentumOpen</text>
<text text-anchor="middle" x="83" y="-7.5" font-family="Helvetica,sans-Serif" font-size="10.00">EdgeKernel.h</text>
</a>
</g>
</g>
<!-- Node1&#45;&gt;Node2 -->
<g id="edge1" class="edge">
<title>Node1&#45;&gt;Node2</title>
<path fill="none" stroke="midnightblue" d="M532.88,-71.88C461.67,-64.78 312.7,-49.35 176.43,-31.16"/>
<polygon fill="midnightblue" stroke="midnightblue" points="176.6,-27.65 166.22,-29.79 175.67,-34.59 176.6,-27.65"/>
</g>
<!-- Node3 -->
<g id="node3" class="node">
<title>Node3</title>
<g id="a_node3"><a xlink:title=" ">
<polygon fill="white" stroke="#bfbfbf" points="184.5,-6 184.5,-25 267.5,-25 267.5,-6 184.5,-6"/>
<text text-anchor="middle" x="226" y="-13" font-family="Helvetica,sans-Serif" font-size="10.00">NaluParsing.h</text>
</a>
</g>
</g>
<!-- Node1&#45;&gt;Node3 -->
<g id="edge2" class="edge">
<title>Node1&#45;&gt;Node3</title>
<path fill="none" stroke="midnightblue" d="M532.59,-71.42C474.34,-64.71 366.5,-50.84 276,-31 271.78,-30.07 267.39,-28.99 263.04,-27.84"/>
<polygon fill="midnightblue" stroke="midnightblue" points="263.65,-24.37 253.08,-25.06 261.78,-31.12 263.65,-24.37"/>
</g>
<!-- Node4 -->
<g id="node4" class="node">
<title>Node4</title>
<g id="a_node4"><a xlink:title=" ">
<polygon fill="white" stroke="#bfbfbf" points="285.5,-6 285.5,-25 350.5,-25 350.5,-6 285.5,-6"/>
<text text-anchor="middle" x="318" y="-13" font-family="Helvetica,sans-Serif" font-size="10.00">NaluEnv.h</text>
</a>
</g>
</g>
<!-- Node1&#45;&gt;Node4 -->
<g id="edge3" class="edge">
<title>Node1&#45;&gt;Node4</title>
<path fill="none" stroke="midnightblue" d="M532.6,-68.76C488.96,-60.93 419.18,-47.34 360,-31 356.97,-30.16 353.85,-29.23 350.73,-28.24"/>
<polygon fill="midnightblue" stroke="midnightblue" points="351.54,-24.82 340.94,-25.01 349.34,-31.47 351.54,-24.82"/>
</g>
<!-- Node5 -->
<g id="node5" class="node">
<title>Node5</title>
<g id="a_node5"><a xlink:title=" ">
<polygon fill="white" stroke="#bfbfbf" points="369,-6 369,-25 447,-25 447,-6 369,-6"/>
<text text-anchor="middle" x="408" y="-13" font-family="Helvetica,sans-Serif" font-size="10.00">Simulation.h</text>
</a>
</g>
</g>
<!-- Node1&#45;&gt;Node5 -->
<g id="edge4" class="edge">
<title>Node1&#45;&gt;Node5</title>
<path fill="none" stroke="midnightblue" d="M551.07,-67.48C522.3,-57.22 473.84,-39.96 441.4,-28.4"/>
<polygon fill="midnightblue" stroke="midnightblue" points="442.48,-25.07 431.88,-25.01 440.13,-31.66 442.48,-25.07"/>
</g>
<!-- Node6 -->
<g id="node6" class="node">
<title>Node6</title>
<g id="a_node6"><a xlink:title=" ">
<polygon fill="white" stroke="#bfbfbf" points="465.5,-6 465.5,-25 524.5,-25 524.5,-6 465.5,-6"/>
<text text-anchor="middle" x="495" y="-13" font-family="Helvetica,sans-Serif" font-size="10.00">Enums.h</text>
</a>
</g>
</g>
<!-- Node1&#45;&gt;Node6 -->
<g id="edge5" class="edge">
<title>Node1&#45;&gt;Node6</title>
<path fill="none" stroke="midnightblue" d="M563.54,-67.48C550.83,-58.02 530.09,-42.6 514.75,-31.19"/>
<polygon fill="midnightblue" stroke="midnightblue" points="516.55,-28.17 506.44,-25.01 512.38,-33.79 516.55,-28.17"/>
</g>
<!-- Node7 -->
<g id="node7" class="node">
<title>Node7</title>
<g id="a_node7"><a xlink:title=" ">
<polygon fill="white" stroke="#bfbfbf" points="542.5,-6 542.5,-25 607.5,-25 607.5,-6 542.5,-6"/>
<text text-anchor="middle" x="575" y="-13" font-family="Helvetica,sans-Serif" font-size="10.00">stdexcept</text>
</a>
</g>
</g>
<!-- Node1&#45;&gt;Node7 -->
<g id="edge6" class="edge">
<title>Node1&#45;&gt;Node7</title>
<path fill="none" stroke="midnightblue" d="M575,-67.48C575,-59.08 575,-45.98 575,-35.16"/>
<polygon fill="midnightblue" stroke="midnightblue" points="578.5,-35.01 575,-25.01 571.5,-35.01 578.5,-35.01"/>
</g>
<!-- Node8 -->
<g id="node8" class="node">
<title>Node8</title>
<g id="a_node8"><a xlink:title=" ">
<polygon fill="white" stroke="#bfbfbf" points="625.5,-6 625.5,-25 790.5,-25 790.5,-6 625.5,-6"/>
<text text-anchor="middle" x="708" y="-13" font-family="Helvetica,sans-Serif" font-size="10.00">stk_util/util/ReportHandler.hpp</text>
</a>
</g>
</g>
<!-- Node1&#45;&gt;Node8 -->
<g id="edge7" class="edge">
<title>Node1&#45;&gt;Node8</title>
<path fill="none" stroke="midnightblue" d="M594.06,-67.48C616.47,-57.45 653.91,-40.7 679.71,-29.15"/>
<polygon fill="midnightblue" stroke="midnightblue" points="681.28,-32.29 688.98,-25.01 678.42,-25.9 681.28,-32.29"/>
</g>
<!-- Node9 -->
<g id="node9" class="node">
<title>Node9</title>
<g id="a_node9"><a xlink:title=" ">
<polygon fill="white" stroke="#bfbfbf" points="808.5,-6 808.5,-25 907.5,-25 907.5,-6 808.5,-6"/>
<text text-anchor="middle" x="858" y="-13" font-family="Helvetica,sans-Serif" font-size="10.00">yaml&#45;cpp/yaml.h</text>
</a>
</g>
</g>
<!-- Node1&#45;&gt;Node9 -->
<g id="edge8" class="edge">
<title>Node1&#45;&gt;Node9</title>
<path fill="none" stroke="midnightblue" d="M617.01,-68.22C662.3,-59.68 736.45,-45.29 800,-31 804.94,-29.89 810.1,-28.68 815.22,-27.44"/>
<polygon fill="midnightblue" stroke="midnightblue" points="816.06,-30.84 824.94,-25.05 814.39,-24.04 816.06,-30.84"/>
</g>
<!-- Node10 -->
<g id="node10" class="node">
<title>Node10</title>
<g id="a_node10"><a xlink:title=" ">
<polygon fill="white" stroke="#bfbfbf" points="926,-6 926,-25 970,-25 970,-6 926,-6"/>
<text text-anchor="middle" x="948" y="-13" font-family="Helvetica,sans-Serif" font-size="10.00">string</text>
</a>
</g>
</g>
<!-- Node1&#45;&gt;Node10 -->
<g id="edge9" class="edge">
<title>Node1&#45;&gt;Node10</title>
<path fill="none" stroke="midnightblue" d="M617.17,-74.59C682.6,-71.49 811.95,-61.68 917,-31 918.88,-30.45 920.79,-29.8 922.7,-29.09"/>
<polygon fill="midnightblue" stroke="midnightblue" points="924.13,-32.28 931.96,-25.14 921.38,-25.84 924.13,-32.28"/>
</g>
<!-- Node11 -->
<g id="node11" class="node">
<title>Node11</title>
<g id="a_node11"><a xlink:title=" ">
<polygon fill="white" stroke="#bfbfbf" points="988.5,-6 988.5,-25 1037.5,-25 1037.5,-6 988.5,-6"/>
<text text-anchor="middle" x="1013" y="-13" font-family="Helvetica,sans-Serif" font-size="10.00">cctype</text>
</a>
</g>
</g>
<!-- Node1&#45;&gt;Node11 -->
<g id="edge10" class="edge">
<title>Node1&#45;&gt;Node11</title>
<path fill="none" stroke="midnightblue" d="M617.02,-75.33C691.27,-73.28 850,-64.91 979,-31 981.36,-30.38 983.76,-29.63 986.15,-28.79"/>
<polygon fill="midnightblue" stroke="midnightblue" points="987.67,-31.95 995.7,-25.03 985.11,-25.44 987.67,-31.95"/>
</g>
<!-- Node12 -->
<g id="node12" class="node">
<title>Node12</title>
<g id="a_node12"><a xlink:title=" ">
<polygon fill="white" stroke="#bfbfbf" points="1056,-6 1056,-25 1120,-25 1120,-6 1056,-6"/>
<text text-anchor="middle" x="1088" y="-13" font-family="Helvetica,sans-Serif" font-size="10.00">algorithm</text>
</a>
</g>
</g>
<!-- Node1&#45;&gt;Node12 -->
<g id="edge11" class="edge">
<title>Node1&#45;&gt;Node12</title>
<path fill="none" stroke="midnightblue" d="M617.21,-75.42C700.41,-73.53 891.07,-65.46 1047,-31 1050.42,-30.24 1053.95,-29.29 1057.43,-28.22"/>
<polygon fill="midnightblue" stroke="midnightblue" points="1058.63,-31.51 1067.01,-25.03 1056.42,-24.87 1058.63,-31.51"/>
</g>
</g>
</svg>
