<?xml version="1.0" encoding="UTF-8" standalone="no"?>
<!DOCTYPE svg PUBLIC "-//W3C//DTD SVG 1.1//EN"
 "http://www.w3.org/Graphics/SVG/1.1/DTD/svg11.dtd">
<!-- Generated by graphviz version 2.43.0 (0)
 -->
<!-- Title: NodalGradElemAlg.C Pages: 1 -->
<svg width="1934pt" height="95pt"
 viewBox="0.00 0.00 1933.50 95.00" xmlns="http://www.w3.org/2000/svg" xmlns:xlink="http://www.w3.org/1999/xlink">
<g id="graph0" class="graph" transform="scale(1 1) rotate(0) translate(4 91)">
<title>NodalGradElemAlg.C</title>
<polygon fill="white" stroke="transparent" points="-4,4 -4,-91 1929.5,-91 1929.5,4 -4,4"/>
<!-- Node1 -->
<g id="node1" class="node">
<title>Node1</title>
<g id="a_node1"><a xlink:title=" ">
<polygon fill="#bfbfbf" stroke="black" points="1019,-67.5 1019,-86.5 1138,-86.5 1138,-67.5 1019,-67.5"/>
<text text-anchor="middle" x="1078.5" y="-74.5" font-family="Helvetica,sans-Serif" font-size="10.00">NodalGradElemAlg.C</text>
</a>
</g>
</g>
<!-- Node2 -->
<g id="node2" class="node">
<title>Node2</title>
<g id="a_node2"><a xlink:title=" ">
<polygon fill="white" stroke="#bfbfbf" points="0,-0.5 0,-30.5 147,-30.5 147,-0.5 0,-0.5"/>
<text text-anchor="start" x="8" y="-18.5" font-family="Helvetica,sans-Serif" font-size="10.00">ngp_algorithms/NodalGrad</text>
<text text-anchor="middle" x="73.5" y="-7.5" font-family="Helvetica,sans-Serif" font-size="10.00">ElemAlg.h</text>
</a>
</g>
</g>
<!-- Node1&#45;&gt;Node2 -->
<g id="edge1" class="edge">
<title>Node1&#45;&gt;Node2</title>
<path fill="none" stroke="midnightblue" d="M1018.9,-75.7C873.32,-74.4 487.95,-67.59 157.45,-31.13"/>
<polygon fill="midnightblue" stroke="midnightblue" points="157.52,-27.61 147.19,-29.98 156.74,-34.57 157.52,-27.61"/>
</g>
<!-- Node3 -->
<g id="node3" class="node">
<title>Node3</title>
<g id="a_node3"><a xlink:title=" ">
<polygon fill="white" stroke="#bfbfbf" points="165,-6 165,-25 266,-25 266,-6 165,-6"/>
<text text-anchor="middle" x="215.5" y="-13" font-family="Helvetica,sans-Serif" font-size="10.00">BuildTemplates.h</text>
</a>
</g>
</g>
<!-- Node1&#45;&gt;Node3 -->
<g id="edge2" class="edge">
<title>Node1&#45;&gt;Node3</title>
<path fill="none" stroke="midnightblue" d="M1018.86,-76.42C884.95,-76.54 550.51,-72.28 274.5,-31 268.27,-30.07 261.74,-28.78 255.38,-27.36"/>
<polygon fill="midnightblue" stroke="midnightblue" points="256.14,-23.94 245.6,-25.04 254.52,-30.75 256.14,-23.94"/>
</g>
<!-- Node4 -->
<g id="node4" class="node">
<title>Node4</title>
<g id="a_node4"><a xlink:title=" ">
<polygon fill="white" stroke="#bfbfbf" points="284,-6 284,-25 467,-25 467,-6 284,-6"/>
<text text-anchor="middle" x="375.5" y="-13" font-family="Helvetica,sans-Serif" font-size="10.00">master_element/MasterElement.h</text>
</a>
</g>
</g>
<!-- Node1&#45;&gt;Node4 -->
<g id="edge3" class="edge">
<title>Node1&#45;&gt;Node4</title>
<path fill="none" stroke="midnightblue" d="M1018.99,-72.9C910.8,-66.95 674.72,-52.61 476.5,-31 464.67,-29.71 452.09,-28.1 439.97,-26.42"/>
<polygon fill="midnightblue" stroke="midnightblue" points="440.32,-22.94 429.93,-25.01 439.34,-29.87 440.32,-22.94"/>
</g>
<!-- Node5 -->
<g id="node5" class="node">
<title>Node5</title>
<g id="a_node5"><a xlink:title=" ">
<polygon fill="white" stroke="#bfbfbf" points="485.5,-0.5 485.5,-30.5 659.5,-30.5 659.5,-0.5 485.5,-0.5"/>
<text text-anchor="start" x="493.5" y="-18.5" font-family="Helvetica,sans-Serif" font-size="10.00">master_element/MasterElement</text>
<text text-anchor="middle" x="572.5" y="-7.5" font-family="Helvetica,sans-Serif" font-size="10.00">Repo.h</text>
</a>
</g>
</g>
<!-- Node1&#45;&gt;Node5 -->
<g id="edge4" class="edge">
<title>Node1&#45;&gt;Node5</title>
<path fill="none" stroke="midnightblue" d="M1019,-70.23C941.17,-62.52 800.32,-47.98 669.78,-31.13"/>
<polygon fill="midnightblue" stroke="midnightblue" points="669.97,-27.63 659.6,-29.81 669.07,-34.57 669.97,-27.63"/>
</g>
<!-- Node6 -->
<g id="node6" class="node">
<title>Node6</title>
<g id="a_node6"><a xlink:title=" ">
<polygon fill="white" stroke="#bfbfbf" points="677.5,-6 677.5,-25 837.5,-25 837.5,-6 677.5,-6"/>
<text text-anchor="middle" x="757.5" y="-13" font-family="Helvetica,sans-Serif" font-size="10.00">ngp_algorithms/ViewHelper.h</text>
</a>
</g>
</g>
<!-- Node1&#45;&gt;Node6 -->
<g id="edge5" class="edge">
<title>Node1&#45;&gt;Node6</title>
<path fill="none" stroke="midnightblue" d="M1032.51,-67.48C974.7,-56.76 875.55,-38.38 813.42,-26.87"/>
<polygon fill="midnightblue" stroke="midnightblue" points="813.88,-23.39 803.41,-25.01 812.6,-30.27 813.88,-23.39"/>
</g>
<!-- Node7 -->
<g id="node7" class="node">
<title>Node7</title>
<g id="a_node7"><a xlink:title=" ">
<polygon fill="white" stroke="#bfbfbf" points="855.5,-6 855.5,-25 993.5,-25 993.5,-6 855.5,-6"/>
<text text-anchor="middle" x="924.5" y="-13" font-family="Helvetica,sans-Serif" font-size="10.00">ngp_utils/NgpLoopUtils.h</text>
</a>
</g>
</g>
<!-- Node1&#45;&gt;Node7 -->
<g id="edge6" class="edge">
<title>Node1&#45;&gt;Node7</title>
<path fill="none" stroke="midnightblue" d="M1056.44,-67.48C1030.13,-57.31 985.99,-40.26 956.08,-28.7"/>
<polygon fill="midnightblue" stroke="midnightblue" points="957.11,-25.35 946.52,-25.01 954.59,-31.88 957.11,-25.35"/>
</g>
<!-- Node8 -->
<g id="node8" class="node">
<title>Node8</title>
<g id="a_node8"><a xlink:title=" ">
<polygon fill="white" stroke="#bfbfbf" points="1011.5,-6 1011.5,-25 1145.5,-25 1145.5,-6 1011.5,-6"/>
<text text-anchor="middle" x="1078.5" y="-13" font-family="Helvetica,sans-Serif" font-size="10.00">ngp_utils/NgpFieldOps.h</text>
</a>
</g>
</g>
<!-- Node1&#45;&gt;Node8 -->
<g id="edge7" class="edge">
<title>Node1&#45;&gt;Node8</title>
<path fill="none" stroke="midnightblue" d="M1078.5,-67.48C1078.5,-59.08 1078.5,-45.98 1078.5,-35.16"/>
<polygon fill="midnightblue" stroke="midnightblue" points="1082,-35.01 1078.5,-25.01 1075,-35.01 1082,-35.01"/>
</g>
<!-- Node9 -->
<g id="node9" class="node">
<title>Node9</title>
<g id="a_node9"><a xlink:title=" ">
<polygon fill="white" stroke="#bfbfbf" points="1163.5,-6 1163.5,-25 1321.5,-25 1321.5,-6 1163.5,-6"/>
<text text-anchor="middle" x="1242.5" y="-13" font-family="Helvetica,sans-Serif" font-size="10.00">ngp_utils/NgpFieldManager.h</text>
</a>
</g>
</g>
<!-- Node1&#45;&gt;Node9 -->
<g id="edge8" class="edge">
<title>Node1&#45;&gt;Node9</title>
<path fill="none" stroke="midnightblue" d="M1102,-67.48C1130.13,-57.27 1177.43,-40.11 1209.29,-28.55"/>
<polygon fill="midnightblue" stroke="midnightblue" points="1210.84,-31.71 1219.05,-25.01 1208.45,-25.13 1210.84,-31.71"/>
</g>
<!-- Node10 -->
<g id="node10" class="node">
<title>Node10</title>
<g id="a_node10"><a xlink:title=" ">
<polygon fill="white" stroke="#bfbfbf" points="1339,-6 1339,-25 1396,-25 1396,-6 1339,-6"/>
<text text-anchor="middle" x="1367.5" y="-13" font-family="Helvetica,sans-Serif" font-size="10.00">Realm.h</text>
</a>
</g>
</g>
<!-- Node1&#45;&gt;Node10 -->
<g id="edge9" class="edge">
<title>Node1&#45;&gt;Node10</title>
<path fill="none" stroke="midnightblue" d="M1138.05,-68.73C1189.59,-61.65 1265.81,-49.26 1330.5,-31 1333.09,-30.27 1335.74,-29.43 1338.39,-28.52"/>
<polygon fill="midnightblue" stroke="midnightblue" points="1339.6,-31.8 1347.78,-25.06 1337.18,-25.23 1339.6,-31.8"/>
</g>
<!-- Node11 -->
<g id="node11" class="node">
<title>Node11</title>
<g id="a_node11"><a xlink:title=" ">
<polygon fill="white" stroke="#bfbfbf" points="1414,-6 1414,-25 1505,-25 1505,-6 1414,-6"/>
<text text-anchor="middle" x="1459.5" y="-13" font-family="Helvetica,sans-Serif" font-size="10.00">ScratchViews.h</text>
</a>
</g>
</g>
<!-- Node1&#45;&gt;Node11 -->
<g id="edge10" class="edge">
<title>Node1&#45;&gt;Node11</title>
<path fill="none" stroke="midnightblue" d="M1138.25,-70.06C1204.1,-62.98 1312.96,-49.71 1405.5,-31 1410.49,-29.99 1415.69,-28.79 1420.82,-27.51"/>
<polygon fill="midnightblue" stroke="midnightblue" points="1421.71,-30.9 1430.51,-25 1419.95,-24.12 1421.71,-30.9"/>
</g>
<!-- Node12 -->
<g id="node12" class="node">
<title>Node12</title>
<g id="a_node12"><a xlink:title=" ">
<polygon fill="white" stroke="#bfbfbf" points="1523,-6 1523,-25 1626,-25 1626,-6 1523,-6"/>
<text text-anchor="middle" x="1574.5" y="-13" font-family="Helvetica,sans-Serif" font-size="10.00">SolutionOptions.h</text>
</a>
</g>
</g>
<!-- Node1&#45;&gt;Node12 -->
<g id="edge11" class="edge">
<title>Node1&#45;&gt;Node12</title>
<path fill="none" stroke="midnightblue" d="M1138.08,-72.39C1222.36,-66.72 1381,-53.91 1514.5,-31 1520.39,-29.99 1526.55,-28.73 1532.6,-27.38"/>
<polygon fill="midnightblue" stroke="midnightblue" points="1533.65,-30.73 1542.59,-25.05 1532.06,-23.91 1533.65,-30.73"/>
</g>
<!-- Node13 -->
<g id="node13" class="node">
<title>Node13</title>
<g id="a_node13"><a xlink:title=" ">
<polygon fill="white" stroke="#bfbfbf" points="1644,-6 1644,-25 1747,-25 1747,-6 1644,-6"/>
<text text-anchor="middle" x="1695.5" y="-13" font-family="Helvetica,sans-Serif" font-size="10.00">utils/StkHelpers.h</text>
</a>
</g>
</g>
<!-- Node1&#45;&gt;Node13 -->
<g id="edge12" class="edge">
<title>Node1&#45;&gt;Node13</title>
<path fill="none" stroke="midnightblue" d="M1138.22,-74.24C1240.58,-70.54 1455.88,-59.78 1635.5,-31 1641.68,-30.01 1648.16,-28.72 1654.49,-27.31"/>
<polygon fill="midnightblue" stroke="midnightblue" points="1655.29,-30.72 1664.24,-25.03 1653.7,-23.9 1655.29,-30.72"/>
</g>
<!-- Node14 -->
<g id="node14" class="node">
<title>Node14</title>
<g id="a_node14"><a xlink:title=" ">
<polygon fill="white" stroke="#bfbfbf" points="1765.5,-6 1765.5,-25 1925.5,-25 1925.5,-6 1765.5,-6"/>
<text text-anchor="middle" x="1845.5" y="-13" font-family="Helvetica,sans-Serif" font-size="10.00">stk_mesh/base/NgpMesh.hpp</text>
</a>
</g>
</g>
<!-- Node1&#45;&gt;Node14 -->
<g id="edge13" class="edge">
<title>Node1&#45;&gt;Node14</title>
<path fill="none" stroke="midnightblue" d="M1138.07,-73.95C1256.3,-69.47 1528.83,-57.04 1756.5,-31 1766.87,-29.81 1777.88,-28.26 1788.49,-26.61"/>
<polygon fill="midnightblue" stroke="midnightblue" points="1789.18,-30.05 1798.5,-25.02 1788.08,-23.14 1789.18,-30.05"/>
</g>
</g>
</svg>
