<?xml version="1.0" encoding="UTF-8" standalone="no"?>
<!DOCTYPE svg PUBLIC "-//W3C//DTD SVG 1.1//EN"
 "http://www.w3.org/Graphics/SVG/1.1/DTD/svg11.dtd">
<!-- Generated by graphviz version 2.43.0 (0)
 -->
<!-- Title: NodalGradPOpenBoundaryAlg.C Pages: 1 -->
<svg width="1849pt" height="95pt"
 viewBox="0.00 0.00 1848.50 95.00" xmlns="http://www.w3.org/2000/svg" xmlns:xlink="http://www.w3.org/1999/xlink">
<g id="graph0" class="graph" transform="scale(1 1) rotate(0) translate(4 91)">
<title>NodalGradPOpenBoundaryAlg.C</title>
<polygon fill="white" stroke="transparent" points="-4,4 -4,-91 1844.5,-91 1844.5,4 -4,4"/>
<!-- Node1 -->
<g id="node1" class="node">
<title>Node1</title>
<g id="a_node1"><a xlink:title=" ">
<polygon fill="#bfbfbf" stroke="black" points="907.5,-67.5 907.5,-86.5 1079.5,-86.5 1079.5,-67.5 907.5,-67.5"/>
<text text-anchor="middle" x="993.5" y="-74.5" font-family="Helvetica,sans-Serif" font-size="10.00">NodalGradPOpenBoundaryAlg.C</text>
</a>
</g>
</g>
<!-- Node2 -->
<g id="node2" class="node">
<title>Node2</title>
<g id="a_node2"><a xlink:title=" ">
<polygon fill="white" stroke="#bfbfbf" points="0,-0.5 0,-30.5 147,-30.5 147,-0.5 0,-0.5"/>
<text text-anchor="start" x="8" y="-18.5" font-family="Helvetica,sans-Serif" font-size="10.00">ngp_algorithms/NodalGrad</text>
<text text-anchor="middle" x="73.5" y="-7.5" font-family="Helvetica,sans-Serif" font-size="10.00">POpenBoundaryAlg.h</text>
</a>
</g>
</g>
<!-- Node1&#45;&gt;Node2 -->
<g id="edge1" class="edge">
<title>Node1&#45;&gt;Node2</title>
<path fill="none" stroke="midnightblue" d="M907.37,-74.75C757.11,-71.83 437.2,-62.31 157.15,-30.97"/>
<polygon fill="midnightblue" stroke="midnightblue" points="157.53,-27.49 147.2,-29.85 156.74,-34.45 157.53,-27.49"/>
</g>
<!-- Node3 -->
<g id="node3" class="node">
<title>Node3</title>
<g id="a_node3"><a xlink:title=" ">
<polygon fill="white" stroke="#bfbfbf" points="165.5,-6 165.5,-25 239.5,-25 239.5,-6 165.5,-6"/>
<text text-anchor="middle" x="202.5" y="-13" font-family="Helvetica,sans-Serif" font-size="10.00">Algorithm.h</text>
</a>
</g>
</g>
<!-- Node1&#45;&gt;Node3 -->
<g id="edge2" class="edge">
<title>Node1&#45;&gt;Node3</title>
<path fill="none" stroke="midnightblue" d="M907.27,-73.44C739.02,-68.02 372.57,-53.94 248.5,-31 244.24,-30.21 239.82,-29.15 235.48,-27.96"/>
<polygon fill="midnightblue" stroke="midnightblue" points="236.2,-24.52 225.62,-25 234.2,-31.23 236.2,-24.52"/>
</g>
<!-- Node4 -->
<g id="node4" class="node">
<title>Node4</title>
<g id="a_node4"><a xlink:title=" ">
<polygon fill="white" stroke="#bfbfbf" points="258,-6 258,-25 359,-25 359,-6 258,-6"/>
<text text-anchor="middle" x="308.5" y="-13" font-family="Helvetica,sans-Serif" font-size="10.00">BuildTemplates.h</text>
</a>
</g>
</g>
<!-- Node1&#45;&gt;Node4 -->
<g id="edge3" class="edge">
<title>Node1&#45;&gt;Node4</title>
<path fill="none" stroke="midnightblue" d="M907.42,-74.41C786.25,-71.13 558.81,-61.16 367.5,-31 361.49,-30.05 355.2,-28.8 349.05,-27.42"/>
<polygon fill="midnightblue" stroke="midnightblue" points="349.46,-23.92 338.92,-25.02 347.85,-30.73 349.46,-23.92"/>
</g>
<!-- Node5 -->
<g id="node5" class="node">
<title>Node5</title>
<g id="a_node5"><a xlink:title=" ">
<polygon fill="white" stroke="#bfbfbf" points="377,-6 377,-25 560,-25 560,-6 377,-6"/>
<text text-anchor="middle" x="468.5" y="-13" font-family="Helvetica,sans-Serif" font-size="10.00">master_element/MasterElement.h</text>
</a>
</g>
</g>
<!-- Node1&#45;&gt;Node5 -->
<g id="edge4" class="edge">
<title>Node1&#45;&gt;Node5</title>
<path fill="none" stroke="midnightblue" d="M907.31,-67.79C821.57,-59.41 686.29,-45.58 569.5,-31 558.42,-29.62 546.67,-28.04 535.26,-26.44"/>
<polygon fill="midnightblue" stroke="midnightblue" points="535.73,-22.97 525.34,-25.03 534.75,-29.9 535.73,-22.97"/>
</g>
<!-- Node6 -->
<g id="node6" class="node">
<title>Node6</title>
<g id="a_node6"><a xlink:title=" ">
<polygon fill="white" stroke="#bfbfbf" points="578.5,-0.5 578.5,-30.5 752.5,-30.5 752.5,-0.5 578.5,-0.5"/>
<text text-anchor="start" x="586.5" y="-18.5" font-family="Helvetica,sans-Serif" font-size="10.00">master_element/MasterElement</text>
<text text-anchor="middle" x="665.5" y="-7.5" font-family="Helvetica,sans-Serif" font-size="10.00">Repo.h</text>
</a>
</g>
</g>
<!-- Node1&#45;&gt;Node6 -->
<g id="edge5" class="edge">
<title>Node1&#45;&gt;Node6</title>
<path fill="none" stroke="midnightblue" d="M946.51,-67.48C896.17,-58.34 815.14,-43.64 753,-32.37"/>
<polygon fill="midnightblue" stroke="midnightblue" points="753.27,-28.86 742.8,-30.52 752.02,-35.75 753.27,-28.86"/>
</g>
<!-- Node7 -->
<g id="node7" class="node">
<title>Node7</title>
<g id="a_node7"><a xlink:title=" ">
<polygon fill="white" stroke="#bfbfbf" points="770.5,-6 770.5,-25 908.5,-25 908.5,-6 770.5,-6"/>
<text text-anchor="middle" x="839.5" y="-13" font-family="Helvetica,sans-Serif" font-size="10.00">ngp_utils/NgpLoopUtils.h</text>
</a>
</g>
</g>
<!-- Node1&#45;&gt;Node7 -->
<g id="edge6" class="edge">
<title>Node1&#45;&gt;Node7</title>
<path fill="none" stroke="midnightblue" d="M971.44,-67.48C945.13,-57.31 900.99,-40.26 871.08,-28.7"/>
<polygon fill="midnightblue" stroke="midnightblue" points="872.11,-25.35 861.52,-25.01 869.59,-31.88 872.11,-25.35"/>
</g>
<!-- Node8 -->
<g id="node8" class="node">
<title>Node8</title>
<g id="a_node8"><a xlink:title=" ">
<polygon fill="white" stroke="#bfbfbf" points="926.5,-6 926.5,-25 1060.5,-25 1060.5,-6 926.5,-6"/>
<text text-anchor="middle" x="993.5" y="-13" font-family="Helvetica,sans-Serif" font-size="10.00">ngp_utils/NgpFieldOps.h</text>
</a>
</g>
</g>
<!-- Node1&#45;&gt;Node8 -->
<g id="edge7" class="edge">
<title>Node1&#45;&gt;Node8</title>
<path fill="none" stroke="midnightblue" d="M993.5,-67.48C993.5,-59.08 993.5,-45.98 993.5,-35.16"/>
<polygon fill="midnightblue" stroke="midnightblue" points="997,-35.01 993.5,-25.01 990,-35.01 997,-35.01"/>
</g>
<!-- Node9 -->
<g id="node9" class="node">
<title>Node9</title>
<g id="a_node9"><a xlink:title=" ">
<polygon fill="white" stroke="#bfbfbf" points="1078.5,-6 1078.5,-25 1236.5,-25 1236.5,-6 1078.5,-6"/>
<text text-anchor="middle" x="1157.5" y="-13" font-family="Helvetica,sans-Serif" font-size="10.00">ngp_utils/NgpFieldManager.h</text>
</a>
</g>
</g>
<!-- Node1&#45;&gt;Node9 -->
<g id="edge8" class="edge">
<title>Node1&#45;&gt;Node9</title>
<path fill="none" stroke="midnightblue" d="M1017,-67.48C1045.13,-57.27 1092.43,-40.11 1124.29,-28.55"/>
<polygon fill="midnightblue" stroke="midnightblue" points="1125.84,-31.71 1134.05,-25.01 1123.45,-25.13 1125.84,-31.71"/>
</g>
<!-- Node10 -->
<g id="node10" class="node">
<title>Node10</title>
<g id="a_node10"><a xlink:title=" ">
<polygon fill="white" stroke="#bfbfbf" points="1254,-6 1254,-25 1311,-25 1311,-6 1254,-6"/>
<text text-anchor="middle" x="1282.5" y="-13" font-family="Helvetica,sans-Serif" font-size="10.00">Realm.h</text>
</a>
</g>
</g>
<!-- Node1&#45;&gt;Node10 -->
<g id="edge9" class="edge">
<title>Node1&#45;&gt;Node10</title>
<path fill="none" stroke="midnightblue" d="M1061.97,-67.49C1113.12,-60.24 1184.44,-48.23 1245.5,-31 1248.09,-30.27 1250.74,-29.43 1253.39,-28.52"/>
<polygon fill="midnightblue" stroke="midnightblue" points="1254.6,-31.8 1262.78,-25.06 1252.18,-25.23 1254.6,-31.8"/>
</g>
<!-- Node11 -->
<g id="node11" class="node">
<title>Node11</title>
<g id="a_node11"><a xlink:title=" ">
<polygon fill="white" stroke="#bfbfbf" points="1329,-6 1329,-25 1420,-25 1420,-6 1329,-6"/>
<text text-anchor="middle" x="1374.5" y="-13" font-family="Helvetica,sans-Serif" font-size="10.00">ScratchViews.h</text>
</a>
</g>
</g>
<!-- Node1&#45;&gt;Node11 -->
<g id="edge10" class="edge">
<title>Node1&#45;&gt;Node11</title>
<path fill="none" stroke="midnightblue" d="M1076.64,-67.48C1143.02,-59.97 1238.21,-47.64 1320.5,-31 1325.49,-29.99 1330.69,-28.79 1335.82,-27.51"/>
<polygon fill="midnightblue" stroke="midnightblue" points="1336.71,-30.9 1345.51,-25 1334.95,-24.12 1336.71,-30.9"/>
</g>
<!-- Node12 -->
<g id="node12" class="node">
<title>Node12</title>
<g id="a_node12"><a xlink:title=" ">
<polygon fill="white" stroke="#bfbfbf" points="1438,-6 1438,-25 1541,-25 1541,-6 1438,-6"/>
<text text-anchor="middle" x="1489.5" y="-13" font-family="Helvetica,sans-Serif" font-size="10.00">SolutionOptions.h</text>
</a>
</g>
</g>
<!-- Node1&#45;&gt;Node12 -->
<g id="edge11" class="edge">
<title>Node1&#45;&gt;Node12</title>
<path fill="none" stroke="midnightblue" d="M1079.59,-70.54C1167.87,-64.14 1308.94,-51.69 1429.5,-31 1435.39,-29.99 1441.55,-28.73 1447.6,-27.38"/>
<polygon fill="midnightblue" stroke="midnightblue" points="1448.65,-30.73 1457.59,-25.05 1447.06,-23.91 1448.65,-30.73"/>
</g>
<!-- Node13 -->
<g id="node13" class="node">
<title>Node13</title>
<g id="a_node13"><a xlink:title=" ">
<polygon fill="white" stroke="#bfbfbf" points="1559,-6 1559,-25 1662,-25 1662,-6 1559,-6"/>
<text text-anchor="middle" x="1610.5" y="-13" font-family="Helvetica,sans-Serif" font-size="10.00">utils/StkHelpers.h</text>
</a>
</g>
</g>
<!-- Node1&#45;&gt;Node13 -->
<g id="edge12" class="edge">
<title>Node1&#45;&gt;Node13</title>
<path fill="none" stroke="midnightblue" d="M1079.88,-73.21C1189.8,-68.7 1385.25,-57.48 1550.5,-31 1556.68,-30.01 1563.16,-28.72 1569.49,-27.31"/>
<polygon fill="midnightblue" stroke="midnightblue" points="1570.29,-30.72 1579.24,-25.03 1568.7,-23.9 1570.29,-30.72"/>
</g>
<!-- Node14 -->
<g id="node14" class="node">
<title>Node14</title>
<g id="a_node14"><a xlink:title=" ">
<polygon fill="white" stroke="#bfbfbf" points="1680.5,-6 1680.5,-25 1840.5,-25 1840.5,-6 1680.5,-6"/>
<text text-anchor="middle" x="1760.5" y="-13" font-family="Helvetica,sans-Serif" font-size="10.00">stk_mesh/base/NgpMesh.hpp</text>
</a>
</g>
</g>
<!-- Node1&#45;&gt;Node14 -->
<g id="edge13" class="edge">
<title>Node1&#45;&gt;Node14</title>
<path fill="none" stroke="midnightblue" d="M1079.63,-72.91C1208.62,-67.7 1459.51,-55.25 1671.5,-31 1681.87,-29.81 1692.88,-28.26 1703.49,-26.61"/>
<polygon fill="midnightblue" stroke="midnightblue" points="1704.18,-30.05 1713.5,-25.02 1703.08,-23.14 1704.18,-30.05"/>
</g>
</g>
</svg>
