<?xml version="1.0" encoding="UTF-8" standalone="no"?>
<!DOCTYPE svg PUBLIC "-//W3C//DTD SVG 1.1//EN"
 "http://www.w3.org/Graphics/SVG/1.1/DTD/svg11.dtd">
<!-- Generated by graphviz version 2.43.0 (0)
 -->
<!-- Title: NodalGradAlgDriver.C Pages: 1 -->
<svg width="1306pt" height="95pt"
 viewBox="0.00 0.00 1306.00 95.00" xmlns="http://www.w3.org/2000/svg" xmlns:xlink="http://www.w3.org/1999/xlink">
<g id="graph0" class="graph" transform="scale(1 1) rotate(0) translate(4 91)">
<title>NodalGradAlgDriver.C</title>
<polygon fill="white" stroke="transparent" points="-4,4 -4,-91 1302,-91 1302,4 -4,4"/>
<!-- Node1 -->
<g id="node1" class="node">
<title>Node1</title>
<g id="a_node1"><a xlink:title=" ">
<polygon fill="#bfbfbf" stroke="black" points="490,-67.5 490,-86.5 613,-86.5 613,-67.5 490,-67.5"/>
<text text-anchor="middle" x="551.5" y="-74.5" font-family="Helvetica,sans-Serif" font-size="10.00">NodalGradAlgDriver.C</text>
</a>
</g>
</g>
<!-- Node2 -->
<g id="node2" class="node">
<title>Node2</title>
<g id="a_node2"><a xlink:title=" ">
<polygon fill="white" stroke="#bfbfbf" points="0,-0.5 0,-30.5 147,-30.5 147,-0.5 0,-0.5"/>
<text text-anchor="start" x="8" y="-18.5" font-family="Helvetica,sans-Serif" font-size="10.00">ngp_algorithms/NodalGrad</text>
<text text-anchor="middle" x="73.5" y="-7.5" font-family="Helvetica,sans-Serif" font-size="10.00">AlgDriver.h</text>
</a>
</g>
</g>
<!-- Node1&#45;&gt;Node2 -->
<g id="edge1" class="edge">
<title>Node1&#45;&gt;Node2</title>
<path fill="none" stroke="midnightblue" d="M489.78,-70.12C413.97,-62.63 281.23,-48.7 157.28,-31.06"/>
<polygon fill="midnightblue" stroke="midnightblue" points="157.63,-27.57 147.23,-29.62 156.63,-34.5 157.63,-27.57"/>
</g>
<!-- Node3 -->
<g id="node3" class="node">
<title>Node3</title>
<g id="a_node3"><a xlink:title=" ">
<polygon fill="white" stroke="#bfbfbf" points="165.5,-6 165.5,-25 303.5,-25 303.5,-6 165.5,-6"/>
<text text-anchor="middle" x="234.5" y="-13" font-family="Helvetica,sans-Serif" font-size="10.00">ngp_utils/NgpFieldUtils.h</text>
</a>
</g>
</g>
<!-- Node1&#45;&gt;Node3 -->
<g id="edge2" class="edge">
<title>Node1&#45;&gt;Node3</title>
<path fill="none" stroke="midnightblue" d="M506.08,-67.48C449,-56.76 351.08,-38.38 289.73,-26.87"/>
<polygon fill="midnightblue" stroke="midnightblue" points="290.31,-23.41 279.83,-25.01 289.02,-30.29 290.31,-23.41"/>
</g>
<!-- Node4 -->
<g id="node4" class="node">
<title>Node4</title>
<g id="a_node4"><a xlink:title=" ">
<polygon fill="white" stroke="#bfbfbf" points="322,-6 322,-25 379,-25 379,-6 322,-6"/>
<text text-anchor="middle" x="350.5" y="-13" font-family="Helvetica,sans-Serif" font-size="10.00">Realm.h</text>
</a>
</g>
</g>
<!-- Node1&#45;&gt;Node4 -->
<g id="edge3" class="edge">
<title>Node1&#45;&gt;Node4</title>
<path fill="none" stroke="midnightblue" d="M516.31,-67.49C482.88,-59.14 431.35,-45.56 387.5,-31 385.23,-30.25 382.91,-29.43 380.57,-28.59"/>
<polygon fill="midnightblue" stroke="midnightblue" points="381.69,-25.27 371.1,-25.02 379.22,-31.82 381.69,-25.27"/>
</g>
<!-- Node5 -->
<g id="node5" class="node">
<title>Node5</title>
<g id="a_node5"><a xlink:title=" ">
<polygon fill="white" stroke="#bfbfbf" points="397,-6 397,-25 534,-25 534,-6 397,-6"/>
<text text-anchor="middle" x="465.5" y="-13" font-family="Helvetica,sans-Serif" font-size="10.00">stk_mesh/base/Field.hpp</text>
</a>
</g>
</g>
<!-- Node1&#45;&gt;Node5 -->
<g id="edge4" class="edge">
<title>Node1&#45;&gt;Node5</title>
<path fill="none" stroke="midnightblue" d="M539.18,-67.48C525.38,-57.93 502.8,-42.31 486.27,-30.87"/>
<polygon fill="midnightblue" stroke="midnightblue" points="488.01,-27.82 477.8,-25.01 484.03,-33.58 488.01,-27.82"/>
</g>
<!-- Node6 -->
<g id="node6" class="node">
<title>Node6</title>
<g id="a_node6"><a xlink:title=" ">
<polygon fill="white" stroke="#bfbfbf" points="552,-6 552,-25 725,-25 725,-6 552,-6"/>
<text text-anchor="middle" x="638.5" y="-13" font-family="Helvetica,sans-Serif" font-size="10.00">stk_mesh/base/FieldParallel.hpp</text>
</a>
</g>
</g>
<!-- Node1&#45;&gt;Node6 -->
<g id="edge5" class="edge">
<title>Node1&#45;&gt;Node6</title>
<path fill="none" stroke="midnightblue" d="M563.96,-67.48C577.92,-57.93 600.76,-42.31 617.49,-30.87"/>
<polygon fill="midnightblue" stroke="midnightblue" points="619.78,-33.54 626.06,-25.01 615.83,-27.77 619.78,-33.54"/>
</g>
<!-- Node7 -->
<g id="node7" class="node">
<title>Node7</title>
<g id="a_node7"><a xlink:title=" ">
<polygon fill="white" stroke="#bfbfbf" points="743,-6 743,-25 906,-25 906,-6 743,-6"/>
<text text-anchor="middle" x="824.5" y="-13" font-family="Helvetica,sans-Serif" font-size="10.00">stk_mesh/base/FieldBLAS.hpp</text>
</a>
</g>
</g>
<!-- Node1&#45;&gt;Node7 -->
<g id="edge6" class="edge">
<title>Node1&#45;&gt;Node7</title>
<path fill="none" stroke="midnightblue" d="M590.61,-67.48C639.37,-56.85 722.71,-38.68 775.62,-27.15"/>
<polygon fill="midnightblue" stroke="midnightblue" points="776.43,-30.56 785.46,-25.01 774.94,-23.72 776.43,-30.56"/>
</g>
<!-- Node8 -->
<g id="node8" class="node">
<title>Node8</title>
<g id="a_node8"><a xlink:title=" ">
<polygon fill="white" stroke="#bfbfbf" points="924.5,-6 924.5,-25 1086.5,-25 1086.5,-6 924.5,-6"/>
<text text-anchor="middle" x="1005.5" y="-13" font-family="Helvetica,sans-Serif" font-size="10.00">stk_mesh/base/MetaData.hpp</text>
</a>
</g>
</g>
<!-- Node1&#45;&gt;Node8 -->
<g id="edge7" class="edge">
<title>Node1&#45;&gt;Node8</title>
<path fill="none" stroke="midnightblue" d="M613.1,-69.08C685.56,-60.79 809.43,-46.1 915.5,-31 924.92,-29.66 934.88,-28.15 944.6,-26.62"/>
<polygon fill="midnightblue" stroke="midnightblue" points="945.29,-30.06 954.62,-25.03 944.2,-23.14 945.29,-30.06"/>
</g>
<!-- Node9 -->
<g id="node9" class="node">
<title>Node9</title>
<g id="a_node9"><a xlink:title=" ">
<polygon fill="white" stroke="#bfbfbf" points="1105,-6 1105,-25 1298,-25 1298,-6 1105,-6"/>
<text text-anchor="middle" x="1201.5" y="-13" font-family="Helvetica,sans-Serif" font-size="10.00">stk_mesh/base/NgpFieldParallel.hpp</text>
</a>
</g>
</g>
<!-- Node1&#45;&gt;Node9 -->
<g id="edge8" class="edge">
<title>Node1&#45;&gt;Node9</title>
<path fill="none" stroke="midnightblue" d="M613.2,-71.97C714.18,-65.14 920.99,-50.14 1095.5,-31 1107.74,-29.66 1120.74,-28.04 1133.3,-26.38"/>
<polygon fill="midnightblue" stroke="midnightblue" points="1133.81,-29.84 1143.25,-25.04 1132.87,-22.9 1133.81,-29.84"/>
</g>
</g>
</svg>
