<?xml version="1.0" encoding="UTF-8" standalone="no"?>
<!DOCTYPE svg PUBLIC "-//W3C//DTD SVG 1.1//EN"
 "http://www.w3.org/Graphics/SVG/1.1/DTD/svg11.dtd">
<!-- Generated by graphviz version 2.43.0 (0)
 -->
<!-- Title: NodalGradEdgeAlg.C Pages: 1 -->
<svg width="1014pt" height="95pt"
 viewBox="0.00 0.00 1013.50 95.00" xmlns="http://www.w3.org/2000/svg" xmlns:xlink="http://www.w3.org/1999/xlink">
<g id="graph0" class="graph" transform="scale(1 1) rotate(0) translate(4 91)">
<title>NodalGradEdgeAlg.C</title>
<polygon fill="white" stroke="transparent" points="-4,4 -4,-91 1009.5,-91 1009.5,4 -4,4"/>
<!-- Node1 -->
<g id="node1" class="node">
<title>Node1</title>
<g id="a_node1"><a xlink:title=" ">
<polygon fill="#bfbfbf" stroke="black" points="493.5,-67.5 493.5,-86.5 611.5,-86.5 611.5,-67.5 493.5,-67.5"/>
<text text-anchor="middle" x="552.5" y="-74.5" font-family="Helvetica,sans-Serif" font-size="10.00">NodalGradEdgeAlg.C</text>
</a>
</g>
</g>
<!-- Node2 -->
<g id="node2" class="node">
<title>Node2</title>
<g id="a_node2"><a xlink:title=" ">
<polygon fill="white" stroke="#bfbfbf" points="0,-0.5 0,-30.5 147,-30.5 147,-0.5 0,-0.5"/>
<text text-anchor="start" x="8" y="-18.5" font-family="Helvetica,sans-Serif" font-size="10.00">ngp_algorithms/NodalGrad</text>
<text text-anchor="middle" x="73.5" y="-7.5" font-family="Helvetica,sans-Serif" font-size="10.00">EdgeAlg.h</text>
</a>
</g>
</g>
<!-- Node1&#45;&gt;Node2 -->
<g id="edge1" class="edge">
<title>Node1&#45;&gt;Node2</title>
<path fill="none" stroke="midnightblue" d="M493.32,-70.39C417.83,-62.99 283.01,-48.93 157.41,-31.08"/>
<polygon fill="midnightblue" stroke="midnightblue" points="157.63,-27.57 147.23,-29.62 156.63,-34.5 157.63,-27.57"/>
</g>
<!-- Node3 -->
<g id="node3" class="node">
<title>Node3</title>
<g id="a_node3"><a xlink:title=" ">
<polygon fill="white" stroke="#bfbfbf" points="165.5,-6 165.5,-25 303.5,-25 303.5,-6 165.5,-6"/>
<text text-anchor="middle" x="234.5" y="-13" font-family="Helvetica,sans-Serif" font-size="10.00">ngp_utils/NgpLoopUtils.h</text>
</a>
</g>
</g>
<!-- Node1&#45;&gt;Node3 -->
<g id="edge2" class="edge">
<title>Node1&#45;&gt;Node3</title>
<path fill="none" stroke="midnightblue" d="M506.94,-67.48C449.67,-56.76 351.45,-38.38 289.9,-26.87"/>
<polygon fill="midnightblue" stroke="midnightblue" points="290.45,-23.41 279.98,-25.01 289.16,-30.29 290.45,-23.41"/>
</g>
<!-- Node4 -->
<g id="node4" class="node">
<title>Node4</title>
<g id="a_node4"><a xlink:title=" ">
<polygon fill="white" stroke="#bfbfbf" points="321.5,-6 321.5,-25 455.5,-25 455.5,-6 321.5,-6"/>
<text text-anchor="middle" x="388.5" y="-13" font-family="Helvetica,sans-Serif" font-size="10.00">ngp_utils/NgpFieldOps.h</text>
</a>
</g>
</g>
<!-- Node1&#45;&gt;Node4 -->
<g id="edge3" class="edge">
<title>Node1&#45;&gt;Node4</title>
<path fill="none" stroke="midnightblue" d="M529,-67.48C500.87,-57.27 453.57,-40.11 421.71,-28.55"/>
<polygon fill="midnightblue" stroke="midnightblue" points="422.55,-25.13 411.95,-25.01 420.16,-31.71 422.55,-25.13"/>
</g>
<!-- Node5 -->
<g id="node5" class="node">
<title>Node5</title>
<g id="a_node5"><a xlink:title=" ">
<polygon fill="white" stroke="#bfbfbf" points="473.5,-6 473.5,-25 631.5,-25 631.5,-6 473.5,-6"/>
<text text-anchor="middle" x="552.5" y="-13" font-family="Helvetica,sans-Serif" font-size="10.00">ngp_utils/NgpFieldManager.h</text>
</a>
</g>
</g>
<!-- Node1&#45;&gt;Node5 -->
<g id="edge4" class="edge">
<title>Node1&#45;&gt;Node5</title>
<path fill="none" stroke="midnightblue" d="M552.5,-67.48C552.5,-59.08 552.5,-45.98 552.5,-35.16"/>
<polygon fill="midnightblue" stroke="midnightblue" points="556,-35.01 552.5,-25.01 549,-35.01 556,-35.01"/>
</g>
<!-- Node6 -->
<g id="node6" class="node">
<title>Node6</title>
<g id="a_node6"><a xlink:title=" ">
<polygon fill="white" stroke="#bfbfbf" points="649,-6 649,-25 706,-25 706,-6 649,-6"/>
<text text-anchor="middle" x="677.5" y="-13" font-family="Helvetica,sans-Serif" font-size="10.00">Realm.h</text>
</a>
</g>
</g>
<!-- Node1&#45;&gt;Node6 -->
<g id="edge5" class="edge">
<title>Node1&#45;&gt;Node6</title>
<path fill="none" stroke="midnightblue" d="M570.41,-67.48C591.39,-57.49 626.35,-40.85 650.59,-29.31"/>
<polygon fill="midnightblue" stroke="midnightblue" points="652.1,-32.47 659.62,-25.01 649.09,-26.15 652.1,-32.47"/>
</g>
<!-- Node7 -->
<g id="node7" class="node">
<title>Node7</title>
<g id="a_node7"><a xlink:title=" ">
<polygon fill="white" stroke="#bfbfbf" points="724,-6 724,-25 827,-25 827,-6 724,-6"/>
<text text-anchor="middle" x="775.5" y="-13" font-family="Helvetica,sans-Serif" font-size="10.00">utils/StkHelpers.h</text>
</a>
</g>
</g>
<!-- Node1&#45;&gt;Node7 -->
<g id="edge6" class="edge">
<title>Node1&#45;&gt;Node7</title>
<path fill="none" stroke="midnightblue" d="M584.45,-67.48C623.7,-57 690.38,-39.21 733.67,-27.66"/>
<polygon fill="midnightblue" stroke="midnightblue" points="734.85,-30.97 743.61,-25.01 733.04,-24.21 734.85,-30.97"/>
</g>
<!-- Node8 -->
<g id="node8" class="node">
<title>Node8</title>
<g id="a_node8"><a xlink:title=" ">
<polygon fill="white" stroke="#bfbfbf" points="845.5,-6 845.5,-25 1005.5,-25 1005.5,-6 845.5,-6"/>
<text text-anchor="middle" x="925.5" y="-13" font-family="Helvetica,sans-Serif" font-size="10.00">stk_mesh/base/NgpMesh.hpp</text>
</a>
</g>
</g>
<!-- Node1&#45;&gt;Node8 -->
<g id="edge7" class="edge">
<title>Node1&#45;&gt;Node8</title>
<path fill="none" stroke="midnightblue" d="M606.69,-67.49C663.85,-58.49 756.53,-43.85 836.5,-31 845.15,-29.61 854.27,-28.14 863.24,-26.68"/>
<polygon fill="midnightblue" stroke="midnightblue" points="863.96,-30.11 873.27,-25.05 862.84,-23.2 863.96,-30.11"/>
</g>
</g>
</svg>
