<?xml version="1.0" encoding="UTF-8" standalone="no"?>
<!DOCTYPE svg PUBLIC "-//W3C//DTD SVG 1.1//EN"
 "http://www.w3.org/Graphics/SVG/1.1/DTD/svg11.dtd">
<!-- Generated by graphviz version 2.43.0 (0)
 -->
<!-- Title: NonConformalInfo.C Pages: 1 -->
<!--zoomable 95 -->
<svg id="main" version="1.1" xmlns="http://www.w3.org/2000/svg" xmlns:xlink="http://www.w3.org/1999/xlink" xml:space="preserve" onload="init(evt)">
<style type="text/css"><![CDATA[
.edge:hover path { stroke: red; }
.edge:hover polygon { stroke: red; fill: red; }
]]></style>
<script type="text/javascript"><![CDATA[
var edges = document.getElementsByTagName('g');
if (edges && edges.length) {
  for (var i=0;i<edges.length;i++) {
    if (edges[i].id.substr(0,4)=='edge') {
      edges[i].setAttribute('class','edge');
    }
  }
}
]]></script>
        <defs>
                <circle id="rim" cx="0" cy="0" r="7"/>
                <circle id="rim2" cx="0" cy="0" r="3.5"/>
                <g id="zoomPlus">
                        <use xlink:href="#rim" fill="#404040">
                                <set attributeName="fill" to="#808080" begin="zoomplus.mouseover" end="zoomplus.mouseout"/>
                        </use>
                        <path d="M-4,0h8M0,-4v8" fill="none" stroke="white" stroke-width="1.5" pointer-events="none"/>
                </g>
                <g id="zoomMin">
                        <use xlink:href="#rim" fill="#404040">
                                <set attributeName="fill" to="#808080" begin="zoomminus.mouseover" end="zoomminus.mouseout"/>
                        </use>
                        <path d="M-4,0h8" fill="none" stroke="white" stroke-width="1.5" pointer-events="none"/>
                </g>
                <g id="dirArrow">
                        <path fill="none" stroke="white" stroke-width="1.5" d="M0,-3.0v7 M-2.5,-0.5L0,-3.0L2.5,-0.5"/>
                </g>
               <g id="resetDef">
                       <use xlink:href="#rim2" fill="#404040">
                               <set attributeName="fill" to="#808080" begin="reset.mouseover" end="reset.mouseout"/>
                       </use>
               </g>
        </defs>

<script type="text/javascript">
var viewWidth = 2996;
var viewHeight = 95;
var sectionId = 'dynsection-0';
</script>
<script xlink:href="svgpan.js"/>
<svg id="graph" class="graph">
<g id="viewport">
<title>NonConformalInfo.C</title>
<polygon fill="white" stroke="transparent" points="-4,4 -4,-91 2991.5,-91 2991.5,4 -4,4"/>
<!-- Node1 -->
<g id="node1" class="node">
<title>Node1</title>
<g id="a_node1"><a xlink:title=" ">
<polygon fill="#bfbfbf" stroke="black" points="1468.5,-67.5 1468.5,-86.5 1584.5,-86.5 1584.5,-67.5 1468.5,-67.5"/>
<text text-anchor="middle" x="1526.5" y="-74.5" font-family="Helvetica,sans-Serif" font-size="10.00">NonConformalInfo.C</text>
</a>
</g>
</g>
<!-- Node2 -->
<g id="node2" class="node">
<title>Node2</title>
<g id="a_node2"><a xlink:title=" ">
<polygon fill="white" stroke="#bfbfbf" points="0,-6 0,-25 115,-25 115,-6 0,-6"/>
<text text-anchor="middle" x="57.5" y="-13" font-family="Helvetica,sans-Serif" font-size="10.00">NonConformalInfo.h</text>
</a>
</g>
</g>
<!-- Node1&#45;&gt;Node2 -->
<g id="edge1" class="edge">
<title>Node1&#45;&gt;Node2</title>
<path fill="none" stroke="midnightblue" d="M1468.47,-75.54C1238.53,-73.49 390.97,-63.84 124.5,-31 116.86,-30.06 108.81,-28.67 101.03,-27.11"/>
<polygon fill="midnightblue" stroke="midnightblue" points="101.54,-23.65 91.04,-25 100.1,-30.49 101.54,-23.65"/>
</g>
<!-- Node3 -->
<g id="node3" class="node">
<title>Node3</title>
<g id="a_node3"><a xlink:title=" ">
<polygon fill="white" stroke="#bfbfbf" points="133.5,-6 133.5,-25 271.5,-25 271.5,-6 133.5,-6"/>
<text text-anchor="middle" x="202.5" y="-13" font-family="Helvetica,sans-Serif" font-size="10.00">NonConformalManager.h</text>
</a>
</g>
</g>
<!-- Node1&#45;&gt;Node3 -->
<g id="edge2" class="edge">
<title>Node1&#45;&gt;Node3</title>
<path fill="none" stroke="midnightblue" d="M1468.16,-75.04C1254.52,-71.33 515.15,-56.9 280.5,-31 271.25,-29.98 261.45,-28.49 252.03,-26.84"/>
<polygon fill="midnightblue" stroke="midnightblue" points="252.48,-23.37 242.01,-25.02 251.22,-30.25 252.48,-23.37"/>
</g>
<!-- Node4 -->
<g id="node4" class="node">
<title>Node4</title>
<g id="a_node4"><a xlink:title=" ">
<polygon fill="white" stroke="#bfbfbf" points="289.5,-6 289.5,-25 347.5,-25 347.5,-6 289.5,-6"/>
<text text-anchor="middle" x="318.5" y="-13" font-family="Helvetica,sans-Serif" font-size="10.00">DgInfo.h</text>
</a>
</g>
</g>
<!-- Node1&#45;&gt;Node4 -->
<g id="edge3" class="edge">
<title>Node1&#45;&gt;Node4</title>
<path fill="none" stroke="midnightblue" d="M1468.36,-76.26C1263.01,-76.78 572.59,-75.14 356.5,-31 353.42,-30.37 350.26,-29.52 347.14,-28.55"/>
<polygon fill="midnightblue" stroke="midnightblue" points="348.06,-25.16 337.47,-25.13 345.73,-31.76 348.06,-25.16"/>
</g>
<!-- Node5 -->
<g id="node5" class="node">
<title>Node5</title>
<g id="a_node5"><a xlink:title=" ">
<polygon fill="white" stroke="#bfbfbf" points="366,-6 366,-25 549,-25 549,-6 366,-6"/>
<text text-anchor="middle" x="457.5" y="-13" font-family="Helvetica,sans-Serif" font-size="10.00">master_element/MasterElement.h</text>
</a>
</g>
</g>
<!-- Node1&#45;&gt;Node5 -->
<g id="edge4" class="edge">
<title>Node1&#45;&gt;Node5</title>
<path fill="none" stroke="midnightblue" d="M1468.26,-75.24C1317.55,-72.86 902.47,-63.61 558.5,-31 546.05,-29.82 532.78,-28.19 520.09,-26.44"/>
<polygon fill="midnightblue" stroke="midnightblue" points="520.46,-22.96 510.07,-25.02 519.48,-29.89 520.46,-22.96"/>
</g>
<!-- Node6 -->
<g id="node6" class="node">
<title>Node6</title>
<g id="a_node6"><a xlink:title=" ">
<polygon fill="white" stroke="#bfbfbf" points="567.5,-0.5 567.5,-30.5 741.5,-30.5 741.5,-0.5 567.5,-0.5"/>
<text text-anchor="start" x="575.5" y="-18.5" font-family="Helvetica,sans-Serif" font-size="10.00">master_element/MasterElement</text>
<text text-anchor="middle" x="654.5" y="-7.5" font-family="Helvetica,sans-Serif" font-size="10.00">Repo.h</text>
</a>
</g>
</g>
<!-- Node1&#45;&gt;Node6 -->
<g id="edge5" class="edge">
<title>Node1&#45;&gt;Node6</title>
<path fill="none" stroke="midnightblue" d="M1468.43,-74.46C1340.73,-70.67 1025.75,-59.18 751.72,-31.06"/>
<polygon fill="midnightblue" stroke="midnightblue" points="751.88,-27.56 741.58,-30.01 751.16,-34.52 751.88,-27.56"/>
</g>
<!-- Node7 -->
<g id="node7" class="node">
<title>Node7</title>
<g id="a_node7"><a xlink:title=" ">
<polygon fill="white" stroke="#bfbfbf" points="760,-6 760,-25 817,-25 817,-6 760,-6"/>
<text text-anchor="middle" x="788.5" y="-13" font-family="Helvetica,sans-Serif" font-size="10.00">Realm.h</text>
</a>
</g>
</g>
<!-- Node1&#45;&gt;Node7 -->
<g id="edge6" class="edge">
<title>Node1&#45;&gt;Node7</title>
<path fill="none" stroke="midnightblue" d="M1468.38,-74.58C1323.18,-70.65 947.45,-58.12 825.5,-31 822.5,-30.33 819.42,-29.46 816.39,-28.47"/>
<polygon fill="midnightblue" stroke="midnightblue" points="817.56,-25.17 806.97,-25.03 815.16,-31.75 817.56,-25.17"/>
</g>
<!-- Node8 -->
<g id="node8" class="node">
<title>Node8</title>
<g id="a_node8"><a xlink:title=" ">
<polygon fill="white" stroke="#bfbfbf" points="835,-6 835,-25 900,-25 900,-6 835,-6"/>
<text text-anchor="middle" x="867.5" y="-13" font-family="Helvetica,sans-Serif" font-size="10.00">NaluEnv.h</text>
</a>
</g>
</g>
<!-- Node1&#45;&gt;Node8 -->
<g id="edge7" class="edge">
<title>Node1&#45;&gt;Node8</title>
<path fill="none" stroke="midnightblue" d="M1468.27,-76.9C1357.85,-77.48 1110.93,-73.37 908.5,-31 905.07,-30.28 901.54,-29.35 898.05,-28.3"/>
<polygon fill="midnightblue" stroke="midnightblue" points="899.06,-24.95 888.47,-25.13 896.86,-31.59 899.06,-24.95"/>
</g>
<!-- Node9 -->
<g id="node9" class="node">
<title>Node9</title>
<g id="a_node9"><a xlink:title=" ">
<polygon fill="white" stroke="#bfbfbf" points="918,-6 918,-25 1077,-25 1077,-6 918,-6"/>
<text text-anchor="middle" x="997.5" y="-13" font-family="Helvetica,sans-Serif" font-size="10.00">stk_mesh/base/BulkData.hpp</text>
</a>
</g>
</g>
<!-- Node1&#45;&gt;Node9 -->
<g id="edge8" class="edge">
<title>Node1&#45;&gt;Node9</title>
<path fill="none" stroke="midnightblue" d="M1468.22,-71.21C1383.7,-63.99 1222.24,-49.22 1085.5,-31 1075.93,-29.72 1065.8,-28.21 1055.96,-26.65"/>
<polygon fill="midnightblue" stroke="midnightblue" points="1056.26,-23.15 1045.83,-25.01 1055.15,-30.06 1056.26,-23.15"/>
</g>
<!-- Node10 -->
<g id="node10" class="node">
<title>Node10</title>
<g id="a_node10"><a xlink:title=" ">
<polygon fill="white" stroke="#bfbfbf" points="1095,-6 1095,-25 1232,-25 1232,-6 1095,-6"/>
<text text-anchor="middle" x="1163.5" y="-13" font-family="Helvetica,sans-Serif" font-size="10.00">stk_mesh/base/Field.hpp</text>
</a>
</g>
</g>
<!-- Node1&#45;&gt;Node10 -->
<g id="edge9" class="edge">
<title>Node1&#45;&gt;Node10</title>
<path fill="none" stroke="midnightblue" d="M1469.17,-67.5C1411.37,-58.8 1319.62,-44.67 1240.5,-31 1233.04,-29.71 1225.19,-28.3 1217.47,-26.88"/>
<polygon fill="midnightblue" stroke="midnightblue" points="1217.91,-23.4 1207.44,-25.01 1216.63,-30.28 1217.91,-23.4"/>
</g>
<!-- Node11 -->
<g id="node11" class="node">
<title>Node11</title>
<g id="a_node11"><a xlink:title=" ">
<polygon fill="white" stroke="#bfbfbf" points="1250,-6 1250,-25 1423,-25 1423,-6 1250,-6"/>
<text text-anchor="middle" x="1336.5" y="-13" font-family="Helvetica,sans-Serif" font-size="10.00">stk_mesh/base/FieldParallel.hpp</text>
</a>
</g>
</g>
<!-- Node1&#45;&gt;Node11 -->
<g id="edge10" class="edge">
<title>Node1&#45;&gt;Node11</title>
<path fill="none" stroke="midnightblue" d="M1499.28,-67.48C1466.26,-57.14 1410.46,-39.66 1373.55,-28.1"/>
<polygon fill="midnightblue" stroke="midnightblue" points="1374.26,-24.66 1363.67,-25.01 1372.17,-31.34 1374.26,-24.66"/>
</g>
<!-- Node12 -->
<g id="node12" class="node">
<title>Node12</title>
<g id="a_node12"><a xlink:title=" ">
<polygon fill="white" stroke="#bfbfbf" points="1441.5,-6 1441.5,-25 1611.5,-25 1611.5,-6 1441.5,-6"/>
<text text-anchor="middle" x="1526.5" y="-13" font-family="Helvetica,sans-Serif" font-size="10.00">stk_mesh/base/GetBuckets.hpp</text>
</a>
</g>
</g>
<!-- Node1&#45;&gt;Node12 -->
<g id="edge11" class="edge">
<title>Node1&#45;&gt;Node12</title>
<path fill="none" stroke="midnightblue" d="M1526.5,-67.48C1526.5,-59.08 1526.5,-45.98 1526.5,-35.16"/>
<polygon fill="midnightblue" stroke="midnightblue" points="1530,-35.01 1526.5,-25.01 1523,-35.01 1530,-35.01"/>
</g>
<!-- Node13 -->
<g id="node13" class="node">
<title>Node13</title>
<g id="a_node13"><a xlink:title=" ">
<polygon fill="white" stroke="#bfbfbf" points="1629.5,-6 1629.5,-25 1797.5,-25 1797.5,-6 1629.5,-6"/>
<text text-anchor="middle" x="1713.5" y="-13" font-family="Helvetica,sans-Serif" font-size="10.00">stk_mesh/base/GetEntities.hpp</text>
</a>
</g>
</g>
<!-- Node1&#45;&gt;Node13 -->
<g id="edge12" class="edge">
<title>Node1&#45;&gt;Node13</title>
<path fill="none" stroke="midnightblue" d="M1553.29,-67.48C1585.79,-57.14 1640.71,-39.66 1677.04,-28.1"/>
<polygon fill="midnightblue" stroke="midnightblue" points="1678.29,-31.38 1686.76,-25.01 1676.17,-24.71 1678.29,-31.38"/>
</g>
<!-- Node14 -->
<g id="node14" class="node">
<title>Node14</title>
<g id="a_node14"><a xlink:title=" ">
<polygon fill="white" stroke="#bfbfbf" points="1815.5,-6 1815.5,-25 1977.5,-25 1977.5,-6 1815.5,-6"/>
<text text-anchor="middle" x="1896.5" y="-13" font-family="Helvetica,sans-Serif" font-size="10.00">stk_mesh/base/MetaData.hpp</text>
</a>
</g>
</g>
<!-- Node1&#45;&gt;Node14 -->
<g id="edge13" class="edge">
<title>Node1&#45;&gt;Node14</title>
<path fill="none" stroke="midnightblue" d="M1579.66,-67.46C1635.98,-58.42 1727.51,-43.71 1806.5,-31 1815.24,-29.59 1824.46,-28.11 1833.53,-26.65"/>
<polygon fill="midnightblue" stroke="midnightblue" points="1834.36,-30.06 1843.68,-25.01 1833.25,-23.15 1834.36,-30.06"/>
</g>
<!-- Node15 -->
<g id="node15" class="node">
<title>Node15</title>
<g id="a_node15"><a xlink:title=" ">
<polygon fill="white" stroke="#bfbfbf" points="1996,-6 1996,-25 2129,-25 2129,-6 1996,-6"/>
<text text-anchor="middle" x="2062.5" y="-13" font-family="Helvetica,sans-Serif" font-size="10.00">stk_mesh/base/Part.hpp</text>
</a>
</g>
</g>
<!-- Node1&#45;&gt;Node15 -->
<g id="edge14" class="edge">
<title>Node1&#45;&gt;Node15</title>
<path fill="none" stroke="midnightblue" d="M1584.8,-72.01C1672.32,-65.62 1842.74,-51.7 1986.5,-31 1994.63,-29.83 2003.21,-28.39 2011.56,-26.88"/>
<polygon fill="midnightblue" stroke="midnightblue" points="2012.4,-30.28 2021.59,-25.01 2011.12,-23.4 2012.4,-30.28"/>
</g>
<!-- Node16 -->
<g id="node16" class="node">
<title>Node16</title>
<g id="a_node16"><a xlink:title=" ">
<polygon fill="white" stroke="#bfbfbf" points="2147,-0.5 2147,-30.5 2278,-30.5 2278,-0.5 2147,-0.5"/>
<text text-anchor="start" x="2155" y="-18.5" font-family="Helvetica,sans-Serif" font-size="10.00">stk_util/parallel/Parallel</text>
<text text-anchor="middle" x="2212.5" y="-7.5" font-family="Helvetica,sans-Serif" font-size="10.00">Reduce.hpp</text>
</a>
</g>
</g>
<!-- Node1&#45;&gt;Node16 -->
<g id="edge15" class="edge">
<title>Node1&#45;&gt;Node16</title>
<path fill="none" stroke="midnightblue" d="M1584.54,-74.06C1691.76,-69.96 1928.25,-58.56 2136.59,-31.16"/>
<polygon fill="midnightblue" stroke="midnightblue" points="2137.35,-34.59 2146.8,-29.8 2136.43,-27.65 2137.35,-34.59"/>
</g>
<!-- Node17 -->
<g id="node17" class="node">
<title>Node17</title>
<g id="a_node17"><a xlink:title=" ">
<polygon fill="white" stroke="#bfbfbf" points="2296.5,-6 2296.5,-25 2456.5,-25 2456.5,-6 2296.5,-6"/>
<text text-anchor="middle" x="2376.5" y="-13" font-family="Helvetica,sans-Serif" font-size="10.00">stk_search/CoarseSearch.hpp</text>
</a>
</g>
</g>
<!-- Node1&#45;&gt;Node17 -->
<g id="edge16" class="edge">
<title>Node1&#45;&gt;Node17</title>
<path fill="none" stroke="midnightblue" d="M1584.91,-74.59C1712.67,-71.04 2026.38,-59.91 2287.5,-31 2297.99,-29.84 2309.14,-28.28 2319.86,-26.62"/>
<polygon fill="midnightblue" stroke="midnightblue" points="2320.65,-30.04 2329.97,-25 2319.54,-23.13 2320.65,-30.04"/>
</g>
<!-- Node18 -->
<g id="node18" class="node">
<title>Node18</title>
<g id="a_node18"><a xlink:title=" ">
<polygon fill="white" stroke="#bfbfbf" points="2475,-6 2475,-25 2614,-25 2614,-6 2475,-6"/>
<text text-anchor="middle" x="2544.5" y="-13" font-family="Helvetica,sans-Serif" font-size="10.00">stk_search/IdentProc.hpp</text>
</a>
</g>
</g>
<!-- Node1&#45;&gt;Node18 -->
<g id="edge17" class="edge">
<title>Node1&#45;&gt;Node18</title>
<path fill="none" stroke="midnightblue" d="M1584.69,-75.91C1732.41,-75.09 2133.73,-69.22 2465.5,-31 2474.66,-29.95 2484.35,-28.47 2493.69,-26.86"/>
<polygon fill="midnightblue" stroke="midnightblue" points="2494.43,-30.28 2503.65,-25.07 2493.19,-23.39 2494.43,-30.28"/>
</g>
<!-- Node19 -->
<g id="node19" class="node">
<title>Node19</title>
<g id="a_node19"><a xlink:title=" ">
<polygon fill="white" stroke="#bfbfbf" points="2632,-6 2632,-25 2777,-25 2777,-6 2632,-6"/>
<text text-anchor="middle" x="2704.5" y="-13" font-family="Helvetica,sans-Serif" font-size="10.00">stk_topology/topology.hpp</text>
</a>
</g>
</g>
<!-- Node1&#45;&gt;Node19 -->
<g id="edge18" class="edge">
<title>Node1&#45;&gt;Node19</title>
<path fill="none" stroke="midnightblue" d="M1584.69,-76.39C1748.64,-76.91 2228.2,-74.29 2623.5,-31 2633.09,-29.95 2643.26,-28.44 2653.03,-26.8"/>
<polygon fill="midnightblue" stroke="midnightblue" points="2653.79,-30.22 2663.03,-25.04 2652.58,-23.32 2653.79,-30.22"/>
</g>
<!-- Node20 -->
<g id="node20" class="node">
<title>Node20</title>
<g id="a_node20"><a xlink:title=" ">
<polygon fill="white" stroke="#bfbfbf" points="2795,-6 2795,-25 2842,-25 2842,-6 2795,-6"/>
<text text-anchor="middle" x="2818.5" y="-13" font-family="Helvetica,sans-Serif" font-size="10.00">vector</text>
</a>
</g>
</g>
<!-- Node1&#45;&gt;Node20 -->
<g id="edge19" class="edge">
<title>Node1&#45;&gt;Node20</title>
<path fill="none" stroke="midnightblue" d="M1584.51,-75.25C1816.25,-72.08 2668.83,-58.62 2786.5,-31 2788.72,-30.48 2790.97,-29.8 2793.2,-29.02"/>
<polygon fill="midnightblue" stroke="midnightblue" points="2794.73,-32.18 2802.65,-25.15 2792.07,-25.7 2794.73,-32.18"/>
</g>
<!-- Node21 -->
<g id="node21" class="node">
<title>Node21</title>
<g id="a_node21"><a xlink:title=" ">
<polygon fill="white" stroke="#bfbfbf" points="2860,-6 2860,-25 2905,-25 2905,-6 2860,-6"/>
<text text-anchor="middle" x="2882.5" y="-13" font-family="Helvetica,sans-Serif" font-size="10.00">utility</text>
</a>
</g>
</g>
<!-- Node1&#45;&gt;Node21 -->
<g id="edge20" class="edge">
<title>Node1&#45;&gt;Node21</title>
<path fill="none" stroke="midnightblue" d="M1584.64,-75.4C1824.13,-72.74 2727.43,-60.8 2851.5,-31 2853.71,-30.47 2855.94,-29.78 2858.15,-28.98"/>
<polygon fill="midnightblue" stroke="midnightblue" points="2859.66,-32.14 2867.49,-25 2856.92,-25.7 2859.66,-32.14"/>
</g>
<!-- Node22 -->
<g id="node22" class="node">
<title>Node22</title>
<g id="a_node22"><a xlink:title=" ">
<polygon fill="white" stroke="#bfbfbf" points="2923.5,-6 2923.5,-25 2987.5,-25 2987.5,-6 2923.5,-6"/>
<text text-anchor="middle" x="2955.5" y="-13" font-family="Helvetica,sans-Serif" font-size="10.00">algorithm</text>
</a>
</g>
</g>
<!-- Node1&#45;&gt;Node22 -->
<g id="edge21" class="edge">
<title>Node1&#45;&gt;Node22</title>
<path fill="none" stroke="midnightblue" d="M1584.81,-75.17C1831.5,-71.49 2782.71,-55.82 2914.5,-31 2918.02,-30.34 2921.64,-29.42 2925.21,-28.37"/>
<polygon fill="midnightblue" stroke="midnightblue" points="2926.58,-31.6 2934.98,-25.14 2924.39,-24.96 2926.58,-31.6"/>
</g>
</g>
</svg>
        <g id="navigator" transform="translate(0 0)" fill="#404254">
                <rect fill="#f2f5e9" fill-opacity="0.5" stroke="#606060" stroke-width=".5" x="0" y="0" width="60" height="60"/>
                <use id="zoomplus" xlink:href="#zoomPlus" x="17" y="9" onmousedown="handleZoom(evt,'in')"/>
                <use id="zoomminus" xlink:href="#zoomMin" x="42" y="9" onmousedown="handleZoom(evt,'out')"/>
                <use id="reset" xlink:href="#resetDef" x="30" y="36" onmousedown="handleReset()"/>
                <g id="arrowUp" xlink:href="#dirArrow" transform="translate(30 24)" onmousedown="handlePan(0,-1)">
                  <use xlink:href="#rim" fill="#404040">
                        <set attributeName="fill" to="#808080" begin="arrowUp.mouseover" end="arrowUp.mouseout"/>
                  </use>
                  <path fill="none" stroke="white" stroke-width="1.5" d="M0,-3.0v7 M-2.5,-0.5L0,-3.0L2.5,-0.5"/>
                </g>
                <g id="arrowRight" xlink:href="#dirArrow" transform="rotate(90) translate(36 -43)" onmousedown="handlePan(1,0)">
                  <use xlink:href="#rim" fill="#404040">
                        <set attributeName="fill" to="#808080" begin="arrowRight.mouseover" end="arrowRight.mouseout"/>
                  </use>
                  <path fill="none" stroke="white" stroke-width="1.5" d="M0,-3.0v7 M-2.5,-0.5L0,-3.0L2.5,-0.5"/>
                </g>
                <g id="arrowDown" xlink:href="#dirArrow" transform="rotate(180) translate(-30 -48)" onmousedown="handlePan(0,1)">
                  <use xlink:href="#rim" fill="#404040">
                        <set attributeName="fill" to="#808080" begin="arrowDown.mouseover" end="arrowDown.mouseout"/>
                  </use>
                  <path fill="none" stroke="white" stroke-width="1.5" d="M0,-3.0v7 M-2.5,-0.5L0,-3.0L2.5,-0.5"/>
                </g>
                <g id="arrowLeft" xlink:href="#dirArrow" transform="rotate(270) translate(-36 17)" onmousedown="handlePan(-1,0)">
                  <use xlink:href="#rim" fill="#404040">
                        <set attributeName="fill" to="#808080" begin="arrowLeft.mouseover" end="arrowLeft.mouseout"/>
                  </use>
                  <path fill="none" stroke="white" stroke-width="1.5" d="M0,-3.0v7 M-2.5,-0.5L0,-3.0L2.5,-0.5"/>
                </g>
        </g>
        <svg viewBox="0 0 15 15" width="100%" height="30px" preserveAspectRatio="xMaxYMin meet">
         <g id="arrow_out" transform="scale(0.3 0.3)">
          <a xlink:href="_non_conformal_info_8_c__incl_org.svg" target="_base">
           <rect id="button" ry="5" rx="5" y="6" x="6" height="38" width="38"
                fill="#f2f5e9" fill-opacity="0.5" stroke="#606060" stroke-width="1.0"/>
           <path id="arrow"
             d="M 11.500037,31.436501 C 11.940474,20.09759 22.043105,11.32322 32.158766,21.979434 L 37.068811,17.246167 C 37.068811,17.246167 37.088388,32 37.088388,32 L 22.160133,31.978069 C 22.160133,31.978069 26.997745,27.140456 26.997745,27.140456 C 18.528582,18.264221 13.291696,25.230495 11.500037,31.436501 z"
             style="fill:#404040;"/>
          </a>
         </g>
        </svg>
</svg>
