<?xml version="1.0" encoding="UTF-8" standalone="no"?>
<!DOCTYPE svg PUBLIC "-//W3C//DTD SVG 1.1//EN"
 "http://www.w3.org/Graphics/SVG/1.1/DTD/svg11.dtd">
<!-- Generated by graphviz version 2.43.0 (0)
 -->
<!-- Title: OversetManager.C Pages: 1 -->
<svg width="1787pt" height="84pt"
 viewBox="0.00 0.00 1786.50 84.00" xmlns="http://www.w3.org/2000/svg" xmlns:xlink="http://www.w3.org/1999/xlink">
<g id="graph0" class="graph" transform="scale(1 1) rotate(0) translate(4 80)">
<title>OversetManager.C</title>
<polygon fill="white" stroke="transparent" points="-4,4 -4,-80 1782.5,-80 1782.5,4 -4,4"/>
<!-- Node1 -->
<g id="node1" class="node">
<title>Node1</title>
<g id="a_node1"><a xlink:title=" ">
<polygon fill="#bfbfbf" stroke="black" points="786.5,-56.5 786.5,-75.5 893.5,-75.5 893.5,-56.5 786.5,-56.5"/>
<text text-anchor="middle" x="840" y="-63.5" font-family="Helvetica,sans-Serif" font-size="10.00">OversetManager.C</text>
</a>
</g>
</g>
<!-- Node2 -->
<g id="node2" class="node">
<title>Node2</title>
<g id="a_node2"><a xlink:title=" ">
<polygon fill="white" stroke="#bfbfbf" points="0,-0.5 0,-19.5 146,-19.5 146,-0.5 0,-0.5"/>
<text text-anchor="middle" x="73" y="-7.5" font-family="Helvetica,sans-Serif" font-size="10.00">overset/OversetManager.h</text>
</a>
</g>
</g>
<!-- Node1&#45;&gt;Node2 -->
<g id="edge1" class="edge">
<title>Node1&#45;&gt;Node2</title>
<path fill="none" stroke="midnightblue" d="M786.21,-62.27C672.16,-56.3 397.42,-41.01 156.31,-20.08"/>
<polygon fill="midnightblue" stroke="midnightblue" points="156.57,-16.59 146.3,-19.21 155.96,-23.56 156.57,-16.59"/>
</g>
<!-- Node3 -->
<g id="node3" class="node">
<title>Node3</title>
<g id="a_node3"><a xlink:title=" ">
<polygon fill="white" stroke="#bfbfbf" points="164.5,-0.5 164.5,-19.5 221.5,-19.5 221.5,-0.5 164.5,-0.5"/>
<text text-anchor="middle" x="193" y="-7.5" font-family="Helvetica,sans-Serif" font-size="10.00">Realm.h</text>
</a>
</g>
</g>
<!-- Node1&#45;&gt;Node3 -->
<g id="edge2" class="edge">
<title>Node1&#45;&gt;Node3</title>
<path fill="none" stroke="midnightblue" d="M786.21,-64.01C681.18,-61.42 441.41,-52.36 231.56,-20.01"/>
<polygon fill="midnightblue" stroke="midnightblue" points="232.01,-16.53 221.59,-18.45 230.93,-23.45 232.01,-16.53"/>
</g>
<!-- Node4 -->
<g id="node4" class="node">
<title>Node4</title>
<g id="a_node4"><a xlink:title=" ">
<polygon fill="white" stroke="#bfbfbf" points="239.5,-0.5 239.5,-19.5 422.5,-19.5 422.5,-0.5 239.5,-0.5"/>
<text text-anchor="middle" x="331" y="-7.5" font-family="Helvetica,sans-Serif" font-size="10.00">master_element/MasterElement.h</text>
</a>
</g>
</g>
<!-- Node1&#45;&gt;Node4 -->
<g id="edge3" class="edge">
<title>Node1&#45;&gt;Node4</title>
<path fill="none" stroke="midnightblue" d="M786.49,-59.32C699.7,-50.12 527.29,-31.82 421.26,-20.58"/>
<polygon fill="midnightblue" stroke="midnightblue" points="421.53,-17.08 411.22,-19.51 420.79,-24.05 421.53,-17.08"/>
</g>
<!-- Node5 -->
<g id="node5" class="node">
<title>Node5</title>
<g id="a_node5"><a xlink:title=" ">
<polygon fill="white" stroke="#bfbfbf" points="441,-0.5 441,-19.5 563,-19.5 563,-0.5 441,-0.5"/>
<text text-anchor="middle" x="502" y="-7.5" font-family="Helvetica,sans-Serif" font-size="10.00">overset/OversetInfo.h</text>
</a>
</g>
</g>
<!-- Node1&#45;&gt;Node5 -->
<g id="edge4" class="edge">
<title>Node1&#45;&gt;Node5</title>
<path fill="none" stroke="midnightblue" d="M786.44,-56.44C726.37,-46.85 629.01,-31.29 565.24,-21.1"/>
<polygon fill="midnightblue" stroke="midnightblue" points="565.73,-17.64 555.31,-19.52 564.63,-24.55 565.73,-17.64"/>
</g>
<!-- Node6 -->
<g id="node6" class="node">
<title>Node6</title>
<g id="a_node6"><a xlink:title=" ">
<polygon fill="white" stroke="#bfbfbf" points="581.5,-0.5 581.5,-19.5 740.5,-19.5 740.5,-0.5 581.5,-0.5"/>
<text text-anchor="middle" x="661" y="-7.5" font-family="Helvetica,sans-Serif" font-size="10.00">stk_mesh/base/BulkData.hpp</text>
</a>
</g>
</g>
<!-- Node1&#45;&gt;Node6 -->
<g id="edge5" class="edge">
<title>Node1&#45;&gt;Node6</title>
<path fill="none" stroke="midnightblue" d="M811.64,-56.44C781.26,-47.28 732.89,-32.69 699.18,-22.52"/>
<polygon fill="midnightblue" stroke="midnightblue" points="699.82,-19.05 689.23,-19.52 697.79,-25.76 699.82,-19.05"/>
</g>
<!-- Node7 -->
<g id="node7" class="node">
<title>Node7</title>
<g id="a_node7"><a xlink:title=" ">
<polygon fill="white" stroke="#bfbfbf" points="759,-0.5 759,-19.5 921,-19.5 921,-0.5 759,-0.5"/>
<text text-anchor="middle" x="840" y="-7.5" font-family="Helvetica,sans-Serif" font-size="10.00">stk_mesh/base/MetaData.hpp</text>
</a>
</g>
</g>
<!-- Node1&#45;&gt;Node7 -->
<g id="edge6" class="edge">
<title>Node1&#45;&gt;Node7</title>
<path fill="none" stroke="midnightblue" d="M840,-56.08C840,-49.01 840,-38.86 840,-29.99"/>
<polygon fill="midnightblue" stroke="midnightblue" points="843.5,-29.75 840,-19.75 836.5,-29.75 843.5,-29.75"/>
</g>
<!-- Node8 -->
<g id="node8" class="node">
<title>Node8</title>
<g id="a_node8"><a xlink:title=" ">
<polygon fill="white" stroke="#bfbfbf" points="939.5,-0.5 939.5,-19.5 1076.5,-19.5 1076.5,-0.5 939.5,-0.5"/>
<text text-anchor="middle" x="1008" y="-7.5" font-family="Helvetica,sans-Serif" font-size="10.00">stk_mesh/base/Field.hpp</text>
</a>
</g>
</g>
<!-- Node1&#45;&gt;Node8 -->
<g id="edge7" class="edge">
<title>Node1&#45;&gt;Node8</title>
<path fill="none" stroke="midnightblue" d="M866.62,-56.44C895.01,-47.32 940.14,-32.81 971.75,-22.65"/>
<polygon fill="midnightblue" stroke="midnightblue" points="973.06,-25.91 981.5,-19.52 970.91,-19.24 973.06,-25.91"/>
</g>
<!-- Node9 -->
<g id="node9" class="node">
<title>Node9</title>
<g id="a_node9"><a xlink:title=" ">
<polygon fill="white" stroke="#bfbfbf" points="1094.5,-0.5 1094.5,-19.5 1267.5,-19.5 1267.5,-0.5 1094.5,-0.5"/>
<text text-anchor="middle" x="1181" y="-7.5" font-family="Helvetica,sans-Serif" font-size="10.00">stk_mesh/base/FieldParallel.hpp</text>
</a>
</g>
</g>
<!-- Node1&#45;&gt;Node9 -->
<g id="edge8" class="edge">
<title>Node1&#45;&gt;Node9</title>
<path fill="none" stroke="midnightblue" d="M893.66,-56.5C954.19,-46.92 1052.58,-31.34 1117.05,-21.13"/>
<polygon fill="midnightblue" stroke="midnightblue" points="1117.76,-24.56 1127.09,-19.54 1116.67,-17.64 1117.76,-24.56"/>
</g>
<!-- Node10 -->
<g id="node10" class="node">
<title>Node10</title>
<g id="a_node10"><a xlink:title=" ">
<polygon fill="white" stroke="#bfbfbf" points="1286,-0.5 1286,-19.5 1456,-19.5 1456,-0.5 1286,-0.5"/>
<text text-anchor="middle" x="1371" y="-7.5" font-family="Helvetica,sans-Serif" font-size="10.00">stk_mesh/base/GetBuckets.hpp</text>
</a>
</g>
</g>
<!-- Node1&#45;&gt;Node10 -->
<g id="edge9" class="edge">
<title>Node1&#45;&gt;Node10</title>
<path fill="none" stroke="midnightblue" d="M893.84,-59.53C983.71,-50.39 1165.4,-31.91 1276.83,-20.58"/>
<polygon fill="midnightblue" stroke="midnightblue" points="1277.46,-24.03 1287.05,-19.54 1276.75,-17.07 1277.46,-24.03"/>
</g>
<!-- Node11 -->
<g id="node11" class="node">
<title>Node11</title>
<g id="a_node11"><a xlink:title=" ">
<polygon fill="white" stroke="#bfbfbf" points="1474.5,-0.5 1474.5,-19.5 1607.5,-19.5 1607.5,-0.5 1474.5,-0.5"/>
<text text-anchor="middle" x="1541" y="-7.5" font-family="Helvetica,sans-Serif" font-size="10.00">stk_mesh/base/Part.hpp</text>
</a>
</g>
</g>
<!-- Node1&#45;&gt;Node11 -->
<g id="edge10" class="edge">
<title>Node1&#45;&gt;Node11</title>
<path fill="none" stroke="midnightblue" d="M893.58,-61.98C1000.09,-55.78 1246.22,-40.57 1464.26,-20.03"/>
<polygon fill="midnightblue" stroke="midnightblue" points="1464.67,-23.5 1474.29,-19.08 1464,-16.53 1464.67,-23.5"/>
</g>
<!-- Node12 -->
<g id="node12" class="node">
<title>Node12</title>
<g id="a_node12"><a xlink:title=" ">
<polygon fill="white" stroke="#bfbfbf" points="1625.5,-0.5 1625.5,-19.5 1778.5,-19.5 1778.5,-0.5 1625.5,-0.5"/>
<text text-anchor="middle" x="1702" y="-7.5" font-family="Helvetica,sans-Serif" font-size="10.00">stk_mesh/base/Selector.hpp</text>
</a>
</g>
</g>
<!-- Node1&#45;&gt;Node12 -->
<g id="edge11" class="edge">
<title>Node1&#45;&gt;Node12</title>
<path fill="none" stroke="midnightblue" d="M893.76,-62.77C1018.53,-57.4 1337.72,-42.58 1614.85,-20.14"/>
<polygon fill="midnightblue" stroke="midnightblue" points="1615.42,-23.61 1625.1,-19.31 1614.85,-16.63 1615.42,-23.61"/>
</g>
</g>
</svg>
