<?xml version="1.0" encoding="UTF-8" standalone="no"?>
<!DOCTYPE svg PUBLIC "-//W3C//DTD SVG 1.1//EN"
 "http://www.w3.org/Graphics/SVG/1.1/DTD/svg11.dtd">
<!-- Generated by graphviz version 2.43.0 (0)
 -->
<!-- Title: OversetConstraintBase.C Pages: 1 -->
<svg width="808pt" height="95pt"
 viewBox="0.00 0.00 807.50 95.00" xmlns="http://www.w3.org/2000/svg" xmlns:xlink="http://www.w3.org/1999/xlink">
<g id="graph0" class="graph" transform="scale(1 1) rotate(0) translate(4 91)">
<title>OversetConstraintBase.C</title>
<polygon fill="white" stroke="transparent" points="-4,4 -4,-91 803.5,-91 803.5,4 -4,4"/>
<!-- Node1 -->
<g id="node1" class="node">
<title>Node1</title>
<g id="a_node1"><a xlink:title=" ">
<polygon fill="#bfbfbf" stroke="black" points="369,-67.5 369,-86.5 508,-86.5 508,-67.5 369,-67.5"/>
<text text-anchor="middle" x="438.5" y="-74.5" font-family="Helvetica,sans-Serif" font-size="10.00">OversetConstraintBase.C</text>
</a>
</g>
</g>
<!-- Node2 -->
<g id="node2" class="node">
<title>Node2</title>
<g id="a_node2"><a xlink:title=" ">
<polygon fill="white" stroke="#bfbfbf" points="0,-0.5 0,-30.5 145,-30.5 145,-0.5 0,-0.5"/>
<text text-anchor="start" x="8" y="-18.5" font-family="Helvetica,sans-Serif" font-size="10.00">overset/OversetConstraint</text>
<text text-anchor="middle" x="72.5" y="-7.5" font-family="Helvetica,sans-Serif" font-size="10.00">Base.h</text>
</a>
</g>
</g>
<!-- Node1&#45;&gt;Node2 -->
<g id="edge1" class="edge">
<title>Node1&#45;&gt;Node2</title>
<path fill="none" stroke="midnightblue" d="M382.94,-67.5C327.84,-59 240.72,-45.37 155.48,-31.15"/>
<polygon fill="midnightblue" stroke="midnightblue" points="155.81,-27.65 145.37,-29.45 154.65,-34.56 155.81,-27.65"/>
</g>
<!-- Node3 -->
<g id="node3" class="node">
<title>Node3</title>
<g id="a_node3"><a xlink:title=" ">
<polygon fill="white" stroke="#bfbfbf" points="163.5,-6 163.5,-25 309.5,-25 309.5,-6 163.5,-6"/>
<text text-anchor="middle" x="236.5" y="-13" font-family="Helvetica,sans-Serif" font-size="10.00">overset/OversetManager.h</text>
</a>
</g>
</g>
<!-- Node1&#45;&gt;Node3 -->
<g id="edge2" class="edge">
<title>Node1&#45;&gt;Node3</title>
<path fill="none" stroke="midnightblue" d="M409.56,-67.48C374.23,-57.07 314.37,-39.44 275.14,-27.88"/>
<polygon fill="midnightblue" stroke="midnightblue" points="275.97,-24.48 265.39,-25.01 273.99,-31.19 275.97,-24.48"/>
</g>
<!-- Node4 -->
<g id="node4" class="node">
<title>Node4</title>
<g id="a_node4"><a xlink:title=" ">
<polygon fill="white" stroke="#bfbfbf" points="328,-6 328,-25 433,-25 433,-6 328,-6"/>
<text text-anchor="middle" x="380.5" y="-13" font-family="Helvetica,sans-Serif" font-size="10.00">EquationSystem.h</text>
</a>
</g>
</g>
<!-- Node1&#45;&gt;Node4 -->
<g id="edge3" class="edge">
<title>Node1&#45;&gt;Node4</title>
<path fill="none" stroke="midnightblue" d="M430.19,-67.48C421.32,-58.37 407.05,-43.74 396.08,-32.48"/>
<polygon fill="midnightblue" stroke="midnightblue" points="398.28,-29.73 388.79,-25.01 393.27,-34.61 398.28,-29.73"/>
</g>
<!-- Node5 -->
<g id="node5" class="node">
<title>Node5</title>
<g id="a_node5"><a xlink:title=" ">
<polygon fill="white" stroke="#bfbfbf" points="451.5,-6 451.5,-25 543.5,-25 543.5,-6 451.5,-6"/>
<text text-anchor="middle" x="497.5" y="-13" font-family="Helvetica,sans-Serif" font-size="10.00">LinearSystem.h</text>
</a>
</g>
</g>
<!-- Node1&#45;&gt;Node5 -->
<g id="edge4" class="edge">
<title>Node1&#45;&gt;Node5</title>
<path fill="none" stroke="midnightblue" d="M446.95,-67.48C456.07,-58.28 470.77,-43.46 481.98,-32.16"/>
<polygon fill="midnightblue" stroke="midnightblue" points="484.51,-34.57 489.06,-25.01 479.54,-29.65 484.51,-34.57"/>
</g>
<!-- Node6 -->
<g id="node6" class="node">
<title>Node6</title>
<g id="a_node6"><a xlink:title=" ">
<polygon fill="white" stroke="#bfbfbf" points="562,-6 562,-25 619,-25 619,-6 562,-6"/>
<text text-anchor="middle" x="590.5" y="-13" font-family="Helvetica,sans-Serif" font-size="10.00">Realm.h</text>
</a>
</g>
</g>
<!-- Node1&#45;&gt;Node6 -->
<g id="edge5" class="edge">
<title>Node1&#45;&gt;Node6</title>
<path fill="none" stroke="midnightblue" d="M460.28,-67.48C486.24,-57.31 529.81,-40.26 559.33,-28.7"/>
<polygon fill="midnightblue" stroke="midnightblue" points="560.73,-31.91 568.76,-25.01 558.17,-25.4 560.73,-31.91"/>
</g>
<!-- Node7 -->
<g id="node7" class="node">
<title>Node7</title>
<g id="a_node7"><a xlink:title=" ">
<polygon fill="white" stroke="#bfbfbf" points="637.5,-6 637.5,-25 799.5,-25 799.5,-6 637.5,-6"/>
<text text-anchor="middle" x="718.5" y="-13" font-family="Helvetica,sans-Serif" font-size="10.00">stk_mesh/base/MetaData.hpp</text>
</a>
</g>
</g>
<!-- Node1&#45;&gt;Node7 -->
<g id="edge6" class="edge">
<title>Node1&#45;&gt;Node7</title>
<path fill="none" stroke="midnightblue" d="M478.62,-67.48C528.62,-56.85 614.1,-38.68 668.37,-27.15"/>
<polygon fill="midnightblue" stroke="midnightblue" points="669.4,-30.51 678.46,-25.01 667.95,-23.66 669.4,-30.51"/>
</g>
</g>
</svg>
