<?xml version="1.0" encoding="UTF-8" standalone="no"?>
<!DOCTYPE svg PUBLIC "-//W3C//DTD SVG 1.1//EN"
 "http://www.w3.org/Graphics/SVG/1.1/DTD/svg11.dtd">
<!-- Generated by graphviz version 2.43.0 (0)
 -->
<!-- Title: PerturbedShearLayerAuxFunctions.C Pages: 1 -->
<svg width="522pt" height="95pt"
 viewBox="0.00 0.00 522.00 95.00" xmlns="http://www.w3.org/2000/svg" xmlns:xlink="http://www.w3.org/1999/xlink">
<g id="graph0" class="graph" transform="scale(1 1) rotate(0) translate(4 91)">
<title>PerturbedShearLayerAuxFunctions.C</title>
<polygon fill="white" stroke="transparent" points="-4,4 -4,-91 518,-91 518,4 -4,4"/>
<!-- Node1 -->
<g id="node1" class="node">
<title>Node1</title>
<g id="a_node1"><a xlink:title=" ">
<polygon fill="#bfbfbf" stroke="black" points="205,-67.5 205,-86.5 399,-86.5 399,-67.5 205,-67.5"/>
<text text-anchor="middle" x="302" y="-74.5" font-family="Helvetica,sans-Serif" font-size="10.00">PerturbedShearLayerAuxFunctions.C</text>
</a>
</g>
</g>
<!-- Node2 -->
<g id="node2" class="node">
<title>Node2</title>
<g id="a_node2"><a xlink:title=" ">
<polygon fill="white" stroke="#bfbfbf" points="0,-0.5 0,-30.5 146,-30.5 146,-0.5 0,-0.5"/>
<text text-anchor="start" x="8" y="-18.5" font-family="Helvetica,sans-Serif" font-size="10.00">user_functions/Perturbed</text>
<text text-anchor="middle" x="73" y="-7.5" font-family="Helvetica,sans-Serif" font-size="10.00">ShearLayerAuxFunctions.h</text>
</a>
</g>
</g>
<!-- Node1&#45;&gt;Node2 -->
<g id="edge1" class="edge">
<title>Node1&#45;&gt;Node2</title>
<path fill="none" stroke="midnightblue" d="M269.19,-67.48C234.77,-58.53 179.8,-44.25 136.79,-33.07"/>
<polygon fill="midnightblue" stroke="midnightblue" points="137.53,-29.65 126.97,-30.52 135.77,-36.43 137.53,-29.65"/>
</g>
<!-- Node3 -->
<g id="node3" class="node">
<title>Node3</title>
<g id="a_node3"><a xlink:title=" ">
<polygon fill="white" stroke="#bfbfbf" points="164,-6 164,-25 228,-25 228,-6 164,-6"/>
<text text-anchor="middle" x="196" y="-13" font-family="Helvetica,sans-Serif" font-size="10.00">algorithm</text>
</a>
</g>
</g>
<!-- Node1&#45;&gt;Node3 -->
<g id="edge2" class="edge">
<title>Node1&#45;&gt;Node3</title>
<path fill="none" stroke="midnightblue" d="M286.81,-67.48C269.34,-57.67 240.42,-41.43 219.92,-29.92"/>
<polygon fill="midnightblue" stroke="midnightblue" points="221.59,-26.85 211.16,-25.01 218.17,-32.96 221.59,-26.85"/>
</g>
<!-- Node4 -->
<g id="node4" class="node">
<title>Node4</title>
<g id="a_node4"><a xlink:title=" ">
<polygon fill="white" stroke="#bfbfbf" points="246.5,-6 246.5,-25 293.5,-25 293.5,-6 246.5,-6"/>
<text text-anchor="middle" x="270" y="-13" font-family="Helvetica,sans-Serif" font-size="10.00">cmath</text>
</a>
</g>
</g>
<!-- Node1&#45;&gt;Node4 -->
<g id="edge3" class="edge">
<title>Node1&#45;&gt;Node4</title>
<path fill="none" stroke="midnightblue" d="M297.42,-67.48C292.76,-58.82 285.41,-45.15 279.49,-34.15"/>
<polygon fill="midnightblue" stroke="midnightblue" points="282.4,-32.16 274.58,-25.01 276.23,-35.47 282.4,-32.16"/>
</g>
<!-- Node5 -->
<g id="node5" class="node">
<title>Node5</title>
<g id="a_node5"><a xlink:title=" ">
<polygon fill="white" stroke="#bfbfbf" points="311.5,-6 311.5,-25 358.5,-25 358.5,-6 311.5,-6"/>
<text text-anchor="middle" x="335" y="-13" font-family="Helvetica,sans-Serif" font-size="10.00">vector</text>
</a>
</g>
</g>
<!-- Node1&#45;&gt;Node5 -->
<g id="edge4" class="edge">
<title>Node1&#45;&gt;Node5</title>
<path fill="none" stroke="midnightblue" d="M306.73,-67.48C311.58,-58.73 319.27,-44.87 325.4,-33.81"/>
<polygon fill="midnightblue" stroke="midnightblue" points="328.49,-35.45 330.28,-25.01 322.37,-32.06 328.49,-35.45"/>
</g>
<!-- Node6 -->
<g id="node6" class="node">
<title>Node6</title>
<g id="a_node6"><a xlink:title=" ">
<polygon fill="white" stroke="#bfbfbf" points="376.5,-6 376.5,-25 441.5,-25 441.5,-6 376.5,-6"/>
<text text-anchor="middle" x="409" y="-13" font-family="Helvetica,sans-Serif" font-size="10.00">stdexcept</text>
</a>
</g>
</g>
<!-- Node1&#45;&gt;Node6 -->
<g id="edge5" class="edge">
<title>Node1&#45;&gt;Node6</title>
<path fill="none" stroke="midnightblue" d="M317.33,-67.48C334.97,-57.67 364.16,-41.43 384.86,-29.92"/>
<polygon fill="midnightblue" stroke="midnightblue" points="386.66,-32.93 393.7,-25.01 383.26,-26.81 386.66,-32.93"/>
</g>
<!-- Node7 -->
<g id="node7" class="node">
<title>Node7</title>
<g id="a_node7"><a xlink:title=" ">
<polygon fill="white" stroke="#bfbfbf" points="460,-6 460,-25 514,-25 514,-6 460,-6"/>
<text text-anchor="middle" x="487" y="-13" font-family="Helvetica,sans-Serif" font-size="10.00">random</text>
</a>
</g>
</g>
<!-- Node1&#45;&gt;Node7 -->
<g id="edge6" class="edge">
<title>Node1&#45;&gt;Node7</title>
<path fill="none" stroke="midnightblue" d="M333.08,-67.49C363.41,-58.98 410.72,-45.16 451,-31 452.91,-30.33 454.86,-29.62 456.83,-28.88"/>
<polygon fill="midnightblue" stroke="midnightblue" points="458.51,-31.98 466.56,-25.1 455.97,-25.46 458.51,-31.98"/>
</g>
</g>
</svg>
