<?xml version="1.0" encoding="UTF-8" standalone="no"?>
<!DOCTYPE svg PUBLIC "-//W3C//DTD SVG 1.1//EN"
 "http://www.w3.org/Graphics/SVG/1.1/DTD/svg11.dtd">
<!-- Generated by graphviz version 2.43.0 (0)
 -->
<!-- Title: ProjectedNodalGradientEquationSystem.C Pages: 1 -->
<svg width="4526pt" height="106pt"
 viewBox="0.00 0.00 4526.00 106.00" xmlns="http://www.w3.org/2000/svg" xmlns:xlink="http://www.w3.org/1999/xlink">
<g id="graph0" class="graph" transform="scale(1 1) rotate(0) translate(4 102)">
<title>ProjectedNodalGradientEquationSystem.C</title>
<polygon fill="white" stroke="transparent" points="-4,4 -4,-102 4522,-102 4522,4 -4,4"/>
<!-- Node1 -->
<g id="node1" class="node">
<title>Node1</title>
<g id="a_node1"><a xlink:title=" ">
<polygon fill="#bfbfbf" stroke="black" points="1862,-67.5 1862,-97.5 2038,-97.5 2038,-67.5 1862,-67.5"/>
<text text-anchor="start" x="1870" y="-85.5" font-family="Helvetica,sans-Serif" font-size="10.00">ProjectedNodalGradientEquation</text>
<text text-anchor="middle" x="1950" y="-74.5" font-family="Helvetica,sans-Serif" font-size="10.00">System.C</text>
</a>
</g>
</g>
<!-- Node2 -->
<g id="node2" class="node">
<title>Node2</title>
<g id="a_node2"><a xlink:title=" ">
<polygon fill="white" stroke="#bfbfbf" points="0,-0.5 0,-30.5 176,-30.5 176,-0.5 0,-0.5"/>
<text text-anchor="start" x="8" y="-18.5" font-family="Helvetica,sans-Serif" font-size="10.00">ProjectedNodalGradientEquation</text>
<text text-anchor="middle" x="88" y="-7.5" font-family="Helvetica,sans-Serif" font-size="10.00">System.h</text>
</a>
</g>
</g>
<!-- Node1&#45;&gt;Node2 -->
<g id="edge1" class="edge">
<title>Node1&#45;&gt;Node2</title>
<path fill="none" stroke="midnightblue" d="M1861.86,-80.38C1555.36,-76.26 536.19,-60.68 186.39,-31.03"/>
<polygon fill="midnightblue" stroke="midnightblue" points="186.5,-27.53 176.23,-30.15 185.89,-34.5 186.5,-27.53"/>
</g>
<!-- Node3 -->
<g id="node3" class="node">
<title>Node3</title>
<g id="a_node3"><a xlink:title=" ">
<polygon fill="white" stroke="#bfbfbf" points="194,-6 194,-25 392,-25 392,-6 194,-6"/>
<text text-anchor="middle" x="293" y="-13" font-family="Helvetica,sans-Serif" font-size="10.00">AssemblePNGElemSolverAlgorithm.h</text>
</a>
</g>
</g>
<!-- Node1&#45;&gt;Node3 -->
<g id="edge2" class="edge">
<title>Node1&#45;&gt;Node3</title>
<path fill="none" stroke="midnightblue" d="M1861.62,-81.73C1624.63,-81.69 955.38,-77.13 401,-31 387.19,-29.85 372.45,-28.17 358.43,-26.36"/>
<polygon fill="midnightblue" stroke="midnightblue" points="358.75,-22.87 348.38,-25.03 357.83,-29.81 358.75,-22.87"/>
</g>
<!-- Node4 -->
<g id="node4" class="node">
<title>Node4</title>
<g id="a_node4"><a xlink:title=" ">
<polygon fill="white" stroke="#bfbfbf" points="410.5,-0.5 410.5,-30.5 573.5,-30.5 573.5,-0.5 410.5,-0.5"/>
<text text-anchor="start" x="418.5" y="-18.5" font-family="Helvetica,sans-Serif" font-size="10.00">AssemblePNGBoundarySolver</text>
<text text-anchor="middle" x="492" y="-7.5" font-family="Helvetica,sans-Serif" font-size="10.00">Algorithm.h</text>
</a>
</g>
</g>
<!-- Node1&#45;&gt;Node4 -->
<g id="edge3" class="edge">
<title>Node1&#45;&gt;Node4</title>
<path fill="none" stroke="midnightblue" d="M1861.72,-81.99C1645.34,-82.38 1071.23,-78.53 583.91,-31.11"/>
<polygon fill="midnightblue" stroke="midnightblue" points="584.15,-27.62 573.86,-30.13 583.47,-34.59 584.15,-27.62"/>
</g>
<!-- Node5 -->
<g id="node5" class="node">
<title>Node5</title>
<g id="a_node5"><a xlink:title=" ">
<polygon fill="white" stroke="#bfbfbf" points="591.5,-0.5 591.5,-30.5 778.5,-30.5 778.5,-0.5 591.5,-0.5"/>
<text text-anchor="start" x="599.5" y="-18.5" font-family="Helvetica,sans-Serif" font-size="10.00">AssemblePNGNonConformalSolver</text>
<text text-anchor="middle" x="685" y="-7.5" font-family="Helvetica,sans-Serif" font-size="10.00">Algorithm.h</text>
</a>
</g>
</g>
<!-- Node1&#45;&gt;Node5 -->
<g id="edge4" class="edge">
<title>Node1&#45;&gt;Node5</title>
<path fill="none" stroke="midnightblue" d="M1861.9,-80.61C1669.1,-78.03 1195.17,-68.21 788.8,-31.11"/>
<polygon fill="midnightblue" stroke="midnightblue" points="788.89,-27.6 778.61,-30.17 788.25,-34.57 788.89,-27.6"/>
</g>
<!-- Node6 -->
<g id="node6" class="node">
<title>Node6</title>
<g id="a_node6"><a xlink:title=" ">
<polygon fill="white" stroke="#bfbfbf" points="796.5,-6 796.5,-25 901.5,-25 901.5,-6 796.5,-6"/>
<text text-anchor="middle" x="849" y="-13" font-family="Helvetica,sans-Serif" font-size="10.00">EquationSystem.h</text>
</a>
</g>
</g>
<!-- Node1&#45;&gt;Node6 -->
<g id="edge5" class="edge">
<title>Node1&#45;&gt;Node6</title>
<path fill="none" stroke="midnightblue" d="M1861.79,-79.27C1645.56,-73.47 1093.54,-56.57 911,-31 904.31,-30.06 897.27,-28.75 890.45,-27.28"/>
<polygon fill="midnightblue" stroke="midnightblue" points="891.18,-23.86 880.65,-25.07 889.63,-30.69 891.18,-23.86"/>
</g>
<!-- Node7 -->
<g id="node7" class="node">
<title>Node7</title>
<g id="a_node7"><a xlink:title=" ">
<polygon fill="white" stroke="#bfbfbf" points="920,-6 920,-25 1030,-25 1030,-6 920,-6"/>
<text text-anchor="middle" x="975" y="-13" font-family="Helvetica,sans-Serif" font-size="10.00">EquationSystems.h</text>
</a>
</g>
</g>
<!-- Node1&#45;&gt;Node7 -->
<g id="edge6" class="edge">
<title>Node1&#45;&gt;Node7</title>
<path fill="none" stroke="midnightblue" d="M1861.9,-81.5C1698.74,-80.42 1338.82,-72.97 1039,-31 1032.1,-30.03 1024.85,-28.7 1017.8,-27.24"/>
<polygon fill="midnightblue" stroke="midnightblue" points="1018.21,-23.74 1007.69,-25.01 1016.71,-30.58 1018.21,-23.74"/>
</g>
<!-- Node8 -->
<g id="node8" class="node">
<title>Node8</title>
<g id="a_node8"><a xlink:title=" ">
<polygon fill="white" stroke="#bfbfbf" points="1048.5,-6 1048.5,-25 1107.5,-25 1107.5,-6 1048.5,-6"/>
<text text-anchor="middle" x="1078" y="-13" font-family="Helvetica,sans-Serif" font-size="10.00">Enums.h</text>
</a>
</g>
</g>
<!-- Node1&#45;&gt;Node8 -->
<g id="edge7" class="edge">
<title>Node1&#45;&gt;Node8</title>
<path fill="none" stroke="midnightblue" d="M1861.89,-79.54C1677.45,-74.9 1256.2,-61.25 1116,-31 1112.92,-30.34 1109.77,-29.46 1106.65,-28.48"/>
<polygon fill="midnightblue" stroke="midnightblue" points="1107.58,-25.09 1096.99,-25.04 1105.24,-31.69 1107.58,-25.09"/>
</g>
<!-- Node9 -->
<g id="node9" class="node">
<title>Node9</title>
<g id="a_node9"><a xlink:title=" ">
<polygon fill="white" stroke="#bfbfbf" points="1125.5,-6 1125.5,-25 1220.5,-25 1220.5,-6 1125.5,-6"/>
<text text-anchor="middle" x="1173" y="-13" font-family="Helvetica,sans-Serif" font-size="10.00">FieldFunctions.h</text>
</a>
</g>
</g>
<!-- Node1&#45;&gt;Node9 -->
<g id="edge8" class="edge">
<title>Node1&#45;&gt;Node9</title>
<path fill="none" stroke="midnightblue" d="M1861.86,-80.39C1725.56,-77.53 1455.78,-67.34 1230,-31 1224.19,-30.06 1218.1,-28.82 1212.16,-27.44"/>
<polygon fill="midnightblue" stroke="midnightblue" points="1212.92,-24.02 1202.37,-25.04 1211.25,-30.82 1212.92,-24.02"/>
</g>
<!-- Node10 -->
<g id="node10" class="node">
<title>Node10</title>
<g id="a_node10"><a xlink:title=" ">
<polygon fill="white" stroke="#bfbfbf" points="1239,-6 1239,-25 1331,-25 1331,-6 1239,-6"/>
<text text-anchor="middle" x="1285" y="-13" font-family="Helvetica,sans-Serif" font-size="10.00">LinearSolvers.h</text>
</a>
</g>
</g>
<!-- Node1&#45;&gt;Node10 -->
<g id="edge9" class="edge">
<title>Node1&#45;&gt;Node10</title>
<path fill="none" stroke="midnightblue" d="M1861.76,-79.04C1742.59,-74.62 1523.93,-62.61 1340,-31 1334.59,-30.07 1328.93,-28.86 1323.39,-27.53"/>
<polygon fill="midnightblue" stroke="midnightblue" points="1324.17,-24.12 1313.62,-25.06 1322.46,-30.91 1324.17,-24.12"/>
</g>
<!-- Node11 -->
<g id="node11" class="node">
<title>Node11</title>
<g id="a_node11"><a xlink:title=" ">
<polygon fill="white" stroke="#bfbfbf" points="1349,-6 1349,-25 1435,-25 1435,-6 1349,-6"/>
<text text-anchor="middle" x="1392" y="-13" font-family="Helvetica,sans-Serif" font-size="10.00">LinearSolver.h</text>
</a>
</g>
</g>
<!-- Node1&#45;&gt;Node11 -->
<g id="edge10" class="edge">
<title>Node1&#45;&gt;Node11</title>
<path fill="none" stroke="midnightblue" d="M1861.59,-77.3C1760.08,-71.42 1588.9,-58.22 1444,-31 1439.19,-30.1 1434.17,-28.96 1429.24,-27.72"/>
<polygon fill="midnightblue" stroke="midnightblue" points="1429.88,-24.27 1419.32,-25.07 1428.08,-31.03 1429.88,-24.27"/>
</g>
<!-- Node12 -->
<g id="node12" class="node">
<title>Node12</title>
<g id="a_node12"><a xlink:title=" ">
<polygon fill="white" stroke="#bfbfbf" points="1453,-6 1453,-25 1545,-25 1545,-6 1453,-6"/>
<text text-anchor="middle" x="1499" y="-13" font-family="Helvetica,sans-Serif" font-size="10.00">LinearSystem.h</text>
</a>
</g>
</g>
<!-- Node1&#45;&gt;Node12 -->
<g id="edge11" class="edge">
<title>Node1&#45;&gt;Node12</title>
<path fill="none" stroke="midnightblue" d="M1861.79,-73.59C1781.18,-65.58 1658.94,-51.43 1554,-31 1548.92,-30.01 1543.62,-28.82 1538.39,-27.55"/>
<polygon fill="midnightblue" stroke="midnightblue" points="1539.08,-24.11 1528.52,-25.04 1537.35,-30.9 1539.08,-24.11"/>
</g>
<!-- Node13 -->
<g id="node13" class="node">
<title>Node13</title>
<g id="a_node13"><a xlink:title=" ">
<polygon fill="white" stroke="#bfbfbf" points="1563.5,-6 1563.5,-25 1628.5,-25 1628.5,-6 1563.5,-6"/>
<text text-anchor="middle" x="1596" y="-13" font-family="Helvetica,sans-Serif" font-size="10.00">NaluEnv.h</text>
</a>
</g>
</g>
<!-- Node1&#45;&gt;Node13 -->
<g id="edge12" class="edge">
<title>Node1&#45;&gt;Node13</title>
<path fill="none" stroke="midnightblue" d="M1861.77,-71.57C1798.58,-63.42 1711.8,-50.1 1637,-31 1633.95,-30.22 1630.81,-29.31 1627.69,-28.34"/>
<polygon fill="midnightblue" stroke="midnightblue" points="1628.5,-24.92 1617.9,-25.07 1626.28,-31.56 1628.5,-24.92"/>
</g>
<!-- Node14 -->
<g id="node14" class="node">
<title>Node14</title>
<g id="a_node14"><a xlink:title=" ">
<polygon fill="white" stroke="#bfbfbf" points="1646.5,-6 1646.5,-25 1703.5,-25 1703.5,-6 1646.5,-6"/>
<text text-anchor="middle" x="1675" y="-13" font-family="Helvetica,sans-Serif" font-size="10.00">Realm.h</text>
</a>
</g>
</g>
<!-- Node1&#45;&gt;Node14 -->
<g id="edge13" class="edge">
<title>Node1&#45;&gt;Node14</title>
<path fill="none" stroke="midnightblue" d="M1869.14,-67.48C1822.97,-58.68 1764.24,-46.14 1713,-31 1710.42,-30.24 1707.77,-29.38 1705.13,-28.48"/>
<polygon fill="midnightblue" stroke="midnightblue" points="1706.3,-25.18 1695.71,-25.07 1703.92,-31.76 1706.3,-25.18"/>
</g>
<!-- Node15 -->
<g id="node15" class="node">
<title>Node15</title>
<g id="a_node15"><a xlink:title=" ">
<polygon fill="white" stroke="#bfbfbf" points="1722,-6 1722,-25 1784,-25 1784,-6 1722,-6"/>
<text text-anchor="middle" x="1753" y="-13" font-family="Helvetica,sans-Serif" font-size="10.00">Realms.h</text>
</a>
</g>
</g>
<!-- Node1&#45;&gt;Node15 -->
<g id="edge14" class="edge">
<title>Node1&#45;&gt;Node15</title>
<path fill="none" stroke="midnightblue" d="M1904.85,-67.46C1873.4,-57.56 1830.52,-43.83 1793,-31 1790.61,-30.18 1788.15,-29.33 1785.68,-28.46"/>
<polygon fill="midnightblue" stroke="midnightblue" points="1786.81,-25.14 1776.22,-25.08 1784.46,-31.74 1786.81,-25.14"/>
</g>
<!-- Node16 -->
<g id="node16" class="node">
<title>Node16</title>
<g id="a_node16"><a xlink:title=" ">
<polygon fill="white" stroke="#bfbfbf" points="1802,-6 1802,-25 1880,-25 1880,-6 1802,-6"/>
<text text-anchor="middle" x="1841" y="-13" font-family="Helvetica,sans-Serif" font-size="10.00">Simulation.h</text>
</a>
</g>
</g>
<!-- Node1&#45;&gt;Node16 -->
<g id="edge15" class="edge">
<title>Node1&#45;&gt;Node16</title>
<path fill="none" stroke="midnightblue" d="M1926.35,-67.4C1907.82,-56.34 1882.19,-41.06 1863.86,-30.13"/>
<polygon fill="midnightblue" stroke="midnightblue" points="1865.65,-27.12 1855.27,-25.01 1862.06,-33.13 1865.65,-27.12"/>
</g>
<!-- Node17 -->
<g id="node17" class="node">
<title>Node17</title>
<g id="a_node17"><a xlink:title=" ">
<polygon fill="white" stroke="#bfbfbf" points="1898.5,-6 1898.5,-25 2001.5,-25 2001.5,-6 1898.5,-6"/>
<text text-anchor="middle" x="1950" y="-13" font-family="Helvetica,sans-Serif" font-size="10.00">SolutionOptions.h</text>
</a>
</g>
</g>
<!-- Node1&#45;&gt;Node17 -->
<g id="edge16" class="edge">
<title>Node1&#45;&gt;Node17</title>
<path fill="none" stroke="midnightblue" d="M1950,-67.4C1950,-58.06 1950,-45.71 1950,-35.52"/>
<polygon fill="midnightblue" stroke="midnightblue" points="1953.5,-35.19 1950,-25.19 1946.5,-35.19 1953.5,-35.19"/>
</g>
<!-- Node18 -->
<g id="node18" class="node">
<title>Node18</title>
<g id="a_node18"><a xlink:title=" ">
<polygon fill="white" stroke="#bfbfbf" points="2020,-6 2020,-25 2154,-25 2154,-6 2020,-6"/>
<text text-anchor="middle" x="2087" y="-13" font-family="Helvetica,sans-Serif" font-size="10.00">SolverAlgorithmDriver.h</text>
</a>
</g>
</g>
<!-- Node1&#45;&gt;Node18 -->
<g id="edge17" class="edge">
<title>Node1&#45;&gt;Node18</title>
<path fill="none" stroke="midnightblue" d="M1979.73,-67.4C2003.55,-56.09 2036.71,-40.36 2059.83,-29.39"/>
<polygon fill="midnightblue" stroke="midnightblue" points="2061.54,-32.46 2069.07,-25.01 2058.53,-26.13 2061.54,-32.46"/>
</g>
<!-- Node19 -->
<g id="node19" class="node">
<title>Node19</title>
<g id="a_node19"><a xlink:title=" ">
<polygon fill="white" stroke="#bfbfbf" points="2172.5,-6 2172.5,-25 2295.5,-25 2295.5,-6 2172.5,-6"/>
<text text-anchor="middle" x="2234" y="-13" font-family="Helvetica,sans-Serif" font-size="10.00">kernel/KernelBuilder.h</text>
</a>
</g>
</g>
<!-- Node1&#45;&gt;Node19 -->
<g id="edge18" class="edge">
<title>Node1&#45;&gt;Node19</title>
<path fill="none" stroke="midnightblue" d="M2011.27,-67.48C2063.95,-55.42 2138.81,-38.29 2186.9,-27.28"/>
<polygon fill="midnightblue" stroke="midnightblue" points="2187.77,-30.67 2196.74,-25.03 2186.21,-23.85 2187.77,-30.67"/>
</g>
<!-- Node20 -->
<g id="node20" class="node">
<title>Node20</title>
<g id="a_node20"><a xlink:title=" ">
<polygon fill="white" stroke="#bfbfbf" points="2313.5,-6 2313.5,-25 2472.5,-25 2472.5,-6 2313.5,-6"/>
<text text-anchor="middle" x="2393" y="-13" font-family="Helvetica,sans-Serif" font-size="10.00">stk_mesh/base/BulkData.hpp</text>
</a>
</g>
</g>
<!-- Node1&#45;&gt;Node20 -->
<g id="edge19" class="edge">
<title>Node1&#45;&gt;Node20</title>
<path fill="none" stroke="midnightblue" d="M2038.34,-69.48C2110.22,-59.57 2214.24,-44.93 2305,-31 2313.78,-29.65 2323.05,-28.18 2332.15,-26.71"/>
<polygon fill="midnightblue" stroke="midnightblue" points="2333,-30.11 2342.31,-25.05 2331.87,-23.2 2333,-30.11"/>
</g>
<!-- Node21 -->
<g id="node21" class="node">
<title>Node21</title>
<g id="a_node21"><a xlink:title=" ">
<polygon fill="white" stroke="#bfbfbf" points="2490.5,-6 2490.5,-25 2627.5,-25 2627.5,-6 2490.5,-6"/>
<text text-anchor="middle" x="2559" y="-13" font-family="Helvetica,sans-Serif" font-size="10.00">stk_mesh/base/Field.hpp</text>
</a>
</g>
</g>
<!-- Node1&#45;&gt;Node21 -->
<g id="edge20" class="edge">
<title>Node1&#45;&gt;Node21</title>
<path fill="none" stroke="midnightblue" d="M2038.31,-75.6C2144.09,-67.96 2326.52,-52.97 2482,-31 2490.33,-29.82 2499.12,-28.37 2507.67,-26.84"/>
<polygon fill="midnightblue" stroke="midnightblue" points="2508.35,-30.27 2517.56,-25.02 2507.09,-23.39 2508.35,-30.27"/>
</g>
<!-- Node22 -->
<g id="node22" class="node">
<title>Node22</title>
<g id="a_node22"><a xlink:title=" ">
<polygon fill="white" stroke="#bfbfbf" points="2645.5,-6 2645.5,-25 2818.5,-25 2818.5,-6 2645.5,-6"/>
<text text-anchor="middle" x="2732" y="-13" font-family="Helvetica,sans-Serif" font-size="10.00">stk_mesh/base/FieldParallel.hpp</text>
</a>
</g>
</g>
<!-- Node1&#45;&gt;Node22 -->
<g id="edge21" class="edge">
<title>Node1&#45;&gt;Node22</title>
<path fill="none" stroke="midnightblue" d="M2038.05,-77.23C2168.95,-70.39 2422.5,-55.22 2637,-31 2647.92,-29.77 2659.5,-28.21 2670.69,-26.58"/>
<polygon fill="midnightblue" stroke="midnightblue" points="2671.45,-30 2680.82,-25.06 2670.41,-23.08 2671.45,-30"/>
</g>
<!-- Node23 -->
<g id="node23" class="node">
<title>Node23</title>
<g id="a_node23"><a xlink:title=" ">
<polygon fill="white" stroke="#bfbfbf" points="2837,-6 2837,-25 3007,-25 3007,-6 2837,-6"/>
<text text-anchor="middle" x="2922" y="-13" font-family="Helvetica,sans-Serif" font-size="10.00">stk_mesh/base/GetBuckets.hpp</text>
</a>
</g>
</g>
<!-- Node1&#45;&gt;Node23 -->
<g id="edge22" class="edge">
<title>Node1&#45;&gt;Node23</title>
<path fill="none" stroke="midnightblue" d="M2038.08,-79.22C2196.51,-74.5 2539.89,-61.44 2828,-31 2839.06,-29.83 2850.81,-28.27 2862.13,-26.61"/>
<polygon fill="midnightblue" stroke="midnightblue" points="2862.99,-30.02 2872.36,-25.07 2861.95,-23.1 2862.99,-30.02"/>
</g>
<!-- Node24 -->
<g id="node24" class="node">
<title>Node24</title>
<g id="a_node24"><a xlink:title=" ">
<polygon fill="white" stroke="#bfbfbf" points="3025,-6 3025,-25 3193,-25 3193,-6 3025,-6"/>
<text text-anchor="middle" x="3109" y="-13" font-family="Helvetica,sans-Serif" font-size="10.00">stk_mesh/base/GetEntities.hpp</text>
</a>
</g>
</g>
<!-- Node1&#45;&gt;Node24 -->
<g id="edge23" class="edge">
<title>Node1&#45;&gt;Node24</title>
<path fill="none" stroke="midnightblue" d="M2038.33,-80.52C2221.22,-77.78 2654.48,-67.64 3016,-31 3027.32,-29.85 3039.36,-28.26 3050.89,-26.54"/>
<polygon fill="midnightblue" stroke="midnightblue" points="3051.5,-29.99 3060.86,-25.01 3050.44,-23.07 3051.5,-29.99"/>
</g>
<!-- Node25 -->
<g id="node25" class="node">
<title>Node25</title>
<g id="a_node25"><a xlink:title=" ">
<polygon fill="white" stroke="#bfbfbf" points="3211,-6 3211,-25 3373,-25 3373,-6 3211,-6"/>
<text text-anchor="middle" x="3292" y="-13" font-family="Helvetica,sans-Serif" font-size="10.00">stk_mesh/base/MetaData.hpp</text>
</a>
</g>
</g>
<!-- Node1&#45;&gt;Node25 -->
<g id="edge24" class="edge">
<title>Node1&#45;&gt;Node25</title>
<path fill="none" stroke="midnightblue" d="M2038.29,-81.55C2243.24,-80.89 2766.93,-74.66 3202,-31 3212.97,-29.9 3224.64,-28.32 3235.81,-26.61"/>
<polygon fill="midnightblue" stroke="midnightblue" points="3236.56,-30.04 3245.89,-25.01 3235.47,-23.12 3236.56,-30.04"/>
</g>
<!-- Node26 -->
<g id="node26" class="node">
<title>Node26</title>
<g id="a_node26"><a xlink:title=" ">
<polygon fill="white" stroke="#bfbfbf" points="3391.5,-6 3391.5,-25 3552.5,-25 3552.5,-6 3391.5,-6"/>
<text text-anchor="middle" x="3472" y="-13" font-family="Helvetica,sans-Serif" font-size="10.00">stk_mesh/base/SkinMesh.hpp</text>
</a>
</g>
</g>
<!-- Node1&#45;&gt;Node26 -->
<g id="edge25" class="edge">
<title>Node1&#45;&gt;Node26</title>
<path fill="none" stroke="midnightblue" d="M2038.25,-82.2C2263,-83.16 2875.07,-80.58 3382,-31 3392.97,-29.93 3404.64,-28.36 3415.81,-26.66"/>
<polygon fill="midnightblue" stroke="midnightblue" points="3416.57,-30.08 3425.9,-25.06 3415.47,-23.17 3416.57,-30.08"/>
</g>
<!-- Node27 -->
<g id="node27" class="node">
<title>Node27</title>
<g id="a_node27"><a xlink:title=" ">
<polygon fill="white" stroke="#bfbfbf" points="3571,-6 3571,-25 3717,-25 3717,-6 3571,-6"/>
<text text-anchor="middle" x="3644" y="-13" font-family="Helvetica,sans-Serif" font-size="10.00">stk_mesh/base/Comm.hpp</text>
</a>
</g>
</g>
<!-- Node1&#45;&gt;Node27 -->
<g id="edge26" class="edge">
<title>Node1&#45;&gt;Node27</title>
<path fill="none" stroke="midnightblue" d="M2038.01,-80.41C2329.64,-76.54 3262.69,-61.99 3562,-31 3571.92,-29.97 3582.45,-28.45 3592.54,-26.76"/>
<polygon fill="midnightblue" stroke="midnightblue" points="3593.19,-30.2 3602.45,-25.04 3592,-23.31 3593.19,-30.2"/>
</g>
<!-- Node28 -->
<g id="node28" class="node">
<title>Node28</title>
<g id="a_node28"><a xlink:title=" ">
<polygon fill="white" stroke="#bfbfbf" points="3735.5,-6 3735.5,-25 3856.5,-25 3856.5,-6 3735.5,-6"/>
<text text-anchor="middle" x="3796" y="-13" font-family="Helvetica,sans-Serif" font-size="10.00">stk_io/IossBridge.hpp</text>
</a>
</g>
</g>
<!-- Node1&#45;&gt;Node28 -->
<g id="edge27" class="edge">
<title>Node1&#45;&gt;Node28</title>
<path fill="none" stroke="midnightblue" d="M2038.22,-81.04C2349.23,-79.12 3393.68,-69.84 3726,-31 3734.15,-30.05 3742.76,-28.62 3751.05,-27.03"/>
<polygon fill="midnightblue" stroke="midnightblue" points="3751.84,-30.44 3760.95,-25.02 3750.45,-23.58 3751.84,-30.44"/>
</g>
<!-- Node29 -->
<g id="node29" class="node">
<title>Node29</title>
<g id="a_node29"><a xlink:title=" ">
<polygon fill="white" stroke="#bfbfbf" points="3874.5,-6 3874.5,-25 4019.5,-25 4019.5,-6 3874.5,-6"/>
<text text-anchor="middle" x="3947" y="-13" font-family="Helvetica,sans-Serif" font-size="10.00">stk_topology/topology.hpp</text>
</a>
</g>
</g>
<!-- Node1&#45;&gt;Node29 -->
<g id="edge28" class="edge">
<title>Node1&#45;&gt;Node29</title>
<path fill="none" stroke="midnightblue" d="M2038.01,-80.94C2364.26,-78.61 3504.35,-67.92 3866,-31 3875.91,-29.99 3886.44,-28.45 3896.5,-26.75"/>
<polygon fill="midnightblue" stroke="midnightblue" points="3897.14,-30.19 3906.38,-25.01 3895.92,-23.3 3897.14,-30.19"/>
</g>
<!-- Node30 -->
<g id="node30" class="node">
<title>Node30</title>
<g id="a_node30"><a xlink:title=" ">
<polygon fill="white" stroke="#bfbfbf" points="4038,-6 4038,-25 4190,-25 4190,-6 4038,-6"/>
<text text-anchor="middle" x="4114" y="-13" font-family="Helvetica,sans-Serif" font-size="10.00">stk_util/parallel/Parallel.hpp</text>
</a>
</g>
</g>
<!-- Node1&#45;&gt;Node30 -->
<g id="edge29" class="edge">
<title>Node1&#45;&gt;Node30</title>
<path fill="none" stroke="midnightblue" d="M2038.03,-81.06C2381.72,-79.08 3633.59,-69.33 4029,-31 4039.5,-29.98 4050.66,-28.43 4061.32,-26.7"/>
<polygon fill="midnightblue" stroke="midnightblue" points="4062.08,-30.13 4071.36,-25.02 4060.91,-23.22 4062.08,-30.13"/>
</g>
<!-- Node31 -->
<g id="node31" class="node">
<title>Node31</title>
<g id="a_node31"><a xlink:title=" ">
<polygon fill="white" stroke="#bfbfbf" points="4208.5,-0.5 4208.5,-30.5 4339.5,-30.5 4339.5,-0.5 4208.5,-0.5"/>
<text text-anchor="start" x="4216.5" y="-18.5" font-family="Helvetica,sans-Serif" font-size="10.00">stk_util/parallel/Parallel</text>
<text text-anchor="middle" x="4274" y="-7.5" font-family="Helvetica,sans-Serif" font-size="10.00">Reduce.hpp</text>
</a>
</g>
</g>
<!-- Node1&#45;&gt;Node31 -->
<g id="edge30" class="edge">
<title>Node1&#45;&gt;Node31</title>
<path fill="none" stroke="midnightblue" d="M2038.1,-81.51C2396.68,-81.23 3748.25,-77.13 4198.11,-30.93"/>
<polygon fill="midnightblue" stroke="midnightblue" points="4198.66,-34.39 4208.24,-29.86 4197.93,-27.43 4198.66,-34.39"/>
</g>
<!-- Node32 -->
<g id="node32" class="node">
<title>Node32</title>
<g id="a_node32"><a xlink:title=" ">
<polygon fill="white" stroke="#bfbfbf" points="4358,-0.5 4358,-30.5 4518,-30.5 4518,-0.5 4358,-0.5"/>
<text text-anchor="start" x="4366" y="-18.5" font-family="Helvetica,sans-Serif" font-size="10.00">overset/UpdateOversetFringe</text>
<text text-anchor="middle" x="4438" y="-7.5" font-family="Helvetica,sans-Serif" font-size="10.00">AlgorithmDriver.h</text>
</a>
</g>
</g>
<!-- Node1&#45;&gt;Node32 -->
<g id="edge31" class="edge">
<title>Node1&#45;&gt;Node32</title>
<path fill="none" stroke="midnightblue" d="M2038.15,-81.3C2411.68,-80.22 3866.42,-73.36 4347.39,-31.04"/>
<polygon fill="midnightblue" stroke="midnightblue" points="4347.89,-34.51 4357.53,-30.13 4347.26,-27.54 4347.89,-34.51"/>
</g>
</g>
</svg>
