<?xml version="1.0" encoding="UTF-8" standalone="no"?>
<!DOCTYPE svg PUBLIC "-//W3C//DTD SVG 1.1//EN"
 "http://www.w3.org/Graphics/SVG/1.1/DTD/svg11.dtd">
<!-- Generated by graphviz version 2.43.0 (0)
 -->
<!-- Title: PromoteElement.C Pages: 1 -->
<!--zoomable 95 -->
<svg id="main" version="1.1" xmlns="http://www.w3.org/2000/svg" xmlns:xlink="http://www.w3.org/1999/xlink" xml:space="preserve" onload="init(evt)">
<style type="text/css"><![CDATA[
.edge:hover path { stroke: red; }
.edge:hover polygon { stroke: red; fill: red; }
]]></style>
<script type="text/javascript"><![CDATA[
var edges = document.getElementsByTagName('g');
if (edges && edges.length) {
  for (var i=0;i<edges.length;i++) {
    if (edges[i].id.substr(0,4)=='edge') {
      edges[i].setAttribute('class','edge');
    }
  }
}
]]></script>
        <defs>
                <circle id="rim" cx="0" cy="0" r="7"/>
                <circle id="rim2" cx="0" cy="0" r="3.5"/>
                <g id="zoomPlus">
                        <use xlink:href="#rim" fill="#404040">
                                <set attributeName="fill" to="#808080" begin="zoomplus.mouseover" end="zoomplus.mouseout"/>
                        </use>
                        <path d="M-4,0h8M0,-4v8" fill="none" stroke="white" stroke-width="1.5" pointer-events="none"/>
                </g>
                <g id="zoomMin">
                        <use xlink:href="#rim" fill="#404040">
                                <set attributeName="fill" to="#808080" begin="zoomminus.mouseover" end="zoomminus.mouseout"/>
                        </use>
                        <path d="M-4,0h8" fill="none" stroke="white" stroke-width="1.5" pointer-events="none"/>
                </g>
                <g id="dirArrow">
                        <path fill="none" stroke="white" stroke-width="1.5" d="M0,-3.0v7 M-2.5,-0.5L0,-3.0L2.5,-0.5"/>
                </g>
               <g id="resetDef">
                       <use xlink:href="#rim2" fill="#404040">
                               <set attributeName="fill" to="#808080" begin="reset.mouseover" end="reset.mouseout"/>
                       </use>
               </g>
        </defs>

<script type="text/javascript">
var viewWidth = 4216;
var viewHeight = 95;
var sectionId = 'dynsection-0';
</script>
<script xlink:href="svgpan.js"/>
<svg id="graph" class="graph">
<g id="viewport">
<title>PromoteElement.C</title>
<polygon fill="white" stroke="transparent" points="-4,4 -4,-91 4211.5,-91 4211.5,4 -4,4"/>
<!-- Node1 -->
<g id="node1" class="node">
<title>Node1</title>
<g id="a_node1"><a xlink:title=" ">
<polygon fill="#bfbfbf" stroke="black" points="2237.5,-67.5 2237.5,-86.5 2345.5,-86.5 2345.5,-67.5 2237.5,-67.5"/>
<text text-anchor="middle" x="2291.5" y="-74.5" font-family="Helvetica,sans-Serif" font-size="10.00">PromoteElement.C</text>
</a>
</g>
</g>
<!-- Node2 -->
<g id="node2" class="node">
<title>Node2</title>
<g id="a_node2"><a xlink:title=" ">
<polygon fill="white" stroke="#bfbfbf" points="0,-0.5 0,-30.5 157,-30.5 157,-0.5 0,-0.5"/>
<text text-anchor="start" x="8" y="-18.5" font-family="Helvetica,sans-Serif" font-size="10.00">element_promotion/Promote</text>
<text text-anchor="middle" x="78.5" y="-7.5" font-family="Helvetica,sans-Serif" font-size="10.00">Element.h</text>
</a>
</g>
</g>
<!-- Node1&#45;&gt;Node2 -->
<g id="edge1" class="edge">
<title>Node1&#45;&gt;Node2</title>
<path fill="none" stroke="midnightblue" d="M2237.24,-75.91C1950.27,-75.28 606.46,-70.29 167.36,-31.06"/>
<polygon fill="midnightblue" stroke="midnightblue" points="167.43,-27.56 157.15,-30.13 166.79,-34.53 167.43,-27.56"/>
</g>
<!-- Node3 -->
<g id="node3" class="node">
<title>Node3</title>
<g id="a_node3"><a xlink:title=" ">
<polygon fill="white" stroke="#bfbfbf" points="175,-0.5 175,-30.5 338,-30.5 338,-0.5 175,-0.5"/>
<text text-anchor="start" x="183" y="-18.5" font-family="Helvetica,sans-Serif" font-size="10.00">element_promotion/Promoted</text>
<text text-anchor="middle" x="256.5" y="-7.5" font-family="Helvetica,sans-Serif" font-size="10.00">PartHelper.h</text>
</a>
</g>
</g>
<!-- Node1&#45;&gt;Node3 -->
<g id="edge2" class="edge">
<title>Node1&#45;&gt;Node3</title>
<path fill="none" stroke="midnightblue" d="M2237.43,-75.75C1965.99,-74.33 749.51,-66.16 348.54,-31.09"/>
<polygon fill="midnightblue" stroke="midnightblue" points="348.63,-27.58 338.36,-30.17 348,-34.55 348.63,-27.58"/>
</g>
<!-- Node4 -->
<g id="node4" class="node">
<title>Node4</title>
<g id="a_node4"><a xlink:title=" ">
<polygon fill="white" stroke="#bfbfbf" points="356,-0.5 356,-30.5 513,-30.5 513,-0.5 356,-0.5"/>
<text text-anchor="start" x="364" y="-18.5" font-family="Helvetica,sans-Serif" font-size="10.00">element_promotion/Promote</text>
<text text-anchor="middle" x="434.5" y="-7.5" font-family="Helvetica,sans-Serif" font-size="10.00">ElementImpl.h</text>
</a>
</g>
</g>
<!-- Node1&#45;&gt;Node4 -->
<g id="edge3" class="edge">
<title>Node1&#45;&gt;Node4</title>
<path fill="none" stroke="midnightblue" d="M2237.24,-75.64C1980.71,-73.8 887.25,-64.17 523.19,-31.05"/>
<polygon fill="midnightblue" stroke="midnightblue" points="523.44,-27.56 513.16,-30.12 522.79,-34.53 523.44,-27.56"/>
</g>
<!-- Node5 -->
<g id="node5" class="node">
<title>Node5</title>
<g id="a_node5"><a xlink:title=" ">
<polygon fill="white" stroke="#bfbfbf" points="531,-6 531,-25 596,-25 596,-6 531,-6"/>
<text text-anchor="middle" x="563.5" y="-13" font-family="Helvetica,sans-Serif" font-size="10.00">NaluEnv.h</text>
</a>
</g>
</g>
<!-- Node1&#45;&gt;Node5 -->
<g id="edge4" class="edge">
<title>Node1&#45;&gt;Node5</title>
<path fill="none" stroke="midnightblue" d="M2237.34,-75.54C1966.87,-73.09 768.91,-60.66 605.5,-31 601.6,-30.29 597.57,-29.28 593.62,-28.12"/>
<polygon fill="midnightblue" stroke="midnightblue" points="594.69,-24.79 584.1,-25.01 592.52,-31.45 594.69,-24.79"/>
</g>
<!-- Node6 -->
<g id="node6" class="node">
<title>Node6</title>
<g id="a_node6"><a xlink:title=" ">
<polygon fill="white" stroke="#bfbfbf" points="614.5,-6 614.5,-25 696.5,-25 696.5,-6 614.5,-6"/>
<text text-anchor="middle" x="655.5" y="-13" font-family="Helvetica,sans-Serif" font-size="10.00">BucketLoop.h</text>
</a>
</g>
</g>
<!-- Node1&#45;&gt;Node6 -->
<g id="edge5" class="edge">
<title>Node1&#45;&gt;Node6</title>
<path fill="none" stroke="midnightblue" d="M2237.23,-76.31C1994.88,-77.39 1010.13,-78.7 705.5,-31 700.57,-30.23 695.44,-29.11 690.43,-27.84"/>
<polygon fill="midnightblue" stroke="midnightblue" points="690.97,-24.36 680.4,-25.07 689.1,-31.11 690.97,-24.36"/>
</g>
<!-- Node7 -->
<g id="node7" class="node">
<title>Node7</title>
<g id="a_node7"><a xlink:title=" ">
<polygon fill="white" stroke="#bfbfbf" points="715,-6 715,-25 874,-25 874,-6 715,-6"/>
<text text-anchor="middle" x="794.5" y="-13" font-family="Helvetica,sans-Serif" font-size="10.00">stk_mesh/base/BulkData.hpp</text>
</a>
</g>
</g>
<!-- Node1&#45;&gt;Node7 -->
<g id="edge6" class="edge">
<title>Node1&#45;&gt;Node7</title>
<path fill="none" stroke="midnightblue" d="M2237.13,-75.21C2012.17,-71.77 1153.4,-57.19 883.5,-31 872.52,-29.94 860.85,-28.36 849.69,-26.63"/>
<polygon fill="midnightblue" stroke="midnightblue" points="850.06,-23.15 839.63,-25.02 848.95,-30.06 850.06,-23.15"/>
</g>
<!-- Node8 -->
<g id="node8" class="node">
<title>Node8</title>
<g id="a_node8"><a xlink:title=" ">
<polygon fill="white" stroke="#bfbfbf" points="892.5,-6 892.5,-25 1054.5,-25 1054.5,-6 892.5,-6"/>
<text text-anchor="middle" x="973.5" y="-13" font-family="Helvetica,sans-Serif" font-size="10.00">stk_mesh/base/MetaData.hpp</text>
</a>
</g>
</g>
<!-- Node1&#45;&gt;Node8 -->
<g id="edge7" class="edge">
<title>Node1&#45;&gt;Node8</title>
<path fill="none" stroke="midnightblue" d="M2237.48,-76.39C2065.53,-77.12 1515.72,-75.54 1063.5,-31 1052.53,-29.92 1040.86,-28.35 1029.69,-26.64"/>
<polygon fill="midnightblue" stroke="midnightblue" points="1030.03,-23.16 1019.61,-25.05 1028.93,-30.07 1030.03,-23.16"/>
</g>
<!-- Node9 -->
<g id="node9" class="node">
<title>Node9</title>
<g id="a_node9"><a xlink:title=" ">
<polygon fill="white" stroke="#bfbfbf" points="1073,-6 1073,-25 1210,-25 1210,-6 1073,-6"/>
<text text-anchor="middle" x="1141.5" y="-13" font-family="Helvetica,sans-Serif" font-size="10.00">stk_mesh/base/Field.hpp</text>
</a>
</g>
</g>
<!-- Node1&#45;&gt;Node9 -->
<g id="edge8" class="edge">
<title>Node1&#45;&gt;Node9</title>
<path fill="none" stroke="midnightblue" d="M2237.41,-76.48C2079.77,-77.29 1607.27,-75.52 1218.5,-31 1209.56,-29.98 1200.11,-28.51 1191,-26.91"/>
<polygon fill="midnightblue" stroke="midnightblue" points="1191.37,-23.42 1180.9,-25.05 1190.1,-30.3 1191.37,-23.42"/>
</g>
<!-- Node10 -->
<g id="node10" class="node">
<title>Node10</title>
<g id="a_node10"><a xlink:title=" ">
<polygon fill="white" stroke="#bfbfbf" points="1228,-6 1228,-25 1401,-25 1401,-6 1228,-6"/>
<text text-anchor="middle" x="1314.5" y="-13" font-family="Helvetica,sans-Serif" font-size="10.00">stk_mesh/base/FieldParallel.hpp</text>
</a>
</g>
</g>
<!-- Node1&#45;&gt;Node10 -->
<g id="edge9" class="edge">
<title>Node1&#45;&gt;Node10</title>
<path fill="none" stroke="midnightblue" d="M2237.48,-75.1C2099.44,-72.39 1722.69,-62.47 1410.5,-31 1398.96,-29.84 1386.68,-28.25 1374.9,-26.55"/>
<polygon fill="midnightblue" stroke="midnightblue" points="1375.11,-23.05 1364.7,-25.04 1374.08,-29.97 1375.11,-23.05"/>
</g>
<!-- Node11 -->
<g id="node11" class="node">
<title>Node11</title>
<g id="a_node11"><a xlink:title=" ">
<polygon fill="white" stroke="#bfbfbf" points="1419.5,-6 1419.5,-25 1589.5,-25 1589.5,-6 1419.5,-6"/>
<text text-anchor="middle" x="1504.5" y="-13" font-family="Helvetica,sans-Serif" font-size="10.00">stk_mesh/base/GetBuckets.hpp</text>
</a>
</g>
</g>
<!-- Node1&#45;&gt;Node11 -->
<g id="edge10" class="edge">
<title>Node1&#45;&gt;Node11</title>
<path fill="none" stroke="midnightblue" d="M2237.45,-74.11C2120.59,-69.68 1835.81,-56.96 1598.5,-31 1587.57,-29.8 1575.96,-28.25 1564.77,-26.6"/>
<polygon fill="midnightblue" stroke="midnightblue" points="1565.05,-23.11 1554.64,-25.07 1564,-30.03 1565.05,-23.11"/>
</g>
<!-- Node12 -->
<g id="node12" class="node">
<title>Node12</title>
<g id="a_node12"><a xlink:title=" ">
<polygon fill="white" stroke="#bfbfbf" points="1607.5,-6 1607.5,-25 1775.5,-25 1775.5,-6 1607.5,-6"/>
<text text-anchor="middle" x="1691.5" y="-13" font-family="Helvetica,sans-Serif" font-size="10.00">stk_mesh/base/GetEntities.hpp</text>
</a>
</g>
</g>
<!-- Node1&#45;&gt;Node12 -->
<g id="edge11" class="edge">
<title>Node1&#45;&gt;Node12</title>
<path fill="none" stroke="midnightblue" d="M2237.35,-72.38C2144.49,-65.9 1948.96,-51.1 1784.5,-31 1774.05,-29.72 1762.97,-28.17 1752.24,-26.56"/>
<polygon fill="midnightblue" stroke="midnightblue" points="1752.51,-23.06 1742.1,-25.01 1751.45,-29.98 1752.51,-23.06"/>
</g>
<!-- Node13 -->
<g id="node13" class="node">
<title>Node13</title>
<g id="a_node13"><a xlink:title=" ">
<polygon fill="white" stroke="#bfbfbf" points="1794,-6 1794,-25 1927,-25 1927,-6 1794,-6"/>
<text text-anchor="middle" x="1860.5" y="-13" font-family="Helvetica,sans-Serif" font-size="10.00">stk_mesh/base/Part.hpp</text>
</a>
</g>
</g>
<!-- Node1&#45;&gt;Node13 -->
<g id="edge12" class="edge">
<title>Node1&#45;&gt;Node13</title>
<path fill="none" stroke="midnightblue" d="M2237.36,-70.27C2167.45,-62.61 2042.08,-48.02 1935.5,-31 1927.86,-29.78 1919.8,-28.36 1911.92,-26.9"/>
<polygon fill="midnightblue" stroke="midnightblue" points="1912.55,-23.46 1902.07,-25.04 1911.24,-30.34 1912.55,-23.46"/>
</g>
<!-- Node14 -->
<g id="node14" class="node">
<title>Node14</title>
<g id="a_node14"><a xlink:title=" ">
<polygon fill="white" stroke="#bfbfbf" points="1945,-6 1945,-25 2098,-25 2098,-6 1945,-6"/>
<text text-anchor="middle" x="2021.5" y="-13" font-family="Helvetica,sans-Serif" font-size="10.00">stk_mesh/base/Selector.hpp</text>
</a>
</g>
</g>
<!-- Node1&#45;&gt;Node14 -->
<g id="edge13" class="edge">
<title>Node1&#45;&gt;Node14</title>
<path fill="none" stroke="midnightblue" d="M2252.82,-67.48C2204.7,-56.87 2122.51,-38.76 2070.17,-27.22"/>
<polygon fill="midnightblue" stroke="midnightblue" points="2070.63,-23.74 2060.11,-25.01 2069.13,-30.58 2070.63,-23.74"/>
</g>
<!-- Node15 -->
<g id="node15" class="node">
<title>Node15</title>
<g id="a_node15"><a xlink:title=" ">
<polygon fill="white" stroke="#bfbfbf" points="2116,-6 2116,-25 2289,-25 2289,-6 2116,-6"/>
<text text-anchor="middle" x="2202.5" y="-13" font-family="Helvetica,sans-Serif" font-size="10.00">stk_mesh/base/FEMHelpers.hpp</text>
</a>
</g>
</g>
<!-- Node1&#45;&gt;Node15 -->
<g id="edge14" class="edge">
<title>Node1&#45;&gt;Node15</title>
<path fill="none" stroke="midnightblue" d="M2278.75,-67.48C2264.47,-57.93 2241.1,-42.31 2223.99,-30.87"/>
<polygon fill="midnightblue" stroke="midnightblue" points="2225.49,-27.66 2215.23,-25.01 2221.6,-33.48 2225.49,-27.66"/>
</g>
<!-- Node16 -->
<g id="node16" class="node">
<title>Node16</title>
<g id="a_node16"><a xlink:title=" ">
<polygon fill="white" stroke="#bfbfbf" points="2307.5,-0.5 2307.5,-30.5 2453.5,-30.5 2453.5,-0.5 2307.5,-0.5"/>
<text text-anchor="start" x="2315.5" y="-18.5" font-family="Helvetica,sans-Serif" font-size="10.00">stk_mesh/base/HashEntity</text>
<text text-anchor="middle" x="2380.5" y="-7.5" font-family="Helvetica,sans-Serif" font-size="10.00">AndEntityKey.hpp</text>
</a>
</g>
</g>
<!-- Node1&#45;&gt;Node16 -->
<g id="edge15" class="edge">
<title>Node1&#45;&gt;Node16</title>
<path fill="none" stroke="midnightblue" d="M2304.25,-67.48C2316.42,-59.34 2335.19,-46.79 2351.06,-36.18"/>
<polygon fill="midnightblue" stroke="midnightblue" points="2353.16,-38.99 2359.52,-30.52 2349.27,-33.17 2353.16,-38.99"/>
</g>
<!-- Node17 -->
<g id="node17" class="node">
<title>Node17</title>
<g id="a_node17"><a xlink:title=" ">
<polygon fill="white" stroke="#bfbfbf" points="2471.5,-6 2471.5,-25 2647.5,-25 2647.5,-6 2471.5,-6"/>
<text text-anchor="middle" x="2559.5" y="-13" font-family="Helvetica,sans-Serif" font-size="10.00">stk_mesh/base/CreateEdges.hpp</text>
</a>
</g>
</g>
<!-- Node1&#45;&gt;Node17 -->
<g id="edge16" class="edge">
<title>Node1&#45;&gt;Node17</title>
<path fill="none" stroke="midnightblue" d="M2329.9,-67.48C2377.66,-56.87 2459.24,-38.76 2511.2,-27.22"/>
<polygon fill="midnightblue" stroke="midnightblue" points="2512.17,-30.59 2521.17,-25.01 2510.65,-23.76 2512.17,-30.59"/>
</g>
<!-- Node18 -->
<g id="node18" class="node">
<title>Node18</title>
<g id="a_node18"><a xlink:title=" ">
<polygon fill="white" stroke="#bfbfbf" points="2666,-6 2666,-25 2839,-25 2839,-6 2666,-6"/>
<text text-anchor="middle" x="2752.5" y="-13" font-family="Helvetica,sans-Serif" font-size="10.00">stk_mesh/base/CreateFaces.hpp</text>
</a>
</g>
</g>
<!-- Node1&#45;&gt;Node18 -->
<g id="edge17" class="edge">
<title>Node1&#45;&gt;Node18</title>
<path fill="none" stroke="midnightblue" d="M2345.67,-69.79C2417,-61.5 2546.28,-46.12 2656.5,-31 2666.69,-29.6 2677.47,-28.05 2687.99,-26.49"/>
<polygon fill="midnightblue" stroke="midnightblue" points="2688.59,-29.94 2697.96,-25 2687.55,-23.02 2688.59,-29.94"/>
</g>
<!-- Node19 -->
<g id="node19" class="node">
<title>Node19</title>
<g id="a_node19"><a xlink:title=" ">
<polygon fill="white" stroke="#bfbfbf" points="2857.5,-6 2857.5,-25 3009.5,-25 3009.5,-6 2857.5,-6"/>
<text text-anchor="middle" x="2933.5" y="-13" font-family="Helvetica,sans-Serif" font-size="10.00">stk_io/StkMeshIoBroker.hpp</text>
</a>
</g>
</g>
<!-- Node1&#45;&gt;Node19 -->
<g id="edge18" class="edge">
<title>Node1&#45;&gt;Node19</title>
<path fill="none" stroke="midnightblue" d="M2345.82,-73.21C2445.65,-67.73 2664.88,-54.03 2848.5,-31 2857.98,-29.81 2868.02,-28.31 2877.74,-26.73"/>
<polygon fill="midnightblue" stroke="midnightblue" points="2878.44,-30.17 2887.73,-25.07 2877.29,-23.26 2878.44,-30.17"/>
</g>
<!-- Node20 -->
<g id="node20" class="node">
<title>Node20</title>
<g id="a_node20"><a xlink:title=" ">
<polygon fill="white" stroke="#bfbfbf" points="3028,-6 3028,-25 3173,-25 3173,-6 3028,-6"/>
<text text-anchor="middle" x="3100.5" y="-13" font-family="Helvetica,sans-Serif" font-size="10.00">stk_topology/topology.hpp</text>
</a>
</g>
</g>
<!-- Node1&#45;&gt;Node20 -->
<g id="edge19" class="edge">
<title>Node1&#45;&gt;Node20</title>
<path fill="none" stroke="midnightblue" d="M2345.95,-74.73C2467.17,-71.46 2768.3,-60.77 3018.5,-31 3027.98,-29.87 3038.03,-28.36 3047.72,-26.74"/>
<polygon fill="midnightblue" stroke="midnightblue" points="3048.4,-30.17 3057.65,-25.02 3047.2,-23.28 3048.4,-30.17"/>
</g>
<!-- Node21 -->
<g id="node21" class="node">
<title>Node21</title>
<g id="a_node21"><a xlink:title=" ">
<polygon fill="white" stroke="#bfbfbf" points="3191,-0.5 3191,-30.5 3322,-30.5 3322,-0.5 3191,-0.5"/>
<text text-anchor="start" x="3199" y="-18.5" font-family="Helvetica,sans-Serif" font-size="10.00">stk_util/parallel/Parallel</text>
<text text-anchor="middle" x="3256.5" y="-7.5" font-family="Helvetica,sans-Serif" font-size="10.00">Reduce.hpp</text>
</a>
</g>
</g>
<!-- Node1&#45;&gt;Node21 -->
<g id="edge20" class="edge">
<title>Node1&#45;&gt;Node21</title>
<path fill="none" stroke="midnightblue" d="M2345.72,-75.95C2483.68,-75.26 2859.34,-69.77 3180.84,-31.09"/>
<polygon fill="midnightblue" stroke="midnightblue" points="3181.31,-34.56 3190.81,-29.88 3180.46,-27.61 3181.31,-34.56"/>
</g>
<!-- Node22 -->
<g id="node22" class="node">
<title>Node22</title>
<g id="a_node22"><a xlink:title=" ">
<polygon fill="white" stroke="#bfbfbf" points="3340.5,-6 3340.5,-25 3522.5,-25 3522.5,-6 3340.5,-6"/>
<text text-anchor="middle" x="3431.5" y="-13" font-family="Helvetica,sans-Serif" font-size="10.00">stk_util/parallel/CommSparse.hpp</text>
</a>
</g>
</g>
<!-- Node1&#45;&gt;Node22 -->
<g id="edge21" class="edge">
<title>Node1&#45;&gt;Node22</title>
<path fill="none" stroke="midnightblue" d="M2345.77,-75.58C2500.24,-73.96 2955.44,-66.31 3331.5,-31 3343.9,-29.84 3357.12,-28.2 3369.75,-26.45"/>
<polygon fill="midnightblue" stroke="midnightblue" points="3370.31,-29.9 3379.72,-25.02 3369.32,-22.97 3370.31,-29.9"/>
</g>
<!-- Node23 -->
<g id="node23" class="node">
<title>Node23</title>
<g id="a_node23"><a xlink:title=" ">
<polygon fill="white" stroke="#bfbfbf" points="3541,-0.5 3541,-30.5 3672,-30.5 3672,-0.5 3541,-0.5"/>
<text text-anchor="start" x="3549" y="-18.5" font-family="Helvetica,sans-Serif" font-size="10.00">stk_util/parallel/Parallel</text>
<text text-anchor="middle" x="3606.5" y="-7.5" font-family="Helvetica,sans-Serif" font-size="10.00">Comm.hpp</text>
</a>
</g>
</g>
<!-- Node1&#45;&gt;Node23 -->
<g id="edge22" class="edge">
<title>Node1&#45;&gt;Node23</title>
<path fill="none" stroke="midnightblue" d="M2345.61,-75.15C2550.07,-71.77 3276.37,-58.18 3530.45,-30.95"/>
<polygon fill="midnightblue" stroke="midnightblue" points="3531.19,-34.39 3540.74,-29.81 3530.41,-27.43 3531.19,-34.39"/>
</g>
<!-- Node24 -->
<g id="node24" class="node">
<title>Node24</title>
<g id="a_node24"><a xlink:title=" ">
<polygon fill="white" stroke="#bfbfbf" points="3690,-6 3690,-25 3855,-25 3855,-6 3690,-6"/>
<text text-anchor="middle" x="3772.5" y="-13" font-family="Helvetica,sans-Serif" font-size="10.00">stk_util/util/ReportHandler.hpp</text>
</a>
</g>
</g>
<!-- Node1&#45;&gt;Node24 -->
<g id="edge23" class="edge">
<title>Node1&#45;&gt;Node24</title>
<path fill="none" stroke="midnightblue" d="M2345.55,-75.16C2568.2,-71.56 3415.16,-56.43 3681.5,-31 3692.83,-29.92 3704.89,-28.32 3716.41,-26.57"/>
<polygon fill="midnightblue" stroke="midnightblue" points="3717.02,-30.02 3726.35,-25.01 3715.93,-23.1 3717.02,-30.02"/>
</g>
<!-- Node25 -->
<g id="node25" class="node">
<title>Node25</title>
<g id="a_node25"><a xlink:title=" ">
<polygon fill="white" stroke="#bfbfbf" points="3873.5,-6 3873.5,-25 3937.5,-25 3937.5,-6 3873.5,-6"/>
<text text-anchor="middle" x="3905.5" y="-13" font-family="Helvetica,sans-Serif" font-size="10.00">algorithm</text>
</a>
</g>
</g>
<!-- Node1&#45;&gt;Node25 -->
<g id="edge24" class="edge">
<title>Node1&#45;&gt;Node25</title>
<path fill="none" stroke="midnightblue" d="M2345.85,-75.45C2605.46,-72.67 3712.92,-59.25 3864.5,-31 3868.21,-30.31 3872.03,-29.34 3875.78,-28.22"/>
<polygon fill="midnightblue" stroke="midnightblue" points="3877.03,-31.49 3885.41,-25.01 3874.81,-24.85 3877.03,-31.49"/>
</g>
<!-- Node26 -->
<g id="node26" class="node">
<title>Node26</title>
<g id="a_node26"><a xlink:title=" ">
<polygon fill="white" stroke="#bfbfbf" points="3956,-6 3956,-25 4003,-25 4003,-6 3956,-6"/>
<text text-anchor="middle" x="3979.5" y="-13" font-family="Helvetica,sans-Serif" font-size="10.00">vector</text>
</a>
</g>
</g>
<!-- Node1&#45;&gt;Node26 -->
<g id="edge25" class="edge">
<title>Node1&#45;&gt;Node26</title>
<path fill="none" stroke="midnightblue" d="M2345.6,-75.77C2613.05,-74.44 3787.6,-66.63 3946.5,-31 3949.01,-30.44 3951.57,-29.68 3954.09,-28.81"/>
<polygon fill="midnightblue" stroke="midnightblue" points="3955.51,-32.01 3963.48,-25.02 3952.89,-25.52 3955.51,-32.01"/>
</g>
<!-- Node27 -->
<g id="node27" class="node">
<title>Node27</title>
<g id="a_node27"><a xlink:title=" ">
<polygon fill="white" stroke="#bfbfbf" points="4021,-6 4021,-25 4086,-25 4086,-6 4021,-6"/>
<text text-anchor="middle" x="4053.5" y="-13" font-family="Helvetica,sans-Serif" font-size="10.00">stdexcept</text>
</a>
</g>
</g>
<!-- Node1&#45;&gt;Node27 -->
<g id="edge26" class="edge">
<title>Node1&#45;&gt;Node27</title>
<path fill="none" stroke="midnightblue" d="M2345.88,-75.59C2620.19,-73.39 3845.62,-61.89 4012.5,-31 4016.21,-30.31 4020.03,-29.34 4023.78,-28.23"/>
<polygon fill="midnightblue" stroke="midnightblue" points="4025.03,-31.5 4033.41,-25.02 4022.81,-24.86 4025.03,-31.5"/>
</g>
<!-- Node28 -->
<g id="node28" class="node">
<title>Node28</title>
<g id="a_node28"><a xlink:title=" ">
<polygon fill="white" stroke="#bfbfbf" points="4104,-6 4104,-25 4145,-25 4145,-6 4104,-6"/>
<text text-anchor="middle" x="4124.5" y="-13" font-family="Helvetica,sans-Serif" font-size="10.00">tuple</text>
</a>
</g>
</g>
<!-- Node1&#45;&gt;Node28 -->
<g id="edge27" class="edge">
<title>Node1&#45;&gt;Node28</title>
<path fill="none" stroke="midnightblue" d="M2345.77,-76.05C2628.06,-76.14 3922.32,-74.17 4095.5,-31 4097.43,-30.52 4099.37,-29.9 4101.29,-29.18"/>
<polygon fill="midnightblue" stroke="midnightblue" points="4102.84,-32.32 4110.53,-25.03 4099.97,-25.94 4102.84,-32.32"/>
</g>
<!-- Node29 -->
<g id="node29" class="node">
<title>Node29</title>
<g id="a_node29"><a xlink:title=" ">
<polygon fill="white" stroke="#bfbfbf" points="4163.5,-6 4163.5,-25 4207.5,-25 4207.5,-6 4163.5,-6"/>
<text text-anchor="middle" x="4185.5" y="-13" font-family="Helvetica,sans-Serif" font-size="10.00">limits</text>
</a>
</g>
</g>
<!-- Node1&#45;&gt;Node29 -->
<g id="edge28" class="edge">
<title>Node1&#45;&gt;Node29</title>
<path fill="none" stroke="midnightblue" d="M2345.62,-76.02C2633.07,-75.93 3974.68,-73.26 4154.5,-31 4156.71,-30.48 4158.95,-29.79 4161.16,-29"/>
<polygon fill="midnightblue" stroke="midnightblue" points="4162.66,-32.17 4170.5,-25.04 4159.93,-25.72 4162.66,-32.17"/>
</g>
</g>
</svg>
        <g id="navigator" transform="translate(0 0)" fill="#404254">
                <rect fill="#f2f5e9" fill-opacity="0.5" stroke="#606060" stroke-width=".5" x="0" y="0" width="60" height="60"/>
                <use id="zoomplus" xlink:href="#zoomPlus" x="17" y="9" onmousedown="handleZoom(evt,'in')"/>
                <use id="zoomminus" xlink:href="#zoomMin" x="42" y="9" onmousedown="handleZoom(evt,'out')"/>
                <use id="reset" xlink:href="#resetDef" x="30" y="36" onmousedown="handleReset()"/>
                <g id="arrowUp" xlink:href="#dirArrow" transform="translate(30 24)" onmousedown="handlePan(0,-1)">
                  <use xlink:href="#rim" fill="#404040">
                        <set attributeName="fill" to="#808080" begin="arrowUp.mouseover" end="arrowUp.mouseout"/>
                  </use>
                  <path fill="none" stroke="white" stroke-width="1.5" d="M0,-3.0v7 M-2.5,-0.5L0,-3.0L2.5,-0.5"/>
                </g>
                <g id="arrowRight" xlink:href="#dirArrow" transform="rotate(90) translate(36 -43)" onmousedown="handlePan(1,0)">
                  <use xlink:href="#rim" fill="#404040">
                        <set attributeName="fill" to="#808080" begin="arrowRight.mouseover" end="arrowRight.mouseout"/>
                  </use>
                  <path fill="none" stroke="white" stroke-width="1.5" d="M0,-3.0v7 M-2.5,-0.5L0,-3.0L2.5,-0.5"/>
                </g>
                <g id="arrowDown" xlink:href="#dirArrow" transform="rotate(180) translate(-30 -48)" onmousedown="handlePan(0,1)">
                  <use xlink:href="#rim" fill="#404040">
                        <set attributeName="fill" to="#808080" begin="arrowDown.mouseover" end="arrowDown.mouseout"/>
                  </use>
                  <path fill="none" stroke="white" stroke-width="1.5" d="M0,-3.0v7 M-2.5,-0.5L0,-3.0L2.5,-0.5"/>
                </g>
                <g id="arrowLeft" xlink:href="#dirArrow" transform="rotate(270) translate(-36 17)" onmousedown="handlePan(-1,0)">
                  <use xlink:href="#rim" fill="#404040">
                        <set attributeName="fill" to="#808080" begin="arrowLeft.mouseover" end="arrowLeft.mouseout"/>
                  </use>
                  <path fill="none" stroke="white" stroke-width="1.5" d="M0,-3.0v7 M-2.5,-0.5L0,-3.0L2.5,-0.5"/>
                </g>
        </g>
        <svg viewBox="0 0 15 15" width="100%" height="30px" preserveAspectRatio="xMaxYMin meet">
         <g id="arrow_out" transform="scale(0.3 0.3)">
          <a xlink:href="_promote_element_8_c__incl_org.svg" target="_base">
           <rect id="button" ry="5" rx="5" y="6" x="6" height="38" width="38"
                fill="#f2f5e9" fill-opacity="0.5" stroke="#606060" stroke-width="1.0"/>
           <path id="arrow"
             d="M 11.500037,31.436501 C 11.940474,20.09759 22.043105,11.32322 32.158766,21.979434 L 37.068811,17.246167 C 37.068811,17.246167 37.088388,32 37.088388,32 L 22.160133,31.978069 C 22.160133,31.978069 26.997745,27.140456 26.997745,27.140456 C 18.528582,18.264221 13.291696,25.230495 11.500037,31.436501 z"
             style="fill:#404040;"/>
          </a>
         </g>
        </svg>
</svg>
