<?xml version="1.0" encoding="UTF-8" standalone="no"?>
<!DOCTYPE svg PUBLIC "-//W3C//DTD SVG 1.1//EN"
 "http://www.w3.org/Graphics/SVG/1.1/DTD/svg11.dtd">
<!-- Generated by graphviz version 2.43.0 (0)
 -->
<!-- Title: PromotedElementIO.C Pages: 1 -->
<!--zoomable 95 -->
<svg id="main" version="1.1" xmlns="http://www.w3.org/2000/svg" xmlns:xlink="http://www.w3.org/1999/xlink" xml:space="preserve" onload="init(evt)">
<style type="text/css"><![CDATA[
.edge:hover path { stroke: red; }
.edge:hover polygon { stroke: red; fill: red; }
]]></style>
<script type="text/javascript"><![CDATA[
var edges = document.getElementsByTagName('g');
if (edges && edges.length) {
  for (var i=0;i<edges.length;i++) {
    if (edges[i].id.substr(0,4)=='edge') {
      edges[i].setAttribute('class','edge');
    }
  }
}
]]></script>
        <defs>
                <circle id="rim" cx="0" cy="0" r="7"/>
                <circle id="rim2" cx="0" cy="0" r="3.5"/>
                <g id="zoomPlus">
                        <use xlink:href="#rim" fill="#404040">
                                <set attributeName="fill" to="#808080" begin="zoomplus.mouseover" end="zoomplus.mouseout"/>
                        </use>
                        <path d="M-4,0h8M0,-4v8" fill="none" stroke="white" stroke-width="1.5" pointer-events="none"/>
                </g>
                <g id="zoomMin">
                        <use xlink:href="#rim" fill="#404040">
                                <set attributeName="fill" to="#808080" begin="zoomminus.mouseover" end="zoomminus.mouseout"/>
                        </use>
                        <path d="M-4,0h8" fill="none" stroke="white" stroke-width="1.5" pointer-events="none"/>
                </g>
                <g id="dirArrow">
                        <path fill="none" stroke="white" stroke-width="1.5" d="M0,-3.0v7 M-2.5,-0.5L0,-3.0L2.5,-0.5"/>
                </g>
               <g id="resetDef">
                       <use xlink:href="#rim2" fill="#404040">
                               <set attributeName="fill" to="#808080" begin="reset.mouseover" end="reset.mouseout"/>
                       </use>
               </g>
        </defs>

<script type="text/javascript">
var viewWidth = 3867;
var viewHeight = 95;
var sectionId = 'dynsection-0';
</script>
<script xlink:href="svgpan.js"/>
<svg id="graph" class="graph">
<g id="viewport">
<title>PromotedElementIO.C</title>
<polygon fill="white" stroke="transparent" points="-4,4 -4,-91 3862.5,-91 3862.5,4 -4,4"/>
<!-- Node1 -->
<g id="node1" class="node">
<title>Node1</title>
<g id="a_node1"><a xlink:title=" ">
<polygon fill="#bfbfbf" stroke="black" points="2335,-67.5 2335,-86.5 2460,-86.5 2460,-67.5 2335,-67.5"/>
<text text-anchor="middle" x="2397.5" y="-74.5" font-family="Helvetica,sans-Serif" font-size="10.00">PromotedElementIO.C</text>
</a>
</g>
</g>
<!-- Node2 -->
<g id="node2" class="node">
<title>Node2</title>
<g id="a_node2"><a xlink:title=" ">
<polygon fill="white" stroke="#bfbfbf" points="0,-0.5 0,-30.5 163,-30.5 163,-0.5 0,-0.5"/>
<text text-anchor="start" x="8" y="-18.5" font-family="Helvetica,sans-Serif" font-size="10.00">element_promotion/Promoted</text>
<text text-anchor="middle" x="81.5" y="-7.5" font-family="Helvetica,sans-Serif" font-size="10.00">ElementIO.h</text>
</a>
</g>
</g>
<!-- Node1&#45;&gt;Node2 -->
<g id="edge1" class="edge">
<title>Node1&#45;&gt;Node2</title>
<path fill="none" stroke="midnightblue" d="M2334.84,-75.92C2022.34,-75.32 629.63,-70.48 173.62,-31.09"/>
<polygon fill="midnightblue" stroke="midnightblue" points="173.62,-27.58 163.36,-30.18 173.01,-34.55 173.62,-27.58"/>
</g>
<!-- Node3 -->
<g id="node3" class="node">
<title>Node3</title>
<g id="a_node3"><a xlink:title=" ">
<polygon fill="white" stroke="#bfbfbf" points="181,-0.5 181,-30.5 344,-30.5 344,-0.5 181,-0.5"/>
<text text-anchor="start" x="189" y="-18.5" font-family="Helvetica,sans-Serif" font-size="10.00">element_promotion/Promoted</text>
<text text-anchor="middle" x="262.5" y="-7.5" font-family="Helvetica,sans-Serif" font-size="10.00">PartHelper.h</text>
</a>
</g>
</g>
<!-- Node1&#45;&gt;Node3 -->
<g id="edge2" class="edge">
<title>Node1&#45;&gt;Node3</title>
<path fill="none" stroke="midnightblue" d="M2334.84,-75.77C2038.27,-74.51 772.92,-67.11 354.32,-30.96"/>
<polygon fill="midnightblue" stroke="midnightblue" points="354.56,-27.46 344.29,-30.07 353.94,-34.44 354.56,-27.46"/>
</g>
<!-- Node4 -->
<g id="node4" class="node">
<title>Node4</title>
<g id="a_node4"><a xlink:title=" ">
<polygon fill="white" stroke="#bfbfbf" points="362.5,-6 362.5,-25 524.5,-25 524.5,-6 362.5,-6"/>
<text text-anchor="middle" x="443.5" y="-13" font-family="Helvetica,sans-Serif" font-size="10.00">stk_mesh/base/MetaData.hpp</text>
</a>
</g>
</g>
<!-- Node1&#45;&gt;Node4 -->
<g id="edge3" class="edge">
<title>Node1&#45;&gt;Node4</title>
<path fill="none" stroke="midnightblue" d="M2334.8,-75.63C2052.17,-73.78 894.72,-64.3 533.5,-31 522.16,-29.95 510.09,-28.35 498.6,-26.59"/>
<polygon fill="midnightblue" stroke="midnightblue" points="499.1,-23.12 488.67,-25.01 498,-30.04 499.1,-23.12"/>
</g>
<!-- Node5 -->
<g id="node5" class="node">
<title>Node5</title>
<g id="a_node5"><a xlink:title=" ">
<polygon fill="white" stroke="#bfbfbf" points="543,-6 543,-25 690,-25 690,-6 543,-6"/>
<text text-anchor="middle" x="616.5" y="-13" font-family="Helvetica,sans-Serif" font-size="10.00">stk_mesh/base/Bucket.hpp</text>
</a>
</g>
</g>
<!-- Node1&#45;&gt;Node5 -->
<g id="edge4" class="edge">
<title>Node1&#45;&gt;Node5</title>
<path fill="none" stroke="midnightblue" d="M2334.61,-75.59C2067.41,-73.63 1025.1,-64.02 698.5,-31 688.47,-29.99 677.81,-28.45 667.62,-26.75"/>
<polygon fill="midnightblue" stroke="midnightblue" points="668.08,-23.27 657.63,-25 666.88,-30.17 668.08,-23.27"/>
</g>
<!-- Node6 -->
<g id="node6" class="node">
<title>Node6</title>
<g id="a_node6"><a xlink:title=" ">
<polygon fill="white" stroke="#bfbfbf" points="708,-6 708,-25 867,-25 867,-6 708,-6"/>
<text text-anchor="middle" x="787.5" y="-13" font-family="Helvetica,sans-Serif" font-size="10.00">stk_mesh/base/BulkData.hpp</text>
</a>
</g>
</g>
<!-- Node1&#45;&gt;Node6 -->
<g id="edge5" class="edge">
<title>Node1&#45;&gt;Node6</title>
<path fill="none" stroke="midnightblue" d="M2334.97,-75.27C2086.15,-72.18 1165.76,-59.08 875.5,-31 864.64,-29.95 853.1,-28.38 842.07,-26.66"/>
<polygon fill="midnightblue" stroke="midnightblue" points="842.55,-23.19 832.12,-25.04 841.43,-30.1 842.55,-23.19"/>
</g>
<!-- Node7 -->
<g id="node7" class="node">
<title>Node7</title>
<g id="a_node7"><a xlink:title=" ">
<polygon fill="white" stroke="#bfbfbf" points="885,-6 885,-25 1026,-25 1026,-6 885,-6"/>
<text text-anchor="middle" x="955.5" y="-13" font-family="Helvetica,sans-Serif" font-size="10.00">stk_mesh/base/Entity.hpp</text>
</a>
</g>
</g>
<!-- Node1&#45;&gt;Node7 -->
<g id="edge6" class="edge">
<title>Node1&#45;&gt;Node7</title>
<path fill="none" stroke="midnightblue" d="M2334.88,-75.17C2102.77,-71.89 1291.67,-58.69 1034.5,-31 1025.03,-29.98 1015,-28.47 1005.37,-26.81"/>
<polygon fill="midnightblue" stroke="midnightblue" points="1005.98,-23.37 995.52,-25.04 1004.74,-30.26 1005.98,-23.37"/>
</g>
<!-- Node8 -->
<g id="node8" class="node">
<title>Node8</title>
<g id="a_node8"><a xlink:title=" ">
<polygon fill="white" stroke="#bfbfbf" points="1044,-6 1044,-25 1205,-25 1205,-6 1044,-6"/>
<text text-anchor="middle" x="1124.5" y="-13" font-family="Helvetica,sans-Serif" font-size="10.00">stk_mesh/base/FieldBase.hpp</text>
</a>
</g>
</g>
<!-- Node1&#45;&gt;Node8 -->
<g id="edge7" class="edge">
<title>Node1&#45;&gt;Node8</title>
<path fill="none" stroke="midnightblue" d="M2334.79,-76.3C2158.09,-76.55 1641.19,-73.33 1214.5,-31 1203.53,-29.91 1191.86,-28.34 1180.69,-26.63"/>
<polygon fill="midnightblue" stroke="midnightblue" points="1181.03,-23.14 1170.61,-25.03 1179.94,-30.06 1181.03,-23.14"/>
</g>
<!-- Node9 -->
<g id="node9" class="node">
<title>Node9</title>
<g id="a_node9"><a xlink:title=" ">
<polygon fill="white" stroke="#bfbfbf" points="1223.5,-6 1223.5,-25 1413.5,-25 1413.5,-6 1223.5,-6"/>
<text text-anchor="middle" x="1318.5" y="-13" font-family="Helvetica,sans-Serif" font-size="10.00">stk_mesh/base/FieldRestriction.hpp</text>
</a>
</g>
</g>
<!-- Node1&#45;&gt;Node9 -->
<g id="edge8" class="edge">
<title>Node1&#45;&gt;Node9</title>
<path fill="none" stroke="midnightblue" d="M2334.91,-75.11C2179.94,-72.49 1766.08,-62.81 1422.5,-31 1409.55,-29.8 1395.75,-28.15 1382.57,-26.38"/>
<polygon fill="midnightblue" stroke="midnightblue" points="1383.02,-22.91 1372.64,-25.01 1382.07,-29.84 1383.02,-22.91"/>
</g>
<!-- Node10 -->
<g id="node10" class="node">
<title>Node10</title>
<g id="a_node10"><a xlink:title=" ">
<polygon fill="white" stroke="#bfbfbf" points="1432,-6 1432,-25 1565,-25 1565,-6 1432,-6"/>
<text text-anchor="middle" x="1498.5" y="-13" font-family="Helvetica,sans-Serif" font-size="10.00">stk_mesh/base/Part.hpp</text>
</a>
</g>
</g>
<!-- Node1&#45;&gt;Node10 -->
<g id="edge9" class="edge">
<title>Node1&#45;&gt;Node10</title>
<path fill="none" stroke="midnightblue" d="M2334.96,-75.49C2196.99,-73.73 1856.28,-65.89 1573.5,-31 1564.99,-29.95 1555.99,-28.5 1547.29,-26.93"/>
<polygon fill="midnightblue" stroke="midnightblue" points="1547.74,-23.45 1537.27,-25.04 1546.44,-30.33 1547.74,-23.45"/>
</g>
<!-- Node11 -->
<g id="node11" class="node">
<title>Node11</title>
<g id="a_node11"><a xlink:title=" ">
<polygon fill="white" stroke="#bfbfbf" points="1583,-6 1583,-25 1736,-25 1736,-6 1583,-6"/>
<text text-anchor="middle" x="1659.5" y="-13" font-family="Helvetica,sans-Serif" font-size="10.00">stk_mesh/base/Selector.hpp</text>
</a>
</g>
</g>
<!-- Node1&#45;&gt;Node11 -->
<g id="edge10" class="edge">
<title>Node1&#45;&gt;Node11</title>
<path fill="none" stroke="midnightblue" d="M2334.72,-73.77C2218.11,-69.15 1960.3,-56.78 1744.5,-31 1734.69,-29.83 1724.29,-28.3 1714.25,-26.67"/>
<polygon fill="midnightblue" stroke="midnightblue" points="1714.81,-23.21 1704.37,-25.02 1713.66,-30.12 1714.81,-23.21"/>
</g>
<!-- Node12 -->
<g id="node12" class="node">
<title>Node12</title>
<g id="a_node12"><a xlink:title=" ">
<polygon fill="white" stroke="#bfbfbf" points="1754,-6 1754,-25 1899,-25 1899,-6 1754,-6"/>
<text text-anchor="middle" x="1826.5" y="-13" font-family="Helvetica,sans-Serif" font-size="10.00">stk_topology/topology.hpp</text>
</a>
</g>
</g>
<!-- Node1&#45;&gt;Node12 -->
<g id="edge11" class="edge">
<title>Node1&#45;&gt;Node12</title>
<path fill="none" stroke="midnightblue" d="M2334.65,-71.96C2241.23,-65.55 2060.31,-51.66 1907.5,-31 1898.65,-29.8 1889.3,-28.33 1880.21,-26.78"/>
<polygon fill="midnightblue" stroke="midnightblue" points="1880.56,-23.29 1870.11,-25.01 1879.36,-30.18 1880.56,-23.29"/>
</g>
<!-- Node13 -->
<g id="node13" class="node">
<title>Node13</title>
<g id="a_node13"><a xlink:title=" ">
<polygon fill="white" stroke="#bfbfbf" points="1917,-6 1917,-25 2082,-25 2082,-6 1917,-6"/>
<text text-anchor="middle" x="1999.5" y="-13" font-family="Helvetica,sans-Serif" font-size="10.00">stk_util/util/ReportHandler.hpp</text>
</a>
</g>
</g>
<!-- Node1&#45;&gt;Node13 -->
<g id="edge12" class="edge">
<title>Node1&#45;&gt;Node13</title>
<path fill="none" stroke="midnightblue" d="M2337.75,-67.47C2275.86,-58.58 2176.36,-44.13 2090.5,-31 2081.44,-29.61 2071.88,-28.12 2062.5,-26.64"/>
<polygon fill="midnightblue" stroke="midnightblue" points="2062.84,-23.15 2052.41,-25.05 2061.74,-30.07 2062.84,-23.15"/>
</g>
<!-- Node14 -->
<g id="node14" class="node">
<title>Node14</title>
<g id="a_node14"><a xlink:title=" ">
<polygon fill="white" stroke="#bfbfbf" points="2100,-6 2100,-25 2195,-25 2195,-6 2100,-6"/>
<text text-anchor="middle" x="2147.5" y="-13" font-family="Helvetica,sans-Serif" font-size="10.00">Ioss_DBUsage.h</text>
</a>
</g>
</g>
<!-- Node1&#45;&gt;Node14 -->
<g id="edge13" class="edge">
<title>Node1&#45;&gt;Node14</title>
<path fill="none" stroke="midnightblue" d="M2359.52,-67.49C2320.36,-58.64 2257.56,-44.27 2203.5,-31 2199.1,-29.92 2194.52,-28.77 2189.94,-27.61"/>
<polygon fill="midnightblue" stroke="midnightblue" points="2190.59,-24.16 2180.04,-25.07 2188.86,-30.95 2190.59,-24.16"/>
</g>
<!-- Node15 -->
<g id="node15" class="node">
<title>Node15</title>
<g id="a_node15"><a xlink:title=" ">
<polygon fill="white" stroke="#bfbfbf" points="2213,-6 2213,-25 2320,-25 2320,-6 2213,-6"/>
<text text-anchor="middle" x="2266.5" y="-13" font-family="Helvetica,sans-Serif" font-size="10.00">Ioss_DatabaseIO.h</text>
</a>
</g>
</g>
<!-- Node1&#45;&gt;Node15 -->
<g id="edge14" class="edge">
<title>Node1&#45;&gt;Node15</title>
<path fill="none" stroke="midnightblue" d="M2378.73,-67.48C2356.65,-57.45 2319.78,-40.7 2294.36,-29.15"/>
<polygon fill="midnightblue" stroke="midnightblue" points="2295.79,-25.96 2285.23,-25.01 2292.89,-32.33 2295.79,-25.96"/>
</g>
<!-- Node16 -->
<g id="node16" class="node">
<title>Node16</title>
<g id="a_node16"><a xlink:title=" ">
<polygon fill="white" stroke="#bfbfbf" points="2338.5,-6 2338.5,-25 2456.5,-25 2456.5,-6 2338.5,-6"/>
<text text-anchor="middle" x="2397.5" y="-13" font-family="Helvetica,sans-Serif" font-size="10.00">Ioss_ElementBlock.h</text>
</a>
</g>
</g>
<!-- Node1&#45;&gt;Node16 -->
<g id="edge15" class="edge">
<title>Node1&#45;&gt;Node16</title>
<path fill="none" stroke="midnightblue" d="M2397.5,-67.48C2397.5,-59.08 2397.5,-45.98 2397.5,-35.16"/>
<polygon fill="midnightblue" stroke="midnightblue" points="2401,-35.01 2397.5,-25.01 2394,-35.01 2401,-35.01"/>
</g>
<!-- Node17 -->
<g id="node17" class="node">
<title>Node17</title>
<g id="a_node17"><a xlink:title=" ">
<polygon fill="white" stroke="#bfbfbf" points="2474.5,-6 2474.5,-25 2548.5,-25 2548.5,-6 2474.5,-6"/>
<text text-anchor="middle" x="2511.5" y="-13" font-family="Helvetica,sans-Serif" font-size="10.00">Ioss_Field.h</text>
</a>
</g>
</g>
<!-- Node1&#45;&gt;Node17 -->
<g id="edge16" class="edge">
<title>Node1&#45;&gt;Node17</title>
<path fill="none" stroke="midnightblue" d="M2413.83,-67.48C2432.71,-57.62 2464.01,-41.29 2486.08,-29.77"/>
<polygon fill="midnightblue" stroke="midnightblue" points="2487.95,-32.74 2495.2,-25.01 2484.71,-26.53 2487.95,-32.74"/>
</g>
<!-- Node18 -->
<g id="node18" class="node">
<title>Node18</title>
<g id="a_node18"><a xlink:title=" ">
<polygon fill="white" stroke="#bfbfbf" points="2567,-6 2567,-25 2662,-25 2662,-6 2567,-6"/>
<text text-anchor="middle" x="2614.5" y="-13" font-family="Helvetica,sans-Serif" font-size="10.00">Ioss_IOFactory.h</text>
</a>
</g>
</g>
<!-- Node1&#45;&gt;Node18 -->
<g id="edge17" class="edge">
<title>Node1&#45;&gt;Node18</title>
<path fill="none" stroke="midnightblue" d="M2428.59,-67.48C2466.78,-57 2531.67,-39.21 2573.8,-27.66"/>
<polygon fill="midnightblue" stroke="midnightblue" points="2574.75,-31.03 2583.47,-25.01 2572.9,-24.28 2574.75,-31.03"/>
</g>
<!-- Node19 -->
<g id="node19" class="node">
<title>Node19</title>
<g id="a_node19"><a xlink:title=" ">
<polygon fill="white" stroke="#bfbfbf" points="2680,-6 2680,-25 2783,-25 2783,-6 2680,-6"/>
<text text-anchor="middle" x="2731.5" y="-13" font-family="Helvetica,sans-Serif" font-size="10.00">Ioss_NodeBlock.h</text>
</a>
</g>
</g>
<!-- Node1&#45;&gt;Node19 -->
<g id="edge18" class="edge">
<title>Node1&#45;&gt;Node19</title>
<path fill="none" stroke="midnightblue" d="M2457.33,-67.48C2513,-59.25 2598.15,-45.86 2671.5,-31 2676.88,-29.91 2682.52,-28.67 2688.08,-27.4"/>
<polygon fill="midnightblue" stroke="midnightblue" points="2689.03,-30.77 2697.96,-25.07 2687.42,-23.95 2689.03,-30.77"/>
</g>
<!-- Node20 -->
<g id="node20" class="node">
<title>Node20</title>
<g id="a_node20"><a xlink:title=" ">
<polygon fill="white" stroke="#bfbfbf" points="2801.5,-6 2801.5,-25 2891.5,-25 2891.5,-6 2801.5,-6"/>
<text text-anchor="middle" x="2846.5" y="-13" font-family="Helvetica,sans-Serif" font-size="10.00">Ioss_Property.h</text>
</a>
</g>
</g>
<!-- Node1&#45;&gt;Node20 -->
<g id="edge19" class="edge">
<title>Node1&#45;&gt;Node20</title>
<path fill="none" stroke="midnightblue" d="M2460.19,-71.75C2538.46,-65.79 2676.21,-53.11 2792.5,-31 2797.56,-30.04 2802.83,-28.85 2808.02,-27.58"/>
<polygon fill="midnightblue" stroke="midnightblue" points="2809.01,-30.94 2817.82,-25.05 2807.26,-24.16 2809.01,-30.94"/>
</g>
<!-- Node21 -->
<g id="node21" class="node">
<title>Node21</title>
<g id="a_node21"><a xlink:title=" ">
<polygon fill="white" stroke="#bfbfbf" points="2909.5,-6 2909.5,-25 3043.5,-25 3043.5,-6 2909.5,-6"/>
<text text-anchor="middle" x="2976.5" y="-13" font-family="Helvetica,sans-Serif" font-size="10.00">Ioss_PropertyManager.h</text>
</a>
</g>
</g>
<!-- Node1&#45;&gt;Node21 -->
<g id="edge20" class="edge">
<title>Node1&#45;&gt;Node21</title>
<path fill="none" stroke="midnightblue" d="M2460.07,-72.41C2555.42,-66.48 2742.68,-53.06 2900.5,-31 2908.63,-29.86 2917.22,-28.44 2925.57,-26.94"/>
<polygon fill="midnightblue" stroke="midnightblue" points="2926.41,-30.34 2935.6,-25.07 2925.13,-23.46 2926.41,-30.34"/>
</g>
<!-- Node22 -->
<g id="node22" class="node">
<title>Node22</title>
<g id="a_node22"><a xlink:title=" ">
<polygon fill="white" stroke="#bfbfbf" points="3061.5,-6 3061.5,-25 3159.5,-25 3159.5,-6 3061.5,-6"/>
<text text-anchor="middle" x="3110.5" y="-13" font-family="Helvetica,sans-Serif" font-size="10.00">Ioss_SideBlock.h</text>
</a>
</g>
</g>
<!-- Node1&#45;&gt;Node22 -->
<g id="edge21" class="edge">
<title>Node1&#45;&gt;Node22</title>
<path fill="none" stroke="midnightblue" d="M2460.23,-75.36C2577.34,-73.36 2836.9,-65.08 3052.5,-31 3058.41,-30.07 3064.6,-28.82 3070.65,-27.44"/>
<polygon fill="midnightblue" stroke="midnightblue" points="3071.7,-30.79 3080.6,-25.04 3070.06,-23.98 3071.7,-30.79"/>
</g>
<!-- Node23 -->
<g id="node23" class="node">
<title>Node23</title>
<g id="a_node23"><a xlink:title=" ">
<polygon fill="white" stroke="#bfbfbf" points="3178,-6 3178,-25 3265,-25 3265,-6 3178,-6"/>
<text text-anchor="middle" x="3221.5" y="-13" font-family="Helvetica,sans-Serif" font-size="10.00">Ioss_SideSet.h</text>
</a>
</g>
</g>
<!-- Node1&#45;&gt;Node23 -->
<g id="edge22" class="edge">
<title>Node1&#45;&gt;Node23</title>
<path fill="none" stroke="midnightblue" d="M2460.2,-76.75C2592.19,-77.36 2908.01,-73.75 3168.5,-31 3173.72,-30.14 3179.17,-28.98 3184.49,-27.68"/>
<polygon fill="midnightblue" stroke="midnightblue" points="3185.72,-30.97 3194.51,-25.05 3183.95,-24.2 3185.72,-30.97"/>
</g>
<!-- Node24 -->
<g id="node24" class="node">
<title>Node24</title>
<g id="a_node24"><a xlink:title=" ">
<polygon fill="white" stroke="#bfbfbf" points="3283.5,-6 3283.5,-25 3359.5,-25 3359.5,-6 3283.5,-6"/>
<text text-anchor="middle" x="3321.5" y="-13" font-family="Helvetica,sans-Serif" font-size="10.00">Ioss_State.h</text>
</a>
</g>
</g>
<!-- Node1&#45;&gt;Node24 -->
<g id="edge23" class="edge">
<title>Node1&#45;&gt;Node24</title>
<path fill="none" stroke="midnightblue" d="M2460.09,-74.8C2633.52,-71.16 3117.81,-58.75 3274.5,-31 3278.97,-30.21 3283.61,-29.12 3288.16,-27.89"/>
<polygon fill="midnightblue" stroke="midnightblue" points="3289.26,-31.22 3297.87,-25.04 3287.29,-24.5 3289.26,-31.22"/>
</g>
<!-- Node25 -->
<g id="node25" class="node">
<title>Node25</title>
<g id="a_node25"><a xlink:title=" ">
<polygon fill="white" stroke="#bfbfbf" points="3377.5,-6 3377.5,-25 3475.5,-25 3475.5,-6 3377.5,-6"/>
<text text-anchor="middle" x="3426.5" y="-13" font-family="Helvetica,sans-Serif" font-size="10.00">Ionit_Initializer.h</text>
</a>
</g>
</g>
<!-- Node1&#45;&gt;Node25 -->
<g id="edge24" class="edge">
<title>Node1&#45;&gt;Node25</title>
<path fill="none" stroke="midnightblue" d="M2460.3,-74.72C2646.29,-70.67 3192.24,-56.85 3368.5,-31 3374.55,-30.11 3380.89,-28.86 3387.07,-27.47"/>
<polygon fill="midnightblue" stroke="midnightblue" points="3388.32,-30.77 3397.22,-25.02 3386.68,-23.96 3388.32,-30.77"/>
</g>
<!-- Node26 -->
<g id="node26" class="node">
<title>Node26</title>
<g id="a_node26"><a xlink:title=" ">
<polygon fill="white" stroke="#bfbfbf" points="3493.5,-6 3493.5,-25 3557.5,-25 3557.5,-6 3493.5,-6"/>
<text text-anchor="middle" x="3525.5" y="-13" font-family="Helvetica,sans-Serif" font-size="10.00">algorithm</text>
</a>
</g>
</g>
<!-- Node1&#45;&gt;Node26 -->
<g id="edge25" class="edge">
<title>Node1&#45;&gt;Node26</title>
<path fill="none" stroke="midnightblue" d="M2460,-75.85C2660.53,-75.01 3286.18,-69.28 3484.5,-31 3488.02,-30.32 3491.64,-29.4 3495.2,-28.34"/>
<polygon fill="midnightblue" stroke="midnightblue" points="3496.58,-31.57 3504.98,-25.11 3494.38,-24.92 3496.58,-31.57"/>
</g>
<!-- Node27 -->
<g id="node27" class="node">
<title>Node27</title>
<g id="a_node27"><a xlink:title=" ">
<polygon fill="white" stroke="#bfbfbf" points="3575.5,-6 3575.5,-25 3635.5,-25 3635.5,-6 3575.5,-6"/>
<text text-anchor="middle" x="3605.5" y="-13" font-family="Helvetica,sans-Serif" font-size="10.00">iostream</text>
</a>
</g>
</g>
<!-- Node1&#45;&gt;Node27 -->
<g id="edge26" class="edge">
<title>Node1&#45;&gt;Node27</title>
<path fill="none" stroke="midnightblue" d="M2460.27,-76.2C2671.01,-76.45 3352.02,-73.86 3566.5,-31 3569.76,-30.35 3573.11,-29.46 3576.4,-28.45"/>
<polygon fill="midnightblue" stroke="midnightblue" points="3577.71,-31.7 3586.01,-25.12 3575.42,-25.09 3577.71,-31.7"/>
</g>
<!-- Node28 -->
<g id="node28" class="node">
<title>Node28</title>
<g id="a_node28"><a xlink:title=" ">
<polygon fill="white" stroke="#bfbfbf" points="3654,-6 3654,-25 3719,-25 3719,-6 3654,-6"/>
<text text-anchor="middle" x="3686.5" y="-13" font-family="Helvetica,sans-Serif" font-size="10.00">stdexcept</text>
</a>
</g>
</g>
<!-- Node1&#45;&gt;Node28 -->
<g id="edge27" class="edge">
<title>Node1&#45;&gt;Node28</title>
<path fill="none" stroke="midnightblue" d="M2460.17,-76.18C2679.79,-76.45 3413.7,-74.01 3644.5,-31 3648.21,-30.31 3652.03,-29.35 3655.79,-28.26"/>
<polygon fill="midnightblue" stroke="midnightblue" points="3657.03,-31.54 3665.46,-25.13 3654.87,-24.88 3657.03,-31.54"/>
</g>
<!-- Node29 -->
<g id="node29" class="node">
<title>Node29</title>
<g id="a_node29"><a xlink:title=" ">
<polygon fill="white" stroke="#bfbfbf" points="3737,-6 3737,-25 3782,-25 3782,-6 3737,-6"/>
<text text-anchor="middle" x="3759.5" y="-13" font-family="Helvetica,sans-Serif" font-size="10.00">utility</text>
</a>
</g>
</g>
<!-- Node1&#45;&gt;Node29 -->
<g id="edge28" class="edge">
<title>Node1&#45;&gt;Node29</title>
<path fill="none" stroke="midnightblue" d="M2460.04,-75.36C2706.68,-72.64 3604.57,-60.76 3728.5,-31 3730.71,-30.47 3732.94,-29.78 3735.15,-28.98"/>
<polygon fill="midnightblue" stroke="midnightblue" points="3736.66,-32.14 3744.49,-25 3733.92,-25.7 3736.66,-32.14"/>
</g>
<!-- Node30 -->
<g id="node30" class="node">
<title>Node30</title>
<g id="a_node30"><a xlink:title=" ">
<polygon fill="white" stroke="#bfbfbf" points="3800.5,-6 3800.5,-25 3858.5,-25 3858.5,-6 3800.5,-6"/>
<text text-anchor="middle" x="3829.5" y="-13" font-family="Helvetica,sans-Serif" font-size="10.00">memory</text>
</a>
</g>
</g>
<!-- Node1&#45;&gt;Node30 -->
<g id="edge29" class="edge">
<title>Node1&#45;&gt;Node30</title>
<path fill="none" stroke="midnightblue" d="M2460.33,-75.2C2714.62,-71.78 3660.19,-57.4 3791.5,-31 3794.58,-30.38 3797.75,-29.54 3800.87,-28.57"/>
<polygon fill="midnightblue" stroke="midnightblue" points="3802.27,-31.78 3810.54,-25.15 3799.94,-25.18 3802.27,-31.78"/>
</g>
</g>
</svg>
        <g id="navigator" transform="translate(0 0)" fill="#404254">
                <rect fill="#f2f5e9" fill-opacity="0.5" stroke="#606060" stroke-width=".5" x="0" y="0" width="60" height="60"/>
                <use id="zoomplus" xlink:href="#zoomPlus" x="17" y="9" onmousedown="handleZoom(evt,'in')"/>
                <use id="zoomminus" xlink:href="#zoomMin" x="42" y="9" onmousedown="handleZoom(evt,'out')"/>
                <use id="reset" xlink:href="#resetDef" x="30" y="36" onmousedown="handleReset()"/>
                <g id="arrowUp" xlink:href="#dirArrow" transform="translate(30 24)" onmousedown="handlePan(0,-1)">
                  <use xlink:href="#rim" fill="#404040">
                        <set attributeName="fill" to="#808080" begin="arrowUp.mouseover" end="arrowUp.mouseout"/>
                  </use>
                  <path fill="none" stroke="white" stroke-width="1.5" d="M0,-3.0v7 M-2.5,-0.5L0,-3.0L2.5,-0.5"/>
                </g>
                <g id="arrowRight" xlink:href="#dirArrow" transform="rotate(90) translate(36 -43)" onmousedown="handlePan(1,0)">
                  <use xlink:href="#rim" fill="#404040">
                        <set attributeName="fill" to="#808080" begin="arrowRight.mouseover" end="arrowRight.mouseout"/>
                  </use>
                  <path fill="none" stroke="white" stroke-width="1.5" d="M0,-3.0v7 M-2.5,-0.5L0,-3.0L2.5,-0.5"/>
                </g>
                <g id="arrowDown" xlink:href="#dirArrow" transform="rotate(180) translate(-30 -48)" onmousedown="handlePan(0,1)">
                  <use xlink:href="#rim" fill="#404040">
                        <set attributeName="fill" to="#808080" begin="arrowDown.mouseover" end="arrowDown.mouseout"/>
                  </use>
                  <path fill="none" stroke="white" stroke-width="1.5" d="M0,-3.0v7 M-2.5,-0.5L0,-3.0L2.5,-0.5"/>
                </g>
                <g id="arrowLeft" xlink:href="#dirArrow" transform="rotate(270) translate(-36 17)" onmousedown="handlePan(-1,0)">
                  <use xlink:href="#rim" fill="#404040">
                        <set attributeName="fill" to="#808080" begin="arrowLeft.mouseover" end="arrowLeft.mouseout"/>
                  </use>
                  <path fill="none" stroke="white" stroke-width="1.5" d="M0,-3.0v7 M-2.5,-0.5L0,-3.0L2.5,-0.5"/>
                </g>
        </g>
        <svg viewBox="0 0 15 15" width="100%" height="30px" preserveAspectRatio="xMaxYMin meet">
         <g id="arrow_out" transform="scale(0.3 0.3)">
          <a xlink:href="_promoted_element_i_o_8_c__incl_org.svg" target="_base">
           <rect id="button" ry="5" rx="5" y="6" x="6" height="38" width="38"
                fill="#f2f5e9" fill-opacity="0.5" stroke="#606060" stroke-width="1.0"/>
           <path id="arrow"
             d="M 11.500037,31.436501 C 11.940474,20.09759 22.043105,11.32322 32.158766,21.979434 L 37.068811,17.246167 C 37.068811,17.246167 37.088388,32 37.088388,32 L 22.160133,31.978069 C 22.160133,31.978069 26.997745,27.140456 26.997745,27.140456 C 18.528582,18.264221 13.291696,25.230495 11.500037,31.436501 z"
             style="fill:#404040;"/>
          </a>
         </g>
        </svg>
</svg>
