<?xml version="1.0" encoding="UTF-8" standalone="no"?>
<!DOCTYPE svg PUBLIC "-//W3C//DTD SVG 1.1//EN"
 "http://www.w3.org/Graphics/SVG/1.1/DTD/svg11.dtd">
<!-- Generated by graphviz version 2.43.0 (0)
 -->
<!-- Title: PromotedPartHelper.C Pages: 1 -->
<svg width="1143pt" height="95pt"
 viewBox="0.00 0.00 1142.50 95.00" xmlns="http://www.w3.org/2000/svg" xmlns:xlink="http://www.w3.org/1999/xlink">
<g id="graph0" class="graph" transform="scale(1 1) rotate(0) translate(4 91)">
<title>PromotedPartHelper.C</title>
<polygon fill="white" stroke="transparent" points="-4,4 -4,-91 1138.5,-91 1138.5,4 -4,4"/>
<!-- Node1 -->
<g id="node1" class="node">
<title>Node1</title>
<g id="a_node1"><a xlink:title=" ">
<polygon fill="#bfbfbf" stroke="black" points="616.5,-67.5 616.5,-86.5 740.5,-86.5 740.5,-67.5 616.5,-67.5"/>
<text text-anchor="middle" x="678.5" y="-74.5" font-family="Helvetica,sans-Serif" font-size="10.00">PromotedPartHelper.C</text>
</a>
</g>
</g>
<!-- Node2 -->
<g id="node2" class="node">
<title>Node2</title>
<g id="a_node2"><a xlink:title=" ">
<polygon fill="white" stroke="#bfbfbf" points="0,-0.5 0,-30.5 163,-30.5 163,-0.5 0,-0.5"/>
<text text-anchor="start" x="8" y="-18.5" font-family="Helvetica,sans-Serif" font-size="10.00">element_promotion/Promoted</text>
<text text-anchor="middle" x="81.5" y="-7.5" font-family="Helvetica,sans-Serif" font-size="10.00">PartHelper.h</text>
</a>
</g>
</g>
<!-- Node1&#45;&gt;Node2 -->
<g id="edge1" class="edge">
<title>Node1&#45;&gt;Node2</title>
<path fill="none" stroke="midnightblue" d="M616.3,-71.91C522.5,-65.43 339.03,-51.53 173.74,-31.23"/>
<polygon fill="midnightblue" stroke="midnightblue" points="173.74,-27.7 163.38,-29.95 172.87,-34.65 173.74,-27.7"/>
</g>
<!-- Node3 -->
<g id="node3" class="node">
<title>Node3</title>
<g id="a_node3"><a xlink:title=" ">
<polygon fill="white" stroke="#bfbfbf" points="181,-6 181,-25 246,-25 246,-6 181,-6"/>
<text text-anchor="middle" x="213.5" y="-13" font-family="Helvetica,sans-Serif" font-size="10.00">NaluEnv.h</text>
</a>
</g>
</g>
<!-- Node1&#45;&gt;Node3 -->
<g id="edge2" class="edge">
<title>Node1&#45;&gt;Node3</title>
<path fill="none" stroke="midnightblue" d="M616.5,-73.79C533.43,-69.84 381.83,-59.14 255.5,-31 252.08,-30.24 248.56,-29.29 245.07,-28.25"/>
<polygon fill="midnightblue" stroke="midnightblue" points="246.05,-24.89 235.46,-25.13 243.89,-31.55 246.05,-24.89"/>
</g>
<!-- Node4 -->
<g id="node4" class="node">
<title>Node4</title>
<g id="a_node4"><a xlink:title=" ">
<polygon fill="white" stroke="#bfbfbf" points="264.5,-6 264.5,-25 426.5,-25 426.5,-6 264.5,-6"/>
<text text-anchor="middle" x="345.5" y="-13" font-family="Helvetica,sans-Serif" font-size="10.00">stk_mesh/base/MetaData.hpp</text>
</a>
</g>
</g>
<!-- Node1&#45;&gt;Node4 -->
<g id="edge3" class="edge">
<title>Node1&#45;&gt;Node4</title>
<path fill="none" stroke="midnightblue" d="M630.79,-67.48C570.7,-56.74 467.54,-38.31 403.12,-26.79"/>
<polygon fill="midnightblue" stroke="midnightblue" points="403.58,-23.32 393.12,-25.01 402.35,-30.21 403.58,-23.32"/>
</g>
<!-- Node5 -->
<g id="node5" class="node">
<title>Node5</title>
<g id="a_node5"><a xlink:title=" ">
<polygon fill="white" stroke="#bfbfbf" points="445,-6 445,-25 578,-25 578,-6 445,-6"/>
<text text-anchor="middle" x="511.5" y="-13" font-family="Helvetica,sans-Serif" font-size="10.00">stk_mesh/base/Part.hpp</text>
</a>
</g>
</g>
<!-- Node1&#45;&gt;Node5 -->
<g id="edge4" class="edge">
<title>Node1&#45;&gt;Node5</title>
<path fill="none" stroke="midnightblue" d="M654.57,-67.48C625.8,-57.22 577.34,-39.96 544.9,-28.4"/>
<polygon fill="midnightblue" stroke="midnightblue" points="545.98,-25.07 535.38,-25.01 543.63,-31.66 545.98,-25.07"/>
</g>
<!-- Node6 -->
<g id="node6" class="node">
<title>Node6</title>
<g id="a_node6"><a xlink:title=" ">
<polygon fill="white" stroke="#bfbfbf" points="596,-6 596,-25 761,-25 761,-6 596,-6"/>
<text text-anchor="middle" x="678.5" y="-13" font-family="Helvetica,sans-Serif" font-size="10.00">stk_util/util/ReportHandler.hpp</text>
</a>
</g>
</g>
<!-- Node1&#45;&gt;Node6 -->
<g id="edge5" class="edge">
<title>Node1&#45;&gt;Node6</title>
<path fill="none" stroke="midnightblue" d="M678.5,-67.48C678.5,-59.08 678.5,-45.98 678.5,-35.16"/>
<polygon fill="midnightblue" stroke="midnightblue" points="682,-35.01 678.5,-25.01 675,-35.01 682,-35.01"/>
</g>
<!-- Node7 -->
<g id="node7" class="node">
<title>Node7</title>
<g id="a_node7"><a xlink:title=" ">
<polygon fill="white" stroke="#bfbfbf" points="779,-6 779,-25 924,-25 924,-6 779,-6"/>
<text text-anchor="middle" x="851.5" y="-13" font-family="Helvetica,sans-Serif" font-size="10.00">stk_topology/topology.hpp</text>
</a>
</g>
</g>
<!-- Node1&#45;&gt;Node7 -->
<g id="edge6" class="edge">
<title>Node1&#45;&gt;Node7</title>
<path fill="none" stroke="midnightblue" d="M703.29,-67.48C733.09,-57.22 783.29,-39.96 816.9,-28.4"/>
<polygon fill="midnightblue" stroke="midnightblue" points="818.44,-31.57 826.76,-25.01 816.16,-24.95 818.44,-31.57"/>
</g>
<!-- Node8 -->
<g id="node8" class="node">
<title>Node8</title>
<g id="a_node8"><a xlink:title=" ">
<polygon fill="white" stroke="#bfbfbf" points="942.5,-6 942.5,-25 1006.5,-25 1006.5,-6 942.5,-6"/>
<text text-anchor="middle" x="974.5" y="-13" font-family="Helvetica,sans-Serif" font-size="10.00">algorithm</text>
</a>
</g>
</g>
<!-- Node1&#45;&gt;Node8 -->
<g id="edge7" class="edge">
<title>Node1&#45;&gt;Node8</title>
<path fill="none" stroke="midnightblue" d="M740.69,-67.96C792.71,-60.53 868.61,-48.07 933.5,-31 936.54,-30.2 939.68,-29.28 942.8,-28.29"/>
<polygon fill="midnightblue" stroke="midnightblue" points="944.21,-31.51 952.58,-25 941.99,-24.87 944.21,-31.51"/>
</g>
<!-- Node9 -->
<g id="node9" class="node">
<title>Node9</title>
<g id="a_node9"><a xlink:title=" ">
<polygon fill="white" stroke="#bfbfbf" points="1025,-6 1025,-25 1072,-25 1072,-6 1025,-6"/>
<text text-anchor="middle" x="1048.5" y="-13" font-family="Helvetica,sans-Serif" font-size="10.00">vector</text>
</a>
</g>
</g>
<!-- Node1&#45;&gt;Node9 -->
<g id="edge8" class="edge">
<title>Node1&#45;&gt;Node9</title>
<path fill="none" stroke="midnightblue" d="M740.74,-72.93C809.18,-68.35 921.87,-57.25 1015.5,-31 1017.65,-30.4 1019.85,-29.68 1022.03,-28.89"/>
<polygon fill="midnightblue" stroke="midnightblue" points="1023.41,-32.11 1031.37,-25.12 1020.79,-25.62 1023.41,-32.11"/>
</g>
<!-- Node10 -->
<g id="node10" class="node">
<title>Node10</title>
<g id="a_node10"><a xlink:title=" ">
<polygon fill="white" stroke="#bfbfbf" points="1090.5,-6 1090.5,-25 1134.5,-25 1134.5,-6 1090.5,-6"/>
<text text-anchor="middle" x="1112.5" y="-13" font-family="Helvetica,sans-Serif" font-size="10.00">string</text>
</a>
</g>
</g>
<!-- Node1&#45;&gt;Node10 -->
<g id="edge9" class="edge">
<title>Node1&#45;&gt;Node10</title>
<path fill="none" stroke="midnightblue" d="M740.8,-75.29C821.02,-72.97 964.09,-64.04 1081.5,-31 1083.43,-30.46 1085.39,-29.8 1087.34,-29.08"/>
<polygon fill="midnightblue" stroke="midnightblue" points="1088.96,-32.19 1096.79,-25.06 1086.22,-25.75 1088.96,-32.19"/>
</g>
</g>
</svg>
