<?xml version="1.0" encoding="UTF-8" standalone="no"?>
<!DOCTYPE svg PUBLIC "-//W3C//DTD SVG 1.1//EN"
 "http://www.w3.org/Graphics/SVG/1.1/DTD/svg11.dtd">
<!-- Generated by graphviz version 2.43.0 (0)
 -->
<!-- Title: PromoteElementImpl.C Pages: 1 -->
<svg width="4394pt" height="95pt"
 viewBox="0.00 0.00 4393.50 95.00" xmlns="http://www.w3.org/2000/svg" xmlns:xlink="http://www.w3.org/1999/xlink">
<g id="graph0" class="graph" transform="scale(1 1) rotate(0) translate(4 91)">
<title>PromoteElementImpl.C</title>
<polygon fill="white" stroke="transparent" points="-4,4 -4,-91 4389.5,-91 4389.5,4 -4,4"/>
<!-- Node1 -->
<g id="node1" class="node">
<title>Node1</title>
<g id="a_node1"><a xlink:title=" ">
<polygon fill="#bfbfbf" stroke="black" points="2432.5,-67.5 2432.5,-86.5 2562.5,-86.5 2562.5,-67.5 2432.5,-67.5"/>
<text text-anchor="middle" x="2497.5" y="-74.5" font-family="Helvetica,sans-Serif" font-size="10.00">PromoteElementImpl.C</text>
</a>
</g>
</g>
<!-- Node2 -->
<g id="node2" class="node">
<title>Node2</title>
<g id="a_node2"><a xlink:title=" ">
<polygon fill="white" stroke="#bfbfbf" points="0,-0.5 0,-30.5 157,-30.5 157,-0.5 0,-0.5"/>
<text text-anchor="start" x="8" y="-18.5" font-family="Helvetica,sans-Serif" font-size="10.00">element_promotion/Promote</text>
<text text-anchor="middle" x="78.5" y="-7.5" font-family="Helvetica,sans-Serif" font-size="10.00">ElementImpl.h</text>
</a>
</g>
</g>
<!-- Node1&#45;&gt;Node2 -->
<g id="edge1" class="edge">
<title>Node1&#45;&gt;Node2</title>
<path fill="none" stroke="midnightblue" d="M2432.39,-76.03C2105.91,-75.97 644.18,-73.37 167.21,-31.05"/>
<polygon fill="midnightblue" stroke="midnightblue" points="167.43,-27.55 157.15,-30.14 166.8,-34.53 167.43,-27.55"/>
</g>
<!-- Node3 -->
<g id="node3" class="node">
<title>Node3</title>
<g id="a_node3"><a xlink:title=" ">
<polygon fill="white" stroke="#bfbfbf" points="175,-0.5 175,-30.5 338,-30.5 338,-0.5 175,-0.5"/>
<text text-anchor="start" x="183" y="-18.5" font-family="Helvetica,sans-Serif" font-size="10.00">element_promotion/Promoted</text>
<text text-anchor="middle" x="256.5" y="-7.5" font-family="Helvetica,sans-Serif" font-size="10.00">PartHelper.h</text>
</a>
</g>
</g>
<!-- Node1&#45;&gt;Node3 -->
<g id="edge2" class="edge">
<title>Node1&#45;&gt;Node3</title>
<path fill="none" stroke="midnightblue" d="M2432.35,-75.86C2121.62,-74.99 787.58,-69.13 348.56,-31.09"/>
<polygon fill="midnightblue" stroke="midnightblue" points="348.63,-27.58 338.36,-30.18 348.01,-34.55 348.63,-27.58"/>
</g>
<!-- Node4 -->
<g id="node4" class="node">
<title>Node4</title>
<g id="a_node4"><a xlink:title=" ">
<polygon fill="white" stroke="#bfbfbf" points="356,-0.5 356,-30.5 539,-30.5 539,-0.5 356,-0.5"/>
<text text-anchor="start" x="364" y="-18.5" font-family="Helvetica,sans-Serif" font-size="10.00">element_promotion/HexNElement</text>
<text text-anchor="middle" x="447.5" y="-7.5" font-family="Helvetica,sans-Serif" font-size="10.00">Description.h</text>
</a>
</g>
</g>
<!-- Node1&#45;&gt;Node4 -->
<g id="edge3" class="edge">
<title>Node1&#45;&gt;Node4</title>
<path fill="none" stroke="midnightblue" d="M2432.42,-75.56C2140.17,-73.41 946.51,-62.86 549.1,-31.05"/>
<polygon fill="midnightblue" stroke="midnightblue" points="549.25,-27.55 539,-30.22 548.68,-34.52 549.25,-27.55"/>
</g>
<!-- Node5 -->
<g id="node5" class="node">
<title>Node5</title>
<g id="a_node5"><a xlink:title=" ">
<polygon fill="white" stroke="#bfbfbf" points="557,-6 557,-25 716,-25 716,-6 557,-6"/>
<text text-anchor="middle" x="636.5" y="-13" font-family="Helvetica,sans-Serif" font-size="10.00">stk_mesh/base/BulkData.hpp</text>
</a>
</g>
</g>
<!-- Node1&#45;&gt;Node5 -->
<g id="edge4" class="edge">
<title>Node1&#45;&gt;Node5</title>
<path fill="none" stroke="midnightblue" d="M2432.39,-75.53C2154.51,-73.37 1066.56,-62.96 725.5,-31 714.52,-29.97 702.85,-28.41 691.69,-26.69"/>
<polygon fill="midnightblue" stroke="midnightblue" points="692.05,-23.2 681.62,-25.07 690.94,-30.11 692.05,-23.2"/>
</g>
<!-- Node6 -->
<g id="node6" class="node">
<title>Node6</title>
<g id="a_node6"><a xlink:title=" ">
<polygon fill="white" stroke="#bfbfbf" points="734.5,-6 734.5,-25 896.5,-25 896.5,-6 734.5,-6"/>
<text text-anchor="middle" x="815.5" y="-13" font-family="Helvetica,sans-Serif" font-size="10.00">stk_mesh/base/MetaData.hpp</text>
</a>
</g>
</g>
<!-- Node1&#45;&gt;Node6 -->
<g id="edge5" class="edge">
<title>Node1&#45;&gt;Node6</title>
<path fill="none" stroke="midnightblue" d="M2432.1,-75.3C2171.85,-72.33 1209.17,-59.63 905.5,-31 894.4,-29.95 882.6,-28.39 871.31,-26.66"/>
<polygon fill="midnightblue" stroke="midnightblue" points="871.56,-23.16 861.14,-25.05 870.46,-30.07 871.56,-23.16"/>
</g>
<!-- Node7 -->
<g id="node7" class="node">
<title>Node7</title>
<g id="a_node7"><a xlink:title=" ">
<polygon fill="white" stroke="#bfbfbf" points="915,-6 915,-25 1052,-25 1052,-6 915,-6"/>
<text text-anchor="middle" x="983.5" y="-13" font-family="Helvetica,sans-Serif" font-size="10.00">stk_mesh/base/Field.hpp</text>
</a>
</g>
</g>
<!-- Node1&#45;&gt;Node7 -->
<g id="edge6" class="edge">
<title>Node1&#45;&gt;Node7</title>
<path fill="none" stroke="midnightblue" d="M2432.32,-75.3C2188.71,-72.48 1331.89,-60.62 1060.5,-31 1051.36,-30 1041.69,-28.52 1032.39,-26.88"/>
<polygon fill="midnightblue" stroke="midnightblue" points="1032.97,-23.43 1022.5,-25.06 1031.7,-30.31 1032.97,-23.43"/>
</g>
<!-- Node8 -->
<g id="node8" class="node">
<title>Node8</title>
<g id="a_node8"><a xlink:title=" ">
<polygon fill="white" stroke="#bfbfbf" points="1070,-6 1070,-25 1243,-25 1243,-6 1070,-6"/>
<text text-anchor="middle" x="1156.5" y="-13" font-family="Helvetica,sans-Serif" font-size="10.00">stk_mesh/base/FieldParallel.hpp</text>
</a>
</g>
</g>
<!-- Node1&#45;&gt;Node8 -->
<g id="edge7" class="edge">
<title>Node1&#45;&gt;Node8</title>
<path fill="none" stroke="midnightblue" d="M2432.19,-76.25C2246.93,-76.41 1702.32,-72.96 1252.5,-31 1240.57,-29.89 1227.86,-28.27 1215.73,-26.52"/>
<polygon fill="midnightblue" stroke="midnightblue" points="1216.11,-23.04 1205.7,-25.03 1215.07,-29.97 1216.11,-23.04"/>
</g>
<!-- Node9 -->
<g id="node9" class="node">
<title>Node9</title>
<g id="a_node9"><a xlink:title=" ">
<polygon fill="white" stroke="#bfbfbf" points="1261.5,-6 1261.5,-25 1431.5,-25 1431.5,-6 1261.5,-6"/>
<text text-anchor="middle" x="1346.5" y="-13" font-family="Helvetica,sans-Serif" font-size="10.00">stk_mesh/base/GetBuckets.hpp</text>
</a>
</g>
</g>
<!-- Node1&#45;&gt;Node9 -->
<g id="edge8" class="edge">
<title>Node1&#45;&gt;Node9</title>
<path fill="none" stroke="midnightblue" d="M2432.37,-75.73C2266.51,-74.49 1814.77,-67.72 1440.5,-31 1429.06,-29.88 1416.89,-28.29 1405.24,-26.58"/>
<polygon fill="midnightblue" stroke="midnightblue" points="1405.57,-23.09 1395.16,-25.05 1404.52,-30.01 1405.57,-23.09"/>
</g>
<!-- Node10 -->
<g id="node10" class="node">
<title>Node10</title>
<g id="a_node10"><a xlink:title=" ">
<polygon fill="white" stroke="#bfbfbf" points="1449.5,-6 1449.5,-25 1617.5,-25 1617.5,-6 1449.5,-6"/>
<text text-anchor="middle" x="1533.5" y="-13" font-family="Helvetica,sans-Serif" font-size="10.00">stk_mesh/base/GetEntities.hpp</text>
</a>
</g>
</g>
<!-- Node1&#45;&gt;Node10 -->
<g id="edge9" class="edge">
<title>Node1&#45;&gt;Node10</title>
<path fill="none" stroke="midnightblue" d="M2432.31,-74.93C2287.19,-72.03 1926.59,-62.06 1626.5,-31 1615.42,-29.85 1603.66,-28.29 1592.35,-26.61"/>
<polygon fill="midnightblue" stroke="midnightblue" points="1592.54,-23.1 1582.13,-25.05 1591.48,-30.02 1592.54,-23.1"/>
</g>
<!-- Node11 -->
<g id="node11" class="node">
<title>Node11</title>
<g id="a_node11"><a xlink:title=" ">
<polygon fill="white" stroke="#bfbfbf" points="1636,-6 1636,-25 1769,-25 1769,-6 1636,-6"/>
<text text-anchor="middle" x="1702.5" y="-13" font-family="Helvetica,sans-Serif" font-size="10.00">stk_mesh/base/Part.hpp</text>
</a>
</g>
</g>
<!-- Node1&#45;&gt;Node11 -->
<g id="edge10" class="edge">
<title>Node1&#45;&gt;Node11</title>
<path fill="none" stroke="midnightblue" d="M2432.21,-74.73C2305.49,-71.64 2017.59,-61.58 1777.5,-31 1769.08,-29.93 1760.19,-28.49 1751.59,-26.93"/>
<polygon fill="midnightblue" stroke="midnightblue" points="1752.14,-23.47 1741.66,-25.06 1750.84,-30.35 1752.14,-23.47"/>
</g>
<!-- Node12 -->
<g id="node12" class="node">
<title>Node12</title>
<g id="a_node12"><a xlink:title=" ">
<polygon fill="white" stroke="#bfbfbf" points="1787,-6 1787,-25 1940,-25 1940,-6 1787,-6"/>
<text text-anchor="middle" x="1863.5" y="-13" font-family="Helvetica,sans-Serif" font-size="10.00">stk_mesh/base/Selector.hpp</text>
</a>
</g>
</g>
<!-- Node1&#45;&gt;Node12 -->
<g id="edge11" class="edge">
<title>Node1&#45;&gt;Node12</title>
<path fill="none" stroke="midnightblue" d="M2432.24,-72.5C2329.19,-66.55 2122.61,-52.94 1948.5,-31 1939.02,-29.81 1928.98,-28.3 1919.26,-26.73"/>
<polygon fill="midnightblue" stroke="midnightblue" points="1919.71,-23.25 1909.27,-25.06 1918.56,-30.16 1919.71,-23.25"/>
</g>
<!-- Node13 -->
<g id="node13" class="node">
<title>Node13</title>
<g id="a_node13"><a xlink:title=" ">
<polygon fill="white" stroke="#bfbfbf" points="1958,-6 1958,-25 2131,-25 2131,-6 1958,-6"/>
<text text-anchor="middle" x="2044.5" y="-13" font-family="Helvetica,sans-Serif" font-size="10.00">stk_mesh/base/FEMHelpers.hpp</text>
</a>
</g>
</g>
<!-- Node1&#45;&gt;Node13 -->
<g id="edge12" class="edge">
<title>Node1&#45;&gt;Node13</title>
<path fill="none" stroke="midnightblue" d="M2432.29,-68.27C2360.67,-59.66 2242.29,-45.1 2140.5,-31 2130.38,-29.6 2119.67,-28.05 2109.21,-26.5"/>
<polygon fill="midnightblue" stroke="midnightblue" points="2109.7,-23.03 2099.29,-25.01 2108.67,-29.95 2109.7,-23.03"/>
</g>
<!-- Node14 -->
<g id="node14" class="node">
<title>Node14</title>
<g id="a_node14"><a xlink:title=" ">
<polygon fill="white" stroke="#bfbfbf" points="2149.5,-0.5 2149.5,-30.5 2295.5,-30.5 2295.5,-0.5 2149.5,-0.5"/>
<text text-anchor="start" x="2157.5" y="-18.5" font-family="Helvetica,sans-Serif" font-size="10.00">stk_mesh/base/HashEntity</text>
<text text-anchor="middle" x="2222.5" y="-7.5" font-family="Helvetica,sans-Serif" font-size="10.00">AndEntityKey.hpp</text>
</a>
</g>
</g>
<!-- Node1&#45;&gt;Node14 -->
<g id="edge13" class="edge">
<title>Node1&#45;&gt;Node14</title>
<path fill="none" stroke="midnightblue" d="M2458.1,-67.48C2416.24,-58.42 2349.08,-43.89 2297.15,-32.65"/>
<polygon fill="midnightblue" stroke="midnightblue" points="2297.83,-29.22 2287.31,-30.52 2296.35,-36.06 2297.83,-29.22"/>
</g>
<!-- Node15 -->
<g id="node15" class="node">
<title>Node15</title>
<g id="a_node15"><a xlink:title=" ">
<polygon fill="white" stroke="#bfbfbf" points="2313.5,-6 2313.5,-25 2489.5,-25 2489.5,-6 2313.5,-6"/>
<text text-anchor="middle" x="2401.5" y="-13" font-family="Helvetica,sans-Serif" font-size="10.00">stk_mesh/base/CreateEdges.hpp</text>
</a>
</g>
</g>
<!-- Node1&#45;&gt;Node15 -->
<g id="edge14" class="edge">
<title>Node1&#45;&gt;Node15</title>
<path fill="none" stroke="midnightblue" d="M2483.75,-67.48C2468.13,-57.8 2442.44,-41.87 2423.92,-30.39"/>
<polygon fill="midnightblue" stroke="midnightblue" points="2425.57,-27.3 2415.23,-25.01 2421.88,-33.25 2425.57,-27.3"/>
</g>
<!-- Node16 -->
<g id="node16" class="node">
<title>Node16</title>
<g id="a_node16"><a xlink:title=" ">
<polygon fill="white" stroke="#bfbfbf" points="2508,-6 2508,-25 2681,-25 2681,-6 2508,-6"/>
<text text-anchor="middle" x="2594.5" y="-13" font-family="Helvetica,sans-Serif" font-size="10.00">stk_mesh/base/CreateFaces.hpp</text>
</a>
</g>
</g>
<!-- Node1&#45;&gt;Node16 -->
<g id="edge15" class="edge">
<title>Node1&#45;&gt;Node16</title>
<path fill="none" stroke="midnightblue" d="M2511.4,-67.48C2527.17,-57.8 2553.14,-41.87 2571.85,-30.39"/>
<polygon fill="midnightblue" stroke="midnightblue" points="2573.93,-33.22 2580.63,-25.01 2570.27,-27.25 2573.93,-33.22"/>
</g>
<!-- Node17 -->
<g id="node17" class="node">
<title>Node17</title>
<g id="a_node17"><a xlink:title=" ">
<polygon fill="white" stroke="#bfbfbf" points="2699.5,-6 2699.5,-25 2859.5,-25 2859.5,-6 2699.5,-6"/>
<text text-anchor="middle" x="2779.5" y="-13" font-family="Helvetica,sans-Serif" font-size="10.00">stk_search/CoarseSearch.hpp</text>
</a>
</g>
</g>
<!-- Node1&#45;&gt;Node17 -->
<g id="edge16" class="edge">
<title>Node1&#45;&gt;Node17</title>
<path fill="none" stroke="midnightblue" d="M2537.9,-67.48C2588.37,-56.83 2674.71,-38.61 2729.35,-27.08"/>
<polygon fill="midnightblue" stroke="midnightblue" points="2730.11,-30.5 2739.17,-25.01 2728.66,-23.65 2730.11,-30.5"/>
</g>
<!-- Node18 -->
<g id="node18" class="node">
<title>Node18</title>
<g id="a_node18"><a xlink:title=" ">
<polygon fill="white" stroke="#bfbfbf" points="2878,-6 2878,-25 3017,-25 3017,-6 2878,-6"/>
<text text-anchor="middle" x="2947.5" y="-13" font-family="Helvetica,sans-Serif" font-size="10.00">stk_search/IdentProc.hpp</text>
</a>
</g>
</g>
<!-- Node1&#45;&gt;Node18 -->
<g id="edge17" class="edge">
<title>Node1&#45;&gt;Node18</title>
<path fill="none" stroke="midnightblue" d="M2562.67,-69.31C2636.89,-61.41 2761.7,-47.26 2868.5,-31 2876.63,-29.76 2885.22,-28.32 2893.61,-26.84"/>
<polygon fill="midnightblue" stroke="midnightblue" points="2894.48,-30.24 2903.7,-25.03 2893.24,-23.35 2894.48,-30.24"/>
</g>
<!-- Node19 -->
<g id="node19" class="node">
<title>Node19</title>
<g id="a_node19"><a xlink:title=" ">
<polygon fill="white" stroke="#bfbfbf" points="3035.5,-6 3035.5,-25 3187.5,-25 3187.5,-6 3035.5,-6"/>
<text text-anchor="middle" x="3111.5" y="-13" font-family="Helvetica,sans-Serif" font-size="10.00">stk_io/StkMeshIoBroker.hpp</text>
</a>
</g>
</g>
<!-- Node1&#45;&gt;Node19 -->
<g id="edge18" class="edge">
<title>Node1&#45;&gt;Node19</title>
<path fill="none" stroke="midnightblue" d="M2562.84,-72.22C2662.92,-66.02 2860.1,-52.23 3026.5,-31 3035.98,-29.79 3046.01,-28.28 3055.74,-26.7"/>
<polygon fill="midnightblue" stroke="midnightblue" points="3056.44,-30.13 3065.73,-25.03 3055.29,-23.23 3056.44,-30.13"/>
</g>
<!-- Node20 -->
<g id="node20" class="node">
<title>Node20</title>
<g id="a_node20"><a xlink:title=" ">
<polygon fill="white" stroke="#bfbfbf" points="3206,-6 3206,-25 3351,-25 3351,-6 3206,-6"/>
<text text-anchor="middle" x="3278.5" y="-13" font-family="Helvetica,sans-Serif" font-size="10.00">stk_topology/topology.hpp</text>
</a>
</g>
</g>
<!-- Node1&#45;&gt;Node20 -->
<g id="edge19" class="edge">
<title>Node1&#45;&gt;Node20</title>
<path fill="none" stroke="midnightblue" d="M2562.77,-74.21C2686.68,-70.28 2964.39,-58.91 3196.5,-31 3205.98,-29.86 3216.03,-28.34 3225.72,-26.72"/>
<polygon fill="midnightblue" stroke="midnightblue" points="3226.39,-30.15 3235.65,-25 3225.2,-23.26 3226.39,-30.15"/>
</g>
<!-- Node21 -->
<g id="node21" class="node">
<title>Node21</title>
<g id="a_node21"><a xlink:title=" ">
<polygon fill="white" stroke="#bfbfbf" points="3369,-0.5 3369,-30.5 3500,-30.5 3500,-0.5 3369,-0.5"/>
<text text-anchor="start" x="3377" y="-18.5" font-family="Helvetica,sans-Serif" font-size="10.00">stk_util/parallel/Parallel</text>
<text text-anchor="middle" x="3434.5" y="-7.5" font-family="Helvetica,sans-Serif" font-size="10.00">Reduce.hpp</text>
</a>
</g>
</g>
<!-- Node1&#45;&gt;Node21 -->
<g id="edge20" class="edge">
<title>Node1&#45;&gt;Node21</title>
<path fill="none" stroke="midnightblue" d="M2562.73,-75.74C2705.45,-74.49 3056.19,-67.72 3358.53,-31.13"/>
<polygon fill="midnightblue" stroke="midnightblue" points="3359.31,-34.56 3368.81,-29.87 3358.46,-27.61 3359.31,-34.56"/>
</g>
<!-- Node22 -->
<g id="node22" class="node">
<title>Node22</title>
<g id="a_node22"><a xlink:title=" ">
<polygon fill="white" stroke="#bfbfbf" points="3518.5,-6 3518.5,-25 3700.5,-25 3700.5,-6 3518.5,-6"/>
<text text-anchor="middle" x="3609.5" y="-13" font-family="Helvetica,sans-Serif" font-size="10.00">stk_util/parallel/CommSparse.hpp</text>
</a>
</g>
</g>
<!-- Node1&#45;&gt;Node22 -->
<g id="edge21" class="edge">
<title>Node1&#45;&gt;Node22</title>
<path fill="none" stroke="midnightblue" d="M2562.77,-75.35C2723.88,-73.25 3153.2,-64.67 3509.5,-31 3521.9,-29.83 3535.12,-28.19 3547.74,-26.44"/>
<polygon fill="midnightblue" stroke="midnightblue" points="3548.31,-29.89 3557.72,-25.01 3547.32,-22.96 3548.31,-29.89"/>
</g>
<!-- Node23 -->
<g id="node23" class="node">
<title>Node23</title>
<g id="a_node23"><a xlink:title=" ">
<polygon fill="white" stroke="#bfbfbf" points="3719,-0.5 3719,-30.5 3850,-30.5 3850,-0.5 3719,-0.5"/>
<text text-anchor="start" x="3727" y="-18.5" font-family="Helvetica,sans-Serif" font-size="10.00">stk_util/parallel/Parallel</text>
<text text-anchor="middle" x="3784.5" y="-7.5" font-family="Helvetica,sans-Serif" font-size="10.00">Comm.hpp</text>
</a>
</g>
</g>
<!-- Node1&#45;&gt;Node23 -->
<g id="edge22" class="edge">
<title>Node1&#45;&gt;Node23</title>
<path fill="none" stroke="midnightblue" d="M2562.74,-74.9C2777.87,-71.08 3464.53,-57.19 3708.5,-30.95"/>
<polygon fill="midnightblue" stroke="midnightblue" points="3709.19,-34.39 3718.74,-29.81 3708.41,-27.43 3709.19,-34.39"/>
</g>
<!-- Node24 -->
<g id="node24" class="node">
<title>Node24</title>
<g id="a_node24"><a xlink:title=" ">
<polygon fill="white" stroke="#bfbfbf" points="3868,-6 3868,-25 4033,-25 4033,-6 3868,-6"/>
<text text-anchor="middle" x="3950.5" y="-13" font-family="Helvetica,sans-Serif" font-size="10.00">stk_util/util/ReportHandler.hpp</text>
</a>
</g>
</g>
<!-- Node1&#45;&gt;Node24 -->
<g id="edge23" class="edge">
<title>Node1&#45;&gt;Node24</title>
<path fill="none" stroke="midnightblue" d="M2562.86,-74.92C2798.4,-70.88 3603.24,-55.55 3859.5,-31 3870.6,-29.94 3882.39,-28.38 3893.69,-26.67"/>
<polygon fill="midnightblue" stroke="midnightblue" points="3894.54,-30.08 3903.88,-25.08 3893.46,-23.17 3894.54,-30.08"/>
</g>
<!-- Node25 -->
<g id="node25" class="node">
<title>Node25</title>
<g id="a_node25"><a xlink:title=" ">
<polygon fill="white" stroke="#bfbfbf" points="4051.5,-6 4051.5,-25 4115.5,-25 4115.5,-6 4051.5,-6"/>
<text text-anchor="middle" x="4083.5" y="-13" font-family="Helvetica,sans-Serif" font-size="10.00">algorithm</text>
</a>
</g>
</g>
<!-- Node1&#45;&gt;Node25 -->
<g id="edge24" class="edge">
<title>Node1&#45;&gt;Node25</title>
<path fill="none" stroke="midnightblue" d="M2562.87,-75.29C2838.19,-72.15 3895.85,-58.37 4042.5,-31 4046.21,-30.31 4050.03,-29.33 4053.78,-28.22"/>
<polygon fill="midnightblue" stroke="midnightblue" points="4055.02,-31.49 4063.41,-25.01 4052.81,-24.85 4055.02,-31.49"/>
</g>
<!-- Node26 -->
<g id="node26" class="node">
<title>Node26</title>
<g id="a_node26"><a xlink:title=" ">
<polygon fill="white" stroke="#bfbfbf" points="4134,-6 4134,-25 4181,-25 4181,-6 4134,-6"/>
<text text-anchor="middle" x="4157.5" y="-13" font-family="Helvetica,sans-Serif" font-size="10.00">vector</text>
</a>
</g>
</g>
<!-- Node1&#45;&gt;Node26 -->
<g id="edge25" class="edge">
<title>Node1&#45;&gt;Node26</title>
<path fill="none" stroke="midnightblue" d="M2562.54,-75.68C2846.53,-74.07 3970.53,-65.56 4124.5,-31 4127.01,-30.44 4129.57,-29.68 4132.09,-28.81"/>
<polygon fill="midnightblue" stroke="midnightblue" points="4133.51,-32.01 4141.48,-25.02 4130.89,-25.51 4133.51,-32.01"/>
</g>
<!-- Node27 -->
<g id="node27" class="node">
<title>Node27</title>
<g id="a_node27"><a xlink:title=" ">
<polygon fill="white" stroke="#bfbfbf" points="4199,-6 4199,-25 4264,-25 4264,-6 4199,-6"/>
<text text-anchor="middle" x="4231.5" y="-13" font-family="Helvetica,sans-Serif" font-size="10.00">stdexcept</text>
</a>
</g>
</g>
<!-- Node1&#45;&gt;Node27 -->
<g id="edge26" class="edge">
<title>Node1&#45;&gt;Node27</title>
<path fill="none" stroke="midnightblue" d="M2562.66,-75.47C2853.82,-72.95 4028.6,-61 4190.5,-31 4194.21,-30.31 4198.03,-29.34 4201.78,-28.22"/>
<polygon fill="midnightblue" stroke="midnightblue" points="4203.03,-31.5 4211.41,-25.02 4200.81,-24.86 4203.03,-31.5"/>
</g>
<!-- Node28 -->
<g id="node28" class="node">
<title>Node28</title>
<g id="a_node28"><a xlink:title=" ">
<polygon fill="white" stroke="#bfbfbf" points="4282,-6 4282,-25 4323,-25 4323,-6 4282,-6"/>
<text text-anchor="middle" x="4302.5" y="-13" font-family="Helvetica,sans-Serif" font-size="10.00">tuple</text>
</a>
</g>
</g>
<!-- Node1&#45;&gt;Node28 -->
<g id="edge27" class="edge">
<title>Node1&#45;&gt;Node28</title>
<path fill="none" stroke="midnightblue" d="M2562.66,-76.03C2862.89,-75.93 4105.31,-72.96 4273.5,-31 4275.43,-30.52 4277.37,-29.9 4279.29,-29.18"/>
<polygon fill="midnightblue" stroke="midnightblue" points="4280.84,-32.32 4288.53,-25.03 4277.97,-25.94 4280.84,-32.32"/>
</g>
<!-- Node29 -->
<g id="node29" class="node">
<title>Node29</title>
<g id="a_node29"><a xlink:title=" ">
<polygon fill="white" stroke="#bfbfbf" points="4341.5,-6 4341.5,-25 4385.5,-25 4385.5,-6 4341.5,-6"/>
<text text-anchor="middle" x="4363.5" y="-13" font-family="Helvetica,sans-Serif" font-size="10.00">limits</text>
</a>
</g>
</g>
<!-- Node1&#45;&gt;Node29 -->
<g id="edge28" class="edge">
<title>Node1&#45;&gt;Node29</title>
<path fill="none" stroke="midnightblue" d="M2562.75,-75.99C2869.17,-75.71 4157.77,-72.1 4332.5,-31 4334.71,-30.48 4336.95,-29.79 4339.16,-29"/>
<polygon fill="midnightblue" stroke="midnightblue" points="4340.66,-32.16 4348.5,-25.03 4337.93,-25.72 4340.66,-32.16"/>
</g>
</g>
</svg>
