<?xml version="1.0" encoding="UTF-8" standalone="no"?>
<!DOCTYPE svg PUBLIC "-//W3C//DTD SVG 1.1//EN"
 "http://www.w3.org/Graphics/SVG/1.1/DTD/svg11.dtd">
<!-- Generated by graphviz version 2.43.0 (0)
 -->
<!-- Title: Quad43DCVFEM.C Pages: 1 -->
<svg width="650pt" height="95pt"
 viewBox="0.00 0.00 649.50 95.00" xmlns="http://www.w3.org/2000/svg" xmlns:xlink="http://www.w3.org/1999/xlink">
<g id="graph0" class="graph" transform="scale(1 1) rotate(0) translate(4 91)">
<title>Quad43DCVFEM.C</title>
<polygon fill="white" stroke="transparent" points="-4,4 -4,-91 645.5,-91 645.5,4 -4,4"/>
<!-- Node1 -->
<g id="node1" class="node">
<title>Node1</title>
<g id="a_node1"><a xlink:title=" ">
<polygon fill="#bfbfbf" stroke="black" points="341.5,-67.5 341.5,-86.5 447.5,-86.5 447.5,-67.5 341.5,-67.5"/>
<text text-anchor="middle" x="394.5" y="-74.5" font-family="Helvetica,sans-Serif" font-size="10.00">Quad43DCVFEM.C</text>
</a>
</g>
</g>
<!-- Node2 -->
<g id="node2" class="node">
<title>Node2</title>
<g id="a_node2"><a xlink:title=" ">
<polygon fill="white" stroke="#bfbfbf" points="0,-6 0,-25 183,-25 183,-6 0,-6"/>
<text text-anchor="middle" x="91.5" y="-13" font-family="Helvetica,sans-Serif" font-size="10.00">master_element/MasterElement.h</text>
</a>
</g>
</g>
<!-- Node1&#45;&gt;Node2 -->
<g id="edge1" class="edge">
<title>Node1&#45;&gt;Node2</title>
<path fill="none" stroke="midnightblue" d="M351.09,-67.48C296.64,-56.78 203.32,-38.46 144.65,-26.94"/>
<polygon fill="midnightblue" stroke="midnightblue" points="145.32,-23.5 134.83,-25.01 143.97,-30.37 145.32,-23.5"/>
</g>
<!-- Node3 -->
<g id="node3" class="node">
<title>Node3</title>
<g id="a_node3"><a xlink:title=" ">
<polygon fill="white" stroke="#bfbfbf" points="201.5,-6 201.5,-25 389.5,-25 389.5,-6 201.5,-6"/>
<text text-anchor="middle" x="295.5" y="-13" font-family="Helvetica,sans-Serif" font-size="10.00">master_element/Quad43DCVFEM.h</text>
</a>
</g>
</g>
<!-- Node1&#45;&gt;Node3 -->
<g id="edge2" class="edge">
<title>Node1&#45;&gt;Node3</title>
<path fill="none" stroke="midnightblue" d="M380.32,-67.48C364.14,-57.75 337.47,-41.73 318.36,-30.24"/>
<polygon fill="midnightblue" stroke="midnightblue" points="320.03,-27.16 309.66,-25.01 316.43,-33.16 320.03,-27.16"/>
</g>
<!-- Node4 -->
<g id="node4" class="node">
<title>Node4</title>
<g id="a_node4"><a xlink:title=" ">
<polygon fill="white" stroke="#bfbfbf" points="407.5,-0.5 407.5,-30.5 581.5,-30.5 581.5,-0.5 407.5,-0.5"/>
<text text-anchor="start" x="415.5" y="-18.5" font-family="Helvetica,sans-Serif" font-size="10.00">master_element/Hex8Geometry</text>
<text text-anchor="middle" x="494.5" y="-7.5" font-family="Helvetica,sans-Serif" font-size="10.00">Functions.h</text>
</a>
</g>
</g>
<!-- Node1&#45;&gt;Node4 -->
<g id="edge3" class="edge">
<title>Node1&#45;&gt;Node4</title>
<path fill="none" stroke="midnightblue" d="M408.83,-67.48C422.62,-59.27 443.98,-46.56 461.92,-35.88"/>
<polygon fill="midnightblue" stroke="midnightblue" points="464.13,-38.64 470.93,-30.52 460.55,-32.63 464.13,-38.64"/>
</g>
<!-- Node5 -->
<g id="node5" class="node">
<title>Node5</title>
<g id="a_node5"><a xlink:title=" ">
<polygon fill="white" stroke="#bfbfbf" points="599.5,-6 599.5,-25 641.5,-25 641.5,-6 599.5,-6"/>
<text text-anchor="middle" x="620.5" y="-13" font-family="Helvetica,sans-Serif" font-size="10.00">array</text>
</a>
</g>
</g>
<!-- Node1&#45;&gt;Node5 -->
<g id="edge4" class="edge">
<title>Node1&#45;&gt;Node5</title>
<path fill="none" stroke="midnightblue" d="M445.74,-67.5C485.81,-60.08 542.57,-47.84 590.5,-31 592.11,-30.43 593.75,-29.8 595.39,-29.13"/>
<polygon fill="midnightblue" stroke="midnightblue" points="596.9,-32.29 604.59,-25.01 594.03,-25.91 596.9,-32.29"/>
</g>
</g>
</svg>
