<?xml version="1.0" encoding="UTF-8" standalone="no"?>
<!DOCTYPE svg PUBLIC "-//W3C//DTD SVG 1.1//EN"
 "http://www.w3.org/Graphics/SVG/1.1/DTD/svg11.dtd">
<!-- Generated by graphviz version 2.43.0 (0)
 -->
<!-- Title: RayleighTaylorMixFracAuxFunction.C Pages: 1 -->
<svg width="467pt" height="106pt"
 viewBox="0.00 0.00 467.00 106.00" xmlns="http://www.w3.org/2000/svg" xmlns:xlink="http://www.w3.org/1999/xlink">
<g id="graph0" class="graph" transform="scale(1 1) rotate(0) translate(4 102)">
<title>RayleighTaylorMixFracAuxFunction.C</title>
<polygon fill="white" stroke="transparent" points="-4,4 -4,-102 463,-102 463,4 -4,4"/>
<!-- Node1 -->
<g id="node1" class="node">
<title>Node1</title>
<g id="a_node1"><a xlink:title=" ">
<polygon fill="#bfbfbf" stroke="black" points="214.5,-67.5 214.5,-97.5 360.5,-97.5 360.5,-67.5 214.5,-67.5"/>
<text text-anchor="start" x="222.5" y="-85.5" font-family="Helvetica,sans-Serif" font-size="10.00">RayleighTaylorMixFracAux</text>
<text text-anchor="middle" x="287.5" y="-74.5" font-family="Helvetica,sans-Serif" font-size="10.00">Function.C</text>
</a>
</g>
</g>
<!-- Node2 -->
<g id="node2" class="node">
<title>Node2</title>
<g id="a_node2"><a xlink:title=" ">
<polygon fill="white" stroke="#bfbfbf" points="0,-0.5 0,-30.5 163,-30.5 163,-0.5 0,-0.5"/>
<text text-anchor="start" x="8" y="-18.5" font-family="Helvetica,sans-Serif" font-size="10.00">user_functions/RayleighTaylor</text>
<text text-anchor="middle" x="81.5" y="-7.5" font-family="Helvetica,sans-Serif" font-size="10.00">MixFracAuxFunction.h</text>
</a>
</g>
</g>
<!-- Node1&#45;&gt;Node2 -->
<g id="edge1" class="edge">
<title>Node1&#45;&gt;Node2</title>
<path fill="none" stroke="midnightblue" d="M243.05,-67.48C211.62,-57.56 169.29,-44.2 135.85,-33.65"/>
<polygon fill="midnightblue" stroke="midnightblue" points="136.81,-30.28 126.22,-30.61 134.7,-36.96 136.81,-30.28"/>
</g>
<!-- Node3 -->
<g id="node3" class="node">
<title>Node3</title>
<g id="a_node3"><a xlink:title=" ">
<polygon fill="white" stroke="#bfbfbf" points="181.5,-6 181.5,-25 245.5,-25 245.5,-6 181.5,-6"/>
<text text-anchor="middle" x="213.5" y="-13" font-family="Helvetica,sans-Serif" font-size="10.00">algorithm</text>
</a>
</g>
</g>
<!-- Node1&#45;&gt;Node3 -->
<g id="edge2" class="edge">
<title>Node1&#45;&gt;Node3</title>
<path fill="none" stroke="midnightblue" d="M271.44,-67.4C259.56,-56.96 243.39,-42.75 231.14,-32"/>
<polygon fill="midnightblue" stroke="midnightblue" points="233.22,-29.16 223.4,-25.19 228.6,-34.42 233.22,-29.16"/>
</g>
<!-- Node4 -->
<g id="node4" class="node">
<title>Node4</title>
<g id="a_node4"><a xlink:title=" ">
<polygon fill="white" stroke="#bfbfbf" points="264,-6 264,-25 311,-25 311,-6 264,-6"/>
<text text-anchor="middle" x="287.5" y="-13" font-family="Helvetica,sans-Serif" font-size="10.00">cmath</text>
</a>
</g>
</g>
<!-- Node1&#45;&gt;Node4 -->
<g id="edge3" class="edge">
<title>Node1&#45;&gt;Node4</title>
<path fill="none" stroke="midnightblue" d="M287.5,-67.4C287.5,-58.06 287.5,-45.71 287.5,-35.52"/>
<polygon fill="midnightblue" stroke="midnightblue" points="291,-35.19 287.5,-25.19 284,-35.19 291,-35.19"/>
</g>
<!-- Node5 -->
<g id="node5" class="node">
<title>Node5</title>
<g id="a_node5"><a xlink:title=" ">
<polygon fill="white" stroke="#bfbfbf" points="329,-6 329,-25 376,-25 376,-6 329,-6"/>
<text text-anchor="middle" x="352.5" y="-13" font-family="Helvetica,sans-Serif" font-size="10.00">vector</text>
</a>
</g>
</g>
<!-- Node1&#45;&gt;Node5 -->
<g id="edge4" class="edge">
<title>Node1&#45;&gt;Node5</title>
<path fill="none" stroke="midnightblue" d="M301.6,-67.4C311.94,-57.06 325.98,-43.02 336.69,-32.31"/>
<polygon fill="midnightblue" stroke="midnightblue" points="339.21,-34.74 343.81,-25.19 334.26,-29.79 339.21,-34.74"/>
</g>
<!-- Node6 -->
<g id="node6" class="node">
<title>Node6</title>
<g id="a_node6"><a xlink:title=" ">
<polygon fill="white" stroke="#bfbfbf" points="394,-6 394,-25 459,-25 459,-6 394,-6"/>
<text text-anchor="middle" x="426.5" y="-13" font-family="Helvetica,sans-Serif" font-size="10.00">stdexcept</text>
</a>
</g>
</g>
<!-- Node1&#45;&gt;Node6 -->
<g id="edge5" class="edge">
<title>Node1&#45;&gt;Node6</title>
<path fill="none" stroke="midnightblue" d="M317.66,-67.4C341.94,-56.04 375.78,-40.22 399.25,-29.24"/>
<polygon fill="midnightblue" stroke="midnightblue" points="400.73,-32.41 408.31,-25.01 397.77,-26.07 400.73,-32.41"/>
</g>
</g>
</svg>
