<?xml version="1.0" encoding="UTF-8" standalone="no"?>
<!DOCTYPE svg PUBLIC "-//W3C//DTD SVG 1.1//EN"
 "http://www.w3.org/Graphics/SVG/1.1/DTD/svg11.dtd">
<!-- Generated by graphviz version 2.43.0 (0)
 -->
<!-- Title: Realms.C Pages: 1 -->
<svg width="710pt" height="84pt"
 viewBox="0.00 0.00 709.50 84.00" xmlns="http://www.w3.org/2000/svg" xmlns:xlink="http://www.w3.org/1999/xlink">
<g id="graph0" class="graph" transform="scale(1 1) rotate(0) translate(4 80)">
<title>Realms.C</title>
<polygon fill="white" stroke="transparent" points="-4,4 -4,-80 705.5,-80 705.5,4 -4,4"/>
<!-- Node1 -->
<g id="node1" class="node">
<title>Node1</title>
<g id="a_node1"><a xlink:title=" ">
<polygon fill="#bfbfbf" stroke="black" points="306.5,-56.5 306.5,-75.5 369.5,-75.5 369.5,-56.5 306.5,-56.5"/>
<text text-anchor="middle" x="338" y="-63.5" font-family="Helvetica,sans-Serif" font-size="10.00">Realms.C</text>
</a>
</g>
</g>
<!-- Node2 -->
<g id="node2" class="node">
<title>Node2</title>
<g id="a_node2"><a xlink:title=" ">
<polygon fill="white" stroke="#bfbfbf" points="0,-0.5 0,-19.5 62,-19.5 62,-0.5 0,-0.5"/>
<text text-anchor="middle" x="31" y="-7.5" font-family="Helvetica,sans-Serif" font-size="10.00">Realms.h</text>
</a>
</g>
</g>
<!-- Node1&#45;&gt;Node2 -->
<g id="edge1" class="edge">
<title>Node1&#45;&gt;Node2</title>
<path fill="none" stroke="midnightblue" d="M306.25,-60.22C257.89,-52.82 162.64,-37.75 72.27,-20.17"/>
<polygon fill="midnightblue" stroke="midnightblue" points="72.9,-16.72 62.41,-18.24 71.55,-23.59 72.9,-16.72"/>
</g>
<!-- Node3 -->
<g id="node3" class="node">
<title>Node3</title>
<g id="a_node3"><a xlink:title=" ">
<polygon fill="white" stroke="#bfbfbf" points="80.5,-0.5 80.5,-19.5 137.5,-19.5 137.5,-0.5 80.5,-0.5"/>
<text text-anchor="middle" x="109" y="-7.5" font-family="Helvetica,sans-Serif" font-size="10.00">Realm.h</text>
</a>
</g>
</g>
<!-- Node1&#45;&gt;Node3 -->
<g id="edge2" class="edge">
<title>Node1&#45;&gt;Node3</title>
<path fill="none" stroke="midnightblue" d="M306.38,-57.68C270.25,-49.29 209.06,-35.02 147.55,-20.36"/>
<polygon fill="midnightblue" stroke="midnightblue" points="148.22,-16.92 137.68,-18 146.59,-23.73 148.22,-16.92"/>
</g>
<!-- Node4 -->
<g id="node4" class="node">
<title>Node4</title>
<g id="a_node4"><a xlink:title=" ">
<polygon fill="white" stroke="#bfbfbf" points="155.5,-0.5 155.5,-19.5 270.5,-19.5 270.5,-0.5 155.5,-0.5"/>
<text text-anchor="middle" x="213" y="-7.5" font-family="Helvetica,sans-Serif" font-size="10.00">InputOutputRealm.h</text>
</a>
</g>
</g>
<!-- Node1&#45;&gt;Node4 -->
<g id="edge3" class="edge">
<title>Node1&#45;&gt;Node4</title>
<path fill="none" stroke="midnightblue" d="M318.19,-56.44C297.71,-47.6 265.52,-33.69 242.14,-23.59"/>
<polygon fill="midnightblue" stroke="midnightblue" points="243.28,-20.27 232.71,-19.52 240.51,-26.7 243.28,-20.27"/>
</g>
<!-- Node5 -->
<g id="node5" class="node">
<title>Node5</title>
<g id="a_node5"><a xlink:title=" ">
<polygon fill="white" stroke="#bfbfbf" points="289,-0.5 289,-19.5 387,-19.5 387,-0.5 289,-0.5"/>
<text text-anchor="middle" x="338" y="-7.5" font-family="Helvetica,sans-Serif" font-size="10.00">TimeIntegrator.h</text>
</a>
</g>
</g>
<!-- Node1&#45;&gt;Node5 -->
<g id="edge4" class="edge">
<title>Node1&#45;&gt;Node5</title>
<path fill="none" stroke="midnightblue" d="M338,-56.08C338,-49.01 338,-38.86 338,-29.99"/>
<polygon fill="midnightblue" stroke="midnightblue" points="341.5,-29.75 338,-19.75 334.5,-29.75 341.5,-29.75"/>
</g>
<!-- Node6 -->
<g id="node6" class="node">
<title>Node6</title>
<g id="a_node6"><a xlink:title=" ">
<polygon fill="white" stroke="#bfbfbf" points="405,-0.5 405,-19.5 483,-19.5 483,-0.5 405,-0.5"/>
<text text-anchor="middle" x="444" y="-7.5" font-family="Helvetica,sans-Serif" font-size="10.00">Simulation.h</text>
</a>
</g>
</g>
<!-- Node1&#45;&gt;Node6 -->
<g id="edge5" class="edge">
<title>Node1&#45;&gt;Node6</title>
<path fill="none" stroke="midnightblue" d="M355.03,-56.32C372.03,-47.66 398.38,-34.24 417.99,-24.25"/>
<polygon fill="midnightblue" stroke="midnightblue" points="419.69,-27.31 427.01,-19.65 416.51,-21.08 419.69,-27.31"/>
</g>
<!-- Node7 -->
<g id="node7" class="node">
<title>Node7</title>
<g id="a_node7"><a xlink:title=" ">
<polygon fill="white" stroke="#bfbfbf" points="501.5,-0.5 501.5,-19.5 600.5,-19.5 600.5,-0.5 501.5,-0.5"/>
<text text-anchor="middle" x="551" y="-7.5" font-family="Helvetica,sans-Serif" font-size="10.00">yaml&#45;cpp/yaml.h</text>
</a>
</g>
</g>
<!-- Node1&#45;&gt;Node7 -->
<g id="edge6" class="edge">
<title>Node1&#45;&gt;Node7</title>
<path fill="none" stroke="midnightblue" d="M369.89,-56.92C406.37,-47.67 466.33,-32.47 507.18,-22.11"/>
<polygon fill="midnightblue" stroke="midnightblue" points="508.3,-25.44 517.13,-19.59 506.58,-18.65 508.3,-25.44"/>
</g>
<!-- Node8 -->
<g id="node8" class="node">
<title>Node8</title>
<g id="a_node8"><a xlink:title=" ">
<polygon fill="white" stroke="#bfbfbf" points="618.5,-0.5 618.5,-19.5 701.5,-19.5 701.5,-0.5 618.5,-0.5"/>
<text text-anchor="middle" x="660" y="-7.5" font-family="Helvetica,sans-Serif" font-size="10.00">NaluParsing.h</text>
</a>
</g>
</g>
<!-- Node1&#45;&gt;Node8 -->
<g id="edge7" class="edge">
<title>Node1&#45;&gt;Node8</title>
<path fill="none" stroke="midnightblue" d="M369.85,-59.88C418.88,-51.97 516.07,-36.15 608.22,-20.29"/>
<polygon fill="midnightblue" stroke="midnightblue" points="609.01,-23.71 618.27,-18.56 607.82,-16.81 609.01,-23.71"/>
</g>
</g>
</svg>
