<?xml version="1.0" encoding="UTF-8" standalone="no"?>
<!DOCTYPE svg PUBLIC "-//W3C//DTD SVG 1.1//EN"
 "http://www.w3.org/Graphics/SVG/1.1/DTD/svg11.dtd">
<!-- Generated by graphviz version 2.43.0 (0)
 -->
<!-- Title: SDRLowReWallAlg.C Pages: 1 -->
<svg width="1347pt" height="95pt"
 viewBox="0.00 0.00 1346.50 95.00" xmlns="http://www.w3.org/2000/svg" xmlns:xlink="http://www.w3.org/1999/xlink">
<g id="graph0" class="graph" transform="scale(1 1) rotate(0) translate(4 91)">
<title>SDRLowReWallAlg.C</title>
<polygon fill="white" stroke="transparent" points="-4,4 -4,-91 1342.5,-91 1342.5,4 -4,4"/>
<!-- Node1 -->
<g id="node1" class="node">
<title>Node1</title>
<g id="a_node1"><a xlink:title=" ">
<polygon fill="#bfbfbf" stroke="black" points="663.5,-67.5 663.5,-86.5 779.5,-86.5 779.5,-67.5 663.5,-67.5"/>
<text text-anchor="middle" x="721.5" y="-74.5" font-family="Helvetica,sans-Serif" font-size="10.00">SDRLowReWallAlg.C</text>
</a>
</g>
</g>
<!-- Node2 -->
<g id="node2" class="node">
<title>Node2</title>
<g id="a_node2"><a xlink:title=" ">
<polygon fill="white" stroke="#bfbfbf" points="0,-0.5 0,-30.5 169,-30.5 169,-0.5 0,-0.5"/>
<text text-anchor="start" x="8" y="-18.5" font-family="Helvetica,sans-Serif" font-size="10.00">ngp_algorithms/SDRLowReWall</text>
<text text-anchor="middle" x="84.5" y="-7.5" font-family="Helvetica,sans-Serif" font-size="10.00">Alg.h</text>
</a>
</g>
</g>
<!-- Node1&#45;&gt;Node2 -->
<g id="edge1" class="edge">
<title>Node1&#45;&gt;Node2</title>
<path fill="none" stroke="midnightblue" d="M663.39,-72.57C565.55,-66.5 361.48,-52.54 179.15,-31.15"/>
<polygon fill="midnightblue" stroke="midnightblue" points="179.45,-27.66 169.11,-29.96 178.63,-34.61 179.45,-27.66"/>
</g>
<!-- Node3 -->
<g id="node3" class="node">
<title>Node3</title>
<g id="a_node3"><a xlink:title=" ">
<polygon fill="white" stroke="#bfbfbf" points="187,-6 187,-25 288,-25 288,-6 187,-6"/>
<text text-anchor="middle" x="237.5" y="-13" font-family="Helvetica,sans-Serif" font-size="10.00">BuildTemplates.h</text>
</a>
</g>
</g>
<!-- Node1&#45;&gt;Node3 -->
<g id="edge2" class="edge">
<title>Node1&#45;&gt;Node3</title>
<path fill="none" stroke="midnightblue" d="M663.21,-72.25C581.17,-66.42 427.15,-53.45 297.5,-31 291.61,-29.98 285.45,-28.72 279.4,-27.37"/>
<polygon fill="midnightblue" stroke="midnightblue" points="279.94,-23.9 269.41,-25.03 278.35,-30.72 279.94,-23.9"/>
</g>
<!-- Node4 -->
<g id="node4" class="node">
<title>Node4</title>
<g id="a_node4"><a xlink:title=" ">
<polygon fill="white" stroke="#bfbfbf" points="306.5,-0.5 306.5,-30.5 480.5,-30.5 480.5,-0.5 306.5,-0.5"/>
<text text-anchor="start" x="314.5" y="-18.5" font-family="Helvetica,sans-Serif" font-size="10.00">master_element/MasterElement</text>
<text text-anchor="middle" x="393.5" y="-7.5" font-family="Helvetica,sans-Serif" font-size="10.00">Repo.h</text>
</a>
</g>
</g>
<!-- Node1&#45;&gt;Node4 -->
<g id="edge3" class="edge">
<title>Node1&#45;&gt;Node4</title>
<path fill="none" stroke="midnightblue" d="M674.51,-67.48C624.17,-58.34 543.14,-43.64 481,-32.37"/>
<polygon fill="midnightblue" stroke="midnightblue" points="481.27,-28.86 470.8,-30.52 480.02,-35.75 481.27,-28.86"/>
</g>
<!-- Node5 -->
<g id="node5" class="node">
<title>Node5</title>
<g id="a_node5"><a xlink:title=" ">
<polygon fill="white" stroke="#bfbfbf" points="498.5,-6 498.5,-25 636.5,-25 636.5,-6 498.5,-6"/>
<text text-anchor="middle" x="567.5" y="-13" font-family="Helvetica,sans-Serif" font-size="10.00">ngp_utils/NgpLoopUtils.h</text>
</a>
</g>
</g>
<!-- Node1&#45;&gt;Node5 -->
<g id="edge4" class="edge">
<title>Node1&#45;&gt;Node5</title>
<path fill="none" stroke="midnightblue" d="M699.44,-67.48C673.13,-57.31 628.99,-40.26 599.08,-28.7"/>
<polygon fill="midnightblue" stroke="midnightblue" points="600.11,-25.35 589.52,-25.01 597.59,-31.88 600.11,-25.35"/>
</g>
<!-- Node6 -->
<g id="node6" class="node">
<title>Node6</title>
<g id="a_node6"><a xlink:title=" ">
<polygon fill="white" stroke="#bfbfbf" points="654.5,-6 654.5,-25 788.5,-25 788.5,-6 654.5,-6"/>
<text text-anchor="middle" x="721.5" y="-13" font-family="Helvetica,sans-Serif" font-size="10.00">ngp_utils/NgpFieldOps.h</text>
</a>
</g>
</g>
<!-- Node1&#45;&gt;Node6 -->
<g id="edge5" class="edge">
<title>Node1&#45;&gt;Node6</title>
<path fill="none" stroke="midnightblue" d="M721.5,-67.48C721.5,-59.08 721.5,-45.98 721.5,-35.16"/>
<polygon fill="midnightblue" stroke="midnightblue" points="725,-35.01 721.5,-25.01 718,-35.01 725,-35.01"/>
</g>
<!-- Node7 -->
<g id="node7" class="node">
<title>Node7</title>
<g id="a_node7"><a xlink:title=" ">
<polygon fill="white" stroke="#bfbfbf" points="806.5,-6 806.5,-25 964.5,-25 964.5,-6 806.5,-6"/>
<text text-anchor="middle" x="885.5" y="-13" font-family="Helvetica,sans-Serif" font-size="10.00">ngp_utils/NgpFieldManager.h</text>
</a>
</g>
</g>
<!-- Node1&#45;&gt;Node7 -->
<g id="edge6" class="edge">
<title>Node1&#45;&gt;Node7</title>
<path fill="none" stroke="midnightblue" d="M745,-67.48C773.13,-57.27 820.43,-40.11 852.29,-28.55"/>
<polygon fill="midnightblue" stroke="midnightblue" points="853.84,-31.71 862.05,-25.01 851.45,-25.13 853.84,-31.71"/>
</g>
<!-- Node8 -->
<g id="node8" class="node">
<title>Node8</title>
<g id="a_node8"><a xlink:title=" ">
<polygon fill="white" stroke="#bfbfbf" points="982,-6 982,-25 1039,-25 1039,-6 982,-6"/>
<text text-anchor="middle" x="1010.5" y="-13" font-family="Helvetica,sans-Serif" font-size="10.00">Realm.h</text>
</a>
</g>
</g>
<!-- Node1&#45;&gt;Node8 -->
<g id="edge7" class="edge">
<title>Node1&#45;&gt;Node8</title>
<path fill="none" stroke="midnightblue" d="M779.53,-68.94C831.08,-61.9 908.17,-49.44 973.5,-31 976.09,-30.27 978.74,-29.43 981.39,-28.52"/>
<polygon fill="midnightblue" stroke="midnightblue" points="982.6,-31.8 990.78,-25.06 980.18,-25.23 982.6,-31.8"/>
</g>
<!-- Node9 -->
<g id="node9" class="node">
<title>Node9</title>
<g id="a_node9"><a xlink:title=" ">
<polygon fill="white" stroke="#bfbfbf" points="1057,-6 1057,-25 1160,-25 1160,-6 1057,-6"/>
<text text-anchor="middle" x="1108.5" y="-13" font-family="Helvetica,sans-Serif" font-size="10.00">utils/StkHelpers.h</text>
</a>
</g>
</g>
<!-- Node1&#45;&gt;Node9 -->
<g id="edge8" class="edge">
<title>Node1&#45;&gt;Node9</title>
<path fill="none" stroke="midnightblue" d="M779.67,-69.78C845.28,-62.35 955.03,-48.68 1048.5,-31 1054.03,-29.95 1059.81,-28.73 1065.52,-27.44"/>
<polygon fill="midnightblue" stroke="midnightblue" points="1066.68,-30.76 1075.62,-25.08 1065.08,-23.94 1066.68,-30.76"/>
</g>
<!-- Node10 -->
<g id="node10" class="node">
<title>Node10</title>
<g id="a_node10"><a xlink:title=" ">
<polygon fill="white" stroke="#bfbfbf" points="1178.5,-6 1178.5,-25 1338.5,-25 1338.5,-6 1178.5,-6"/>
<text text-anchor="middle" x="1258.5" y="-13" font-family="Helvetica,sans-Serif" font-size="10.00">stk_mesh/base/NgpMesh.hpp</text>
</a>
</g>
</g>
<!-- Node1&#45;&gt;Node10 -->
<g id="edge9" class="edge">
<title>Node1&#45;&gt;Node10</title>
<path fill="none" stroke="midnightblue" d="M779.62,-71.31C865.19,-64.14 1030,-49.35 1169.5,-31 1179.28,-29.71 1189.63,-28.18 1199.69,-26.6"/>
<polygon fill="midnightblue" stroke="midnightblue" points="1200.29,-30.05 1209.62,-25.02 1199.19,-23.14 1200.29,-30.05"/>
</g>
</g>
</svg>
