<?xml version="1.0" encoding="UTF-8" standalone="no"?>
<!DOCTYPE svg PUBLIC "-//W3C//DTD SVG 1.1//EN"
 "http://www.w3.org/Graphics/SVG/1.1/DTD/svg11.dtd">
<!-- Generated by graphviz version 2.43.0 (0)
 -->
<!-- Title: SDRSSTDESNodeKernel.C Pages: 1 -->
<svg width="946pt" height="95pt"
 viewBox="0.00 0.00 945.50 95.00" xmlns="http://www.w3.org/2000/svg" xmlns:xlink="http://www.w3.org/1999/xlink">
<g id="graph0" class="graph" transform="scale(1 1) rotate(0) translate(4 91)">
<title>SDRSSTDESNodeKernel.C</title>
<polygon fill="white" stroke="transparent" points="-4,4 -4,-91 941.5,-91 941.5,4 -4,4"/>
<!-- Node1 -->
<g id="node1" class="node">
<title>Node1</title>
<g id="a_node1"><a xlink:title=" ">
<polygon fill="#bfbfbf" stroke="black" points="358.5,-67.5 358.5,-86.5 498.5,-86.5 498.5,-67.5 358.5,-67.5"/>
<text text-anchor="middle" x="428.5" y="-74.5" font-family="Helvetica,sans-Serif" font-size="10.00">SDRSSTDESNodeKernel.C</text>
</a>
</g>
</g>
<!-- Node2 -->
<g id="node2" class="node">
<title>Node2</title>
<g id="a_node2"><a xlink:title=" ">
<polygon fill="white" stroke="#bfbfbf" points="0,-0.5 0,-30.5 167,-30.5 167,-0.5 0,-0.5"/>
<text text-anchor="start" x="8" y="-18.5" font-family="Helvetica,sans-Serif" font-size="10.00">node_kernels/SDRSSTDESNode</text>
<text text-anchor="middle" x="83.5" y="-7.5" font-family="Helvetica,sans-Serif" font-size="10.00">Kernel.h</text>
</a>
</g>
</g>
<!-- Node1&#45;&gt;Node2 -->
<g id="edge1" class="edge">
<title>Node1&#45;&gt;Node2</title>
<path fill="none" stroke="midnightblue" d="M379.07,-67.48C325.9,-58.31 240.19,-43.52 174.72,-32.23"/>
<polygon fill="midnightblue" stroke="midnightblue" points="175.26,-28.77 164.81,-30.52 174.07,-35.67 175.26,-28.77"/>
</g>
<!-- Node3 -->
<g id="node3" class="node">
<title>Node3</title>
<g id="a_node3"><a xlink:title=" ">
<polygon fill="white" stroke="#bfbfbf" points="185,-6 185,-25 242,-25 242,-6 185,-6"/>
<text text-anchor="middle" x="213.5" y="-13" font-family="Helvetica,sans-Serif" font-size="10.00">Realm.h</text>
</a>
</g>
</g>
<!-- Node1&#45;&gt;Node3 -->
<g id="edge2" class="edge">
<title>Node1&#45;&gt;Node3</title>
<path fill="none" stroke="midnightblue" d="M388.86,-67.48C352.52,-59.32 297.39,-46.05 250.5,-31 248.23,-30.27 245.89,-29.47 243.56,-28.64"/>
<polygon fill="midnightblue" stroke="midnightblue" points="244.67,-25.32 234.08,-25.09 242.22,-31.88 244.67,-25.32"/>
</g>
<!-- Node4 -->
<g id="node4" class="node">
<title>Node4</title>
<g id="a_node4"><a xlink:title=" ">
<polygon fill="white" stroke="#bfbfbf" points="260,-6 260,-25 363,-25 363,-6 260,-6"/>
<text text-anchor="middle" x="311.5" y="-13" font-family="Helvetica,sans-Serif" font-size="10.00">SolutionOptions.h</text>
</a>
</g>
</g>
<!-- Node1&#45;&gt;Node4 -->
<g id="edge3" class="edge">
<title>Node1&#45;&gt;Node4</title>
<path fill="none" stroke="midnightblue" d="M411.74,-67.48C392.28,-57.58 359.95,-41.14 337.29,-29.62"/>
<polygon fill="midnightblue" stroke="midnightblue" points="338.73,-26.42 328.23,-25.01 335.56,-32.66 338.73,-26.42"/>
</g>
<!-- Node5 -->
<g id="node5" class="node">
<title>Node5</title>
<g id="a_node5"><a xlink:title=" ">
<polygon fill="white" stroke="#bfbfbf" points="381.5,-6 381.5,-25 475.5,-25 475.5,-6 381.5,-6"/>
<text text-anchor="middle" x="428.5" y="-13" font-family="Helvetica,sans-Serif" font-size="10.00">SimdInterface.h</text>
</a>
</g>
</g>
<!-- Node1&#45;&gt;Node5 -->
<g id="edge4" class="edge">
<title>Node1&#45;&gt;Node5</title>
<path fill="none" stroke="midnightblue" d="M428.5,-67.48C428.5,-59.08 428.5,-45.98 428.5,-35.16"/>
<polygon fill="midnightblue" stroke="midnightblue" points="432,-35.01 428.5,-25.01 425,-35.01 432,-35.01"/>
</g>
<!-- Node6 -->
<g id="node6" class="node">
<title>Node6</title>
<g id="a_node6"><a xlink:title=" ">
<polygon fill="white" stroke="#bfbfbf" points="494,-6 494,-25 597,-25 597,-6 494,-6"/>
<text text-anchor="middle" x="545.5" y="-13" font-family="Helvetica,sans-Serif" font-size="10.00">utils/StkHelpers.h</text>
</a>
</g>
</g>
<!-- Node1&#45;&gt;Node6 -->
<g id="edge5" class="edge">
<title>Node1&#45;&gt;Node6</title>
<path fill="none" stroke="midnightblue" d="M445.26,-67.48C464.72,-57.58 497.05,-41.14 519.71,-29.62"/>
<polygon fill="midnightblue" stroke="midnightblue" points="521.44,-32.66 528.77,-25.01 518.27,-26.42 521.44,-32.66"/>
</g>
<!-- Node7 -->
<g id="node7" class="node">
<title>Node7</title>
<g id="a_node7"><a xlink:title=" ">
<polygon fill="white" stroke="#bfbfbf" points="615.5,-6 615.5,-25 777.5,-25 777.5,-6 615.5,-6"/>
<text text-anchor="middle" x="696.5" y="-13" font-family="Helvetica,sans-Serif" font-size="10.00">stk_mesh/base/MetaData.hpp</text>
</a>
</g>
</g>
<!-- Node1&#45;&gt;Node7 -->
<g id="edge6" class="edge">
<title>Node1&#45;&gt;Node7</title>
<path fill="none" stroke="midnightblue" d="M466.9,-67.48C514.66,-56.87 596.24,-38.76 648.2,-27.22"/>
<polygon fill="midnightblue" stroke="midnightblue" points="649.17,-30.59 658.17,-25.01 647.65,-23.76 649.17,-30.59"/>
</g>
<!-- Node8 -->
<g id="node8" class="node">
<title>Node8</title>
<g id="a_node8"><a xlink:title=" ">
<polygon fill="white" stroke="#bfbfbf" points="795.5,-6 795.5,-25 937.5,-25 937.5,-6 795.5,-6"/>
<text text-anchor="middle" x="866.5" y="-13" font-family="Helvetica,sans-Serif" font-size="10.00">stk_mesh/base/Types.hpp</text>
</a>
</g>
</g>
<!-- Node1&#45;&gt;Node8 -->
<g id="edge7" class="edge">
<title>Node1&#45;&gt;Node8</title>
<path fill="none" stroke="midnightblue" d="M498.63,-68.32C570.92,-60.15 686.81,-46.29 786.5,-31 794.63,-29.75 803.21,-28.32 811.61,-26.85"/>
<polygon fill="midnightblue" stroke="midnightblue" points="812.49,-30.25 821.72,-25.06 811.26,-23.36 812.49,-30.25"/>
</g>
</g>
</svg>
