<?xml version="1.0" encoding="UTF-8" standalone="no"?>
<!DOCTYPE svg PUBLIC "-//W3C//DTD SVG 1.1//EN"
 "http://www.w3.org/Graphics/SVG/1.1/DTD/svg11.dtd">
<!-- Generated by graphviz version 2.43.0 (0)
 -->
<!-- Title: SDRSSTLRNodeKernel.C Pages: 1 -->
<svg width="939pt" height="95pt"
 viewBox="0.00 0.00 939.00 95.00" xmlns="http://www.w3.org/2000/svg" xmlns:xlink="http://www.w3.org/1999/xlink">
<g id="graph0" class="graph" transform="scale(1 1) rotate(0) translate(4 91)">
<title>SDRSSTLRNodeKernel.C</title>
<polygon fill="white" stroke="transparent" points="-4,4 -4,-91 935,-91 935,4 -4,4"/>
<!-- Node1 -->
<g id="node1" class="node">
<title>Node1</title>
<g id="a_node1"><a xlink:title=" ">
<polygon fill="#bfbfbf" stroke="black" points="355.5,-67.5 355.5,-86.5 488.5,-86.5 488.5,-67.5 355.5,-67.5"/>
<text text-anchor="middle" x="422" y="-74.5" font-family="Helvetica,sans-Serif" font-size="10.00">SDRSSTLRNodeKernel.C</text>
</a>
</g>
</g>
<!-- Node2 -->
<g id="node2" class="node">
<title>Node2</title>
<g id="a_node2"><a xlink:title=" ">
<polygon fill="white" stroke="#bfbfbf" points="0,-0.5 0,-30.5 160,-30.5 160,-0.5 0,-0.5"/>
<text text-anchor="start" x="8" y="-18.5" font-family="Helvetica,sans-Serif" font-size="10.00">node_kernels/SDRSSTLRNode</text>
<text text-anchor="middle" x="80" y="-7.5" font-family="Helvetica,sans-Serif" font-size="10.00">Kernel.h</text>
</a>
</g>
</g>
<!-- Node1&#45;&gt;Node2 -->
<g id="edge1" class="edge">
<title>Node1&#45;&gt;Node2</title>
<path fill="none" stroke="midnightblue" d="M373,-67.48C320.32,-58.31 235.39,-43.54 170.51,-32.25"/>
<polygon fill="midnightblue" stroke="midnightblue" points="170.73,-28.73 160.27,-30.47 169.53,-35.63 170.73,-28.73"/>
</g>
<!-- Node3 -->
<g id="node3" class="node">
<title>Node3</title>
<g id="a_node3"><a xlink:title=" ">
<polygon fill="white" stroke="#bfbfbf" points="178.5,-6 178.5,-25 235.5,-25 235.5,-6 178.5,-6"/>
<text text-anchor="middle" x="207" y="-13" font-family="Helvetica,sans-Serif" font-size="10.00">Realm.h</text>
</a>
</g>
</g>
<!-- Node1&#45;&gt;Node3 -->
<g id="edge2" class="edge">
<title>Node1&#45;&gt;Node3</title>
<path fill="none" stroke="midnightblue" d="M382.36,-67.48C346.02,-59.32 290.89,-46.05 244,-31 241.73,-30.27 239.39,-29.47 237.06,-28.64"/>
<polygon fill="midnightblue" stroke="midnightblue" points="238.17,-25.32 227.58,-25.09 235.72,-31.88 238.17,-25.32"/>
</g>
<!-- Node4 -->
<g id="node4" class="node">
<title>Node4</title>
<g id="a_node4"><a xlink:title=" ">
<polygon fill="white" stroke="#bfbfbf" points="253.5,-6 253.5,-25 356.5,-25 356.5,-6 253.5,-6"/>
<text text-anchor="middle" x="305" y="-13" font-family="Helvetica,sans-Serif" font-size="10.00">SolutionOptions.h</text>
</a>
</g>
</g>
<!-- Node1&#45;&gt;Node4 -->
<g id="edge3" class="edge">
<title>Node1&#45;&gt;Node4</title>
<path fill="none" stroke="midnightblue" d="M405.24,-67.48C385.78,-57.58 353.45,-41.14 330.79,-29.62"/>
<polygon fill="midnightblue" stroke="midnightblue" points="332.23,-26.42 321.73,-25.01 329.06,-32.66 332.23,-26.42"/>
</g>
<!-- Node5 -->
<g id="node5" class="node">
<title>Node5</title>
<g id="a_node5"><a xlink:title=" ">
<polygon fill="white" stroke="#bfbfbf" points="375,-6 375,-25 469,-25 469,-6 375,-6"/>
<text text-anchor="middle" x="422" y="-13" font-family="Helvetica,sans-Serif" font-size="10.00">SimdInterface.h</text>
</a>
</g>
</g>
<!-- Node1&#45;&gt;Node5 -->
<g id="edge4" class="edge">
<title>Node1&#45;&gt;Node5</title>
<path fill="none" stroke="midnightblue" d="M422,-67.48C422,-59.08 422,-45.98 422,-35.16"/>
<polygon fill="midnightblue" stroke="midnightblue" points="425.5,-35.01 422,-25.01 418.5,-35.01 425.5,-35.01"/>
</g>
<!-- Node6 -->
<g id="node6" class="node">
<title>Node6</title>
<g id="a_node6"><a xlink:title=" ">
<polygon fill="white" stroke="#bfbfbf" points="487.5,-6 487.5,-25 590.5,-25 590.5,-6 487.5,-6"/>
<text text-anchor="middle" x="539" y="-13" font-family="Helvetica,sans-Serif" font-size="10.00">utils/StkHelpers.h</text>
</a>
</g>
</g>
<!-- Node1&#45;&gt;Node6 -->
<g id="edge5" class="edge">
<title>Node1&#45;&gt;Node6</title>
<path fill="none" stroke="midnightblue" d="M438.76,-67.48C458.22,-57.58 490.55,-41.14 513.21,-29.62"/>
<polygon fill="midnightblue" stroke="midnightblue" points="514.94,-32.66 522.27,-25.01 511.77,-26.42 514.94,-32.66"/>
</g>
<!-- Node7 -->
<g id="node7" class="node">
<title>Node7</title>
<g id="a_node7"><a xlink:title=" ">
<polygon fill="white" stroke="#bfbfbf" points="609,-6 609,-25 771,-25 771,-6 609,-6"/>
<text text-anchor="middle" x="690" y="-13" font-family="Helvetica,sans-Serif" font-size="10.00">stk_mesh/base/MetaData.hpp</text>
</a>
</g>
</g>
<!-- Node1&#45;&gt;Node7 -->
<g id="edge6" class="edge">
<title>Node1&#45;&gt;Node7</title>
<path fill="none" stroke="midnightblue" d="M460.4,-67.48C508.16,-56.87 589.74,-38.76 641.7,-27.22"/>
<polygon fill="midnightblue" stroke="midnightblue" points="642.67,-30.59 651.67,-25.01 641.15,-23.76 642.67,-30.59"/>
</g>
<!-- Node8 -->
<g id="node8" class="node">
<title>Node8</title>
<g id="a_node8"><a xlink:title=" ">
<polygon fill="white" stroke="#bfbfbf" points="789,-6 789,-25 931,-25 931,-6 789,-6"/>
<text text-anchor="middle" x="860" y="-13" font-family="Helvetica,sans-Serif" font-size="10.00">stk_mesh/base/Types.hpp</text>
</a>
</g>
</g>
<!-- Node1&#45;&gt;Node8 -->
<g id="edge7" class="edge">
<title>Node1&#45;&gt;Node8</title>
<path fill="none" stroke="midnightblue" d="M488.79,-68.7C560.81,-60.58 678.76,-46.53 780,-31 788.13,-29.75 796.71,-28.32 805.11,-26.85"/>
<polygon fill="midnightblue" stroke="midnightblue" points="805.99,-30.25 815.22,-25.06 804.76,-23.36 805.99,-30.25"/>
</g>
</g>
</svg>
