<?xml version="1.0" encoding="UTF-8" standalone="no"?>
<!DOCTYPE svg PUBLIC "-//W3C//DTD SVG 1.1//EN"
 "http://www.w3.org/Graphics/SVG/1.1/DTD/svg11.dtd">
<!-- Generated by graphviz version 2.43.0 (0)
 -->
<!-- Title: SDRSSTAMSNodeKernel.C Pages: 1 -->
<svg width="948pt" height="95pt"
 viewBox="0.00 0.00 947.50 95.00" xmlns="http://www.w3.org/2000/svg" xmlns:xlink="http://www.w3.org/1999/xlink">
<g id="graph0" class="graph" transform="scale(1 1) rotate(0) translate(4 91)">
<title>SDRSSTAMSNodeKernel.C</title>
<polygon fill="white" stroke="transparent" points="-4,4 -4,-91 943.5,-91 943.5,4 -4,4"/>
<!-- Node1 -->
<g id="node1" class="node">
<title>Node1</title>
<g id="a_node1"><a xlink:title=" ">
<polygon fill="#bfbfbf" stroke="black" points="393.5,-67.5 393.5,-86.5 535.5,-86.5 535.5,-67.5 393.5,-67.5"/>
<text text-anchor="middle" x="464.5" y="-74.5" font-family="Helvetica,sans-Serif" font-size="10.00">SDRSSTAMSNodeKernel.C</text>
</a>
</g>
</g>
<!-- Node2 -->
<g id="node2" class="node">
<title>Node2</title>
<g id="a_node2"><a xlink:title=" ">
<polygon fill="white" stroke="#bfbfbf" points="0,-0.5 0,-30.5 169,-30.5 169,-0.5 0,-0.5"/>
<text text-anchor="start" x="8" y="-18.5" font-family="Helvetica,sans-Serif" font-size="10.00">node_kernels/SDRSSTAMSNode</text>
<text text-anchor="middle" x="84.5" y="-7.5" font-family="Helvetica,sans-Serif" font-size="10.00">Kernel.h</text>
</a>
</g>
</g>
<!-- Node1&#45;&gt;Node2 -->
<g id="edge1" class="edge">
<title>Node1&#45;&gt;Node2</title>
<path fill="none" stroke="midnightblue" d="M410.06,-67.48C349.98,-58.07 252.18,-42.76 179.43,-31.36"/>
<polygon fill="midnightblue" stroke="midnightblue" points="179.76,-27.87 169.34,-29.78 178.68,-34.79 179.76,-27.87"/>
</g>
<!-- Node3 -->
<g id="node3" class="node">
<title>Node3</title>
<g id="a_node3"><a xlink:title=" ">
<polygon fill="white" stroke="#bfbfbf" points="187,-6 187,-25 244,-25 244,-6 187,-6"/>
<text text-anchor="middle" x="215.5" y="-13" font-family="Helvetica,sans-Serif" font-size="10.00">Realm.h</text>
</a>
</g>
</g>
<!-- Node1&#45;&gt;Node3 -->
<g id="edge2" class="edge">
<title>Node1&#45;&gt;Node3</title>
<path fill="none" stroke="midnightblue" d="M412.5,-67.43C369.21,-59.7 306.2,-47.1 252.5,-31 250.07,-30.27 247.58,-29.45 245.09,-28.59"/>
<polygon fill="midnightblue" stroke="midnightblue" points="246.24,-25.28 235.65,-25.09 243.81,-31.84 246.24,-25.28"/>
</g>
<!-- Node4 -->
<g id="node4" class="node">
<title>Node4</title>
<g id="a_node4"><a xlink:title=" ">
<polygon fill="white" stroke="#bfbfbf" points="262,-6 262,-25 365,-25 365,-6 262,-6"/>
<text text-anchor="middle" x="313.5" y="-13" font-family="Helvetica,sans-Serif" font-size="10.00">SolutionOptions.h</text>
</a>
</g>
</g>
<!-- Node1&#45;&gt;Node4 -->
<g id="edge3" class="edge">
<title>Node1&#45;&gt;Node4</title>
<path fill="none" stroke="midnightblue" d="M442.87,-67.48C417.08,-57.31 373.79,-40.26 344.46,-28.7"/>
<polygon fill="midnightblue" stroke="midnightblue" points="345.68,-25.42 335.09,-25.01 343.12,-31.93 345.68,-25.42"/>
</g>
<!-- Node5 -->
<g id="node5" class="node">
<title>Node5</title>
<g id="a_node5"><a xlink:title=" ">
<polygon fill="white" stroke="#bfbfbf" points="383.5,-6 383.5,-25 545.5,-25 545.5,-6 383.5,-6"/>
<text text-anchor="middle" x="464.5" y="-13" font-family="Helvetica,sans-Serif" font-size="10.00">stk_mesh/base/MetaData.hpp</text>
</a>
</g>
</g>
<!-- Node1&#45;&gt;Node5 -->
<g id="edge4" class="edge">
<title>Node1&#45;&gt;Node5</title>
<path fill="none" stroke="midnightblue" d="M464.5,-67.48C464.5,-59.08 464.5,-45.98 464.5,-35.16"/>
<polygon fill="midnightblue" stroke="midnightblue" points="468,-35.01 464.5,-25.01 461,-35.01 468,-35.01"/>
</g>
<!-- Node6 -->
<g id="node6" class="node">
<title>Node6</title>
<g id="a_node6"><a xlink:title=" ">
<polygon fill="white" stroke="#bfbfbf" points="563.5,-6 563.5,-25 705.5,-25 705.5,-6 563.5,-6"/>
<text text-anchor="middle" x="634.5" y="-13" font-family="Helvetica,sans-Serif" font-size="10.00">stk_mesh/base/Types.hpp</text>
</a>
</g>
</g>
<!-- Node1&#45;&gt;Node6 -->
<g id="edge5" class="edge">
<title>Node1&#45;&gt;Node6</title>
<path fill="none" stroke="midnightblue" d="M488.86,-67.48C518.14,-57.22 567.47,-39.96 600.5,-28.4"/>
<polygon fill="midnightblue" stroke="midnightblue" points="601.91,-31.62 610.19,-25.01 599.59,-25.01 601.91,-31.62"/>
</g>
<!-- Node7 -->
<g id="node7" class="node">
<title>Node7</title>
<g id="a_node7"><a xlink:title=" ">
<polygon fill="white" stroke="#bfbfbf" points="724,-6 724,-25 827,-25 827,-6 724,-6"/>
<text text-anchor="middle" x="775.5" y="-13" font-family="Helvetica,sans-Serif" font-size="10.00">utils/StkHelpers.h</text>
</a>
</g>
</g>
<!-- Node1&#45;&gt;Node7 -->
<g id="edge6" class="edge">
<title>Node1&#45;&gt;Node7</title>
<path fill="none" stroke="midnightblue" d="M516.85,-67.44C567.55,-58.95 646.51,-45.19 714.5,-31 719.89,-29.87 725.54,-28.63 731.13,-27.35"/>
<polygon fill="midnightblue" stroke="midnightblue" points="732.11,-30.71 741.06,-25.04 730.52,-23.9 732.11,-30.71"/>
</g>
<!-- Node8 -->
<g id="node8" class="node">
<title>Node8</title>
<g id="a_node8"><a xlink:title=" ">
<polygon fill="white" stroke="#bfbfbf" points="845.5,-6 845.5,-25 939.5,-25 939.5,-6 845.5,-6"/>
<text text-anchor="middle" x="892.5" y="-13" font-family="Helvetica,sans-Serif" font-size="10.00">SimdInterface.h</text>
</a>
</g>
</g>
<!-- Node1&#45;&gt;Node8 -->
<g id="edge7" class="edge">
<title>Node1&#45;&gt;Node8</title>
<path fill="none" stroke="midnightblue" d="M535.55,-70.24C610.74,-63.48 732.63,-50.64 836.5,-31 841.67,-30.02 847.07,-28.84 852.39,-27.57"/>
<polygon fill="midnightblue" stroke="midnightblue" points="853.58,-30.88 862.44,-25.07 851.89,-24.09 853.58,-30.88"/>
</g>
</g>
</svg>
