<?xml version="1.0" encoding="UTF-8" standalone="no"?>
<!DOCTYPE svg PUBLIC "-//W3C//DTD SVG 1.1//EN"
 "http://www.w3.org/Graphics/SVG/1.1/DTD/svg11.dtd">
<!-- Generated by graphviz version 2.43.0 (0)
 -->
<!-- Title: SSTMaxLengthScaleDriver.C Pages: 1 -->
<!--zoomable 95 -->
<svg id="main" version="1.1" xmlns="http://www.w3.org/2000/svg" xmlns:xlink="http://www.w3.org/1999/xlink" xml:space="preserve" onload="init(evt)">
<style type="text/css"><![CDATA[
.edge:hover path { stroke: red; }
.edge:hover polygon { stroke: red; fill: red; }
]]></style>
<script type="text/javascript"><![CDATA[
var edges = document.getElementsByTagName('g');
if (edges && edges.length) {
  for (var i=0;i<edges.length;i++) {
    if (edges[i].id.substr(0,4)=='edge') {
      edges[i].setAttribute('class','edge');
    }
  }
}
]]></script>
        <defs>
                <circle id="rim" cx="0" cy="0" r="7"/>
                <circle id="rim2" cx="0" cy="0" r="3.5"/>
                <g id="zoomPlus">
                        <use xlink:href="#rim" fill="#404040">
                                <set attributeName="fill" to="#808080" begin="zoomplus.mouseover" end="zoomplus.mouseout"/>
                        </use>
                        <path d="M-4,0h8M0,-4v8" fill="none" stroke="white" stroke-width="1.5" pointer-events="none"/>
                </g>
                <g id="zoomMin">
                        <use xlink:href="#rim" fill="#404040">
                                <set attributeName="fill" to="#808080" begin="zoomminus.mouseover" end="zoomminus.mouseout"/>
                        </use>
                        <path d="M-4,0h8" fill="none" stroke="white" stroke-width="1.5" pointer-events="none"/>
                </g>
                <g id="dirArrow">
                        <path fill="none" stroke="white" stroke-width="1.5" d="M0,-3.0v7 M-2.5,-0.5L0,-3.0L2.5,-0.5"/>
                </g>
               <g id="resetDef">
                       <use xlink:href="#rim2" fill="#404040">
                               <set attributeName="fill" to="#808080" begin="reset.mouseover" end="reset.mouseout"/>
                       </use>
               </g>
        </defs>

<script type="text/javascript">
var viewWidth = 1603;
var viewHeight = 95;
var sectionId = 'dynsection-0';
</script>
<script xlink:href="svgpan.js"/>
<svg id="graph" class="graph">
<g id="viewport">
<title>SSTMaxLengthScaleDriver.C</title>
<polygon fill="white" stroke="transparent" points="-4,4 -4,-91 1599,-91 1599,4 -4,4"/>
<!-- Node1 -->
<g id="node1" class="node">
<title>Node1</title>
<g id="a_node1"><a xlink:title=" ">
<polygon fill="#bfbfbf" stroke="black" points="616.5,-67.5 616.5,-86.5 770.5,-86.5 770.5,-67.5 616.5,-67.5"/>
<text text-anchor="middle" x="693.5" y="-74.5" font-family="Helvetica,sans-Serif" font-size="10.00">SSTMaxLengthScaleDriver.C</text>
</a>
</g>
</g>
<!-- Node2 -->
<g id="node2" class="node">
<title>Node2</title>
<g id="a_node2"><a xlink:title=" ">
<polygon fill="white" stroke="#bfbfbf" points="0,-0.5 0,-30.5 167,-30.5 167,-0.5 0,-0.5"/>
<text text-anchor="start" x="8" y="-18.5" font-family="Helvetica,sans-Serif" font-size="10.00">ngp_algorithms/SSTMaxLength</text>
<text text-anchor="middle" x="83.5" y="-7.5" font-family="Helvetica,sans-Serif" font-size="10.00">ScaleDriver.h</text>
</a>
</g>
</g>
<!-- Node1&#45;&gt;Node2 -->
<g id="edge1" class="edge">
<title>Node1&#45;&gt;Node2</title>
<path fill="none" stroke="midnightblue" d="M616.25,-70.92C517.11,-64.03 339.59,-50.45 177.29,-31.04"/>
<polygon fill="midnightblue" stroke="midnightblue" points="177.46,-27.53 167.11,-29.81 176.62,-34.48 177.46,-27.53"/>
</g>
<!-- Node3 -->
<g id="node3" class="node">
<title>Node3</title>
<g id="a_node3"><a xlink:title=" ">
<polygon fill="white" stroke="#bfbfbf" points="185.5,-6 185.5,-25 323.5,-25 323.5,-6 185.5,-6"/>
<text text-anchor="middle" x="254.5" y="-13" font-family="Helvetica,sans-Serif" font-size="10.00">ngp_utils/NgpLoopUtils.h</text>
</a>
</g>
</g>
<!-- Node1&#45;&gt;Node3 -->
<g id="edge2" class="edge">
<title>Node1&#45;&gt;Node3</title>
<path fill="none" stroke="midnightblue" d="M616.2,-67.72C542.98,-59.55 430.02,-46.13 332.5,-31 324.47,-29.75 316,-28.31 307.71,-26.83"/>
<polygon fill="midnightblue" stroke="midnightblue" points="308.21,-23.36 297.74,-25.01 306.95,-30.25 308.21,-23.36"/>
</g>
<!-- Node4 -->
<g id="node4" class="node">
<title>Node4</title>
<g id="a_node4"><a xlink:title=" ">
<polygon fill="white" stroke="#bfbfbf" points="341.5,-6 341.5,-25 479.5,-25 479.5,-6 341.5,-6"/>
<text text-anchor="middle" x="410.5" y="-13" font-family="Helvetica,sans-Serif" font-size="10.00">ngp_utils/NgpFieldUtils.h</text>
</a>
</g>
</g>
<!-- Node1&#45;&gt;Node4 -->
<g id="edge3" class="edge">
<title>Node1&#45;&gt;Node4</title>
<path fill="none" stroke="midnightblue" d="M652.95,-67.48C602.31,-56.83 515.66,-38.61 460.82,-27.08"/>
<polygon fill="midnightblue" stroke="midnightblue" points="461.48,-23.64 450.97,-25.01 460.04,-30.49 461.48,-23.64"/>
</g>
<!-- Node5 -->
<g id="node5" class="node">
<title>Node5</title>
<g id="a_node5"><a xlink:title=" ">
<polygon fill="white" stroke="#bfbfbf" points="498,-6 498,-25 555,-25 555,-6 498,-6"/>
<text text-anchor="middle" x="526.5" y="-13" font-family="Helvetica,sans-Serif" font-size="10.00">Realm.h</text>
</a>
</g>
</g>
<!-- Node1&#45;&gt;Node5 -->
<g id="edge4" class="edge">
<title>Node1&#45;&gt;Node5</title>
<path fill="none" stroke="midnightblue" d="M667.49,-67.34C641.17,-58.5 599.35,-44.22 563.5,-31 561.61,-30.3 559.66,-29.57 557.71,-28.83"/>
<polygon fill="midnightblue" stroke="midnightblue" points="558.56,-25.41 547.97,-25.08 556.04,-31.94 558.56,-25.41"/>
</g>
<!-- Node6 -->
<g id="node6" class="node">
<title>Node6</title>
<g id="a_node6"><a xlink:title=" ">
<polygon fill="white" stroke="#bfbfbf" points="573,-6 573,-25 676,-25 676,-6 573,-6"/>
<text text-anchor="middle" x="624.5" y="-13" font-family="Helvetica,sans-Serif" font-size="10.00">utils/StkHelpers.h</text>
</a>
</g>
</g>
<!-- Node1&#45;&gt;Node6 -->
<g id="edge5" class="edge">
<title>Node1&#45;&gt;Node6</title>
<path fill="none" stroke="midnightblue" d="M683.61,-67.48C672.85,-58.2 655.43,-43.17 642.28,-31.83"/>
<polygon fill="midnightblue" stroke="midnightblue" points="644.23,-28.89 634.37,-25.01 639.66,-34.19 644.23,-28.89"/>
</g>
<!-- Node7 -->
<g id="node7" class="node">
<title>Node7</title>
<g id="a_node7"><a xlink:title=" ">
<polygon fill="white" stroke="#bfbfbf" points="694,-6 694,-25 831,-25 831,-6 694,-6"/>
<text text-anchor="middle" x="762.5" y="-13" font-family="Helvetica,sans-Serif" font-size="10.00">stk_mesh/base/Field.hpp</text>
</a>
</g>
</g>
<!-- Node1&#45;&gt;Node7 -->
<g id="edge6" class="edge">
<title>Node1&#45;&gt;Node7</title>
<path fill="none" stroke="midnightblue" d="M703.39,-67.48C714.15,-58.2 731.57,-43.17 744.72,-31.83"/>
<polygon fill="midnightblue" stroke="midnightblue" points="747.34,-34.19 752.63,-25.01 742.77,-28.89 747.34,-34.19"/>
</g>
<!-- Node8 -->
<g id="node8" class="node">
<title>Node8</title>
<g id="a_node8"><a xlink:title=" ">
<polygon fill="white" stroke="#bfbfbf" points="849,-6 849,-25 1022,-25 1022,-6 849,-6"/>
<text text-anchor="middle" x="935.5" y="-13" font-family="Helvetica,sans-Serif" font-size="10.00">stk_mesh/base/FieldParallel.hpp</text>
</a>
</g>
</g>
<!-- Node1&#45;&gt;Node8 -->
<g id="edge7" class="edge">
<title>Node1&#45;&gt;Node8</title>
<path fill="none" stroke="midnightblue" d="M728.17,-67.48C771.03,-56.94 844.04,-38.99 891,-27.44"/>
<polygon fill="midnightblue" stroke="midnightblue" points="892.02,-30.8 900.89,-25.01 890.35,-24 892.02,-30.8"/>
</g>
<!-- Node9 -->
<g id="node9" class="node">
<title>Node9</title>
<g id="a_node9"><a xlink:title=" ">
<polygon fill="white" stroke="#bfbfbf" points="1040.5,-6 1040.5,-25 1202.5,-25 1202.5,-6 1040.5,-6"/>
<text text-anchor="middle" x="1121.5" y="-13" font-family="Helvetica,sans-Serif" font-size="10.00">stk_mesh/base/MetaData.hpp</text>
</a>
</g>
</g>
<!-- Node1&#45;&gt;Node9 -->
<g id="edge8" class="edge">
<title>Node1&#45;&gt;Node9</title>
<path fill="none" stroke="midnightblue" d="M761.55,-67.5C829.87,-58.83 938.08,-44.74 1031.5,-31 1040.8,-29.63 1050.62,-28.12 1060.23,-26.6"/>
<polygon fill="midnightblue" stroke="midnightblue" points="1060.81,-30.05 1070.14,-25.02 1059.71,-23.14 1060.81,-30.05"/>
</g>
<!-- Node10 -->
<g id="node10" class="node">
<title>Node10</title>
<g id="a_node10"><a xlink:title=" ">
<polygon fill="white" stroke="#bfbfbf" points="1221,-6 1221,-25 1384,-25 1384,-6 1221,-6"/>
<text text-anchor="middle" x="1302.5" y="-13" font-family="Helvetica,sans-Serif" font-size="10.00">stk_mesh/base/FieldBLAS.hpp</text>
</a>
</g>
</g>
<!-- Node1&#45;&gt;Node10 -->
<g id="edge9" class="edge">
<title>Node1&#45;&gt;Node10</title>
<path fill="none" stroke="midnightblue" d="M770.91,-71.01C872.33,-64.07 1055.61,-50.17 1211.5,-31 1221.73,-29.74 1232.57,-28.2 1243.07,-26.6"/>
<polygon fill="midnightblue" stroke="midnightblue" points="1243.66,-30.05 1253,-25.04 1242.58,-23.13 1243.66,-30.05"/>
</g>
<!-- Node11 -->
<g id="node11" class="node">
<title>Node11</title>
<g id="a_node11"><a xlink:title=" ">
<polygon fill="white" stroke="#bfbfbf" points="1402,-6 1402,-25 1595,-25 1595,-6 1402,-6"/>
<text text-anchor="middle" x="1498.5" y="-13" font-family="Helvetica,sans-Serif" font-size="10.00">stk_mesh/base/NgpFieldParallel.hpp</text>
</a>
</g>
</g>
<!-- Node1&#45;&gt;Node11 -->
<g id="edge10" class="edge">
<title>Node1&#45;&gt;Node11</title>
<path fill="none" stroke="midnightblue" d="M770.56,-72.89C899.65,-67.26 1167.69,-53.82 1393.5,-31 1406.07,-29.73 1419.45,-28.1 1432.3,-26.39"/>
<polygon fill="midnightblue" stroke="midnightblue" points="1433.03,-29.82 1442.46,-25.01 1432.08,-22.89 1433.03,-29.82"/>
</g>
</g>
</svg>
        <g id="navigator" transform="translate(0 0)" fill="#404254">
                <rect fill="#f2f5e9" fill-opacity="0.5" stroke="#606060" stroke-width=".5" x="0" y="0" width="60" height="60"/>
                <use id="zoomplus" xlink:href="#zoomPlus" x="17" y="9" onmousedown="handleZoom(evt,'in')"/>
                <use id="zoomminus" xlink:href="#zoomMin" x="42" y="9" onmousedown="handleZoom(evt,'out')"/>
                <use id="reset" xlink:href="#resetDef" x="30" y="36" onmousedown="handleReset()"/>
                <g id="arrowUp" xlink:href="#dirArrow" transform="translate(30 24)" onmousedown="handlePan(0,-1)">
                  <use xlink:href="#rim" fill="#404040">
                        <set attributeName="fill" to="#808080" begin="arrowUp.mouseover" end="arrowUp.mouseout"/>
                  </use>
                  <path fill="none" stroke="white" stroke-width="1.5" d="M0,-3.0v7 M-2.5,-0.5L0,-3.0L2.5,-0.5"/>
                </g>
                <g id="arrowRight" xlink:href="#dirArrow" transform="rotate(90) translate(36 -43)" onmousedown="handlePan(1,0)">
                  <use xlink:href="#rim" fill="#404040">
                        <set attributeName="fill" to="#808080" begin="arrowRight.mouseover" end="arrowRight.mouseout"/>
                  </use>
                  <path fill="none" stroke="white" stroke-width="1.5" d="M0,-3.0v7 M-2.5,-0.5L0,-3.0L2.5,-0.5"/>
                </g>
                <g id="arrowDown" xlink:href="#dirArrow" transform="rotate(180) translate(-30 -48)" onmousedown="handlePan(0,1)">
                  <use xlink:href="#rim" fill="#404040">
                        <set attributeName="fill" to="#808080" begin="arrowDown.mouseover" end="arrowDown.mouseout"/>
                  </use>
                  <path fill="none" stroke="white" stroke-width="1.5" d="M0,-3.0v7 M-2.5,-0.5L0,-3.0L2.5,-0.5"/>
                </g>
                <g id="arrowLeft" xlink:href="#dirArrow" transform="rotate(270) translate(-36 17)" onmousedown="handlePan(-1,0)">
                  <use xlink:href="#rim" fill="#404040">
                        <set attributeName="fill" to="#808080" begin="arrowLeft.mouseover" end="arrowLeft.mouseout"/>
                  </use>
                  <path fill="none" stroke="white" stroke-width="1.5" d="M0,-3.0v7 M-2.5,-0.5L0,-3.0L2.5,-0.5"/>
                </g>
        </g>
        <svg viewBox="0 0 15 15" width="100%" height="30px" preserveAspectRatio="xMaxYMin meet">
         <g id="arrow_out" transform="scale(0.3 0.3)">
          <a xlink:href="_s_s_t_max_length_scale_driver_8_c__incl_org.svg" target="_base">
           <rect id="button" ry="5" rx="5" y="6" x="6" height="38" width="38"
                fill="#f2f5e9" fill-opacity="0.5" stroke="#606060" stroke-width="1.0"/>
           <path id="arrow"
             d="M 11.500037,31.436501 C 11.940474,20.09759 22.043105,11.32322 32.158766,21.979434 L 37.068811,17.246167 C 37.068811,17.246167 37.088388,32 37.088388,32 L 22.160133,31.978069 C 22.160133,31.978069 26.997745,27.140456 26.997745,27.140456 C 18.528582,18.264221 13.291696,25.230495 11.500037,31.436501 z"
             style="fill:#404040;"/>
          </a>
         </g>
        </svg>
</svg>
