<?xml version="1.0" encoding="UTF-8" standalone="no"?>
<!DOCTYPE svg PUBLIC "-//W3C//DTD SVG 1.1//EN"
 "http://www.w3.org/Graphics/SVG/1.1/DTD/svg11.dtd">
<!-- Generated by graphviz version 2.43.0 (0)
 -->
<!-- Title: SSTAMSAveragesAlg.C Pages: 1 -->
<svg width="1590pt" height="95pt"
 viewBox="0.00 0.00 1589.50 95.00" xmlns="http://www.w3.org/2000/svg" xmlns:xlink="http://www.w3.org/1999/xlink">
<g id="graph0" class="graph" transform="scale(1 1) rotate(0) translate(4 91)">
<title>SSTAMSAveragesAlg.C</title>
<polygon fill="white" stroke="transparent" points="-4,4 -4,-91 1585.5,-91 1585.5,4 -4,4"/>
<!-- Node1 -->
<g id="node1" class="node">
<title>Node1</title>
<g id="a_node1"><a xlink:title=" ">
<polygon fill="#bfbfbf" stroke="black" points="730.5,-67.5 730.5,-86.5 857.5,-86.5 857.5,-67.5 730.5,-67.5"/>
<text text-anchor="middle" x="794" y="-74.5" font-family="Helvetica,sans-Serif" font-size="10.00">SSTAMSAveragesAlg.C</text>
</a>
</g>
</g>
<!-- Node2 -->
<g id="node2" class="node">
<title>Node2</title>
<g id="a_node2"><a xlink:title=" ">
<polygon fill="white" stroke="#bfbfbf" points="0,-0.5 0,-30.5 180,-30.5 180,-0.5 0,-0.5"/>
<text text-anchor="start" x="8" y="-18.5" font-family="Helvetica,sans-Serif" font-size="10.00">ngp_algorithms/SSTAMSAverages</text>
<text text-anchor="middle" x="90" y="-7.5" font-family="Helvetica,sans-Serif" font-size="10.00">Alg.h</text>
</a>
</g>
</g>
<!-- Node1&#45;&gt;Node2 -->
<g id="edge1" class="edge">
<title>Node1&#45;&gt;Node2</title>
<path fill="none" stroke="midnightblue" d="M730.28,-72.76C621.62,-66.9 393.33,-53.16 190.04,-31.06"/>
<polygon fill="midnightblue" stroke="midnightblue" points="190.39,-27.58 180.07,-29.97 189.63,-34.54 190.39,-27.58"/>
</g>
<!-- Node3 -->
<g id="node3" class="node">
<title>Node3</title>
<g id="a_node3"><a xlink:title=" ">
<polygon fill="white" stroke="#bfbfbf" points="198,-6 198,-25 336,-25 336,-6 198,-6"/>
<text text-anchor="middle" x="267" y="-13" font-family="Helvetica,sans-Serif" font-size="10.00">ngp_utils/NgpLoopUtils.h</text>
</a>
</g>
</g>
<!-- Node1&#45;&gt;Node3 -->
<g id="edge2" class="edge">
<title>Node1&#45;&gt;Node3</title>
<path fill="none" stroke="midnightblue" d="M730.22,-71.3C642.99,-64.49 481.69,-50.52 345,-31 336.67,-29.81 327.87,-28.36 319.31,-26.85"/>
<polygon fill="midnightblue" stroke="midnightblue" points="319.86,-23.39 309.4,-25.05 318.61,-30.28 319.86,-23.39"/>
</g>
<!-- Node4 -->
<g id="node4" class="node">
<title>Node4</title>
<g id="a_node4"><a xlink:title=" ">
<polygon fill="white" stroke="#bfbfbf" points="354,-6 354,-25 474,-25 474,-6 354,-6"/>
<text text-anchor="middle" x="414" y="-13" font-family="Helvetica,sans-Serif" font-size="10.00">ngp_utils/NgpTypes.h</text>
</a>
</g>
</g>
<!-- Node1&#45;&gt;Node4 -->
<g id="edge3" class="edge">
<title>Node1&#45;&gt;Node4</title>
<path fill="none" stroke="midnightblue" d="M730.38,-68C667.38,-59.79 568.28,-46.11 483,-31 476.36,-29.82 469.38,-28.48 462.52,-27.1"/>
<polygon fill="midnightblue" stroke="midnightblue" points="463.1,-23.65 452.6,-25.06 461.69,-30.5 463.1,-23.65"/>
</g>
<!-- Node5 -->
<g id="node5" class="node">
<title>Node5</title>
<g id="a_node5"><a xlink:title=" ">
<polygon fill="white" stroke="#bfbfbf" points="492,-6 492,-25 650,-25 650,-6 492,-6"/>
<text text-anchor="middle" x="571" y="-13" font-family="Helvetica,sans-Serif" font-size="10.00">ngp_utils/NgpFieldManager.h</text>
</a>
</g>
</g>
<!-- Node1&#45;&gt;Node5 -->
<g id="edge4" class="edge">
<title>Node1&#45;&gt;Node5</title>
<path fill="none" stroke="midnightblue" d="M762.05,-67.48C722.8,-57 656.12,-39.21 612.83,-27.66"/>
<polygon fill="midnightblue" stroke="midnightblue" points="613.46,-24.21 602.89,-25.01 611.65,-30.97 613.46,-24.21"/>
</g>
<!-- Node6 -->
<g id="node6" class="node">
<title>Node6</title>
<g id="a_node6"><a xlink:title=" ">
<polygon fill="white" stroke="#bfbfbf" points="667.5,-6 667.5,-25 724.5,-25 724.5,-6 667.5,-6"/>
<text text-anchor="middle" x="696" y="-13" font-family="Helvetica,sans-Serif" font-size="10.00">Realm.h</text>
</a>
</g>
</g>
<!-- Node1&#45;&gt;Node6 -->
<g id="edge5" class="edge">
<title>Node1&#45;&gt;Node6</title>
<path fill="none" stroke="midnightblue" d="M779.96,-67.48C763.95,-57.75 737.55,-41.73 718.63,-30.24"/>
<polygon fill="midnightblue" stroke="midnightblue" points="720.38,-27.21 710.01,-25.01 716.75,-33.19 720.38,-27.21"/>
</g>
<!-- Node7 -->
<g id="node7" class="node">
<title>Node7</title>
<g id="a_node7"><a xlink:title=" ">
<polygon fill="white" stroke="#bfbfbf" points="742.5,-6 742.5,-25 845.5,-25 845.5,-6 742.5,-6"/>
<text text-anchor="middle" x="794" y="-13" font-family="Helvetica,sans-Serif" font-size="10.00">utils/StkHelpers.h</text>
</a>
</g>
</g>
<!-- Node1&#45;&gt;Node7 -->
<g id="edge6" class="edge">
<title>Node1&#45;&gt;Node7</title>
<path fill="none" stroke="midnightblue" d="M794,-67.48C794,-59.08 794,-45.98 794,-35.16"/>
<polygon fill="midnightblue" stroke="midnightblue" points="797.5,-35.01 794,-25.01 790.5,-35.01 797.5,-35.01"/>
</g>
<!-- Node8 -->
<g id="node8" class="node">
<title>Node8</title>
<g id="a_node8"><a xlink:title=" ">
<polygon fill="white" stroke="#bfbfbf" points="864,-6 864,-25 1026,-25 1026,-6 864,-6"/>
<text text-anchor="middle" x="945" y="-13" font-family="Helvetica,sans-Serif" font-size="10.00">stk_mesh/base/MetaData.hpp</text>
</a>
</g>
</g>
<!-- Node1&#45;&gt;Node8 -->
<g id="edge7" class="edge">
<title>Node1&#45;&gt;Node8</title>
<path fill="none" stroke="midnightblue" d="M815.63,-67.48C841.42,-57.31 884.71,-40.26 914.04,-28.7"/>
<polygon fill="midnightblue" stroke="midnightblue" points="915.38,-31.93 923.41,-25.01 912.82,-25.42 915.38,-31.93"/>
</g>
<!-- Node9 -->
<g id="node9" class="node">
<title>Node9</title>
<g id="a_node9"><a xlink:title=" ">
<polygon fill="white" stroke="#bfbfbf" points="1044,-6 1044,-25 1204,-25 1204,-6 1044,-6"/>
<text text-anchor="middle" x="1124" y="-13" font-family="Helvetica,sans-Serif" font-size="10.00">stk_mesh/base/NgpMesh.hpp</text>
</a>
</g>
</g>
<!-- Node1&#45;&gt;Node9 -->
<g id="edge8" class="edge">
<title>Node1&#45;&gt;Node9</title>
<path fill="none" stroke="midnightblue" d="M841.28,-67.48C900.83,-56.74 1003.06,-38.31 1066.9,-26.79"/>
<polygon fill="midnightblue" stroke="midnightblue" points="1067.59,-30.23 1076.81,-25.01 1066.34,-23.34 1067.59,-30.23"/>
</g>
<!-- Node10 -->
<g id="node10" class="node">
<title>Node10</title>
<g id="a_node10"><a xlink:title=" ">
<polygon fill="white" stroke="#bfbfbf" points="1222,-6 1222,-25 1348,-25 1348,-6 1222,-6"/>
<text text-anchor="middle" x="1285" y="-13" font-family="Helvetica,sans-Serif" font-size="10.00">EigenDecomposition.h</text>
</a>
</g>
</g>
<!-- Node1&#45;&gt;Node10 -->
<g id="edge9" class="edge">
<title>Node1&#45;&gt;Node10</title>
<path fill="none" stroke="midnightblue" d="M857.77,-70.98C940.11,-64.09 1087.73,-50.3 1213,-31 1220.45,-29.85 1228.29,-28.46 1235.96,-27"/>
<polygon fill="midnightblue" stroke="midnightblue" points="1236.74,-30.42 1245.88,-25.06 1235.39,-23.55 1236.74,-30.42"/>
</g>
<!-- Node11 -->
<g id="node11" class="node">
<title>Node11</title>
<g id="a_node11"><a xlink:title=" ">
<polygon fill="white" stroke="#bfbfbf" points="1366,-6 1366,-25 1460,-25 1460,-6 1366,-6"/>
<text text-anchor="middle" x="1413" y="-13" font-family="Helvetica,sans-Serif" font-size="10.00">utils/AMSUtils.h</text>
</a>
</g>
</g>
<!-- Node1&#45;&gt;Node11 -->
<g id="edge10" class="edge">
<title>Node1&#45;&gt;Node11</title>
<path fill="none" stroke="midnightblue" d="M857.77,-74.5C962.6,-71.24 1177.63,-61.16 1357,-31 1362.51,-30.07 1368.27,-28.87 1373.91,-27.54"/>
<polygon fill="midnightblue" stroke="midnightblue" points="1374.99,-30.88 1383.85,-25.07 1373.3,-24.09 1374.99,-30.88"/>
</g>
<!-- Node12 -->
<g id="node12" class="node">
<title>Node12</title>
<g id="a_node12"><a xlink:title=" ">
<polygon fill="white" stroke="#bfbfbf" points="1478.5,-6 1478.5,-25 1581.5,-25 1581.5,-6 1478.5,-6"/>
<text text-anchor="middle" x="1530" y="-13" font-family="Helvetica,sans-Serif" font-size="10.00">SolutionOptions.h</text>
</a>
</g>
</g>
<!-- Node1&#45;&gt;Node12 -->
<g id="edge11" class="edge">
<title>Node1&#45;&gt;Node12</title>
<path fill="none" stroke="midnightblue" d="M857.66,-75.29C977.83,-73.16 1246.03,-64.69 1469,-31 1475.36,-30.04 1482.03,-28.75 1488.53,-27.34"/>
<polygon fill="midnightblue" stroke="midnightblue" points="1489.57,-30.69 1498.54,-25.04 1488.01,-23.86 1489.57,-30.69"/>
</g>
</g>
</svg>
