<?xml version="1.0" encoding="UTF-8" standalone="no"?>
<!DOCTYPE svg PUBLIC "-//W3C//DTD SVG 1.1//EN"
 "http://www.w3.org/Graphics/SVG/1.1/DTD/svg11.dtd">
<!-- Generated by graphviz version 2.43.0 (0)
 -->
<!-- Title: SSTMaxLengthScaleAlg.C Pages: 1 -->
<svg width="1776pt" height="95pt"
 viewBox="0.00 0.00 1775.50 95.00" xmlns="http://www.w3.org/2000/svg" xmlns:xlink="http://www.w3.org/1999/xlink">
<g id="graph0" class="graph" transform="scale(1 1) rotate(0) translate(4 91)">
<title>SSTMaxLengthScaleAlg.C</title>
<polygon fill="white" stroke="transparent" points="-4,4 -4,-91 1771.5,-91 1771.5,4 -4,4"/>
<!-- Node1 -->
<g id="node1" class="node">
<title>Node1</title>
<g id="a_node1"><a xlink:title=" ">
<polygon fill="#bfbfbf" stroke="black" points="932.5,-67.5 932.5,-86.5 1072.5,-86.5 1072.5,-67.5 932.5,-67.5"/>
<text text-anchor="middle" x="1002.5" y="-74.5" font-family="Helvetica,sans-Serif" font-size="10.00">SSTMaxLengthScaleAlg.C</text>
</a>
</g>
</g>
<!-- Node2 -->
<g id="node2" class="node">
<title>Node2</title>
<g id="a_node2"><a xlink:title=" ">
<polygon fill="white" stroke="#bfbfbf" points="0,-0.5 0,-30.5 167,-30.5 167,-0.5 0,-0.5"/>
<text text-anchor="start" x="8" y="-18.5" font-family="Helvetica,sans-Serif" font-size="10.00">ngp_algorithms/SSTMaxLength</text>
<text text-anchor="middle" x="83.5" y="-7.5" font-family="Helvetica,sans-Serif" font-size="10.00">ScaleAlg.h</text>
</a>
</g>
</g>
<!-- Node1&#45;&gt;Node2 -->
<g id="edge1" class="edge">
<title>Node1&#45;&gt;Node2</title>
<path fill="none" stroke="midnightblue" d="M932.33,-74.59C791.18,-71.24 462.69,-60.79 177.32,-31.12"/>
<polygon fill="midnightblue" stroke="midnightblue" points="177.5,-27.62 167.19,-30.06 176.77,-34.59 177.5,-27.62"/>
</g>
<!-- Node3 -->
<g id="node3" class="node">
<title>Node3</title>
<g id="a_node3"><a xlink:title=" ">
<polygon fill="white" stroke="#bfbfbf" points="185,-6 185,-25 286,-25 286,-6 185,-6"/>
<text text-anchor="middle" x="235.5" y="-13" font-family="Helvetica,sans-Serif" font-size="10.00">BuildTemplates.h</text>
</a>
</g>
</g>
<!-- Node1&#45;&gt;Node3 -->
<g id="edge2" class="edge">
<title>Node1&#45;&gt;Node3</title>
<path fill="none" stroke="midnightblue" d="M932.47,-75.65C804.86,-74.12 526.26,-66.56 294.5,-31 288.49,-30.08 282.19,-28.84 276.04,-27.46"/>
<polygon fill="midnightblue" stroke="midnightblue" points="276.45,-23.96 265.91,-25.07 274.84,-30.78 276.45,-23.96"/>
</g>
<!-- Node4 -->
<g id="node4" class="node">
<title>Node4</title>
<g id="a_node4"><a xlink:title=" ">
<polygon fill="white" stroke="#bfbfbf" points="304,-6 304,-25 487,-25 487,-6 304,-6"/>
<text text-anchor="middle" x="395.5" y="-13" font-family="Helvetica,sans-Serif" font-size="10.00">master_element/MasterElement.h</text>
</a>
</g>
</g>
<!-- Node1&#45;&gt;Node4 -->
<g id="edge3" class="edge">
<title>Node1&#45;&gt;Node4</title>
<path fill="none" stroke="midnightblue" d="M932.39,-70.97C834.61,-63.67 651.78,-49.04 496.5,-31 485.07,-29.67 472.93,-28.08 461.19,-26.45"/>
<polygon fill="midnightblue" stroke="midnightblue" points="461.39,-22.95 451,-25.02 460.41,-29.88 461.39,-22.95"/>
</g>
<!-- Node5 -->
<g id="node5" class="node">
<title>Node5</title>
<g id="a_node5"><a xlink:title=" ">
<polygon fill="white" stroke="#bfbfbf" points="505.5,-0.5 505.5,-30.5 679.5,-30.5 679.5,-0.5 505.5,-0.5"/>
<text text-anchor="start" x="513.5" y="-18.5" font-family="Helvetica,sans-Serif" font-size="10.00">master_element/MasterElement</text>
<text text-anchor="middle" x="592.5" y="-7.5" font-family="Helvetica,sans-Serif" font-size="10.00">Repo.h</text>
</a>
</g>
</g>
<!-- Node1&#45;&gt;Node5 -->
<g id="edge4" class="edge">
<title>Node1&#45;&gt;Node5</title>
<path fill="none" stroke="midnightblue" d="M941.99,-67.47C880.91,-58.82 783.56,-44.96 689.58,-31.15"/>
<polygon fill="midnightblue" stroke="midnightblue" points="690.02,-27.68 679.62,-29.69 689,-34.61 690.02,-27.68"/>
</g>
<!-- Node6 -->
<g id="node6" class="node">
<title>Node6</title>
<g id="a_node6"><a xlink:title=" ">
<polygon fill="white" stroke="#bfbfbf" points="697.5,-6 697.5,-25 835.5,-25 835.5,-6 697.5,-6"/>
<text text-anchor="middle" x="766.5" y="-13" font-family="Helvetica,sans-Serif" font-size="10.00">ngp_utils/NgpLoopUtils.h</text>
</a>
</g>
</g>
<!-- Node1&#45;&gt;Node6 -->
<g id="edge5" class="edge">
<title>Node1&#45;&gt;Node6</title>
<path fill="none" stroke="midnightblue" d="M968.69,-67.48C926.98,-56.96 855.99,-39.06 810.19,-27.51"/>
<polygon fill="midnightblue" stroke="midnightblue" points="810.8,-24.06 800.25,-25.01 809.09,-30.85 810.8,-24.06"/>
</g>
<!-- Node7 -->
<g id="node7" class="node">
<title>Node7</title>
<g id="a_node7"><a xlink:title=" ">
<polygon fill="white" stroke="#bfbfbf" points="853.5,-6 853.5,-25 987.5,-25 987.5,-6 853.5,-6"/>
<text text-anchor="middle" x="920.5" y="-13" font-family="Helvetica,sans-Serif" font-size="10.00">ngp_utils/NgpFieldOps.h</text>
</a>
</g>
</g>
<!-- Node1&#45;&gt;Node7 -->
<g id="edge6" class="edge">
<title>Node1&#45;&gt;Node7</title>
<path fill="none" stroke="midnightblue" d="M990.75,-67.48C977.72,-58.02 956.46,-42.6 940.74,-31.19"/>
<polygon fill="midnightblue" stroke="midnightblue" points="942.38,-28.05 932.23,-25.01 938.27,-33.71 942.38,-28.05"/>
</g>
<!-- Node8 -->
<g id="node8" class="node">
<title>Node8</title>
<g id="a_node8"><a xlink:title=" ">
<polygon fill="white" stroke="#bfbfbf" points="1005.5,-6 1005.5,-25 1163.5,-25 1163.5,-6 1005.5,-6"/>
<text text-anchor="middle" x="1084.5" y="-13" font-family="Helvetica,sans-Serif" font-size="10.00">ngp_utils/NgpFieldManager.h</text>
</a>
</g>
</g>
<!-- Node1&#45;&gt;Node8 -->
<g id="edge7" class="edge">
<title>Node1&#45;&gt;Node8</title>
<path fill="none" stroke="midnightblue" d="M1014.25,-67.48C1027.28,-58.02 1048.54,-42.6 1064.26,-31.19"/>
<polygon fill="midnightblue" stroke="midnightblue" points="1066.73,-33.71 1072.77,-25.01 1062.62,-28.05 1066.73,-33.71"/>
</g>
<!-- Node9 -->
<g id="node9" class="node">
<title>Node9</title>
<g id="a_node9"><a xlink:title=" ">
<polygon fill="white" stroke="#bfbfbf" points="1181,-6 1181,-25 1238,-25 1238,-6 1181,-6"/>
<text text-anchor="middle" x="1209.5" y="-13" font-family="Helvetica,sans-Serif" font-size="10.00">Realm.h</text>
</a>
</g>
</g>
<!-- Node1&#45;&gt;Node9 -->
<g id="edge8" class="edge">
<title>Node1&#45;&gt;Node9</title>
<path fill="none" stroke="midnightblue" d="M1039.67,-67.46C1074.35,-59.19 1127.38,-45.76 1172.5,-31 1174.77,-30.26 1177.1,-29.45 1179.43,-28.61"/>
<polygon fill="midnightblue" stroke="midnightblue" points="1180.78,-31.85 1188.91,-25.05 1178.32,-25.29 1180.78,-31.85"/>
</g>
<!-- Node10 -->
<g id="node10" class="node">
<title>Node10</title>
<g id="a_node10"><a xlink:title=" ">
<polygon fill="white" stroke="#bfbfbf" points="1256,-6 1256,-25 1347,-25 1347,-6 1256,-6"/>
<text text-anchor="middle" x="1301.5" y="-13" font-family="Helvetica,sans-Serif" font-size="10.00">ScratchViews.h</text>
</a>
</g>
</g>
<!-- Node1&#45;&gt;Node10 -->
<g id="edge9" class="edge">
<title>Node1&#45;&gt;Node10</title>
<path fill="none" stroke="midnightblue" d="M1055.8,-67.49C1105.6,-59.23 1181.9,-45.81 1247.5,-31 1251.99,-29.99 1256.67,-28.85 1261.31,-27.67"/>
<polygon fill="midnightblue" stroke="midnightblue" points="1262.54,-30.97 1271.33,-25.06 1260.77,-24.2 1262.54,-30.97"/>
</g>
<!-- Node11 -->
<g id="node11" class="node">
<title>Node11</title>
<g id="a_node11"><a xlink:title=" ">
<polygon fill="white" stroke="#bfbfbf" points="1365,-6 1365,-25 1468,-25 1468,-6 1365,-6"/>
<text text-anchor="middle" x="1416.5" y="-13" font-family="Helvetica,sans-Serif" font-size="10.00">SolutionOptions.h</text>
</a>
</g>
</g>
<!-- Node1&#45;&gt;Node11 -->
<g id="edge10" class="edge">
<title>Node1&#45;&gt;Node11</title>
<path fill="none" stroke="midnightblue" d="M1072.71,-69.39C1144.39,-62.1 1258.7,-48.98 1356.5,-31 1362.24,-29.95 1368.25,-28.68 1374.16,-27.35"/>
<polygon fill="midnightblue" stroke="midnightblue" points="1375,-30.75 1383.94,-25.06 1373.41,-23.93 1375,-30.75"/>
</g>
<!-- Node12 -->
<g id="node12" class="node">
<title>Node12</title>
<g id="a_node12"><a xlink:title=" ">
<polygon fill="white" stroke="#bfbfbf" points="1486,-6 1486,-25 1589,-25 1589,-6 1486,-6"/>
<text text-anchor="middle" x="1537.5" y="-13" font-family="Helvetica,sans-Serif" font-size="10.00">utils/StkHelpers.h</text>
</a>
</g>
</g>
<!-- Node1&#45;&gt;Node12 -->
<g id="edge11" class="edge">
<title>Node1&#45;&gt;Node12</title>
<path fill="none" stroke="midnightblue" d="M1072.53,-72.5C1165.54,-67.13 1334.73,-54.89 1477.5,-31 1483.46,-30 1489.7,-28.74 1495.82,-27.38"/>
<polygon fill="midnightblue" stroke="midnightblue" points="1496.97,-30.71 1505.91,-25.03 1495.38,-23.89 1496.97,-30.71"/>
</g>
<!-- Node13 -->
<g id="node13" class="node">
<title>Node13</title>
<g id="a_node13"><a xlink:title=" ">
<polygon fill="white" stroke="#bfbfbf" points="1607.5,-6 1607.5,-25 1767.5,-25 1767.5,-6 1607.5,-6"/>
<text text-anchor="middle" x="1687.5" y="-13" font-family="Helvetica,sans-Serif" font-size="10.00">stk_mesh/base/NgpMesh.hpp</text>
</a>
</g>
</g>
<!-- Node1&#45;&gt;Node13 -->
<g id="edge12" class="edge">
<title>Node1&#45;&gt;Node13</title>
<path fill="none" stroke="midnightblue" d="M1072.88,-72.65C1184.57,-66.9 1409.16,-53.53 1598.5,-31 1608.75,-29.78 1619.62,-28.23 1630.12,-26.59"/>
<polygon fill="midnightblue" stroke="midnightblue" points="1630.71,-30.04 1640.03,-25.01 1629.61,-23.13 1630.71,-30.04"/>
</g>
</g>
</svg>
