<?xml version="1.0" encoding="UTF-8" standalone="no"?>
<!DOCTYPE svg PUBLIC "-//W3C//DTD SVG 1.1//EN"
 "http://www.w3.org/Graphics/SVG/1.1/DTD/svg11.dtd">
<!-- Generated by graphviz version 2.43.0 (0)
 -->
<!-- Title: ScalarEdgeSolverAlg.C Pages: 1 -->
<svg width="1182pt" height="95pt"
 viewBox="0.00 0.00 1181.50 95.00" xmlns="http://www.w3.org/2000/svg" xmlns:xlink="http://www.w3.org/1999/xlink">
<g id="graph0" class="graph" transform="scale(1 1) rotate(0) translate(4 91)">
<title>ScalarEdgeSolverAlg.C</title>
<polygon fill="white" stroke="transparent" points="-4,4 -4,-91 1177.5,-91 1177.5,4 -4,4"/>
<!-- Node1 -->
<g id="node1" class="node">
<title>Node1</title>
<g id="a_node1"><a xlink:title=" ">
<polygon fill="#bfbfbf" stroke="black" points="473,-67.5 473,-86.5 600,-86.5 600,-67.5 473,-67.5"/>
<text text-anchor="middle" x="536.5" y="-74.5" font-family="Helvetica,sans-Serif" font-size="10.00">ScalarEdgeSolverAlg.C</text>
</a>
</g>
</g>
<!-- Node2 -->
<g id="node2" class="node">
<title>Node2</title>
<g id="a_node2"><a xlink:title=" ">
<polygon fill="white" stroke="#bfbfbf" points="0,-0.5 0,-30.5 169,-30.5 169,-0.5 0,-0.5"/>
<text text-anchor="start" x="8" y="-18.5" font-family="Helvetica,sans-Serif" font-size="10.00">edge_kernels/ScalarEdgeSolver</text>
<text text-anchor="middle" x="84.5" y="-7.5" font-family="Helvetica,sans-Serif" font-size="10.00">Alg.h</text>
</a>
</g>
</g>
<!-- Node1&#45;&gt;Node2 -->
<g id="edge1" class="edge">
<title>Node1&#45;&gt;Node2</title>
<path fill="none" stroke="midnightblue" d="M472.87,-68.61C403.23,-60.39 287.99,-46.4 179.29,-31.23"/>
<polygon fill="midnightblue" stroke="midnightblue" points="179.52,-27.73 169.13,-29.81 178.55,-34.66 179.52,-27.73"/>
</g>
<!-- Node3 -->
<g id="node3" class="node">
<title>Node3</title>
<g id="a_node3"><a xlink:title=" ">
<polygon fill="white" stroke="#bfbfbf" points="187,-6 187,-25 292,-25 292,-6 187,-6"/>
<text text-anchor="middle" x="239.5" y="-13" font-family="Helvetica,sans-Serif" font-size="10.00">EquationSystem.h</text>
</a>
</g>
</g>
<!-- Node1&#45;&gt;Node3 -->
<g id="edge2" class="edge">
<title>Node1&#45;&gt;Node3</title>
<path fill="none" stroke="midnightblue" d="M488.46,-67.49C440.68,-58.88 365.35,-44.88 300.5,-31 295.18,-29.86 289.61,-28.61 284.09,-27.34"/>
<polygon fill="midnightblue" stroke="midnightblue" points="284.81,-23.92 274.28,-25.05 283.22,-30.73 284.81,-23.92"/>
</g>
<!-- Node4 -->
<g id="node4" class="node">
<title>Node4</title>
<g id="a_node4"><a xlink:title=" ">
<polygon fill="white" stroke="#bfbfbf" points="310,-6 310,-25 407,-25 407,-6 310,-6"/>
<text text-anchor="middle" x="358.5" y="-13" font-family="Helvetica,sans-Serif" font-size="10.00">PecletFunction.h</text>
</a>
</g>
</g>
<!-- Node1&#45;&gt;Node4 -->
<g id="edge3" class="edge">
<title>Node1&#45;&gt;Node4</title>
<path fill="none" stroke="midnightblue" d="M511,-67.48C480.2,-57.18 428.23,-39.81 393.65,-28.25"/>
<polygon fill="midnightblue" stroke="midnightblue" points="394.55,-24.86 383.96,-25.01 392.33,-31.5 394.55,-24.86"/>
</g>
<!-- Node5 -->
<g id="node5" class="node">
<title>Node5</title>
<g id="a_node5"><a xlink:title=" ">
<polygon fill="white" stroke="#bfbfbf" points="425,-6 425,-25 528,-25 528,-6 425,-6"/>
<text text-anchor="middle" x="476.5" y="-13" font-family="Helvetica,sans-Serif" font-size="10.00">SolutionOptions.h</text>
</a>
</g>
</g>
<!-- Node1&#45;&gt;Node5 -->
<g id="edge4" class="edge">
<title>Node1&#45;&gt;Node5</title>
<path fill="none" stroke="midnightblue" d="M527.9,-67.48C518.64,-58.28 503.68,-43.46 492.29,-32.16"/>
<polygon fill="midnightblue" stroke="midnightblue" points="494.65,-29.57 485.08,-25.01 489.72,-34.54 494.65,-29.57"/>
</g>
<!-- Node6 -->
<g id="node6" class="node">
<title>Node6</title>
<g id="a_node6"><a xlink:title=" ">
<polygon fill="white" stroke="#bfbfbf" points="546,-6 546,-25 649,-25 649,-6 546,-6"/>
<text text-anchor="middle" x="597.5" y="-13" font-family="Helvetica,sans-Serif" font-size="10.00">utils/StkHelpers.h</text>
</a>
</g>
</g>
<!-- Node1&#45;&gt;Node6 -->
<g id="edge5" class="edge">
<title>Node1&#45;&gt;Node6</title>
<path fill="none" stroke="midnightblue" d="M545.24,-67.48C554.66,-58.28 569.86,-43.46 581.45,-32.16"/>
<polygon fill="midnightblue" stroke="midnightblue" points="584.06,-34.5 588.78,-25.01 579.17,-29.49 584.06,-34.5"/>
</g>
<!-- Node7 -->
<g id="node7" class="node">
<title>Node7</title>
<g id="a_node7"><a xlink:title=" ">
<polygon fill="white" stroke="#bfbfbf" points="667.5,-6 667.5,-25 837.5,-25 837.5,-6 667.5,-6"/>
<text text-anchor="middle" x="752.5" y="-13" font-family="Helvetica,sans-Serif" font-size="10.00">edge_kernels/EdgeKernelUtils.h</text>
</a>
</g>
</g>
<!-- Node1&#45;&gt;Node7 -->
<g id="edge6" class="edge">
<title>Node1&#45;&gt;Node7</title>
<path fill="none" stroke="midnightblue" d="M567.45,-67.48C605.38,-57.03 669.78,-39.29 711.72,-27.73"/>
<polygon fill="midnightblue" stroke="midnightblue" points="712.9,-31.04 721.61,-25.01 711.04,-24.29 712.9,-31.04"/>
</g>
<!-- Node8 -->
<g id="node8" class="node">
<title>Node8</title>
<g id="a_node8"><a xlink:title=" ">
<polygon fill="white" stroke="#bfbfbf" points="856,-6 856,-25 1013,-25 1013,-6 856,-6"/>
<text text-anchor="middle" x="934.5" y="-13" font-family="Helvetica,sans-Serif" font-size="10.00">stk_mesh/base/NgpField.hpp</text>
</a>
</g>
</g>
<!-- Node1&#45;&gt;Node8 -->
<g id="edge7" class="edge">
<title>Node1&#45;&gt;Node8</title>
<path fill="none" stroke="midnightblue" d="M597.72,-67.47C660.29,-58.66 760.24,-44.37 846.5,-31 855.28,-29.64 864.55,-28.16 873.65,-26.68"/>
<polygon fill="midnightblue" stroke="midnightblue" points="874.5,-30.09 883.8,-25.02 873.37,-23.18 874.5,-30.09"/>
</g>
<!-- Node9 -->
<g id="node9" class="node">
<title>Node9</title>
<g id="a_node9"><a xlink:title=" ">
<polygon fill="white" stroke="#bfbfbf" points="1031.5,-6 1031.5,-25 1173.5,-25 1173.5,-6 1031.5,-6"/>
<text text-anchor="middle" x="1102.5" y="-13" font-family="Helvetica,sans-Serif" font-size="10.00">stk_mesh/base/Types.hpp</text>
</a>
</g>
</g>
<!-- Node1&#45;&gt;Node9 -->
<g id="edge8" class="edge">
<title>Node1&#45;&gt;Node9</title>
<path fill="none" stroke="midnightblue" d="M600.39,-71.86C693.5,-65.43 871.8,-51.59 1022.5,-31 1031.24,-29.81 1040.48,-28.33 1049.45,-26.78"/>
<polygon fill="midnightblue" stroke="midnightblue" points="1050.19,-30.21 1059.43,-25.02 1048.97,-23.31 1050.19,-30.21"/>
</g>
</g>
</svg>
