<?xml version="1.0" encoding="UTF-8" standalone="no"?>
<!DOCTYPE svg PUBLIC "-//W3C//DTD SVG 1.1//EN"
 "http://www.w3.org/Graphics/SVG/1.1/DTD/svg11.dtd">
<!-- Generated by graphviz version 2.43.0 (0)
 -->
<!-- Title: ScalarFluxBCElemKernel.C Pages: 1 -->
<svg width="1085pt" height="95pt"
 viewBox="0.00 0.00 1085.00 95.00" xmlns="http://www.w3.org/2000/svg" xmlns:xlink="http://www.w3.org/1999/xlink">
<g id="graph0" class="graph" transform="scale(1 1) rotate(0) translate(4 91)">
<title>ScalarFluxBCElemKernel.C</title>
<polygon fill="white" stroke="transparent" points="-4,4 -4,-91 1081,-91 1081,4 -4,4"/>
<!-- Node1 -->
<g id="node1" class="node">
<title>Node1</title>
<g id="a_node1"><a xlink:title=" ">
<polygon fill="#bfbfbf" stroke="black" points="568.5,-67.5 568.5,-86.5 714.5,-86.5 714.5,-67.5 568.5,-67.5"/>
<text text-anchor="middle" x="641.5" y="-74.5" font-family="Helvetica,sans-Serif" font-size="10.00">ScalarFluxBCElemKernel.C</text>
</a>
</g>
</g>
<!-- Node2 -->
<g id="node2" class="node">
<title>Node2</title>
<g id="a_node2"><a xlink:title=" ">
<polygon fill="white" stroke="#bfbfbf" points="0,-6 0,-25 179,-25 179,-6 0,-6"/>
<text text-anchor="middle" x="89.5" y="-13" font-family="Helvetica,sans-Serif" font-size="10.00">kernel/ScalarFluxBCElemKernel.h</text>
</a>
</g>
</g>
<!-- Node1&#45;&gt;Node2 -->
<g id="edge1" class="edge">
<title>Node1&#45;&gt;Node2</title>
<path fill="none" stroke="midnightblue" d="M568.25,-69.83C478.41,-62.01 321.53,-47.55 187.5,-31 176.65,-29.66 165.15,-28.09 153.99,-26.49"/>
<polygon fill="midnightblue" stroke="midnightblue" points="154.26,-23 143.86,-25.02 153.26,-29.92 154.26,-23"/>
</g>
<!-- Node3 -->
<g id="node3" class="node">
<title>Node3</title>
<g id="a_node3"><a xlink:title=" ">
<polygon fill="white" stroke="#bfbfbf" points="197,-6 197,-25 380,-25 380,-6 197,-6"/>
<text text-anchor="middle" x="288.5" y="-13" font-family="Helvetica,sans-Serif" font-size="10.00">master_element/MasterElement.h</text>
</a>
</g>
</g>
<!-- Node1&#45;&gt;Node3 -->
<g id="edge2" class="edge">
<title>Node1&#45;&gt;Node3</title>
<path fill="none" stroke="midnightblue" d="M590.92,-67.48C527.1,-56.72 417.42,-38.23 349.16,-26.72"/>
<polygon fill="midnightblue" stroke="midnightblue" points="349.43,-23.22 338.98,-25.01 348.26,-30.12 349.43,-23.22"/>
</g>
<!-- Node4 -->
<g id="node4" class="node">
<title>Node4</title>
<g id="a_node4"><a xlink:title=" ">
<polygon fill="white" stroke="#bfbfbf" points="398.5,-0.5 398.5,-30.5 572.5,-30.5 572.5,-0.5 398.5,-0.5"/>
<text text-anchor="start" x="406.5" y="-18.5" font-family="Helvetica,sans-Serif" font-size="10.00">master_element/MasterElement</text>
<text text-anchor="middle" x="485.5" y="-7.5" font-family="Helvetica,sans-Serif" font-size="10.00">Repo.h</text>
</a>
</g>
</g>
<!-- Node1&#45;&gt;Node4 -->
<g id="edge3" class="edge">
<title>Node1&#45;&gt;Node4</title>
<path fill="none" stroke="midnightblue" d="M619.15,-67.48C596.44,-58.81 560.6,-45.15 531.75,-34.14"/>
<polygon fill="midnightblue" stroke="midnightblue" points="532.86,-30.82 522.27,-30.52 530.36,-37.36 532.86,-30.82"/>
</g>
<!-- Node5 -->
<g id="node5" class="node">
<title>Node5</title>
<g id="a_node5"><a xlink:title=" ">
<polygon fill="white" stroke="#bfbfbf" points="591,-6 591,-25 692,-25 692,-6 591,-6"/>
<text text-anchor="middle" x="641.5" y="-13" font-family="Helvetica,sans-Serif" font-size="10.00">BuildTemplates.h</text>
</a>
</g>
</g>
<!-- Node1&#45;&gt;Node5 -->
<g id="edge4" class="edge">
<title>Node1&#45;&gt;Node5</title>
<path fill="none" stroke="midnightblue" d="M641.5,-67.48C641.5,-59.08 641.5,-45.98 641.5,-35.16"/>
<polygon fill="midnightblue" stroke="midnightblue" points="645,-35.01 641.5,-25.01 638,-35.01 645,-35.01"/>
</g>
<!-- Node6 -->
<g id="node6" class="node">
<title>Node6</title>
<g id="a_node6"><a xlink:title=" ">
<polygon fill="white" stroke="#bfbfbf" points="710,-6 710,-25 801,-25 801,-6 710,-6"/>
<text text-anchor="middle" x="755.5" y="-13" font-family="Helvetica,sans-Serif" font-size="10.00">ScratchViews.h</text>
</a>
</g>
</g>
<!-- Node1&#45;&gt;Node6 -->
<g id="edge5" class="edge">
<title>Node1&#45;&gt;Node6</title>
<path fill="none" stroke="midnightblue" d="M657.83,-67.48C676.71,-57.62 708.01,-41.29 730.08,-29.77"/>
<polygon fill="midnightblue" stroke="midnightblue" points="731.95,-32.74 739.2,-25.01 728.71,-26.53 731.95,-32.74"/>
</g>
<!-- Node7 -->
<g id="node7" class="node">
<title>Node7</title>
<g id="a_node7"><a xlink:title=" ">
<polygon fill="white" stroke="#bfbfbf" points="819,-6 819,-25 922,-25 922,-6 819,-6"/>
<text text-anchor="middle" x="870.5" y="-13" font-family="Helvetica,sans-Serif" font-size="10.00">utils/StkHelpers.h</text>
</a>
</g>
</g>
<!-- Node1&#45;&gt;Node7 -->
<g id="edge6" class="edge">
<title>Node1&#45;&gt;Node7</title>
<path fill="none" stroke="midnightblue" d="M674.31,-67.48C714.7,-56.98 783.38,-39.14 827.83,-27.59"/>
<polygon fill="midnightblue" stroke="midnightblue" points="828.95,-30.91 837.75,-25.01 827.19,-24.14 828.95,-30.91"/>
</g>
<!-- Node8 -->
<g id="node8" class="node">
<title>Node8</title>
<g id="a_node8"><a xlink:title=" ">
<polygon fill="white" stroke="#bfbfbf" points="940,-6 940,-25 1077,-25 1077,-6 940,-6"/>
<text text-anchor="middle" x="1008.5" y="-13" font-family="Helvetica,sans-Serif" font-size="10.00">stk_mesh/base/Field.hpp</text>
</a>
</g>
</g>
<!-- Node1&#45;&gt;Node8 -->
<g id="edge7" class="edge">
<title>Node1&#45;&gt;Node8</title>
<path fill="none" stroke="midnightblue" d="M700.19,-67.46C758.83,-58.79 851.53,-44.73 931.5,-31 938.96,-29.72 946.81,-28.31 954.53,-26.89"/>
<polygon fill="midnightblue" stroke="midnightblue" points="955.38,-30.29 964.57,-25.03 954.1,-23.41 955.38,-30.29"/>
</g>
</g>
</svg>
