<?xml version="1.0" encoding="UTF-8" standalone="no"?>
<!DOCTYPE svg PUBLIC "-//W3C//DTD SVG 1.1//EN"
 "http://www.w3.org/Graphics/SVG/1.1/DTD/svg11.dtd">
<!-- Generated by graphviz version 2.43.0 (0)
 -->
<!-- Title: ScalarFluxPenaltyElemKernel.C Pages: 1 -->
<svg width="1621pt" height="95pt"
 viewBox="0.00 0.00 1621.00 95.00" xmlns="http://www.w3.org/2000/svg" xmlns:xlink="http://www.w3.org/1999/xlink">
<g id="graph0" class="graph" transform="scale(1 1) rotate(0) translate(4 91)">
<title>ScalarFluxPenaltyElemKernel.C</title>
<polygon fill="white" stroke="transparent" points="-4,4 -4,-91 1617,-91 1617,4 -4,4"/>
<!-- Node1 -->
<g id="node1" class="node">
<title>Node1</title>
<g id="a_node1"><a xlink:title=" ">
<polygon fill="#bfbfbf" stroke="black" points="752.5,-67.5 752.5,-86.5 922.5,-86.5 922.5,-67.5 752.5,-67.5"/>
<text text-anchor="middle" x="837.5" y="-74.5" font-family="Helvetica,sans-Serif" font-size="10.00">ScalarFluxPenaltyElemKernel.C</text>
</a>
</g>
</g>
<!-- Node2 -->
<g id="node2" class="node">
<title>Node2</title>
<g id="a_node2"><a xlink:title=" ">
<polygon fill="white" stroke="#bfbfbf" points="0,-0.5 0,-30.5 137,-30.5 137,-0.5 0,-0.5"/>
<text text-anchor="start" x="8" y="-18.5" font-family="Helvetica,sans-Serif" font-size="10.00">kernel/ScalarFluxPenalty</text>
<text text-anchor="middle" x="68.5" y="-7.5" font-family="Helvetica,sans-Serif" font-size="10.00">ElemKernel.h</text>
</a>
</g>
</g>
<!-- Node1&#45;&gt;Node2 -->
<g id="edge1" class="edge">
<title>Node1&#45;&gt;Node2</title>
<path fill="none" stroke="midnightblue" d="M752.5,-73.79C623.56,-69.7 370.73,-58.8 147.23,-31.13"/>
<polygon fill="midnightblue" stroke="midnightblue" points="147.64,-27.65 137.28,-29.88 146.77,-34.59 147.64,-27.65"/>
</g>
<!-- Node3 -->
<g id="node3" class="node">
<title>Node3</title>
<g id="a_node3"><a xlink:title=" ">
<polygon fill="white" stroke="#bfbfbf" points="155,-6 155,-25 338,-25 338,-6 155,-6"/>
<text text-anchor="middle" x="246.5" y="-13" font-family="Helvetica,sans-Serif" font-size="10.00">master_element/MasterElement.h</text>
</a>
</g>
</g>
<!-- Node1&#45;&gt;Node3 -->
<g id="edge2" class="edge">
<title>Node1&#45;&gt;Node3</title>
<path fill="none" stroke="midnightblue" d="M752.38,-69.51C654.54,-61.74 489.19,-47.67 347.5,-31 336.14,-29.66 324.08,-28.08 312.4,-26.46"/>
<polygon fill="midnightblue" stroke="midnightblue" points="312.65,-22.96 302.26,-25.02 311.68,-29.89 312.65,-22.96"/>
</g>
<!-- Node4 -->
<g id="node4" class="node">
<title>Node4</title>
<g id="a_node4"><a xlink:title=" ">
<polygon fill="white" stroke="#bfbfbf" points="356.5,-0.5 356.5,-30.5 530.5,-30.5 530.5,-0.5 356.5,-0.5"/>
<text text-anchor="start" x="364.5" y="-18.5" font-family="Helvetica,sans-Serif" font-size="10.00">master_element/MasterElement</text>
<text text-anchor="middle" x="443.5" y="-7.5" font-family="Helvetica,sans-Serif" font-size="10.00">Repo.h</text>
</a>
</g>
</g>
<!-- Node1&#45;&gt;Node4 -->
<g id="edge3" class="edge">
<title>Node1&#45;&gt;Node4</title>
<path fill="none" stroke="midnightblue" d="M781.05,-67.48C718.43,-58.02 616.28,-42.59 540.73,-31.18"/>
<polygon fill="midnightblue" stroke="midnightblue" points="541.13,-27.7 530.72,-29.67 540.08,-34.63 541.13,-27.7"/>
</g>
<!-- Node5 -->
<g id="node5" class="node">
<title>Node5</title>
<g id="a_node5"><a xlink:title=" ">
<polygon fill="white" stroke="#bfbfbf" points="549,-6 549,-25 652,-25 652,-6 549,-6"/>
<text text-anchor="middle" x="600.5" y="-13" font-family="Helvetica,sans-Serif" font-size="10.00">SolutionOptions.h</text>
</a>
</g>
</g>
<!-- Node1&#45;&gt;Node5 -->
<g id="edge4" class="edge">
<title>Node1&#45;&gt;Node5</title>
<path fill="none" stroke="midnightblue" d="M803.54,-67.48C761.66,-56.96 690.37,-39.06 644.37,-27.51"/>
<polygon fill="midnightblue" stroke="midnightblue" points="644.94,-24.05 634.39,-25.01 643.24,-30.84 644.94,-24.05"/>
</g>
<!-- Node6 -->
<g id="node6" class="node">
<title>Node6</title>
<g id="a_node6"><a xlink:title=" ">
<polygon fill="white" stroke="#bfbfbf" points="670.5,-6 670.5,-25 768.5,-25 768.5,-6 670.5,-6"/>
<text text-anchor="middle" x="719.5" y="-13" font-family="Helvetica,sans-Serif" font-size="10.00">TimeIntegrator.h</text>
</a>
</g>
</g>
<!-- Node1&#45;&gt;Node6 -->
<g id="edge5" class="edge">
<title>Node1&#45;&gt;Node6</title>
<path fill="none" stroke="midnightblue" d="M820.59,-67.48C800.97,-57.58 768.37,-41.14 745.51,-29.62"/>
<polygon fill="midnightblue" stroke="midnightblue" points="746.88,-26.39 736.38,-25.01 743.73,-32.64 746.88,-26.39"/>
</g>
<!-- Node7 -->
<g id="node7" class="node">
<title>Node7</title>
<g id="a_node7"><a xlink:title=" ">
<polygon fill="white" stroke="#bfbfbf" points="787,-6 787,-25 888,-25 888,-6 787,-6"/>
<text text-anchor="middle" x="837.5" y="-13" font-family="Helvetica,sans-Serif" font-size="10.00">BuildTemplates.h</text>
</a>
</g>
</g>
<!-- Node1&#45;&gt;Node7 -->
<g id="edge6" class="edge">
<title>Node1&#45;&gt;Node7</title>
<path fill="none" stroke="midnightblue" d="M837.5,-67.48C837.5,-59.08 837.5,-45.98 837.5,-35.16"/>
<polygon fill="midnightblue" stroke="midnightblue" points="841,-35.01 837.5,-25.01 834,-35.01 841,-35.01"/>
</g>
<!-- Node8 -->
<g id="node8" class="node">
<title>Node8</title>
<g id="a_node8"><a xlink:title=" ">
<polygon fill="white" stroke="#bfbfbf" points="906,-6 906,-25 997,-25 997,-6 906,-6"/>
<text text-anchor="middle" x="951.5" y="-13" font-family="Helvetica,sans-Serif" font-size="10.00">ScratchViews.h</text>
</a>
</g>
</g>
<!-- Node1&#45;&gt;Node8 -->
<g id="edge7" class="edge">
<title>Node1&#45;&gt;Node8</title>
<path fill="none" stroke="midnightblue" d="M853.83,-67.48C872.71,-57.62 904.01,-41.29 926.08,-29.77"/>
<polygon fill="midnightblue" stroke="midnightblue" points="927.95,-32.74 935.2,-25.01 924.71,-26.53 927.95,-32.74"/>
</g>
<!-- Node9 -->
<g id="node9" class="node">
<title>Node9</title>
<g id="a_node9"><a xlink:title=" ">
<polygon fill="white" stroke="#bfbfbf" points="1015,-6 1015,-25 1118,-25 1118,-6 1015,-6"/>
<text text-anchor="middle" x="1066.5" y="-13" font-family="Helvetica,sans-Serif" font-size="10.00">utils/StkHelpers.h</text>
</a>
</g>
</g>
<!-- Node1&#45;&gt;Node9 -->
<g id="edge8" class="edge">
<title>Node1&#45;&gt;Node9</title>
<path fill="none" stroke="midnightblue" d="M870.31,-67.48C910.7,-56.98 979.38,-39.14 1023.83,-27.59"/>
<polygon fill="midnightblue" stroke="midnightblue" points="1024.95,-30.91 1033.75,-25.01 1023.19,-24.14 1024.95,-30.91"/>
</g>
<!-- Node10 -->
<g id="node10" class="node">
<title>Node10</title>
<g id="a_node10"><a xlink:title=" ">
<polygon fill="white" stroke="#bfbfbf" points="1136,-6 1136,-25 1277,-25 1277,-6 1136,-6"/>
<text text-anchor="middle" x="1206.5" y="-13" font-family="Helvetica,sans-Serif" font-size="10.00">stk_mesh/base/Entity.hpp</text>
</a>
</g>
</g>
<!-- Node1&#45;&gt;Node10 -->
<g id="edge9" class="edge">
<title>Node1&#45;&gt;Node10</title>
<path fill="none" stroke="midnightblue" d="M895.62,-67.46C954.23,-58.74 1047.25,-44.59 1127.5,-31 1135.14,-29.71 1143.18,-28.29 1151.09,-26.87"/>
<polygon fill="midnightblue" stroke="midnightblue" points="1151.79,-30.3 1161,-25.07 1150.54,-23.41 1151.79,-30.3"/>
</g>
<!-- Node11 -->
<g id="node11" class="node">
<title>Node11</title>
<g id="a_node11"><a xlink:title=" ">
<polygon fill="white" stroke="#bfbfbf" points="1295.5,-6 1295.5,-25 1457.5,-25 1457.5,-6 1295.5,-6"/>
<text text-anchor="middle" x="1376.5" y="-13" font-family="Helvetica,sans-Serif" font-size="10.00">stk_mesh/base/MetaData.hpp</text>
</a>
</g>
</g>
<!-- Node1&#45;&gt;Node11 -->
<g id="edge10" class="edge">
<title>Node1&#45;&gt;Node11</title>
<path fill="none" stroke="midnightblue" d="M922.92,-68.97C1013.38,-61.17 1160.27,-47.48 1286.5,-31 1296.39,-29.71 1306.86,-28.18 1317.03,-26.6"/>
<polygon fill="midnightblue" stroke="midnightblue" points="1317.73,-30.03 1327.06,-25.01 1316.64,-23.11 1317.73,-30.03"/>
</g>
<!-- Node12 -->
<g id="node12" class="node">
<title>Node12</title>
<g id="a_node12"><a xlink:title=" ">
<polygon fill="white" stroke="#bfbfbf" points="1476,-6 1476,-25 1613,-25 1613,-6 1476,-6"/>
<text text-anchor="middle" x="1544.5" y="-13" font-family="Helvetica,sans-Serif" font-size="10.00">stk_mesh/base/Field.hpp</text>
</a>
</g>
</g>
<!-- Node1&#45;&gt;Node12 -->
<g id="edge11" class="edge">
<title>Node1&#45;&gt;Node12</title>
<path fill="none" stroke="midnightblue" d="M922.75,-72.94C1043.98,-67.9 1272.94,-55.84 1466.5,-31 1475.23,-29.88 1484.47,-28.41 1493.42,-26.85"/>
<polygon fill="midnightblue" stroke="midnightblue" points="1494.13,-30.27 1503.35,-25.04 1492.88,-23.39 1494.13,-30.27"/>
</g>
</g>
</svg>
