<?xml version="1.0" encoding="UTF-8" standalone="no"?>
<!DOCTYPE svg PUBLIC "-//W3C//DTD SVG 1.1//EN"
 "http://www.w3.org/Graphics/SVG/1.1/DTD/svg11.dtd">
<!-- Generated by graphviz version 2.43.0 (0)
 -->
<!-- Title: ScalarMassBDFNodeKernel.C Pages: 1 -->
<svg width="859pt" height="95pt"
 viewBox="0.00 0.00 858.50 95.00" xmlns="http://www.w3.org/2000/svg" xmlns:xlink="http://www.w3.org/1999/xlink">
<g id="graph0" class="graph" transform="scale(1 1) rotate(0) translate(4 91)">
<title>ScalarMassBDFNodeKernel.C</title>
<polygon fill="white" stroke="transparent" points="-4,4 -4,-91 854.5,-91 854.5,4 -4,4"/>
<!-- Node1 -->
<g id="node1" class="node">
<title>Node1</title>
<g id="a_node1"><a xlink:title=" ">
<polygon fill="#bfbfbf" stroke="black" points="365.5,-67.5 365.5,-86.5 523.5,-86.5 523.5,-67.5 365.5,-67.5"/>
<text text-anchor="middle" x="444.5" y="-74.5" font-family="Helvetica,sans-Serif" font-size="10.00">ScalarMassBDFNodeKernel.C</text>
</a>
</g>
</g>
<!-- Node2 -->
<g id="node2" class="node">
<title>Node2</title>
<g id="a_node2"><a xlink:title=" ">
<polygon fill="white" stroke="#bfbfbf" points="0,-0.5 0,-30.5 185,-30.5 185,-0.5 0,-0.5"/>
<text text-anchor="start" x="8" y="-18.5" font-family="Helvetica,sans-Serif" font-size="10.00">node_kernels/ScalarMassBDFNode</text>
<text text-anchor="middle" x="92.5" y="-7.5" font-family="Helvetica,sans-Serif" font-size="10.00">Kernel.h</text>
</a>
</g>
</g>
<!-- Node1&#45;&gt;Node2 -->
<g id="edge1" class="edge">
<title>Node1&#45;&gt;Node2</title>
<path fill="none" stroke="midnightblue" d="M394.07,-67.48C339.82,-58.31 252.37,-43.52 185.58,-32.23"/>
<polygon fill="midnightblue" stroke="midnightblue" points="185.9,-28.74 175.46,-30.52 184.74,-35.64 185.9,-28.74"/>
</g>
<!-- Node3 -->
<g id="node3" class="node">
<title>Node3</title>
<g id="a_node3"><a xlink:title=" ">
<polygon fill="white" stroke="#bfbfbf" points="203,-6 203,-25 260,-25 260,-6 203,-6"/>
<text text-anchor="middle" x="231.5" y="-13" font-family="Helvetica,sans-Serif" font-size="10.00">Realm.h</text>
</a>
</g>
</g>
<!-- Node1&#45;&gt;Node3 -->
<g id="edge2" class="edge">
<title>Node1&#45;&gt;Node3</title>
<path fill="none" stroke="midnightblue" d="M406.26,-67.48C370.57,-59.22 315.98,-45.79 269.5,-31 267.09,-30.23 264.6,-29.39 262.12,-28.52"/>
<polygon fill="midnightblue" stroke="midnightblue" points="263.25,-25.21 252.65,-25.06 260.84,-31.78 263.25,-25.21"/>
</g>
<!-- Node4 -->
<g id="node4" class="node">
<title>Node4</title>
<g id="a_node4"><a xlink:title=" ">
<polygon fill="white" stroke="#bfbfbf" points="278.5,-6 278.5,-25 440.5,-25 440.5,-6 278.5,-6"/>
<text text-anchor="middle" x="359.5" y="-13" font-family="Helvetica,sans-Serif" font-size="10.00">stk_mesh/base/MetaData.hpp</text>
</a>
</g>
</g>
<!-- Node1&#45;&gt;Node4 -->
<g id="edge3" class="edge">
<title>Node1&#45;&gt;Node4</title>
<path fill="none" stroke="midnightblue" d="M432.32,-67.48C418.69,-57.93 396.37,-42.31 380.03,-30.87"/>
<polygon fill="midnightblue" stroke="midnightblue" points="381.86,-27.88 371.66,-25.01 377.84,-33.61 381.86,-27.88"/>
</g>
<!-- Node5 -->
<g id="node5" class="node">
<title>Node5</title>
<g id="a_node5"><a xlink:title=" ">
<polygon fill="white" stroke="#bfbfbf" points="458.5,-6 458.5,-25 600.5,-25 600.5,-6 458.5,-6"/>
<text text-anchor="middle" x="529.5" y="-13" font-family="Helvetica,sans-Serif" font-size="10.00">stk_mesh/base/Types.hpp</text>
</a>
</g>
</g>
<!-- Node1&#45;&gt;Node5 -->
<g id="edge4" class="edge">
<title>Node1&#45;&gt;Node5</title>
<path fill="none" stroke="midnightblue" d="M456.68,-67.48C470.31,-57.93 492.63,-42.31 508.97,-30.87"/>
<polygon fill="midnightblue" stroke="midnightblue" points="511.16,-33.61 517.34,-25.01 507.14,-27.88 511.16,-33.61"/>
</g>
<!-- Node6 -->
<g id="node6" class="node">
<title>Node6</title>
<g id="a_node6"><a xlink:title=" ">
<polygon fill="white" stroke="#bfbfbf" points="619,-6 619,-25 722,-25 722,-6 619,-6"/>
<text text-anchor="middle" x="670.5" y="-13" font-family="Helvetica,sans-Serif" font-size="10.00">utils/StkHelpers.h</text>
</a>
</g>
</g>
<!-- Node1&#45;&gt;Node6 -->
<g id="edge5" class="edge">
<title>Node1&#45;&gt;Node6</title>
<path fill="none" stroke="midnightblue" d="M476.88,-67.48C516.74,-56.98 584.52,-39.14 628.39,-27.59"/>
<polygon fill="midnightblue" stroke="midnightblue" points="629.4,-30.94 638.18,-25.01 627.62,-24.17 629.4,-30.94"/>
</g>
<!-- Node7 -->
<g id="node7" class="node">
<title>Node7</title>
<g id="a_node7"><a xlink:title=" ">
<polygon fill="white" stroke="#bfbfbf" points="740.5,-6 740.5,-25 850.5,-25 850.5,-6 740.5,-6"/>
<text text-anchor="middle" x="795.5" y="-13" font-family="Helvetica,sans-Serif" font-size="10.00">utils/FieldHelpers.h</text>
</a>
</g>
</g>
<!-- Node1&#45;&gt;Node7 -->
<g id="edge6" class="edge">
<title>Node1&#45;&gt;Node7</title>
<path fill="none" stroke="midnightblue" d="M506.57,-67.5C564.84,-59.23 654.35,-45.77 731.5,-31 737.38,-29.87 743.54,-28.6 749.62,-27.29"/>
<polygon fill="midnightblue" stroke="midnightblue" points="750.7,-30.63 759.71,-25.06 749.19,-23.8 750.7,-30.63"/>
</g>
</g>
</svg>
