<?xml version="1.0" encoding="UTF-8" standalone="no"?>
<!DOCTYPE svg PUBLIC "-//W3C//DTD SVG 1.1//EN"
 "http://www.w3.org/Graphics/SVG/1.1/DTD/svg11.dtd">
<!-- Generated by graphviz version 2.43.0 (0)
 -->
<!-- Title: ScalarFaceFluxBCElemKernel.C Pages: 1 -->
<svg width="1067pt" height="95pt"
 viewBox="0.00 0.00 1067.00 95.00" xmlns="http://www.w3.org/2000/svg" xmlns:xlink="http://www.w3.org/1999/xlink">
<g id="graph0" class="graph" transform="scale(1 1) rotate(0) translate(4 91)">
<title>ScalarFaceFluxBCElemKernel.C</title>
<polygon fill="white" stroke="transparent" points="-4,4 -4,-91 1063,-91 1063,4 -4,4"/>
<!-- Node1 -->
<g id="node1" class="node">
<title>Node1</title>
<g id="a_node1"><a xlink:title=" ">
<polygon fill="#bfbfbf" stroke="black" points="539.5,-67.5 539.5,-86.5 707.5,-86.5 707.5,-67.5 539.5,-67.5"/>
<text text-anchor="middle" x="623.5" y="-74.5" font-family="Helvetica,sans-Serif" font-size="10.00">ScalarFaceFluxBCElemKernel.C</text>
</a>
</g>
</g>
<!-- Node2 -->
<g id="node2" class="node">
<title>Node2</title>
<g id="a_node2"><a xlink:title=" ">
<polygon fill="white" stroke="#bfbfbf" points="0,-0.5 0,-30.5 161,-30.5 161,-0.5 0,-0.5"/>
<text text-anchor="start" x="8" y="-18.5" font-family="Helvetica,sans-Serif" font-size="10.00">kernel/ScalarFaceFluxBCElem</text>
<text text-anchor="middle" x="80.5" y="-7.5" font-family="Helvetica,sans-Serif" font-size="10.00">Kernel.h</text>
</a>
</g>
</g>
<!-- Node1&#45;&gt;Node2 -->
<g id="edge1" class="edge">
<title>Node1&#45;&gt;Node2</title>
<path fill="none" stroke="midnightblue" d="M539.23,-69.24C450.17,-61.73 305.38,-48.5 171.5,-31.22"/>
<polygon fill="midnightblue" stroke="midnightblue" points="171.84,-27.73 161.47,-29.91 170.94,-34.67 171.84,-27.73"/>
</g>
<!-- Node3 -->
<g id="node3" class="node">
<title>Node3</title>
<g id="a_node3"><a xlink:title=" ">
<polygon fill="white" stroke="#bfbfbf" points="179,-6 179,-25 362,-25 362,-6 179,-6"/>
<text text-anchor="middle" x="270.5" y="-13" font-family="Helvetica,sans-Serif" font-size="10.00">master_element/MasterElement.h</text>
</a>
</g>
</g>
<!-- Node1&#45;&gt;Node3 -->
<g id="edge2" class="edge">
<title>Node1&#45;&gt;Node3</title>
<path fill="none" stroke="midnightblue" d="M572.92,-67.48C509.1,-56.72 399.42,-38.23 331.16,-26.72"/>
<polygon fill="midnightblue" stroke="midnightblue" points="331.43,-23.22 320.98,-25.01 330.26,-30.12 331.43,-23.22"/>
</g>
<!-- Node4 -->
<g id="node4" class="node">
<title>Node4</title>
<g id="a_node4"><a xlink:title=" ">
<polygon fill="white" stroke="#bfbfbf" points="380.5,-0.5 380.5,-30.5 554.5,-30.5 554.5,-0.5 380.5,-0.5"/>
<text text-anchor="start" x="388.5" y="-18.5" font-family="Helvetica,sans-Serif" font-size="10.00">master_element/MasterElement</text>
<text text-anchor="middle" x="467.5" y="-7.5" font-family="Helvetica,sans-Serif" font-size="10.00">Repo.h</text>
</a>
</g>
</g>
<!-- Node1&#45;&gt;Node4 -->
<g id="edge3" class="edge">
<title>Node1&#45;&gt;Node4</title>
<path fill="none" stroke="midnightblue" d="M601.15,-67.48C578.44,-58.81 542.6,-45.15 513.75,-34.14"/>
<polygon fill="midnightblue" stroke="midnightblue" points="514.86,-30.82 504.27,-30.52 512.36,-37.36 514.86,-30.82"/>
</g>
<!-- Node5 -->
<g id="node5" class="node">
<title>Node5</title>
<g id="a_node5"><a xlink:title=" ">
<polygon fill="white" stroke="#bfbfbf" points="573,-6 573,-25 674,-25 674,-6 573,-6"/>
<text text-anchor="middle" x="623.5" y="-13" font-family="Helvetica,sans-Serif" font-size="10.00">BuildTemplates.h</text>
</a>
</g>
</g>
<!-- Node1&#45;&gt;Node5 -->
<g id="edge4" class="edge">
<title>Node1&#45;&gt;Node5</title>
<path fill="none" stroke="midnightblue" d="M623.5,-67.48C623.5,-59.08 623.5,-45.98 623.5,-35.16"/>
<polygon fill="midnightblue" stroke="midnightblue" points="627,-35.01 623.5,-25.01 620,-35.01 627,-35.01"/>
</g>
<!-- Node6 -->
<g id="node6" class="node">
<title>Node6</title>
<g id="a_node6"><a xlink:title=" ">
<polygon fill="white" stroke="#bfbfbf" points="692,-6 692,-25 783,-25 783,-6 692,-6"/>
<text text-anchor="middle" x="737.5" y="-13" font-family="Helvetica,sans-Serif" font-size="10.00">ScratchViews.h</text>
</a>
</g>
</g>
<!-- Node1&#45;&gt;Node6 -->
<g id="edge5" class="edge">
<title>Node1&#45;&gt;Node6</title>
<path fill="none" stroke="midnightblue" d="M639.83,-67.48C658.71,-57.62 690.01,-41.29 712.08,-29.77"/>
<polygon fill="midnightblue" stroke="midnightblue" points="713.95,-32.74 721.2,-25.01 710.71,-26.53 713.95,-32.74"/>
</g>
<!-- Node7 -->
<g id="node7" class="node">
<title>Node7</title>
<g id="a_node7"><a xlink:title=" ">
<polygon fill="white" stroke="#bfbfbf" points="801,-6 801,-25 904,-25 904,-6 801,-6"/>
<text text-anchor="middle" x="852.5" y="-13" font-family="Helvetica,sans-Serif" font-size="10.00">utils/StkHelpers.h</text>
</a>
</g>
</g>
<!-- Node1&#45;&gt;Node7 -->
<g id="edge6" class="edge">
<title>Node1&#45;&gt;Node7</title>
<path fill="none" stroke="midnightblue" d="M656.31,-67.48C696.7,-56.98 765.38,-39.14 809.83,-27.59"/>
<polygon fill="midnightblue" stroke="midnightblue" points="810.95,-30.91 819.75,-25.01 809.19,-24.14 810.95,-30.91"/>
</g>
<!-- Node8 -->
<g id="node8" class="node">
<title>Node8</title>
<g id="a_node8"><a xlink:title=" ">
<polygon fill="white" stroke="#bfbfbf" points="922,-6 922,-25 1059,-25 1059,-6 922,-6"/>
<text text-anchor="middle" x="990.5" y="-13" font-family="Helvetica,sans-Serif" font-size="10.00">stk_mesh/base/Field.hpp</text>
</a>
</g>
</g>
<!-- Node1&#45;&gt;Node8 -->
<g id="edge7" class="edge">
<title>Node1&#45;&gt;Node8</title>
<path fill="none" stroke="midnightblue" d="M682.19,-67.46C740.83,-58.79 833.53,-44.73 913.5,-31 920.96,-29.72 928.81,-28.31 936.53,-26.89"/>
<polygon fill="midnightblue" stroke="midnightblue" points="937.38,-30.29 946.57,-25.03 936.1,-23.41 937.38,-30.29"/>
</g>
</g>
</svg>
