<?xml version="1.0" encoding="UTF-8" standalone="no"?>
<!DOCTYPE svg PUBLIC "-//W3C//DTD SVG 1.1//EN"
 "http://www.w3.org/Graphics/SVG/1.1/DTD/svg11.dtd">
<!-- Generated by graphviz version 2.43.0 (0)
 -->
<!-- Title: ScalarGclNodeKernel.C Pages: 1 -->
<svg width="700pt" height="95pt"
 viewBox="0.00 0.00 700.00 95.00" xmlns="http://www.w3.org/2000/svg" xmlns:xlink="http://www.w3.org/1999/xlink">
<g id="graph0" class="graph" transform="scale(1 1) rotate(0) translate(4 91)">
<title>ScalarGclNodeKernel.C</title>
<polygon fill="white" stroke="transparent" points="-4,4 -4,-91 696,-91 696,4 -4,4"/>
<!-- Node1 -->
<g id="node1" class="node">
<title>Node1</title>
<g id="a_node1"><a xlink:title=" ">
<polygon fill="#bfbfbf" stroke="black" points="265.5,-67.5 265.5,-86.5 393.5,-86.5 393.5,-67.5 265.5,-67.5"/>
<text text-anchor="middle" x="329.5" y="-74.5" font-family="Helvetica,sans-Serif" font-size="10.00">ScalarGclNodeKernel.C</text>
</a>
</g>
</g>
<!-- Node2 -->
<g id="node2" class="node">
<title>Node2</title>
<g id="a_node2"><a xlink:title=" ">
<polygon fill="white" stroke="#bfbfbf" points="0,-0.5 0,-30.5 155,-30.5 155,-0.5 0,-0.5"/>
<text text-anchor="start" x="8" y="-18.5" font-family="Helvetica,sans-Serif" font-size="10.00">node_kernels/ScalarGclNode</text>
<text text-anchor="middle" x="77.5" y="-7.5" font-family="Helvetica,sans-Serif" font-size="10.00">Kernel.h</text>
</a>
</g>
</g>
<!-- Node1&#45;&gt;Node2 -->
<g id="edge1" class="edge">
<title>Node1&#45;&gt;Node2</title>
<path fill="none" stroke="midnightblue" d="M293.39,-67.48C255.28,-58.48 194.26,-44.07 146.8,-32.86"/>
<polygon fill="midnightblue" stroke="midnightblue" points="147.43,-29.41 136.89,-30.52 145.82,-36.23 147.43,-29.41"/>
</g>
<!-- Node3 -->
<g id="node3" class="node">
<title>Node3</title>
<g id="a_node3"><a xlink:title=" ">
<polygon fill="white" stroke="#bfbfbf" points="173,-6 173,-25 230,-25 230,-6 173,-6"/>
<text text-anchor="middle" x="201.5" y="-13" font-family="Helvetica,sans-Serif" font-size="10.00">Realm.h</text>
</a>
</g>
</g>
<!-- Node1&#45;&gt;Node3 -->
<g id="edge2" class="edge">
<title>Node1&#45;&gt;Node3</title>
<path fill="none" stroke="midnightblue" d="M311.16,-67.48C289.68,-57.49 253.88,-40.85 229.05,-29.31"/>
<polygon fill="midnightblue" stroke="midnightblue" points="230.35,-26.05 219.81,-25.01 227.4,-32.4 230.35,-26.05"/>
</g>
<!-- Node4 -->
<g id="node4" class="node">
<title>Node4</title>
<g id="a_node4"><a xlink:title=" ">
<polygon fill="white" stroke="#bfbfbf" points="248.5,-6 248.5,-25 410.5,-25 410.5,-6 248.5,-6"/>
<text text-anchor="middle" x="329.5" y="-13" font-family="Helvetica,sans-Serif" font-size="10.00">stk_mesh/base/MetaData.hpp</text>
</a>
</g>
</g>
<!-- Node1&#45;&gt;Node4 -->
<g id="edge3" class="edge">
<title>Node1&#45;&gt;Node4</title>
<path fill="none" stroke="midnightblue" d="M329.5,-67.48C329.5,-59.08 329.5,-45.98 329.5,-35.16"/>
<polygon fill="midnightblue" stroke="midnightblue" points="333,-35.01 329.5,-25.01 326,-35.01 333,-35.01"/>
</g>
<!-- Node5 -->
<g id="node5" class="node">
<title>Node5</title>
<g id="a_node5"><a xlink:title=" ">
<polygon fill="white" stroke="#bfbfbf" points="428.5,-6 428.5,-25 570.5,-25 570.5,-6 428.5,-6"/>
<text text-anchor="middle" x="499.5" y="-13" font-family="Helvetica,sans-Serif" font-size="10.00">stk_mesh/base/Types.hpp</text>
</a>
</g>
</g>
<!-- Node1&#45;&gt;Node5 -->
<g id="edge4" class="edge">
<title>Node1&#45;&gt;Node5</title>
<path fill="none" stroke="midnightblue" d="M353.86,-67.48C383.14,-57.22 432.47,-39.96 465.5,-28.4"/>
<polygon fill="midnightblue" stroke="midnightblue" points="466.91,-31.62 475.19,-25.01 464.59,-25.01 466.91,-31.62"/>
</g>
<!-- Node6 -->
<g id="node6" class="node">
<title>Node6</title>
<g id="a_node6"><a xlink:title=" ">
<polygon fill="white" stroke="#bfbfbf" points="589,-6 589,-25 692,-25 692,-6 589,-6"/>
<text text-anchor="middle" x="640.5" y="-13" font-family="Helvetica,sans-Serif" font-size="10.00">utils/StkHelpers.h</text>
</a>
</g>
</g>
<!-- Node1&#45;&gt;Node6 -->
<g id="edge5" class="edge">
<title>Node1&#45;&gt;Node6</title>
<path fill="none" stroke="midnightblue" d="M381.85,-67.44C432.55,-58.95 511.51,-45.19 579.5,-31 584.89,-29.87 590.54,-28.63 596.13,-27.35"/>
<polygon fill="midnightblue" stroke="midnightblue" points="597.11,-30.71 606.06,-25.04 595.52,-23.9 597.11,-30.71"/>
</g>
</g>
</svg>
