<?xml version="1.0" encoding="UTF-8" standalone="no"?>
<!DOCTYPE svg PUBLIC "-//W3C//DTD SVG 1.1//EN"
 "http://www.w3.org/Graphics/SVG/1.1/DTD/svg11.dtd">
<!-- Generated by graphviz version 2.43.0 (0)
 -->
<!-- Title: ScalarOpenEdgeKernel.C Pages: 1 -->
<svg width="1037pt" height="95pt"
 viewBox="0.00 0.00 1036.50 95.00" xmlns="http://www.w3.org/2000/svg" xmlns:xlink="http://www.w3.org/1999/xlink">
<g id="graph0" class="graph" transform="scale(1 1) rotate(0) translate(4 91)">
<title>ScalarOpenEdgeKernel.C</title>
<polygon fill="white" stroke="transparent" points="-4,4 -4,-91 1032.5,-91 1032.5,4 -4,4"/>
<!-- Node1 -->
<g id="node1" class="node">
<title>Node1</title>
<g id="a_node1"><a xlink:title=" ">
<polygon fill="#bfbfbf" stroke="black" points="559.5,-67.5 559.5,-86.5 696.5,-86.5 696.5,-67.5 559.5,-67.5"/>
<text text-anchor="middle" x="628" y="-74.5" font-family="Helvetica,sans-Serif" font-size="10.00">ScalarOpenEdgeKernel.C</text>
</a>
</g>
</g>
<!-- Node2 -->
<g id="node2" class="node">
<title>Node2</title>
<g id="a_node2"><a xlink:title=" ">
<polygon fill="white" stroke="#bfbfbf" points="0,-0.5 0,-30.5 164,-30.5 164,-0.5 0,-0.5"/>
<text text-anchor="start" x="8" y="-18.5" font-family="Helvetica,sans-Serif" font-size="10.00">edge_kernels/ScalarOpenEdge</text>
<text text-anchor="middle" x="82" y="-7.5" font-family="Helvetica,sans-Serif" font-size="10.00">Kernel.h</text>
</a>
</g>
</g>
<!-- Node1&#45;&gt;Node2 -->
<g id="edge1" class="edge">
<title>Node1&#45;&gt;Node2</title>
<path fill="none" stroke="midnightblue" d="M559.25,-70.48C472.12,-63.2 317.07,-49.29 174.55,-31.15"/>
<polygon fill="midnightblue" stroke="midnightblue" points="174.67,-27.64 164.31,-29.84 173.78,-34.58 174.67,-27.64"/>
</g>
<!-- Node3 -->
<g id="node3" class="node">
<title>Node3</title>
<g id="a_node3"><a xlink:title=" ">
<polygon fill="white" stroke="#bfbfbf" points="182.5,-6 182.5,-25 365.5,-25 365.5,-6 182.5,-6"/>
<text text-anchor="middle" x="274" y="-13" font-family="Helvetica,sans-Serif" font-size="10.00">master_element/MasterElement.h</text>
</a>
</g>
</g>
<!-- Node1&#45;&gt;Node3 -->
<g id="edge2" class="edge">
<title>Node1&#45;&gt;Node3</title>
<path fill="none" stroke="midnightblue" d="M577.28,-67.48C513.27,-56.72 403.29,-38.23 334.83,-26.72"/>
<polygon fill="midnightblue" stroke="midnightblue" points="335.07,-23.22 324.63,-25.01 333.91,-30.12 335.07,-23.22"/>
</g>
<!-- Node4 -->
<g id="node4" class="node">
<title>Node4</title>
<g id="a_node4"><a xlink:title=" ">
<polygon fill="white" stroke="#bfbfbf" points="384,-0.5 384,-30.5 558,-30.5 558,-0.5 384,-0.5"/>
<text text-anchor="start" x="392" y="-18.5" font-family="Helvetica,sans-Serif" font-size="10.00">master_element/MasterElement</text>
<text text-anchor="middle" x="471" y="-7.5" font-family="Helvetica,sans-Serif" font-size="10.00">Repo.h</text>
</a>
</g>
</g>
<!-- Node1&#45;&gt;Node4 -->
<g id="edge3" class="edge">
<title>Node1&#45;&gt;Node4</title>
<path fill="none" stroke="midnightblue" d="M605.51,-67.48C582.65,-58.81 546.59,-45.15 517.55,-34.14"/>
<polygon fill="midnightblue" stroke="midnightblue" points="518.59,-30.79 508,-30.52 516.11,-37.34 518.59,-30.79"/>
</g>
<!-- Node5 -->
<g id="node5" class="node">
<title>Node5</title>
<g id="a_node5"><a xlink:title=" ">
<polygon fill="white" stroke="#bfbfbf" points="576.5,-6 576.5,-25 679.5,-25 679.5,-6 576.5,-6"/>
<text text-anchor="middle" x="628" y="-13" font-family="Helvetica,sans-Serif" font-size="10.00">SolutionOptions.h</text>
</a>
</g>
</g>
<!-- Node1&#45;&gt;Node5 -->
<g id="edge4" class="edge">
<title>Node1&#45;&gt;Node5</title>
<path fill="none" stroke="midnightblue" d="M628,-67.48C628,-59.08 628,-45.98 628,-35.16"/>
<polygon fill="midnightblue" stroke="midnightblue" points="631.5,-35.01 628,-25.01 624.5,-35.01 631.5,-35.01"/>
</g>
<!-- Node6 -->
<g id="node6" class="node">
<title>Node6</title>
<g id="a_node6"><a xlink:title=" ">
<polygon fill="white" stroke="#bfbfbf" points="697.5,-6 697.5,-25 798.5,-25 798.5,-6 697.5,-6"/>
<text text-anchor="middle" x="748" y="-13" font-family="Helvetica,sans-Serif" font-size="10.00">BuildTemplates.h</text>
</a>
</g>
</g>
<!-- Node1&#45;&gt;Node6 -->
<g id="edge5" class="edge">
<title>Node1&#45;&gt;Node6</title>
<path fill="none" stroke="midnightblue" d="M645.19,-67.48C665.24,-57.53 698.6,-40.99 721.86,-29.46"/>
<polygon fill="midnightblue" stroke="midnightblue" points="723.43,-32.59 730.84,-25.01 720.32,-26.32 723.43,-32.59"/>
</g>
<!-- Node7 -->
<g id="node7" class="node">
<title>Node7</title>
<g id="a_node7"><a xlink:title=" ">
<polygon fill="white" stroke="#bfbfbf" points="816.5,-6 816.5,-25 907.5,-25 907.5,-6 816.5,-6"/>
<text text-anchor="middle" x="862" y="-13" font-family="Helvetica,sans-Serif" font-size="10.00">ScratchViews.h</text>
</a>
</g>
</g>
<!-- Node1&#45;&gt;Node7 -->
<g id="edge6" class="edge">
<title>Node1&#45;&gt;Node7</title>
<path fill="none" stroke="midnightblue" d="M662.89,-67.47C699.19,-58.55 757.64,-44.05 808,-31 812.12,-29.93 816.42,-28.8 820.71,-27.67"/>
<polygon fill="midnightblue" stroke="midnightblue" points="821.85,-30.98 830.61,-25.03 820.05,-24.22 821.85,-30.98"/>
</g>
<!-- Node8 -->
<g id="node8" class="node">
<title>Node8</title>
<g id="a_node8"><a xlink:title=" ">
<polygon fill="white" stroke="#bfbfbf" points="925.5,-6 925.5,-25 1028.5,-25 1028.5,-6 925.5,-6"/>
<text text-anchor="middle" x="977" y="-13" font-family="Helvetica,sans-Serif" font-size="10.00">utils/StkHelpers.h</text>
</a>
</g>
</g>
<!-- Node1&#45;&gt;Node8 -->
<g id="edge7" class="edge">
<title>Node1&#45;&gt;Node8</title>
<path fill="none" stroke="midnightblue" d="M692.83,-67.47C751.58,-59.36 840.42,-46.19 917,-31 922.45,-29.92 928.16,-28.68 933.79,-27.39"/>
<polygon fill="midnightblue" stroke="midnightblue" points="934.85,-30.74 943.78,-25.04 933.25,-23.92 934.85,-30.74"/>
</g>
</g>
</svg>
