<?xml version="1.0" encoding="UTF-8" standalone="no"?>
<!DOCTYPE svg PUBLIC "-//W3C//DTD SVG 1.1//EN"
 "http://www.w3.org/Graphics/SVG/1.1/DTD/svg11.dtd">
<!-- Generated by graphviz version 2.43.0 (0)
 -->
<!-- Title: ScalarFluxBC.C Pages: 1 -->
<svg width="1709pt" height="95pt"
 viewBox="0.00 0.00 1709.00 95.00" xmlns="http://www.w3.org/2000/svg" xmlns:xlink="http://www.w3.org/1999/xlink">
<g id="graph0" class="graph" transform="scale(1 1) rotate(0) translate(4 91)">
<title>ScalarFluxBC.C</title>
<polygon fill="white" stroke="transparent" points="-4,4 -4,-91 1705,-91 1705,4 -4,4"/>
<!-- Node1 -->
<g id="node1" class="node">
<title>Node1</title>
<g id="a_node1"><a xlink:title=" ">
<polygon fill="#bfbfbf" stroke="black" points="902.5,-67.5 902.5,-86.5 993.5,-86.5 993.5,-67.5 902.5,-67.5"/>
<text text-anchor="middle" x="948" y="-74.5" font-family="Helvetica,sans-Serif" font-size="10.00">ScalarFluxBC.C</text>
</a>
</g>
</g>
<!-- Node2 -->
<g id="node2" class="node">
<title>Node2</title>
<g id="a_node2"><a xlink:title=" ">
<polygon fill="white" stroke="#bfbfbf" points="0,-6 0,-25 150,-25 150,-6 0,-6"/>
<text text-anchor="middle" x="75" y="-13" font-family="Helvetica,sans-Serif" font-size="10.00">matrix_free/ScalarFluxBC.h</text>
</a>
</g>
</g>
<!-- Node1&#45;&gt;Node2 -->
<g id="edge1" class="edge">
<title>Node1&#45;&gt;Node2</title>
<path fill="none" stroke="midnightblue" d="M902.48,-75.22C781.23,-72.74 440.48,-63.22 159,-31 149.29,-29.89 139,-28.39 129.07,-26.77"/>
<polygon fill="midnightblue" stroke="midnightblue" points="129.34,-23.26 118.9,-25.05 128.17,-30.16 129.34,-23.26"/>
</g>
<!-- Node3 -->
<g id="node3" class="node">
<title>Node3</title>
<g id="a_node3"><a xlink:title=" ">
<polygon fill="white" stroke="#bfbfbf" points="168.5,-6 168.5,-25 311.5,-25 311.5,-6 168.5,-6"/>
<text text-anchor="middle" x="240" y="-13" font-family="Helvetica,sans-Serif" font-size="10.00">matrix_free/Coefficients.h</text>
</a>
</g>
</g>
<!-- Node1&#45;&gt;Node3 -->
<g id="edge2" class="edge">
<title>Node1&#45;&gt;Node3</title>
<path fill="none" stroke="midnightblue" d="M902.13,-74.41C798.19,-70.43 536.9,-58.35 320,-31 310.95,-29.86 301.37,-28.37 292.11,-26.78"/>
<polygon fill="midnightblue" stroke="midnightblue" points="292.67,-23.33 282.22,-25.03 291.45,-30.22 292.67,-23.33"/>
</g>
<!-- Node4 -->
<g id="node4" class="node">
<title>Node4</title>
<g id="a_node4"><a xlink:title=" ">
<polygon fill="white" stroke="#bfbfbf" points="329.5,-6 329.5,-25 502.5,-25 502.5,-6 329.5,-6"/>
<text text-anchor="middle" x="416" y="-13" font-family="Helvetica,sans-Serif" font-size="10.00">matrix_free/PolynomialOrders.h</text>
</a>
</g>
</g>
<!-- Node1&#45;&gt;Node4 -->
<g id="edge3" class="edge">
<title>Node1&#45;&gt;Node4</title>
<path fill="none" stroke="midnightblue" d="M902.3,-72.04C822.69,-64.96 653.42,-49.19 511,-31 500.59,-29.67 489.56,-28.12 478.85,-26.53"/>
<polygon fill="midnightblue" stroke="midnightblue" points="479.11,-23.03 468.7,-25.01 478.07,-29.96 479.11,-23.03"/>
</g>
<!-- Node5 -->
<g id="node5" class="node">
<title>Node5</title>
<g id="a_node5"><a xlink:title=" ">
<polygon fill="white" stroke="#bfbfbf" points="520.5,-6 520.5,-25 687.5,-25 687.5,-6 520.5,-6"/>
<text text-anchor="middle" x="604" y="-13" font-family="Helvetica,sans-Serif" font-size="10.00">matrix_free/ValidSimdLength.h</text>
</a>
</g>
</g>
<!-- Node1&#45;&gt;Node5 -->
<g id="edge4" class="edge">
<title>Node1&#45;&gt;Node5</title>
<path fill="none" stroke="midnightblue" d="M902.32,-68.1C840.78,-57.45 731.16,-38.49 663.32,-26.76"/>
<polygon fill="midnightblue" stroke="midnightblue" points="663.66,-23.27 653.21,-25.01 662.47,-30.16 663.66,-23.27"/>
</g>
<!-- Node6 -->
<g id="node6" class="node">
<title>Node6</title>
<g id="a_node6"><a xlink:title=" ">
<polygon fill="white" stroke="#bfbfbf" points="706,-6 706,-25 878,-25 878,-6 706,-6"/>
<text text-anchor="middle" x="792" y="-13" font-family="Helvetica,sans-Serif" font-size="10.00">matrix_free/KokkosViewTypes.h</text>
</a>
</g>
</g>
<!-- Node1&#45;&gt;Node6 -->
<g id="edge5" class="edge">
<title>Node1&#45;&gt;Node6</title>
<path fill="none" stroke="midnightblue" d="M925.65,-67.48C899.01,-57.31 854.29,-40.26 823.99,-28.7"/>
<polygon fill="midnightblue" stroke="midnightblue" points="824.9,-25.3 814.31,-25.01 822.41,-31.84 824.9,-25.3"/>
</g>
<!-- Node7 -->
<g id="node7" class="node">
<title>Node7</title>
<g id="a_node7"><a xlink:title=" ">
<polygon fill="white" stroke="#bfbfbf" points="896,-6 896,-25 1000,-25 1000,-6 896,-6"/>
<text text-anchor="middle" x="948" y="-13" font-family="Helvetica,sans-Serif" font-size="10.00">KokkosInterface.h</text>
</a>
</g>
</g>
<!-- Node1&#45;&gt;Node7 -->
<g id="edge6" class="edge">
<title>Node1&#45;&gt;Node7</title>
<path fill="none" stroke="midnightblue" d="M948,-67.48C948,-59.08 948,-45.98 948,-35.16"/>
<polygon fill="midnightblue" stroke="midnightblue" points="951.5,-35.01 948,-25.01 944.5,-35.01 951.5,-35.01"/>
</g>
<!-- Node8 -->
<g id="node8" class="node">
<title>Node8</title>
<g id="a_node8"><a xlink:title=" ">
<polygon fill="white" stroke="#bfbfbf" points="1018.5,-6 1018.5,-25 1153.5,-25 1153.5,-6 1018.5,-6"/>
<text text-anchor="middle" x="1086" y="-13" font-family="Helvetica,sans-Serif" font-size="10.00">Kokkos_ScatterView.hpp</text>
</a>
</g>
</g>
<!-- Node1&#45;&gt;Node8 -->
<g id="edge7" class="edge">
<title>Node1&#45;&gt;Node8</title>
<path fill="none" stroke="midnightblue" d="M967.77,-67.48C991.14,-57.4 1030.21,-40.55 1057,-29"/>
<polygon fill="midnightblue" stroke="midnightblue" points="1058.47,-32.18 1066.26,-25.01 1055.7,-25.75 1058.47,-32.18"/>
</g>
<!-- Node9 -->
<g id="node9" class="node">
<title>Node9</title>
<g id="a_node9"><a xlink:title=" ">
<polygon fill="white" stroke="#bfbfbf" points="1171.5,-6 1171.5,-25 1284.5,-25 1284.5,-6 1171.5,-6"/>
<text text-anchor="middle" x="1228" y="-13" font-family="Helvetica,sans-Serif" font-size="10.00">Kokkos_Macros.hpp</text>
</a>
</g>
</g>
<!-- Node1&#45;&gt;Node9 -->
<g id="edge8" class="edge">
<title>Node1&#45;&gt;Node9</title>
<path fill="none" stroke="midnightblue" d="M989.65,-67.45C1032.99,-58.52 1102.8,-44.01 1163,-31 1168.65,-29.78 1174.57,-28.48 1180.44,-27.19"/>
<polygon fill="midnightblue" stroke="midnightblue" points="1181.21,-30.6 1190.21,-25.02 1179.69,-23.77 1181.21,-30.6"/>
</g>
<!-- Node10 -->
<g id="node10" class="node">
<title>Node10</title>
<g id="a_node10"><a xlink:title=" ">
<polygon fill="white" stroke="#bfbfbf" points="1303,-6 1303,-25 1403,-25 1403,-6 1303,-6"/>
<text text-anchor="middle" x="1353" y="-13" font-family="Helvetica,sans-Serif" font-size="10.00">Teuchos_RCP.hpp</text>
</a>
</g>
</g>
<!-- Node1&#45;&gt;Node10 -->
<g id="edge9" class="edge">
<title>Node1&#45;&gt;Node10</title>
<path fill="none" stroke="midnightblue" d="M993.59,-71.71C1060.02,-65.09 1187.13,-51.02 1294,-31 1299.51,-29.97 1305.27,-28.74 1310.94,-27.44"/>
<polygon fill="midnightblue" stroke="midnightblue" points="1312.07,-30.77 1320.99,-25.06 1310.45,-23.96 1312.07,-30.77"/>
</g>
<!-- Node11 -->
<g id="node11" class="node">
<title>Node11</title>
<g id="a_node11"><a xlink:title=" ">
<polygon fill="white" stroke="#bfbfbf" points="1421,-0.5 1421,-30.5 1573,-30.5 1573,-0.5 1421,-0.5"/>
<text text-anchor="start" x="1429" y="-18.5" font-family="Helvetica,sans-Serif" font-size="10.00">stk_mesh/base/NgpProfiling</text>
<text text-anchor="middle" x="1497" y="-7.5" font-family="Helvetica,sans-Serif" font-size="10.00">Block.hpp</text>
</a>
</g>
</g>
<!-- Node1&#45;&gt;Node11 -->
<g id="edge10" class="edge">
<title>Node1&#45;&gt;Node11</title>
<path fill="none" stroke="midnightblue" d="M993.57,-72.68C1075.15,-66.5 1251.74,-52.03 1410.63,-31.13"/>
<polygon fill="midnightblue" stroke="midnightblue" points="1411.13,-34.59 1420.58,-29.8 1410.21,-27.65 1411.13,-34.59"/>
</g>
<!-- Node12 -->
<g id="node12" class="node">
<title>Node12</title>
<g id="a_node12"><a xlink:title=" ">
<polygon fill="white" stroke="#bfbfbf" points="1591,-6 1591,-25 1701,-25 1701,-6 1591,-6"/>
<text text-anchor="middle" x="1646" y="-13" font-family="Helvetica,sans-Serif" font-size="10.00">stk_simd/Simd.hpp</text>
</a>
</g>
</g>
<!-- Node1&#45;&gt;Node12 -->
<g id="edge11" class="edge">
<title>Node1&#45;&gt;Node12</title>
<path fill="none" stroke="midnightblue" d="M993.61,-75.14C1098.2,-72.64 1363.14,-63.37 1582,-31 1588.74,-30 1595.82,-28.68 1602.72,-27.24"/>
<polygon fill="midnightblue" stroke="midnightblue" points="1603.61,-30.63 1612.63,-25.07 1602.12,-23.79 1603.61,-30.63"/>
</g>
</g>
</svg>
