<?xml version="1.0" encoding="UTF-8" standalone="no"?>
<!DOCTYPE svg PUBLIC "-//W3C//DTD SVG 1.1//EN"
 "http://www.w3.org/Graphics/SVG/1.1/DTD/svg11.dtd">
<!-- Generated by graphviz version 2.43.0 (0)
 -->
<!-- Title: ScalarEdgeOpenSolverAlg.C Pages: 1 -->
<svg width="1192pt" height="95pt"
 viewBox="0.00 0.00 1191.50 95.00" xmlns="http://www.w3.org/2000/svg" xmlns:xlink="http://www.w3.org/1999/xlink">
<g id="graph0" class="graph" transform="scale(1 1) rotate(0) translate(4 91)">
<title>ScalarEdgeOpenSolverAlg.C</title>
<polygon fill="white" stroke="transparent" points="-4,4 -4,-91 1187.5,-91 1187.5,4 -4,4"/>
<!-- Node1 -->
<g id="node1" class="node">
<title>Node1</title>
<g id="a_node1"><a xlink:title=" ">
<polygon fill="#bfbfbf" stroke="black" points="612,-67.5 612,-86.5 764,-86.5 764,-67.5 612,-67.5"/>
<text text-anchor="middle" x="688" y="-74.5" font-family="Helvetica,sans-Serif" font-size="10.00">ScalarEdgeOpenSolverAlg.C</text>
</a>
</g>
</g>
<!-- Node2 -->
<g id="node2" class="node">
<title>Node2</title>
<g id="a_node2"><a xlink:title=" ">
<polygon fill="white" stroke="#bfbfbf" points="0,-0.5 0,-30.5 164,-30.5 164,-0.5 0,-0.5"/>
<text text-anchor="start" x="8" y="-18.5" font-family="Helvetica,sans-Serif" font-size="10.00">edge_kernels/ScalarEdgeOpen</text>
<text text-anchor="middle" x="82" y="-7.5" font-family="Helvetica,sans-Serif" font-size="10.00">SolverAlg.h</text>
</a>
</g>
</g>
<!-- Node1&#45;&gt;Node2 -->
<g id="edge1" class="edge">
<title>Node1&#45;&gt;Node2</title>
<path fill="none" stroke="midnightblue" d="M611.91,-71.04C513.32,-64.24 335.9,-50.72 174.42,-31.12"/>
<polygon fill="midnightblue" stroke="midnightblue" points="174.65,-27.62 164.3,-29.88 173.8,-34.57 174.65,-27.62"/>
</g>
<!-- Node3 -->
<g id="node3" class="node">
<title>Node3</title>
<g id="a_node3"><a xlink:title=" ">
<polygon fill="white" stroke="#bfbfbf" points="182.5,-6 182.5,-25 365.5,-25 365.5,-6 182.5,-6"/>
<text text-anchor="middle" x="274" y="-13" font-family="Helvetica,sans-Serif" font-size="10.00">master_element/MasterElement.h</text>
</a>
</g>
</g>
<!-- Node1&#45;&gt;Node3 -->
<g id="edge2" class="edge">
<title>Node1&#45;&gt;Node3</title>
<path fill="none" stroke="midnightblue" d="M628.68,-67.48C553.21,-56.63 423.08,-37.93 343.18,-26.44"/>
<polygon fill="midnightblue" stroke="midnightblue" points="343.6,-22.97 333.21,-25.01 342.61,-29.9 343.6,-22.97"/>
</g>
<!-- Node4 -->
<g id="node4" class="node">
<title>Node4</title>
<g id="a_node4"><a xlink:title=" ">
<polygon fill="white" stroke="#bfbfbf" points="384,-0.5 384,-30.5 558,-30.5 558,-0.5 384,-0.5"/>
<text text-anchor="start" x="392" y="-18.5" font-family="Helvetica,sans-Serif" font-size="10.00">master_element/MasterElement</text>
<text text-anchor="middle" x="471" y="-7.5" font-family="Helvetica,sans-Serif" font-size="10.00">Repo.h</text>
</a>
</g>
</g>
<!-- Node1&#45;&gt;Node4 -->
<g id="edge3" class="edge">
<title>Node1&#45;&gt;Node4</title>
<path fill="none" stroke="midnightblue" d="M656.91,-67.48C624.43,-58.57 572.64,-44.37 531.96,-33.22"/>
<polygon fill="midnightblue" stroke="midnightblue" points="532.71,-29.79 522.14,-30.52 530.86,-36.54 532.71,-29.79"/>
</g>
<!-- Node5 -->
<g id="node5" class="node">
<title>Node5</title>
<g id="a_node5"><a xlink:title=" ">
<polygon fill="white" stroke="#bfbfbf" points="576.5,-6 576.5,-25 679.5,-25 679.5,-6 576.5,-6"/>
<text text-anchor="middle" x="628" y="-13" font-family="Helvetica,sans-Serif" font-size="10.00">SolutionOptions.h</text>
</a>
</g>
</g>
<!-- Node1&#45;&gt;Node5 -->
<g id="edge4" class="edge">
<title>Node1&#45;&gt;Node5</title>
<path fill="none" stroke="midnightblue" d="M679.4,-67.48C670.14,-58.28 655.18,-43.46 643.79,-32.16"/>
<polygon fill="midnightblue" stroke="midnightblue" points="646.15,-29.57 636.58,-25.01 641.22,-34.54 646.15,-29.57"/>
</g>
<!-- Node6 -->
<g id="node6" class="node">
<title>Node6</title>
<g id="a_node6"><a xlink:title=" ">
<polygon fill="white" stroke="#bfbfbf" points="697.5,-6 697.5,-25 798.5,-25 798.5,-6 697.5,-6"/>
<text text-anchor="middle" x="748" y="-13" font-family="Helvetica,sans-Serif" font-size="10.00">BuildTemplates.h</text>
</a>
</g>
</g>
<!-- Node1&#45;&gt;Node6 -->
<g id="edge5" class="edge">
<title>Node1&#45;&gt;Node6</title>
<path fill="none" stroke="midnightblue" d="M696.6,-67.48C705.86,-58.28 720.82,-43.46 732.21,-32.16"/>
<polygon fill="midnightblue" stroke="midnightblue" points="734.78,-34.54 739.42,-25.01 729.85,-29.57 734.78,-34.54"/>
</g>
<!-- Node7 -->
<g id="node7" class="node">
<title>Node7</title>
<g id="a_node7"><a xlink:title=" ">
<polygon fill="white" stroke="#bfbfbf" points="816.5,-6 816.5,-25 907.5,-25 907.5,-6 816.5,-6"/>
<text text-anchor="middle" x="862" y="-13" font-family="Helvetica,sans-Serif" font-size="10.00">ScratchViews.h</text>
</a>
</g>
</g>
<!-- Node1&#45;&gt;Node7 -->
<g id="edge6" class="edge">
<title>Node1&#45;&gt;Node7</title>
<path fill="none" stroke="midnightblue" d="M712.93,-67.48C743.04,-57.18 793.83,-39.81 827.64,-28.25"/>
<polygon fill="midnightblue" stroke="midnightblue" points="828.79,-31.56 837.12,-25.01 826.52,-24.93 828.79,-31.56"/>
</g>
<!-- Node8 -->
<g id="node8" class="node">
<title>Node8</title>
<g id="a_node8"><a xlink:title=" ">
<polygon fill="white" stroke="#bfbfbf" points="925.5,-6 925.5,-25 1028.5,-25 1028.5,-6 925.5,-6"/>
<text text-anchor="middle" x="977" y="-13" font-family="Helvetica,sans-Serif" font-size="10.00">utils/StkHelpers.h</text>
</a>
</g>
</g>
<!-- Node1&#45;&gt;Node8 -->
<g id="edge7" class="edge">
<title>Node1&#45;&gt;Node8</title>
<path fill="none" stroke="midnightblue" d="M734.61,-67.45C780.97,-58.8 854.07,-44.78 917,-31 922.1,-29.88 927.44,-28.66 932.73,-27.43"/>
<polygon fill="midnightblue" stroke="midnightblue" points="933.87,-30.75 942.79,-25.04 932.25,-23.94 933.87,-30.75"/>
</g>
<!-- Node9 -->
<g id="node9" class="node">
<title>Node9</title>
<g id="a_node9"><a xlink:title=" ">
<polygon fill="white" stroke="#bfbfbf" points="1046.5,-6 1046.5,-25 1183.5,-25 1183.5,-6 1046.5,-6"/>
<text text-anchor="middle" x="1115" y="-13" font-family="Helvetica,sans-Serif" font-size="10.00">stk_mesh/base/Field.hpp</text>
</a>
</g>
</g>
<!-- Node1&#45;&gt;Node9 -->
<g id="edge8" class="edge">
<title>Node1&#45;&gt;Node9</title>
<path fill="none" stroke="midnightblue" d="M764.31,-67.49C835.34,-59.26 944.06,-45.87 1038,-31 1045.75,-29.77 1053.91,-28.36 1061.91,-26.92"/>
<polygon fill="midnightblue" stroke="midnightblue" points="1062.71,-30.33 1071.91,-25.07 1061.44,-23.44 1062.71,-30.33"/>
</g>
</g>
</svg>
