<?xml version="1.0" encoding="UTF-8" standalone="no"?>
<!DOCTYPE svg PUBLIC "-//W3C//DTD SVG 1.1//EN"
 "http://www.w3.org/Graphics/SVG/1.1/DTD/svg11.dtd">
<!-- Generated by graphviz version 2.43.0 (0)
 -->
<!-- Title: SideWriter.C Pages: 1 -->
<!--zoomable 84 -->
<svg id="main" version="1.1" xmlns="http://www.w3.org/2000/svg" xmlns:xlink="http://www.w3.org/1999/xlink" xml:space="preserve" onload="init(evt)">
<style type="text/css"><![CDATA[
.edge:hover path { stroke: red; }
.edge:hover polygon { stroke: red; fill: red; }
]]></style>
<script type="text/javascript"><![CDATA[
var edges = document.getElementsByTagName('g');
if (edges && edges.length) {
  for (var i=0;i<edges.length;i++) {
    if (edges[i].id.substr(0,4)=='edge') {
      edges[i].setAttribute('class','edge');
    }
  }
}
]]></script>
        <defs>
                <circle id="rim" cx="0" cy="0" r="7"/>
                <circle id="rim2" cx="0" cy="0" r="3.5"/>
                <g id="zoomPlus">
                        <use xlink:href="#rim" fill="#404040">
                                <set attributeName="fill" to="#808080" begin="zoomplus.mouseover" end="zoomplus.mouseout"/>
                        </use>
                        <path d="M-4,0h8M0,-4v8" fill="none" stroke="white" stroke-width="1.5" pointer-events="none"/>
                </g>
                <g id="zoomMin">
                        <use xlink:href="#rim" fill="#404040">
                                <set attributeName="fill" to="#808080" begin="zoomminus.mouseover" end="zoomminus.mouseout"/>
                        </use>
                        <path d="M-4,0h8" fill="none" stroke="white" stroke-width="1.5" pointer-events="none"/>
                </g>
                <g id="dirArrow">
                        <path fill="none" stroke="white" stroke-width="1.5" d="M0,-3.0v7 M-2.5,-0.5L0,-3.0L2.5,-0.5"/>
                </g>
               <g id="resetDef">
                       <use xlink:href="#rim2" fill="#404040">
                               <set attributeName="fill" to="#808080" begin="reset.mouseover" end="reset.mouseout"/>
                       </use>
               </g>
        </defs>

<script type="text/javascript">
var viewWidth = 3296;
var viewHeight = 84;
var sectionId = 'dynsection-0';
</script>
<script xlink:href="svgpan.js"/>
<svg id="graph" class="graph">
<g id="viewport">
<title>SideWriter.C</title>
<polygon fill="white" stroke="transparent" points="-4,4 -4,-80 3291.5,-80 3291.5,4 -4,4"/>
<!-- Node1 -->
<g id="node1" class="node">
<title>Node1</title>
<g id="a_node1"><a xlink:title=" ">
<polygon fill="#bfbfbf" stroke="black" points="1918.5,-56.5 1918.5,-75.5 1995.5,-75.5 1995.5,-56.5 1918.5,-56.5"/>
<text text-anchor="middle" x="1957" y="-63.5" font-family="Helvetica,sans-Serif" font-size="10.00">SideWriter.C</text>
</a>
</g>
</g>
<!-- Node2 -->
<g id="node2" class="node">
<title>Node2</title>
<g id="a_node2"><a xlink:title=" ">
<polygon fill="white" stroke="#bfbfbf" points="0,-0.5 0,-19.5 76,-19.5 76,-0.5 0,-0.5"/>
<text text-anchor="middle" x="38" y="-7.5" font-family="Helvetica,sans-Serif" font-size="10.00">SideWriter.h</text>
</a>
</g>
</g>
<!-- Node1&#45;&gt;Node2 -->
<g id="edge1" class="edge">
<title>Node1&#45;&gt;Node2</title>
<path fill="none" stroke="midnightblue" d="M1918.37,-64.94C1686.79,-64.46 479.64,-60.08 86.13,-19.9"/>
<polygon fill="midnightblue" stroke="midnightblue" points="86.45,-16.41 76.14,-18.85 85.72,-23.37 86.45,-16.41"/>
</g>
<!-- Node3 -->
<g id="node3" class="node">
<title>Node3</title>
<g id="a_node3"><a xlink:title=" ">
<polygon fill="white" stroke="#bfbfbf" points="94,-0.5 94,-19.5 256,-19.5 256,-0.5 94,-0.5"/>
<text text-anchor="middle" x="175" y="-7.5" font-family="Helvetica,sans-Serif" font-size="10.00">stk_mesh/base/MetaData.hpp</text>
</a>
</g>
</g>
<!-- Node1&#45;&gt;Node3 -->
<g id="edge2" class="edge">
<title>Node1&#45;&gt;Node3</title>
<path fill="none" stroke="midnightblue" d="M1918.22,-65.02C1734.58,-64.87 933.86,-61.79 266.72,-20.06"/>
<polygon fill="midnightblue" stroke="midnightblue" points="266.61,-16.55 256.41,-19.41 266.17,-23.53 266.61,-16.55"/>
</g>
<!-- Node4 -->
<g id="node4" class="node">
<title>Node4</title>
<g id="a_node4"><a xlink:title=" ">
<polygon fill="white" stroke="#bfbfbf" points="274.5,-0.5 274.5,-19.5 421.5,-19.5 421.5,-0.5 274.5,-0.5"/>
<text text-anchor="middle" x="348" y="-7.5" font-family="Helvetica,sans-Serif" font-size="10.00">stk_mesh/base/Bucket.hpp</text>
</a>
</g>
</g>
<!-- Node1&#45;&gt;Node4 -->
<g id="edge3" class="edge">
<title>Node1&#45;&gt;Node4</title>
<path fill="none" stroke="midnightblue" d="M1918.3,-65C1745.82,-64.74 1029.77,-61.16 431.85,-20.07"/>
<polygon fill="midnightblue" stroke="midnightblue" points="431.95,-16.57 421.73,-19.37 431.47,-23.56 431.95,-16.57"/>
</g>
<!-- Node5 -->
<g id="node5" class="node">
<title>Node5</title>
<g id="a_node5"><a xlink:title=" ">
<polygon fill="white" stroke="#bfbfbf" points="439.5,-0.5 439.5,-19.5 598.5,-19.5 598.5,-0.5 439.5,-0.5"/>
<text text-anchor="middle" x="519" y="-7.5" font-family="Helvetica,sans-Serif" font-size="10.00">stk_mesh/base/BulkData.hpp</text>
</a>
</g>
</g>
<!-- Node1&#45;&gt;Node5 -->
<g id="edge4" class="edge">
<title>Node1&#45;&gt;Node5</title>
<path fill="none" stroke="midnightblue" d="M1918.29,-64.68C1758.36,-63.16 1133.25,-55.2 608.65,-20.07"/>
<polygon fill="midnightblue" stroke="midnightblue" points="608.82,-16.57 598.6,-19.39 608.35,-23.55 608.82,-16.57"/>
</g>
<!-- Node6 -->
<g id="node6" class="node">
<title>Node6</title>
<g id="a_node6"><a xlink:title=" ">
<polygon fill="white" stroke="#bfbfbf" points="616.5,-0.5 616.5,-19.5 757.5,-19.5 757.5,-0.5 616.5,-0.5"/>
<text text-anchor="middle" x="687" y="-7.5" font-family="Helvetica,sans-Serif" font-size="10.00">stk_mesh/base/Entity.hpp</text>
</a>
</g>
</g>
<!-- Node1&#45;&gt;Node6 -->
<g id="edge5" class="edge">
<title>Node1&#45;&gt;Node6</title>
<path fill="none" stroke="midnightblue" d="M1918.38,-64.6C1770.57,-62.86 1226.42,-54.39 767.75,-20.08"/>
<polygon fill="midnightblue" stroke="midnightblue" points="767.84,-16.57 757.61,-19.31 767.32,-23.55 767.84,-16.57"/>
</g>
<!-- Node7 -->
<g id="node7" class="node">
<title>Node7</title>
<g id="a_node7"><a xlink:title=" ">
<polygon fill="white" stroke="#bfbfbf" points="775.5,-0.5 775.5,-19.5 936.5,-19.5 936.5,-0.5 775.5,-0.5"/>
<text text-anchor="middle" x="856" y="-7.5" font-family="Helvetica,sans-Serif" font-size="10.00">stk_mesh/base/FieldBase.hpp</text>
</a>
</g>
</g>
<!-- Node1&#45;&gt;Node7 -->
<g id="edge6" class="edge">
<title>Node1&#45;&gt;Node7</title>
<path fill="none" stroke="midnightblue" d="M1918.35,-64.07C1785.04,-60.68 1331.93,-47.79 946.74,-20.09"/>
<polygon fill="midnightblue" stroke="midnightblue" points="946.74,-16.58 936.51,-19.35 946.23,-23.56 946.74,-16.58"/>
</g>
<!-- Node8 -->
<g id="node8" class="node">
<title>Node8</title>
<g id="a_node8"><a xlink:title=" ">
<polygon fill="white" stroke="#bfbfbf" points="954.5,-0.5 954.5,-19.5 1087.5,-19.5 1087.5,-0.5 954.5,-0.5"/>
<text text-anchor="middle" x="1021" y="-7.5" font-family="Helvetica,sans-Serif" font-size="10.00">stk_mesh/base/Part.hpp</text>
</a>
</g>
</g>
<!-- Node1&#45;&gt;Node8 -->
<g id="edge7" class="edge">
<title>Node1&#45;&gt;Node8</title>
<path fill="none" stroke="midnightblue" d="M1918.32,-63.91C1798.2,-60.31 1420.75,-47.53 1097.66,-20.09"/>
<polygon fill="midnightblue" stroke="midnightblue" points="1097.89,-16.6 1087.63,-19.23 1097.3,-23.57 1097.89,-16.6"/>
</g>
<!-- Node9 -->
<g id="node9" class="node">
<title>Node9</title>
<g id="a_node9"><a xlink:title=" ">
<polygon fill="white" stroke="#bfbfbf" points="1105.5,-0.5 1105.5,-19.5 1258.5,-19.5 1258.5,-0.5 1105.5,-0.5"/>
<text text-anchor="middle" x="1182" y="-7.5" font-family="Helvetica,sans-Serif" font-size="10.00">stk_mesh/base/Selector.hpp</text>
</a>
</g>
</g>
<!-- Node1&#45;&gt;Node9 -->
<g id="edge8" class="edge">
<title>Node1&#45;&gt;Node9</title>
<path fill="none" stroke="midnightblue" d="M1918.43,-63.03C1815.02,-57.64 1522.73,-41.63 1269.04,-20.15"/>
<polygon fill="midnightblue" stroke="midnightblue" points="1269.16,-16.64 1258.9,-19.28 1268.56,-23.62 1269.16,-16.64"/>
</g>
<!-- Node10 -->
<g id="node10" class="node">
<title>Node10</title>
<g id="a_node10"><a xlink:title=" ">
<polygon fill="white" stroke="#bfbfbf" points="1276.5,-0.5 1276.5,-19.5 1421.5,-19.5 1421.5,-0.5 1276.5,-0.5"/>
<text text-anchor="middle" x="1349" y="-7.5" font-family="Helvetica,sans-Serif" font-size="10.00">stk_topology/topology.hpp</text>
</a>
</g>
</g>
<!-- Node1&#45;&gt;Node10 -->
<g id="edge9" class="edge">
<title>Node1&#45;&gt;Node10</title>
<path fill="none" stroke="midnightblue" d="M1918.29,-62.03C1832.6,-55.4 1620.19,-38.54 1431.93,-20.17"/>
<polygon fill="midnightblue" stroke="midnightblue" points="1432.14,-16.67 1421.85,-19.18 1431.46,-23.64 1432.14,-16.67"/>
</g>
<!-- Node11 -->
<g id="node11" class="node">
<title>Node11</title>
<g id="a_node11"><a xlink:title=" ">
<polygon fill="white" stroke="#bfbfbf" points="1439.5,-0.5 1439.5,-19.5 1604.5,-19.5 1604.5,-0.5 1439.5,-0.5"/>
<text text-anchor="middle" x="1522" y="-7.5" font-family="Helvetica,sans-Serif" font-size="10.00">stk_util/util/ReportHandler.hpp</text>
</a>
</g>
</g>
<!-- Node1&#45;&gt;Node11 -->
<g id="edge10" class="edge">
<title>Node1&#45;&gt;Node11</title>
<path fill="none" stroke="midnightblue" d="M1918.4,-60.21C1847.28,-51.38 1694.28,-32.39 1600.53,-20.75"/>
<polygon fill="midnightblue" stroke="midnightblue" points="1600.88,-17.27 1590.53,-19.51 1600.02,-24.21 1600.88,-17.27"/>
</g>
<!-- Node12 -->
<g id="node12" class="node">
<title>Node12</title>
<g id="a_node12"><a xlink:title=" ">
<polygon fill="white" stroke="#bfbfbf" points="1623,-0.5 1623,-19.5 1707,-19.5 1707,-0.5 1623,-0.5"/>
<text text-anchor="middle" x="1665" y="-7.5" font-family="Helvetica,sans-Serif" font-size="10.00">Ioss_Region.h</text>
</a>
</g>
</g>
<!-- Node1&#45;&gt;Node12 -->
<g id="edge11" class="edge">
<title>Node1&#45;&gt;Node12</title>
<path fill="none" stroke="midnightblue" d="M1918.22,-57.83C1866.56,-48.28 1774.98,-31.34 1717.27,-20.67"/>
<polygon fill="midnightblue" stroke="midnightblue" points="1717.72,-17.19 1707.25,-18.81 1716.45,-24.07 1717.72,-17.19"/>
</g>
<!-- Node13 -->
<g id="node13" class="node">
<title>Node13</title>
<g id="a_node13"><a xlink:title=" ">
<polygon fill="white" stroke="#bfbfbf" points="1725.5,-0.5 1725.5,-19.5 1820.5,-19.5 1820.5,-0.5 1725.5,-0.5"/>
<text text-anchor="middle" x="1773" y="-7.5" font-family="Helvetica,sans-Serif" font-size="10.00">Ioss_DBUsage.h</text>
</a>
</g>
</g>
<!-- Node1&#45;&gt;Node13 -->
<g id="edge12" class="edge">
<title>Node1&#45;&gt;Node13</title>
<path fill="none" stroke="midnightblue" d="M1927.84,-56.44C1896.49,-47.24 1846.47,-32.56 1811.8,-22.39"/>
<polygon fill="midnightblue" stroke="midnightblue" points="1812.6,-18.97 1802.02,-19.52 1810.63,-25.69 1812.6,-18.97"/>
</g>
<!-- Node14 -->
<g id="node14" class="node">
<title>Node14</title>
<g id="a_node14"><a xlink:title=" ">
<polygon fill="white" stroke="#bfbfbf" points="1838.5,-0.5 1838.5,-19.5 1945.5,-19.5 1945.5,-0.5 1838.5,-0.5"/>
<text text-anchor="middle" x="1892" y="-7.5" font-family="Helvetica,sans-Serif" font-size="10.00">Ioss_DatabaseIO.h</text>
</a>
</g>
</g>
<!-- Node1&#45;&gt;Node14 -->
<g id="edge13" class="edge">
<title>Node1&#45;&gt;Node14</title>
<path fill="none" stroke="midnightblue" d="M1946.56,-56.32C1936.85,-48.26 1922.18,-36.08 1910.5,-26.37"/>
<polygon fill="midnightblue" stroke="midnightblue" points="1912.56,-23.53 1902.63,-19.83 1908.09,-28.92 1912.56,-23.53"/>
</g>
<!-- Node15 -->
<g id="node15" class="node">
<title>Node15</title>
<g id="a_node15"><a xlink:title=" ">
<polygon fill="white" stroke="#bfbfbf" points="1964,-0.5 1964,-19.5 2082,-19.5 2082,-0.5 1964,-0.5"/>
<text text-anchor="middle" x="2023" y="-7.5" font-family="Helvetica,sans-Serif" font-size="10.00">Ioss_ElementBlock.h</text>
</a>
</g>
</g>
<!-- Node1&#45;&gt;Node15 -->
<g id="edge14" class="edge">
<title>Node1&#45;&gt;Node15</title>
<path fill="none" stroke="midnightblue" d="M1967.6,-56.32C1977.46,-48.26 1992.35,-36.08 2004.22,-26.37"/>
<polygon fill="midnightblue" stroke="midnightblue" points="2006.68,-28.88 2012.2,-19.83 2002.25,-23.46 2006.68,-28.88"/>
</g>
<!-- Node16 -->
<g id="node16" class="node">
<title>Node16</title>
<g id="a_node16"><a xlink:title=" ">
<polygon fill="white" stroke="#bfbfbf" points="2100,-0.5 2100,-19.5 2174,-19.5 2174,-0.5 2100,-0.5"/>
<text text-anchor="middle" x="2137" y="-7.5" font-family="Helvetica,sans-Serif" font-size="10.00">Ioss_Field.h</text>
</a>
</g>
</g>
<!-- Node1&#45;&gt;Node16 -->
<g id="edge15" class="edge">
<title>Node1&#45;&gt;Node16</title>
<path fill="none" stroke="midnightblue" d="M1985.52,-56.44C2016.07,-47.28 2064.71,-32.69 2098.6,-22.52"/>
<polygon fill="midnightblue" stroke="midnightblue" points="2100.04,-25.74 2108.61,-19.52 2098.03,-19.04 2100.04,-25.74"/>
</g>
<!-- Node17 -->
<g id="node17" class="node">
<title>Node17</title>
<g id="a_node17"><a xlink:title=" ">
<polygon fill="white" stroke="#bfbfbf" points="2192.5,-0.5 2192.5,-19.5 2287.5,-19.5 2287.5,-0.5 2192.5,-0.5"/>
<text text-anchor="middle" x="2240" y="-7.5" font-family="Helvetica,sans-Serif" font-size="10.00">Ioss_IOFactory.h</text>
</a>
</g>
</g>
<!-- Node1&#45;&gt;Node17 -->
<g id="edge16" class="edge">
<title>Node1&#45;&gt;Node17</title>
<path fill="none" stroke="midnightblue" d="M1995.76,-57.6C2044.78,-48.25 2129.5,-32.08 2185.15,-21.47"/>
<polygon fill="midnightblue" stroke="midnightblue" points="2186.02,-24.86 2195.19,-19.55 2184.71,-17.99 2186.02,-24.86"/>
</g>
<!-- Node18 -->
<g id="node18" class="node">
<title>Node18</title>
<g id="a_node18"><a xlink:title=" ">
<polygon fill="white" stroke="#bfbfbf" points="2305.5,-0.5 2305.5,-19.5 2408.5,-19.5 2408.5,-0.5 2305.5,-0.5"/>
<text text-anchor="middle" x="2357" y="-7.5" font-family="Helvetica,sans-Serif" font-size="10.00">Ioss_NodeBlock.h</text>
</a>
</g>
</g>
<!-- Node1&#45;&gt;Node18 -->
<g id="edge17" class="edge">
<title>Node1&#45;&gt;Node18</title>
<path fill="none" stroke="midnightblue" d="M1995.53,-60.12C2056.81,-52.31 2180.52,-36.36 2295.29,-20.22"/>
<polygon fill="midnightblue" stroke="midnightblue" points="2295.88,-23.67 2305.3,-18.81 2294.91,-16.74 2295.88,-23.67"/>
</g>
<!-- Node19 -->
<g id="node19" class="node">
<title>Node19</title>
<g id="a_node19"><a xlink:title=" ">
<polygon fill="white" stroke="#bfbfbf" points="2427,-0.5 2427,-19.5 2517,-19.5 2517,-0.5 2427,-0.5"/>
<text text-anchor="middle" x="2472" y="-7.5" font-family="Helvetica,sans-Serif" font-size="10.00">Ioss_Property.h</text>
</a>
</g>
</g>
<!-- Node1&#45;&gt;Node19 -->
<g id="edge18" class="edge">
<title>Node1&#45;&gt;Node19</title>
<path fill="none" stroke="midnightblue" d="M1995.65,-62.12C2073.37,-56.13 2254.32,-41.23 2416.77,-20.08"/>
<polygon fill="midnightblue" stroke="midnightblue" points="2417.49,-23.51 2426.95,-18.74 2416.58,-16.57 2417.49,-23.51"/>
</g>
<!-- Node20 -->
<g id="node20" class="node">
<title>Node20</title>
<g id="a_node20"><a xlink:title=" ">
<polygon fill="white" stroke="#bfbfbf" points="2535,-0.5 2535,-19.5 2669,-19.5 2669,-0.5 2535,-0.5"/>
<text text-anchor="middle" x="2602" y="-7.5" font-family="Helvetica,sans-Serif" font-size="10.00">Ioss_PropertyManager.h</text>
</a>
</g>
</g>
<!-- Node1&#45;&gt;Node20 -->
<g id="edge19" class="edge">
<title>Node1&#45;&gt;Node20</title>
<path fill="none" stroke="midnightblue" d="M1995.68,-62.46C2086.21,-56.41 2319.13,-40.2 2524.8,-20.08"/>
<polygon fill="midnightblue" stroke="midnightblue" points="2525.27,-23.55 2534.88,-19.09 2524.58,-16.59 2525.27,-23.55"/>
</g>
<!-- Node21 -->
<g id="node21" class="node">
<title>Node21</title>
<g id="a_node21"><a xlink:title=" ">
<polygon fill="white" stroke="#bfbfbf" points="2687,-0.5 2687,-19.5 2763,-19.5 2763,-0.5 2687,-0.5"/>
<text text-anchor="middle" x="2725" y="-7.5" font-family="Helvetica,sans-Serif" font-size="10.00">Ioss_State.h</text>
</a>
</g>
</g>
<!-- Node1&#45;&gt;Node21 -->
<g id="edge20" class="edge">
<title>Node1&#45;&gt;Node21</title>
<path fill="none" stroke="midnightblue" d="M1995.85,-64.31C2102.84,-62.03 2410.93,-52.99 2676.62,-20.01"/>
<polygon fill="midnightblue" stroke="midnightblue" points="2677.36,-23.44 2686.85,-18.73 2676.49,-16.5 2677.36,-23.44"/>
</g>
<!-- Node22 -->
<g id="node22" class="node">
<title>Node22</title>
<g id="a_node22"><a xlink:title=" ">
<polygon fill="white" stroke="#bfbfbf" points="2781,-0.5 2781,-19.5 2879,-19.5 2879,-0.5 2781,-0.5"/>
<text text-anchor="middle" x="2830" y="-7.5" font-family="Helvetica,sans-Serif" font-size="10.00">Ionit_Initializer.h</text>
</a>
</g>
</g>
<!-- Node1&#45;&gt;Node22 -->
<g id="edge21" class="edge">
<title>Node1&#45;&gt;Node22</title>
<path fill="none" stroke="midnightblue" d="M1995.71,-64.22C2111.62,-61.59 2466.19,-51.47 2770.64,-20.03"/>
<polygon fill="midnightblue" stroke="midnightblue" points="2771.41,-23.47 2781,-18.95 2770.69,-16.51 2771.41,-23.47"/>
</g>
<!-- Node23 -->
<g id="node23" class="node">
<title>Node23</title>
<g id="a_node23"><a xlink:title=" ">
<polygon fill="white" stroke="#bfbfbf" points="2897.5,-0.5 2897.5,-19.5 2980.5,-19.5 2980.5,-0.5 2897.5,-0.5"/>
<text text-anchor="middle" x="2939" y="-7.5" font-family="Helvetica,sans-Serif" font-size="10.00">NaluParsing.h</text>
</a>
</g>
</g>
<!-- Node1&#45;&gt;Node23 -->
<g id="edge22" class="edge">
<title>Node1&#45;&gt;Node23</title>
<path fill="none" stroke="midnightblue" d="M1995.72,-64.88C2122.31,-64.11 2535.48,-58.68 2887.19,-19.93"/>
<polygon fill="midnightblue" stroke="midnightblue" points="2887.76,-23.38 2897.31,-18.8 2886.99,-16.43 2887.76,-23.38"/>
</g>
<!-- Node24 -->
<g id="node24" class="node">
<title>Node24</title>
<g id="a_node24"><a xlink:title=" ">
<polygon fill="white" stroke="#bfbfbf" points="2999,-0.5 2999,-19.5 3063,-19.5 3063,-0.5 2999,-0.5"/>
<text text-anchor="middle" x="3031" y="-7.5" font-family="Helvetica,sans-Serif" font-size="10.00">algorithm</text>
</a>
</g>
</g>
<!-- Node1&#45;&gt;Node24 -->
<g id="edge23" class="edge">
<title>Node1&#45;&gt;Node24</title>
<path fill="none" stroke="midnightblue" d="M1995.54,-64.21C2156,-60.8 2772.4,-46.3 2988.86,-19.87"/>
<polygon fill="midnightblue" stroke="midnightblue" points="2989.38,-23.33 2998.86,-18.6 2988.5,-16.39 2989.38,-23.33"/>
</g>
<!-- Node25 -->
<g id="node25" class="node">
<title>Node25</title>
<g id="a_node25"><a xlink:title=" ">
<polygon fill="white" stroke="#bfbfbf" points="3081,-0.5 3081,-19.5 3141,-19.5 3141,-0.5 3081,-0.5"/>
<text text-anchor="middle" x="3111" y="-7.5" font-family="Helvetica,sans-Serif" font-size="10.00">iostream</text>
</a>
</g>
</g>
<!-- Node1&#45;&gt;Node25 -->
<g id="edge24" class="edge">
<title>Node1&#45;&gt;Node25</title>
<path fill="none" stroke="midnightblue" d="M1995.69,-64.41C2164.37,-61.67 2837.19,-49.22 3070.75,-19.86"/>
<polygon fill="midnightblue" stroke="midnightblue" points="3071.41,-23.3 3080.87,-18.54 3070.5,-16.36 3071.41,-23.3"/>
</g>
<!-- Node26 -->
<g id="node26" class="node">
<title>Node26</title>
<g id="a_node26"><a xlink:title=" ">
<polygon fill="white" stroke="#bfbfbf" points="3159.5,-0.5 3159.5,-19.5 3224.5,-19.5 3224.5,-0.5 3159.5,-0.5"/>
<text text-anchor="middle" x="3192" y="-7.5" font-family="Helvetica,sans-Serif" font-size="10.00">stdexcept</text>
</a>
</g>
</g>
<!-- Node1&#45;&gt;Node26 -->
<g id="edge25" class="edge">
<title>Node1&#45;&gt;Node26</title>
<path fill="none" stroke="midnightblue" d="M1995.66,-64.44C2171.62,-61.78 2898.62,-49.25 3148.95,-19.85"/>
<polygon fill="midnightblue" stroke="midnightblue" points="3149.57,-23.3 3159.08,-18.62 3148.73,-16.35 3149.57,-23.3"/>
</g>
<!-- Node27 -->
<g id="node27" class="node">
<title>Node27</title>
<g id="a_node27"><a xlink:title=" ">
<polygon fill="white" stroke="#bfbfbf" points="3242.5,-0.5 3242.5,-19.5 3287.5,-19.5 3287.5,-0.5 3242.5,-0.5"/>
<text text-anchor="middle" x="3265" y="-7.5" font-family="Helvetica,sans-Serif" font-size="10.00">utility</text>
</a>
</g>
</g>
<!-- Node1&#45;&gt;Node27 -->
<g id="edge26" class="edge">
<title>Node1&#45;&gt;Node27</title>
<path fill="none" stroke="midnightblue" d="M1995.61,-64.92C2179.28,-64.37 2966.28,-59.76 3232.45,-19.8"/>
<polygon fill="midnightblue" stroke="midnightblue" points="3233.12,-23.24 3242.46,-18.24 3232.04,-16.32 3233.12,-23.24"/>
</g>
</g>
</svg>
        <g id="navigator" transform="translate(0 0)" fill="#404254">
                <rect fill="#f2f5e9" fill-opacity="0.5" stroke="#606060" stroke-width=".5" x="0" y="0" width="60" height="60"/>
                <use id="zoomplus" xlink:href="#zoomPlus" x="17" y="9" onmousedown="handleZoom(evt,'in')"/>
                <use id="zoomminus" xlink:href="#zoomMin" x="42" y="9" onmousedown="handleZoom(evt,'out')"/>
                <use id="reset" xlink:href="#resetDef" x="30" y="36" onmousedown="handleReset()"/>
                <g id="arrowUp" xlink:href="#dirArrow" transform="translate(30 24)" onmousedown="handlePan(0,-1)">
                  <use xlink:href="#rim" fill="#404040">
                        <set attributeName="fill" to="#808080" begin="arrowUp.mouseover" end="arrowUp.mouseout"/>
                  </use>
                  <path fill="none" stroke="white" stroke-width="1.5" d="M0,-3.0v7 M-2.5,-0.5L0,-3.0L2.5,-0.5"/>
                </g>
                <g id="arrowRight" xlink:href="#dirArrow" transform="rotate(90) translate(36 -43)" onmousedown="handlePan(1,0)">
                  <use xlink:href="#rim" fill="#404040">
                        <set attributeName="fill" to="#808080" begin="arrowRight.mouseover" end="arrowRight.mouseout"/>
                  </use>
                  <path fill="none" stroke="white" stroke-width="1.5" d="M0,-3.0v7 M-2.5,-0.5L0,-3.0L2.5,-0.5"/>
                </g>
                <g id="arrowDown" xlink:href="#dirArrow" transform="rotate(180) translate(-30 -48)" onmousedown="handlePan(0,1)">
                  <use xlink:href="#rim" fill="#404040">
                        <set attributeName="fill" to="#808080" begin="arrowDown.mouseover" end="arrowDown.mouseout"/>
                  </use>
                  <path fill="none" stroke="white" stroke-width="1.5" d="M0,-3.0v7 M-2.5,-0.5L0,-3.0L2.5,-0.5"/>
                </g>
                <g id="arrowLeft" xlink:href="#dirArrow" transform="rotate(270) translate(-36 17)" onmousedown="handlePan(-1,0)">
                  <use xlink:href="#rim" fill="#404040">
                        <set attributeName="fill" to="#808080" begin="arrowLeft.mouseover" end="arrowLeft.mouseout"/>
                  </use>
                  <path fill="none" stroke="white" stroke-width="1.5" d="M0,-3.0v7 M-2.5,-0.5L0,-3.0L2.5,-0.5"/>
                </g>
        </g>
        <svg viewBox="0 0 15 15" width="100%" height="30px" preserveAspectRatio="xMaxYMin meet">
         <g id="arrow_out" transform="scale(0.3 0.3)">
          <a xlink:href="_side_writer_8_c__incl_org.svg" target="_base">
           <rect id="button" ry="5" rx="5" y="6" x="6" height="38" width="38"
                fill="#f2f5e9" fill-opacity="0.5" stroke="#606060" stroke-width="1.0"/>
           <path id="arrow"
             d="M 11.500037,31.436501 C 11.940474,20.09759 22.043105,11.32322 32.158766,21.979434 L 37.068811,17.246167 C 37.068811,17.246167 37.088388,32 37.088388,32 L 22.160133,31.978069 C 22.160133,31.978069 26.997745,27.140456 26.997745,27.140456 C 18.528582,18.264221 13.291696,25.230495 11.500037,31.436501 z"
             style="fill:#404040;"/>
          </a>
         </g>
        </svg>
</svg>
