<?xml version="1.0" encoding="UTF-8" standalone="no"?>
<!DOCTYPE svg PUBLIC "-//W3C//DTD SVG 1.1//EN"
 "http://www.w3.org/Graphics/SVG/1.1/DTD/svg11.dtd">
<!-- Generated by graphviz version 2.43.0 (0)
 -->
<!-- Title: SloshingTankVOFAuxFunction.C Pages: 1 -->
<svg width="538pt" height="95pt"
 viewBox="0.00 0.00 537.50 95.00" xmlns="http://www.w3.org/2000/svg" xmlns:xlink="http://www.w3.org/1999/xlink">
<g id="graph0" class="graph" transform="scale(1 1) rotate(0) translate(4 91)">
<title>SloshingTankVOFAuxFunction.C</title>
<polygon fill="white" stroke="transparent" points="-4,4 -4,-91 533.5,-91 533.5,4 -4,4"/>
<!-- Node1 -->
<g id="node1" class="node">
<title>Node1</title>
<g id="a_node1"><a xlink:title=" ">
<polygon fill="#bfbfbf" stroke="black" points="227,-67.5 227,-86.5 396,-86.5 396,-67.5 227,-67.5"/>
<text text-anchor="middle" x="311.5" y="-74.5" font-family="Helvetica,sans-Serif" font-size="10.00">SloshingTankVOFAuxFunction.C</text>
</a>
</g>
</g>
<!-- Node2 -->
<g id="node2" class="node">
<title>Node2</title>
<g id="a_node2"><a xlink:title=" ">
<polygon fill="white" stroke="#bfbfbf" points="0,-0.5 0,-30.5 155,-30.5 155,-0.5 0,-0.5"/>
<text text-anchor="start" x="8" y="-18.5" font-family="Helvetica,sans-Serif" font-size="10.00">user_functions/SloshingTank</text>
<text text-anchor="middle" x="77.5" y="-7.5" font-family="Helvetica,sans-Serif" font-size="10.00">VOFAuxFunction.h</text>
</a>
</g>
</g>
<!-- Node1&#45;&gt;Node2 -->
<g id="edge1" class="edge">
<title>Node1&#45;&gt;Node2</title>
<path fill="none" stroke="midnightblue" d="M277.97,-67.48C242.73,-58.51 186.39,-44.19 142.4,-33"/>
<polygon fill="midnightblue" stroke="midnightblue" points="143.2,-29.6 132.65,-30.52 141.48,-36.38 143.2,-29.6"/>
</g>
<!-- Node3 -->
<g id="node3" class="node">
<title>Node3</title>
<g id="a_node3"><a xlink:title=" ">
<polygon fill="white" stroke="#bfbfbf" points="173.5,-6 173.5,-25 237.5,-25 237.5,-6 173.5,-6"/>
<text text-anchor="middle" x="205.5" y="-13" font-family="Helvetica,sans-Serif" font-size="10.00">algorithm</text>
</a>
</g>
</g>
<!-- Node1&#45;&gt;Node3 -->
<g id="edge2" class="edge">
<title>Node1&#45;&gt;Node3</title>
<path fill="none" stroke="midnightblue" d="M296.31,-67.48C278.84,-57.67 249.92,-41.43 229.42,-29.92"/>
<polygon fill="midnightblue" stroke="midnightblue" points="231.09,-26.85 220.66,-25.01 227.67,-32.96 231.09,-26.85"/>
</g>
<!-- Node4 -->
<g id="node4" class="node">
<title>Node4</title>
<g id="a_node4"><a xlink:title=" ">
<polygon fill="white" stroke="#bfbfbf" points="256,-6 256,-25 303,-25 303,-6 256,-6"/>
<text text-anchor="middle" x="279.5" y="-13" font-family="Helvetica,sans-Serif" font-size="10.00">cmath</text>
</a>
</g>
</g>
<!-- Node1&#45;&gt;Node4 -->
<g id="edge3" class="edge">
<title>Node1&#45;&gt;Node4</title>
<path fill="none" stroke="midnightblue" d="M306.92,-67.48C302.26,-58.82 294.91,-45.15 288.99,-34.15"/>
<polygon fill="midnightblue" stroke="midnightblue" points="291.9,-32.16 284.08,-25.01 285.73,-35.47 291.9,-32.16"/>
</g>
<!-- Node5 -->
<g id="node5" class="node">
<title>Node5</title>
<g id="a_node5"><a xlink:title=" ">
<polygon fill="white" stroke="#bfbfbf" points="321,-6 321,-25 368,-25 368,-6 321,-6"/>
<text text-anchor="middle" x="344.5" y="-13" font-family="Helvetica,sans-Serif" font-size="10.00">vector</text>
</a>
</g>
</g>
<!-- Node1&#45;&gt;Node5 -->
<g id="edge4" class="edge">
<title>Node1&#45;&gt;Node5</title>
<path fill="none" stroke="midnightblue" d="M316.23,-67.48C321.08,-58.73 328.77,-44.87 334.9,-33.81"/>
<polygon fill="midnightblue" stroke="midnightblue" points="337.99,-35.45 339.78,-25.01 331.87,-32.06 337.99,-35.45"/>
</g>
<!-- Node6 -->
<g id="node6" class="node">
<title>Node6</title>
<g id="a_node6"><a xlink:title=" ">
<polygon fill="white" stroke="#bfbfbf" points="386,-6 386,-25 451,-25 451,-6 386,-6"/>
<text text-anchor="middle" x="418.5" y="-13" font-family="Helvetica,sans-Serif" font-size="10.00">stdexcept</text>
</a>
</g>
</g>
<!-- Node1&#45;&gt;Node6 -->
<g id="edge5" class="edge">
<title>Node1&#45;&gt;Node6</title>
<path fill="none" stroke="midnightblue" d="M326.83,-67.48C344.47,-57.67 373.66,-41.43 394.36,-29.92"/>
<polygon fill="midnightblue" stroke="midnightblue" points="396.16,-32.93 403.2,-25.01 392.76,-26.81 396.16,-32.93"/>
</g>
<!-- Node7 -->
<g id="node7" class="node">
<title>Node7</title>
<g id="a_node7"><a xlink:title=" ">
<polygon fill="white" stroke="#bfbfbf" points="469.5,-6 469.5,-25 529.5,-25 529.5,-6 469.5,-6"/>
<text text-anchor="middle" x="499.5" y="-13" font-family="Helvetica,sans-Serif" font-size="10.00">iostream</text>
</a>
</g>
</g>
<!-- Node1&#45;&gt;Node7 -->
<g id="edge6" class="edge">
<title>Node1&#45;&gt;Node7</title>
<path fill="none" stroke="midnightblue" d="M341.64,-67.5C371.86,-58.83 419.65,-44.75 460.5,-31 462.9,-30.19 465.37,-29.34 467.85,-28.46"/>
<polygon fill="midnightblue" stroke="midnightblue" points="469.11,-31.72 477.31,-25.02 466.72,-25.14 469.11,-31.72"/>
</g>
</g>
</svg>
