<?xml version="1.0" encoding="UTF-8" standalone="no"?>
<!DOCTYPE svg PUBLIC "-//W3C//DTD SVG 1.1//EN"
 "http://www.w3.org/Graphics/SVG/1.1/DTD/svg11.dtd">
<!-- Generated by graphviz version 2.43.0 (0)
 -->
<!-- Title: SolverAlgorithm.C Pages: 1 -->
<svg width="1120pt" height="84pt"
 viewBox="0.00 0.00 1119.50 84.00" xmlns="http://www.w3.org/2000/svg" xmlns:xlink="http://www.w3.org/1999/xlink">
<g id="graph0" class="graph" transform="scale(1 1) rotate(0) translate(4 80)">
<title>SolverAlgorithm.C</title>
<polygon fill="white" stroke="transparent" points="-4,4 -4,-80 1115.5,-80 1115.5,4 -4,4"/>
<!-- Node1 -->
<g id="node1" class="node">
<title>Node1</title>
<g id="a_node1"><a xlink:title=" ">
<polygon fill="#bfbfbf" stroke="black" points="447.5,-56.5 447.5,-75.5 552.5,-75.5 552.5,-56.5 447.5,-56.5"/>
<text text-anchor="middle" x="500" y="-63.5" font-family="Helvetica,sans-Serif" font-size="10.00">SolverAlgorithm.C</text>
</a>
</g>
</g>
<!-- Node2 -->
<g id="node2" class="node">
<title>Node2</title>
<g id="a_node2"><a xlink:title=" ">
<polygon fill="white" stroke="#bfbfbf" points="0,-0.5 0,-19.5 104,-19.5 104,-0.5 0,-0.5"/>
<text text-anchor="middle" x="52" y="-7.5" font-family="Helvetica,sans-Serif" font-size="10.00">SolverAlgorithm.h</text>
</a>
</g>
</g>
<!-- Node1&#45;&gt;Node2 -->
<g id="edge1" class="edge">
<title>Node1&#45;&gt;Node2</title>
<path fill="none" stroke="midnightblue" d="M447.36,-59.4C374.8,-51.56 239.73,-36.56 114.39,-20.15"/>
<polygon fill="midnightblue" stroke="midnightblue" points="114.6,-16.65 104.23,-18.81 113.69,-23.59 114.6,-16.65"/>
</g>
<!-- Node3 -->
<g id="node3" class="node">
<title>Node3</title>
<g id="a_node3"><a xlink:title=" ">
<polygon fill="white" stroke="#bfbfbf" points="122,-0.5 122,-19.5 196,-19.5 196,-0.5 122,-0.5"/>
<text text-anchor="middle" x="159" y="-7.5" font-family="Helvetica,sans-Serif" font-size="10.00">Algorithm.h</text>
</a>
</g>
</g>
<!-- Node1&#45;&gt;Node3 -->
<g id="edge2" class="edge">
<title>Node1&#45;&gt;Node3</title>
<path fill="none" stroke="midnightblue" d="M447.4,-57.65C390.39,-49.54 296.49,-35.74 206.01,-20.12"/>
<polygon fill="midnightblue" stroke="midnightblue" points="206.58,-16.67 196.13,-18.4 205.39,-23.56 206.58,-16.67"/>
</g>
<!-- Node4 -->
<g id="node4" class="node">
<title>Node4</title>
<g id="a_node4"><a xlink:title=" ">
<polygon fill="white" stroke="#bfbfbf" points="214.5,-0.5 214.5,-19.5 319.5,-19.5 319.5,-0.5 214.5,-0.5"/>
<text text-anchor="middle" x="267" y="-7.5" font-family="Helvetica,sans-Serif" font-size="10.00">EquationSystem.h</text>
</a>
</g>
</g>
<!-- Node1&#45;&gt;Node4 -->
<g id="edge3" class="edge">
<title>Node1&#45;&gt;Node4</title>
<path fill="none" stroke="midnightblue" d="M463.08,-56.44C422.6,-47.06 357.58,-31.99 313.62,-21.8"/>
<polygon fill="midnightblue" stroke="midnightblue" points="314.28,-18.36 303.75,-19.52 312.7,-25.18 314.28,-18.36"/>
</g>
<!-- Node5 -->
<g id="node5" class="node">
<title>Node5</title>
<g id="a_node5"><a xlink:title=" ">
<polygon fill="white" stroke="#bfbfbf" points="338,-0.5 338,-19.5 430,-19.5 430,-0.5 338,-0.5"/>
<text text-anchor="middle" x="384" y="-7.5" font-family="Helvetica,sans-Serif" font-size="10.00">LinearSystem.h</text>
</a>
</g>
</g>
<!-- Node1&#45;&gt;Node5 -->
<g id="edge4" class="edge">
<title>Node1&#45;&gt;Node5</title>
<path fill="none" stroke="midnightblue" d="M481.62,-56.44C462.78,-47.68 433.27,-33.94 411.62,-23.86"/>
<polygon fill="midnightblue" stroke="midnightblue" points="412.84,-20.56 402.29,-19.52 409.88,-26.91 412.84,-20.56"/>
</g>
<!-- Node6 -->
<g id="node6" class="node">
<title>Node6</title>
<g id="a_node6"><a xlink:title=" ">
<polygon fill="white" stroke="#bfbfbf" points="448,-0.5 448,-19.5 552,-19.5 552,-0.5 448,-0.5"/>
<text text-anchor="middle" x="500" y="-7.5" font-family="Helvetica,sans-Serif" font-size="10.00">KokkosInterface.h</text>
</a>
</g>
</g>
<!-- Node1&#45;&gt;Node6 -->
<g id="edge5" class="edge">
<title>Node1&#45;&gt;Node6</title>
<path fill="none" stroke="midnightblue" d="M500,-56.08C500,-49.01 500,-38.86 500,-29.99"/>
<polygon fill="midnightblue" stroke="midnightblue" points="503.5,-29.75 500,-19.75 496.5,-29.75 503.5,-29.75"/>
</g>
<!-- Node7 -->
<g id="node7" class="node">
<title>Node7</title>
<g id="a_node7"><a xlink:title=" ">
<polygon fill="white" stroke="#bfbfbf" points="570,-0.5 570,-19.5 708,-19.5 708,-0.5 570,-0.5"/>
<text text-anchor="middle" x="639" y="-7.5" font-family="Helvetica,sans-Serif" font-size="10.00">ngp_utils/NgpFieldUtils.h</text>
</a>
</g>
</g>
<!-- Node1&#45;&gt;Node7 -->
<g id="edge6" class="edge">
<title>Node1&#45;&gt;Node7</title>
<path fill="none" stroke="midnightblue" d="M522.02,-56.44C545.1,-47.48 581.56,-33.31 607.64,-23.18"/>
<polygon fill="midnightblue" stroke="midnightblue" points="609.02,-26.4 617.08,-19.52 606.49,-19.88 609.02,-26.4"/>
</g>
<!-- Node8 -->
<g id="node8" class="node">
<title>Node8</title>
<g id="a_node8"><a xlink:title=" ">
<polygon fill="white" stroke="#bfbfbf" points="726.5,-0.5 726.5,-19.5 867.5,-19.5 867.5,-0.5 726.5,-0.5"/>
<text text-anchor="middle" x="797" y="-7.5" font-family="Helvetica,sans-Serif" font-size="10.00">stk_mesh/base/Entity.hpp</text>
</a>
</g>
</g>
<!-- Node1&#45;&gt;Node8 -->
<g id="edge7" class="edge">
<title>Node1&#45;&gt;Node8</title>
<path fill="none" stroke="midnightblue" d="M547.06,-56.44C599.41,-46.92 683.99,-31.55 740.04,-21.36"/>
<polygon fill="midnightblue" stroke="midnightblue" points="740.95,-24.75 750.16,-19.52 739.69,-17.86 740.95,-24.75"/>
</g>
<!-- Node9 -->
<g id="node9" class="node">
<title>Node9</title>
<g id="a_node9"><a xlink:title=" ">
<polygon fill="white" stroke="#bfbfbf" points="886,-0.5 886,-19.5 1046,-19.5 1046,-0.5 886,-0.5"/>
<text text-anchor="middle" x="966" y="-7.5" font-family="Helvetica,sans-Serif" font-size="10.00">stk_mesh/base/NgpMesh.hpp</text>
</a>
</g>
</g>
<!-- Node1&#45;&gt;Node9 -->
<g id="edge8" class="edge">
<title>Node1&#45;&gt;Node9</title>
<path fill="none" stroke="midnightblue" d="M552.55,-58.91C632.9,-49.6 787.01,-31.74 882.7,-20.65"/>
<polygon fill="midnightblue" stroke="midnightblue" points="883.1,-24.13 892.63,-19.5 882.3,-17.18 883.1,-24.13"/>
</g>
<!-- Node10 -->
<g id="node10" class="node">
<title>Node10</title>
<g id="a_node10"><a xlink:title=" ">
<polygon fill="white" stroke="#bfbfbf" points="1064.5,-0.5 1064.5,-19.5 1111.5,-19.5 1111.5,-0.5 1064.5,-0.5"/>
<text text-anchor="middle" x="1088" y="-7.5" font-family="Helvetica,sans-Serif" font-size="10.00">vector</text>
</a>
</g>
</g>
<!-- Node1&#45;&gt;Node10 -->
<g id="edge9" class="edge">
<title>Node1&#45;&gt;Node10</title>
<path fill="none" stroke="midnightblue" d="M552.83,-63.97C650.28,-61.36 864.92,-52.33 1054.46,-19.74"/>
<polygon fill="midnightblue" stroke="midnightblue" points="1055.08,-23.19 1064.33,-18.02 1053.87,-16.29 1055.08,-23.19"/>
</g>
</g>
</svg>
