<?xml version="1.0" encoding="UTF-8" standalone="no"?>
<!DOCTYPE svg PUBLIC "-//W3C//DTD SVG 1.1//EN"
 "http://www.w3.org/Graphics/SVG/1.1/DTD/svg11.dtd">
<!-- Generated by graphviz version 2.43.0 (0)
 -->
<!-- Title: SolutionNormPostProcessing.C Pages: 1 -->
<!--zoomable 95 -->
<svg id="main" version="1.1" xmlns="http://www.w3.org/2000/svg" xmlns:xlink="http://www.w3.org/1999/xlink" xml:space="preserve" onload="init(evt)">
<style type="text/css"><![CDATA[
.edge:hover path { stroke: red; }
.edge:hover polygon { stroke: red; fill: red; }
]]></style>
<script type="text/javascript"><![CDATA[
var edges = document.getElementsByTagName('g');
if (edges && edges.length) {
  for (var i=0;i<edges.length;i++) {
    if (edges[i].id.substr(0,4)=='edge') {
      edges[i].setAttribute('class','edge');
    }
  }
}
]]></script>
        <defs>
                <circle id="rim" cx="0" cy="0" r="7"/>
                <circle id="rim2" cx="0" cy="0" r="3.5"/>
                <g id="zoomPlus">
                        <use xlink:href="#rim" fill="#404040">
                                <set attributeName="fill" to="#808080" begin="zoomplus.mouseover" end="zoomplus.mouseout"/>
                        </use>
                        <path d="M-4,0h8M0,-4v8" fill="none" stroke="white" stroke-width="1.5" pointer-events="none"/>
                </g>
                <g id="zoomMin">
                        <use xlink:href="#rim" fill="#404040">
                                <set attributeName="fill" to="#808080" begin="zoomminus.mouseover" end="zoomminus.mouseout"/>
                        </use>
                        <path d="M-4,0h8" fill="none" stroke="white" stroke-width="1.5" pointer-events="none"/>
                </g>
                <g id="dirArrow">
                        <path fill="none" stroke="white" stroke-width="1.5" d="M0,-3.0v7 M-2.5,-0.5L0,-3.0L2.5,-0.5"/>
                </g>
               <g id="resetDef">
                       <use xlink:href="#rim2" fill="#404040">
                               <set attributeName="fill" to="#808080" begin="reset.mouseover" end="reset.mouseout"/>
                       </use>
               </g>
        </defs>

<script type="text/javascript">
var viewWidth = 4496;
var viewHeight = 95;
var sectionId = 'dynsection-0';
</script>
<script xlink:href="svgpan.js"/>
<svg id="graph" class="graph">
<g id="viewport">
<title>SolutionNormPostProcessing.C</title>
<polygon fill="white" stroke="transparent" points="-4,4 -4,-91 4492,-91 4492,4 -4,4"/>
<!-- Node1 -->
<g id="node1" class="node">
<title>Node1</title>
<g id="a_node1"><a xlink:title=" ">
<polygon fill="#bfbfbf" stroke="black" points="2339.5,-67.5 2339.5,-86.5 2506.5,-86.5 2506.5,-67.5 2339.5,-67.5"/>
<text text-anchor="middle" x="2423" y="-74.5" font-family="Helvetica,sans-Serif" font-size="10.00">SolutionNormPostProcessing.C</text>
</a>
</g>
</g>
<!-- Node2 -->
<g id="node2" class="node">
<title>Node2</title>
<g id="a_node2"><a xlink:title=" ">
<polygon fill="white" stroke="#bfbfbf" points="0,-6 0,-25 166,-25 166,-6 0,-6"/>
<text text-anchor="middle" x="83" y="-13" font-family="Helvetica,sans-Serif" font-size="10.00">SolutionNormPostProcessing.h</text>
</a>
</g>
</g>
<!-- Node1&#45;&gt;Node2 -->
<g id="edge1" class="edge">
<title>Node1&#45;&gt;Node2</title>
<path fill="none" stroke="midnightblue" d="M2339.22,-75.85C1984.82,-74.99 607.34,-69.22 175,-31 163.41,-29.98 151.08,-28.38 139.32,-26.62"/>
<polygon fill="midnightblue" stroke="midnightblue" points="139.6,-23.12 129.18,-25.04 138.52,-30.04 139.6,-23.12"/>
</g>
<!-- Node3 -->
<g id="node3" class="node">
<title>Node3</title>
<g id="a_node3"><a xlink:title=" ">
<polygon fill="white" stroke="#bfbfbf" points="184,-6 184,-25 318,-25 318,-6 184,-6"/>
<text text-anchor="middle" x="251" y="-13" font-family="Helvetica,sans-Serif" font-size="10.00">AuxFunctionAlgorithm.h</text>
</a>
</g>
</g>
<!-- Node1&#45;&gt;Node3 -->
<g id="edge2" class="edge">
<title>Node1&#45;&gt;Node3</title>
<path fill="none" stroke="midnightblue" d="M2339.47,-76.07C2000.58,-76.07 727.31,-73.19 327,-31 317.88,-30.04 308.21,-28.56 298.94,-26.9"/>
<polygon fill="midnightblue" stroke="midnightblue" points="299.56,-23.46 289.09,-25.06 298.27,-30.34 299.56,-23.46"/>
</g>
<!-- Node4 -->
<g id="node4" class="node">
<title>Node4</title>
<g id="a_node4"><a xlink:title=" ">
<polygon fill="white" stroke="#bfbfbf" points="336,-6 336,-25 424,-25 424,-6 336,-6"/>
<text text-anchor="middle" x="380" y="-13" font-family="Helvetica,sans-Serif" font-size="10.00">FieldTypeDef.h</text>
</a>
</g>
</g>
<!-- Node1&#45;&gt;Node4 -->
<g id="edge3" class="edge">
<title>Node1&#45;&gt;Node4</title>
<path fill="none" stroke="midnightblue" d="M2339.46,-75.32C1986.04,-72.25 623.21,-58.74 433,-31 427.45,-30.19 421.66,-28.99 416.03,-27.62"/>
<polygon fill="midnightblue" stroke="midnightblue" points="416.71,-24.18 406.15,-25.02 414.93,-30.95 416.71,-24.18"/>
</g>
<!-- Node5 -->
<g id="node5" class="node">
<title>Node5</title>
<g id="a_node5"><a xlink:title=" ">
<polygon fill="white" stroke="#bfbfbf" points="442.5,-6 442.5,-25 525.5,-25 525.5,-6 442.5,-6"/>
<text text-anchor="middle" x="484" y="-13" font-family="Helvetica,sans-Serif" font-size="10.00">NaluParsing.h</text>
</a>
</g>
</g>
<!-- Node1&#45;&gt;Node5 -->
<g id="edge4" class="edge">
<title>Node1&#45;&gt;Node5</title>
<path fill="none" stroke="midnightblue" d="M2339.4,-75.28C1997.28,-72.16 713.58,-58.7 534,-31 528.88,-30.21 523.55,-29.05 518.36,-27.72"/>
<polygon fill="midnightblue" stroke="midnightblue" points="519.21,-24.32 508.64,-25.01 517.33,-31.07 519.21,-24.32"/>
</g>
<!-- Node6 -->
<g id="node6" class="node">
<title>Node6</title>
<g id="a_node6"><a xlink:title=" ">
<polygon fill="white" stroke="#bfbfbf" points="543.5,-6 543.5,-25 600.5,-25 600.5,-6 543.5,-6"/>
<text text-anchor="middle" x="572" y="-13" font-family="Helvetica,sans-Serif" font-size="10.00">Realm.h</text>
</a>
</g>
</g>
<!-- Node1&#45;&gt;Node6 -->
<g id="edge5" class="edge">
<title>Node1&#45;&gt;Node6</title>
<path fill="none" stroke="midnightblue" d="M2339.32,-75.59C2005.73,-73.72 780.53,-64.62 610,-31 606.74,-30.36 603.4,-29.46 600.12,-28.43"/>
<polygon fill="midnightblue" stroke="midnightblue" points="601.16,-25.09 590.57,-25.03 598.81,-31.68 601.16,-25.09"/>
</g>
<!-- Node7 -->
<g id="node7" class="node">
<title>Node7</title>
<g id="a_node7"><a xlink:title=" ">
<polygon fill="white" stroke="#bfbfbf" points="619,-0.5 619,-30.5 775,-30.5 775,-0.5 619,-0.5"/>
<text text-anchor="start" x="627" y="-18.5" font-family="Helvetica,sans-Serif" font-size="10.00">user_functions/SteadyTaylor</text>
<text text-anchor="middle" x="697" y="-7.5" font-family="Helvetica,sans-Serif" font-size="10.00">VortexVelocityAuxFunction.h</text>
</a>
</g>
</g>
<!-- Node1&#45;&gt;Node7 -->
<g id="edge6" class="edge">
<title>Node1&#45;&gt;Node7</title>
<path fill="none" stroke="midnightblue" d="M2339.38,-75.23C2052.89,-72.35 1111.07,-60.86 785.57,-31.03"/>
<polygon fill="midnightblue" stroke="midnightblue" points="785.47,-27.51 775.19,-30.05 784.82,-34.48 785.47,-27.51"/>
</g>
<!-- Node8 -->
<g id="node8" class="node">
<title>Node8</title>
<g id="a_node8"><a xlink:title=" ">
<polygon fill="white" stroke="#bfbfbf" points="793,-0.5 793,-30.5 975,-30.5 975,-0.5 793,-0.5"/>
<text text-anchor="start" x="801" y="-18.5" font-family="Helvetica,sans-Serif" font-size="10.00">user_functions/SteadyTaylor</text>
<text text-anchor="middle" x="884" y="-7.5" font-family="Helvetica,sans-Serif" font-size="10.00">VortexGradPressureAuxFunction.h</text>
</a>
</g>
</g>
<!-- Node1&#45;&gt;Node8 -->
<g id="edge7" class="edge">
<title>Node1&#45;&gt;Node8</title>
<path fill="none" stroke="midnightblue" d="M2339.27,-76.67C2119.11,-77.74 1505.7,-76.14 985.58,-31.06"/>
<polygon fill="midnightblue" stroke="midnightblue" points="985.5,-27.55 975.24,-30.16 984.89,-34.52 985.5,-27.55"/>
</g>
<!-- Node9 -->
<g id="node9" class="node">
<title>Node9</title>
<g id="a_node9"><a xlink:title=" ">
<polygon fill="white" stroke="#bfbfbf" points="993.5,-0.5 993.5,-30.5 1178.5,-30.5 1178.5,-0.5 993.5,-0.5"/>
<text text-anchor="start" x="1001.5" y="-18.5" font-family="Helvetica,sans-Serif" font-size="10.00">user_functions/Convecting</text>
<text text-anchor="middle" x="1086" y="-7.5" font-family="Helvetica,sans-Serif" font-size="10.00">TaylorVortexVelocityAuxFunction.h</text>
</a>
</g>
</g>
<!-- Node1&#45;&gt;Node9 -->
<g id="edge8" class="edge">
<title>Node1&#45;&gt;Node9</title>
<path fill="none" stroke="midnightblue" d="M2339.32,-75.97C2141.21,-75.25 1627.8,-69.55 1188.55,-30.97"/>
<polygon fill="midnightblue" stroke="midnightblue" points="1188.79,-27.48 1178.52,-30.08 1188.17,-34.45 1188.79,-27.48"/>
</g>
<!-- Node10 -->
<g id="node10" class="node">
<title>Node10</title>
<g id="a_node10"><a xlink:title=" ">
<polygon fill="white" stroke="#bfbfbf" points="1197,-0.5 1197,-30.5 1385,-30.5 1385,-0.5 1197,-0.5"/>
<text text-anchor="start" x="1205" y="-18.5" font-family="Helvetica,sans-Serif" font-size="10.00">user_functions/Convecting</text>
<text text-anchor="middle" x="1291" y="-7.5" font-family="Helvetica,sans-Serif" font-size="10.00">TaylorVortexPressureAuxFunction.h</text>
</a>
</g>
</g>
<!-- Node1&#45;&gt;Node10 -->
<g id="edge9" class="edge">
<title>Node1&#45;&gt;Node10</title>
<path fill="none" stroke="midnightblue" d="M2339.45,-75.07C2165.6,-72.53 1752.11,-63.42 1395.27,-31.05"/>
<polygon fill="midnightblue" stroke="midnightblue" points="1395.53,-27.56 1385.26,-30.14 1394.9,-34.54 1395.53,-27.56"/>
</g>
<!-- Node11 -->
<g id="node11" class="node">
<title>Node11</title>
<g id="a_node11"><a xlink:title=" ">
<polygon fill="white" stroke="#bfbfbf" points="1403,-0.5 1403,-30.5 1571,-30.5 1571,-0.5 1403,-0.5"/>
<text text-anchor="start" x="1411" y="-18.5" font-family="Helvetica,sans-Serif" font-size="10.00">user_functions/VariableDensity</text>
<text text-anchor="middle" x="1487" y="-7.5" font-family="Helvetica,sans-Serif" font-size="10.00">VelocityAuxFunction.h</text>
</a>
</g>
</g>
<!-- Node1&#45;&gt;Node11 -->
<g id="edge10" class="edge">
<title>Node1&#45;&gt;Node11</title>
<path fill="none" stroke="midnightblue" d="M2339.32,-74.34C2189.38,-70.75 1864.87,-60.18 1581.17,-31.05"/>
<polygon fill="midnightblue" stroke="midnightblue" points="1581.41,-27.55 1571.1,-30 1580.69,-34.52 1581.41,-27.55"/>
</g>
<!-- Node12 -->
<g id="node12" class="node">
<title>Node12</title>
<g id="a_node12"><a xlink:title=" ">
<polygon fill="white" stroke="#bfbfbf" points="1589.5,-0.5 1589.5,-30.5 1770.5,-30.5 1770.5,-0.5 1589.5,-0.5"/>
<text text-anchor="start" x="1597.5" y="-18.5" font-family="Helvetica,sans-Serif" font-size="10.00">user_functions/VariableDensity</text>
<text text-anchor="middle" x="1680" y="-7.5" font-family="Helvetica,sans-Serif" font-size="10.00">NonIsoTemperatureAuxFunction.h</text>
</a>
</g>
</g>
<!-- Node1&#45;&gt;Node12 -->
<g id="edge11" class="edge">
<title>Node1&#45;&gt;Node12</title>
<path fill="none" stroke="midnightblue" d="M2339.33,-72.13C2218.46,-66.09 1987.73,-52.92 1780.86,-31.03"/>
<polygon fill="midnightblue" stroke="midnightblue" points="1781.03,-27.53 1770.71,-29.95 1780.29,-34.49 1781.03,-27.53"/>
</g>
<!-- Node13 -->
<g id="node13" class="node">
<title>Node13</title>
<g id="a_node13"><a xlink:title=" ">
<polygon fill="white" stroke="#bfbfbf" points="1789,-0.5 1789,-30.5 1947,-30.5 1947,-0.5 1789,-0.5"/>
<text text-anchor="start" x="1797" y="-18.5" font-family="Helvetica,sans-Serif" font-size="10.00">user_functions/Boussinesq</text>
<text text-anchor="middle" x="1868" y="-7.5" font-family="Helvetica,sans-Serif" font-size="10.00">NonIsoVelocityAuxFunction.h</text>
</a>
</g>
</g>
<!-- Node1&#45;&gt;Node13 -->
<g id="edge12" class="edge">
<title>Node1&#45;&gt;Node13</title>
<path fill="none" stroke="midnightblue" d="M2339.29,-69.64C2247.88,-62.31 2096.95,-49.07 1957.16,-31.1"/>
<polygon fill="midnightblue" stroke="midnightblue" points="1957.48,-27.61 1947.12,-29.79 1956.58,-34.55 1957.48,-27.61"/>
</g>
<!-- Node14 -->
<g id="node14" class="node">
<title>Node14</title>
<g id="a_node14"><a xlink:title=" ">
<polygon fill="white" stroke="#bfbfbf" points="1965.5,-0.5 1965.5,-30.5 2146.5,-30.5 2146.5,-0.5 1965.5,-0.5"/>
<text text-anchor="start" x="1973.5" y="-18.5" font-family="Helvetica,sans-Serif" font-size="10.00">user_functions/Boussinesq</text>
<text text-anchor="middle" x="2056" y="-7.5" font-family="Helvetica,sans-Serif" font-size="10.00">NonIsoTemperatureAuxFunction.h</text>
</a>
</g>
</g>
<!-- Node1&#45;&gt;Node14 -->
<g id="edge13" class="edge">
<title>Node1&#45;&gt;Node14</title>
<path fill="none" stroke="midnightblue" d="M2370.42,-67.48C2313.74,-58.29 2222.31,-43.46 2152.61,-32.16"/>
<polygon fill="midnightblue" stroke="midnightblue" points="2152.93,-28.67 2142.49,-30.52 2151.81,-35.58 2152.93,-28.67"/>
</g>
<!-- Node15 -->
<g id="node15" class="node">
<title>Node15</title>
<g id="a_node15"><a xlink:title=" ">
<polygon fill="white" stroke="#bfbfbf" points="2165,-0.5 2165,-30.5 2333,-30.5 2333,-0.5 2165,-0.5"/>
<text text-anchor="start" x="2173" y="-18.5" font-family="Helvetica,sans-Serif" font-size="10.00">user_functions/VariableDensity</text>
<text text-anchor="middle" x="2249" y="-7.5" font-family="Helvetica,sans-Serif" font-size="10.00">MixFracAuxFunction.h</text>
</a>
</g>
</g>
<!-- Node1&#45;&gt;Node15 -->
<g id="edge14" class="edge">
<title>Node1&#45;&gt;Node15</title>
<path fill="none" stroke="midnightblue" d="M2398.07,-67.48C2372.52,-58.74 2332.07,-44.91 2299.75,-33.86"/>
<polygon fill="midnightblue" stroke="midnightblue" points="2300.6,-30.45 2290.01,-30.52 2298.34,-37.07 2300.6,-30.45"/>
</g>
<!-- Node16 -->
<g id="node16" class="node">
<title>Node16</title>
<g id="a_node16"><a xlink:title=" ">
<polygon fill="white" stroke="#bfbfbf" points="2351.5,-0.5 2351.5,-30.5 2494.5,-30.5 2494.5,-0.5 2351.5,-0.5"/>
<text text-anchor="start" x="2359.5" y="-18.5" font-family="Helvetica,sans-Serif" font-size="10.00">user_functions/Kovasznay</text>
<text text-anchor="middle" x="2423" y="-7.5" font-family="Helvetica,sans-Serif" font-size="10.00">VelocityAuxFunction.h</text>
</a>
</g>
</g>
<!-- Node1&#45;&gt;Node16 -->
<g id="edge15" class="edge">
<title>Node1&#45;&gt;Node16</title>
<path fill="none" stroke="midnightblue" d="M2423,-67.48C2423,-60.47 2423,-50.19 2423,-40.7"/>
<polygon fill="midnightblue" stroke="midnightblue" points="2426.5,-40.52 2423,-30.52 2419.5,-40.52 2426.5,-40.52"/>
</g>
<!-- Node17 -->
<g id="node17" class="node">
<title>Node17</title>
<g id="a_node17"><a xlink:title=" ">
<polygon fill="white" stroke="#bfbfbf" points="2512.5,-0.5 2512.5,-30.5 2655.5,-30.5 2655.5,-0.5 2512.5,-0.5"/>
<text text-anchor="start" x="2520.5" y="-18.5" font-family="Helvetica,sans-Serif" font-size="10.00">user_functions/Kovasznay</text>
<text text-anchor="middle" x="2584" y="-7.5" font-family="Helvetica,sans-Serif" font-size="10.00">PressureAuxFunction.h</text>
</a>
</g>
</g>
<!-- Node1&#45;&gt;Node17 -->
<g id="edge16" class="edge">
<title>Node1&#45;&gt;Node17</title>
<path fill="none" stroke="midnightblue" d="M2446.07,-67.48C2469.6,-58.78 2506.81,-45.03 2536.65,-34"/>
<polygon fill="midnightblue" stroke="midnightblue" points="2537.89,-37.27 2546.06,-30.52 2535.46,-30.71 2537.89,-37.27"/>
</g>
<!-- Node18 -->
<g id="node18" class="node">
<title>Node18</title>
<g id="a_node18"><a xlink:title=" ">
<polygon fill="white" stroke="#bfbfbf" points="2673.5,-0.5 2673.5,-30.5 2822.5,-30.5 2822.5,-0.5 2673.5,-0.5"/>
<text text-anchor="start" x="2681.5" y="-18.5" font-family="Helvetica,sans-Serif" font-size="10.00">user_functions/WindEnergy</text>
<text text-anchor="middle" x="2748" y="-7.5" font-family="Helvetica,sans-Serif" font-size="10.00">TaylorVortexAuxFunction.h</text>
</a>
</g>
</g>
<!-- Node1&#45;&gt;Node18 -->
<g id="edge17" class="edge">
<title>Node1&#45;&gt;Node18</title>
<path fill="none" stroke="midnightblue" d="M2469.56,-67.48C2519.94,-58.25 2601.34,-43.35 2663.14,-32.04"/>
<polygon fill="midnightblue" stroke="midnightblue" points="2664.07,-35.42 2673.28,-30.18 2662.81,-28.54 2664.07,-35.42"/>
</g>
<!-- Node19 -->
<g id="node19" class="node">
<title>Node19</title>
<g id="a_node19"><a xlink:title=" ">
<polygon fill="white" stroke="#bfbfbf" points="2841,-0.5 2841,-30.5 3029,-30.5 3029,-0.5 2841,-0.5"/>
<text text-anchor="start" x="2849" y="-18.5" font-family="Helvetica,sans-Serif" font-size="10.00">user_functions/WindEnergy</text>
<text text-anchor="middle" x="2935" y="-7.5" font-family="Helvetica,sans-Serif" font-size="10.00">TaylorVortexPressureAuxFunction.h</text>
</a>
</g>
</g>
<!-- Node1&#45;&gt;Node19 -->
<g id="edge18" class="edge">
<title>Node1&#45;&gt;Node19</title>
<path fill="none" stroke="midnightblue" d="M2506.51,-67.56C2586.97,-59.26 2712.39,-45.86 2831.01,-31.1"/>
<polygon fill="midnightblue" stroke="midnightblue" points="2831.5,-34.57 2840.99,-29.85 2830.63,-27.62 2831.5,-34.57"/>
</g>
<!-- Node20 -->
<g id="node20" class="node">
<title>Node20</title>
<g id="a_node20"><a xlink:title=" ">
<polygon fill="white" stroke="#bfbfbf" points="3047,-0.5 3047,-30.5 3193,-30.5 3193,-0.5 3047,-0.5"/>
<text text-anchor="start" x="3055" y="-18.5" font-family="Helvetica,sans-Serif" font-size="10.00">user_functions/OneTwoTen</text>
<text text-anchor="middle" x="3120" y="-7.5" font-family="Helvetica,sans-Serif" font-size="10.00">VelocityAuxFunction.h</text>
</a>
</g>
</g>
<!-- Node1&#45;&gt;Node20 -->
<g id="edge19" class="edge">
<title>Node1&#45;&gt;Node20</title>
<path fill="none" stroke="midnightblue" d="M2506.82,-72.58C2623.41,-67.21 2841.3,-55 3036.57,-31.09"/>
<polygon fill="midnightblue" stroke="midnightblue" points="3037.24,-34.54 3046.74,-29.84 3036.38,-27.59 3037.24,-34.54"/>
</g>
<!-- Node21 -->
<g id="node21" class="node">
<title>Node21</title>
<g id="a_node21"><a xlink:title=" ">
<polygon fill="white" stroke="#bfbfbf" points="3211.5,-0.5 3211.5,-30.5 3342.5,-30.5 3342.5,-0.5 3211.5,-0.5"/>
<text text-anchor="start" x="3219.5" y="-18.5" font-family="Helvetica,sans-Serif" font-size="10.00">stk_util/parallel/Parallel</text>
<text text-anchor="middle" x="3277" y="-7.5" font-family="Helvetica,sans-Serif" font-size="10.00">Reduce.hpp</text>
</a>
</g>
</g>
<!-- Node1&#45;&gt;Node21 -->
<g id="edge20" class="edge">
<title>Node1&#45;&gt;Node21</title>
<path fill="none" stroke="midnightblue" d="M2506.63,-74.82C2647.82,-72.02 2942.52,-62.72 3201.27,-30.97"/>
<polygon fill="midnightblue" stroke="midnightblue" points="3201.74,-34.43 3211.23,-29.73 3200.87,-27.49 3201.74,-34.43"/>
</g>
<!-- Node22 -->
<g id="node22" class="node">
<title>Node22</title>
<g id="a_node22"><a xlink:title=" ">
<polygon fill="white" stroke="#bfbfbf" points="3360.5,-6 3360.5,-25 3519.5,-25 3519.5,-6 3360.5,-6"/>
<text text-anchor="middle" x="3440" y="-13" font-family="Helvetica,sans-Serif" font-size="10.00">stk_mesh/base/BulkData.hpp</text>
</a>
</g>
</g>
<!-- Node1&#45;&gt;Node22 -->
<g id="edge21" class="edge">
<title>Node1&#45;&gt;Node22</title>
<path fill="none" stroke="midnightblue" d="M2506.52,-75.17C2669.53,-72.83 3041.3,-64.01 3352,-31 3362.5,-29.88 3373.65,-28.33 3384.36,-26.66"/>
<polygon fill="midnightblue" stroke="midnightblue" points="3385.15,-30.08 3394.46,-25.03 3384.03,-23.17 3385.15,-30.08"/>
</g>
<!-- Node23 -->
<g id="node23" class="node">
<title>Node23</title>
<g id="a_node23"><a xlink:title=" ">
<polygon fill="white" stroke="#bfbfbf" points="3537.5,-6 3537.5,-25 3674.5,-25 3674.5,-6 3537.5,-6"/>
<text text-anchor="middle" x="3606" y="-13" font-family="Helvetica,sans-Serif" font-size="10.00">stk_mesh/base/Field.hpp</text>
</a>
</g>
</g>
<!-- Node1&#45;&gt;Node23 -->
<g id="edge22" class="edge">
<title>Node1&#45;&gt;Node23</title>
<path fill="none" stroke="midnightblue" d="M2506.56,-76.74C2691.48,-77.46 3149.03,-74.27 3529,-31 3537.94,-29.98 3547.39,-28.52 3556.5,-26.92"/>
<polygon fill="midnightblue" stroke="midnightblue" points="3557.4,-30.31 3566.6,-25.06 3556.13,-23.43 3557.4,-30.31"/>
</g>
<!-- Node24 -->
<g id="node24" class="node">
<title>Node24</title>
<g id="a_node24"><a xlink:title=" ">
<polygon fill="white" stroke="#bfbfbf" points="3693,-6 3693,-25 3863,-25 3863,-6 3693,-6"/>
<text text-anchor="middle" x="3778" y="-13" font-family="Helvetica,sans-Serif" font-size="10.00">stk_mesh/base/GetBuckets.hpp</text>
</a>
</g>
</g>
<!-- Node1&#45;&gt;Node24 -->
<g id="edge23" class="edge">
<title>Node1&#45;&gt;Node24</title>
<path fill="none" stroke="midnightblue" d="M2506.59,-76.4C2709.08,-76.64 3241.83,-72.85 3684,-31 3695.57,-29.9 3707.88,-28.32 3719.66,-26.59"/>
<polygon fill="midnightblue" stroke="midnightblue" points="3720.47,-30 3729.83,-25.04 3719.42,-23.08 3720.47,-30"/>
</g>
<!-- Node25 -->
<g id="node25" class="node">
<title>Node25</title>
<g id="a_node25"><a xlink:title=" ">
<polygon fill="white" stroke="#bfbfbf" points="3881,-6 3881,-25 4043,-25 4043,-6 3881,-6"/>
<text text-anchor="middle" x="3962" y="-13" font-family="Helvetica,sans-Serif" font-size="10.00">stk_mesh/base/MetaData.hpp</text>
</a>
</g>
</g>
<!-- Node1&#45;&gt;Node25 -->
<g id="edge24" class="edge">
<title>Node1&#45;&gt;Node25</title>
<path fill="none" stroke="midnightblue" d="M2506.96,-74.81C2774.4,-70.81 3604.39,-56.61 3872,-31 3883.1,-29.94 3894.9,-28.36 3906.18,-26.64"/>
<polygon fill="midnightblue" stroke="midnightblue" points="3907.03,-30.05 3916.36,-25.02 3905.94,-23.13 3907.03,-30.05"/>
</g>
<!-- Node26 -->
<g id="node26" class="node">
<title>Node26</title>
<g id="a_node26"><a xlink:title=" ">
<polygon fill="white" stroke="#bfbfbf" points="4061.5,-6 4061.5,-25 4194.5,-25 4194.5,-6 4061.5,-6"/>
<text text-anchor="middle" x="4128" y="-13" font-family="Helvetica,sans-Serif" font-size="10.00">stk_mesh/base/Part.hpp</text>
</a>
</g>
</g>
<!-- Node1&#45;&gt;Node26 -->
<g id="edge25" class="edge">
<title>Node1&#45;&gt;Node26</title>
<path fill="none" stroke="midnightblue" d="M2506.63,-75.47C2795.16,-73.36 3747.88,-64 4052,-31 4061.12,-30.01 4070.78,-28.52 4080.05,-26.86"/>
<polygon fill="midnightblue" stroke="midnightblue" points="4080.72,-30.29 4089.91,-25.01 4079.43,-23.41 4080.72,-30.29"/>
</g>
<!-- Node27 -->
<g id="node27" class="node">
<title>Node27</title>
<g id="a_node27"><a xlink:title=" ">
<polygon fill="white" stroke="#bfbfbf" points="4212.5,-6 4212.5,-25 4277.5,-25 4277.5,-6 4212.5,-6"/>
<text text-anchor="middle" x="4245" y="-13" font-family="Helvetica,sans-Serif" font-size="10.00">stdexcept</text>
</a>
</g>
</g>
<!-- Node1&#45;&gt;Node27 -->
<g id="edge26" class="edge">
<title>Node1&#45;&gt;Node27</title>
<path fill="none" stroke="midnightblue" d="M2506.57,-75.43C2836.2,-72.97 4036.33,-61.96 4204,-31 4207.71,-30.32 4211.53,-29.35 4215.28,-28.23"/>
<polygon fill="midnightblue" stroke="midnightblue" points="4216.53,-31.5 4224.91,-25.02 4214.31,-24.86 4216.53,-31.5"/>
</g>
<!-- Node28 -->
<g id="node28" class="node">
<title>Node28</title>
<g id="a_node28"><a xlink:title=" ">
<polygon fill="white" stroke="#bfbfbf" points="4296,-6 4296,-25 4340,-25 4340,-6 4296,-6"/>
<text text-anchor="middle" x="4318" y="-13" font-family="Helvetica,sans-Serif" font-size="10.00">string</text>
</a>
</g>
</g>
<!-- Node1&#45;&gt;Node28 -->
<g id="edge27" class="edge">
<title>Node1&#45;&gt;Node28</title>
<path fill="none" stroke="midnightblue" d="M2506.5,-76C2845.95,-75.74 4112.6,-71.99 4287,-31 4289.21,-30.48 4291.45,-29.79 4293.66,-29"/>
<polygon fill="midnightblue" stroke="midnightblue" points="4295.16,-32.17 4303,-25.04 4292.43,-25.72 4295.16,-32.17"/>
</g>
<!-- Node29 -->
<g id="node29" class="node">
<title>Node29</title>
<g id="a_node29"><a xlink:title=" ">
<polygon fill="white" stroke="#bfbfbf" points="4358.5,-6 4358.5,-25 4413.5,-25 4413.5,-6 4358.5,-6"/>
<text text-anchor="middle" x="4386" y="-13" font-family="Helvetica,sans-Serif" font-size="10.00">fstream</text>
</a>
</g>
</g>
<!-- Node1&#45;&gt;Node29 -->
<g id="edge28" class="edge">
<title>Node1&#45;&gt;Node29</title>
<path fill="none" stroke="midnightblue" d="M2506.56,-75.76C2853.02,-74.56 4167.06,-67.58 4349,-31 4352.08,-30.38 4355.23,-29.52 4358.34,-28.53"/>
<polygon fill="midnightblue" stroke="midnightblue" points="4359.74,-31.75 4367.94,-25.03 4357.35,-25.17 4359.74,-31.75"/>
</g>
<!-- Node30 -->
<g id="node30" class="node">
<title>Node30</title>
<g id="a_node30"><a xlink:title=" ">
<polygon fill="white" stroke="#bfbfbf" points="4432,-6 4432,-25 4488,-25 4488,-6 4432,-6"/>
<text text-anchor="middle" x="4460" y="-13" font-family="Helvetica,sans-Serif" font-size="10.00">iomanip</text>
</a>
</g>
</g>
<!-- Node1&#45;&gt;Node30 -->
<g id="edge29" class="edge">
<title>Node1&#45;&gt;Node30</title>
<path fill="none" stroke="midnightblue" d="M2506.75,-75.84C2861.84,-74.94 4233.53,-69.01 4423,-31 4426.08,-30.38 4429.23,-29.53 4432.34,-28.53"/>
<polygon fill="midnightblue" stroke="midnightblue" points="4433.74,-31.75 4441.94,-25.04 4431.35,-25.17 4433.74,-31.75"/>
</g>
</g>
</svg>
        <g id="navigator" transform="translate(0 0)" fill="#404254">
                <rect fill="#f2f5e9" fill-opacity="0.5" stroke="#606060" stroke-width=".5" x="0" y="0" width="60" height="60"/>
                <use id="zoomplus" xlink:href="#zoomPlus" x="17" y="9" onmousedown="handleZoom(evt,'in')"/>
                <use id="zoomminus" xlink:href="#zoomMin" x="42" y="9" onmousedown="handleZoom(evt,'out')"/>
                <use id="reset" xlink:href="#resetDef" x="30" y="36" onmousedown="handleReset()"/>
                <g id="arrowUp" xlink:href="#dirArrow" transform="translate(30 24)" onmousedown="handlePan(0,-1)">
                  <use xlink:href="#rim" fill="#404040">
                        <set attributeName="fill" to="#808080" begin="arrowUp.mouseover" end="arrowUp.mouseout"/>
                  </use>
                  <path fill="none" stroke="white" stroke-width="1.5" d="M0,-3.0v7 M-2.5,-0.5L0,-3.0L2.5,-0.5"/>
                </g>
                <g id="arrowRight" xlink:href="#dirArrow" transform="rotate(90) translate(36 -43)" onmousedown="handlePan(1,0)">
                  <use xlink:href="#rim" fill="#404040">
                        <set attributeName="fill" to="#808080" begin="arrowRight.mouseover" end="arrowRight.mouseout"/>
                  </use>
                  <path fill="none" stroke="white" stroke-width="1.5" d="M0,-3.0v7 M-2.5,-0.5L0,-3.0L2.5,-0.5"/>
                </g>
                <g id="arrowDown" xlink:href="#dirArrow" transform="rotate(180) translate(-30 -48)" onmousedown="handlePan(0,1)">
                  <use xlink:href="#rim" fill="#404040">
                        <set attributeName="fill" to="#808080" begin="arrowDown.mouseover" end="arrowDown.mouseout"/>
                  </use>
                  <path fill="none" stroke="white" stroke-width="1.5" d="M0,-3.0v7 M-2.5,-0.5L0,-3.0L2.5,-0.5"/>
                </g>
                <g id="arrowLeft" xlink:href="#dirArrow" transform="rotate(270) translate(-36 17)" onmousedown="handlePan(-1,0)">
                  <use xlink:href="#rim" fill="#404040">
                        <set attributeName="fill" to="#808080" begin="arrowLeft.mouseover" end="arrowLeft.mouseout"/>
                  </use>
                  <path fill="none" stroke="white" stroke-width="1.5" d="M0,-3.0v7 M-2.5,-0.5L0,-3.0L2.5,-0.5"/>
                </g>
        </g>
        <svg viewBox="0 0 15 15" width="100%" height="30px" preserveAspectRatio="xMaxYMin meet">
         <g id="arrow_out" transform="scale(0.3 0.3)">
          <a xlink:href="_solution_norm_post_processing_8_c__incl_org.svg" target="_base">
           <rect id="button" ry="5" rx="5" y="6" x="6" height="38" width="38"
                fill="#f2f5e9" fill-opacity="0.5" stroke="#606060" stroke-width="1.0"/>
           <path id="arrow"
             d="M 11.500037,31.436501 C 11.940474,20.09759 22.043105,11.32322 32.158766,21.979434 L 37.068811,17.246167 C 37.068811,17.246167 37.088388,32 37.088388,32 L 22.160133,31.978069 C 22.160133,31.978069 26.997745,27.140456 26.997745,27.140456 C 18.528582,18.264221 13.291696,25.230495 11.500037,31.436501 z"
             style="fill:#404040;"/>
          </a>
         </g>
        </svg>
</svg>
