<?xml version="1.0" encoding="UTF-8" standalone="no"?>
<!DOCTYPE svg PUBLIC "-//W3C//DTD SVG 1.1//EN"
 "http://www.w3.org/Graphics/SVG/1.1/DTD/svg11.dtd">
<!-- Generated by graphviz version 2.43.0 (0)
 -->
<!-- Title: SpecificHeatPropertyEvaluator.C Pages: 1 -->
<svg width="1236pt" height="95pt"
 viewBox="0.00 0.00 1235.50 95.00" xmlns="http://www.w3.org/2000/svg" xmlns:xlink="http://www.w3.org/1999/xlink">
<g id="graph0" class="graph" transform="scale(1 1) rotate(0) translate(4 91)">
<title>SpecificHeatPropertyEvaluator.C</title>
<polygon fill="white" stroke="transparent" points="-4,4 -4,-91 1231.5,-91 1231.5,4 -4,4"/>
<!-- Node1 -->
<g id="node1" class="node">
<title>Node1</title>
<g id="a_node1"><a xlink:title=" ">
<polygon fill="#bfbfbf" stroke="black" points="572,-67.5 572,-86.5 746,-86.5 746,-67.5 572,-67.5"/>
<text text-anchor="middle" x="659" y="-74.5" font-family="Helvetica,sans-Serif" font-size="10.00">SpecificHeatPropertyEvaluator.C</text>
</a>
</g>
</g>
<!-- Node2 -->
<g id="node2" class="node">
<title>Node2</title>
<g id="a_node2"><a xlink:title=" ">
<polygon fill="white" stroke="#bfbfbf" points="0,-0.5 0,-30.5 176,-30.5 176,-0.5 0,-0.5"/>
<text text-anchor="start" x="8" y="-18.5" font-family="Helvetica,sans-Serif" font-size="10.00">property_evaluator</text>
<text text-anchor="middle" x="88" y="-7.5" font-family="Helvetica,sans-Serif" font-size="10.00">/SpecificHeatPropertyEvaluator.h</text>
</a>
</g>
</g>
<!-- Node1&#45;&gt;Node2 -->
<g id="edge1" class="edge">
<title>Node1&#45;&gt;Node2</title>
<path fill="none" stroke="midnightblue" d="M571.92,-69.14C478.96,-61.51 327.09,-48.1 186.13,-31.1"/>
<polygon fill="midnightblue" stroke="midnightblue" points="186.35,-27.6 176,-29.87 185.51,-34.55 186.35,-27.6"/>
</g>
<!-- Node3 -->
<g id="node3" class="node">
<title>Node3</title>
<g id="a_node3"><a xlink:title=" ">
<polygon fill="white" stroke="#bfbfbf" points="194,-0.5 194,-30.5 364,-30.5 364,-0.5 194,-0.5"/>
<text text-anchor="start" x="202" y="-18.5" font-family="Helvetica,sans-Serif" font-size="10.00">property_evaluator</text>
<text text-anchor="middle" x="279" y="-7.5" font-family="Helvetica,sans-Serif" font-size="10.00">/PolynomialPropertyEvaluator.h</text>
</a>
</g>
</g>
<!-- Node1&#45;&gt;Node3 -->
<g id="edge2" class="edge">
<title>Node1&#45;&gt;Node3</title>
<path fill="none" stroke="midnightblue" d="M604.56,-67.48C544.58,-58.08 447,-42.81 374.29,-31.42"/>
<polygon fill="midnightblue" stroke="midnightblue" points="374.62,-27.93 364.2,-29.84 373.54,-34.85 374.62,-27.93"/>
</g>
<!-- Node4 -->
<g id="node4" class="node">
<title>Node4</title>
<g id="a_node4"><a xlink:title=" ">
<polygon fill="white" stroke="#bfbfbf" points="382.5,-0.5 382.5,-30.5 525.5,-30.5 525.5,-0.5 382.5,-0.5"/>
<text text-anchor="start" x="390.5" y="-18.5" font-family="Helvetica,sans-Serif" font-size="10.00">property_evaluator</text>
<text text-anchor="middle" x="454" y="-7.5" font-family="Helvetica,sans-Serif" font-size="10.00">/ReferencePropertyData.h</text>
</a>
</g>
</g>
<!-- Node1&#45;&gt;Node4 -->
<g id="edge3" class="edge">
<title>Node1&#45;&gt;Node4</title>
<path fill="none" stroke="midnightblue" d="M629.63,-67.48C599.14,-58.63 550.64,-44.55 512.32,-33.43"/>
<polygon fill="midnightblue" stroke="midnightblue" points="512.89,-29.95 502.31,-30.52 510.94,-36.67 512.89,-29.95"/>
</g>
<!-- Node5 -->
<g id="node5" class="node">
<title>Node5</title>
<g id="a_node5"><a xlink:title=" ">
<polygon fill="white" stroke="#bfbfbf" points="544,-6 544,-25 632,-25 632,-6 544,-6"/>
<text text-anchor="middle" x="588" y="-13" font-family="Helvetica,sans-Serif" font-size="10.00">FieldTypeDef.h</text>
</a>
</g>
</g>
<!-- Node1&#45;&gt;Node5 -->
<g id="edge4" class="edge">
<title>Node1&#45;&gt;Node5</title>
<path fill="none" stroke="midnightblue" d="M648.83,-67.48C637.65,-58.11 619.48,-42.88 605.91,-31.51"/>
<polygon fill="midnightblue" stroke="midnightblue" points="608.07,-28.75 598.15,-25.01 603.57,-34.11 608.07,-28.75"/>
</g>
<!-- Node6 -->
<g id="node6" class="node">
<title>Node6</title>
<g id="a_node6"><a xlink:title=" ">
<polygon fill="white" stroke="#bfbfbf" points="650,-6 650,-25 812,-25 812,-6 650,-6"/>
<text text-anchor="middle" x="731" y="-13" font-family="Helvetica,sans-Serif" font-size="10.00">stk_mesh/base/MetaData.hpp</text>
</a>
</g>
</g>
<!-- Node1&#45;&gt;Node6 -->
<g id="edge5" class="edge">
<title>Node1&#45;&gt;Node6</title>
<path fill="none" stroke="midnightblue" d="M669.32,-67.48C680.65,-58.11 699.07,-42.88 712.84,-31.51"/>
<polygon fill="midnightblue" stroke="midnightblue" points="715.22,-34.08 720.7,-25.01 710.77,-28.68 715.22,-34.08"/>
</g>
<!-- Node7 -->
<g id="node7" class="node">
<title>Node7</title>
<g id="a_node7"><a xlink:title=" ">
<polygon fill="white" stroke="#bfbfbf" points="830.5,-6 830.5,-25 989.5,-25 989.5,-6 830.5,-6"/>
<text text-anchor="middle" x="910" y="-13" font-family="Helvetica,sans-Serif" font-size="10.00">stk_mesh/base/BulkData.hpp</text>
</a>
</g>
</g>
<!-- Node1&#45;&gt;Node7 -->
<g id="edge6" class="edge">
<title>Node1&#45;&gt;Node7</title>
<path fill="none" stroke="midnightblue" d="M694.96,-67.48C739.51,-56.92 815.46,-38.91 864.15,-27.37"/>
<polygon fill="midnightblue" stroke="midnightblue" points="865.18,-30.72 874.1,-25.01 863.57,-23.91 865.18,-30.72"/>
</g>
<!-- Node8 -->
<g id="node8" class="node">
<title>Node8</title>
<g id="a_node8"><a xlink:title=" ">
<polygon fill="white" stroke="#bfbfbf" points="1007.5,-6 1007.5,-25 1144.5,-25 1144.5,-6 1007.5,-6"/>
<text text-anchor="middle" x="1076" y="-13" font-family="Helvetica,sans-Serif" font-size="10.00">stk_mesh/base/Field.hpp</text>
</a>
</g>
</g>
<!-- Node1&#45;&gt;Node8 -->
<g id="edge7" class="edge">
<title>Node1&#45;&gt;Node8</title>
<path fill="none" stroke="midnightblue" d="M732.12,-67.49C801.09,-59.19 907.28,-45.69 999,-31 1006.74,-29.76 1014.91,-28.34 1022.9,-26.89"/>
<polygon fill="midnightblue" stroke="midnightblue" points="1023.71,-30.3 1032.9,-25.04 1022.43,-23.42 1023.71,-30.3"/>
</g>
<!-- Node9 -->
<g id="node9" class="node">
<title>Node9</title>
<g id="a_node9"><a xlink:title=" ">
<polygon fill="white" stroke="#bfbfbf" points="1162.5,-6 1162.5,-25 1227.5,-25 1227.5,-6 1162.5,-6"/>
<text text-anchor="middle" x="1195" y="-13" font-family="Helvetica,sans-Serif" font-size="10.00">stdexcept</text>
</a>
</g>
</g>
<!-- Node1&#45;&gt;Node9 -->
<g id="edge8" class="edge">
<title>Node1&#45;&gt;Node9</title>
<path fill="none" stroke="midnightblue" d="M746.29,-74.61C845.97,-71.53 1013.43,-61.74 1154,-31 1157.42,-30.25 1160.95,-29.3 1164.44,-28.24"/>
<polygon fill="midnightblue" stroke="midnightblue" points="1165.63,-31.53 1174.01,-25.05 1163.42,-24.89 1165.63,-31.53"/>
</g>
</g>
</svg>
