<?xml version="1.0" encoding="UTF-8" standalone="no"?>
<!DOCTYPE svg PUBLIC "-//W3C//DTD SVG 1.1//EN"
 "http://www.w3.org/Graphics/SVG/1.1/DTD/svg11.dtd">
<!-- Generated by graphviz version 2.43.0 (0)
 -->
<!-- Title: SteadyTaylorVortexMomentumSrcNodeSuppAlg.C Pages: 1 -->
<svg width="1333pt" height="106pt"
 viewBox="0.00 0.00 1332.50 106.00" xmlns="http://www.w3.org/2000/svg" xmlns:xlink="http://www.w3.org/1999/xlink">
<g id="graph0" class="graph" transform="scale(1 1) rotate(0) translate(4 102)">
<title>SteadyTaylorVortexMomentumSrcNodeSuppAlg.C</title>
<polygon fill="white" stroke="transparent" points="-4,4 -4,-102 1328.5,-102 1328.5,4 -4,4"/>
<!-- Node1 -->
<g id="node1" class="node">
<title>Node1</title>
<g id="a_node1"><a xlink:title=" ">
<polygon fill="#bfbfbf" stroke="black" points="519.5,-67.5 519.5,-97.5 686.5,-97.5 686.5,-67.5 519.5,-67.5"/>
<text text-anchor="start" x="527.5" y="-85.5" font-family="Helvetica,sans-Serif" font-size="10.00">SteadyTaylorVortexMomentum</text>
<text text-anchor="middle" x="603" y="-74.5" font-family="Helvetica,sans-Serif" font-size="10.00">SrcNodeSuppAlg.C</text>
</a>
</g>
</g>
<!-- Node2 -->
<g id="node2" class="node">
<title>Node2</title>
<g id="a_node2"><a xlink:title=" ">
<polygon fill="white" stroke="#bfbfbf" points="0,-0.5 0,-30.5 194,-30.5 194,-0.5 0,-0.5"/>
<text text-anchor="start" x="8" y="-18.5" font-family="Helvetica,sans-Serif" font-size="10.00">user_functions/SteadyTaylor</text>
<text text-anchor="middle" x="97" y="-7.5" font-family="Helvetica,sans-Serif" font-size="10.00">VortexMomentumSrcNodeSuppAlg.h</text>
</a>
</g>
</g>
<!-- Node1&#45;&gt;Node2 -->
<g id="edge1" class="edge">
<title>Node1&#45;&gt;Node2</title>
<path fill="none" stroke="midnightblue" d="M519.46,-71.21C440.81,-61.46 319.41,-46.27 204.11,-31.14"/>
<polygon fill="midnightblue" stroke="midnightblue" points="204.41,-27.65 194.04,-29.82 203.5,-34.59 204.41,-27.65"/>
</g>
<!-- Node3 -->
<g id="node3" class="node">
<title>Node3</title>
<g id="a_node3"><a xlink:title=" ">
<polygon fill="white" stroke="#bfbfbf" points="212.5,-6 212.5,-25 353.5,-25 353.5,-6 212.5,-6"/>
<text text-anchor="middle" x="283" y="-13" font-family="Helvetica,sans-Serif" font-size="10.00">SupplementalAlgorithm.h</text>
</a>
</g>
</g>
<!-- Node1&#45;&gt;Node3 -->
<g id="edge2" class="edge">
<title>Node1&#45;&gt;Node3</title>
<path fill="none" stroke="midnightblue" d="M533.96,-67.48C474.24,-55.34 389.2,-38.07 335.06,-27.07"/>
<polygon fill="midnightblue" stroke="midnightblue" points="335.48,-23.59 324.99,-25.03 334.09,-30.45 335.48,-23.59"/>
</g>
<!-- Node4 -->
<g id="node4" class="node">
<title>Node4</title>
<g id="a_node4"><a xlink:title=" ">
<polygon fill="white" stroke="#bfbfbf" points="372,-6 372,-25 460,-25 460,-6 372,-6"/>
<text text-anchor="middle" x="416" y="-13" font-family="Helvetica,sans-Serif" font-size="10.00">FieldTypeDef.h</text>
</a>
</g>
</g>
<!-- Node1&#45;&gt;Node4 -->
<g id="edge3" class="edge">
<title>Node1&#45;&gt;Node4</title>
<path fill="none" stroke="midnightblue" d="M562.42,-67.4C528.89,-55.74 481.8,-39.37 450.17,-28.38"/>
<polygon fill="midnightblue" stroke="midnightblue" points="451.07,-24.98 440.47,-25.01 448.77,-31.6 451.07,-24.98"/>
</g>
<!-- Node5 -->
<g id="node5" class="node">
<title>Node5</title>
<g id="a_node5"><a xlink:title=" ">
<polygon fill="white" stroke="#bfbfbf" points="478.5,-6 478.5,-25 535.5,-25 535.5,-6 478.5,-6"/>
<text text-anchor="middle" x="507" y="-13" font-family="Helvetica,sans-Serif" font-size="10.00">Realm.h</text>
</a>
</g>
</g>
<!-- Node1&#45;&gt;Node5 -->
<g id="edge4" class="edge">
<title>Node1&#45;&gt;Node5</title>
<path fill="none" stroke="midnightblue" d="M582.17,-67.4C566.22,-56.6 544.3,-41.76 528.25,-30.89"/>
<polygon fill="midnightblue" stroke="midnightblue" points="529.81,-27.72 519.56,-25.01 525.88,-33.51 529.81,-27.72"/>
</g>
<!-- Node6 -->
<g id="node6" class="node">
<title>Node6</title>
<g id="a_node6"><a xlink:title=" ">
<polygon fill="white" stroke="#bfbfbf" points="554,-6 554,-25 652,-25 652,-6 554,-6"/>
<text text-anchor="middle" x="603" y="-13" font-family="Helvetica,sans-Serif" font-size="10.00">TimeIntegrator.h</text>
</a>
</g>
</g>
<!-- Node1&#45;&gt;Node6 -->
<g id="edge5" class="edge">
<title>Node1&#45;&gt;Node6</title>
<path fill="none" stroke="midnightblue" d="M603,-67.4C603,-58.06 603,-45.71 603,-35.52"/>
<polygon fill="midnightblue" stroke="midnightblue" points="606.5,-35.19 603,-25.19 599.5,-35.19 606.5,-35.19"/>
</g>
<!-- Node7 -->
<g id="node7" class="node">
<title>Node7</title>
<g id="a_node7"><a xlink:title=" ">
<polygon fill="white" stroke="#bfbfbf" points="670.5,-6 670.5,-25 811.5,-25 811.5,-6 670.5,-6"/>
<text text-anchor="middle" x="741" y="-13" font-family="Helvetica,sans-Serif" font-size="10.00">stk_mesh/base/Entity.hpp</text>
</a>
</g>
</g>
<!-- Node1&#45;&gt;Node7 -->
<g id="edge6" class="edge">
<title>Node1&#45;&gt;Node7</title>
<path fill="none" stroke="midnightblue" d="M632.94,-67.4C656.94,-56.09 690.34,-40.36 713.63,-29.39"/>
<polygon fill="midnightblue" stroke="midnightblue" points="715.38,-32.43 722.94,-25.01 712.4,-26.1 715.38,-32.43"/>
</g>
<!-- Node8 -->
<g id="node8" class="node">
<title>Node8</title>
<g id="a_node8"><a xlink:title=" ">
<polygon fill="white" stroke="#bfbfbf" points="830,-6 830,-25 992,-25 992,-6 830,-6"/>
<text text-anchor="middle" x="911" y="-13" font-family="Helvetica,sans-Serif" font-size="10.00">stk_mesh/base/MetaData.hpp</text>
</a>
</g>
</g>
<!-- Node1&#45;&gt;Node8 -->
<g id="edge7" class="edge">
<title>Node1&#45;&gt;Node8</title>
<path fill="none" stroke="midnightblue" d="M669.45,-67.48C726.82,-55.37 808.45,-38.14 860.57,-27.14"/>
<polygon fill="midnightblue" stroke="midnightblue" points="861.53,-30.52 870.59,-25.03 860.08,-23.67 861.53,-30.52"/>
</g>
<!-- Node9 -->
<g id="node9" class="node">
<title>Node9</title>
<g id="a_node9"><a xlink:title=" ">
<polygon fill="white" stroke="#bfbfbf" points="1010.5,-6 1010.5,-25 1169.5,-25 1169.5,-6 1010.5,-6"/>
<text text-anchor="middle" x="1090" y="-13" font-family="Helvetica,sans-Serif" font-size="10.00">stk_mesh/base/BulkData.hpp</text>
</a>
</g>
</g>
<!-- Node1&#45;&gt;Node9 -->
<g id="edge8" class="edge">
<title>Node1&#45;&gt;Node9</title>
<path fill="none" stroke="midnightblue" d="M686.59,-71.76C767.2,-62.17 892.6,-46.7 1001,-31 1010.31,-29.65 1020.16,-28.14 1029.78,-26.61"/>
<polygon fill="midnightblue" stroke="midnightblue" points="1030.37,-30.06 1039.69,-25.02 1029.26,-23.15 1030.37,-30.06"/>
</g>
<!-- Node10 -->
<g id="node10" class="node">
<title>Node10</title>
<g id="a_node10"><a xlink:title=" ">
<polygon fill="white" stroke="#bfbfbf" points="1187.5,-6 1187.5,-25 1324.5,-25 1324.5,-6 1187.5,-6"/>
<text text-anchor="middle" x="1256" y="-13" font-family="Helvetica,sans-Serif" font-size="10.00">stk_mesh/base/Field.hpp</text>
</a>
</g>
</g>
<!-- Node1&#45;&gt;Node10 -->
<g id="edge9" class="edge">
<title>Node1&#45;&gt;Node10</title>
<path fill="none" stroke="midnightblue" d="M686.75,-76.76C799.12,-69.8 1004.72,-54.99 1179,-31 1187.43,-29.84 1196.33,-28.38 1204.98,-26.84"/>
<polygon fill="midnightblue" stroke="midnightblue" points="1205.76,-30.25 1214.96,-25 1204.49,-23.37 1205.76,-30.25"/>
</g>
</g>
</svg>
