<?xml version="1.0" encoding="UTF-8" standalone="no"?>
<!DOCTYPE svg PUBLIC "-//W3C//DTD SVG 1.1//EN"
 "http://www.w3.org/Graphics/SVG/1.1/DTD/svg11.dtd">
<!-- Generated by graphviz version 2.43.0 (0)
 -->
<!-- Title: SteadyTaylorVortexGradPressureAuxFunction.C Pages: 1 -->
<svg width="486pt" height="106pt"
 viewBox="0.00 0.00 485.50 106.00" xmlns="http://www.w3.org/2000/svg" xmlns:xlink="http://www.w3.org/1999/xlink">
<g id="graph0" class="graph" transform="scale(1 1) rotate(0) translate(4 102)">
<title>SteadyTaylorVortexGradPressureAuxFunction.C</title>
<polygon fill="white" stroke="transparent" points="-4,4 -4,-102 481.5,-102 481.5,4 -4,4"/>
<!-- Node1 -->
<g id="node1" class="node">
<title>Node1</title>
<g id="a_node1"><a xlink:title=" ">
<polygon fill="#bfbfbf" stroke="black" points="218,-67.5 218,-97.5 394,-97.5 394,-67.5 218,-67.5"/>
<text text-anchor="start" x="226" y="-85.5" font-family="Helvetica,sans-Serif" font-size="10.00">SteadyTaylorVortexGradPressure</text>
<text text-anchor="middle" x="306" y="-74.5" font-family="Helvetica,sans-Serif" font-size="10.00">AuxFunction.C</text>
</a>
</g>
</g>
<!-- Node2 -->
<g id="node2" class="node">
<title>Node2</title>
<g id="a_node2"><a xlink:title=" ">
<polygon fill="white" stroke="#bfbfbf" points="0,-0.5 0,-30.5 182,-30.5 182,-0.5 0,-0.5"/>
<text text-anchor="start" x="8" y="-18.5" font-family="Helvetica,sans-Serif" font-size="10.00">user_functions/SteadyTaylor</text>
<text text-anchor="middle" x="91" y="-7.5" font-family="Helvetica,sans-Serif" font-size="10.00">VortexGradPressureAuxFunction.h</text>
</a>
</g>
</g>
<!-- Node1&#45;&gt;Node2 -->
<g id="edge1" class="edge">
<title>Node1&#45;&gt;Node2</title>
<path fill="none" stroke="midnightblue" d="M259.61,-67.48C226.66,-57.51 182.25,-44.09 147.27,-33.51"/>
<polygon fill="midnightblue" stroke="midnightblue" points="148.26,-30.15 137.67,-30.61 146.23,-36.86 148.26,-30.15"/>
</g>
<!-- Node3 -->
<g id="node3" class="node">
<title>Node3</title>
<g id="a_node3"><a xlink:title=" ">
<polygon fill="white" stroke="#bfbfbf" points="200,-6 200,-25 264,-25 264,-6 200,-6"/>
<text text-anchor="middle" x="232" y="-13" font-family="Helvetica,sans-Serif" font-size="10.00">algorithm</text>
</a>
</g>
</g>
<!-- Node1&#45;&gt;Node3 -->
<g id="edge2" class="edge">
<title>Node1&#45;&gt;Node3</title>
<path fill="none" stroke="midnightblue" d="M289.94,-67.4C278.06,-56.96 261.89,-42.75 249.64,-32"/>
<polygon fill="midnightblue" stroke="midnightblue" points="251.72,-29.16 241.9,-25.19 247.1,-34.42 251.72,-29.16"/>
</g>
<!-- Node4 -->
<g id="node4" class="node">
<title>Node4</title>
<g id="a_node4"><a xlink:title=" ">
<polygon fill="white" stroke="#bfbfbf" points="282.5,-6 282.5,-25 329.5,-25 329.5,-6 282.5,-6"/>
<text text-anchor="middle" x="306" y="-13" font-family="Helvetica,sans-Serif" font-size="10.00">cmath</text>
</a>
</g>
</g>
<!-- Node1&#45;&gt;Node4 -->
<g id="edge3" class="edge">
<title>Node1&#45;&gt;Node4</title>
<path fill="none" stroke="midnightblue" d="M306,-67.4C306,-58.06 306,-45.71 306,-35.52"/>
<polygon fill="midnightblue" stroke="midnightblue" points="309.5,-35.19 306,-25.19 302.5,-35.19 309.5,-35.19"/>
</g>
<!-- Node5 -->
<g id="node5" class="node">
<title>Node5</title>
<g id="a_node5"><a xlink:title=" ">
<polygon fill="white" stroke="#bfbfbf" points="347.5,-6 347.5,-25 394.5,-25 394.5,-6 347.5,-6"/>
<text text-anchor="middle" x="371" y="-13" font-family="Helvetica,sans-Serif" font-size="10.00">vector</text>
</a>
</g>
</g>
<!-- Node1&#45;&gt;Node5 -->
<g id="edge4" class="edge">
<title>Node1&#45;&gt;Node5</title>
<path fill="none" stroke="midnightblue" d="M320.1,-67.4C330.44,-57.06 344.48,-43.02 355.19,-32.31"/>
<polygon fill="midnightblue" stroke="midnightblue" points="357.71,-34.74 362.31,-25.19 352.76,-29.79 357.71,-34.74"/>
</g>
<!-- Node6 -->
<g id="node6" class="node">
<title>Node6</title>
<g id="a_node6"><a xlink:title=" ">
<polygon fill="white" stroke="#bfbfbf" points="412.5,-6 412.5,-25 477.5,-25 477.5,-6 412.5,-6"/>
<text text-anchor="middle" x="445" y="-13" font-family="Helvetica,sans-Serif" font-size="10.00">stdexcept</text>
</a>
</g>
</g>
<!-- Node1&#45;&gt;Node6 -->
<g id="edge5" class="edge">
<title>Node1&#45;&gt;Node6</title>
<path fill="none" stroke="midnightblue" d="M336.16,-67.4C360.44,-56.04 394.28,-40.22 417.75,-29.24"/>
<polygon fill="midnightblue" stroke="midnightblue" points="419.23,-32.41 426.81,-25.01 416.27,-26.07 419.23,-32.41"/>
</g>
</g>
</svg>
