<?xml version="1.0" encoding="UTF-8" standalone="no"?>
<!DOCTYPE svg PUBLIC "-//W3C//DTD SVG 1.1//EN"
 "http://www.w3.org/Graphics/SVG/1.1/DTD/svg11.dtd">
<!-- Generated by graphviz version 2.43.0 (0)
 -->
<!-- Title: StkToTpetraMap.C Pages: 1 -->
<svg width="1482pt" height="95pt"
 viewBox="0.00 0.00 1481.50 95.00" xmlns="http://www.w3.org/2000/svg" xmlns:xlink="http://www.w3.org/1999/xlink">
<g id="graph0" class="graph" transform="scale(1 1) rotate(0) translate(4 91)">
<title>StkToTpetraMap.C</title>
<polygon fill="white" stroke="transparent" points="-4,4 -4,-91 1477.5,-91 1477.5,4 -4,4"/>
<!-- Node1 -->
<g id="node1" class="node">
<title>Node1</title>
<g id="a_node1"><a xlink:title=" ">
<polygon fill="#bfbfbf" stroke="black" points="680.5,-67.5 680.5,-86.5 785.5,-86.5 785.5,-67.5 680.5,-67.5"/>
<text text-anchor="middle" x="733" y="-74.5" font-family="Helvetica,sans-Serif" font-size="10.00">StkToTpetraMap.C</text>
</a>
</g>
</g>
<!-- Node2 -->
<g id="node2" class="node">
<title>Node2</title>
<g id="a_node2"><a xlink:title=" ">
<polygon fill="white" stroke="#bfbfbf" points="0,-6 0,-25 164,-25 164,-6 0,-6"/>
<text text-anchor="middle" x="82" y="-13" font-family="Helvetica,sans-Serif" font-size="10.00">matrix_free/StkToTpetraMap.h</text>
</a>
</g>
</g>
<!-- Node1&#45;&gt;Node2 -->
<g id="edge1" class="edge">
<title>Node1&#45;&gt;Node2</title>
<path fill="none" stroke="midnightblue" d="M680.36,-73.14C580.97,-67.44 358.94,-53.25 173,-31 162.65,-29.76 151.67,-28.21 141.05,-26.59"/>
<polygon fill="midnightblue" stroke="midnightblue" points="141.44,-23.11 131.02,-25.03 140.36,-30.03 141.44,-23.11"/>
</g>
<!-- Node3 -->
<g id="node3" class="node">
<title>Node3</title>
<g id="a_node3"><a xlink:title=" ">
<polygon fill="white" stroke="#bfbfbf" points="182,-6 182,-25 358,-25 358,-6 182,-6"/>
<text text-anchor="middle" x="270" y="-13" font-family="Helvetica,sans-Serif" font-size="10.00">matrix_free/StkToTpetraComm.h</text>
</a>
</g>
</g>
<!-- Node1&#45;&gt;Node3 -->
<g id="edge2" class="edge">
<title>Node1&#45;&gt;Node3</title>
<path fill="none" stroke="midnightblue" d="M680.21,-69.95C609.03,-61.68 478.33,-46.16 367,-31 356.77,-29.61 345.95,-28.06 335.38,-26.51"/>
<polygon fill="midnightblue" stroke="midnightblue" points="335.77,-23.03 325.36,-25.03 334.74,-29.96 335.77,-23.03"/>
</g>
<!-- Node4 -->
<g id="node4" class="node">
<title>Node4</title>
<g id="a_node4"><a xlink:title=" ">
<polygon fill="white" stroke="#bfbfbf" points="376,-0.5 376,-30.5 536,-30.5 536,-0.5 376,-0.5"/>
<text text-anchor="start" x="384" y="-18.5" font-family="Helvetica,sans-Serif" font-size="10.00">matrix_free/StkToTpetraLocal</text>
<text text-anchor="middle" x="456" y="-7.5" font-family="Helvetica,sans-Serif" font-size="10.00">Indices.h</text>
</a>
</g>
</g>
<!-- Node1&#45;&gt;Node4 -->
<g id="edge3" class="edge">
<title>Node1&#45;&gt;Node4</title>
<path fill="none" stroke="midnightblue" d="M693.31,-67.48C651.15,-58.42 583.5,-43.89 531.19,-32.65"/>
<polygon fill="midnightblue" stroke="midnightblue" points="531.8,-29.2 521.28,-30.52 530.33,-36.05 531.8,-29.2"/>
</g>
<!-- Node5 -->
<g id="node5" class="node">
<title>Node5</title>
<g id="a_node5"><a xlink:title=" ">
<polygon fill="white" stroke="#bfbfbf" points="554,-6 554,-25 658,-25 658,-6 554,-6"/>
<text text-anchor="middle" x="606" y="-13" font-family="Helvetica,sans-Serif" font-size="10.00">KokkosInterface.h</text>
</a>
</g>
</g>
<!-- Node1&#45;&gt;Node5 -->
<g id="edge4" class="edge">
<title>Node1&#45;&gt;Node5</title>
<path fill="none" stroke="midnightblue" d="M714.8,-67.48C693.49,-57.49 657.97,-40.85 633.34,-29.31"/>
<polygon fill="midnightblue" stroke="midnightblue" points="634.7,-26.08 624.16,-25.01 631.73,-32.42 634.7,-26.08"/>
</g>
<!-- Node6 -->
<g id="node6" class="node">
<title>Node6</title>
<g id="a_node6"><a xlink:title=" ">
<polygon fill="white" stroke="#bfbfbf" points="676.5,-6 676.5,-25 789.5,-25 789.5,-6 676.5,-6"/>
<text text-anchor="middle" x="733" y="-13" font-family="Helvetica,sans-Serif" font-size="10.00">Kokkos_Macros.hpp</text>
</a>
</g>
</g>
<!-- Node1&#45;&gt;Node6 -->
<g id="edge5" class="edge">
<title>Node1&#45;&gt;Node6</title>
<path fill="none" stroke="midnightblue" d="M733,-67.48C733,-59.08 733,-45.98 733,-35.16"/>
<polygon fill="midnightblue" stroke="midnightblue" points="736.5,-35.01 733,-25.01 729.5,-35.01 736.5,-35.01"/>
</g>
<!-- Node7 -->
<g id="node7" class="node">
<title>Node7</title>
<g id="a_node7"><a xlink:title=" ">
<polygon fill="white" stroke="#bfbfbf" points="807.5,-6 807.5,-25 904.5,-25 904.5,-6 807.5,-6"/>
<text text-anchor="middle" x="856" y="-13" font-family="Helvetica,sans-Serif" font-size="10.00">Kokkos_Sort.hpp</text>
</a>
</g>
</g>
<!-- Node1&#45;&gt;Node7 -->
<g id="edge6" class="edge">
<title>Node1&#45;&gt;Node7</title>
<path fill="none" stroke="midnightblue" d="M750.62,-67.48C771.17,-57.53 805.36,-40.99 829.21,-29.46"/>
<polygon fill="midnightblue" stroke="midnightblue" points="830.93,-32.51 838.41,-25.01 827.88,-26.21 830.93,-32.51"/>
</g>
<!-- Node8 -->
<g id="node8" class="node">
<title>Node8</title>
<g id="a_node8"><a xlink:title=" ">
<polygon fill="white" stroke="#bfbfbf" points="922.5,-6 922.5,-25 1115.5,-25 1115.5,-6 922.5,-6"/>
<text text-anchor="middle" x="1019" y="-13" font-family="Helvetica,sans-Serif" font-size="10.00">stk_mesh/base/NgpFieldParallel.hpp</text>
</a>
</g>
</g>
<!-- Node1&#45;&gt;Node8 -->
<g id="edge7" class="edge">
<title>Node1&#45;&gt;Node8</title>
<path fill="none" stroke="midnightblue" d="M773.98,-67.48C825.16,-56.83 912.73,-38.61 968.14,-27.08"/>
<polygon fill="midnightblue" stroke="midnightblue" points="969.02,-30.47 978.1,-25.01 967.6,-23.62 969.02,-30.47"/>
</g>
<!-- Node9 -->
<g id="node9" class="node">
<title>Node9</title>
<g id="a_node9"><a xlink:title=" ">
<polygon fill="white" stroke="#bfbfbf" points="1133.5,-6 1133.5,-25 1310.5,-25 1310.5,-6 1133.5,-6"/>
<text text-anchor="middle" x="1222" y="-13" font-family="Helvetica,sans-Serif" font-size="10.00">stk_mesh/base/GetNgpMesh.hpp</text>
</a>
</g>
</g>
<!-- Node1&#45;&gt;Node9 -->
<g id="edge8" class="edge">
<title>Node1&#45;&gt;Node9</title>
<path fill="none" stroke="midnightblue" d="M785.7,-70.53C861.02,-62.57 1003.78,-47.01 1125,-31 1135.36,-29.63 1146.33,-28.09 1157.02,-26.53"/>
<polygon fill="midnightblue" stroke="midnightblue" points="1157.77,-29.95 1167.16,-25.03 1156.75,-23.03 1157.77,-29.95"/>
</g>
<!-- Node10 -->
<g id="node10" class="node">
<title>Node10</title>
<g id="a_node10"><a xlink:title=" ">
<polygon fill="white" stroke="#bfbfbf" points="1328.5,-6 1328.5,-25 1473.5,-25 1473.5,-6 1328.5,-6"/>
<text text-anchor="middle" x="1401" y="-13" font-family="Helvetica,sans-Serif" font-size="10.00">stk_topology/topology.hpp</text>
</a>
</g>
</g>
<!-- Node1&#45;&gt;Node10 -->
<g id="edge9" class="edge">
<title>Node1&#45;&gt;Node10</title>
<path fill="none" stroke="midnightblue" d="M785.8,-73.74C888.84,-68.92 1123.81,-56.02 1320,-31 1329.05,-29.85 1338.63,-28.36 1347.91,-26.79"/>
<polygon fill="midnightblue" stroke="midnightblue" points="1348.58,-30.23 1357.83,-25.06 1347.37,-23.33 1348.58,-30.23"/>
</g>
</g>
</svg>
