<?xml version="1.0" encoding="UTF-8" standalone="no"?>
<!DOCTYPE svg PUBLIC "-//W3C//DTD SVG 1.1//EN"
 "http://www.w3.org/Graphics/SVG/1.1/DTD/svg11.dtd">
<!-- Generated by graphviz version 2.43.0 (0)
 -->
<!-- Title: StkToTpetraLocalIndices.C Pages: 1 -->
<svg width="1158pt" height="95pt"
 viewBox="0.00 0.00 1158.00 95.00" xmlns="http://www.w3.org/2000/svg" xmlns:xlink="http://www.w3.org/1999/xlink">
<g id="graph0" class="graph" transform="scale(1 1) rotate(0) translate(4 91)">
<title>StkToTpetraLocalIndices.C</title>
<polygon fill="white" stroke="transparent" points="-4,4 -4,-91 1154,-91 1154,4 -4,4"/>
<!-- Node1 -->
<g id="node1" class="node">
<title>Node1</title>
<g id="a_node1"><a xlink:title=" ">
<polygon fill="#bfbfbf" stroke="black" points="493,-67.5 493,-86.5 637,-86.5 637,-67.5 493,-67.5"/>
<text text-anchor="middle" x="565" y="-74.5" font-family="Helvetica,sans-Serif" font-size="10.00">StkToTpetraLocalIndices.C</text>
</a>
</g>
</g>
<!-- Node2 -->
<g id="node2" class="node">
<title>Node2</title>
<g id="a_node2"><a xlink:title=" ">
<polygon fill="white" stroke="#bfbfbf" points="0,-0.5 0,-30.5 160,-30.5 160,-0.5 0,-0.5"/>
<text text-anchor="start" x="8" y="-18.5" font-family="Helvetica,sans-Serif" font-size="10.00">matrix_free/StkToTpetraLocal</text>
<text text-anchor="middle" x="80" y="-7.5" font-family="Helvetica,sans-Serif" font-size="10.00">Indices.h</text>
</a>
</g>
</g>
<!-- Node1&#45;&gt;Node2 -->
<g id="edge1" class="edge">
<title>Node1&#45;&gt;Node2</title>
<path fill="none" stroke="midnightblue" d="M492.97,-68.87C415.68,-60.98 289.08,-47.38 170.05,-31.1"/>
<polygon fill="midnightblue" stroke="midnightblue" points="170.41,-27.62 160.03,-29.73 169.46,-34.56 170.41,-27.62"/>
</g>
<!-- Node3 -->
<g id="node3" class="node">
<title>Node3</title>
<g id="a_node3"><a xlink:title=" ">
<polygon fill="white" stroke="#bfbfbf" points="178.5,-6 178.5,-25 353.5,-25 353.5,-6 178.5,-6"/>
<text text-anchor="middle" x="266" y="-13" font-family="Helvetica,sans-Serif" font-size="10.00">matrix_free/KokkosFramework.h</text>
</a>
</g>
</g>
<!-- Node1&#45;&gt;Node3 -->
<g id="edge2" class="edge">
<title>Node1&#45;&gt;Node3</title>
<path fill="none" stroke="midnightblue" d="M522.16,-67.48C468.54,-56.8 376.72,-38.53 318.81,-27.01"/>
<polygon fill="midnightblue" stroke="midnightblue" points="319.25,-23.53 308.76,-25.01 317.88,-30.39 319.25,-23.53"/>
</g>
<!-- Node4 -->
<g id="node4" class="node">
<title>Node4</title>
<g id="a_node4"><a xlink:title=" ">
<polygon fill="white" stroke="#bfbfbf" points="371.5,-6 371.5,-25 466.5,-25 466.5,-6 371.5,-6"/>
<text text-anchor="middle" x="419" y="-13" font-family="Helvetica,sans-Serif" font-size="10.00">Tpetra_Map.hpp</text>
</a>
</g>
</g>
<!-- Node1&#45;&gt;Node4 -->
<g id="edge3" class="edge">
<title>Node1&#45;&gt;Node4</title>
<path fill="none" stroke="midnightblue" d="M544.08,-67.48C519.25,-57.36 477.66,-40.4 449.31,-28.85"/>
<polygon fill="midnightblue" stroke="midnightblue" points="450.46,-25.54 439.88,-25.01 447.82,-32.02 450.46,-25.54"/>
</g>
<!-- Node5 -->
<g id="node5" class="node">
<title>Node5</title>
<g id="a_node5"><a xlink:title=" ">
<polygon fill="white" stroke="#bfbfbf" points="485,-6 485,-25 645,-25 645,-6 485,-6"/>
<text text-anchor="middle" x="565" y="-13" font-family="Helvetica,sans-Serif" font-size="10.00">stk_mesh/base/NgpMesh.hpp</text>
</a>
</g>
</g>
<!-- Node1&#45;&gt;Node5 -->
<g id="edge4" class="edge">
<title>Node1&#45;&gt;Node5</title>
<path fill="none" stroke="midnightblue" d="M565,-67.48C565,-59.08 565,-45.98 565,-35.16"/>
<polygon fill="midnightblue" stroke="midnightblue" points="568.5,-35.01 565,-25.01 561.5,-35.01 568.5,-35.01"/>
</g>
<!-- Node6 -->
<g id="node6" class="node">
<title>Node6</title>
<g id="a_node6"><a xlink:title=" ">
<polygon fill="white" stroke="#bfbfbf" points="663.5,-6 663.5,-25 820.5,-25 820.5,-6 663.5,-6"/>
<text text-anchor="middle" x="742" y="-13" font-family="Helvetica,sans-Serif" font-size="10.00">stk_mesh/base/NgpField.hpp</text>
</a>
</g>
</g>
<!-- Node1&#45;&gt;Node6 -->
<g id="edge5" class="edge">
<title>Node1&#45;&gt;Node6</title>
<path fill="none" stroke="midnightblue" d="M590.36,-67.48C620.98,-57.18 672.66,-39.81 707.05,-28.25"/>
<polygon fill="midnightblue" stroke="midnightblue" points="708.32,-31.51 716.69,-25.01 706.09,-24.88 708.32,-31.51"/>
</g>
<!-- Node7 -->
<g id="node7" class="node">
<title>Node7</title>
<g id="a_node7"><a xlink:title=" ">
<polygon fill="white" stroke="#bfbfbf" points="838.5,-0.5 838.5,-30.5 989.5,-30.5 989.5,-0.5 838.5,-0.5"/>
<text text-anchor="start" x="846.5" y="-18.5" font-family="Helvetica,sans-Serif" font-size="10.00">stk_mesh/base/NgpForEach</text>
<text text-anchor="middle" x="914" y="-7.5" font-family="Helvetica,sans-Serif" font-size="10.00">Entity.hpp</text>
</a>
</g>
</g>
<!-- Node1&#45;&gt;Node7 -->
<g id="edge6" class="edge">
<title>Node1&#45;&gt;Node7</title>
<path fill="none" stroke="midnightblue" d="M615.32,-67.5C666.44,-58.85 748.21,-44.99 828.19,-31.31"/>
<polygon fill="midnightblue" stroke="midnightblue" points="829.18,-34.69 838.45,-29.55 828,-27.79 829.18,-34.69"/>
</g>
<!-- Node8 -->
<g id="node8" class="node">
<title>Node8</title>
<g id="a_node8"><a xlink:title=" ">
<polygon fill="white" stroke="#bfbfbf" points="1008,-6 1008,-25 1150,-25 1150,-6 1008,-6"/>
<text text-anchor="middle" x="1079" y="-13" font-family="Helvetica,sans-Serif" font-size="10.00">stk_mesh/base/Types.hpp</text>
</a>
</g>
</g>
<!-- Node1&#45;&gt;Node8 -->
<g id="edge7" class="edge">
<title>Node1&#45;&gt;Node8</title>
<path fill="none" stroke="midnightblue" d="M637.01,-70.22C723.27,-62.91 872.07,-49.06 999,-31 1007.63,-29.77 1016.75,-28.29 1025.63,-26.76"/>
<polygon fill="midnightblue" stroke="midnightblue" points="1026.27,-30.2 1035.5,-25 1025.04,-23.3 1026.27,-30.2"/>
</g>
</g>
</svg>
