<?xml version="1.0" encoding="UTF-8" standalone="no"?>
<!DOCTYPE svg PUBLIC "-//W3C//DTD SVG 1.1//EN"
 "http://www.w3.org/Graphics/SVG/1.1/DTD/svg11.dtd">
<!-- Generated by graphviz version 2.43.0 (0)
 -->
<!-- Title: StkSimdGatheredElementData.C Pages: 1 -->
<svg width="1664pt" height="95pt"
 viewBox="0.00 0.00 1664.00 95.00" xmlns="http://www.w3.org/2000/svg" xmlns:xlink="http://www.w3.org/1999/xlink">
<g id="graph0" class="graph" transform="scale(1 1) rotate(0) translate(4 91)">
<title>StkSimdGatheredElementData.C</title>
<polygon fill="white" stroke="transparent" points="-4,4 -4,-91 1660,-91 1660,4 -4,4"/>
<!-- Node1 -->
<g id="node1" class="node">
<title>Node1</title>
<g id="a_node1"><a xlink:title=" ">
<polygon fill="#bfbfbf" stroke="black" points="787,-67.5 787,-86.5 963,-86.5 963,-67.5 787,-67.5"/>
<text text-anchor="middle" x="875" y="-74.5" font-family="Helvetica,sans-Serif" font-size="10.00">StkSimdGatheredElementData.C</text>
</a>
</g>
</g>
<!-- Node2 -->
<g id="node2" class="node">
<title>Node2</title>
<g id="a_node2"><a xlink:title=" ">
<polygon fill="white" stroke="#bfbfbf" points="0,-0.5 0,-30.5 162,-30.5 162,-0.5 0,-0.5"/>
<text text-anchor="start" x="8" y="-18.5" font-family="Helvetica,sans-Serif" font-size="10.00">matrix_free/StkSimdGathered</text>
<text text-anchor="middle" x="81" y="-7.5" font-family="Helvetica,sans-Serif" font-size="10.00">ElementData.h</text>
</a>
</g>
</g>
<!-- Node1&#45;&gt;Node2 -->
<g id="edge1" class="edge">
<title>Node1&#45;&gt;Node2</title>
<path fill="none" stroke="midnightblue" d="M786.96,-73.09C655.4,-68.13 399.53,-56.15 172.49,-31.1"/>
<polygon fill="midnightblue" stroke="midnightblue" points="172.71,-27.6 162.39,-29.97 171.94,-34.56 172.71,-27.6"/>
</g>
<!-- Node3 -->
<g id="node3" class="node">
<title>Node3</title>
<g id="a_node3"><a xlink:title=" ">
<polygon fill="white" stroke="#bfbfbf" points="180.5,-6 180.5,-25 353.5,-25 353.5,-6 180.5,-6"/>
<text text-anchor="middle" x="267" y="-13" font-family="Helvetica,sans-Serif" font-size="10.00">matrix_free/PolynomialOrders.h</text>
</a>
</g>
</g>
<!-- Node1&#45;&gt;Node3 -->
<g id="edge2" class="edge">
<title>Node1&#45;&gt;Node3</title>
<path fill="none" stroke="midnightblue" d="M786.77,-69.98C684.42,-62.61 510.68,-48.85 362,-31 351.22,-29.71 339.78,-28.13 328.72,-26.51"/>
<polygon fill="midnightblue" stroke="midnightblue" points="329.1,-23.02 318.69,-25 328.06,-29.95 329.1,-23.02"/>
</g>
<!-- Node4 -->
<g id="node4" class="node">
<title>Node4</title>
<g id="a_node4"><a xlink:title=" ">
<polygon fill="white" stroke="#bfbfbf" points="371.5,-0.5 371.5,-30.5 550.5,-30.5 550.5,-0.5 371.5,-0.5"/>
<text text-anchor="start" x="379.5" y="-18.5" font-family="Helvetica,sans-Serif" font-size="10.00">matrix_free/StkSimdConnectivity</text>
<text text-anchor="middle" x="461" y="-7.5" font-family="Helvetica,sans-Serif" font-size="10.00">Map.h</text>
</a>
</g>
</g>
<!-- Node1&#45;&gt;Node4 -->
<g id="edge3" class="edge">
<title>Node1&#45;&gt;Node4</title>
<path fill="none" stroke="midnightblue" d="M814.41,-67.47C752.96,-58.8 654.83,-44.89 560.7,-31.24"/>
<polygon fill="midnightblue" stroke="midnightblue" points="561.12,-27.77 550.72,-29.79 560.11,-34.69 561.12,-27.77"/>
</g>
<!-- Node5 -->
<g id="node5" class="node">
<title>Node5</title>
<g id="a_node5"><a xlink:title=" ">
<polygon fill="white" stroke="#bfbfbf" points="568.5,-6 568.5,-25 735.5,-25 735.5,-6 568.5,-6"/>
<text text-anchor="middle" x="652" y="-13" font-family="Helvetica,sans-Serif" font-size="10.00">matrix_free/ValidSimdLength.h</text>
</a>
</g>
</g>
<!-- Node1&#45;&gt;Node5 -->
<g id="edge4" class="edge">
<title>Node1&#45;&gt;Node5</title>
<path fill="none" stroke="midnightblue" d="M843.05,-67.48C803.8,-57 737.12,-39.21 693.83,-27.66"/>
<polygon fill="midnightblue" stroke="midnightblue" points="694.46,-24.21 683.89,-25.01 692.65,-30.97 694.46,-24.21"/>
</g>
<!-- Node6 -->
<g id="node6" class="node">
<title>Node6</title>
<g id="a_node6"><a xlink:title=" ">
<polygon fill="white" stroke="#bfbfbf" points="754,-6 754,-25 858,-25 858,-6 754,-6"/>
<text text-anchor="middle" x="806" y="-13" font-family="Helvetica,sans-Serif" font-size="10.00">KokkosInterface.h</text>
</a>
</g>
</g>
<!-- Node1&#45;&gt;Node6 -->
<g id="edge5" class="edge">
<title>Node1&#45;&gt;Node6</title>
<path fill="none" stroke="midnightblue" d="M865.11,-67.48C854.35,-58.2 836.93,-43.17 823.78,-31.83"/>
<polygon fill="midnightblue" stroke="midnightblue" points="825.73,-28.89 815.87,-25.01 821.16,-34.19 825.73,-28.89"/>
</g>
<!-- Node7 -->
<g id="node7" class="node">
<title>Node7</title>
<g id="a_node7"><a xlink:title=" ">
<polygon fill="white" stroke="#bfbfbf" points="876.5,-6 876.5,-25 1013.5,-25 1013.5,-6 876.5,-6"/>
<text text-anchor="middle" x="945" y="-13" font-family="Helvetica,sans-Serif" font-size="10.00">stk_mesh/base/Field.hpp</text>
</a>
</g>
</g>
<!-- Node1&#45;&gt;Node7 -->
<g id="edge6" class="edge">
<title>Node1&#45;&gt;Node7</title>
<path fill="none" stroke="midnightblue" d="M885.03,-67.48C896.05,-58.11 913.96,-42.88 927.34,-31.51"/>
<polygon fill="midnightblue" stroke="midnightblue" points="929.64,-34.15 934.99,-25.01 925.1,-28.82 929.64,-34.15"/>
</g>
<!-- Node8 -->
<g id="node8" class="node">
<title>Node8</title>
<g id="a_node8"><a xlink:title=" ">
<polygon fill="white" stroke="#bfbfbf" points="1032,-6 1032,-25 1174,-25 1174,-6 1032,-6"/>
<text text-anchor="middle" x="1103" y="-13" font-family="Helvetica,sans-Serif" font-size="10.00">stk_mesh/base/Types.hpp</text>
</a>
</g>
</g>
<!-- Node1&#45;&gt;Node8 -->
<g id="edge7" class="edge">
<title>Node1&#45;&gt;Node8</title>
<path fill="none" stroke="midnightblue" d="M907.67,-67.48C947.88,-56.98 1016.26,-39.14 1060.52,-27.59"/>
<polygon fill="midnightblue" stroke="midnightblue" points="1061.6,-30.92 1070.39,-25.01 1059.83,-24.15 1061.6,-30.92"/>
</g>
<!-- Node9 -->
<g id="node9" class="node">
<title>Node9</title>
<g id="a_node9"><a xlink:title=" ">
<polygon fill="white" stroke="#bfbfbf" points="1192,-6 1192,-25 1352,-25 1352,-6 1192,-6"/>
<text text-anchor="middle" x="1272" y="-13" font-family="Helvetica,sans-Serif" font-size="10.00">stk_mesh/base/NgpMesh.hpp</text>
</a>
</g>
</g>
<!-- Node1&#45;&gt;Node9 -->
<g id="edge8" class="edge">
<title>Node1&#45;&gt;Node9</title>
<path fill="none" stroke="midnightblue" d="M935.24,-67.5C997.36,-58.66 1097.02,-44.28 1183,-31 1191.98,-29.61 1201.45,-28.11 1210.75,-26.62"/>
<polygon fill="midnightblue" stroke="midnightblue" points="1211.41,-30.05 1220.72,-25 1210.29,-23.14 1211.41,-30.05"/>
</g>
<!-- Node10 -->
<g id="node10" class="node">
<title>Node10</title>
<g id="a_node10"><a xlink:title=" ">
<polygon fill="white" stroke="#bfbfbf" points="1370.5,-6 1370.5,-25 1527.5,-25 1527.5,-6 1370.5,-6"/>
<text text-anchor="middle" x="1449" y="-13" font-family="Helvetica,sans-Serif" font-size="10.00">stk_mesh/base/NgpField.hpp</text>
</a>
</g>
</g>
<!-- Node1&#45;&gt;Node10 -->
<g id="edge9" class="edge">
<title>Node1&#45;&gt;Node10</title>
<path fill="none" stroke="midnightblue" d="M963,-69.74C1060.52,-62.36 1222.33,-48.82 1361,-31 1370.79,-29.74 1381.16,-28.21 1391.22,-26.62"/>
<polygon fill="midnightblue" stroke="midnightblue" points="1391.82,-30.07 1401.14,-25.02 1390.71,-23.16 1391.82,-30.07"/>
</g>
<!-- Node11 -->
<g id="node11" class="node">
<title>Node11</title>
<g id="a_node11"><a xlink:title=" ">
<polygon fill="white" stroke="#bfbfbf" points="1546,-6 1546,-25 1656,-25 1656,-6 1546,-6"/>
<text text-anchor="middle" x="1601" y="-13" font-family="Helvetica,sans-Serif" font-size="10.00">stk_simd/Simd.hpp</text>
</a>
</g>
</g>
<!-- Node1&#45;&gt;Node11 -->
<g id="edge10" class="edge">
<title>Node1&#45;&gt;Node11</title>
<path fill="none" stroke="midnightblue" d="M963,-74.35C1090.27,-70.98 1332.83,-60.88 1537,-31 1543.82,-30 1550.98,-28.67 1557.96,-27.21"/>
<polygon fill="midnightblue" stroke="midnightblue" points="1558.95,-30.57 1567.97,-25.01 1557.45,-23.74 1558.95,-30.57"/>
</g>
</g>
</svg>
