<?xml version="1.0" encoding="UTF-8" standalone="no"?>
<!DOCTYPE svg PUBLIC "-//W3C//DTD SVG 1.1//EN"
 "http://www.w3.org/Graphics/SVG/1.1/DTD/svg11.dtd">
<!-- Generated by graphviz version 2.43.0 (0)
 -->
<!-- Title: StkSimdNodeConnectivityMap.C Pages: 1 -->
<svg width="1732pt" height="95pt"
 viewBox="0.00 0.00 1732.00 95.00" xmlns="http://www.w3.org/2000/svg" xmlns:xlink="http://www.w3.org/1999/xlink">
<g id="graph0" class="graph" transform="scale(1 1) rotate(0) translate(4 91)">
<title>StkSimdNodeConnectivityMap.C</title>
<polygon fill="white" stroke="transparent" points="-4,4 -4,-91 1728,-91 1728,4 -4,4"/>
<!-- Node1 -->
<g id="node1" class="node">
<title>Node1</title>
<g id="a_node1"><a xlink:title=" ">
<polygon fill="#bfbfbf" stroke="black" points="873.5,-67.5 873.5,-86.5 1048.5,-86.5 1048.5,-67.5 873.5,-67.5"/>
<text text-anchor="middle" x="961" y="-74.5" font-family="Helvetica,sans-Serif" font-size="10.00">StkSimdNodeConnectivityMap.C</text>
</a>
</g>
</g>
<!-- Node2 -->
<g id="node2" class="node">
<title>Node2</title>
<g id="a_node2"><a xlink:title=" ">
<polygon fill="white" stroke="#bfbfbf" points="0,-0.5 0,-30.5 204,-30.5 204,-0.5 0,-0.5"/>
<text text-anchor="start" x="8" y="-18.5" font-family="Helvetica,sans-Serif" font-size="10.00">matrix_free/StkSimdNodeConnectivity</text>
<text text-anchor="middle" x="102" y="-7.5" font-family="Helvetica,sans-Serif" font-size="10.00">Map.h</text>
</a>
</g>
</g>
<!-- Node1&#45;&gt;Node2 -->
<g id="edge1" class="edge">
<title>Node1&#45;&gt;Node2</title>
<path fill="none" stroke="midnightblue" d="M873.33,-72.71C735.37,-67.1 458.99,-54.07 214.34,-31.08"/>
<polygon fill="midnightblue" stroke="midnightblue" points="214.47,-27.58 204.19,-30.12 213.81,-34.55 214.47,-27.58"/>
</g>
<!-- Node3 -->
<g id="node3" class="node">
<title>Node3</title>
<g id="a_node3"><a xlink:title=" ">
<polygon fill="white" stroke="#bfbfbf" points="222,-6 222,-25 394,-25 394,-6 222,-6"/>
<text text-anchor="middle" x="308" y="-13" font-family="Helvetica,sans-Serif" font-size="10.00">matrix_free/KokkosViewTypes.h</text>
</a>
</g>
</g>
<!-- Node1&#45;&gt;Node3 -->
<g id="edge2" class="edge">
<title>Node1&#45;&gt;Node3</title>
<path fill="none" stroke="midnightblue" d="M873.34,-70.86C763.29,-63.97 568.8,-50.31 403,-31 392.22,-29.74 380.77,-28.19 369.71,-26.57"/>
<polygon fill="midnightblue" stroke="midnightblue" points="370.09,-23.09 359.68,-25.07 369.05,-30.01 370.09,-23.09"/>
</g>
<!-- Node4 -->
<g id="node4" class="node">
<title>Node4</title>
<g id="a_node4"><a xlink:title=" ">
<polygon fill="white" stroke="#bfbfbf" points="412.5,-6 412.5,-25 609.5,-25 609.5,-6 412.5,-6"/>
<text text-anchor="middle" x="511" y="-13" font-family="Helvetica,sans-Serif" font-size="10.00">matrix_free/StkSimdMeshTraverser.h</text>
</a>
</g>
</g>
<!-- Node1&#45;&gt;Node4 -->
<g id="edge3" class="edge">
<title>Node1&#45;&gt;Node4</title>
<path fill="none" stroke="midnightblue" d="M895.55,-67.5C826.52,-58.51 714.59,-43.88 618,-31 606.86,-29.51 595.07,-27.93 583.55,-26.37"/>
<polygon fill="midnightblue" stroke="midnightblue" points="583.89,-22.89 573.51,-25.02 582.96,-29.83 583.89,-22.89"/>
</g>
<!-- Node5 -->
<g id="node5" class="node">
<title>Node5</title>
<g id="a_node5"><a xlink:title=" ">
<polygon fill="white" stroke="#bfbfbf" points="627.5,-6 627.5,-25 794.5,-25 794.5,-6 627.5,-6"/>
<text text-anchor="middle" x="711" y="-13" font-family="Helvetica,sans-Serif" font-size="10.00">matrix_free/ValidSimdLength.h</text>
</a>
</g>
</g>
<!-- Node1&#45;&gt;Node5 -->
<g id="edge4" class="edge">
<title>Node1&#45;&gt;Node5</title>
<path fill="none" stroke="midnightblue" d="M925.18,-67.48C880.81,-56.92 805.16,-38.91 756.67,-27.37"/>
<polygon fill="midnightblue" stroke="midnightblue" points="757.29,-23.92 746.75,-25.01 755.67,-30.73 757.29,-23.92"/>
</g>
<!-- Node6 -->
<g id="node6" class="node">
<title>Node6</title>
<g id="a_node6"><a xlink:title=" ">
<polygon fill="white" stroke="#bfbfbf" points="812.5,-6 812.5,-25 953.5,-25 953.5,-6 812.5,-6"/>
<text text-anchor="middle" x="883" y="-13" font-family="Helvetica,sans-Serif" font-size="10.00">stk_mesh/base/Entity.hpp</text>
</a>
</g>
</g>
<!-- Node1&#45;&gt;Node6 -->
<g id="edge5" class="edge">
<title>Node1&#45;&gt;Node6</title>
<path fill="none" stroke="midnightblue" d="M949.82,-67.48C937.43,-58.02 917.21,-42.6 902.25,-31.19"/>
<polygon fill="midnightblue" stroke="midnightblue" points="904.23,-28.29 894.15,-25.01 899.98,-33.86 904.23,-28.29"/>
</g>
<!-- Node7 -->
<g id="node7" class="node">
<title>Node7</title>
<g id="a_node7"><a xlink:title=" ">
<polygon fill="white" stroke="#bfbfbf" points="972,-6 972,-25 1106,-25 1106,-6 972,-6"/>
<text text-anchor="middle" x="1039" y="-13" font-family="Helvetica,sans-Serif" font-size="10.00">stk_mesh/base/Ngp.hpp</text>
</a>
</g>
</g>
<!-- Node1&#45;&gt;Node7 -->
<g id="edge6" class="edge">
<title>Node1&#45;&gt;Node7</title>
<path fill="none" stroke="midnightblue" d="M972.18,-67.48C984.57,-58.02 1004.79,-42.6 1019.75,-31.19"/>
<polygon fill="midnightblue" stroke="midnightblue" points="1022.02,-33.86 1027.85,-25.01 1017.77,-28.29 1022.02,-33.86"/>
</g>
<!-- Node8 -->
<g id="node8" class="node">
<title>Node8</title>
<g id="a_node8"><a xlink:title=" ">
<polygon fill="white" stroke="#bfbfbf" points="1124.5,-6 1124.5,-25 1277.5,-25 1277.5,-6 1124.5,-6"/>
<text text-anchor="middle" x="1201" y="-13" font-family="Helvetica,sans-Serif" font-size="10.00">stk_mesh/base/Selector.hpp</text>
</a>
</g>
</g>
<!-- Node1&#45;&gt;Node8 -->
<g id="edge7" class="edge">
<title>Node1&#45;&gt;Node8</title>
<path fill="none" stroke="midnightblue" d="M995.39,-67.48C1037.89,-56.94 1110.3,-38.99 1156.87,-27.44"/>
<polygon fill="midnightblue" stroke="midnightblue" points="1157.81,-30.81 1166.68,-25.01 1156.13,-24.02 1157.81,-30.81"/>
</g>
<!-- Node9 -->
<g id="node9" class="node">
<title>Node9</title>
<g id="a_node9"><a xlink:title=" ">
<polygon fill="white" stroke="#bfbfbf" points="1296,-6 1296,-25 1438,-25 1438,-6 1296,-6"/>
<text text-anchor="middle" x="1367" y="-13" font-family="Helvetica,sans-Serif" font-size="10.00">stk_mesh/base/Types.hpp</text>
</a>
</g>
</g>
<!-- Node1&#45;&gt;Node9 -->
<g id="edge8" class="edge">
<title>Node1&#45;&gt;Node9</title>
<path fill="none" stroke="midnightblue" d="M1028.87,-67.48C1094.9,-58.99 1198,-45.2 1287,-31 1295.03,-29.72 1303.49,-28.28 1311.79,-26.82"/>
<polygon fill="midnightblue" stroke="midnightblue" points="1312.56,-30.24 1321.79,-25.04 1311.33,-23.35 1312.56,-30.24"/>
</g>
<!-- Node10 -->
<g id="node10" class="node">
<title>Node10</title>
<g id="a_node10"><a xlink:title=" ">
<polygon fill="white" stroke="#bfbfbf" points="1456.5,-6 1456.5,-25 1601.5,-25 1601.5,-6 1456.5,-6"/>
<text text-anchor="middle" x="1529" y="-13" font-family="Helvetica,sans-Serif" font-size="10.00">stk_topology/topology.hpp</text>
</a>
</g>
</g>
<!-- Node1&#45;&gt;Node10 -->
<g id="edge9" class="edge">
<title>Node1&#45;&gt;Node10</title>
<path fill="none" stroke="midnightblue" d="M1048.6,-70.08C1146.1,-62.98 1308.22,-49.66 1447,-31 1455.85,-29.81 1465.2,-28.35 1474.3,-26.82"/>
<polygon fill="midnightblue" stroke="midnightblue" points="1475.16,-30.22 1484.42,-25.07 1473.97,-23.33 1475.16,-30.22"/>
</g>
<!-- Node11 -->
<g id="node11" class="node">
<title>Node11</title>
<g id="a_node11"><a xlink:title=" ">
<polygon fill="white" stroke="#bfbfbf" points="1620,-6 1620,-25 1724,-25 1724,-6 1620,-6"/>
<text text-anchor="middle" x="1672" y="-13" font-family="Helvetica,sans-Serif" font-size="10.00">KokkosInterface.h</text>
</a>
</g>
</g>
<!-- Node1&#45;&gt;Node11 -->
<g id="edge10" class="edge">
<title>Node1&#45;&gt;Node11</title>
<path fill="none" stroke="midnightblue" d="M1048.5,-74.5C1173.79,-71.31 1411.25,-61.44 1611,-31 1617.36,-30.03 1624.03,-28.74 1630.53,-27.32"/>
<polygon fill="midnightblue" stroke="midnightblue" points="1631.57,-30.67 1640.53,-25.02 1630,-23.85 1631.57,-30.67"/>
</g>
</g>
</svg>
