<?xml version="1.0" encoding="UTF-8" standalone="no"?>
<!DOCTYPE svg PUBLIC "-//W3C//DTD SVG 1.1//EN"
 "http://www.w3.org/Graphics/SVG/1.1/DTD/svg11.dtd">
<!-- Generated by graphviz version 2.43.0 (0)
 -->
<!-- Title: StreletsUpwindEdgeAlg.C Pages: 1 -->
<svg width="933pt" height="95pt"
 viewBox="0.00 0.00 932.50 95.00" xmlns="http://www.w3.org/2000/svg" xmlns:xlink="http://www.w3.org/1999/xlink">
<g id="graph0" class="graph" transform="scale(1 1) rotate(0) translate(4 91)">
<title>StreletsUpwindEdgeAlg.C</title>
<polygon fill="white" stroke="transparent" points="-4,4 -4,-91 928.5,-91 928.5,4 -4,4"/>
<!-- Node1 -->
<g id="node1" class="node">
<title>Node1</title>
<g id="a_node1"><a xlink:title=" ">
<polygon fill="#bfbfbf" stroke="black" points="425,-67.5 425,-86.5 565,-86.5 565,-67.5 425,-67.5"/>
<text text-anchor="middle" x="495" y="-74.5" font-family="Helvetica,sans-Serif" font-size="10.00">StreletsUpwindEdgeAlg.C</text>
</a>
</g>
</g>
<!-- Node2 -->
<g id="node2" class="node">
<title>Node2</title>
<g id="a_node2"><a xlink:title=" ">
<polygon fill="white" stroke="#bfbfbf" points="0,-0.5 0,-30.5 158,-30.5 158,-0.5 0,-0.5"/>
<text text-anchor="start" x="8" y="-18.5" font-family="Helvetica,sans-Serif" font-size="10.00">edge_kernels/StreletsUpwind</text>
<text text-anchor="middle" x="79" y="-7.5" font-family="Helvetica,sans-Serif" font-size="10.00">EdgeAlg.h</text>
</a>
</g>
</g>
<!-- Node1&#45;&gt;Node2 -->
<g id="edge1" class="edge">
<title>Node1&#45;&gt;Node2</title>
<path fill="none" stroke="midnightblue" d="M428.44,-67.48C364.2,-59.12 263.91,-45.72 168.3,-31.33"/>
<polygon fill="midnightblue" stroke="midnightblue" points="168.58,-27.83 158.17,-29.8 167.53,-34.75 168.58,-27.83"/>
</g>
<!-- Node3 -->
<g id="node3" class="node">
<title>Node3</title>
<g id="a_node3"><a xlink:title=" ">
<polygon fill="white" stroke="#bfbfbf" points="175.5,-6 175.5,-25 232.5,-25 232.5,-6 175.5,-6"/>
<text text-anchor="middle" x="204" y="-13" font-family="Helvetica,sans-Serif" font-size="10.00">Realm.h</text>
</a>
</g>
</g>
<!-- Node1&#45;&gt;Node3 -->
<g id="edge2" class="edge">
<title>Node1&#45;&gt;Node3</title>
<path fill="none" stroke="midnightblue" d="M425.44,-67.47C373.92,-60.24 302.32,-48.26 241,-31 238.41,-30.27 235.75,-29.43 233.11,-28.52"/>
<polygon fill="midnightblue" stroke="midnightblue" points="234.32,-25.24 223.72,-25.06 231.89,-31.81 234.32,-25.24"/>
</g>
<!-- Node4 -->
<g id="node4" class="node">
<title>Node4</title>
<g id="a_node4"><a xlink:title=" ">
<polygon fill="white" stroke="#bfbfbf" points="250.5,-6 250.5,-25 407.5,-25 407.5,-6 250.5,-6"/>
<text text-anchor="middle" x="329" y="-13" font-family="Helvetica,sans-Serif" font-size="10.00">stk_mesh/base/NgpField.hpp</text>
</a>
</g>
</g>
<!-- Node1&#45;&gt;Node4 -->
<g id="edge3" class="edge">
<title>Node1&#45;&gt;Node4</title>
<path fill="none" stroke="midnightblue" d="M471.22,-67.48C442.62,-57.22 394.45,-39.96 362.2,-28.4"/>
<polygon fill="midnightblue" stroke="midnightblue" points="363.33,-25.09 352.74,-25.01 360.97,-31.68 363.33,-25.09"/>
</g>
<!-- Node5 -->
<g id="node5" class="node">
<title>Node5</title>
<g id="a_node5"><a xlink:title=" ">
<polygon fill="white" stroke="#bfbfbf" points="426,-6 426,-25 564,-25 564,-6 426,-6"/>
<text text-anchor="middle" x="495" y="-13" font-family="Helvetica,sans-Serif" font-size="10.00">ngp_utils/NgpFieldUtils.h</text>
</a>
</g>
</g>
<!-- Node1&#45;&gt;Node5 -->
<g id="edge4" class="edge">
<title>Node1&#45;&gt;Node5</title>
<path fill="none" stroke="midnightblue" d="M495,-67.48C495,-59.08 495,-45.98 495,-35.16"/>
<polygon fill="midnightblue" stroke="midnightblue" points="498.5,-35.01 495,-25.01 491.5,-35.01 498.5,-35.01"/>
</g>
<!-- Node6 -->
<g id="node6" class="node">
<title>Node6</title>
<g id="a_node6"><a xlink:title=" ">
<polygon fill="white" stroke="#bfbfbf" points="582,-6 582,-25 720,-25 720,-6 582,-6"/>
<text text-anchor="middle" x="651" y="-13" font-family="Helvetica,sans-Serif" font-size="10.00">ngp_utils/NgpLoopUtils.h</text>
</a>
</g>
</g>
<!-- Node1&#45;&gt;Node6 -->
<g id="edge5" class="edge">
<title>Node1&#45;&gt;Node6</title>
<path fill="none" stroke="midnightblue" d="M517.35,-67.48C543.99,-57.31 588.71,-40.26 619.01,-28.7"/>
<polygon fill="midnightblue" stroke="midnightblue" points="620.59,-31.84 628.69,-25.01 618.1,-25.3 620.59,-31.84"/>
</g>
<!-- Node7 -->
<g id="node7" class="node">
<title>Node7</title>
<g id="a_node7"><a xlink:title=" ">
<polygon fill="white" stroke="#bfbfbf" points="738.5,-6 738.5,-25 841.5,-25 841.5,-6 738.5,-6"/>
<text text-anchor="middle" x="790" y="-13" font-family="Helvetica,sans-Serif" font-size="10.00">SolutionOptions.h</text>
</a>
</g>
</g>
<!-- Node1&#45;&gt;Node7 -->
<g id="edge6" class="edge">
<title>Node1&#45;&gt;Node7</title>
<path fill="none" stroke="midnightblue" d="M542.63,-67.47C590,-58.83 664.69,-44.82 729,-31 734.32,-29.86 739.89,-28.61 745.41,-27.34"/>
<polygon fill="midnightblue" stroke="midnightblue" points="746.28,-30.73 755.22,-25.04 744.69,-23.91 746.28,-30.73"/>
</g>
<!-- Node8 -->
<g id="node8" class="node">
<title>Node8</title>
<g id="a_node8"><a xlink:title=" ">
<polygon fill="white" stroke="#bfbfbf" points="859.5,-6 859.5,-25 924.5,-25 924.5,-6 859.5,-6"/>
<text text-anchor="middle" x="892" y="-13" font-family="Helvetica,sans-Serif" font-size="10.00">NaluEnv.h</text>
</a>
</g>
</g>
<!-- Node1&#45;&gt;Node8 -->
<g id="edge7" class="edge">
<title>Node1&#45;&gt;Node8</title>
<path fill="none" stroke="midnightblue" d="M565.03,-71.6C637.4,-66.01 753.26,-54.18 851,-31 854.23,-30.23 857.56,-29.3 860.87,-28.29"/>
<polygon fill="midnightblue" stroke="midnightblue" points="862.18,-31.54 870.56,-25.06 859.96,-24.9 862.18,-31.54"/>
</g>
</g>
</svg>
