<?xml version="1.0" encoding="UTF-8" standalone="no"?>
<!DOCTYPE svg PUBLIC "-//W3C//DTD SVG 1.1//EN"
 "http://www.w3.org/Graphics/SVG/1.1/DTD/svg11.dtd">
<!-- Generated by graphviz version 2.43.0 (0)
 -->
<!-- Title: StrongDirichletBC.C Pages: 1 -->
<svg width="1469pt" height="95pt"
 viewBox="0.00 0.00 1468.50 95.00" xmlns="http://www.w3.org/2000/svg" xmlns:xlink="http://www.w3.org/1999/xlink">
<g id="graph0" class="graph" transform="scale(1 1) rotate(0) translate(4 91)">
<title>StrongDirichletBC.C</title>
<polygon fill="white" stroke="transparent" points="-4,4 -4,-91 1464.5,-91 1464.5,4 -4,4"/>
<!-- Node1 -->
<g id="node1" class="node">
<title>Node1</title>
<g id="a_node1"><a xlink:title=" ">
<polygon fill="#bfbfbf" stroke="black" points="750.5,-67.5 750.5,-86.5 863.5,-86.5 863.5,-67.5 750.5,-67.5"/>
<text text-anchor="middle" x="807" y="-74.5" font-family="Helvetica,sans-Serif" font-size="10.00">StrongDirichletBC.C</text>
</a>
</g>
</g>
<!-- Node2 -->
<g id="node2" class="node">
<title>Node2</title>
<g id="a_node2"><a xlink:title=" ">
<polygon fill="white" stroke="#bfbfbf" points="0,-6 0,-25 172,-25 172,-6 0,-6"/>
<text text-anchor="middle" x="86" y="-13" font-family="Helvetica,sans-Serif" font-size="10.00">matrix_free/StrongDirichletBC.h</text>
</a>
</g>
</g>
<!-- Node1&#45;&gt;Node2 -->
<g id="edge1" class="edge">
<title>Node1&#45;&gt;Node2</title>
<path fill="none" stroke="midnightblue" d="M750.32,-73.44C640.31,-68.14 390.26,-54.45 181,-31 169.84,-29.75 157.99,-28.15 146.57,-26.48"/>
<polygon fill="midnightblue" stroke="midnightblue" points="147.09,-23.02 136.68,-25 146.05,-29.94 147.09,-23.02"/>
</g>
<!-- Node3 -->
<g id="node3" class="node">
<title>Node3</title>
<g id="a_node3"><a xlink:title=" ">
<polygon fill="white" stroke="#bfbfbf" points="190.5,-6 190.5,-25 363.5,-25 363.5,-6 190.5,-6"/>
<text text-anchor="middle" x="277" y="-13" font-family="Helvetica,sans-Serif" font-size="10.00">matrix_free/PolynomialOrders.h</text>
</a>
</g>
</g>
<!-- Node1&#45;&gt;Node3 -->
<g id="edge2" class="edge">
<title>Node1&#45;&gt;Node3</title>
<path fill="none" stroke="midnightblue" d="M750.24,-71.01C667.1,-63.5 507.37,-48.32 372,-31 361.59,-29.67 350.56,-28.12 339.85,-26.53"/>
<polygon fill="midnightblue" stroke="midnightblue" points="340.11,-23.03 329.7,-25.01 339.07,-29.95 340.11,-23.03"/>
</g>
<!-- Node4 -->
<g id="node4" class="node">
<title>Node4</title>
<g id="a_node4"><a xlink:title=" ">
<polygon fill="white" stroke="#bfbfbf" points="381.5,-6 381.5,-25 548.5,-25 548.5,-6 381.5,-6"/>
<text text-anchor="middle" x="465" y="-13" font-family="Helvetica,sans-Serif" font-size="10.00">matrix_free/ValidSimdLength.h</text>
</a>
</g>
</g>
<!-- Node1&#45;&gt;Node4 -->
<g id="edge3" class="edge">
<title>Node1&#45;&gt;Node4</title>
<path fill="none" stroke="midnightblue" d="M758,-67.48C696.16,-56.72 589.9,-38.23 523.77,-26.72"/>
<polygon fill="midnightblue" stroke="midnightblue" points="524.36,-23.27 513.91,-25.01 523.16,-30.17 524.36,-23.27"/>
</g>
<!-- Node5 -->
<g id="node5" class="node">
<title>Node5</title>
<g id="a_node5"><a xlink:title=" ">
<polygon fill="white" stroke="#bfbfbf" points="567,-6 567,-25 739,-25 739,-6 567,-6"/>
<text text-anchor="middle" x="653" y="-13" font-family="Helvetica,sans-Serif" font-size="10.00">matrix_free/KokkosViewTypes.h</text>
</a>
</g>
</g>
<!-- Node1&#45;&gt;Node5 -->
<g id="edge4" class="edge">
<title>Node1&#45;&gt;Node5</title>
<path fill="none" stroke="midnightblue" d="M784.94,-67.48C758.63,-57.31 714.49,-40.26 684.58,-28.7"/>
<polygon fill="midnightblue" stroke="midnightblue" points="685.61,-25.35 675.02,-25.01 683.09,-31.88 685.61,-25.35"/>
</g>
<!-- Node6 -->
<g id="node6" class="node">
<title>Node6</title>
<g id="a_node6"><a xlink:title=" ">
<polygon fill="white" stroke="#bfbfbf" points="757,-6 757,-25 857,-25 857,-6 757,-6"/>
<text text-anchor="middle" x="807" y="-13" font-family="Helvetica,sans-Serif" font-size="10.00">Teuchos_RCP.hpp</text>
</a>
</g>
</g>
<!-- Node1&#45;&gt;Node6 -->
<g id="edge5" class="edge">
<title>Node1&#45;&gt;Node6</title>
<path fill="none" stroke="midnightblue" d="M807,-67.48C807,-59.08 807,-45.98 807,-35.16"/>
<polygon fill="midnightblue" stroke="midnightblue" points="810.5,-35.01 807,-25.01 803.5,-35.01 810.5,-35.01"/>
</g>
<!-- Node7 -->
<g id="node7" class="node">
<title>Node7</title>
<g id="a_node7"><a xlink:title=" ">
<polygon fill="white" stroke="#bfbfbf" points="875,-6 875,-25 979,-25 979,-6 875,-6"/>
<text text-anchor="middle" x="927" y="-13" font-family="Helvetica,sans-Serif" font-size="10.00">KokkosInterface.h</text>
</a>
</g>
</g>
<!-- Node1&#45;&gt;Node7 -->
<g id="edge6" class="edge">
<title>Node1&#45;&gt;Node7</title>
<path fill="none" stroke="midnightblue" d="M824.19,-67.48C844.24,-57.53 877.6,-40.99 900.86,-29.46"/>
<polygon fill="midnightblue" stroke="midnightblue" points="902.43,-32.59 909.84,-25.01 899.32,-26.32 902.43,-32.59"/>
</g>
<!-- Node8 -->
<g id="node8" class="node">
<title>Node8</title>
<g id="a_node8"><a xlink:title=" ">
<polygon fill="white" stroke="#bfbfbf" points="997,-6 997,-25 1107,-25 1107,-6 997,-6"/>
<text text-anchor="middle" x="1052" y="-13" font-family="Helvetica,sans-Serif" font-size="10.00">stk_simd/Simd.hpp</text>
</a>
</g>
</g>
<!-- Node1&#45;&gt;Node8 -->
<g id="edge7" class="edge">
<title>Node1&#45;&gt;Node8</title>
<path fill="none" stroke="midnightblue" d="M842.1,-67.48C885.49,-56.94 959.41,-38.99 1006.95,-27.44"/>
<polygon fill="midnightblue" stroke="midnightblue" points="1008.07,-30.77 1016.96,-25.01 1006.42,-23.97 1008.07,-30.77"/>
</g>
<!-- Node9 -->
<g id="node9" class="node">
<title>Node9</title>
<g id="a_node9"><a xlink:title=" ">
<polygon fill="white" stroke="#bfbfbf" points="1125,-0.5 1125,-30.5 1277,-30.5 1277,-0.5 1125,-0.5"/>
<text text-anchor="start" x="1133" y="-18.5" font-family="Helvetica,sans-Serif" font-size="10.00">stk_mesh/base/NgpProfiling</text>
<text text-anchor="middle" x="1201" y="-7.5" font-family="Helvetica,sans-Serif" font-size="10.00">Block.hpp</text>
</a>
</g>
</g>
<!-- Node1&#45;&gt;Node9 -->
<g id="edge8" class="edge">
<title>Node1&#45;&gt;Node9</title>
<path fill="none" stroke="midnightblue" d="M863.73,-68.16C923.64,-59.79 1021.1,-45.89 1114.64,-31.19"/>
<polygon fill="midnightblue" stroke="midnightblue" points="1115.23,-34.65 1124.56,-29.63 1114.14,-27.73 1115.23,-34.65"/>
</g>
<!-- Node10 -->
<g id="node10" class="node">
<title>Node10</title>
<g id="a_node10"><a xlink:title=" ">
<polygon fill="white" stroke="#bfbfbf" points="1295.5,-6 1295.5,-25 1460.5,-25 1460.5,-6 1295.5,-6"/>
<text text-anchor="middle" x="1378" y="-13" font-family="Helvetica,sans-Serif" font-size="10.00">stk_util/util/ReportHandler.hpp</text>
</a>
</g>
</g>
<!-- Node1&#45;&gt;Node10 -->
<g id="edge9" class="edge">
<title>Node1&#45;&gt;Node10</title>
<path fill="none" stroke="midnightblue" d="M863.54,-71.84C953.26,-64.98 1133.72,-50.13 1286,-31 1296.21,-29.72 1307.03,-28.18 1317.53,-26.58"/>
<polygon fill="midnightblue" stroke="midnightblue" points="1318.12,-30.03 1327.47,-25.05 1317.05,-23.12 1318.12,-30.03"/>
</g>
</g>
</svg>
