<?xml version="1.0" encoding="UTF-8" standalone="no"?>
<!DOCTYPE svg PUBLIC "-//W3C//DTD SVG 1.1//EN"
 "http://www.w3.org/Graphics/SVG/1.1/DTD/svg11.dtd">
<!-- Generated by graphviz version 2.43.0 (0)
 -->
<!-- Title: SurfaceForceAndMomentAlgorithmDriver.C Pages: 1 -->
<svg width="1933pt" height="106pt"
 viewBox="0.00 0.00 1933.00 106.00" xmlns="http://www.w3.org/2000/svg" xmlns:xlink="http://www.w3.org/1999/xlink">
<g id="graph0" class="graph" transform="scale(1 1) rotate(0) translate(4 102)">
<title>SurfaceForceAndMomentAlgorithmDriver.C</title>
<polygon fill="white" stroke="transparent" points="-4,4 -4,-102 1929,-102 1929,4 -4,4"/>
<!-- Node1 -->
<g id="node1" class="node">
<title>Node1</title>
<g id="a_node1"><a xlink:title=" ">
<polygon fill="#bfbfbf" stroke="black" points="700,-67.5 700,-97.5 887,-97.5 887,-67.5 700,-67.5"/>
<text text-anchor="start" x="708" y="-85.5" font-family="Helvetica,sans-Serif" font-size="10.00">SurfaceForceAndMomentAlgorithm</text>
<text text-anchor="middle" x="793.5" y="-74.5" font-family="Helvetica,sans-Serif" font-size="10.00">Driver.C</text>
</a>
</g>
</g>
<!-- Node2 -->
<g id="node2" class="node">
<title>Node2</title>
<g id="a_node2"><a xlink:title=" ">
<polygon fill="white" stroke="#bfbfbf" points="0,-0.5 0,-30.5 187,-30.5 187,-0.5 0,-0.5"/>
<text text-anchor="start" x="8" y="-18.5" font-family="Helvetica,sans-Serif" font-size="10.00">SurfaceForceAndMomentAlgorithm</text>
<text text-anchor="middle" x="93.5" y="-7.5" font-family="Helvetica,sans-Serif" font-size="10.00">Driver.h</text>
</a>
</g>
</g>
<!-- Node1&#45;&gt;Node2 -->
<g id="edge1" class="edge">
<title>Node1&#45;&gt;Node2</title>
<path fill="none" stroke="midnightblue" d="M699.76,-75.19C584.19,-67.04 381.51,-51.56 197.37,-31.06"/>
<polygon fill="midnightblue" stroke="midnightblue" points="197.55,-27.55 187.22,-29.92 196.77,-34.51 197.55,-27.55"/>
</g>
<!-- Node3 -->
<g id="node3" class="node">
<title>Node3</title>
<g id="a_node3"><a xlink:title=" ">
<polygon fill="white" stroke="#bfbfbf" points="205.5,-6 205.5,-25 279.5,-25 279.5,-6 205.5,-6"/>
<text text-anchor="middle" x="242.5" y="-13" font-family="Helvetica,sans-Serif" font-size="10.00">Algorithm.h</text>
</a>
</g>
</g>
<!-- Node1&#45;&gt;Node3 -->
<g id="edge2" class="edge">
<title>Node1&#45;&gt;Node3</title>
<path fill="none" stroke="midnightblue" d="M699.56,-77.88C597.49,-72.61 430.05,-60.06 288.5,-31 284.55,-30.19 280.46,-29.17 276.43,-28.05"/>
<polygon fill="midnightblue" stroke="midnightblue" points="277.19,-24.63 266.6,-25.12 275.19,-31.34 277.19,-24.63"/>
</g>
<!-- Node4 -->
<g id="node4" class="node">
<title>Node4</title>
<g id="a_node4"><a xlink:title=" ">
<polygon fill="white" stroke="#bfbfbf" points="298,-6 298,-25 401,-25 401,-6 298,-6"/>
<text text-anchor="middle" x="349.5" y="-13" font-family="Helvetica,sans-Serif" font-size="10.00">AlgorithmDriver.h</text>
</a>
</g>
</g>
<!-- Node1&#45;&gt;Node4 -->
<g id="edge3" class="edge">
<title>Node1&#45;&gt;Node4</title>
<path fill="none" stroke="midnightblue" d="M699.95,-72.01C621.92,-63.43 508,-49.32 409.5,-31 403.76,-29.93 397.75,-28.66 391.84,-27.33"/>
<polygon fill="midnightblue" stroke="midnightblue" points="392.6,-23.91 382.06,-25.04 391,-30.72 392.6,-23.91"/>
</g>
<!-- Node5 -->
<g id="node5" class="node">
<title>Node5</title>
<g id="a_node5"><a xlink:title=" ">
<polygon fill="white" stroke="#bfbfbf" points="419,-6 419,-25 514,-25 514,-6 419,-6"/>
<text text-anchor="middle" x="466.5" y="-13" font-family="Helvetica,sans-Serif" font-size="10.00">FieldFunctions.h</text>
</a>
</g>
</g>
<!-- Node1&#45;&gt;Node5 -->
<g id="edge4" class="edge">
<title>Node1&#45;&gt;Node5</title>
<path fill="none" stroke="midnightblue" d="M710.8,-67.45C657.22,-58 586.02,-44.78 523.5,-31 518.7,-29.94 513.7,-28.77 508.73,-27.56"/>
<polygon fill="midnightblue" stroke="midnightblue" points="509.22,-24.08 498.67,-25.07 507.53,-30.87 509.22,-24.08"/>
</g>
<!-- Node6 -->
<g id="node6" class="node">
<title>Node6</title>
<g id="a_node6"><a xlink:title=" ">
<polygon fill="white" stroke="#bfbfbf" points="532.5,-6 532.5,-25 620.5,-25 620.5,-6 532.5,-6"/>
<text text-anchor="middle" x="576.5" y="-13" font-family="Helvetica,sans-Serif" font-size="10.00">FieldTypeDef.h</text>
</a>
</g>
</g>
<!-- Node1&#45;&gt;Node6 -->
<g id="edge5" class="edge">
<title>Node1&#45;&gt;Node6</title>
<path fill="none" stroke="midnightblue" d="M746.68,-67.48C707.28,-55.67 651.62,-39 614.82,-27.98"/>
<polygon fill="midnightblue" stroke="midnightblue" points="615.56,-24.55 604.97,-25.03 613.55,-31.25 615.56,-24.55"/>
</g>
<!-- Node7 -->
<g id="node7" class="node">
<title>Node7</title>
<g id="a_node7"><a xlink:title=" ">
<polygon fill="white" stroke="#bfbfbf" points="639,-6 639,-25 696,-25 696,-6 639,-6"/>
<text text-anchor="middle" x="667.5" y="-13" font-family="Helvetica,sans-Serif" font-size="10.00">Realm.h</text>
</a>
</g>
</g>
<!-- Node1&#45;&gt;Node7 -->
<g id="edge6" class="edge">
<title>Node1&#45;&gt;Node7</title>
<path fill="none" stroke="midnightblue" d="M766.16,-67.4C744.44,-56.19 714.3,-40.64 693.06,-29.69"/>
<polygon fill="midnightblue" stroke="midnightblue" points="694.48,-26.48 683.99,-25.01 691.27,-32.7 694.48,-26.48"/>
</g>
<!-- Node8 -->
<g id="node8" class="node">
<title>Node8</title>
<g id="a_node8"><a xlink:title=" ">
<polygon fill="white" stroke="#bfbfbf" points="714,-6 714,-25 873,-25 873,-6 714,-6"/>
<text text-anchor="middle" x="793.5" y="-13" font-family="Helvetica,sans-Serif" font-size="10.00">stk_mesh/base/BulkData.hpp</text>
</a>
</g>
</g>
<!-- Node1&#45;&gt;Node8 -->
<g id="edge7" class="edge">
<title>Node1&#45;&gt;Node8</title>
<path fill="none" stroke="midnightblue" d="M793.5,-67.4C793.5,-58.06 793.5,-45.71 793.5,-35.52"/>
<polygon fill="midnightblue" stroke="midnightblue" points="797,-35.19 793.5,-25.19 790,-35.19 797,-35.19"/>
</g>
<!-- Node9 -->
<g id="node9" class="node">
<title>Node9</title>
<g id="a_node9"><a xlink:title=" ">
<polygon fill="white" stroke="#bfbfbf" points="891,-6 891,-25 1028,-25 1028,-6 891,-6"/>
<text text-anchor="middle" x="959.5" y="-13" font-family="Helvetica,sans-Serif" font-size="10.00">stk_mesh/base/Field.hpp</text>
</a>
</g>
</g>
<!-- Node1&#45;&gt;Node9 -->
<g id="edge8" class="edge">
<title>Node1&#45;&gt;Node9</title>
<path fill="none" stroke="midnightblue" d="M829.52,-67.4C859.03,-55.84 900.36,-39.66 928.44,-28.66"/>
<polygon fill="midnightblue" stroke="midnightblue" points="929.74,-31.91 937.77,-25.01 927.19,-25.39 929.74,-31.91"/>
</g>
<!-- Node10 -->
<g id="node10" class="node">
<title>Node10</title>
<g id="a_node10"><a xlink:title=" ">
<polygon fill="white" stroke="#bfbfbf" points="1046,-6 1046,-25 1219,-25 1219,-6 1046,-6"/>
<text text-anchor="middle" x="1132.5" y="-13" font-family="Helvetica,sans-Serif" font-size="10.00">stk_mesh/base/FieldParallel.hpp</text>
</a>
</g>
</g>
<!-- Node1&#45;&gt;Node10 -->
<g id="edge9" class="edge">
<title>Node1&#45;&gt;Node10</title>
<path fill="none" stroke="midnightblue" d="M866.64,-67.48C930.17,-55.29 1020.75,-37.93 1078.07,-26.94"/>
<polygon fill="midnightblue" stroke="midnightblue" points="1078.86,-30.35 1088.02,-25.03 1077.54,-23.47 1078.86,-30.35"/>
</g>
<!-- Node11 -->
<g id="node11" class="node">
<title>Node11</title>
<g id="a_node11"><a xlink:title=" ">
<polygon fill="white" stroke="#bfbfbf" points="1237.5,-6 1237.5,-25 1407.5,-25 1407.5,-6 1237.5,-6"/>
<text text-anchor="middle" x="1322.5" y="-13" font-family="Helvetica,sans-Serif" font-size="10.00">stk_mesh/base/GetBuckets.hpp</text>
</a>
</g>
</g>
<!-- Node1&#45;&gt;Node11 -->
<g id="edge10" class="edge">
<title>Node1&#45;&gt;Node11</title>
<path fill="none" stroke="midnightblue" d="M887.39,-71.63C975.58,-62.11 1111.15,-46.86 1228.5,-31 1238.44,-29.66 1248.96,-28.13 1259.22,-26.59"/>
<polygon fill="midnightblue" stroke="midnightblue" points="1260,-30.02 1269.36,-25.05 1258.95,-23.09 1260,-30.02"/>
</g>
<!-- Node12 -->
<g id="node12" class="node">
<title>Node12</title>
<g id="a_node12"><a xlink:title=" ">
<polygon fill="white" stroke="#bfbfbf" points="1425.5,-6 1425.5,-25 1593.5,-25 1593.5,-6 1425.5,-6"/>
<text text-anchor="middle" x="1509.5" y="-13" font-family="Helvetica,sans-Serif" font-size="10.00">stk_mesh/base/GetEntities.hpp</text>
</a>
</g>
</g>
<!-- Node1&#45;&gt;Node12 -->
<g id="edge11" class="edge">
<title>Node1&#45;&gt;Node12</title>
<path fill="none" stroke="midnightblue" d="M887.12,-76.07C1009.2,-68.5 1229.26,-53.15 1416.5,-31 1427.18,-29.74 1438.53,-28.16 1449.48,-26.52"/>
<polygon fill="midnightblue" stroke="midnightblue" points="1450.04,-29.98 1459.4,-25.01 1448.98,-23.06 1450.04,-29.98"/>
</g>
<!-- Node13 -->
<g id="node13" class="node">
<title>Node13</title>
<g id="a_node13"><a xlink:title=" ">
<polygon fill="white" stroke="#bfbfbf" points="1611.5,-6 1611.5,-25 1773.5,-25 1773.5,-6 1611.5,-6"/>
<text text-anchor="middle" x="1692.5" y="-13" font-family="Helvetica,sans-Serif" font-size="10.00">stk_mesh/base/MetaData.hpp</text>
</a>
</g>
</g>
<!-- Node1&#45;&gt;Node13 -->
<g id="edge12" class="edge">
<title>Node1&#45;&gt;Node13</title>
<path fill="none" stroke="midnightblue" d="M887.18,-78.62C1038.16,-73.3 1344.46,-59.77 1602.5,-31 1612.99,-29.83 1624.12,-28.29 1634.85,-26.64"/>
<polygon fill="midnightblue" stroke="midnightblue" points="1635.64,-30.06 1644.98,-25.04 1634.55,-23.15 1635.64,-30.06"/>
</g>
<!-- Node14 -->
<g id="node14" class="node">
<title>Node14</title>
<g id="a_node14"><a xlink:title=" ">
<polygon fill="white" stroke="#bfbfbf" points="1792,-6 1792,-25 1925,-25 1925,-6 1792,-6"/>
<text text-anchor="middle" x="1858.5" y="-13" font-family="Helvetica,sans-Serif" font-size="10.00">stk_mesh/base/Part.hpp</text>
</a>
</g>
</g>
<!-- Node1&#45;&gt;Node14 -->
<g id="edge13" class="edge">
<title>Node1&#45;&gt;Node14</title>
<path fill="none" stroke="midnightblue" d="M887.27,-81C1063.34,-79.1 1455.2,-70.39 1782.5,-31 1791.22,-29.95 1800.44,-28.49 1809.35,-26.9"/>
<polygon fill="midnightblue" stroke="midnightblue" points="1810.03,-30.33 1819.22,-25.06 1808.74,-23.45 1810.03,-30.33"/>
</g>
</g>
</svg>
