<?xml version="1.0" encoding="UTF-8" standalone="no"?>
<!DOCTYPE svg PUBLIC "-//W3C//DTD SVG 1.1//EN"
 "http://www.w3.org/Graphics/SVG/1.1/DTD/svg11.dtd">
<!-- Generated by graphviz version 2.43.0 (0)
 -->
<!-- Title: SurfaceForceAndMomentWallFunctionAlgorithm.C Pages: 1 -->
<svg width="2318pt" height="106pt"
 viewBox="0.00 0.00 2318.00 106.00" xmlns="http://www.w3.org/2000/svg" xmlns:xlink="http://www.w3.org/1999/xlink">
<g id="graph0" class="graph" transform="scale(1 1) rotate(0) translate(4 102)">
<title>SurfaceForceAndMomentWallFunctionAlgorithm.C</title>
<polygon fill="white" stroke="transparent" points="-4,4 -4,-102 2314,-102 2314,4 -4,4"/>
<!-- Node1 -->
<g id="node1" class="node">
<title>Node1</title>
<g id="a_node1"><a xlink:title=" ">
<polygon fill="#bfbfbf" stroke="black" points="1094,-67.5 1094,-97.5 1254,-97.5 1254,-67.5 1094,-67.5"/>
<text text-anchor="start" x="1102" y="-85.5" font-family="Helvetica,sans-Serif" font-size="10.00">SurfaceForceAndMomentWall</text>
<text text-anchor="middle" x="1174" y="-74.5" font-family="Helvetica,sans-Serif" font-size="10.00">FunctionAlgorithm.C</text>
</a>
</g>
</g>
<!-- Node2 -->
<g id="node2" class="node">
<title>Node2</title>
<g id="a_node2"><a xlink:title=" ">
<polygon fill="white" stroke="#bfbfbf" points="0,-0.5 0,-30.5 160,-30.5 160,-0.5 0,-0.5"/>
<text text-anchor="start" x="8" y="-18.5" font-family="Helvetica,sans-Serif" font-size="10.00">SurfaceForceAndMomentWall</text>
<text text-anchor="middle" x="80" y="-7.5" font-family="Helvetica,sans-Serif" font-size="10.00">FunctionAlgorithm.h</text>
</a>
</g>
</g>
<!-- Node1&#45;&gt;Node2 -->
<g id="edge1" class="edge">
<title>Node1&#45;&gt;Node2</title>
<path fill="none" stroke="midnightblue" d="M1093.97,-80.5C925.07,-77.73 519.7,-67.63 170.53,-31.08"/>
<polygon fill="midnightblue" stroke="midnightblue" points="170.79,-27.59 160.48,-30.02 170.05,-34.55 170.79,-27.59"/>
</g>
<!-- Node3 -->
<g id="node3" class="node">
<title>Node3</title>
<g id="a_node3"><a xlink:title=" ">
<polygon fill="white" stroke="#bfbfbf" points="178,-6 178,-25 252,-25 252,-6 178,-6"/>
<text text-anchor="middle" x="215" y="-13" font-family="Helvetica,sans-Serif" font-size="10.00">Algorithm.h</text>
</a>
</g>
</g>
<!-- Node1&#45;&gt;Node3 -->
<g id="edge2" class="edge">
<title>Node1&#45;&gt;Node3</title>
<path fill="none" stroke="midnightblue" d="M1093.9,-79.64C901.92,-74.76 419.71,-59.93 261,-31 256.74,-30.22 252.32,-29.17 247.98,-27.98"/>
<polygon fill="midnightblue" stroke="midnightblue" points="248.7,-24.54 238.12,-25.03 246.69,-31.25 248.7,-24.54"/>
</g>
<!-- Node4 -->
<g id="node4" class="node">
<title>Node4</title>
<g id="a_node4"><a xlink:title=" ">
<polygon fill="white" stroke="#bfbfbf" points="270,-6 270,-25 358,-25 358,-6 270,-6"/>
<text text-anchor="middle" x="314" y="-13" font-family="Helvetica,sans-Serif" font-size="10.00">FieldTypeDef.h</text>
</a>
</g>
</g>
<!-- Node1&#45;&gt;Node4 -->
<g id="edge3" class="edge">
<title>Node1&#45;&gt;Node4</title>
<path fill="none" stroke="midnightblue" d="M1093.78,-81.89C948.03,-81.39 630.45,-74.81 367,-31 361.78,-30.13 356.34,-28.96 351.01,-27.66"/>
<polygon fill="midnightblue" stroke="midnightblue" points="351.56,-24.18 341,-25.03 349.78,-30.95 351.56,-24.18"/>
</g>
<!-- Node5 -->
<g id="node5" class="node">
<title>Node5</title>
<g id="a_node5"><a xlink:title=" ">
<polygon fill="white" stroke="#bfbfbf" points="376.5,-6 376.5,-25 433.5,-25 433.5,-6 376.5,-6"/>
<text text-anchor="middle" x="405" y="-13" font-family="Helvetica,sans-Serif" font-size="10.00">Realm.h</text>
</a>
</g>
</g>
<!-- Node1&#45;&gt;Node5 -->
<g id="edge4" class="edge">
<title>Node1&#45;&gt;Node5</title>
<path fill="none" stroke="midnightblue" d="M1093.85,-79.04C930.5,-73.54 564.18,-58.48 442,-31 439,-30.33 435.92,-29.45 432.89,-28.45"/>
<polygon fill="midnightblue" stroke="midnightblue" points="434.07,-25.16 423.47,-25.01 431.67,-31.73 434.07,-25.16"/>
</g>
<!-- Node6 -->
<g id="node6" class="node">
<title>Node6</title>
<g id="a_node6"><a xlink:title=" ">
<polygon fill="white" stroke="#bfbfbf" points="451.5,-6 451.5,-25 634.5,-25 634.5,-6 451.5,-6"/>
<text text-anchor="middle" x="543" y="-13" font-family="Helvetica,sans-Serif" font-size="10.00">master_element/MasterElement.h</text>
</a>
</g>
</g>
<!-- Node1&#45;&gt;Node6 -->
<g id="edge5" class="edge">
<title>Node1&#45;&gt;Node6</title>
<path fill="none" stroke="midnightblue" d="M1093.96,-75.07C990.07,-66.45 803.24,-50.01 644,-31 632.71,-29.65 620.73,-28.07 609.12,-26.45"/>
<polygon fill="midnightblue" stroke="midnightblue" points="609.42,-22.96 599.03,-25.03 608.44,-29.89 609.42,-22.96"/>
</g>
<!-- Node7 -->
<g id="node7" class="node">
<title>Node7</title>
<g id="a_node7"><a xlink:title=" ">
<polygon fill="white" stroke="#bfbfbf" points="653,-0.5 653,-30.5 827,-30.5 827,-0.5 653,-0.5"/>
<text text-anchor="start" x="661" y="-18.5" font-family="Helvetica,sans-Serif" font-size="10.00">master_element/MasterElement</text>
<text text-anchor="middle" x="740" y="-7.5" font-family="Helvetica,sans-Serif" font-size="10.00">Repo.h</text>
</a>
</g>
</g>
<!-- Node1&#45;&gt;Node7 -->
<g id="edge6" class="edge">
<title>Node1&#45;&gt;Node7</title>
<path fill="none" stroke="midnightblue" d="M1093.75,-69.55C1027.6,-59.69 931.03,-45.27 837.08,-31.16"/>
<polygon fill="midnightblue" stroke="midnightblue" points="837.53,-27.69 827.12,-29.66 836.49,-34.61 837.53,-27.69"/>
</g>
<!-- Node8 -->
<g id="node8" class="node">
<title>Node8</title>
<g id="a_node8"><a xlink:title=" ">
<polygon fill="white" stroke="#bfbfbf" points="845.5,-6 845.5,-25 910.5,-25 910.5,-6 845.5,-6"/>
<text text-anchor="middle" x="878" y="-13" font-family="Helvetica,sans-Serif" font-size="10.00">NaluEnv.h</text>
</a>
</g>
</g>
<!-- Node1&#45;&gt;Node8 -->
<g id="edge7" class="edge">
<title>Node1&#45;&gt;Node8</title>
<path fill="none" stroke="midnightblue" d="M1093.77,-68.68C1043.2,-59.84 976.78,-46.85 919,-31 916.04,-30.19 912.98,-29.27 909.94,-28.29"/>
<polygon fill="midnightblue" stroke="midnightblue" points="910.97,-24.95 900.37,-25.07 908.73,-31.58 910.97,-24.95"/>
</g>
<!-- Node9 -->
<g id="node9" class="node">
<title>Node9</title>
<g id="a_node9"><a xlink:title=" ">
<polygon fill="white" stroke="#bfbfbf" points="928.5,-6 928.5,-25 1087.5,-25 1087.5,-6 928.5,-6"/>
<text text-anchor="middle" x="1008" y="-13" font-family="Helvetica,sans-Serif" font-size="10.00">stk_mesh/base/BulkData.hpp</text>
</a>
</g>
</g>
<!-- Node1&#45;&gt;Node9 -->
<g id="edge8" class="edge">
<title>Node1&#45;&gt;Node9</title>
<path fill="none" stroke="midnightblue" d="M1137.98,-67.4C1108.47,-55.84 1067.14,-39.66 1039.06,-28.66"/>
<polygon fill="midnightblue" stroke="midnightblue" points="1040.31,-25.39 1029.73,-25.01 1037.76,-31.91 1040.31,-25.39"/>
</g>
<!-- Node10 -->
<g id="node10" class="node">
<title>Node10</title>
<g id="a_node10"><a xlink:title=" ">
<polygon fill="white" stroke="#bfbfbf" points="1105.5,-6 1105.5,-25 1242.5,-25 1242.5,-6 1105.5,-6"/>
<text text-anchor="middle" x="1174" y="-13" font-family="Helvetica,sans-Serif" font-size="10.00">stk_mesh/base/Field.hpp</text>
</a>
</g>
</g>
<!-- Node1&#45;&gt;Node10 -->
<g id="edge9" class="edge">
<title>Node1&#45;&gt;Node10</title>
<path fill="none" stroke="midnightblue" d="M1174,-67.4C1174,-58.06 1174,-45.71 1174,-35.52"/>
<polygon fill="midnightblue" stroke="midnightblue" points="1177.5,-35.19 1174,-25.19 1170.5,-35.19 1177.5,-35.19"/>
</g>
<!-- Node11 -->
<g id="node11" class="node">
<title>Node11</title>
<g id="a_node11"><a xlink:title=" ">
<polygon fill="white" stroke="#bfbfbf" points="1261,-6 1261,-25 1431,-25 1431,-6 1261,-6"/>
<text text-anchor="middle" x="1346" y="-13" font-family="Helvetica,sans-Serif" font-size="10.00">stk_mesh/base/GetBuckets.hpp</text>
</a>
</g>
</g>
<!-- Node1&#45;&gt;Node11 -->
<g id="edge10" class="edge">
<title>Node1&#45;&gt;Node11</title>
<path fill="none" stroke="midnightblue" d="M1211.32,-67.4C1241.9,-55.84 1284.73,-39.66 1313.82,-28.66"/>
<polygon fill="midnightblue" stroke="midnightblue" points="1315.37,-31.82 1323.49,-25.01 1312.9,-25.27 1315.37,-31.82"/>
</g>
<!-- Node12 -->
<g id="node12" class="node">
<title>Node12</title>
<g id="a_node12"><a xlink:title=" ">
<polygon fill="white" stroke="#bfbfbf" points="1449,-6 1449,-25 1617,-25 1617,-6 1449,-6"/>
<text text-anchor="middle" x="1533" y="-13" font-family="Helvetica,sans-Serif" font-size="10.00">stk_mesh/base/GetEntities.hpp</text>
</a>
</g>
</g>
<!-- Node1&#45;&gt;Node12 -->
<g id="edge11" class="edge">
<title>Node1&#45;&gt;Node12</title>
<path fill="none" stroke="midnightblue" d="M1251.46,-67.48C1318.87,-55.27 1415.05,-37.86 1475.73,-26.87"/>
<polygon fill="midnightblue" stroke="midnightblue" points="1476.68,-30.25 1485.9,-25.03 1475.43,-23.37 1476.68,-30.25"/>
</g>
<!-- Node13 -->
<g id="node13" class="node">
<title>Node13</title>
<g id="a_node13"><a xlink:title=" ">
<polygon fill="white" stroke="#bfbfbf" points="1635,-6 1635,-25 1797,-25 1797,-6 1635,-6"/>
<text text-anchor="middle" x="1716" y="-13" font-family="Helvetica,sans-Serif" font-size="10.00">stk_mesh/base/MetaData.hpp</text>
</a>
</g>
</g>
<!-- Node1&#45;&gt;Node13 -->
<g id="edge12" class="edge">
<title>Node1&#45;&gt;Node13</title>
<path fill="none" stroke="midnightblue" d="M1254.16,-73.73C1344.63,-64.68 1496.13,-48.71 1626,-31 1635.54,-29.7 1645.64,-28.2 1655.48,-26.66"/>
<polygon fill="midnightblue" stroke="midnightblue" points="1656.28,-30.08 1665.61,-25.06 1655.18,-23.17 1656.28,-30.08"/>
</g>
<!-- Node14 -->
<g id="node14" class="node">
<title>Node14</title>
<g id="a_node14"><a xlink:title=" ">
<polygon fill="white" stroke="#bfbfbf" points="1815.5,-6 1815.5,-25 1948.5,-25 1948.5,-6 1815.5,-6"/>
<text text-anchor="middle" x="1882" y="-13" font-family="Helvetica,sans-Serif" font-size="10.00">stk_mesh/base/Part.hpp</text>
</a>
</g>
</g>
<!-- Node1&#45;&gt;Node14 -->
<g id="edge13" class="edge">
<title>Node1&#45;&gt;Node14</title>
<path fill="none" stroke="midnightblue" d="M1254.11,-77.9C1374.38,-71.86 1608.56,-57.64 1806,-31 1814.32,-29.88 1823.12,-28.44 1831.65,-26.9"/>
<polygon fill="midnightblue" stroke="midnightblue" points="1832.32,-30.34 1841.51,-25.07 1831.04,-23.46 1832.32,-30.34"/>
</g>
<!-- Node15 -->
<g id="node15" class="node">
<title>Node15</title>
<g id="a_node15"><a xlink:title=" ">
<polygon fill="white" stroke="#bfbfbf" points="1966.5,-0.5 1966.5,-30.5 2097.5,-30.5 2097.5,-0.5 1966.5,-0.5"/>
<text text-anchor="start" x="1974.5" y="-18.5" font-family="Helvetica,sans-Serif" font-size="10.00">stk_util/parallel/Parallel</text>
<text text-anchor="middle" x="2032" y="-7.5" font-family="Helvetica,sans-Serif" font-size="10.00">Reduce.hpp</text>
</a>
</g>
</g>
<!-- Node1&#45;&gt;Node15 -->
<g id="edge14" class="edge">
<title>Node1&#45;&gt;Node15</title>
<path fill="none" stroke="midnightblue" d="M1254.18,-79.75C1394.65,-75.94 1694.45,-64.46 1956.23,-31.13"/>
<polygon fill="midnightblue" stroke="midnightblue" points="1956.83,-34.58 1966.3,-29.83 1955.94,-27.63 1956.83,-34.58"/>
</g>
<!-- Node16 -->
<g id="node16" class="node">
<title>Node16</title>
<g id="a_node16"><a xlink:title=" ">
<polygon fill="white" stroke="#bfbfbf" points="2115.5,-6 2115.5,-25 2162.5,-25 2162.5,-6 2115.5,-6"/>
<text text-anchor="middle" x="2139" y="-13" font-family="Helvetica,sans-Serif" font-size="10.00">cmath</text>
</a>
</g>
</g>
<!-- Node1&#45;&gt;Node16 -->
<g id="edge15" class="edge">
<title>Node1&#45;&gt;Node16</title>
<path fill="none" stroke="midnightblue" d="M1254.31,-80.96C1449.85,-79.02 1946.37,-70.27 2107,-31 2109.21,-30.46 2111.46,-29.77 2113.69,-28.98"/>
<polygon fill="midnightblue" stroke="midnightblue" points="2115.23,-32.13 2123.14,-25.09 2112.56,-25.66 2115.23,-32.13"/>
</g>
<!-- Node17 -->
<g id="node17" class="node">
<title>Node17</title>
<g id="a_node17"><a xlink:title=" ">
<polygon fill="white" stroke="#bfbfbf" points="2180.5,-6 2180.5,-25 2235.5,-25 2235.5,-6 2180.5,-6"/>
<text text-anchor="middle" x="2208" y="-13" font-family="Helvetica,sans-Serif" font-size="10.00">fstream</text>
</a>
</g>
</g>
<!-- Node1&#45;&gt;Node17 -->
<g id="edge16" class="edge">
<title>Node1&#45;&gt;Node17</title>
<path fill="none" stroke="midnightblue" d="M1254.11,-80.86C1458.92,-78.69 1997.7,-69.38 2172,-31 2174.84,-30.38 2177.74,-29.55 2180.61,-28.61"/>
<polygon fill="midnightblue" stroke="midnightblue" points="2181.91,-31.86 2190.06,-25.09 2179.47,-25.3 2181.91,-31.86"/>
</g>
<!-- Node18 -->
<g id="node18" class="node">
<title>Node18</title>
<g id="a_node18"><a xlink:title=" ">
<polygon fill="white" stroke="#bfbfbf" points="2254,-6 2254,-25 2310,-25 2310,-6 2254,-6"/>
<text text-anchor="middle" x="2282" y="-13" font-family="Helvetica,sans-Serif" font-size="10.00">iomanip</text>
</a>
</g>
</g>
<!-- Node1&#45;&gt;Node18 -->
<g id="edge17" class="edge">
<title>Node1&#45;&gt;Node18</title>
<path fill="none" stroke="midnightblue" d="M1254.03,-81.09C1469.1,-79.46 2056.02,-71.34 2245,-31 2248.01,-30.36 2251.09,-29.5 2254.13,-28.52"/>
<polygon fill="midnightblue" stroke="midnightblue" points="2255.34,-31.8 2263.54,-25.1 2252.95,-25.23 2255.34,-31.8"/>
</g>
</g>
</svg>
