<?xml version="1.0" encoding="UTF-8" standalone="no"?>
<!DOCTYPE svg PUBLIC "-//W3C//DTD SVG 1.1//EN"
 "http://www.w3.org/Graphics/SVG/1.1/DTD/svg11.dtd">
<!-- Generated by graphviz version 2.43.0 (0)
 -->
<!-- Title: SyntheticLidar.C Pages: 1 -->
<svg width="1143pt" height="84pt"
 viewBox="0.00 0.00 1143.00 84.00" xmlns="http://www.w3.org/2000/svg" xmlns:xlink="http://www.w3.org/1999/xlink">
<g id="graph0" class="graph" transform="scale(1 1) rotate(0) translate(4 80)">
<title>SyntheticLidar.C</title>
<polygon fill="white" stroke="transparent" points="-4,4 -4,-80 1139,-80 1139,4 -4,4"/>
<!-- Node1 -->
<g id="node1" class="node">
<title>Node1</title>
<g id="a_node1"><a xlink:title=" ">
<polygon fill="#bfbfbf" stroke="black" points="644.5,-56.5 644.5,-75.5 739.5,-75.5 739.5,-56.5 644.5,-56.5"/>
<text text-anchor="middle" x="692" y="-63.5" font-family="Helvetica,sans-Serif" font-size="10.00">SyntheticLidar.C</text>
</a>
</g>
</g>
<!-- Node2 -->
<g id="node2" class="node">
<title>Node2</title>
<g id="a_node2"><a xlink:title=" ">
<polygon fill="white" stroke="#bfbfbf" points="0,-0.5 0,-19.5 160,-19.5 160,-0.5 0,-0.5"/>
<text text-anchor="middle" x="80" y="-7.5" font-family="Helvetica,sans-Serif" font-size="10.00">wind_energy/SyntheticLidar.h</text>
</a>
</g>
</g>
<!-- Node1&#45;&gt;Node2 -->
<g id="edge1" class="edge">
<title>Node1&#45;&gt;Node2</title>
<path fill="none" stroke="midnightblue" d="M644.39,-61.14C554.11,-53.78 351.61,-37.01 170.05,-20.09"/>
<polygon fill="midnightblue" stroke="midnightblue" points="170.33,-16.6 160.05,-19.15 169.68,-23.57 170.33,-16.6"/>
</g>
<!-- Node3 -->
<g id="node3" class="node">
<title>Node3</title>
<g id="a_node3"><a xlink:title=" ">
<polygon fill="white" stroke="#bfbfbf" points="178.5,-0.5 178.5,-19.5 261.5,-19.5 261.5,-0.5 178.5,-0.5"/>
<text text-anchor="middle" x="220" y="-7.5" font-family="Helvetica,sans-Serif" font-size="10.00">NaluParsing.h</text>
</a>
</g>
</g>
<!-- Node1&#45;&gt;Node3 -->
<g id="edge2" class="edge">
<title>Node1&#45;&gt;Node3</title>
<path fill="none" stroke="midnightblue" d="M644.4,-61.05C567.93,-54.45 412.79,-40.06 271.83,-20.18"/>
<polygon fill="midnightblue" stroke="midnightblue" points="272.1,-16.68 261.71,-18.74 271.11,-23.61 272.1,-16.68"/>
</g>
<!-- Node4 -->
<g id="node4" class="node">
<title>Node4</title>
<g id="a_node4"><a xlink:title=" ">
<polygon fill="white" stroke="#bfbfbf" points="279.5,-0.5 279.5,-19.5 438.5,-19.5 438.5,-0.5 279.5,-0.5"/>
<text text-anchor="middle" x="359" y="-7.5" font-family="Helvetica,sans-Serif" font-size="10.00">master_element/TensorOps.h</text>
</a>
</g>
</g>
<!-- Node1&#45;&gt;Node4 -->
<g id="edge3" class="edge">
<title>Node1&#45;&gt;Node4</title>
<path fill="none" stroke="midnightblue" d="M644.29,-57.26C585.74,-47.77 486.29,-31.64 421.63,-21.16"/>
<polygon fill="midnightblue" stroke="midnightblue" points="422,-17.67 411.57,-19.52 420.88,-24.58 422,-17.67"/>
</g>
<!-- Node5 -->
<g id="node5" class="node">
<title>Node5</title>
<g id="a_node5"><a xlink:title=" ">
<polygon fill="white" stroke="#bfbfbf" points="457,-0.5 457,-19.5 543,-19.5 543,-0.5 457,-0.5"/>
<text text-anchor="middle" x="500" y="-7.5" font-family="Helvetica,sans-Serif" font-size="10.00">xfer/Transfer.h</text>
</a>
</g>
</g>
<!-- Node1&#45;&gt;Node5 -->
<g id="edge4" class="edge">
<title>Node1&#45;&gt;Node5</title>
<path fill="none" stroke="midnightblue" d="M661.58,-56.44C628.72,-47.2 576.22,-32.44 540.03,-22.26"/>
<polygon fill="midnightblue" stroke="midnightblue" points="540.85,-18.85 530.28,-19.52 538.96,-25.59 540.85,-18.85"/>
</g>
<!-- Node6 -->
<g id="node6" class="node">
<title>Node6</title>
<g id="a_node6"><a xlink:title=" ">
<polygon fill="white" stroke="#bfbfbf" points="561.5,-0.5 561.5,-19.5 704.5,-19.5 704.5,-0.5 561.5,-0.5"/>
<text text-anchor="middle" x="633" y="-7.5" font-family="Helvetica,sans-Serif" font-size="10.00">xfer/LocalVolumeSearch.h</text>
</a>
</g>
</g>
<!-- Node1&#45;&gt;Node6 -->
<g id="edge5" class="edge">
<title>Node1&#45;&gt;Node6</title>
<path fill="none" stroke="midnightblue" d="M682.52,-56.32C673.8,-48.34 660.66,-36.31 650.1,-26.65"/>
<polygon fill="midnightblue" stroke="midnightblue" points="652.39,-24 642.65,-19.83 647.67,-29.17 652.39,-24"/>
</g>
<!-- Node7 -->
<g id="node7" class="node">
<title>Node7</title>
<g id="a_node7"><a xlink:title=" ">
<polygon fill="white" stroke="#bfbfbf" points="723,-0.5 723,-19.5 779,-19.5 779,-0.5 723,-0.5"/>
<text text-anchor="middle" x="751" y="-7.5" font-family="Helvetica,sans-Serif" font-size="10.00">netcdf.h</text>
</a>
</g>
</g>
<!-- Node1&#45;&gt;Node7 -->
<g id="edge6" class="edge">
<title>Node1&#45;&gt;Node7</title>
<path fill="none" stroke="midnightblue" d="M701.48,-56.32C710.2,-48.34 723.34,-36.31 733.9,-26.65"/>
<polygon fill="midnightblue" stroke="midnightblue" points="736.33,-29.17 741.35,-19.83 731.61,-24 736.33,-29.17"/>
</g>
<!-- Node8 -->
<g id="node8" class="node">
<title>Node8</title>
<g id="a_node8"><a xlink:title=" ">
<polygon fill="white" stroke="#bfbfbf" points="797,-0.5 797,-19.5 883,-19.5 883,-0.5 797,-0.5"/>
<text text-anchor="middle" x="840" y="-7.5" font-family="Helvetica,sans-Serif" font-size="10.00">Ioss_FileInfo.h</text>
</a>
</g>
</g>
<!-- Node1&#45;&gt;Node8 -->
<g id="edge7" class="edge">
<title>Node1&#45;&gt;Node8</title>
<path fill="none" stroke="midnightblue" d="M715.45,-56.44C740.13,-47.44 779.19,-33.19 806.98,-23.05"/>
<polygon fill="midnightblue" stroke="midnightblue" points="808.46,-26.23 816.66,-19.52 806.06,-19.66 808.46,-26.23"/>
</g>
<!-- Node9 -->
<g id="node9" class="node">
<title>Node9</title>
<g id="a_node9"><a xlink:title=" ">
<polygon fill="white" stroke="#bfbfbf" points="901,-0.5 901,-19.5 971,-19.5 971,-0.5 901,-0.5"/>
<text text-anchor="middle" x="936" y="-7.5" font-family="Helvetica,sans-Serif" font-size="10.00">vs/vector.h</text>
</a>
</g>
</g>
<!-- Node1&#45;&gt;Node9 -->
<g id="edge8" class="edge">
<title>Node1&#45;&gt;Node9</title>
<path fill="none" stroke="midnightblue" d="M730.66,-56.44C774.14,-46.82 844.66,-31.21 890.69,-21.03"/>
<polygon fill="midnightblue" stroke="midnightblue" points="891.68,-24.39 900.69,-18.82 890.17,-17.56 891.68,-24.39"/>
</g>
<!-- Node10 -->
<g id="node10" class="node">
<title>Node10</title>
<g id="a_node10"><a xlink:title=" ">
<polygon fill="white" stroke="#bfbfbf" points="989,-0.5 989,-19.5 1059,-19.5 1059,-0.5 989,-0.5"/>
<text text-anchor="middle" x="1024" y="-7.5" font-family="Helvetica,sans-Serif" font-size="10.00">vs/tensor.h</text>
</a>
</g>
</g>
<!-- Node1&#45;&gt;Node10 -->
<g id="edge9" class="edge">
<title>Node1&#45;&gt;Node10</title>
<path fill="none" stroke="midnightblue" d="M739.51,-58.27C794.69,-50.3 888.68,-36.25 979.1,-20.09"/>
<polygon fill="midnightblue" stroke="midnightblue" points="979.74,-23.53 988.96,-18.32 978.5,-16.65 979.74,-23.53"/>
</g>
<!-- Node11 -->
<g id="node11" class="node">
<title>Node11</title>
<g id="a_node11"><a xlink:title=" ">
<polygon fill="white" stroke="#bfbfbf" points="1077,-0.5 1077,-19.5 1135,-19.5 1135,-0.5 1077,-0.5"/>
<text text-anchor="middle" x="1106" y="-7.5" font-family="Helvetica,sans-Serif" font-size="10.00">memory</text>
</a>
</g>
</g>
<!-- Node1&#45;&gt;Node11 -->
<g id="edge10" class="edge">
<title>Node1&#45;&gt;Node11</title>
<path fill="none" stroke="midnightblue" d="M739.74,-61.04C809.5,-54.86 943.53,-41.54 1066.63,-20.07"/>
<polygon fill="midnightblue" stroke="midnightblue" points="1067.37,-23.49 1076.61,-18.31 1066.15,-16.6 1067.37,-23.49"/>
</g>
</g>
</svg>
