<?xml version="1.0" encoding="UTF-8" standalone="no"?>
<!DOCTYPE svg PUBLIC "-//W3C//DTD SVG 1.1//EN"
 "http://www.w3.org/Graphics/SVG/1.1/DTD/svg11.dtd">
<!-- Generated by graphviz version 2.43.0 (0)
 -->
<!-- Title: TKESSTDESNodeKernel.C Pages: 1 -->
<svg width="944pt" height="95pt"
 viewBox="0.00 0.00 944.00 95.00" xmlns="http://www.w3.org/2000/svg" xmlns:xlink="http://www.w3.org/1999/xlink">
<g id="graph0" class="graph" transform="scale(1 1) rotate(0) translate(4 91)">
<title>TKESSTDESNodeKernel.C</title>
<polygon fill="white" stroke="transparent" points="-4,4 -4,-91 940,-91 940,4 -4,4"/>
<!-- Node1 -->
<g id="node1" class="node">
<title>Node1</title>
<g id="a_node1"><a xlink:title=" ">
<polygon fill="#bfbfbf" stroke="black" points="362.5,-67.5 362.5,-86.5 501.5,-86.5 501.5,-67.5 362.5,-67.5"/>
<text text-anchor="middle" x="432" y="-74.5" font-family="Helvetica,sans-Serif" font-size="10.00">TKESSTDESNodeKernel.C</text>
</a>
</g>
</g>
<!-- Node2 -->
<g id="node2" class="node">
<title>Node2</title>
<g id="a_node2"><a xlink:title=" ">
<polygon fill="white" stroke="#bfbfbf" points="0,-0.5 0,-30.5 166,-30.5 166,-0.5 0,-0.5"/>
<text text-anchor="start" x="8" y="-18.5" font-family="Helvetica,sans-Serif" font-size="10.00">node_kernels/TKESSTDESNode</text>
<text text-anchor="middle" x="83" y="-7.5" font-family="Helvetica,sans-Serif" font-size="10.00">Kernel.h</text>
</a>
</g>
</g>
<!-- Node1&#45;&gt;Node2 -->
<g id="edge1" class="edge">
<title>Node1&#45;&gt;Node2</title>
<path fill="none" stroke="midnightblue" d="M382,-67.48C328.21,-58.31 241.51,-43.52 175.28,-32.23"/>
<polygon fill="midnightblue" stroke="midnightblue" points="175.7,-28.75 165.25,-30.52 174.52,-35.65 175.7,-28.75"/>
</g>
<!-- Node3 -->
<g id="node3" class="node">
<title>Node3</title>
<g id="a_node3"><a xlink:title=" ">
<polygon fill="white" stroke="#bfbfbf" points="184.5,-6 184.5,-25 241.5,-25 241.5,-6 184.5,-6"/>
<text text-anchor="middle" x="213" y="-13" font-family="Helvetica,sans-Serif" font-size="10.00">Realm.h</text>
</a>
</g>
</g>
<!-- Node1&#45;&gt;Node3 -->
<g id="edge2" class="edge">
<title>Node1&#45;&gt;Node3</title>
<path fill="none" stroke="midnightblue" d="M391.09,-67.5C353.93,-59.39 297.77,-46.19 250,-31 247.73,-30.28 245.39,-29.48 243.05,-28.65"/>
<polygon fill="midnightblue" stroke="midnightblue" points="244.16,-25.33 233.57,-25.11 241.72,-31.89 244.16,-25.33"/>
</g>
<!-- Node4 -->
<g id="node4" class="node">
<title>Node4</title>
<g id="a_node4"><a xlink:title=" ">
<polygon fill="white" stroke="#bfbfbf" points="259.5,-6 259.5,-25 362.5,-25 362.5,-6 259.5,-6"/>
<text text-anchor="middle" x="311" y="-13" font-family="Helvetica,sans-Serif" font-size="10.00">SolutionOptions.h</text>
</a>
</g>
</g>
<!-- Node1&#45;&gt;Node4 -->
<g id="edge3" class="edge">
<title>Node1&#45;&gt;Node4</title>
<path fill="none" stroke="midnightblue" d="M414.66,-67.48C394.45,-57.53 360.81,-40.99 337.36,-29.46"/>
<polygon fill="midnightblue" stroke="midnightblue" points="338.82,-26.28 328.3,-25.01 335.73,-32.56 338.82,-26.28"/>
</g>
<!-- Node5 -->
<g id="node5" class="node">
<title>Node5</title>
<g id="a_node5"><a xlink:title=" ">
<polygon fill="white" stroke="#bfbfbf" points="380.5,-6 380.5,-25 483.5,-25 483.5,-6 380.5,-6"/>
<text text-anchor="middle" x="432" y="-13" font-family="Helvetica,sans-Serif" font-size="10.00">utils/StkHelpers.h</text>
</a>
</g>
</g>
<!-- Node1&#45;&gt;Node5 -->
<g id="edge4" class="edge">
<title>Node1&#45;&gt;Node5</title>
<path fill="none" stroke="midnightblue" d="M432,-67.48C432,-59.08 432,-45.98 432,-35.16"/>
<polygon fill="midnightblue" stroke="midnightblue" points="435.5,-35.01 432,-25.01 428.5,-35.01 435.5,-35.01"/>
</g>
<!-- Node6 -->
<g id="node6" class="node">
<title>Node6</title>
<g id="a_node6"><a xlink:title=" ">
<polygon fill="white" stroke="#bfbfbf" points="502,-6 502,-25 596,-25 596,-6 502,-6"/>
<text text-anchor="middle" x="549" y="-13" font-family="Helvetica,sans-Serif" font-size="10.00">SimdInterface.h</text>
</a>
</g>
</g>
<!-- Node1&#45;&gt;Node6 -->
<g id="edge5" class="edge">
<title>Node1&#45;&gt;Node6</title>
<path fill="none" stroke="midnightblue" d="M448.76,-67.48C468.22,-57.58 500.55,-41.14 523.21,-29.62"/>
<polygon fill="midnightblue" stroke="midnightblue" points="524.94,-32.66 532.27,-25.01 521.77,-26.42 524.94,-32.66"/>
</g>
<!-- Node7 -->
<g id="node7" class="node">
<title>Node7</title>
<g id="a_node7"><a xlink:title=" ">
<polygon fill="white" stroke="#bfbfbf" points="614,-6 614,-25 776,-25 776,-6 614,-6"/>
<text text-anchor="middle" x="695" y="-13" font-family="Helvetica,sans-Serif" font-size="10.00">stk_mesh/base/MetaData.hpp</text>
</a>
</g>
</g>
<!-- Node1&#45;&gt;Node7 -->
<g id="edge6" class="edge">
<title>Node1&#45;&gt;Node7</title>
<path fill="none" stroke="midnightblue" d="M469.68,-67.48C516.55,-56.87 596.61,-38.76 647.6,-27.22"/>
<polygon fill="midnightblue" stroke="midnightblue" points="648.41,-30.63 657.39,-25.01 646.86,-23.8 648.41,-30.63"/>
</g>
<!-- Node8 -->
<g id="node8" class="node">
<title>Node8</title>
<g id="a_node8"><a xlink:title=" ">
<polygon fill="white" stroke="#bfbfbf" points="794,-6 794,-25 936,-25 936,-6 794,-6"/>
<text text-anchor="middle" x="865" y="-13" font-family="Helvetica,sans-Serif" font-size="10.00">stk_mesh/base/Types.hpp</text>
</a>
</g>
</g>
<!-- Node1&#45;&gt;Node8 -->
<g id="edge7" class="edge">
<title>Node1&#45;&gt;Node8</title>
<path fill="none" stroke="midnightblue" d="M501.81,-68.2C573.13,-59.97 687,-46.12 785,-31 793.13,-29.75 801.71,-28.31 810.11,-26.84"/>
<polygon fill="midnightblue" stroke="midnightblue" points="810.99,-30.24 820.22,-25.04 809.76,-23.35 810.99,-30.24"/>
</g>
</g>
</svg>
