<?xml version="1.0" encoding="UTF-8" standalone="no"?>
<!DOCTYPE svg PUBLIC "-//W3C//DTD SVG 1.1//EN"
 "http://www.w3.org/Graphics/SVG/1.1/DTD/svg11.dtd">
<!-- Generated by graphviz version 2.43.0 (0)
 -->
<!-- Title: TKESSTNodeKernel.C Pages: 1 -->
<svg width="965pt" height="84pt"
 viewBox="0.00 0.00 965.00 84.00" xmlns="http://www.w3.org/2000/svg" xmlns:xlink="http://www.w3.org/1999/xlink">
<g id="graph0" class="graph" transform="scale(1 1) rotate(0) translate(4 80)">
<title>TKESSTNodeKernel.C</title>
<polygon fill="white" stroke="transparent" points="-4,4 -4,-80 961,-80 961,4 -4,4"/>
<!-- Node1 -->
<g id="node1" class="node">
<title>Node1</title>
<g id="a_node1"><a xlink:title=" ">
<polygon fill="#bfbfbf" stroke="black" points="388.5,-56.5 388.5,-75.5 507.5,-75.5 507.5,-56.5 388.5,-56.5"/>
<text text-anchor="middle" x="448" y="-63.5" font-family="Helvetica,sans-Serif" font-size="10.00">TKESSTNodeKernel.C</text>
</a>
</g>
</g>
<!-- Node2 -->
<g id="node2" class="node">
<title>Node2</title>
<g id="a_node2"><a xlink:title=" ">
<polygon fill="white" stroke="#bfbfbf" points="0,-0.5 0,-19.5 186,-19.5 186,-0.5 0,-0.5"/>
<text text-anchor="middle" x="93" y="-7.5" font-family="Helvetica,sans-Serif" font-size="10.00">node_kernels/TKESSTNodeKernel.h</text>
</a>
</g>
</g>
<!-- Node1&#45;&gt;Node2 -->
<g id="edge1" class="edge">
<title>Node1&#45;&gt;Node2</title>
<path fill="none" stroke="midnightblue" d="M391.75,-56.44C328.52,-46.83 225.98,-31.23 159.01,-21.04"/>
<polygon fill="midnightblue" stroke="midnightblue" points="159.4,-17.56 148.99,-19.52 158.35,-24.48 159.4,-17.56"/>
</g>
<!-- Node3 -->
<g id="node3" class="node">
<title>Node3</title>
<g id="a_node3"><a xlink:title=" ">
<polygon fill="white" stroke="#bfbfbf" points="204.5,-0.5 204.5,-19.5 261.5,-19.5 261.5,-0.5 204.5,-0.5"/>
<text text-anchor="middle" x="233" y="-7.5" font-family="Helvetica,sans-Serif" font-size="10.00">Realm.h</text>
</a>
</g>
</g>
<!-- Node1&#45;&gt;Node3 -->
<g id="edge2" class="edge">
<title>Node1&#45;&gt;Node3</title>
<path fill="none" stroke="midnightblue" d="M413.93,-56.44C375.18,-46.71 312.05,-30.85 271.53,-20.68"/>
<polygon fill="midnightblue" stroke="midnightblue" points="272.3,-17.26 261.75,-18.22 270.59,-24.05 272.3,-17.26"/>
</g>
<!-- Node4 -->
<g id="node4" class="node">
<title>Node4</title>
<g id="a_node4"><a xlink:title=" ">
<polygon fill="white" stroke="#bfbfbf" points="279.5,-0.5 279.5,-19.5 382.5,-19.5 382.5,-0.5 279.5,-0.5"/>
<text text-anchor="middle" x="331" y="-7.5" font-family="Helvetica,sans-Serif" font-size="10.00">SolutionOptions.h</text>
</a>
</g>
</g>
<!-- Node1&#45;&gt;Node4 -->
<g id="edge3" class="edge">
<title>Node1&#45;&gt;Node4</title>
<path fill="none" stroke="midnightblue" d="M429.46,-56.44C410.38,-47.64 380.43,-33.81 358.56,-23.72"/>
<polygon fill="midnightblue" stroke="midnightblue" points="360,-20.53 349.45,-19.52 357.07,-26.88 360,-20.53"/>
</g>
<!-- Node5 -->
<g id="node5" class="node">
<title>Node5</title>
<g id="a_node5"><a xlink:title=" ">
<polygon fill="white" stroke="#bfbfbf" points="401,-0.5 401,-19.5 495,-19.5 495,-0.5 401,-0.5"/>
<text text-anchor="middle" x="448" y="-7.5" font-family="Helvetica,sans-Serif" font-size="10.00">SimdInterface.h</text>
</a>
</g>
</g>
<!-- Node1&#45;&gt;Node5 -->
<g id="edge4" class="edge">
<title>Node1&#45;&gt;Node5</title>
<path fill="none" stroke="midnightblue" d="M448,-56.08C448,-49.01 448,-38.86 448,-29.99"/>
<polygon fill="midnightblue" stroke="midnightblue" points="451.5,-29.75 448,-19.75 444.5,-29.75 451.5,-29.75"/>
</g>
<!-- Node6 -->
<g id="node6" class="node">
<title>Node6</title>
<g id="a_node6"><a xlink:title=" ">
<polygon fill="white" stroke="#bfbfbf" points="513.5,-0.5 513.5,-19.5 616.5,-19.5 616.5,-0.5 513.5,-0.5"/>
<text text-anchor="middle" x="565" y="-7.5" font-family="Helvetica,sans-Serif" font-size="10.00">utils/StkHelpers.h</text>
</a>
</g>
</g>
<!-- Node1&#45;&gt;Node6 -->
<g id="edge5" class="edge">
<title>Node1&#45;&gt;Node6</title>
<path fill="none" stroke="midnightblue" d="M466.54,-56.44C485.62,-47.64 515.57,-33.81 537.44,-23.72"/>
<polygon fill="midnightblue" stroke="midnightblue" points="538.93,-26.88 546.55,-19.52 536,-20.53 538.93,-26.88"/>
</g>
<!-- Node7 -->
<g id="node7" class="node">
<title>Node7</title>
<g id="a_node7"><a xlink:title=" ">
<polygon fill="white" stroke="#bfbfbf" points="635,-0.5 635,-19.5 797,-19.5 797,-0.5 635,-0.5"/>
<text text-anchor="middle" x="716" y="-7.5" font-family="Helvetica,sans-Serif" font-size="10.00">stk_mesh/base/MetaData.hpp</text>
</a>
</g>
</g>
<!-- Node1&#45;&gt;Node7 -->
<g id="edge6" class="edge">
<title>Node1&#45;&gt;Node7</title>
<path fill="none" stroke="midnightblue" d="M490.47,-56.44C537.41,-46.98 613.08,-31.74 663.65,-21.55"/>
<polygon fill="midnightblue" stroke="midnightblue" points="664.62,-24.92 673.73,-19.52 663.24,-18.06 664.62,-24.92"/>
</g>
<!-- Node8 -->
<g id="node8" class="node">
<title>Node8</title>
<g id="a_node8"><a xlink:title=" ">
<polygon fill="white" stroke="#bfbfbf" points="815,-0.5 815,-19.5 957,-19.5 957,-0.5 815,-0.5"/>
<text text-anchor="middle" x="886" y="-7.5" font-family="Helvetica,sans-Serif" font-size="10.00">stk_mesh/base/Types.hpp</text>
</a>
</g>
</g>
<!-- Node1&#45;&gt;Node8 -->
<g id="edge7" class="edge">
<title>Node1&#45;&gt;Node8</title>
<path fill="none" stroke="midnightblue" d="M507.53,-57.66C585.04,-48.11 720.76,-31.37 806.87,-20.76"/>
<polygon fill="midnightblue" stroke="midnightblue" points="807.36,-24.22 816.86,-19.52 806.5,-17.27 807.36,-24.22"/>
</g>
</g>
</svg>
