<?xml version="1.0" encoding="UTF-8" standalone="no"?>
<!DOCTYPE svg PUBLIC "-//W3C//DTD SVG 1.1//EN"
 "http://www.w3.org/Graphics/SVG/1.1/DTD/svg11.dtd">
<!-- Generated by graphviz version 2.43.0 (0)
 -->
<!-- Title: TKESSTLRNodeKernel.C Pages: 1 -->
<svg width="936pt" height="95pt"
 viewBox="0.00 0.00 936.00 95.00" xmlns="http://www.w3.org/2000/svg" xmlns:xlink="http://www.w3.org/1999/xlink">
<g id="graph0" class="graph" transform="scale(1 1) rotate(0) translate(4 91)">
<title>TKESSTLRNodeKernel.C</title>
<polygon fill="white" stroke="transparent" points="-4,4 -4,-91 932,-91 932,4 -4,4"/>
<!-- Node1 -->
<g id="node1" class="node">
<title>Node1</title>
<g id="a_node1"><a xlink:title=" ">
<polygon fill="#bfbfbf" stroke="black" points="353.5,-67.5 353.5,-86.5 484.5,-86.5 484.5,-67.5 353.5,-67.5"/>
<text text-anchor="middle" x="419" y="-74.5" font-family="Helvetica,sans-Serif" font-size="10.00">TKESSTLRNodeKernel.C</text>
</a>
</g>
</g>
<!-- Node2 -->
<g id="node2" class="node">
<title>Node2</title>
<g id="a_node2"><a xlink:title=" ">
<polygon fill="white" stroke="#bfbfbf" points="0,-0.5 0,-30.5 158,-30.5 158,-0.5 0,-0.5"/>
<text text-anchor="start" x="8" y="-18.5" font-family="Helvetica,sans-Serif" font-size="10.00">node_kernels/TKESSTLRNode</text>
<text text-anchor="middle" x="79" y="-7.5" font-family="Helvetica,sans-Serif" font-size="10.00">Kernel.h</text>
</a>
</g>
</g>
<!-- Node1&#45;&gt;Node2 -->
<g id="edge1" class="edge">
<title>Node1&#45;&gt;Node2</title>
<path fill="none" stroke="midnightblue" d="M370.29,-67.48C317.74,-58.28 232.92,-43.44 168.33,-32.13"/>
<polygon fill="midnightblue" stroke="midnightblue" points="168.6,-28.63 158.15,-30.35 167.4,-35.52 168.6,-28.63"/>
</g>
<!-- Node3 -->
<g id="node3" class="node">
<title>Node3</title>
<g id="a_node3"><a xlink:title=" ">
<polygon fill="white" stroke="#bfbfbf" points="175.5,-6 175.5,-25 232.5,-25 232.5,-6 175.5,-6"/>
<text text-anchor="middle" x="204" y="-13" font-family="Helvetica,sans-Serif" font-size="10.00">Realm.h</text>
</a>
</g>
</g>
<!-- Node1&#45;&gt;Node3 -->
<g id="edge2" class="edge">
<title>Node1&#45;&gt;Node3</title>
<path fill="none" stroke="midnightblue" d="M379.36,-67.48C343.02,-59.32 287.89,-46.05 241,-31 238.73,-30.27 236.39,-29.47 234.06,-28.64"/>
<polygon fill="midnightblue" stroke="midnightblue" points="235.17,-25.32 224.58,-25.09 232.72,-31.88 235.17,-25.32"/>
</g>
<!-- Node4 -->
<g id="node4" class="node">
<title>Node4</title>
<g id="a_node4"><a xlink:title=" ">
<polygon fill="white" stroke="#bfbfbf" points="250.5,-6 250.5,-25 353.5,-25 353.5,-6 250.5,-6"/>
<text text-anchor="middle" x="302" y="-13" font-family="Helvetica,sans-Serif" font-size="10.00">SolutionOptions.h</text>
</a>
</g>
</g>
<!-- Node1&#45;&gt;Node4 -->
<g id="edge3" class="edge">
<title>Node1&#45;&gt;Node4</title>
<path fill="none" stroke="midnightblue" d="M402.24,-67.48C382.78,-57.58 350.45,-41.14 327.79,-29.62"/>
<polygon fill="midnightblue" stroke="midnightblue" points="329.23,-26.42 318.73,-25.01 326.06,-32.66 329.23,-26.42"/>
</g>
<!-- Node5 -->
<g id="node5" class="node">
<title>Node5</title>
<g id="a_node5"><a xlink:title=" ">
<polygon fill="white" stroke="#bfbfbf" points="372,-6 372,-25 466,-25 466,-6 372,-6"/>
<text text-anchor="middle" x="419" y="-13" font-family="Helvetica,sans-Serif" font-size="10.00">SimdInterface.h</text>
</a>
</g>
</g>
<!-- Node1&#45;&gt;Node5 -->
<g id="edge4" class="edge">
<title>Node1&#45;&gt;Node5</title>
<path fill="none" stroke="midnightblue" d="M419,-67.48C419,-59.08 419,-45.98 419,-35.16"/>
<polygon fill="midnightblue" stroke="midnightblue" points="422.5,-35.01 419,-25.01 415.5,-35.01 422.5,-35.01"/>
</g>
<!-- Node6 -->
<g id="node6" class="node">
<title>Node6</title>
<g id="a_node6"><a xlink:title=" ">
<polygon fill="white" stroke="#bfbfbf" points="484.5,-6 484.5,-25 587.5,-25 587.5,-6 484.5,-6"/>
<text text-anchor="middle" x="536" y="-13" font-family="Helvetica,sans-Serif" font-size="10.00">utils/StkHelpers.h</text>
</a>
</g>
</g>
<!-- Node1&#45;&gt;Node6 -->
<g id="edge5" class="edge">
<title>Node1&#45;&gt;Node6</title>
<path fill="none" stroke="midnightblue" d="M435.76,-67.48C455.22,-57.58 487.55,-41.14 510.21,-29.62"/>
<polygon fill="midnightblue" stroke="midnightblue" points="511.94,-32.66 519.27,-25.01 508.77,-26.42 511.94,-32.66"/>
</g>
<!-- Node7 -->
<g id="node7" class="node">
<title>Node7</title>
<g id="a_node7"><a xlink:title=" ">
<polygon fill="white" stroke="#bfbfbf" points="606,-6 606,-25 768,-25 768,-6 606,-6"/>
<text text-anchor="middle" x="687" y="-13" font-family="Helvetica,sans-Serif" font-size="10.00">stk_mesh/base/MetaData.hpp</text>
</a>
</g>
</g>
<!-- Node1&#45;&gt;Node7 -->
<g id="edge6" class="edge">
<title>Node1&#45;&gt;Node7</title>
<path fill="none" stroke="midnightblue" d="M457.4,-67.48C505.16,-56.87 586.74,-38.76 638.7,-27.22"/>
<polygon fill="midnightblue" stroke="midnightblue" points="639.67,-30.59 648.67,-25.01 638.15,-23.76 639.67,-30.59"/>
</g>
<!-- Node8 -->
<g id="node8" class="node">
<title>Node8</title>
<g id="a_node8"><a xlink:title=" ">
<polygon fill="white" stroke="#bfbfbf" points="786,-6 786,-25 928,-25 928,-6 786,-6"/>
<text text-anchor="middle" x="857" y="-13" font-family="Helvetica,sans-Serif" font-size="10.00">stk_mesh/base/Types.hpp</text>
</a>
</g>
</g>
<!-- Node1&#45;&gt;Node8 -->
<g id="edge7" class="edge">
<title>Node1&#45;&gt;Node8</title>
<path fill="none" stroke="midnightblue" d="M484.8,-68.81C556.73,-60.7 675.3,-46.6 777,-31 785.13,-29.75 793.71,-28.32 802.11,-26.85"/>
<polygon fill="midnightblue" stroke="midnightblue" points="802.99,-30.25 812.22,-25.06 801.76,-23.36 802.99,-30.25"/>
</g>
</g>
</svg>
