<?xml version="1.0" encoding="UTF-8" standalone="no"?>
<!DOCTYPE svg PUBLIC "-//W3C//DTD SVG 1.1//EN"
 "http://www.w3.org/Graphics/SVG/1.1/DTD/svg11.dtd">
<!-- Generated by graphviz version 2.43.0 (0)
 -->
<!-- Title: TKEKONodeKernel.C Pages: 1 -->
<svg width="961pt" height="84pt"
 viewBox="0.00 0.00 961.00 84.00" xmlns="http://www.w3.org/2000/svg" xmlns:xlink="http://www.w3.org/1999/xlink">
<g id="graph0" class="graph" transform="scale(1 1) rotate(0) translate(4 80)">
<title>TKEKONodeKernel.C</title>
<polygon fill="white" stroke="transparent" points="-4,4 -4,-80 957,-80 957,4 -4,4"/>
<!-- Node1 -->
<g id="node1" class="node">
<title>Node1</title>
<g id="a_node1"><a xlink:title=" ">
<polygon fill="#bfbfbf" stroke="black" points="386.5,-56.5 386.5,-75.5 501.5,-75.5 501.5,-56.5 386.5,-56.5"/>
<text text-anchor="middle" x="444" y="-63.5" font-family="Helvetica,sans-Serif" font-size="10.00">TKEKONodeKernel.C</text>
</a>
</g>
</g>
<!-- Node2 -->
<g id="node2" class="node">
<title>Node2</title>
<g id="a_node2"><a xlink:title=" ">
<polygon fill="white" stroke="#bfbfbf" points="0,-0.5 0,-19.5 182,-19.5 182,-0.5 0,-0.5"/>
<text text-anchor="middle" x="91" y="-7.5" font-family="Helvetica,sans-Serif" font-size="10.00">node_kernels/TKEKONodeKernel.h</text>
</a>
</g>
</g>
<!-- Node1&#45;&gt;Node2 -->
<g id="edge1" class="edge">
<title>Node1&#45;&gt;Node2</title>
<path fill="none" stroke="midnightblue" d="M388.07,-56.44C325.2,-46.83 223.23,-31.23 156.64,-21.04"/>
<polygon fill="midnightblue" stroke="midnightblue" points="157.09,-17.57 146.67,-19.52 156.03,-24.49 157.09,-17.57"/>
</g>
<!-- Node3 -->
<g id="node3" class="node">
<title>Node3</title>
<g id="a_node3"><a xlink:title=" ">
<polygon fill="white" stroke="#bfbfbf" points="200.5,-0.5 200.5,-19.5 257.5,-19.5 257.5,-0.5 200.5,-0.5"/>
<text text-anchor="middle" x="229" y="-7.5" font-family="Helvetica,sans-Serif" font-size="10.00">Realm.h</text>
</a>
</g>
</g>
<!-- Node1&#45;&gt;Node3 -->
<g id="edge2" class="edge">
<title>Node1&#45;&gt;Node3</title>
<path fill="none" stroke="midnightblue" d="M409.93,-56.44C371.18,-46.71 308.05,-30.85 267.53,-20.68"/>
<polygon fill="midnightblue" stroke="midnightblue" points="268.3,-17.26 257.75,-18.22 266.59,-24.05 268.3,-17.26"/>
</g>
<!-- Node4 -->
<g id="node4" class="node">
<title>Node4</title>
<g id="a_node4"><a xlink:title=" ">
<polygon fill="white" stroke="#bfbfbf" points="275.5,-0.5 275.5,-19.5 378.5,-19.5 378.5,-0.5 275.5,-0.5"/>
<text text-anchor="middle" x="327" y="-7.5" font-family="Helvetica,sans-Serif" font-size="10.00">SolutionOptions.h</text>
</a>
</g>
</g>
<!-- Node1&#45;&gt;Node4 -->
<g id="edge3" class="edge">
<title>Node1&#45;&gt;Node4</title>
<path fill="none" stroke="midnightblue" d="M425.46,-56.44C406.38,-47.64 376.43,-33.81 354.56,-23.72"/>
<polygon fill="midnightblue" stroke="midnightblue" points="356,-20.53 345.45,-19.52 353.07,-26.88 356,-20.53"/>
</g>
<!-- Node5 -->
<g id="node5" class="node">
<title>Node5</title>
<g id="a_node5"><a xlink:title=" ">
<polygon fill="white" stroke="#bfbfbf" points="397,-0.5 397,-19.5 491,-19.5 491,-0.5 397,-0.5"/>
<text text-anchor="middle" x="444" y="-7.5" font-family="Helvetica,sans-Serif" font-size="10.00">SimdInterface.h</text>
</a>
</g>
</g>
<!-- Node1&#45;&gt;Node5 -->
<g id="edge4" class="edge">
<title>Node1&#45;&gt;Node5</title>
<path fill="none" stroke="midnightblue" d="M444,-56.08C444,-49.01 444,-38.86 444,-29.99"/>
<polygon fill="midnightblue" stroke="midnightblue" points="447.5,-29.75 444,-19.75 440.5,-29.75 447.5,-29.75"/>
</g>
<!-- Node6 -->
<g id="node6" class="node">
<title>Node6</title>
<g id="a_node6"><a xlink:title=" ">
<polygon fill="white" stroke="#bfbfbf" points="509.5,-0.5 509.5,-19.5 612.5,-19.5 612.5,-0.5 509.5,-0.5"/>
<text text-anchor="middle" x="561" y="-7.5" font-family="Helvetica,sans-Serif" font-size="10.00">utils/StkHelpers.h</text>
</a>
</g>
</g>
<!-- Node1&#45;&gt;Node6 -->
<g id="edge5" class="edge">
<title>Node1&#45;&gt;Node6</title>
<path fill="none" stroke="midnightblue" d="M462.54,-56.44C481.62,-47.64 511.57,-33.81 533.44,-23.72"/>
<polygon fill="midnightblue" stroke="midnightblue" points="534.93,-26.88 542.55,-19.52 532,-20.53 534.93,-26.88"/>
</g>
<!-- Node7 -->
<g id="node7" class="node">
<title>Node7</title>
<g id="a_node7"><a xlink:title=" ">
<polygon fill="white" stroke="#bfbfbf" points="631,-0.5 631,-19.5 793,-19.5 793,-0.5 631,-0.5"/>
<text text-anchor="middle" x="712" y="-7.5" font-family="Helvetica,sans-Serif" font-size="10.00">stk_mesh/base/MetaData.hpp</text>
</a>
</g>
</g>
<!-- Node1&#45;&gt;Node7 -->
<g id="edge6" class="edge">
<title>Node1&#45;&gt;Node7</title>
<path fill="none" stroke="midnightblue" d="M486.47,-56.44C533.41,-46.98 609.08,-31.74 659.65,-21.55"/>
<polygon fill="midnightblue" stroke="midnightblue" points="660.62,-24.92 669.73,-19.52 659.24,-18.06 660.62,-24.92"/>
</g>
<!-- Node8 -->
<g id="node8" class="node">
<title>Node8</title>
<g id="a_node8"><a xlink:title=" ">
<polygon fill="white" stroke="#bfbfbf" points="811,-0.5 811,-19.5 953,-19.5 953,-0.5 811,-0.5"/>
<text text-anchor="middle" x="882" y="-7.5" font-family="Helvetica,sans-Serif" font-size="10.00">stk_mesh/base/Types.hpp</text>
</a>
</g>
</g>
<!-- Node1&#45;&gt;Node8 -->
<g id="edge7" class="edge">
<title>Node1&#45;&gt;Node8</title>
<path fill="none" stroke="midnightblue" d="M501.71,-57.88C578.91,-48.37 716.12,-31.45 802.91,-20.75"/>
<polygon fill="midnightblue" stroke="midnightblue" points="803.47,-24.21 812.97,-19.51 802.62,-17.26 803.47,-24.21"/>
</g>
</g>
</svg>
