<?xml version="1.0" encoding="UTF-8" standalone="no"?>
<!DOCTYPE svg PUBLIC "-//W3C//DTD SVG 1.1//EN"
 "http://www.w3.org/Graphics/SVG/1.1/DTD/svg11.dtd">
<!-- Generated by graphviz version 2.43.0 (0)
 -->
<!-- Title: TKEKENodeKernel.C Pages: 1 -->
<svg width="960pt" height="84pt"
 viewBox="0.00 0.00 959.50 84.00" xmlns="http://www.w3.org/2000/svg" xmlns:xlink="http://www.w3.org/1999/xlink">
<g id="graph0" class="graph" transform="scale(1 1) rotate(0) translate(4 80)">
<title>TKEKENodeKernel.C</title>
<polygon fill="white" stroke="transparent" points="-4,4 -4,-80 955.5,-80 955.5,4 -4,4"/>
<!-- Node1 -->
<g id="node1" class="node">
<title>Node1</title>
<g id="a_node1"><a xlink:title=" ">
<polygon fill="#bfbfbf" stroke="black" points="385.5,-56.5 385.5,-75.5 499.5,-75.5 499.5,-56.5 385.5,-56.5"/>
<text text-anchor="middle" x="442.5" y="-63.5" font-family="Helvetica,sans-Serif" font-size="10.00">TKEKENodeKernel.C</text>
</a>
</g>
</g>
<!-- Node2 -->
<g id="node2" class="node">
<title>Node2</title>
<g id="a_node2"><a xlink:title=" ">
<polygon fill="white" stroke="#bfbfbf" points="0,-0.5 0,-19.5 181,-19.5 181,-0.5 0,-0.5"/>
<text text-anchor="middle" x="90.5" y="-7.5" font-family="Helvetica,sans-Serif" font-size="10.00">node_kernels/TKEKENodeKernel.h</text>
</a>
</g>
</g>
<!-- Node1&#45;&gt;Node2 -->
<g id="edge1" class="edge">
<title>Node1&#45;&gt;Node2</title>
<path fill="none" stroke="midnightblue" d="M386.72,-56.44C324.03,-46.83 222.35,-31.23 155.95,-21.04"/>
<polygon fill="midnightblue" stroke="midnightblue" points="156.43,-17.57 146.01,-19.52 155.37,-24.49 156.43,-17.57"/>
</g>
<!-- Node3 -->
<g id="node3" class="node">
<title>Node3</title>
<g id="a_node3"><a xlink:title=" ">
<polygon fill="white" stroke="#bfbfbf" points="199,-0.5 199,-19.5 256,-19.5 256,-0.5 199,-0.5"/>
<text text-anchor="middle" x="227.5" y="-7.5" font-family="Helvetica,sans-Serif" font-size="10.00">Realm.h</text>
</a>
</g>
</g>
<!-- Node1&#45;&gt;Node3 -->
<g id="edge2" class="edge">
<title>Node1&#45;&gt;Node3</title>
<path fill="none" stroke="midnightblue" d="M408.43,-56.44C369.68,-46.71 306.55,-30.85 266.03,-20.68"/>
<polygon fill="midnightblue" stroke="midnightblue" points="266.8,-17.26 256.25,-18.22 265.09,-24.05 266.8,-17.26"/>
</g>
<!-- Node4 -->
<g id="node4" class="node">
<title>Node4</title>
<g id="a_node4"><a xlink:title=" ">
<polygon fill="white" stroke="#bfbfbf" points="274,-0.5 274,-19.5 377,-19.5 377,-0.5 274,-0.5"/>
<text text-anchor="middle" x="325.5" y="-7.5" font-family="Helvetica,sans-Serif" font-size="10.00">SolutionOptions.h</text>
</a>
</g>
</g>
<!-- Node1&#45;&gt;Node4 -->
<g id="edge3" class="edge">
<title>Node1&#45;&gt;Node4</title>
<path fill="none" stroke="midnightblue" d="M423.96,-56.44C404.88,-47.64 374.93,-33.81 353.06,-23.72"/>
<polygon fill="midnightblue" stroke="midnightblue" points="354.5,-20.53 343.95,-19.52 351.57,-26.88 354.5,-20.53"/>
</g>
<!-- Node5 -->
<g id="node5" class="node">
<title>Node5</title>
<g id="a_node5"><a xlink:title=" ">
<polygon fill="white" stroke="#bfbfbf" points="395.5,-0.5 395.5,-19.5 489.5,-19.5 489.5,-0.5 395.5,-0.5"/>
<text text-anchor="middle" x="442.5" y="-7.5" font-family="Helvetica,sans-Serif" font-size="10.00">SimdInterface.h</text>
</a>
</g>
</g>
<!-- Node1&#45;&gt;Node5 -->
<g id="edge4" class="edge">
<title>Node1&#45;&gt;Node5</title>
<path fill="none" stroke="midnightblue" d="M442.5,-56.08C442.5,-49.01 442.5,-38.86 442.5,-29.99"/>
<polygon fill="midnightblue" stroke="midnightblue" points="446,-29.75 442.5,-19.75 439,-29.75 446,-29.75"/>
</g>
<!-- Node6 -->
<g id="node6" class="node">
<title>Node6</title>
<g id="a_node6"><a xlink:title=" ">
<polygon fill="white" stroke="#bfbfbf" points="508,-0.5 508,-19.5 611,-19.5 611,-0.5 508,-0.5"/>
<text text-anchor="middle" x="559.5" y="-7.5" font-family="Helvetica,sans-Serif" font-size="10.00">utils/StkHelpers.h</text>
</a>
</g>
</g>
<!-- Node1&#45;&gt;Node6 -->
<g id="edge5" class="edge">
<title>Node1&#45;&gt;Node6</title>
<path fill="none" stroke="midnightblue" d="M461.04,-56.44C480.12,-47.64 510.07,-33.81 531.94,-23.72"/>
<polygon fill="midnightblue" stroke="midnightblue" points="533.43,-26.88 541.05,-19.52 530.5,-20.53 533.43,-26.88"/>
</g>
<!-- Node7 -->
<g id="node7" class="node">
<title>Node7</title>
<g id="a_node7"><a xlink:title=" ">
<polygon fill="white" stroke="#bfbfbf" points="629.5,-0.5 629.5,-19.5 791.5,-19.5 791.5,-0.5 629.5,-0.5"/>
<text text-anchor="middle" x="710.5" y="-7.5" font-family="Helvetica,sans-Serif" font-size="10.00">stk_mesh/base/MetaData.hpp</text>
</a>
</g>
</g>
<!-- Node1&#45;&gt;Node7 -->
<g id="edge6" class="edge">
<title>Node1&#45;&gt;Node7</title>
<path fill="none" stroke="midnightblue" d="M484.97,-56.44C531.91,-46.98 607.58,-31.74 658.15,-21.55"/>
<polygon fill="midnightblue" stroke="midnightblue" points="659.12,-24.92 668.23,-19.52 657.74,-18.06 659.12,-24.92"/>
</g>
<!-- Node8 -->
<g id="node8" class="node">
<title>Node8</title>
<g id="a_node8"><a xlink:title=" ">
<polygon fill="white" stroke="#bfbfbf" points="809.5,-0.5 809.5,-19.5 951.5,-19.5 951.5,-0.5 809.5,-0.5"/>
<text text-anchor="middle" x="880.5" y="-7.5" font-family="Helvetica,sans-Serif" font-size="10.00">stk_mesh/base/Types.hpp</text>
</a>
</g>
</g>
<!-- Node1&#45;&gt;Node8 -->
<g id="edge7" class="edge">
<title>Node1&#45;&gt;Node8</title>
<path fill="none" stroke="midnightblue" d="M499.76,-57.94C576.83,-48.44 714.26,-31.49 801.23,-20.77"/>
<polygon fill="midnightblue" stroke="midnightblue" points="801.82,-24.23 811.31,-19.53 800.96,-17.28 801.82,-24.23"/>
</g>
</g>
</svg>
