<?xml version="1.0" encoding="UTF-8" standalone="no"?>
<!DOCTYPE svg PUBLIC "-//W3C//DTD SVG 1.1//EN"
 "http://www.w3.org/Graphics/SVG/1.1/DTD/svg11.dtd">
<!-- Generated by graphviz version 2.43.0 (0)
 -->
<!-- Title: TKEWallFuncAlgDriver.C Pages: 1 -->
<svg width="1579pt" height="95pt"
 viewBox="0.00 0.00 1579.00 95.00" xmlns="http://www.w3.org/2000/svg" xmlns:xlink="http://www.w3.org/1999/xlink">
<g id="graph0" class="graph" transform="scale(1 1) rotate(0) translate(4 91)">
<title>TKEWallFuncAlgDriver.C</title>
<polygon fill="white" stroke="transparent" points="-4,4 -4,-91 1575,-91 1575,4 -4,4"/>
<!-- Node1 -->
<g id="node1" class="node">
<title>Node1</title>
<g id="a_node1"><a xlink:title=" ">
<polygon fill="#bfbfbf" stroke="black" points="636,-67.5 636,-86.5 770,-86.5 770,-67.5 636,-67.5"/>
<text text-anchor="middle" x="703" y="-74.5" font-family="Helvetica,sans-Serif" font-size="10.00">TKEWallFuncAlgDriver.C</text>
</a>
</g>
</g>
<!-- Node2 -->
<g id="node2" class="node">
<title>Node2</title>
<g id="a_node2"><a xlink:title=" ">
<polygon fill="white" stroke="#bfbfbf" points="0,-0.5 0,-30.5 158,-30.5 158,-0.5 0,-0.5"/>
<text text-anchor="start" x="8" y="-18.5" font-family="Helvetica,sans-Serif" font-size="10.00">ngp_algorithms/TKEWallFunc</text>
<text text-anchor="middle" x="79" y="-7.5" font-family="Helvetica,sans-Serif" font-size="10.00">AlgDriver.h</text>
</a>
</g>
</g>
<!-- Node1&#45;&gt;Node2 -->
<g id="edge1" class="edge">
<title>Node1&#45;&gt;Node2</title>
<path fill="none" stroke="midnightblue" d="M635.97,-72.09C536.26,-65.9 342.75,-52.41 168.25,-31.09"/>
<polygon fill="midnightblue" stroke="midnightblue" points="168.46,-27.59 158.11,-29.84 167.61,-34.54 168.46,-27.59"/>
</g>
<!-- Node3 -->
<g id="node3" class="node">
<title>Node3</title>
<g id="a_node3"><a xlink:title=" ">
<polygon fill="white" stroke="#bfbfbf" points="176,-6 176,-25 314,-25 314,-6 176,-6"/>
<text text-anchor="middle" x="245" y="-13" font-family="Helvetica,sans-Serif" font-size="10.00">ngp_utils/NgpLoopUtils.h</text>
</a>
</g>
</g>
<!-- Node1&#45;&gt;Node3 -->
<g id="edge2" class="edge">
<title>Node1&#45;&gt;Node3</title>
<path fill="none" stroke="midnightblue" d="M635.89,-69.4C559.82,-61.61 432.19,-47.6 323,-31 314.96,-29.78 306.49,-28.35 298.2,-26.87"/>
<polygon fill="midnightblue" stroke="midnightblue" points="298.7,-23.41 288.23,-25.06 297.45,-30.29 298.7,-23.41"/>
</g>
<!-- Node4 -->
<g id="node4" class="node">
<title>Node4</title>
<g id="a_node4"><a xlink:title=" ">
<polygon fill="white" stroke="#bfbfbf" points="332,-6 332,-25 490,-25 490,-6 332,-6"/>
<text text-anchor="middle" x="411" y="-13" font-family="Helvetica,sans-Serif" font-size="10.00">ngp_utils/NgpFieldManager.h</text>
</a>
</g>
</g>
<!-- Node1&#45;&gt;Node4 -->
<g id="edge3" class="edge">
<title>Node1&#45;&gt;Node4</title>
<path fill="none" stroke="midnightblue" d="M661.16,-67.48C608.8,-56.8 519.13,-38.53 462.57,-27.01"/>
<polygon fill="midnightblue" stroke="midnightblue" points="463.26,-23.58 452.76,-25.01 461.86,-30.44 463.26,-23.58"/>
</g>
<!-- Node5 -->
<g id="node5" class="node">
<title>Node5</title>
<g id="a_node5"><a xlink:title=" ">
<polygon fill="white" stroke="#bfbfbf" points="507.5,-6 507.5,-25 564.5,-25 564.5,-6 507.5,-6"/>
<text text-anchor="middle" x="536" y="-13" font-family="Helvetica,sans-Serif" font-size="10.00">Realm.h</text>
</a>
</g>
</g>
<!-- Node1&#45;&gt;Node5 -->
<g id="edge4" class="edge">
<title>Node1&#45;&gt;Node5</title>
<path fill="none" stroke="midnightblue" d="M676.99,-67.34C650.67,-58.5 608.85,-44.22 573,-31 571.11,-30.3 569.16,-29.57 567.21,-28.83"/>
<polygon fill="midnightblue" stroke="midnightblue" points="568.06,-25.41 557.47,-25.08 565.54,-31.94 568.06,-25.41"/>
</g>
<!-- Node6 -->
<g id="node6" class="node">
<title>Node6</title>
<g id="a_node6"><a xlink:title=" ">
<polygon fill="white" stroke="#bfbfbf" points="582.5,-6 582.5,-25 685.5,-25 685.5,-6 582.5,-6"/>
<text text-anchor="middle" x="634" y="-13" font-family="Helvetica,sans-Serif" font-size="10.00">utils/StkHelpers.h</text>
</a>
</g>
</g>
<!-- Node1&#45;&gt;Node6 -->
<g id="edge5" class="edge">
<title>Node1&#45;&gt;Node6</title>
<path fill="none" stroke="midnightblue" d="M693.11,-67.48C682.35,-58.2 664.93,-43.17 651.78,-31.83"/>
<polygon fill="midnightblue" stroke="midnightblue" points="653.73,-28.89 643.87,-25.01 649.16,-34.19 653.73,-28.89"/>
</g>
<!-- Node7 -->
<g id="node7" class="node">
<title>Node7</title>
<g id="a_node7"><a xlink:title=" ">
<polygon fill="white" stroke="#bfbfbf" points="703.5,-6 703.5,-25 840.5,-25 840.5,-6 703.5,-6"/>
<text text-anchor="middle" x="772" y="-13" font-family="Helvetica,sans-Serif" font-size="10.00">stk_mesh/base/Field.hpp</text>
</a>
</g>
</g>
<!-- Node1&#45;&gt;Node7 -->
<g id="edge6" class="edge">
<title>Node1&#45;&gt;Node7</title>
<path fill="none" stroke="midnightblue" d="M712.89,-67.48C723.65,-58.2 741.07,-43.17 754.22,-31.83"/>
<polygon fill="midnightblue" stroke="midnightblue" points="756.84,-34.19 762.13,-25.01 752.27,-28.89 756.84,-34.19"/>
</g>
<!-- Node8 -->
<g id="node8" class="node">
<title>Node8</title>
<g id="a_node8"><a xlink:title=" ">
<polygon fill="white" stroke="#bfbfbf" points="858.5,-6 858.5,-25 1031.5,-25 1031.5,-6 858.5,-6"/>
<text text-anchor="middle" x="945" y="-13" font-family="Helvetica,sans-Serif" font-size="10.00">stk_mesh/base/FieldParallel.hpp</text>
</a>
</g>
</g>
<!-- Node1&#45;&gt;Node8 -->
<g id="edge7" class="edge">
<title>Node1&#45;&gt;Node8</title>
<path fill="none" stroke="midnightblue" d="M737.67,-67.48C780.53,-56.94 853.54,-38.99 900.5,-27.44"/>
<polygon fill="midnightblue" stroke="midnightblue" points="901.52,-30.8 910.39,-25.01 899.85,-24 901.52,-30.8"/>
</g>
<!-- Node9 -->
<g id="node9" class="node">
<title>Node9</title>
<g id="a_node9"><a xlink:title=" ">
<polygon fill="white" stroke="#bfbfbf" points="1049.5,-6 1049.5,-25 1212.5,-25 1212.5,-6 1049.5,-6"/>
<text text-anchor="middle" x="1131" y="-13" font-family="Helvetica,sans-Serif" font-size="10.00">stk_mesh/base/FieldBLAS.hpp</text>
</a>
</g>
</g>
<!-- Node1&#45;&gt;Node9 -->
<g id="edge8" class="edge">
<title>Node1&#45;&gt;Node9</title>
<path fill="none" stroke="midnightblue" d="M770.09,-67.62C838.35,-58.96 947.14,-44.81 1041,-31 1050.3,-29.63 1060.12,-28.12 1069.73,-26.6"/>
<polygon fill="midnightblue" stroke="midnightblue" points="1070.31,-30.05 1079.64,-25.02 1069.21,-23.14 1070.31,-30.05"/>
</g>
<!-- Node10 -->
<g id="node10" class="node">
<title>Node10</title>
<g id="a_node10"><a xlink:title=" ">
<polygon fill="white" stroke="#bfbfbf" points="1231,-6 1231,-25 1393,-25 1393,-6 1231,-6"/>
<text text-anchor="middle" x="1312" y="-13" font-family="Helvetica,sans-Serif" font-size="10.00">stk_mesh/base/MetaData.hpp</text>
</a>
</g>
</g>
<!-- Node1&#45;&gt;Node10 -->
<g id="edge9" class="edge">
<title>Node1&#45;&gt;Node10</title>
<path fill="none" stroke="midnightblue" d="M770.35,-71.74C869.49,-65.12 1060.44,-50.99 1222,-31 1232.01,-29.76 1242.62,-28.24 1252.9,-26.65"/>
<polygon fill="midnightblue" stroke="midnightblue" points="1253.72,-30.07 1263.05,-25.05 1252.62,-23.16 1253.72,-30.07"/>
</g>
<!-- Node11 -->
<g id="node11" class="node">
<title>Node11</title>
<g id="a_node11"><a xlink:title=" ">
<polygon fill="white" stroke="#bfbfbf" points="1411,-6 1411,-25 1571,-25 1571,-6 1411,-6"/>
<text text-anchor="middle" x="1491" y="-13" font-family="Helvetica,sans-Serif" font-size="10.00">stk_mesh/base/NgpMesh.hpp</text>
</a>
</g>
</g>
<!-- Node1&#45;&gt;Node11 -->
<g id="edge10" class="edge">
<title>Node1&#45;&gt;Node11</title>
<path fill="none" stroke="midnightblue" d="M770.18,-73.85C894.98,-69.37 1170.91,-57.2 1402,-31 1412.37,-29.82 1423.38,-28.28 1433.99,-26.63"/>
<polygon fill="midnightblue" stroke="midnightblue" points="1434.68,-30.07 1444.01,-25.03 1433.58,-23.15 1434.68,-30.07"/>
</g>
</g>
</svg>
