<?xml version="1.0" encoding="UTF-8" standalone="no"?>
<!DOCTYPE svg PUBLIC "-//W3C//DTD SVG 1.1//EN"
 "http://www.w3.org/Graphics/SVG/1.1/DTD/svg11.dtd">
<!-- Generated by graphviz version 2.43.0 (0)
 -->
<!-- Title: TKESSTIDDESNodeKernel.C Pages: 1 -->
<svg width="794pt" height="95pt"
 viewBox="0.00 0.00 794.00 95.00" xmlns="http://www.w3.org/2000/svg" xmlns:xlink="http://www.w3.org/1999/xlink">
<g id="graph0" class="graph" transform="scale(1 1) rotate(0) translate(4 91)">
<title>TKESSTIDDESNodeKernel.C</title>
<polygon fill="white" stroke="transparent" points="-4,4 -4,-91 790,-91 790,4 -4,4"/>
<!-- Node1 -->
<g id="node1" class="node">
<title>Node1</title>
<g id="a_node1"><a xlink:title=" ">
<polygon fill="#bfbfbf" stroke="black" points="306.5,-67.5 306.5,-86.5 455.5,-86.5 455.5,-67.5 306.5,-67.5"/>
<text text-anchor="middle" x="381" y="-74.5" font-family="Helvetica,sans-Serif" font-size="10.00">TKESSTIDDESNodeKernel.C</text>
</a>
</g>
</g>
<!-- Node2 -->
<g id="node2" class="node">
<title>Node2</title>
<g id="a_node2"><a xlink:title=" ">
<polygon fill="white" stroke="#bfbfbf" points="0,-0.5 0,-30.5 176,-30.5 176,-0.5 0,-0.5"/>
<text text-anchor="start" x="8" y="-18.5" font-family="Helvetica,sans-Serif" font-size="10.00">node_kernels/TKESSTIDDESNode</text>
<text text-anchor="middle" x="88" y="-7.5" font-family="Helvetica,sans-Serif" font-size="10.00">Kernel.h</text>
</a>
</g>
</g>
<!-- Node1&#45;&gt;Node2 -->
<g id="edge1" class="edge">
<title>Node1&#45;&gt;Node2</title>
<path fill="none" stroke="midnightblue" d="M339.02,-67.48C294.33,-58.4 222.57,-43.83 167.19,-32.58"/>
<polygon fill="midnightblue" stroke="midnightblue" points="167.55,-29.08 157.05,-30.52 166.16,-35.94 167.55,-29.08"/>
</g>
<!-- Node3 -->
<g id="node3" class="node">
<title>Node3</title>
<g id="a_node3"><a xlink:title=" ">
<polygon fill="white" stroke="#bfbfbf" points="194.5,-6 194.5,-25 251.5,-25 251.5,-6 194.5,-6"/>
<text text-anchor="middle" x="223" y="-13" font-family="Helvetica,sans-Serif" font-size="10.00">Realm.h</text>
</a>
</g>
</g>
<!-- Node1&#45;&gt;Node3 -->
<g id="edge2" class="edge">
<title>Node1&#45;&gt;Node3</title>
<path fill="none" stroke="midnightblue" d="M357.76,-67.49C333.36,-58.53 293.92,-43.95 260,-31 258.16,-30.3 256.28,-29.57 254.37,-28.84"/>
<polygon fill="midnightblue" stroke="midnightblue" points="255.48,-25.51 244.89,-25.15 252.94,-32.04 255.48,-25.51"/>
</g>
<!-- Node4 -->
<g id="node4" class="node">
<title>Node4</title>
<g id="a_node4"><a xlink:title=" ">
<polygon fill="white" stroke="#bfbfbf" points="269.5,-6 269.5,-25 372.5,-25 372.5,-6 269.5,-6"/>
<text text-anchor="middle" x="321" y="-13" font-family="Helvetica,sans-Serif" font-size="10.00">SolutionOptions.h</text>
</a>
</g>
</g>
<!-- Node1&#45;&gt;Node4 -->
<g id="edge3" class="edge">
<title>Node1&#45;&gt;Node4</title>
<path fill="none" stroke="midnightblue" d="M372.4,-67.48C363.14,-58.28 348.18,-43.46 336.79,-32.16"/>
<polygon fill="midnightblue" stroke="midnightblue" points="339.15,-29.57 329.58,-25.01 334.22,-34.54 339.15,-29.57"/>
</g>
<!-- Node5 -->
<g id="node5" class="node">
<title>Node5</title>
<g id="a_node5"><a xlink:title=" ">
<polygon fill="white" stroke="#bfbfbf" points="390.5,-6 390.5,-25 493.5,-25 493.5,-6 390.5,-6"/>
<text text-anchor="middle" x="442" y="-13" font-family="Helvetica,sans-Serif" font-size="10.00">utils/StkHelpers.h</text>
</a>
</g>
</g>
<!-- Node1&#45;&gt;Node5 -->
<g id="edge4" class="edge">
<title>Node1&#45;&gt;Node5</title>
<path fill="none" stroke="midnightblue" d="M389.74,-67.48C399.16,-58.28 414.36,-43.46 425.95,-32.16"/>
<polygon fill="midnightblue" stroke="midnightblue" points="428.56,-34.5 433.28,-25.01 423.67,-29.49 428.56,-34.5"/>
</g>
<!-- Node6 -->
<g id="node6" class="node">
<title>Node6</title>
<g id="a_node6"><a xlink:title=" ">
<polygon fill="white" stroke="#bfbfbf" points="512,-6 512,-25 606,-25 606,-6 512,-6"/>
<text text-anchor="middle" x="559" y="-13" font-family="Helvetica,sans-Serif" font-size="10.00">SimdInterface.h</text>
</a>
</g>
</g>
<!-- Node1&#45;&gt;Node6 -->
<g id="edge5" class="edge">
<title>Node1&#45;&gt;Node6</title>
<path fill="none" stroke="midnightblue" d="M406.5,-67.48C437.3,-57.18 489.27,-39.81 523.85,-28.25"/>
<polygon fill="midnightblue" stroke="midnightblue" points="525.17,-31.5 533.54,-25.01 522.95,-24.86 525.17,-31.5"/>
</g>
<!-- Node7 -->
<g id="node7" class="node">
<title>Node7</title>
<g id="a_node7"><a xlink:title=" ">
<polygon fill="white" stroke="#bfbfbf" points="624,-6 624,-25 786,-25 786,-6 624,-6"/>
<text text-anchor="middle" x="705" y="-13" font-family="Helvetica,sans-Serif" font-size="10.00">stk_mesh/base/MetaData.hpp</text>
</a>
</g>
</g>
<!-- Node1&#45;&gt;Node7 -->
<g id="edge6" class="edge">
<title>Node1&#45;&gt;Node7</title>
<path fill="none" stroke="midnightblue" d="M427.42,-67.48C485.77,-56.76 585.84,-38.38 648.55,-26.87"/>
<polygon fill="midnightblue" stroke="midnightblue" points="649.46,-30.26 658.66,-25.01 648.2,-23.37 649.46,-30.26"/>
</g>
</g>
</svg>
