<?xml version="1.0" encoding="UTF-8" standalone="no"?>
<!DOCTYPE svg PUBLIC "-//W3C//DTD SVG 1.1//EN"
 "http://www.w3.org/Graphics/SVG/1.1/DTD/svg11.dtd">
<!-- Generated by graphviz version 2.43.0 (0)
 -->
<!-- Title: TemperaturePropAlgorithm.C Pages: 1 -->
<svg width="1448pt" height="95pt"
 viewBox="0.00 0.00 1447.50 95.00" xmlns="http://www.w3.org/2000/svg" xmlns:xlink="http://www.w3.org/1999/xlink">
<g id="graph0" class="graph" transform="scale(1 1) rotate(0) translate(4 91)">
<title>TemperaturePropAlgorithm.C</title>
<polygon fill="white" stroke="transparent" points="-4,4 -4,-91 1443.5,-91 1443.5,4 -4,4"/>
<!-- Node1 -->
<g id="node1" class="node">
<title>Node1</title>
<g id="a_node1"><a xlink:title=" ">
<polygon fill="#bfbfbf" stroke="black" points="523,-67.5 523,-86.5 681,-86.5 681,-67.5 523,-67.5"/>
<text text-anchor="middle" x="602" y="-74.5" font-family="Helvetica,sans-Serif" font-size="10.00">TemperaturePropAlgorithm.C</text>
</a>
</g>
</g>
<!-- Node2 -->
<g id="node2" class="node">
<title>Node2</title>
<g id="a_node2"><a xlink:title=" ">
<polygon fill="white" stroke="#bfbfbf" points="0,-6 0,-25 74,-25 74,-6 0,-6"/>
<text text-anchor="middle" x="37" y="-13" font-family="Helvetica,sans-Serif" font-size="10.00">Algorithm.h</text>
</a>
</g>
</g>
<!-- Node1&#45;&gt;Node2 -->
<g id="edge1" class="edge">
<title>Node1&#45;&gt;Node2</title>
<path fill="none" stroke="midnightblue" d="M522.99,-74.51C420.59,-71.36 236.92,-61.55 83,-31 78.84,-30.17 74.53,-29.11 70.29,-27.93"/>
<polygon fill="midnightblue" stroke="midnightblue" points="71.2,-24.55 60.62,-25.03 69.19,-31.26 71.2,-24.55"/>
</g>
<!-- Node3 -->
<g id="node3" class="node">
<title>Node3</title>
<g id="a_node3"><a xlink:title=" ">
<polygon fill="white" stroke="#bfbfbf" points="92,-0.5 92,-30.5 252,-30.5 252,-0.5 92,-0.5"/>
<text text-anchor="start" x="100" y="-18.5" font-family="Helvetica,sans-Serif" font-size="10.00">property_evaluator</text>
<text text-anchor="middle" x="172" y="-7.5" font-family="Helvetica,sans-Serif" font-size="10.00">/TemperaturePropAlgorithm.h</text>
</a>
</g>
</g>
<!-- Node1&#45;&gt;Node3 -->
<g id="edge2" class="edge">
<title>Node1&#45;&gt;Node3</title>
<path fill="none" stroke="midnightblue" d="M532.69,-67.48C465.95,-59.13 361.9,-45.74 262,-31.12"/>
<polygon fill="midnightblue" stroke="midnightblue" points="262.44,-27.65 252.04,-29.66 261.42,-34.57 262.44,-27.65"/>
</g>
<!-- Node4 -->
<g id="node4" class="node">
<title>Node4</title>
<g id="a_node4"><a xlink:title=" ">
<polygon fill="white" stroke="#bfbfbf" points="270,-6 270,-25 358,-25 358,-6 270,-6"/>
<text text-anchor="middle" x="314" y="-13" font-family="Helvetica,sans-Serif" font-size="10.00">FieldTypeDef.h</text>
</a>
</g>
</g>
<!-- Node1&#45;&gt;Node4 -->
<g id="edge3" class="edge">
<title>Node1&#45;&gt;Node4</title>
<path fill="none" stroke="midnightblue" d="M551.34,-67.47C503.58,-59.16 430.12,-45.66 367,-31 362.59,-29.98 358,-28.84 353.45,-27.66"/>
<polygon fill="midnightblue" stroke="midnightblue" points="354.17,-24.23 343.61,-25.04 352.37,-30.99 354.17,-24.23"/>
</g>
<!-- Node5 -->
<g id="node5" class="node">
<title>Node5</title>
<g id="a_node5"><a xlink:title=" ">
<polygon fill="white" stroke="#bfbfbf" points="376,-0.5 376,-30.5 492,-30.5 492,-0.5 376,-0.5"/>
<text text-anchor="start" x="384" y="-18.5" font-family="Helvetica,sans-Serif" font-size="10.00">property_evaluator</text>
<text text-anchor="middle" x="434" y="-7.5" font-family="Helvetica,sans-Serif" font-size="10.00">/PropertyEvaluator.h</text>
</a>
</g>
</g>
<!-- Node1&#45;&gt;Node5 -->
<g id="edge4" class="edge">
<title>Node1&#45;&gt;Node5</title>
<path fill="none" stroke="midnightblue" d="M577.93,-67.48C553.37,-58.78 514.55,-45.03 483.41,-34"/>
<polygon fill="midnightblue" stroke="midnightblue" points="484.19,-30.56 473.59,-30.52 481.85,-37.16 484.19,-30.56"/>
</g>
<!-- Node6 -->
<g id="node6" class="node">
<title>Node6</title>
<g id="a_node6"><a xlink:title=" ">
<polygon fill="white" stroke="#bfbfbf" points="510.5,-6 510.5,-25 567.5,-25 567.5,-6 510.5,-6"/>
<text text-anchor="middle" x="539" y="-13" font-family="Helvetica,sans-Serif" font-size="10.00">Realm.h</text>
</a>
</g>
</g>
<!-- Node1&#45;&gt;Node6 -->
<g id="edge5" class="edge">
<title>Node1&#45;&gt;Node6</title>
<path fill="none" stroke="midnightblue" d="M592.97,-67.48C583.24,-58.28 567.54,-43.46 555.58,-32.16"/>
<polygon fill="midnightblue" stroke="midnightblue" points="557.68,-29.33 548.01,-25.01 552.88,-34.42 557.68,-29.33"/>
</g>
<!-- Node7 -->
<g id="node7" class="node">
<title>Node7</title>
<g id="a_node7"><a xlink:title=" ">
<polygon fill="white" stroke="#bfbfbf" points="585.5,-6 585.5,-25 744.5,-25 744.5,-6 585.5,-6"/>
<text text-anchor="middle" x="665" y="-13" font-family="Helvetica,sans-Serif" font-size="10.00">stk_mesh/base/BulkData.hpp</text>
</a>
</g>
</g>
<!-- Node1&#45;&gt;Node7 -->
<g id="edge6" class="edge">
<title>Node1&#45;&gt;Node7</title>
<path fill="none" stroke="midnightblue" d="M611.03,-67.48C620.76,-58.28 636.46,-43.46 648.42,-32.16"/>
<polygon fill="midnightblue" stroke="midnightblue" points="651.12,-34.42 655.99,-25.01 646.32,-29.33 651.12,-34.42"/>
</g>
<!-- Node8 -->
<g id="node8" class="node">
<title>Node8</title>
<g id="a_node8"><a xlink:title=" ">
<polygon fill="white" stroke="#bfbfbf" points="762.5,-6 762.5,-25 899.5,-25 899.5,-6 762.5,-6"/>
<text text-anchor="middle" x="831" y="-13" font-family="Helvetica,sans-Serif" font-size="10.00">stk_mesh/base/Field.hpp</text>
</a>
</g>
</g>
<!-- Node1&#45;&gt;Node8 -->
<g id="edge7" class="edge">
<title>Node1&#45;&gt;Node8</title>
<path fill="none" stroke="midnightblue" d="M634.81,-67.48C675.2,-56.98 743.88,-39.14 788.33,-27.59"/>
<polygon fill="midnightblue" stroke="midnightblue" points="789.45,-30.91 798.25,-25.01 787.69,-24.14 789.45,-30.91"/>
</g>
<!-- Node9 -->
<g id="node9" class="node">
<title>Node9</title>
<g id="a_node9"><a xlink:title=" ">
<polygon fill="white" stroke="#bfbfbf" points="918,-6 918,-25 1088,-25 1088,-6 918,-6"/>
<text text-anchor="middle" x="1003" y="-13" font-family="Helvetica,sans-Serif" font-size="10.00">stk_mesh/base/GetBuckets.hpp</text>
</a>
</g>
</g>
<!-- Node1&#45;&gt;Node9 -->
<g id="edge8" class="edge">
<title>Node1&#45;&gt;Node9</title>
<path fill="none" stroke="midnightblue" d="M661.16,-67.46C723,-58.51 822.84,-43.96 909,-31 918.45,-29.58 928.44,-28.06 938.23,-26.56"/>
<polygon fill="midnightblue" stroke="midnightblue" points="938.98,-29.98 948.33,-25 937.92,-23.06 938.98,-29.98"/>
</g>
<!-- Node10 -->
<g id="node10" class="node">
<title>Node10</title>
<g id="a_node10"><a xlink:title=" ">
<polygon fill="white" stroke="#bfbfbf" points="1106,-6 1106,-25 1268,-25 1268,-6 1106,-6"/>
<text text-anchor="middle" x="1187" y="-13" font-family="Helvetica,sans-Serif" font-size="10.00">stk_mesh/base/MetaData.hpp</text>
</a>
</g>
</g>
<!-- Node1&#45;&gt;Node10 -->
<g id="edge9" class="edge">
<title>Node1&#45;&gt;Node10</title>
<path fill="none" stroke="midnightblue" d="M681.05,-70.51C778.92,-63.31 950.6,-49.43 1097,-31 1107.01,-29.74 1117.62,-28.21 1127.9,-26.62"/>
<polygon fill="midnightblue" stroke="midnightblue" points="1128.71,-30.03 1138.04,-25.02 1127.62,-23.12 1128.71,-30.03"/>
</g>
<!-- Node11 -->
<g id="node11" class="node">
<title>Node11</title>
<g id="a_node11"><a xlink:title=" ">
<polygon fill="white" stroke="#bfbfbf" points="1286.5,-6 1286.5,-25 1439.5,-25 1439.5,-6 1286.5,-6"/>
<text text-anchor="middle" x="1363" y="-13" font-family="Helvetica,sans-Serif" font-size="10.00">stk_mesh/base/Selector.hpp</text>
</a>
</g>
</g>
<!-- Node1&#45;&gt;Node11 -->
<g id="edge10" class="edge">
<title>Node1&#45;&gt;Node11</title>
<path fill="none" stroke="midnightblue" d="M681.21,-73.3C807.56,-68.41 1062.37,-56.18 1277,-31 1286.93,-29.84 1297.45,-28.31 1307.6,-26.68"/>
<polygon fill="midnightblue" stroke="midnightblue" points="1308.3,-30.11 1317.6,-25.03 1307.16,-23.21 1308.3,-30.11"/>
</g>
</g>
</svg>
