<?xml version="1.0" encoding="UTF-8" standalone="no"?>
<!DOCTYPE svg PUBLIC "-//W3C//DTD SVG 1.1//EN"
 "http://www.w3.org/Graphics/SVG/1.1/DTD/svg11.dtd">
<!-- Generated by graphviz version 2.43.0 (0)
 -->
<!-- Title: Tet4CVFEM.C Pages: 1 -->
<svg width="1672pt" height="95pt"
 viewBox="0.00 0.00 1671.50 95.00" xmlns="http://www.w3.org/2000/svg" xmlns:xlink="http://www.w3.org/1999/xlink">
<g id="graph0" class="graph" transform="scale(1 1) rotate(0) translate(4 91)">
<title>Tet4CVFEM.C</title>
<polygon fill="white" stroke="transparent" points="-4,4 -4,-91 1667.5,-91 1667.5,4 -4,4"/>
<!-- Node1 -->
<g id="node1" class="node">
<title>Node1</title>
<g id="a_node1"><a xlink:title=" ">
<polygon fill="#bfbfbf" stroke="black" points="1065,-67.5 1065,-86.5 1146,-86.5 1146,-67.5 1065,-67.5"/>
<text text-anchor="middle" x="1105.5" y="-74.5" font-family="Helvetica,sans-Serif" font-size="10.00">Tet4CVFEM.C</text>
</a>
</g>
</g>
<!-- Node2 -->
<g id="node2" class="node">
<title>Node2</title>
<g id="a_node2"><a xlink:title=" ">
<polygon fill="white" stroke="#bfbfbf" points="0,-6 0,-25 183,-25 183,-6 0,-6"/>
<text text-anchor="middle" x="91.5" y="-13" font-family="Helvetica,sans-Serif" font-size="10.00">master_element/MasterElement.h</text>
</a>
</g>
</g>
<!-- Node1&#45;&gt;Node2 -->
<g id="edge1" class="edge">
<title>Node1&#45;&gt;Node2</title>
<path fill="none" stroke="midnightblue" d="M1064.91,-75.35C936.62,-73.01 528.58,-63.34 192.5,-31 180.12,-29.81 166.93,-28.18 154.31,-26.44"/>
<polygon fill="midnightblue" stroke="midnightblue" points="154.72,-22.97 144.33,-25.03 153.74,-29.9 154.72,-22.97"/>
</g>
<!-- Node3 -->
<g id="node3" class="node">
<title>Node3</title>
<g id="a_node3"><a xlink:title=" ">
<polygon fill="white" stroke="#bfbfbf" points="201.5,-0.5 201.5,-30.5 375.5,-30.5 375.5,-0.5 201.5,-0.5"/>
<text text-anchor="start" x="209.5" y="-18.5" font-family="Helvetica,sans-Serif" font-size="10.00">master_element/MasterElement</text>
<text text-anchor="middle" x="288.5" y="-7.5" font-family="Helvetica,sans-Serif" font-size="10.00">Functions.h</text>
</a>
</g>
</g>
<!-- Node1&#45;&gt;Node3 -->
<g id="edge2" class="edge">
<title>Node1&#45;&gt;Node3</title>
<path fill="none" stroke="midnightblue" d="M1064.74,-74.71C956.13,-71 650.54,-58.81 385.77,-31.07"/>
<polygon fill="midnightblue" stroke="midnightblue" points="385.89,-27.56 375.58,-29.99 385.15,-34.52 385.89,-27.56"/>
</g>
<!-- Node4 -->
<g id="node4" class="node">
<title>Node4</title>
<g id="a_node4"><a xlink:title=" ">
<polygon fill="white" stroke="#bfbfbf" points="393.5,-6 393.5,-25 557.5,-25 557.5,-6 393.5,-6"/>
<text text-anchor="middle" x="475.5" y="-13" font-family="Helvetica,sans-Serif" font-size="10.00">master_element/Tet4CVFEM.h</text>
</a>
</g>
</g>
<!-- Node1&#45;&gt;Node4 -->
<g id="edge3" class="edge">
<title>Node1&#45;&gt;Node4</title>
<path fill="none" stroke="midnightblue" d="M1064.83,-73.65C974.81,-68.21 752.01,-53.49 566.5,-31 556.27,-29.76 545.43,-28.23 534.93,-26.62"/>
<polygon fill="midnightblue" stroke="midnightblue" points="535.42,-23.16 525,-25.08 534.34,-30.07 535.42,-23.16"/>
</g>
<!-- Node5 -->
<g id="node5" class="node">
<title>Node5</title>
<g id="a_node5"><a xlink:title=" ">
<polygon fill="white" stroke="#bfbfbf" points="575.5,-0.5 575.5,-30.5 749.5,-30.5 749.5,-0.5 575.5,-0.5"/>
<text text-anchor="start" x="583.5" y="-18.5" font-family="Helvetica,sans-Serif" font-size="10.00">master_element/Hex8Geometry</text>
<text text-anchor="middle" x="662.5" y="-7.5" font-family="Helvetica,sans-Serif" font-size="10.00">Functions.h</text>
</a>
</g>
</g>
<!-- Node1&#45;&gt;Node5 -->
<g id="edge4" class="edge">
<title>Node1&#45;&gt;Node5</title>
<path fill="none" stroke="midnightblue" d="M1064.86,-71.01C1001.86,-63.21 876.55,-47.46 759.79,-31.16"/>
<polygon fill="midnightblue" stroke="midnightblue" points="760,-27.66 749.61,-29.74 759.03,-34.59 760,-27.66"/>
</g>
<!-- Node6 -->
<g id="node6" class="node">
<title>Node6</title>
<g id="a_node6"><a xlink:title=" ">
<polygon fill="white" stroke="#bfbfbf" points="767.5,-6 767.5,-25 835.5,-25 835.5,-6 767.5,-6"/>
<text text-anchor="middle" x="801.5" y="-13" font-family="Helvetica,sans-Serif" font-size="10.00">AlgTraits.h</text>
</a>
</g>
</g>
<!-- Node1&#45;&gt;Node6 -->
<g id="edge5" class="edge">
<title>Node1&#45;&gt;Node6</title>
<path fill="none" stroke="midnightblue" d="M1064.85,-70.97C1013.16,-64.13 921.39,-50.47 844.5,-31 841.29,-30.19 837.98,-29.25 834.68,-28.25"/>
<polygon fill="midnightblue" stroke="midnightblue" points="835.55,-24.86 824.96,-25.14 833.42,-31.52 835.55,-24.86"/>
</g>
<!-- Node7 -->
<g id="node7" class="node">
<title>Node7</title>
<g id="a_node7"><a xlink:title=" ">
<polygon fill="white" stroke="#bfbfbf" points="854,-6 854,-25 919,-25 919,-6 854,-6"/>
<text text-anchor="middle" x="886.5" y="-13" font-family="Helvetica,sans-Serif" font-size="10.00">NaluEnv.h</text>
</a>
</g>
</g>
<!-- Node1&#45;&gt;Node7 -->
<g id="edge6" class="edge">
<title>Node1&#45;&gt;Node7</title>
<path fill="none" stroke="midnightblue" d="M1067.37,-67.44C1031.14,-59.05 975.25,-45.44 927.5,-31 924.72,-30.16 921.85,-29.24 918.99,-28.3"/>
<polygon fill="midnightblue" stroke="midnightblue" points="919.96,-24.93 909.36,-25.01 917.69,-31.55 919.96,-24.93"/>
</g>
<!-- Node8 -->
<g id="node8" class="node">
<title>Node8</title>
<g id="a_node8"><a xlink:title=" ">
<polygon fill="white" stroke="#bfbfbf" points="937,-6 937,-25 1102,-25 1102,-6 937,-6"/>
<text text-anchor="middle" x="1019.5" y="-13" font-family="Helvetica,sans-Serif" font-size="10.00">stk_util/util/ReportHandler.hpp</text>
</a>
</g>
</g>
<!-- Node1&#45;&gt;Node8 -->
<g id="edge7" class="edge">
<title>Node1&#45;&gt;Node8</title>
<path fill="none" stroke="midnightblue" d="M1093.18,-67.48C1079.38,-57.93 1056.8,-42.31 1040.27,-30.87"/>
<polygon fill="midnightblue" stroke="midnightblue" points="1042.01,-27.82 1031.8,-25.01 1038.03,-33.58 1042.01,-27.82"/>
</g>
<!-- Node9 -->
<g id="node9" class="node">
<title>Node9</title>
<g id="a_node9"><a xlink:title=" ">
<polygon fill="white" stroke="#bfbfbf" points="1120,-6 1120,-25 1265,-25 1265,-6 1120,-6"/>
<text text-anchor="middle" x="1192.5" y="-13" font-family="Helvetica,sans-Serif" font-size="10.00">stk_topology/topology.hpp</text>
</a>
</g>
</g>
<!-- Node1&#45;&gt;Node9 -->
<g id="edge8" class="edge">
<title>Node1&#45;&gt;Node9</title>
<path fill="none" stroke="midnightblue" d="M1117.96,-67.48C1131.92,-57.93 1154.76,-42.31 1171.49,-30.87"/>
<polygon fill="midnightblue" stroke="midnightblue" points="1173.78,-33.54 1180.06,-25.01 1169.83,-27.77 1173.78,-33.54"/>
</g>
<!-- Node10 -->
<g id="node10" class="node">
<title>Node10</title>
<g id="a_node10"><a xlink:title=" ">
<polygon fill="white" stroke="#bfbfbf" points="1283.5,-6 1283.5,-25 1343.5,-25 1343.5,-6 1283.5,-6"/>
<text text-anchor="middle" x="1313.5" y="-13" font-family="Helvetica,sans-Serif" font-size="10.00">iostream</text>
</a>
</g>
</g>
<!-- Node1&#45;&gt;Node10 -->
<g id="edge9" class="edge">
<title>Node1&#45;&gt;Node10</title>
<path fill="none" stroke="midnightblue" d="M1141.72,-67.42C1176.14,-59.02 1229.22,-45.41 1274.5,-31 1277.06,-30.19 1279.69,-29.3 1282.33,-28.39"/>
<polygon fill="midnightblue" stroke="midnightblue" points="1283.54,-31.68 1291.76,-25 1281.17,-25.09 1283.54,-31.68"/>
</g>
<!-- Node11 -->
<g id="node11" class="node">
<title>Node11</title>
<g id="a_node11"><a xlink:title=" ">
<polygon fill="white" stroke="#bfbfbf" points="1362,-6 1362,-25 1409,-25 1409,-6 1362,-6"/>
<text text-anchor="middle" x="1385.5" y="-13" font-family="Helvetica,sans-Serif" font-size="10.00">cmath</text>
</a>
</g>
</g>
<!-- Node1&#45;&gt;Node11 -->
<g id="edge10" class="edge">
<title>Node1&#45;&gt;Node11</title>
<path fill="none" stroke="midnightblue" d="M1146.41,-71.52C1195.97,-65.42 1281.65,-52.69 1352.5,-31 1354.43,-30.41 1356.4,-29.74 1358.36,-29.01"/>
<polygon fill="midnightblue" stroke="midnightblue" points="1360.03,-32.11 1367.98,-25.11 1357.4,-25.63 1360.03,-32.11"/>
</g>
<!-- Node12 -->
<g id="node12" class="node">
<title>Node12</title>
<g id="a_node12"><a xlink:title=" ">
<polygon fill="white" stroke="#bfbfbf" points="1427.5,-6 1427.5,-25 1471.5,-25 1471.5,-6 1427.5,-6"/>
<text text-anchor="middle" x="1449.5" y="-13" font-family="Helvetica,sans-Serif" font-size="10.00">limits</text>
</a>
</g>
</g>
<!-- Node1&#45;&gt;Node12 -->
<g id="edge11" class="edge">
<title>Node1&#45;&gt;Node12</title>
<path fill="none" stroke="midnightblue" d="M1146.09,-73.98C1206.57,-70.12 1323.42,-59.39 1418.5,-31 1420.38,-30.44 1422.29,-29.78 1424.19,-29.06"/>
<polygon fill="midnightblue" stroke="midnightblue" points="1425.63,-32.25 1433.44,-25.11 1422.87,-25.82 1425.63,-32.25"/>
</g>
<!-- Node13 -->
<g id="node13" class="node">
<title>Node13</title>
<g id="a_node13"><a xlink:title=" ">
<polygon fill="white" stroke="#bfbfbf" points="1489.5,-6 1489.5,-25 1531.5,-25 1531.5,-6 1489.5,-6"/>
<text text-anchor="middle" x="1510.5" y="-13" font-family="Helvetica,sans-Serif" font-size="10.00">array</text>
</a>
</g>
</g>
<!-- Node1&#45;&gt;Node13 -->
<g id="edge12" class="edge">
<title>Node1&#45;&gt;Node13</title>
<path fill="none" stroke="midnightblue" d="M1146.06,-75.49C1215.8,-73.65 1362.35,-65.59 1480.5,-31 1482.37,-30.45 1484.27,-29.8 1486.16,-29.07"/>
<polygon fill="midnightblue" stroke="midnightblue" points="1487.58,-32.27 1495.32,-25.04 1484.76,-25.87 1487.58,-32.27"/>
</g>
<!-- Node14 -->
<g id="node14" class="node">
<title>Node14</title>
<g id="a_node14"><a xlink:title=" ">
<polygon fill="white" stroke="#bfbfbf" points="1549.5,-6 1549.5,-25 1587.5,-25 1587.5,-6 1549.5,-6"/>
<text text-anchor="middle" x="1568.5" y="-13" font-family="Helvetica,sans-Serif" font-size="10.00">map</text>
</a>
</g>
</g>
<!-- Node1&#45;&gt;Node14 -->
<g id="edge13" class="edge">
<title>Node1&#45;&gt;Node14</title>
<path fill="none" stroke="midnightblue" d="M1146.06,-76.79C1224.16,-77.23 1400.1,-72.97 1540.5,-31 1541.98,-30.56 1543.46,-30.04 1544.95,-29.47"/>
<polygon fill="midnightblue" stroke="midnightblue" points="1546.79,-32.47 1554.4,-25.1 1543.86,-26.11 1546.79,-32.47"/>
</g>
<!-- Node15 -->
<g id="node15" class="node">
<title>Node15</title>
<g id="a_node15"><a xlink:title=" ">
<polygon fill="white" stroke="#bfbfbf" points="1605.5,-6 1605.5,-25 1663.5,-25 1663.5,-6 1605.5,-6"/>
<text text-anchor="middle" x="1634.5" y="-13" font-family="Helvetica,sans-Serif" font-size="10.00">memory</text>
</a>
</g>
</g>
<!-- Node1&#45;&gt;Node15 -->
<g id="edge14" class="edge">
<title>Node1&#45;&gt;Node15</title>
<path fill="none" stroke="midnightblue" d="M1146.19,-76C1231.05,-75.18 1432.65,-69.01 1596.5,-31 1599.5,-30.3 1602.58,-29.43 1605.62,-28.45"/>
<polygon fill="midnightblue" stroke="midnightblue" points="1606.85,-31.72 1615.1,-25.07 1604.5,-25.13 1606.85,-31.72"/>
</g>
</g>
</svg>
