<?xml version="1.0" encoding="UTF-8" standalone="no"?>
<!DOCTYPE svg PUBLIC "-//W3C//DTD SVG 1.1//EN"
 "http://www.w3.org/Graphics/SVG/1.1/DTD/svg11.dtd">
<!-- Generated by graphviz version 2.43.0 (0)
 -->
<!-- Title: TransportCoefficients.C Pages: 1 -->
<svg width="3792pt" height="95pt"
 viewBox="0.00 0.00 3792.00 95.00" xmlns="http://www.w3.org/2000/svg" xmlns:xlink="http://www.w3.org/1999/xlink">
<g id="graph0" class="graph" transform="scale(1 1) rotate(0) translate(4 91)">
<title>TransportCoefficients.C</title>
<polygon fill="white" stroke="transparent" points="-4,4 -4,-91 3788,-91 3788,4 -4,4"/>
<!-- Node1 -->
<g id="node1" class="node">
<title>Node1</title>
<g id="a_node1"><a xlink:title=" ">
<polygon fill="#bfbfbf" stroke="black" points="1987.5,-67.5 1987.5,-86.5 2116.5,-86.5 2116.5,-67.5 1987.5,-67.5"/>
<text text-anchor="middle" x="2052" y="-74.5" font-family="Helvetica,sans-Serif" font-size="10.00">TransportCoefficients.C</text>
</a>
</g>
</g>
<!-- Node2 -->
<g id="node2" class="node">
<title>Node2</title>
<g id="a_node2"><a xlink:title=" ">
<polygon fill="white" stroke="#bfbfbf" points="0,-6 0,-25 188,-25 188,-6 0,-6"/>
<text text-anchor="middle" x="94" y="-13" font-family="Helvetica,sans-Serif" font-size="10.00">matrix_free/TransportCoefficients.h</text>
</a>
</g>
</g>
<!-- Node1&#45;&gt;Node2 -->
<g id="edge1" class="edge">
<title>Node1&#45;&gt;Node2</title>
<path fill="none" stroke="midnightblue" d="M1987.25,-75.44C1702,-72.79 555.78,-60.51 197,-31 183.73,-29.91 169.57,-28.24 156.12,-26.43"/>
<polygon fill="midnightblue" stroke="midnightblue" points="156.39,-22.93 146,-25.01 155.42,-29.86 156.39,-22.93"/>
</g>
<!-- Node3 -->
<g id="node3" class="node">
<title>Node3</title>
<g id="a_node3"><a xlink:title=" ">
<polygon fill="white" stroke="#bfbfbf" points="206,-6 206,-25 374,-25 374,-6 206,-6"/>
<text text-anchor="middle" x="290" y="-13" font-family="Helvetica,sans-Serif" font-size="10.00">matrix_free/ElementGradient.h</text>
</a>
</g>
</g>
<!-- Node1&#45;&gt;Node3 -->
<g id="edge2" class="edge">
<title>Node1&#45;&gt;Node3</title>
<path fill="none" stroke="midnightblue" d="M1987.07,-75.37C1719.57,-72.62 702.05,-60.41 382,-31 370.54,-29.95 358.35,-28.36 346.71,-26.62"/>
<polygon fill="midnightblue" stroke="midnightblue" points="347.08,-23.13 336.66,-25.05 346,-30.05 347.08,-23.13"/>
</g>
<!-- Node4 -->
<g id="node4" class="node">
<title>Node4</title>
<g id="a_node4"><a xlink:title=" ">
<polygon fill="white" stroke="#bfbfbf" points="391.5,-6 391.5,-25 586.5,-25 586.5,-6 391.5,-6"/>
<text text-anchor="middle" x="489" y="-13" font-family="Helvetica,sans-Serif" font-size="10.00">matrix_free/HexVertexCoordinates.h</text>
</a>
</g>
</g>
<!-- Node1&#45;&gt;Node4 -->
<g id="edge3" class="edge">
<title>Node1&#45;&gt;Node4</title>
<path fill="none" stroke="midnightblue" d="M1987.23,-76.42C1782.57,-77.24 1131.54,-75.86 595,-31 581.37,-29.86 566.81,-28.18 552.99,-26.36"/>
<polygon fill="midnightblue" stroke="midnightblue" points="553.46,-22.89 543.08,-25.01 552.52,-29.82 553.46,-22.89"/>
</g>
<!-- Node5 -->
<g id="node5" class="node">
<title>Node5</title>
<g id="a_node5"><a xlink:title=" ">
<polygon fill="white" stroke="#bfbfbf" points="604,-6 604,-25 754,-25 754,-6 604,-6"/>
<text text-anchor="middle" x="679" y="-13" font-family="Helvetica,sans-Serif" font-size="10.00">matrix_free/LowMachInfo.h</text>
</a>
</g>
</g>
<!-- Node1&#45;&gt;Node5 -->
<g id="edge4" class="edge">
<title>Node1&#45;&gt;Node5</title>
<path fill="none" stroke="midnightblue" d="M1987.41,-74.91C1761.06,-70.9 1004.39,-55.93 763,-31 752.84,-29.95 742.06,-28.41 731.72,-26.73"/>
<polygon fill="midnightblue" stroke="midnightblue" points="732.02,-23.23 721.58,-25.01 730.85,-30.13 732.02,-23.23"/>
</g>
<!-- Node6 -->
<g id="node6" class="node">
<title>Node6</title>
<g id="a_node6"><a xlink:title=" ">
<polygon fill="white" stroke="#bfbfbf" points="772,-6 772,-25 932,-25 932,-6 772,-6"/>
<text text-anchor="middle" x="852" y="-13" font-family="Helvetica,sans-Serif" font-size="10.00">matrix_free/LowMachFields.h</text>
</a>
</g>
</g>
<!-- Node1&#45;&gt;Node6 -->
<g id="edge5" class="edge">
<title>Node1&#45;&gt;Node6</title>
<path fill="none" stroke="midnightblue" d="M1987.31,-76.11C1816.1,-75.81 1337.12,-71.14 941,-31 930.15,-29.9 918.61,-28.33 907.57,-26.61"/>
<polygon fill="midnightblue" stroke="midnightblue" points="908.02,-23.14 897.59,-25.02 906.91,-30.06 908.02,-23.14"/>
</g>
<!-- Node7 -->
<g id="node7" class="node">
<title>Node7</title>
<g id="a_node7"><a xlink:title=" ">
<polygon fill="white" stroke="#bfbfbf" points="950.5,-0.5 950.5,-30.5 1105.5,-30.5 1105.5,-0.5 950.5,-0.5"/>
<text text-anchor="start" x="958.5" y="-18.5" font-family="Helvetica,sans-Serif" font-size="10.00">matrix_free/LinearAdvection</text>
<text text-anchor="middle" x="1028" y="-7.5" font-family="Helvetica,sans-Serif" font-size="10.00">Metric.h</text>
</a>
</g>
</g>
<!-- Node1&#45;&gt;Node7 -->
<g id="edge6" class="edge">
<title>Node1&#45;&gt;Node7</title>
<path fill="none" stroke="midnightblue" d="M1987.33,-75.5C1836.49,-73.77 1449.55,-66.09 1116.07,-31.02"/>
<polygon fill="midnightblue" stroke="midnightblue" points="1116.04,-27.49 1105.73,-29.92 1115.3,-34.45 1116.04,-27.49"/>
</g>
<!-- Node8 -->
<g id="node8" class="node">
<title>Node8</title>
<g id="a_node8"><a xlink:title=" ">
<polygon fill="white" stroke="#bfbfbf" points="1124,-6 1124,-25 1296,-25 1296,-6 1124,-6"/>
<text text-anchor="middle" x="1210" y="-13" font-family="Helvetica,sans-Serif" font-size="10.00">matrix_free/KokkosViewTypes.h</text>
</a>
</g>
</g>
<!-- Node1&#45;&gt;Node8 -->
<g id="edge7" class="edge">
<title>Node1&#45;&gt;Node8</title>
<path fill="none" stroke="midnightblue" d="M1987.39,-74.09C1857.71,-69.83 1556.61,-57.72 1305,-31 1293.71,-29.8 1281.71,-28.21 1270.17,-26.53"/>
<polygon fill="midnightblue" stroke="midnightblue" points="1270.59,-23.05 1260.18,-25.03 1269.55,-29.98 1270.59,-23.05"/>
</g>
<!-- Node9 -->
<g id="node9" class="node">
<title>Node9</title>
<g id="a_node9"><a xlink:title=" ">
<polygon fill="white" stroke="#bfbfbf" points="1314.5,-6 1314.5,-25 1487.5,-25 1487.5,-6 1314.5,-6"/>
<text text-anchor="middle" x="1401" y="-13" font-family="Helvetica,sans-Serif" font-size="10.00">matrix_free/PolynomialOrders.h</text>
</a>
</g>
</g>
<!-- Node1&#45;&gt;Node9 -->
<g id="edge8" class="edge">
<title>Node1&#45;&gt;Node9</title>
<path fill="none" stroke="midnightblue" d="M1987.22,-72.25C1883.36,-65.9 1673.23,-51.67 1496,-31 1485.22,-29.74 1473.77,-28.19 1462.71,-26.57"/>
<polygon fill="midnightblue" stroke="midnightblue" points="1463.09,-23.08 1452.68,-25.07 1462.05,-30.01 1463.09,-23.08"/>
</g>
<!-- Node10 -->
<g id="node10" class="node">
<title>Node10</title>
<g id="a_node10"><a xlink:title=" ">
<polygon fill="white" stroke="#bfbfbf" points="1505.5,-6 1505.5,-25 1664.5,-25 1664.5,-6 1505.5,-6"/>
<text text-anchor="middle" x="1585" y="-13" font-family="Helvetica,sans-Serif" font-size="10.00">matrix_free/ShuffledAccess.h</text>
</a>
</g>
</g>
<!-- Node1&#45;&gt;Node10 -->
<g id="edge9" class="edge">
<title>Node1&#45;&gt;Node10</title>
<path fill="none" stroke="midnightblue" d="M1987.17,-69.2C1911.61,-61.07 1783.05,-46.59 1673,-31 1663.67,-29.68 1653.8,-28.17 1644.18,-26.63"/>
<polygon fill="midnightblue" stroke="midnightblue" points="1644.71,-23.17 1634.27,-25.02 1643.59,-30.08 1644.71,-23.17"/>
</g>
<!-- Node11 -->
<g id="node11" class="node">
<title>Node11</title>
<g id="a_node11"><a xlink:title=" ">
<polygon fill="white" stroke="#bfbfbf" points="1682.5,-0.5 1682.5,-30.5 1861.5,-30.5 1861.5,-0.5 1682.5,-0.5"/>
<text text-anchor="start" x="1690.5" y="-18.5" font-family="Helvetica,sans-Serif" font-size="10.00">matrix_free/StkSimdConnectivity</text>
<text text-anchor="middle" x="1772" y="-7.5" font-family="Helvetica,sans-Serif" font-size="10.00">Map.h</text>
</a>
</g>
</g>
<!-- Node1&#45;&gt;Node11 -->
<g id="edge10" class="edge">
<title>Node1&#45;&gt;Node11</title>
<path fill="none" stroke="midnightblue" d="M2011.88,-67.48C1969.26,-58.42 1900.88,-43.89 1848.01,-32.65"/>
<polygon fill="midnightblue" stroke="midnightblue" points="1848.5,-29.18 1837.99,-30.52 1847.04,-36.03 1848.5,-29.18"/>
</g>
<!-- Node12 -->
<g id="node12" class="node">
<title>Node12</title>
<g id="a_node12"><a xlink:title=" ">
<polygon fill="white" stroke="#bfbfbf" points="1880,-0.5 1880,-30.5 2042,-30.5 2042,-0.5 1880,-0.5"/>
<text text-anchor="start" x="1888" y="-18.5" font-family="Helvetica,sans-Serif" font-size="10.00">matrix_free/StkSimdGathered</text>
<text text-anchor="middle" x="1961" y="-7.5" font-family="Helvetica,sans-Serif" font-size="10.00">ElementData.h</text>
</a>
</g>
</g>
<!-- Node1&#45;&gt;Node12 -->
<g id="edge11" class="edge">
<title>Node1&#45;&gt;Node12</title>
<path fill="none" stroke="midnightblue" d="M2038.96,-67.48C2026.52,-59.34 2007.33,-46.79 1991.1,-36.18"/>
<polygon fill="midnightblue" stroke="midnightblue" points="1992.73,-33.07 1982.45,-30.52 1988.9,-38.92 1992.73,-33.07"/>
</g>
<!-- Node13 -->
<g id="node13" class="node">
<title>Node13</title>
<g id="a_node13"><a xlink:title=" ">
<polygon fill="white" stroke="#bfbfbf" points="2060.5,-6 2060.5,-25 2227.5,-25 2227.5,-6 2060.5,-6"/>
<text text-anchor="middle" x="2144" y="-13" font-family="Helvetica,sans-Serif" font-size="10.00">matrix_free/ValidSimdLength.h</text>
</a>
</g>
</g>
<!-- Node1&#45;&gt;Node13 -->
<g id="edge12" class="edge">
<title>Node1&#45;&gt;Node13</title>
<path fill="none" stroke="midnightblue" d="M2065.18,-67.48C2080.07,-57.84 2104.54,-42.02 2122.27,-30.55"/>
<polygon fill="midnightblue" stroke="midnightblue" points="2124.35,-33.38 2130.84,-25.01 2120.55,-27.5 2124.35,-33.38"/>
</g>
<!-- Node14 -->
<g id="node14" class="node">
<title>Node14</title>
<g id="a_node14"><a xlink:title=" ">
<polygon fill="white" stroke="#bfbfbf" points="2245.5,-6 2245.5,-25 2428.5,-25 2428.5,-6 2245.5,-6"/>
<text text-anchor="middle" x="2337" y="-13" font-family="Helvetica,sans-Serif" font-size="10.00">matrix_free/GeometricFunctions.h</text>
</a>
</g>
</g>
<!-- Node1&#45;&gt;Node14 -->
<g id="edge13" class="edge">
<title>Node1&#45;&gt;Node14</title>
<path fill="none" stroke="midnightblue" d="M2092.83,-67.48C2143.84,-56.83 2231.1,-38.61 2286.32,-27.08"/>
<polygon fill="midnightblue" stroke="midnightblue" points="2287.17,-30.48 2296.24,-25.01 2285.74,-23.63 2287.17,-30.48"/>
</g>
<!-- Node15 -->
<g id="node15" class="node">
<title>Node15</title>
<g id="a_node15"><a xlink:title=" ">
<polygon fill="white" stroke="#bfbfbf" points="2447,-6 2447,-25 2551,-25 2551,-6 2447,-6"/>
<text text-anchor="middle" x="2499" y="-13" font-family="Helvetica,sans-Serif" font-size="10.00">KokkosInterface.h</text>
</a>
</g>
</g>
<!-- Node1&#45;&gt;Node15 -->
<g id="edge14" class="edge">
<title>Node1&#45;&gt;Node15</title>
<path fill="none" stroke="midnightblue" d="M2116.54,-70.81C2193.46,-64.08 2325.72,-50.82 2438,-31 2443.91,-29.96 2450.09,-28.69 2456.17,-27.35"/>
<polygon fill="midnightblue" stroke="midnightblue" points="2457.26,-30.69 2466.22,-25.04 2455.69,-23.87 2457.26,-30.69"/>
</g>
<!-- Node16 -->
<g id="node16" class="node">
<title>Node16</title>
<g id="a_node16"><a xlink:title=" ">
<polygon fill="white" stroke="#bfbfbf" points="2569.5,-6 2569.5,-25 2682.5,-25 2682.5,-6 2569.5,-6"/>
<text text-anchor="middle" x="2626" y="-13" font-family="Helvetica,sans-Serif" font-size="10.00">Kokkos_Macros.hpp</text>
</a>
</g>
</g>
<!-- Node1&#45;&gt;Node16 -->
<g id="edge15" class="edge">
<title>Node1&#45;&gt;Node16</title>
<path fill="none" stroke="midnightblue" d="M2116.87,-72.92C2213.76,-67.71 2401.82,-55.28 2560,-31 2566.86,-29.95 2574.07,-28.61 2581.1,-27.17"/>
<polygon fill="midnightblue" stroke="midnightblue" points="2582.17,-30.52 2591.22,-25.01 2580.71,-23.67 2582.17,-30.52"/>
</g>
<!-- Node17 -->
<g id="node17" class="node">
<title>Node17</title>
<g id="a_node17"><a xlink:title=" ">
<polygon fill="white" stroke="#bfbfbf" points="2700.5,-6 2700.5,-25 2863.5,-25 2863.5,-6 2700.5,-6"/>
<text text-anchor="middle" x="2782" y="-13" font-family="Helvetica,sans-Serif" font-size="10.00">stk_mesh/base/FieldState.hpp</text>
</a>
</g>
</g>
<!-- Node1&#45;&gt;Node17 -->
<g id="edge16" class="edge">
<title>Node1&#45;&gt;Node17</title>
<path fill="none" stroke="midnightblue" d="M2116.67,-73.37C2232.38,-68.24 2482.32,-55.21 2692,-31 2702.37,-29.8 2713.36,-28.26 2723.98,-26.63"/>
<polygon fill="midnightblue" stroke="midnightblue" points="2724.67,-30.06 2734,-25.05 2723.58,-23.15 2724.67,-30.06"/>
</g>
<!-- Node18 -->
<g id="node18" class="node">
<title>Node18</title>
<g id="a_node18"><a xlink:title=" ">
<polygon fill="white" stroke="#bfbfbf" points="2882,-6 2882,-25 3056,-25 3056,-6 2882,-6"/>
<text text-anchor="middle" x="2969" y="-13" font-family="Helvetica,sans-Serif" font-size="10.00">stk_mesh/base/GetNgpField.hpp</text>
</a>
</g>
</g>
<!-- Node1&#45;&gt;Node18 -->
<g id="edge17" class="edge">
<title>Node1&#45;&gt;Node18</title>
<path fill="none" stroke="midnightblue" d="M2116.56,-74.55C2255.32,-70.97 2592.19,-59.84 2873,-31 2884.54,-29.81 2896.82,-28.22 2908.6,-26.52"/>
<polygon fill="midnightblue" stroke="midnightblue" points="2909.42,-29.94 2918.79,-25 2908.39,-23.01 2909.42,-29.94"/>
</g>
<!-- Node19 -->
<g id="node19" class="node">
<title>Node19</title>
<g id="a_node19"><a xlink:title=" ">
<polygon fill="white" stroke="#bfbfbf" points="3074,-6 3074,-25 3236,-25 3236,-6 3074,-6"/>
<text text-anchor="middle" x="3155" y="-13" font-family="Helvetica,sans-Serif" font-size="10.00">stk_mesh/base/MetaData.hpp</text>
</a>
</g>
</g>
<!-- Node1&#45;&gt;Node19 -->
<g id="edge18" class="edge">
<title>Node1&#45;&gt;Node19</title>
<path fill="none" stroke="midnightblue" d="M2116.78,-75.71C2277.66,-74.42 2708.18,-67.55 3065,-31 3075.85,-29.89 3087.38,-28.33 3098.43,-26.63"/>
<polygon fill="midnightblue" stroke="midnightblue" points="3099.09,-30.07 3108.42,-25.05 3098,-23.16 3099.09,-30.07"/>
</g>
<!-- Node20 -->
<g id="node20" class="node">
<title>Node20</title>
<g id="a_node20"><a xlink:title=" ">
<polygon fill="white" stroke="#bfbfbf" points="3254,-0.5 3254,-30.5 3406,-30.5 3406,-0.5 3254,-0.5"/>
<text text-anchor="start" x="3262" y="-18.5" font-family="Helvetica,sans-Serif" font-size="10.00">stk_mesh/base/NgpProfiling</text>
<text text-anchor="middle" x="3330" y="-7.5" font-family="Helvetica,sans-Serif" font-size="10.00">Block.hpp</text>
</a>
</g>
</g>
<!-- Node1&#45;&gt;Node20 -->
<g id="edge19" class="edge">
<title>Node1&#45;&gt;Node20</title>
<path fill="none" stroke="midnightblue" d="M2116.55,-76.54C2294.65,-77.38 2808.08,-75.52 3243.66,-31.04"/>
<polygon fill="midnightblue" stroke="midnightblue" points="3244.02,-34.52 3253.61,-30.02 3243.3,-27.56 3244.02,-34.52"/>
</g>
<!-- Node21 -->
<g id="node21" class="node">
<title>Node21</title>
<g id="a_node21"><a xlink:title=" ">
<polygon fill="white" stroke="#bfbfbf" points="3424,-6 3424,-25 3534,-25 3534,-6 3424,-6"/>
<text text-anchor="middle" x="3479" y="-13" font-family="Helvetica,sans-Serif" font-size="10.00">stk_simd/Simd.hpp</text>
</a>
</g>
</g>
<!-- Node1&#45;&gt;Node21 -->
<g id="edge20" class="edge">
<title>Node1&#45;&gt;Node21</title>
<path fill="none" stroke="midnightblue" d="M2116.66,-75.49C2351.55,-73.39 3159.19,-63.9 3415,-31 3422.22,-30.07 3429.83,-28.7 3437.18,-27.17"/>
<polygon fill="midnightblue" stroke="midnightblue" points="3437.97,-30.58 3446.98,-25.01 3436.46,-23.74 3437.97,-30.58"/>
</g>
<!-- Node22 -->
<g id="node22" class="node">
<title>Node22</title>
<g id="a_node22"><a xlink:title=" ">
<polygon fill="white" stroke="#bfbfbf" points="3552.5,-6 3552.5,-25 3717.5,-25 3717.5,-6 3552.5,-6"/>
<text text-anchor="middle" x="3635" y="-13" font-family="Helvetica,sans-Serif" font-size="10.00">stk_util/util/ReportHandler.hpp</text>
</a>
</g>
</g>
<!-- Node1&#45;&gt;Node22 -->
<g id="edge21" class="edge">
<title>Node1&#45;&gt;Node22</title>
<path fill="none" stroke="midnightblue" d="M2116.6,-75.14C2365.14,-71.65 3259.85,-57.48 3543,-31 3554.46,-29.93 3566.65,-28.33 3578.29,-26.59"/>
<polygon fill="midnightblue" stroke="midnightblue" points="3579,-30.02 3588.34,-25.02 3577.92,-23.1 3579,-30.02"/>
</g>
<!-- Node23 -->
<g id="node23" class="node">
<title>Node23</title>
<g id="a_node23"><a xlink:title=" ">
<polygon fill="white" stroke="#bfbfbf" points="3736,-6 3736,-25 3784,-25 3784,-6 3736,-6"/>
<text text-anchor="middle" x="3760" y="-13" font-family="Helvetica,sans-Serif" font-size="10.00">iosfwd</text>
</a>
</g>
</g>
<!-- Node1&#45;&gt;Node23 -->
<g id="edge22" class="edge">
<title>Node1&#45;&gt;Node23</title>
<path fill="none" stroke="midnightblue" d="M2116.52,-75.74C2404.84,-74.36 3568.04,-66.62 3727,-31 3729.51,-30.44 3732.07,-29.68 3734.59,-28.81"/>
<polygon fill="midnightblue" stroke="midnightblue" points="3736.01,-32.01 3743.98,-25.03 3733.39,-25.52 3736.01,-32.01"/>
</g>
</g>
</svg>
