<?xml version="1.0" encoding="UTF-8" standalone="no"?>
<!DOCTYPE svg PUBLIC "-//W3C//DTD SVG 1.1//EN"
 "http://www.w3.org/Graphics/SVG/1.1/DTD/svg11.dtd">
<!-- Generated by graphviz version 2.43.0 (0)
 -->
<!-- Title: Transfer.C Pages: 1 -->
<svg width="2525pt" height="84pt"
 viewBox="0.00 0.00 2525.00 84.00" xmlns="http://www.w3.org/2000/svg" xmlns:xlink="http://www.w3.org/1999/xlink">
<g id="graph0" class="graph" transform="scale(1 1) rotate(0) translate(4 80)">
<title>Transfer.C</title>
<polygon fill="white" stroke="transparent" points="-4,4 -4,-80 2521,-80 2521,4 -4,4"/>
<!-- Node1 -->
<g id="node1" class="node">
<title>Node1</title>
<g id="a_node1"><a xlink:title=" ">
<polygon fill="#bfbfbf" stroke="black" points="1115,-56.5 1115,-75.5 1180,-75.5 1180,-56.5 1115,-56.5"/>
<text text-anchor="middle" x="1147.5" y="-63.5" font-family="Helvetica,sans-Serif" font-size="10.00">Transfer.C</text>
</a>
</g>
</g>
<!-- Node2 -->
<g id="node2" class="node">
<title>Node2</title>
<g id="a_node2"><a xlink:title=" ">
<polygon fill="white" stroke="#bfbfbf" points="0,-0.5 0,-19.5 57,-19.5 57,-0.5 0,-0.5"/>
<text text-anchor="middle" x="28.5" y="-7.5" font-family="Helvetica,sans-Serif" font-size="10.00">Realm.h</text>
</a>
</g>
</g>
<!-- Node1&#45;&gt;Node2 -->
<g id="edge1" class="edge">
<title>Node1&#45;&gt;Node2</title>
<path fill="none" stroke="midnightblue" d="M1114.85,-64.48C959.82,-61.89 296.48,-49.36 66.97,-19.71"/>
<polygon fill="midnightblue" stroke="midnightblue" points="67.4,-16.23 57.02,-18.37 66.47,-23.17 67.4,-16.23"/>
</g>
<!-- Node3 -->
<g id="node3" class="node">
<title>Node3</title>
<g id="a_node3"><a xlink:title=" ">
<polygon fill="white" stroke="#bfbfbf" points="75.5,-0.5 75.5,-19.5 137.5,-19.5 137.5,-0.5 75.5,-0.5"/>
<text text-anchor="middle" x="106.5" y="-7.5" font-family="Helvetica,sans-Serif" font-size="10.00">Realms.h</text>
</a>
</g>
</g>
<!-- Node1&#45;&gt;Node3 -->
<g id="edge2" class="edge">
<title>Node1&#45;&gt;Node3</title>
<path fill="none" stroke="midnightblue" d="M1114.8,-64.31C967.06,-61.06 360.15,-46.41 147.95,-19.91"/>
<polygon fill="midnightblue" stroke="midnightblue" points="148.22,-16.42 137.85,-18.6 147.31,-23.36 148.22,-16.42"/>
</g>
<!-- Node4 -->
<g id="node4" class="node">
<title>Node4</title>
<g id="a_node4"><a xlink:title=" ">
<polygon fill="white" stroke="#bfbfbf" points="155.5,-0.5 155.5,-19.5 233.5,-19.5 233.5,-0.5 155.5,-0.5"/>
<text text-anchor="middle" x="194.5" y="-7.5" font-family="Helvetica,sans-Serif" font-size="10.00">Simulation.h</text>
</a>
</g>
</g>
<!-- Node1&#45;&gt;Node4 -->
<g id="edge3" class="edge">
<title>Node1&#45;&gt;Node4</title>
<path fill="none" stroke="midnightblue" d="M1114.9,-64.97C998.13,-64.54 589.78,-60.15 243.69,-19.97"/>
<polygon fill="midnightblue" stroke="midnightblue" points="244.07,-16.49 233.73,-18.8 243.25,-23.44 244.07,-16.49"/>
</g>
<!-- Node5 -->
<g id="node5" class="node">
<title>Node5</title>
<g id="a_node5"><a xlink:title=" ">
<polygon fill="white" stroke="#bfbfbf" points="252,-0.5 252,-19.5 317,-19.5 317,-0.5 252,-0.5"/>
<text text-anchor="middle" x="284.5" y="-7.5" font-family="Helvetica,sans-Serif" font-size="10.00">NaluEnv.h</text>
</a>
</g>
</g>
<!-- Node1&#45;&gt;Node5 -->
<g id="edge4" class="edge">
<title>Node1&#45;&gt;Node5</title>
<path fill="none" stroke="midnightblue" d="M1114.82,-65.1C1004.87,-65.03 638.32,-61.6 327.2,-20.02"/>
<polygon fill="midnightblue" stroke="midnightblue" points="327.47,-16.52 317.09,-18.65 326.53,-23.46 327.47,-16.52"/>
</g>
<!-- Node6 -->
<g id="node6" class="node">
<title>Node6</title>
<g id="a_node6"><a xlink:title=" ">
<polygon fill="white" stroke="#bfbfbf" points="335,-0.5 335,-19.5 434,-19.5 434,-0.5 335,-0.5"/>
<text text-anchor="middle" x="384.5" y="-7.5" font-family="Helvetica,sans-Serif" font-size="10.00">yaml&#45;cpp/yaml.h</text>
</a>
</g>
</g>
<!-- Node1&#45;&gt;Node6 -->
<g id="edge5" class="edge">
<title>Node1&#45;&gt;Node6</title>
<path fill="none" stroke="midnightblue" d="M1114.73,-63.96C1015.37,-60.58 708.59,-48.52 444.31,-20.11"/>
<polygon fill="midnightblue" stroke="midnightblue" points="444.45,-16.6 434.14,-19 443.7,-23.56 444.45,-16.6"/>
</g>
<!-- Node7 -->
<g id="node7" class="node">
<title>Node7</title>
<g id="a_node7"><a xlink:title=" ">
<polygon fill="white" stroke="#bfbfbf" points="452,-0.5 452,-19.5 535,-19.5 535,-0.5 452,-0.5"/>
<text text-anchor="middle" x="493.5" y="-7.5" font-family="Helvetica,sans-Serif" font-size="10.00">NaluParsing.h</text>
</a>
</g>
</g>
<!-- Node1&#45;&gt;Node7 -->
<g id="edge6" class="edge">
<title>Node1&#45;&gt;Node7</title>
<path fill="none" stroke="midnightblue" d="M1114.97,-63.76C1025.56,-60.12 768.42,-47.93 545.13,-20.09"/>
<polygon fill="midnightblue" stroke="midnightblue" points="545.55,-16.62 535.19,-18.84 544.68,-23.56 545.55,-16.62"/>
</g>
<!-- Node8 -->
<g id="node8" class="node">
<title>Node8</title>
<g id="a_node8"><a xlink:title=" ">
<polygon fill="white" stroke="#bfbfbf" points="553,-0.5 553,-19.5 668,-19.5 668,-0.5 553,-0.5"/>
<text text-anchor="middle" x="610.5" y="-7.5" font-family="Helvetica,sans-Serif" font-size="10.00">NaluParsingHelper.h</text>
</a>
</g>
</g>
<!-- Node1&#45;&gt;Node8 -->
<g id="edge7" class="edge">
<title>Node1&#45;&gt;Node8</title>
<path fill="none" stroke="midnightblue" d="M1114.9,-62.34C1039.81,-56.12 848.58,-39.71 678.23,-20.16"/>
<polygon fill="midnightblue" stroke="midnightblue" points="678.41,-16.66 668.08,-18.99 677.61,-23.61 678.41,-16.66"/>
</g>
<!-- Node9 -->
<g id="node9" class="node">
<title>Node9</title>
<g id="a_node9"><a xlink:title=" ">
<polygon fill="white" stroke="#bfbfbf" points="686,-0.5 686,-19.5 869,-19.5 869,-0.5 686,-0.5"/>
<text text-anchor="middle" x="777.5" y="-7.5" font-family="Helvetica,sans-Serif" font-size="10.00">master_element/MasterElement.h</text>
</a>
</g>
</g>
<!-- Node1&#45;&gt;Node9 -->
<g id="edge8" class="edge">
<title>Node1&#45;&gt;Node9</title>
<path fill="none" stroke="midnightblue" d="M1114.99,-60.26C1055.04,-51.51 925.91,-32.66 845.9,-20.98"/>
<polygon fill="midnightblue" stroke="midnightblue" points="846.31,-17.51 835.91,-19.53 845.3,-24.43 846.31,-17.51"/>
</g>
<!-- Node10 -->
<g id="node10" class="node">
<title>Node10</title>
<g id="a_node10"><a xlink:title=" ">
<polygon fill="white" stroke="#bfbfbf" points="887.5,-0.5 887.5,-19.5 1049.5,-19.5 1049.5,-0.5 887.5,-0.5"/>
<text text-anchor="middle" x="968.5" y="-7.5" font-family="Helvetica,sans-Serif" font-size="10.00">stk_mesh/base/MetaData.hpp</text>
</a>
</g>
</g>
<!-- Node1&#45;&gt;Node10 -->
<g id="edge9" class="edge">
<title>Node1&#45;&gt;Node10</title>
<path fill="none" stroke="midnightblue" d="M1119.14,-56.44C1088.76,-47.28 1040.39,-32.69 1006.68,-22.52"/>
<polygon fill="midnightblue" stroke="midnightblue" points="1007.32,-19.05 996.73,-19.52 1005.29,-25.76 1007.32,-19.05"/>
</g>
<!-- Node11 -->
<g id="node11" class="node">
<title>Node11</title>
<g id="a_node11"><a xlink:title=" ">
<polygon fill="white" stroke="#bfbfbf" points="1068,-0.5 1068,-19.5 1227,-19.5 1227,-0.5 1068,-0.5"/>
<text text-anchor="middle" x="1147.5" y="-7.5" font-family="Helvetica,sans-Serif" font-size="10.00">stk_mesh/base/BulkData.hpp</text>
</a>
</g>
</g>
<!-- Node1&#45;&gt;Node11 -->
<g id="edge10" class="edge">
<title>Node1&#45;&gt;Node11</title>
<path fill="none" stroke="midnightblue" d="M1147.5,-56.08C1147.5,-49.01 1147.5,-38.86 1147.5,-29.99"/>
<polygon fill="midnightblue" stroke="midnightblue" points="1151,-29.75 1147.5,-19.75 1144,-29.75 1151,-29.75"/>
</g>
<!-- Node12 -->
<g id="node12" class="node">
<title>Node12</title>
<g id="a_node12"><a xlink:title=" ">
<polygon fill="white" stroke="#bfbfbf" points="1245.5,-0.5 1245.5,-19.5 1415.5,-19.5 1415.5,-0.5 1245.5,-0.5"/>
<text text-anchor="middle" x="1330.5" y="-7.5" font-family="Helvetica,sans-Serif" font-size="10.00">stk_mesh/base/GetBuckets.hpp</text>
</a>
</g>
</g>
<!-- Node1&#45;&gt;Node12 -->
<g id="edge11" class="edge">
<title>Node1&#45;&gt;Node12</title>
<path fill="none" stroke="midnightblue" d="M1176.5,-56.44C1207.68,-47.24 1257.43,-32.56 1291.91,-22.39"/>
<polygon fill="midnightblue" stroke="midnightblue" points="1293.04,-25.7 1301.64,-19.52 1291.06,-18.99 1293.04,-25.7"/>
</g>
<!-- Node13 -->
<g id="node13" class="node">
<title>Node13</title>
<g id="a_node13"><a xlink:title=" ">
<polygon fill="white" stroke="#bfbfbf" points="1433.5,-0.5 1433.5,-19.5 1585.5,-19.5 1585.5,-0.5 1433.5,-0.5"/>
<text text-anchor="middle" x="1509.5" y="-7.5" font-family="Helvetica,sans-Serif" font-size="10.00">stk_util/parallel/Parallel.hpp</text>
</a>
</g>
</g>
<!-- Node1&#45;&gt;Node13 -->
<g id="edge12" class="edge">
<title>Node1&#45;&gt;Node13</title>
<path fill="none" stroke="midnightblue" d="M1180.26,-60.11C1239.23,-51.32 1364.31,-32.66 1442.2,-21.04"/>
<polygon fill="midnightblue" stroke="midnightblue" points="1443.02,-24.46 1452.39,-19.52 1441.99,-17.53 1443.02,-24.46"/>
</g>
<!-- Node14 -->
<g id="node14" class="node">
<title>Node14</title>
<g id="a_node14"><a xlink:title=" ">
<polygon fill="white" stroke="#bfbfbf" points="1603.5,-0.5 1603.5,-19.5 1689.5,-19.5 1689.5,-0.5 1603.5,-0.5"/>
<text text-anchor="middle" x="1646.5" y="-7.5" font-family="Helvetica,sans-Serif" font-size="10.00">xfer/Transfer.h</text>
</a>
</g>
</g>
<!-- Node1&#45;&gt;Node14 -->
<g id="edge13" class="edge">
<title>Node1&#45;&gt;Node14</title>
<path fill="none" stroke="midnightblue" d="M1180.12,-62.52C1252.54,-56.83 1432.37,-41.76 1593.32,-20.07"/>
<polygon fill="midnightblue" stroke="midnightblue" points="1593.97,-23.52 1603.41,-18.7 1593.03,-16.58 1593.97,-23.52"/>
</g>
<!-- Node15 -->
<g id="node15" class="node">
<title>Node15</title>
<g id="a_node15"><a xlink:title=" ">
<polygon fill="white" stroke="#bfbfbf" points="1707.5,-0.5 1707.5,-19.5 1799.5,-19.5 1799.5,-0.5 1707.5,-0.5"/>
<text text-anchor="middle" x="1753.5" y="-7.5" font-family="Helvetica,sans-Serif" font-size="10.00">xfer/Transfers.h</text>
</a>
</g>
</g>
<!-- Node1&#45;&gt;Node15 -->
<g id="edge14" class="edge">
<title>Node1&#45;&gt;Node15</title>
<path fill="none" stroke="midnightblue" d="M1180.2,-63.25C1264.21,-58.57 1494.67,-44.48 1697.1,-20.08"/>
<polygon fill="midnightblue" stroke="midnightblue" points="1697.82,-23.52 1707.33,-18.83 1696.98,-16.57 1697.82,-23.52"/>
</g>
<!-- Node16 -->
<g id="node16" class="node">
<title>Node16</title>
<g id="a_node16"><a xlink:title=" ">
<polygon fill="white" stroke="#bfbfbf" points="1818,-0.5 1818,-19.5 1917,-19.5 1917,-0.5 1818,-0.5"/>
<text text-anchor="middle" x="1867.5" y="-7.5" font-family="Helvetica,sans-Serif" font-size="10.00">xfer/FromMesh.h</text>
</a>
</g>
</g>
<!-- Node1&#45;&gt;Node16 -->
<g id="edge15" class="edge">
<title>Node1&#45;&gt;Node16</title>
<path fill="none" stroke="midnightblue" d="M1180.26,-63.74C1275.41,-59.87 1560.19,-46.83 1807.69,-19.99"/>
<polygon fill="midnightblue" stroke="midnightblue" points="1808.41,-23.43 1817.96,-18.86 1807.64,-16.47 1808.41,-23.43"/>
</g>
<!-- Node17 -->
<g id="node17" class="node">
<title>Node17</title>
<g id="a_node17"><a xlink:title=" ">
<polygon fill="white" stroke="#bfbfbf" points="1935,-0.5 1935,-19.5 2020,-19.5 2020,-0.5 1935,-0.5"/>
<text text-anchor="middle" x="1977.5" y="-7.5" font-family="Helvetica,sans-Serif" font-size="10.00">xfer/ToMesh.h</text>
</a>
</g>
</g>
<!-- Node1&#45;&gt;Node17 -->
<g id="edge16" class="edge">
<title>Node1&#45;&gt;Node17</title>
<path fill="none" stroke="midnightblue" d="M1180.27,-64.48C1286.45,-62.5 1630.7,-53.81 1924.97,-20.05"/>
<polygon fill="midnightblue" stroke="midnightblue" points="1925.45,-23.52 1934.98,-18.89 1924.64,-16.56 1925.45,-23.52"/>
</g>
<!-- Node18 -->
<g id="node18" class="node">
<title>Node18</title>
<g id="a_node18"><a xlink:title=" ">
<polygon fill="white" stroke="#bfbfbf" points="2038,-0.5 2038,-19.5 2129,-19.5 2129,-0.5 2038,-0.5"/>
<text text-anchor="middle" x="2083.5" y="-7.5" font-family="Helvetica,sans-Serif" font-size="10.00">xfer/LinInterp.h</text>
</a>
</g>
</g>
<!-- Node1&#45;&gt;Node18 -->
<g id="edge17" class="edge">
<title>Node1&#45;&gt;Node18</title>
<path fill="none" stroke="midnightblue" d="M1180.04,-64.68C1294.78,-63.26 1691.26,-55.99 2027.94,-20.05"/>
<polygon fill="midnightblue" stroke="midnightblue" points="2028.32,-23.53 2037.89,-18.98 2027.57,-16.57 2028.32,-23.53"/>
</g>
<!-- Node19 -->
<g id="node19" class="node">
<title>Node19</title>
<g id="a_node19"><a xlink:title=" ">
<polygon fill="white" stroke="#bfbfbf" points="2147.5,-0.5 2147.5,-19.5 2335.5,-19.5 2335.5,-0.5 2147.5,-0.5"/>
<text text-anchor="middle" x="2241.5" y="-7.5" font-family="Helvetica,sans-Serif" font-size="10.00">stk_transfer/GeometricTransfer.hpp</text>
</a>
</g>
</g>
<!-- Node1&#45;&gt;Node19 -->
<g id="edge18" class="edge">
<title>Node1&#45;&gt;Node19</title>
<path fill="none" stroke="midnightblue" d="M1180.04,-64.02C1303.38,-60.19 1754.13,-45.24 2137.31,-20.05"/>
<polygon fill="midnightblue" stroke="midnightblue" points="2137.74,-23.53 2147.49,-19.38 2137.28,-16.54 2137.74,-23.53"/>
</g>
<!-- Node20 -->
<g id="node20" class="node">
<title>Node20</title>
<g id="a_node20"><a xlink:title=" ">
<polygon fill="white" stroke="#bfbfbf" points="2354,-0.5 2354,-19.5 2517,-19.5 2517,-0.5 2354,-0.5"/>
<text text-anchor="middle" x="2435.5" y="-7.5" font-family="Helvetica,sans-Serif" font-size="10.00">stk_search/SearchMethod.hpp</text>
</a>
</g>
</g>
<!-- Node1&#45;&gt;Node20 -->
<g id="edge19" class="edge">
<title>Node1&#45;&gt;Node20</title>
<path fill="none" stroke="midnightblue" d="M1180.38,-64.5C1319.73,-62.22 1875.43,-51.59 2343.66,-20.01"/>
<polygon fill="midnightblue" stroke="midnightblue" points="2343.93,-23.5 2353.67,-19.33 2343.45,-16.52 2343.93,-23.5"/>
</g>
</g>
</svg>
