<?xml version="1.0" encoding="UTF-8" standalone="no"?>
<!DOCTYPE svg PUBLIC "-//W3C//DTD SVG 1.1//EN"
 "http://www.w3.org/Graphics/SVG/1.1/DTD/svg11.dtd">
<!-- Generated by graphviz version 2.43.0 (0)
 -->
<!-- Title: TurbViscSSTLRAlg.C Pages: 1 -->
<!--zoomable 84 -->
<svg id="main" version="1.1" xmlns="http://www.w3.org/2000/svg" xmlns:xlink="http://www.w3.org/1999/xlink" xml:space="preserve" onload="init(evt)">
<style type="text/css"><![CDATA[
.edge:hover path { stroke: red; }
.edge:hover polygon { stroke: red; fill: red; }
]]></style>
<script type="text/javascript"><![CDATA[
var edges = document.getElementsByTagName('g');
if (edges && edges.length) {
  for (var i=0;i<edges.length;i++) {
    if (edges[i].id.substr(0,4)=='edge') {
      edges[i].setAttribute('class','edge');
    }
  }
}
]]></script>
        <defs>
                <circle id="rim" cx="0" cy="0" r="7"/>
                <circle id="rim2" cx="0" cy="0" r="3.5"/>
                <g id="zoomPlus">
                        <use xlink:href="#rim" fill="#404040">
                                <set attributeName="fill" to="#808080" begin="zoomplus.mouseover" end="zoomplus.mouseout"/>
                        </use>
                        <path d="M-4,0h8M0,-4v8" fill="none" stroke="white" stroke-width="1.5" pointer-events="none"/>
                </g>
                <g id="zoomMin">
                        <use xlink:href="#rim" fill="#404040">
                                <set attributeName="fill" to="#808080" begin="zoomminus.mouseover" end="zoomminus.mouseout"/>
                        </use>
                        <path d="M-4,0h8" fill="none" stroke="white" stroke-width="1.5" pointer-events="none"/>
                </g>
                <g id="dirArrow">
                        <path fill="none" stroke="white" stroke-width="1.5" d="M0,-3.0v7 M-2.5,-0.5L0,-3.0L2.5,-0.5"/>
                </g>
               <g id="resetDef">
                       <use xlink:href="#rim2" fill="#404040">
                               <set attributeName="fill" to="#808080" begin="reset.mouseover" end="reset.mouseout"/>
                       </use>
               </g>
        </defs>

<script type="text/javascript">
var viewWidth = 1224;
var viewHeight = 84;
var sectionId = 'dynsection-0';
</script>
<script xlink:href="svgpan.js"/>
<svg id="graph" class="graph">
<g id="viewport">
<title>TurbViscSSTLRAlg.C</title>
<polygon fill="white" stroke="transparent" points="-4,4 -4,-80 1219.5,-80 1219.5,4 -4,4"/>
<!-- Node1 -->
<g id="node1" class="node">
<title>Node1</title>
<g id="a_node1"><a xlink:title=" ">
<polygon fill="#bfbfbf" stroke="black" points="588,-56.5 588,-75.5 701,-75.5 701,-56.5 588,-56.5"/>
<text text-anchor="middle" x="644.5" y="-63.5" font-family="Helvetica,sans-Serif" font-size="10.00">TurbViscSSTLRAlg.C</text>
</a>
</g>
</g>
<!-- Node2 -->
<g id="node2" class="node">
<title>Node2</title>
<g id="a_node2"><a xlink:title=" ">
<polygon fill="white" stroke="#bfbfbf" points="0,-0.5 0,-19.5 191,-19.5 191,-0.5 0,-0.5"/>
<text text-anchor="middle" x="95.5" y="-7.5" font-family="Helvetica,sans-Serif" font-size="10.00">ngp_algorithms/TurbViscSSTLRAlg.h</text>
</a>
</g>
</g>
<!-- Node1&#45;&gt;Node2 -->
<g id="edge1" class="edge">
<title>Node1&#45;&gt;Node2</title>
<path fill="none" stroke="midnightblue" d="M587.82,-59.42C494.47,-50.24 307.34,-31.84 192.59,-20.55"/>
<polygon fill="midnightblue" stroke="midnightblue" points="192.7,-17.04 182.4,-19.55 192.01,-24.01 192.7,-17.04"/>
</g>
<!-- Node3 -->
<g id="node3" class="node">
<title>Node3</title>
<g id="a_node3"><a xlink:title=" ">
<polygon fill="white" stroke="#bfbfbf" points="209.5,-0.5 209.5,-19.5 347.5,-19.5 347.5,-0.5 209.5,-0.5"/>
<text text-anchor="middle" x="278.5" y="-7.5" font-family="Helvetica,sans-Serif" font-size="10.00">ngp_utils/NgpLoopUtils.h</text>
</a>
</g>
</g>
<!-- Node1&#45;&gt;Node3 -->
<g id="edge2" class="edge">
<title>Node1&#45;&gt;Node3</title>
<path fill="none" stroke="midnightblue" d="M587.71,-56.62C522.55,-47.01 415.76,-31.25 346.29,-21"/>
<polygon fill="midnightblue" stroke="midnightblue" points="346.73,-17.53 336.33,-19.53 345.71,-24.45 346.73,-17.53"/>
</g>
<!-- Node4 -->
<g id="node4" class="node">
<title>Node4</title>
<g id="a_node4"><a xlink:title=" ">
<polygon fill="white" stroke="#bfbfbf" points="365.5,-0.5 365.5,-19.5 485.5,-19.5 485.5,-0.5 365.5,-0.5"/>
<text text-anchor="middle" x="425.5" y="-7.5" font-family="Helvetica,sans-Serif" font-size="10.00">ngp_utils/NgpTypes.h</text>
</a>
</g>
</g>
<!-- Node1&#45;&gt;Node4 -->
<g id="edge3" class="edge">
<title>Node1&#45;&gt;Node4</title>
<path fill="none" stroke="midnightblue" d="M609.8,-56.44C571.92,-47.1 511.15,-32.12 469.84,-21.93"/>
<polygon fill="midnightblue" stroke="midnightblue" points="470.59,-18.51 460.04,-19.52 468.91,-25.31 470.59,-18.51"/>
</g>
<!-- Node5 -->
<g id="node5" class="node">
<title>Node5</title>
<g id="a_node5"><a xlink:title=" ">
<polygon fill="white" stroke="#bfbfbf" points="503.5,-0.5 503.5,-19.5 661.5,-19.5 661.5,-0.5 503.5,-0.5"/>
<text text-anchor="middle" x="582.5" y="-7.5" font-family="Helvetica,sans-Serif" font-size="10.00">ngp_utils/NgpFieldManager.h</text>
</a>
</g>
</g>
<!-- Node1&#45;&gt;Node5 -->
<g id="edge4" class="edge">
<title>Node1&#45;&gt;Node5</title>
<path fill="none" stroke="midnightblue" d="M634.54,-56.32C625.37,-48.34 611.56,-36.31 600.47,-26.65"/>
<polygon fill="midnightblue" stroke="midnightblue" points="602.48,-23.76 592.64,-19.83 597.88,-29.04 602.48,-23.76"/>
</g>
<!-- Node6 -->
<g id="node6" class="node">
<title>Node6</title>
<g id="a_node6"><a xlink:title=" ">
<polygon fill="white" stroke="#bfbfbf" points="679,-0.5 679,-19.5 736,-19.5 736,-0.5 679,-0.5"/>
<text text-anchor="middle" x="707.5" y="-7.5" font-family="Helvetica,sans-Serif" font-size="10.00">Realm.h</text>
</a>
</g>
</g>
<!-- Node1&#45;&gt;Node6 -->
<g id="edge5" class="edge">
<title>Node1&#45;&gt;Node6</title>
<path fill="none" stroke="midnightblue" d="M654.62,-56.32C664.03,-48.26 678.24,-36.08 689.57,-26.37"/>
<polygon fill="midnightblue" stroke="midnightblue" points="691.88,-29 697.19,-19.83 687.32,-23.68 691.88,-29"/>
</g>
<!-- Node7 -->
<g id="node7" class="node">
<title>Node7</title>
<g id="a_node7"><a xlink:title=" ">
<polygon fill="white" stroke="#bfbfbf" points="754,-0.5 754,-19.5 857,-19.5 857,-0.5 754,-0.5"/>
<text text-anchor="middle" x="805.5" y="-7.5" font-family="Helvetica,sans-Serif" font-size="10.00">utils/StkHelpers.h</text>
</a>
</g>
</g>
<!-- Node1&#45;&gt;Node7 -->
<g id="edge6" class="edge">
<title>Node1&#45;&gt;Node7</title>
<path fill="none" stroke="midnightblue" d="M670.01,-56.44C697.1,-47.36 740.09,-32.94 770.37,-22.78"/>
<polygon fill="midnightblue" stroke="midnightblue" points="771.74,-26.01 780.11,-19.52 769.51,-19.38 771.74,-26.01"/>
</g>
<!-- Node8 -->
<g id="node8" class="node">
<title>Node8</title>
<g id="a_node8"><a xlink:title=" ">
<polygon fill="white" stroke="#bfbfbf" points="875.5,-0.5 875.5,-19.5 1037.5,-19.5 1037.5,-0.5 875.5,-0.5"/>
<text text-anchor="middle" x="956.5" y="-7.5" font-family="Helvetica,sans-Serif" font-size="10.00">stk_mesh/base/MetaData.hpp</text>
</a>
</g>
</g>
<!-- Node1&#45;&gt;Node8 -->
<g id="edge7" class="edge">
<title>Node1&#45;&gt;Node8</title>
<path fill="none" stroke="midnightblue" d="M693.94,-56.44C749.16,-46.89 838.52,-31.42 897.39,-21.23"/>
<polygon fill="midnightblue" stroke="midnightblue" points="898.04,-24.67 907.29,-19.52 896.84,-17.77 898.04,-24.67"/>
</g>
<!-- Node9 -->
<g id="node9" class="node">
<title>Node9</title>
<g id="a_node9"><a xlink:title=" ">
<polygon fill="white" stroke="#bfbfbf" points="1055.5,-0.5 1055.5,-19.5 1215.5,-19.5 1215.5,-0.5 1055.5,-0.5"/>
<text text-anchor="middle" x="1135.5" y="-7.5" font-family="Helvetica,sans-Serif" font-size="10.00">stk_mesh/base/NgpMesh.hpp</text>
</a>
</g>
</g>
<!-- Node1&#45;&gt;Node9 -->
<g id="edge8" class="edge">
<title>Node1&#45;&gt;Node9</title>
<path fill="none" stroke="midnightblue" d="M701.3,-58.75C786.36,-49.4 947.5,-31.68 1047.75,-20.65"/>
<polygon fill="midnightblue" stroke="midnightblue" points="1048.3,-24.11 1057.86,-19.54 1047.54,-17.15 1048.3,-24.11"/>
</g>
</g>
</svg>
        <g id="navigator" transform="translate(0 0)" fill="#404254">
                <rect fill="#f2f5e9" fill-opacity="0.5" stroke="#606060" stroke-width=".5" x="0" y="0" width="60" height="60"/>
                <use id="zoomplus" xlink:href="#zoomPlus" x="17" y="9" onmousedown="handleZoom(evt,'in')"/>
                <use id="zoomminus" xlink:href="#zoomMin" x="42" y="9" onmousedown="handleZoom(evt,'out')"/>
                <use id="reset" xlink:href="#resetDef" x="30" y="36" onmousedown="handleReset()"/>
                <g id="arrowUp" xlink:href="#dirArrow" transform="translate(30 24)" onmousedown="handlePan(0,-1)">
                  <use xlink:href="#rim" fill="#404040">
                        <set attributeName="fill" to="#808080" begin="arrowUp.mouseover" end="arrowUp.mouseout"/>
                  </use>
                  <path fill="none" stroke="white" stroke-width="1.5" d="M0,-3.0v7 M-2.5,-0.5L0,-3.0L2.5,-0.5"/>
                </g>
                <g id="arrowRight" xlink:href="#dirArrow" transform="rotate(90) translate(36 -43)" onmousedown="handlePan(1,0)">
                  <use xlink:href="#rim" fill="#404040">
                        <set attributeName="fill" to="#808080" begin="arrowRight.mouseover" end="arrowRight.mouseout"/>
                  </use>
                  <path fill="none" stroke="white" stroke-width="1.5" d="M0,-3.0v7 M-2.5,-0.5L0,-3.0L2.5,-0.5"/>
                </g>
                <g id="arrowDown" xlink:href="#dirArrow" transform="rotate(180) translate(-30 -48)" onmousedown="handlePan(0,1)">
                  <use xlink:href="#rim" fill="#404040">
                        <set attributeName="fill" to="#808080" begin="arrowDown.mouseover" end="arrowDown.mouseout"/>
                  </use>
                  <path fill="none" stroke="white" stroke-width="1.5" d="M0,-3.0v7 M-2.5,-0.5L0,-3.0L2.5,-0.5"/>
                </g>
                <g id="arrowLeft" xlink:href="#dirArrow" transform="rotate(270) translate(-36 17)" onmousedown="handlePan(-1,0)">
                  <use xlink:href="#rim" fill="#404040">
                        <set attributeName="fill" to="#808080" begin="arrowLeft.mouseover" end="arrowLeft.mouseout"/>
                  </use>
                  <path fill="none" stroke="white" stroke-width="1.5" d="M0,-3.0v7 M-2.5,-0.5L0,-3.0L2.5,-0.5"/>
                </g>
        </g>
        <svg viewBox="0 0 15 15" width="100%" height="30px" preserveAspectRatio="xMaxYMin meet">
         <g id="arrow_out" transform="scale(0.3 0.3)">
          <a xlink:href="_turb_visc_s_s_t_l_r_alg_8_c__incl_org.svg" target="_base">
           <rect id="button" ry="5" rx="5" y="6" x="6" height="38" width="38"
                fill="#f2f5e9" fill-opacity="0.5" stroke="#606060" stroke-width="1.0"/>
           <path id="arrow"
             d="M 11.500037,31.436501 C 11.940474,20.09759 22.043105,11.32322 32.158766,21.979434 L 37.068811,17.246167 C 37.068811,17.246167 37.088388,32 37.088388,32 L 22.160133,31.978069 C 22.160133,31.978069 26.997745,27.140456 26.997745,27.140456 C 18.528582,18.264221 13.291696,25.230495 11.500037,31.436501 z"
             style="fill:#404040;"/>
          </a>
         </g>
        </svg>
</svg>
