<?xml version="1.0" encoding="UTF-8" standalone="no"?>
<!DOCTYPE svg PUBLIC "-//W3C//DTD SVG 1.1//EN"
 "http://www.w3.org/Graphics/SVG/1.1/DTD/svg11.dtd">
<!-- Generated by graphviz version 2.43.0 (0)
 -->
<!-- Title: TurbViscSmagorinskyAlgorithm.C Pages: 1 -->
<svg width="1490pt" height="84pt"
 viewBox="0.00 0.00 1490.00 84.00" xmlns="http://www.w3.org/2000/svg" xmlns:xlink="http://www.w3.org/1999/xlink">
<g id="graph0" class="graph" transform="scale(1 1) rotate(0) translate(4 80)">
<title>TurbViscSmagorinskyAlgorithm.C</title>
<polygon fill="white" stroke="transparent" points="-4,4 -4,-80 1486,-80 1486,4 -4,4"/>
<!-- Node1 -->
<g id="node1" class="node">
<title>Node1</title>
<g id="a_node1"><a xlink:title=" ">
<polygon fill="#bfbfbf" stroke="black" points="550.5,-56.5 550.5,-75.5 728.5,-75.5 728.5,-56.5 550.5,-56.5"/>
<text text-anchor="middle" x="639.5" y="-63.5" font-family="Helvetica,sans-Serif" font-size="10.00">TurbViscSmagorinskyAlgorithm.C</text>
</a>
</g>
</g>
<!-- Node2 -->
<g id="node2" class="node">
<title>Node2</title>
<g id="a_node2"><a xlink:title=" ">
<polygon fill="white" stroke="#bfbfbf" points="0,-0.5 0,-19.5 177,-19.5 177,-0.5 0,-0.5"/>
<text text-anchor="middle" x="88.5" y="-7.5" font-family="Helvetica,sans-Serif" font-size="10.00">TurbViscSmagorinskyAlgorithm.h</text>
</a>
</g>
</g>
<!-- Node1&#45;&gt;Node2 -->
<g id="edge1" class="edge">
<title>Node1&#45;&gt;Node2</title>
<path fill="none" stroke="midnightblue" d="M552.5,-56.47C452.71,-46.69 289.55,-30.7 185.68,-20.52"/>
<polygon fill="midnightblue" stroke="midnightblue" points="185.79,-17.02 175.5,-19.53 185.11,-23.99 185.79,-17.02"/>
</g>
<!-- Node3 -->
<g id="node3" class="node">
<title>Node3</title>
<g id="a_node3"><a xlink:title=" ">
<polygon fill="white" stroke="#bfbfbf" points="195.5,-0.5 195.5,-19.5 269.5,-19.5 269.5,-0.5 195.5,-0.5"/>
<text text-anchor="middle" x="232.5" y="-7.5" font-family="Helvetica,sans-Serif" font-size="10.00">Algorithm.h</text>
</a>
</g>
</g>
<!-- Node1&#45;&gt;Node3 -->
<g id="edge2" class="edge">
<title>Node1&#45;&gt;Node3</title>
<path fill="none" stroke="midnightblue" d="M558.27,-56.5C487.31,-48.7 381.33,-36.15 279.75,-20.11"/>
<polygon fill="midnightblue" stroke="midnightblue" points="280.04,-16.61 269.62,-18.49 278.94,-23.52 280.04,-16.61"/>
</g>
<!-- Node4 -->
<g id="node4" class="node">
<title>Node4</title>
<g id="a_node4"><a xlink:title=" ">
<polygon fill="white" stroke="#bfbfbf" points="287.5,-0.5 287.5,-19.5 375.5,-19.5 375.5,-0.5 287.5,-0.5"/>
<text text-anchor="middle" x="331.5" y="-7.5" font-family="Helvetica,sans-Serif" font-size="10.00">FieldTypeDef.h</text>
</a>
</g>
</g>
<!-- Node1&#45;&gt;Node4 -->
<g id="edge3" class="edge">
<title>Node1&#45;&gt;Node4</title>
<path fill="none" stroke="midnightblue" d="M590.7,-56.44C534.85,-46.65 443.65,-30.66 385.66,-20.49"/>
<polygon fill="midnightblue" stroke="midnightblue" points="386.04,-17.01 375.58,-18.73 384.83,-23.9 386.04,-17.01"/>
</g>
<!-- Node5 -->
<g id="node5" class="node">
<title>Node5</title>
<g id="a_node5"><a xlink:title=" ">
<polygon fill="white" stroke="#bfbfbf" points="394,-0.5 394,-19.5 451,-19.5 451,-0.5 394,-0.5"/>
<text text-anchor="middle" x="422.5" y="-7.5" font-family="Helvetica,sans-Serif" font-size="10.00">Realm.h</text>
</a>
</g>
</g>
<!-- Node1&#45;&gt;Node5 -->
<g id="edge4" class="edge">
<title>Node1&#45;&gt;Node5</title>
<path fill="none" stroke="midnightblue" d="M605.12,-56.44C565.89,-46.68 501.92,-30.76 461.05,-20.59"/>
<polygon fill="midnightblue" stroke="midnightblue" points="461.73,-17.16 451.18,-18.14 460.04,-23.95 461.73,-17.16"/>
</g>
<!-- Node6 -->
<g id="node6" class="node">
<title>Node6</title>
<g id="a_node6"><a xlink:title=" ">
<polygon fill="white" stroke="#bfbfbf" points="469,-0.5 469,-19.5 628,-19.5 628,-0.5 469,-0.5"/>
<text text-anchor="middle" x="548.5" y="-7.5" font-family="Helvetica,sans-Serif" font-size="10.00">stk_mesh/base/BulkData.hpp</text>
</a>
</g>
</g>
<!-- Node1&#45;&gt;Node6 -->
<g id="edge5" class="edge">
<title>Node1&#45;&gt;Node6</title>
<path fill="none" stroke="midnightblue" d="M624.88,-56.32C610.55,-47.82 588.49,-34.73 571.75,-24.8"/>
<polygon fill="midnightblue" stroke="midnightblue" points="573.47,-21.75 563.08,-19.65 569.9,-27.77 573.47,-21.75"/>
</g>
<!-- Node7 -->
<g id="node7" class="node">
<title>Node7</title>
<g id="a_node7"><a xlink:title=" ">
<polygon fill="white" stroke="#bfbfbf" points="646.5,-0.5 646.5,-19.5 816.5,-19.5 816.5,-0.5 646.5,-0.5"/>
<text text-anchor="middle" x="731.5" y="-7.5" font-family="Helvetica,sans-Serif" font-size="10.00">stk_mesh/base/GetBuckets.hpp</text>
</a>
</g>
</g>
<!-- Node1&#45;&gt;Node7 -->
<g id="edge6" class="edge">
<title>Node1&#45;&gt;Node7</title>
<path fill="none" stroke="midnightblue" d="M654.28,-56.32C668.77,-47.82 691.07,-34.73 707.99,-24.8"/>
<polygon fill="midnightblue" stroke="midnightblue" points="709.9,-27.74 716.76,-19.65 706.36,-21.7 709.9,-27.74"/>
</g>
<!-- Node8 -->
<g id="node8" class="node">
<title>Node8</title>
<g id="a_node8"><a xlink:title=" ">
<polygon fill="white" stroke="#bfbfbf" points="834.5,-0.5 834.5,-19.5 996.5,-19.5 996.5,-0.5 834.5,-0.5"/>
<text text-anchor="middle" x="915.5" y="-7.5" font-family="Helvetica,sans-Serif" font-size="10.00">stk_mesh/base/MetaData.hpp</text>
</a>
</g>
</g>
<!-- Node1&#45;&gt;Node8 -->
<g id="edge7" class="edge">
<title>Node1&#45;&gt;Node8</title>
<path fill="none" stroke="midnightblue" d="M683.23,-56.44C731.68,-46.96 809.83,-31.67 861.92,-21.48"/>
<polygon fill="midnightblue" stroke="midnightblue" points="862.83,-24.87 871.97,-19.52 861.49,-18 862.83,-24.87"/>
</g>
<!-- Node9 -->
<g id="node9" class="node">
<title>Node9</title>
<g id="a_node9"><a xlink:title=" ">
<polygon fill="white" stroke="#bfbfbf" points="1015,-0.5 1015,-19.5 1148,-19.5 1148,-0.5 1015,-0.5"/>
<text text-anchor="middle" x="1081.5" y="-7.5" font-family="Helvetica,sans-Serif" font-size="10.00">stk_mesh/base/Part.hpp</text>
</a>
</g>
</g>
<!-- Node1&#45;&gt;Node9 -->
<g id="edge8" class="edge">
<title>Node1&#45;&gt;Node9</title>
<path fill="none" stroke="midnightblue" d="M709.54,-56.44C789.92,-46.62 921.35,-30.57 1004.53,-20.4"/>
<polygon fill="midnightblue" stroke="midnightblue" points="1005.18,-23.85 1014.68,-19.16 1004.33,-16.9 1005.18,-23.85"/>
</g>
<!-- Node10 -->
<g id="node10" class="node">
<title>Node10</title>
<g id="a_node10"><a xlink:title=" ">
<polygon fill="white" stroke="#bfbfbf" points="1166,-0.5 1166,-19.5 1327,-19.5 1327,-0.5 1166,-0.5"/>
<text text-anchor="middle" x="1246.5" y="-7.5" font-family="Helvetica,sans-Serif" font-size="10.00">stk_mesh/base/FieldBase.hpp</text>
</a>
</g>
</g>
<!-- Node1&#45;&gt;Node10 -->
<g id="edge9" class="edge">
<title>Node1&#45;&gt;Node10</title>
<path fill="none" stroke="midnightblue" d="M728.91,-57.62C829.96,-49.19 999.7,-34.76 1155.72,-20.16"/>
<polygon fill="midnightblue" stroke="midnightblue" points="1156.35,-23.61 1165.97,-19.19 1155.69,-16.64 1156.35,-23.61"/>
</g>
<!-- Node11 -->
<g id="node11" class="node">
<title>Node11</title>
<g id="a_node11"><a xlink:title=" ">
<polygon fill="white" stroke="#bfbfbf" points="1345,-0.5 1345,-19.5 1482,-19.5 1482,-0.5 1345,-0.5"/>
<text text-anchor="middle" x="1413.5" y="-7.5" font-family="Helvetica,sans-Serif" font-size="10.00">stk_mesh/base/Field.hpp</text>
</a>
</g>
</g>
<!-- Node1&#45;&gt;Node11 -->
<g id="edge10" class="edge">
<title>Node1&#45;&gt;Node11</title>
<path fill="none" stroke="midnightblue" d="M728.74,-60.72C859.42,-54.13 1110.77,-40.19 1334.38,-20.15"/>
<polygon fill="midnightblue" stroke="midnightblue" points="1335.03,-23.61 1344.67,-19.22 1334.4,-16.64 1335.03,-23.61"/>
</g>
</g>
</svg>
