<?xml version="1.0" encoding="UTF-8" standalone="no"?>
<!DOCTYPE svg PUBLIC "-//W3C//DTD SVG 1.1//EN"
 "http://www.w3.org/Graphics/SVG/1.1/DTD/svg11.dtd">
<!-- Generated by graphviz version 2.43.0 (0)
 -->
<!-- Title: TurbViscKEAlg.C Pages: 1 -->
<svg width="1206pt" height="84pt"
 viewBox="0.00 0.00 1205.50 84.00" xmlns="http://www.w3.org/2000/svg" xmlns:xlink="http://www.w3.org/1999/xlink">
<g id="graph0" class="graph" transform="scale(1 1) rotate(0) translate(4 80)">
<title>TurbViscKEAlg.C</title>
<polygon fill="white" stroke="transparent" points="-4,4 -4,-80 1201.5,-80 1201.5,4 -4,4"/>
<!-- Node1 -->
<g id="node1" class="node">
<title>Node1</title>
<g id="a_node1"><a xlink:title=" ">
<polygon fill="#bfbfbf" stroke="black" points="579,-56.5 579,-75.5 674,-75.5 674,-56.5 579,-56.5"/>
<text text-anchor="middle" x="626.5" y="-63.5" font-family="Helvetica,sans-Serif" font-size="10.00">TurbViscKEAlg.C</text>
</a>
</g>
</g>
<!-- Node2 -->
<g id="node2" class="node">
<title>Node2</title>
<g id="a_node2"><a xlink:title=" ">
<polygon fill="white" stroke="#bfbfbf" points="0,-0.5 0,-19.5 173,-19.5 173,-0.5 0,-0.5"/>
<text text-anchor="middle" x="86.5" y="-7.5" font-family="Helvetica,sans-Serif" font-size="10.00">ngp_algorithms/TurbViscKEAlg.h</text>
</a>
</g>
</g>
<!-- Node1&#45;&gt;Node2 -->
<g id="edge1" class="edge">
<title>Node1&#45;&gt;Node2</title>
<path fill="none" stroke="midnightblue" d="M578.58,-60.21C489.67,-51.32 297.66,-32.12 181.53,-20.5"/>
<polygon fill="midnightblue" stroke="midnightblue" points="181.87,-17.02 171.57,-19.51 181.17,-23.98 181.87,-17.02"/>
</g>
<!-- Node3 -->
<g id="node3" class="node">
<title>Node3</title>
<g id="a_node3"><a xlink:title=" ">
<polygon fill="white" stroke="#bfbfbf" points="191.5,-0.5 191.5,-19.5 329.5,-19.5 329.5,-0.5 191.5,-0.5"/>
<text text-anchor="middle" x="260.5" y="-7.5" font-family="Helvetica,sans-Serif" font-size="10.00">ngp_utils/NgpLoopUtils.h</text>
</a>
</g>
</g>
<!-- Node1&#45;&gt;Node3 -->
<g id="edge2" class="edge">
<title>Node1&#45;&gt;Node3</title>
<path fill="none" stroke="midnightblue" d="M578.65,-57.94C514.71,-48.51 401.04,-31.74 328.3,-21"/>
<polygon fill="midnightblue" stroke="midnightblue" points="328.72,-17.53 318.31,-19.53 327.7,-24.45 328.72,-17.53"/>
</g>
<!-- Node4 -->
<g id="node4" class="node">
<title>Node4</title>
<g id="a_node4"><a xlink:title=" ">
<polygon fill="white" stroke="#bfbfbf" points="347.5,-0.5 347.5,-19.5 467.5,-19.5 467.5,-0.5 347.5,-0.5"/>
<text text-anchor="middle" x="407.5" y="-7.5" font-family="Helvetica,sans-Serif" font-size="10.00">ngp_utils/NgpTypes.h</text>
</a>
</g>
</g>
<!-- Node1&#45;&gt;Node4 -->
<g id="edge3" class="edge">
<title>Node1&#45;&gt;Node4</title>
<path fill="none" stroke="midnightblue" d="M591.8,-56.44C553.92,-47.1 493.15,-32.12 451.84,-21.93"/>
<polygon fill="midnightblue" stroke="midnightblue" points="452.59,-18.51 442.04,-19.52 450.91,-25.31 452.59,-18.51"/>
</g>
<!-- Node5 -->
<g id="node5" class="node">
<title>Node5</title>
<g id="a_node5"><a xlink:title=" ">
<polygon fill="white" stroke="#bfbfbf" points="485.5,-0.5 485.5,-19.5 643.5,-19.5 643.5,-0.5 485.5,-0.5"/>
<text text-anchor="middle" x="564.5" y="-7.5" font-family="Helvetica,sans-Serif" font-size="10.00">ngp_utils/NgpFieldManager.h</text>
</a>
</g>
</g>
<!-- Node1&#45;&gt;Node5 -->
<g id="edge4" class="edge">
<title>Node1&#45;&gt;Node5</title>
<path fill="none" stroke="midnightblue" d="M616.54,-56.32C607.37,-48.34 593.56,-36.31 582.47,-26.65"/>
<polygon fill="midnightblue" stroke="midnightblue" points="584.48,-23.76 574.64,-19.83 579.88,-29.04 584.48,-23.76"/>
</g>
<!-- Node6 -->
<g id="node6" class="node">
<title>Node6</title>
<g id="a_node6"><a xlink:title=" ">
<polygon fill="white" stroke="#bfbfbf" points="661,-0.5 661,-19.5 718,-19.5 718,-0.5 661,-0.5"/>
<text text-anchor="middle" x="689.5" y="-7.5" font-family="Helvetica,sans-Serif" font-size="10.00">Realm.h</text>
</a>
</g>
</g>
<!-- Node1&#45;&gt;Node6 -->
<g id="edge5" class="edge">
<title>Node1&#45;&gt;Node6</title>
<path fill="none" stroke="midnightblue" d="M636.62,-56.32C646.03,-48.26 660.24,-36.08 671.57,-26.37"/>
<polygon fill="midnightblue" stroke="midnightblue" points="673.88,-29 679.19,-19.83 669.32,-23.68 673.88,-29"/>
</g>
<!-- Node7 -->
<g id="node7" class="node">
<title>Node7</title>
<g id="a_node7"><a xlink:title=" ">
<polygon fill="white" stroke="#bfbfbf" points="736,-0.5 736,-19.5 839,-19.5 839,-0.5 736,-0.5"/>
<text text-anchor="middle" x="787.5" y="-7.5" font-family="Helvetica,sans-Serif" font-size="10.00">utils/StkHelpers.h</text>
</a>
</g>
</g>
<!-- Node1&#45;&gt;Node7 -->
<g id="edge6" class="edge">
<title>Node1&#45;&gt;Node7</title>
<path fill="none" stroke="midnightblue" d="M652.01,-56.44C679.1,-47.36 722.09,-32.94 752.37,-22.78"/>
<polygon fill="midnightblue" stroke="midnightblue" points="753.74,-26.01 762.11,-19.52 751.51,-19.38 753.74,-26.01"/>
</g>
<!-- Node8 -->
<g id="node8" class="node">
<title>Node8</title>
<g id="a_node8"><a xlink:title=" ">
<polygon fill="white" stroke="#bfbfbf" points="857.5,-0.5 857.5,-19.5 1019.5,-19.5 1019.5,-0.5 857.5,-0.5"/>
<text text-anchor="middle" x="938.5" y="-7.5" font-family="Helvetica,sans-Serif" font-size="10.00">stk_mesh/base/MetaData.hpp</text>
</a>
</g>
</g>
<!-- Node1&#45;&gt;Node8 -->
<g id="edge7" class="edge">
<title>Node1&#45;&gt;Node8</title>
<path fill="none" stroke="midnightblue" d="M674.23,-56.74C729.25,-47.22 819.75,-31.55 879.23,-21.26"/>
<polygon fill="midnightblue" stroke="midnightblue" points="879.98,-24.68 889.23,-19.53 878.78,-17.78 879.98,-24.68"/>
</g>
<!-- Node9 -->
<g id="node9" class="node">
<title>Node9</title>
<g id="a_node9"><a xlink:title=" ">
<polygon fill="white" stroke="#bfbfbf" points="1037.5,-0.5 1037.5,-19.5 1197.5,-19.5 1197.5,-0.5 1037.5,-0.5"/>
<text text-anchor="middle" x="1117.5" y="-7.5" font-family="Helvetica,sans-Serif" font-size="10.00">stk_mesh/base/NgpMesh.hpp</text>
</a>
</g>
</g>
<!-- Node1&#45;&gt;Node9 -->
<g id="edge8" class="edge">
<title>Node1&#45;&gt;Node9</title>
<path fill="none" stroke="midnightblue" d="M674.03,-59.77C756.13,-50.74 925.7,-32.09 1029.73,-20.65"/>
<polygon fill="midnightblue" stroke="midnightblue" points="1030.34,-24.11 1039.9,-19.53 1029.58,-17.15 1030.34,-24.11"/>
</g>
</g>
</svg>
