<?xml version="1.0" encoding="UTF-8" standalone="no"?>
<!DOCTYPE svg PUBLIC "-//W3C//DTD SVG 1.1//EN"
 "http://www.w3.org/Graphics/SVG/1.1/DTD/svg11.dtd">
<!-- Generated by graphviz version 2.43.0 (0)
 -->
<!-- Title: UpdateOversetFringeAlgorithmDriver.C Pages: 1 -->
<svg width="803pt" height="106pt"
 viewBox="0.00 0.00 802.50 106.00" xmlns="http://www.w3.org/2000/svg" xmlns:xlink="http://www.w3.org/1999/xlink">
<g id="graph0" class="graph" transform="scale(1 1) rotate(0) translate(4 102)">
<title>UpdateOversetFringeAlgorithmDriver.C</title>
<polygon fill="white" stroke="transparent" points="-4,4 -4,-102 798.5,-102 798.5,4 -4,4"/>
<!-- Node1 -->
<g id="node1" class="node">
<title>Node1</title>
<g id="a_node1"><a xlink:title=" ">
<polygon fill="#bfbfbf" stroke="black" points="264,-67.5 264,-97.5 432,-97.5 432,-67.5 264,-67.5"/>
<text text-anchor="start" x="272" y="-85.5" font-family="Helvetica,sans-Serif" font-size="10.00">UpdateOversetFringeAlgorithm</text>
<text text-anchor="middle" x="348" y="-74.5" font-family="Helvetica,sans-Serif" font-size="10.00">Driver.C</text>
</a>
</g>
</g>
<!-- Node2 -->
<g id="node2" class="node">
<title>Node2</title>
<g id="a_node2"><a xlink:title=" ">
<polygon fill="white" stroke="#bfbfbf" points="0,-0.5 0,-30.5 160,-30.5 160,-0.5 0,-0.5"/>
<text text-anchor="start" x="8" y="-18.5" font-family="Helvetica,sans-Serif" font-size="10.00">overset/UpdateOversetFringe</text>
<text text-anchor="middle" x="80" y="-7.5" font-family="Helvetica,sans-Serif" font-size="10.00">AlgorithmDriver.h</text>
</a>
</g>
</g>
<!-- Node1&#45;&gt;Node2 -->
<g id="edge1" class="edge">
<title>Node1&#45;&gt;Node2</title>
<path fill="none" stroke="midnightblue" d="M290.18,-67.48C248.41,-57.34 191.84,-43.63 147.92,-32.97"/>
<polygon fill="midnightblue" stroke="midnightblue" points="148.72,-29.57 138.18,-30.61 147.07,-36.37 148.72,-29.57"/>
</g>
<!-- Node3 -->
<g id="node3" class="node">
<title>Node3</title>
<g id="a_node3"><a xlink:title=" ">
<polygon fill="white" stroke="#bfbfbf" points="178.5,-6 178.5,-25 235.5,-25 235.5,-6 178.5,-6"/>
<text text-anchor="middle" x="207" y="-13" font-family="Helvetica,sans-Serif" font-size="10.00">Realm.h</text>
</a>
</g>
</g>
<!-- Node1&#45;&gt;Node3 -->
<g id="edge2" class="edge">
<title>Node1&#45;&gt;Node3</title>
<path fill="none" stroke="midnightblue" d="M317.41,-67.4C292.77,-56.04 258.45,-40.22 234.64,-29.24"/>
<polygon fill="midnightblue" stroke="midnightblue" points="236,-26.02 225.45,-25.01 233.07,-32.37 236,-26.02"/>
</g>
<!-- Node4 -->
<g id="node4" class="node">
<title>Node4</title>
<g id="a_node4"><a xlink:title=" ">
<polygon fill="white" stroke="#bfbfbf" points="253.5,-6 253.5,-25 318.5,-25 318.5,-6 253.5,-6"/>
<text text-anchor="middle" x="286" y="-13" font-family="Helvetica,sans-Serif" font-size="10.00">NaluEnv.h</text>
</a>
</g>
</g>
<!-- Node1&#45;&gt;Node4 -->
<g id="edge3" class="edge">
<title>Node1&#45;&gt;Node4</title>
<path fill="none" stroke="midnightblue" d="M334.55,-67.4C324.78,-57.16 311.56,-43.3 301.38,-32.62"/>
<polygon fill="midnightblue" stroke="midnightblue" points="303.73,-30.01 294.29,-25.19 298.66,-34.85 303.73,-30.01"/>
</g>
<!-- Node5 -->
<g id="node5" class="node">
<title>Node5</title>
<g id="a_node5"><a xlink:title=" ">
<polygon fill="white" stroke="#bfbfbf" points="337,-6 337,-25 483,-25 483,-6 337,-6"/>
<text text-anchor="middle" x="410" y="-13" font-family="Helvetica,sans-Serif" font-size="10.00">overset/OversetManager.h</text>
</a>
</g>
</g>
<!-- Node1&#45;&gt;Node5 -->
<g id="edge4" class="edge">
<title>Node1&#45;&gt;Node5</title>
<path fill="none" stroke="midnightblue" d="M361.45,-67.4C371.22,-57.16 384.44,-43.3 394.62,-32.62"/>
<polygon fill="midnightblue" stroke="midnightblue" points="397.34,-34.85 401.71,-25.19 392.27,-30.01 397.34,-34.85"/>
</g>
<!-- Node6 -->
<g id="node6" class="node">
<title>Node6</title>
<g id="a_node6"><a xlink:title=" ">
<polygon fill="white" stroke="#bfbfbf" points="501,-6 501,-25 639,-25 639,-6 501,-6"/>
<text text-anchor="middle" x="570" y="-13" font-family="Helvetica,sans-Serif" font-size="10.00">ngp_utils/NgpFieldUtils.h</text>
</a>
</g>
</g>
<!-- Node1&#45;&gt;Node6 -->
<g id="edge5" class="edge">
<title>Node1&#45;&gt;Node6</title>
<path fill="none" stroke="midnightblue" d="M395.9,-67.48C436.21,-55.67 493.15,-39 530.8,-27.98"/>
<polygon fill="midnightblue" stroke="midnightblue" points="532.26,-31.2 540.87,-25.03 530.29,-24.48 532.26,-31.2"/>
</g>
<!-- Node7 -->
<g id="node7" class="node">
<title>Node7</title>
<g id="a_node7"><a xlink:title=" ">
<polygon fill="white" stroke="#bfbfbf" points="657.5,-6 657.5,-25 794.5,-25 794.5,-6 657.5,-6"/>
<text text-anchor="middle" x="726" y="-13" font-family="Helvetica,sans-Serif" font-size="10.00">stk_mesh/base/Field.hpp</text>
</a>
</g>
</g>
<!-- Node1&#45;&gt;Node7 -->
<g id="edge6" class="edge">
<title>Node1&#45;&gt;Node7</title>
<path fill="none" stroke="midnightblue" d="M432.12,-67.73C492.29,-57.79 575.19,-43.89 648,-31 655.36,-29.7 663.1,-28.3 670.73,-26.9"/>
<polygon fill="midnightblue" stroke="midnightblue" points="671.45,-30.32 680.65,-25.06 670.19,-23.44 671.45,-30.32"/>
</g>
</g>
</svg>
