<?xml version="1.0" encoding="UTF-8" standalone="no"?>
<!DOCTYPE svg PUBLIC "-//W3C//DTD SVG 1.1//EN"
 "http://www.w3.org/Graphics/SVG/1.1/DTD/svg11.dtd">
<!-- Generated by graphviz version 2.43.0 (0)
 -->
<!-- Title: VOFMassBDFNodeKernel.C Pages: 1 -->
<svg width="850pt" height="95pt"
 viewBox="0.00 0.00 850.00 95.00" xmlns="http://www.w3.org/2000/svg" xmlns:xlink="http://www.w3.org/1999/xlink">
<g id="graph0" class="graph" transform="scale(1 1) rotate(0) translate(4 91)">
<title>VOFMassBDFNodeKernel.C</title>
<polygon fill="white" stroke="transparent" points="-4,4 -4,-91 846,-91 846,4 -4,4"/>
<!-- Node1 -->
<g id="node1" class="node">
<title>Node1</title>
<g id="a_node1"><a xlink:title=" ">
<polygon fill="#bfbfbf" stroke="black" points="361.5,-67.5 361.5,-86.5 510.5,-86.5 510.5,-67.5 361.5,-67.5"/>
<text text-anchor="middle" x="436" y="-74.5" font-family="Helvetica,sans-Serif" font-size="10.00">VOFMassBDFNodeKernel.C</text>
</a>
</g>
</g>
<!-- Node2 -->
<g id="node2" class="node">
<title>Node2</title>
<g id="a_node2"><a xlink:title=" ">
<polygon fill="white" stroke="#bfbfbf" points="0,-0.5 0,-30.5 176,-30.5 176,-0.5 0,-0.5"/>
<text text-anchor="start" x="8" y="-18.5" font-family="Helvetica,sans-Serif" font-size="10.00">node_kernels/VOFMassBDFNode</text>
<text text-anchor="middle" x="88" y="-7.5" font-family="Helvetica,sans-Serif" font-size="10.00">Kernel.h</text>
</a>
</g>
</g>
<!-- Node1&#45;&gt;Node2 -->
<g id="edge1" class="edge">
<title>Node1&#45;&gt;Node2</title>
<path fill="none" stroke="midnightblue" d="M386.14,-67.48C332.51,-58.31 246.05,-43.52 180.02,-32.23"/>
<polygon fill="midnightblue" stroke="midnightblue" points="180.46,-28.76 170.02,-30.52 179.28,-35.66 180.46,-28.76"/>
</g>
<!-- Node3 -->
<g id="node3" class="node">
<title>Node3</title>
<g id="a_node3"><a xlink:title=" ">
<polygon fill="white" stroke="#bfbfbf" points="194.5,-6 194.5,-25 251.5,-25 251.5,-6 194.5,-6"/>
<text text-anchor="middle" x="223" y="-13" font-family="Helvetica,sans-Serif" font-size="10.00">Realm.h</text>
</a>
</g>
</g>
<!-- Node1&#45;&gt;Node3 -->
<g id="edge2" class="edge">
<title>Node1&#45;&gt;Node3</title>
<path fill="none" stroke="midnightblue" d="M397.76,-67.48C362.07,-59.22 307.48,-45.79 261,-31 258.59,-30.23 256.1,-29.39 253.62,-28.52"/>
<polygon fill="midnightblue" stroke="midnightblue" points="254.75,-25.21 244.15,-25.06 252.34,-31.78 254.75,-25.21"/>
</g>
<!-- Node4 -->
<g id="node4" class="node">
<title>Node4</title>
<g id="a_node4"><a xlink:title=" ">
<polygon fill="white" stroke="#bfbfbf" points="270,-6 270,-25 432,-25 432,-6 270,-6"/>
<text text-anchor="middle" x="351" y="-13" font-family="Helvetica,sans-Serif" font-size="10.00">stk_mesh/base/MetaData.hpp</text>
</a>
</g>
</g>
<!-- Node1&#45;&gt;Node4 -->
<g id="edge3" class="edge">
<title>Node1&#45;&gt;Node4</title>
<path fill="none" stroke="midnightblue" d="M423.82,-67.48C410.19,-57.93 387.87,-42.31 371.53,-30.87"/>
<polygon fill="midnightblue" stroke="midnightblue" points="373.36,-27.88 363.16,-25.01 369.34,-33.61 373.36,-27.88"/>
</g>
<!-- Node5 -->
<g id="node5" class="node">
<title>Node5</title>
<g id="a_node5"><a xlink:title=" ">
<polygon fill="white" stroke="#bfbfbf" points="450,-6 450,-25 592,-25 592,-6 450,-6"/>
<text text-anchor="middle" x="521" y="-13" font-family="Helvetica,sans-Serif" font-size="10.00">stk_mesh/base/Types.hpp</text>
</a>
</g>
</g>
<!-- Node1&#45;&gt;Node5 -->
<g id="edge4" class="edge">
<title>Node1&#45;&gt;Node5</title>
<path fill="none" stroke="midnightblue" d="M448.18,-67.48C461.81,-57.93 484.13,-42.31 500.47,-30.87"/>
<polygon fill="midnightblue" stroke="midnightblue" points="502.66,-33.61 508.84,-25.01 498.64,-27.88 502.66,-33.61"/>
</g>
<!-- Node6 -->
<g id="node6" class="node">
<title>Node6</title>
<g id="a_node6"><a xlink:title=" ">
<polygon fill="white" stroke="#bfbfbf" points="610.5,-6 610.5,-25 713.5,-25 713.5,-6 610.5,-6"/>
<text text-anchor="middle" x="662" y="-13" font-family="Helvetica,sans-Serif" font-size="10.00">utils/StkHelpers.h</text>
</a>
</g>
</g>
<!-- Node1&#45;&gt;Node6 -->
<g id="edge5" class="edge">
<title>Node1&#45;&gt;Node6</title>
<path fill="none" stroke="midnightblue" d="M468.38,-67.48C508.24,-56.98 576.02,-39.14 619.89,-27.59"/>
<polygon fill="midnightblue" stroke="midnightblue" points="620.9,-30.94 629.68,-25.01 619.12,-24.17 620.9,-30.94"/>
</g>
<!-- Node7 -->
<g id="node7" class="node">
<title>Node7</title>
<g id="a_node7"><a xlink:title=" ">
<polygon fill="white" stroke="#bfbfbf" points="732,-6 732,-25 842,-25 842,-6 732,-6"/>
<text text-anchor="middle" x="787" y="-13" font-family="Helvetica,sans-Serif" font-size="10.00">utils/FieldHelpers.h</text>
</a>
</g>
</g>
<!-- Node1&#45;&gt;Node7 -->
<g id="edge6" class="edge">
<title>Node1&#45;&gt;Node7</title>
<path fill="none" stroke="midnightblue" d="M498.07,-67.5C556.34,-59.23 645.85,-45.77 723,-31 728.88,-29.87 735.04,-28.6 741.12,-27.29"/>
<polygon fill="midnightblue" stroke="midnightblue" points="742.2,-30.63 751.21,-25.06 740.69,-23.8 742.2,-30.63"/>
</g>
</g>
</svg>
