<?xml version="1.0" encoding="UTF-8" standalone="no"?>
<!DOCTYPE svg PUBLIC "-//W3C//DTD SVG 1.1//EN"
 "http://www.w3.org/Graphics/SVG/1.1/DTD/svg11.dtd">
<!-- Generated by graphviz version 2.43.0 (0)
 -->
<!-- Title: VariableDensityNonIsoMomentumSrcNodeSuppAlg.C Pages: 1 -->
<svg width="1339pt" height="106pt"
 viewBox="0.00 0.00 1338.50 106.00" xmlns="http://www.w3.org/2000/svg" xmlns:xlink="http://www.w3.org/1999/xlink">
<g id="graph0" class="graph" transform="scale(1 1) rotate(0) translate(4 102)">
<title>VariableDensityNonIsoMomentumSrcNodeSuppAlg.C</title>
<polygon fill="white" stroke="transparent" points="-4,4 -4,-102 1334.5,-102 1334.5,4 -4,4"/>
<!-- Node1 -->
<g id="node1" class="node">
<title>Node1</title>
<g id="a_node1"><a xlink:title=" ">
<polygon fill="#bfbfbf" stroke="black" points="515,-67.5 515,-97.5 699,-97.5 699,-67.5 515,-67.5"/>
<text text-anchor="start" x="523" y="-85.5" font-family="Helvetica,sans-Serif" font-size="10.00">VariableDensityNonIsoMomentum</text>
<text text-anchor="middle" x="607" y="-74.5" font-family="Helvetica,sans-Serif" font-size="10.00">SrcNodeSuppAlg.C</text>
</a>
</g>
</g>
<!-- Node2 -->
<g id="node2" class="node">
<title>Node2</title>
<g id="a_node2"><a xlink:title=" ">
<polygon fill="white" stroke="#bfbfbf" points="0,-0.5 0,-30.5 196,-30.5 196,-0.5 0,-0.5"/>
<text text-anchor="start" x="8" y="-18.5" font-family="Helvetica,sans-Serif" font-size="10.00">user_functions/VariableDensity</text>
<text text-anchor="middle" x="98" y="-7.5" font-family="Helvetica,sans-Serif" font-size="10.00">NonIsoMomentumSrcNodeSuppAlg.h</text>
</a>
</g>
</g>
<!-- Node1&#45;&gt;Node2 -->
<g id="edge1" class="edge">
<title>Node1&#45;&gt;Node2</title>
<path fill="none" stroke="midnightblue" d="M514.76,-70.17C435.65,-60.4 318.31,-45.75 206.36,-31.17"/>
<polygon fill="midnightblue" stroke="midnightblue" points="206.61,-27.67 196.24,-29.85 205.71,-34.62 206.61,-27.67"/>
</g>
<!-- Node3 -->
<g id="node3" class="node">
<title>Node3</title>
<g id="a_node3"><a xlink:title=" ">
<polygon fill="white" stroke="#bfbfbf" points="214.5,-6 214.5,-25 355.5,-25 355.5,-6 214.5,-6"/>
<text text-anchor="middle" x="285" y="-13" font-family="Helvetica,sans-Serif" font-size="10.00">SupplementalAlgorithm.h</text>
</a>
</g>
</g>
<!-- Node1&#45;&gt;Node3 -->
<g id="edge2" class="edge">
<title>Node1&#45;&gt;Node3</title>
<path fill="none" stroke="midnightblue" d="M537.53,-67.48C477.43,-55.34 391.86,-38.07 337.38,-27.07"/>
<polygon fill="midnightblue" stroke="midnightblue" points="337.74,-23.58 327.25,-25.03 336.36,-30.44 337.74,-23.58"/>
</g>
<!-- Node4 -->
<g id="node4" class="node">
<title>Node4</title>
<g id="a_node4"><a xlink:title=" ">
<polygon fill="white" stroke="#bfbfbf" points="374,-6 374,-25 462,-25 462,-6 374,-6"/>
<text text-anchor="middle" x="418" y="-13" font-family="Helvetica,sans-Serif" font-size="10.00">FieldTypeDef.h</text>
</a>
</g>
</g>
<!-- Node1&#45;&gt;Node4 -->
<g id="edge3" class="edge">
<title>Node1&#45;&gt;Node4</title>
<path fill="none" stroke="midnightblue" d="M565.99,-67.4C532.09,-55.74 484.51,-39.37 452.53,-28.38"/>
<polygon fill="midnightblue" stroke="midnightblue" points="453.33,-24.95 442.74,-25.01 451.05,-31.57 453.33,-24.95"/>
</g>
<!-- Node5 -->
<g id="node5" class="node">
<title>Node5</title>
<g id="a_node5"><a xlink:title=" ">
<polygon fill="white" stroke="#bfbfbf" points="480.5,-6 480.5,-25 537.5,-25 537.5,-6 480.5,-6"/>
<text text-anchor="middle" x="509" y="-13" font-family="Helvetica,sans-Serif" font-size="10.00">Realm.h</text>
</a>
</g>
</g>
<!-- Node1&#45;&gt;Node5 -->
<g id="edge4" class="edge">
<title>Node1&#45;&gt;Node5</title>
<path fill="none" stroke="midnightblue" d="M585.74,-67.4C569.3,-56.5 546.66,-41.48 530.23,-30.58"/>
<polygon fill="midnightblue" stroke="midnightblue" points="532.09,-27.62 521.83,-25.01 528.22,-33.45 532.09,-27.62"/>
</g>
<!-- Node6 -->
<g id="node6" class="node">
<title>Node6</title>
<g id="a_node6"><a xlink:title=" ">
<polygon fill="white" stroke="#bfbfbf" points="555.5,-6 555.5,-25 658.5,-25 658.5,-6 555.5,-6"/>
<text text-anchor="middle" x="607" y="-13" font-family="Helvetica,sans-Serif" font-size="10.00">SolutionOptions.h</text>
</a>
</g>
</g>
<!-- Node1&#45;&gt;Node6 -->
<g id="edge5" class="edge">
<title>Node1&#45;&gt;Node6</title>
<path fill="none" stroke="midnightblue" d="M607,-67.4C607,-58.06 607,-45.71 607,-35.52"/>
<polygon fill="midnightblue" stroke="midnightblue" points="610.5,-35.19 607,-25.19 603.5,-35.19 610.5,-35.19"/>
</g>
<!-- Node7 -->
<g id="node7" class="node">
<title>Node7</title>
<g id="a_node7"><a xlink:title=" ">
<polygon fill="white" stroke="#bfbfbf" points="676.5,-6 676.5,-25 817.5,-25 817.5,-6 676.5,-6"/>
<text text-anchor="middle" x="747" y="-13" font-family="Helvetica,sans-Serif" font-size="10.00">stk_mesh/base/Entity.hpp</text>
</a>
</g>
</g>
<!-- Node1&#45;&gt;Node7 -->
<g id="edge6" class="edge">
<title>Node1&#45;&gt;Node7</title>
<path fill="none" stroke="midnightblue" d="M637.38,-67.4C661.83,-56.04 695.91,-40.22 719.55,-29.24"/>
<polygon fill="midnightblue" stroke="midnightblue" points="721.08,-32.39 728.68,-25.01 718.13,-26.04 721.08,-32.39"/>
</g>
<!-- Node8 -->
<g id="node8" class="node">
<title>Node8</title>
<g id="a_node8"><a xlink:title=" ">
<polygon fill="white" stroke="#bfbfbf" points="836,-6 836,-25 998,-25 998,-6 836,-6"/>
<text text-anchor="middle" x="917" y="-13" font-family="Helvetica,sans-Serif" font-size="10.00">stk_mesh/base/MetaData.hpp</text>
</a>
</g>
</g>
<!-- Node1&#45;&gt;Node8 -->
<g id="edge7" class="edge">
<title>Node1&#45;&gt;Node8</title>
<path fill="none" stroke="midnightblue" d="M673.88,-67.48C731.62,-55.37 813.78,-38.14 866.24,-27.14"/>
<polygon fill="midnightblue" stroke="midnightblue" points="867.26,-30.51 876.32,-25.03 865.82,-23.66 867.26,-30.51"/>
</g>
<!-- Node9 -->
<g id="node9" class="node">
<title>Node9</title>
<g id="a_node9"><a xlink:title=" ">
<polygon fill="white" stroke="#bfbfbf" points="1016.5,-6 1016.5,-25 1175.5,-25 1175.5,-6 1016.5,-6"/>
<text text-anchor="middle" x="1096" y="-13" font-family="Helvetica,sans-Serif" font-size="10.00">stk_mesh/base/BulkData.hpp</text>
</a>
</g>
</g>
<!-- Node1&#45;&gt;Node9 -->
<g id="edge8" class="edge">
<title>Node1&#45;&gt;Node9</title>
<path fill="none" stroke="midnightblue" d="M699.27,-70.8C780.43,-61.17 901.7,-46.22 1007,-31 1016.31,-29.65 1026.16,-28.14 1035.78,-26.61"/>
<polygon fill="midnightblue" stroke="midnightblue" points="1036.37,-30.06 1045.69,-25.02 1035.26,-23.15 1036.37,-30.06"/>
</g>
<!-- Node10 -->
<g id="node10" class="node">
<title>Node10</title>
<g id="a_node10"><a xlink:title=" ">
<polygon fill="white" stroke="#bfbfbf" points="1193.5,-6 1193.5,-25 1330.5,-25 1330.5,-6 1193.5,-6"/>
<text text-anchor="middle" x="1262" y="-13" font-family="Helvetica,sans-Serif" font-size="10.00">stk_mesh/base/Field.hpp</text>
</a>
</g>
</g>
<!-- Node1&#45;&gt;Node10 -->
<g id="edge9" class="edge">
<title>Node1&#45;&gt;Node10</title>
<path fill="none" stroke="midnightblue" d="M699.41,-76.25C813.79,-69.11 1014.36,-54.46 1185,-31 1193.43,-29.84 1202.33,-28.38 1210.98,-26.84"/>
<polygon fill="midnightblue" stroke="midnightblue" points="1211.76,-30.26 1220.96,-25.01 1210.5,-23.37 1211.76,-30.26"/>
</g>
</g>
</svg>
