<?xml version="1.0" encoding="UTF-8" standalone="no"?>
<!DOCTYPE svg PUBLIC "-//W3C//DTD SVG 1.1//EN"
 "http://www.w3.org/Graphics/SVG/1.1/DTD/svg11.dtd">
<!-- Generated by graphviz version 2.43.0 (0)
 -->
<!-- Title: VariableDensityNonIsoEnthalpySrcNodeSuppAlg.C Pages: 1 -->
<svg width="1321pt" height="106pt"
 viewBox="0.00 0.00 1320.50 106.00" xmlns="http://www.w3.org/2000/svg" xmlns:xlink="http://www.w3.org/1999/xlink">
<g id="graph0" class="graph" transform="scale(1 1) rotate(0) translate(4 102)">
<title>VariableDensityNonIsoEnthalpySrcNodeSuppAlg.C</title>
<polygon fill="white" stroke="transparent" points="-4,4 -4,-102 1316.5,-102 1316.5,4 -4,4"/>
<!-- Node1 -->
<g id="node1" class="node">
<title>Node1</title>
<g id="a_node1"><a xlink:title=" ">
<polygon fill="#bfbfbf" stroke="black" points="506,-67.5 506,-97.5 676,-97.5 676,-67.5 506,-67.5"/>
<text text-anchor="start" x="514" y="-85.5" font-family="Helvetica,sans-Serif" font-size="10.00">VariableDensityNonIsoEnthalpy</text>
<text text-anchor="middle" x="591" y="-74.5" font-family="Helvetica,sans-Serif" font-size="10.00">SrcNodeSuppAlg.C</text>
</a>
</g>
</g>
<!-- Node2 -->
<g id="node2" class="node">
<title>Node2</title>
<g id="a_node2"><a xlink:title=" ">
<polygon fill="white" stroke="#bfbfbf" points="0,-0.5 0,-30.5 182,-30.5 182,-0.5 0,-0.5"/>
<text text-anchor="start" x="8" y="-18.5" font-family="Helvetica,sans-Serif" font-size="10.00">user_functions/VariableDensity</text>
<text text-anchor="middle" x="91" y="-7.5" font-family="Helvetica,sans-Serif" font-size="10.00">NonIsoEnthalpySrcNodeSuppAlg.h</text>
</a>
</g>
</g>
<!-- Node1&#45;&gt;Node2 -->
<g id="edge1" class="edge">
<title>Node1&#45;&gt;Node2</title>
<path fill="none" stroke="midnightblue" d="M505.89,-71.22C427.16,-61.6 306.61,-46.6 192.01,-31.12"/>
<polygon fill="midnightblue" stroke="midnightblue" points="192.39,-27.64 182.01,-29.77 191.45,-34.58 192.39,-27.64"/>
</g>
<!-- Node3 -->
<g id="node3" class="node">
<title>Node3</title>
<g id="a_node3"><a xlink:title=" ">
<polygon fill="white" stroke="#bfbfbf" points="200.5,-6 200.5,-25 341.5,-25 341.5,-6 200.5,-6"/>
<text text-anchor="middle" x="271" y="-13" font-family="Helvetica,sans-Serif" font-size="10.00">SupplementalAlgorithm.h</text>
</a>
</g>
</g>
<!-- Node1&#45;&gt;Node3 -->
<g id="edge2" class="edge">
<title>Node1&#45;&gt;Node3</title>
<path fill="none" stroke="midnightblue" d="M521.96,-67.48C462.24,-55.34 377.2,-38.07 323.06,-27.07"/>
<polygon fill="midnightblue" stroke="midnightblue" points="323.48,-23.59 312.99,-25.03 322.09,-30.45 323.48,-23.59"/>
</g>
<!-- Node4 -->
<g id="node4" class="node">
<title>Node4</title>
<g id="a_node4"><a xlink:title=" ">
<polygon fill="white" stroke="#bfbfbf" points="360,-6 360,-25 448,-25 448,-6 360,-6"/>
<text text-anchor="middle" x="404" y="-13" font-family="Helvetica,sans-Serif" font-size="10.00">FieldTypeDef.h</text>
</a>
</g>
</g>
<!-- Node1&#45;&gt;Node4 -->
<g id="edge3" class="edge">
<title>Node1&#45;&gt;Node4</title>
<path fill="none" stroke="midnightblue" d="M550.42,-67.4C516.89,-55.74 469.8,-39.37 438.17,-28.38"/>
<polygon fill="midnightblue" stroke="midnightblue" points="439.07,-24.98 428.47,-25.01 436.77,-31.6 439.07,-24.98"/>
</g>
<!-- Node5 -->
<g id="node5" class="node">
<title>Node5</title>
<g id="a_node5"><a xlink:title=" ">
<polygon fill="white" stroke="#bfbfbf" points="466.5,-6 466.5,-25 523.5,-25 523.5,-6 466.5,-6"/>
<text text-anchor="middle" x="495" y="-13" font-family="Helvetica,sans-Serif" font-size="10.00">Realm.h</text>
</a>
</g>
</g>
<!-- Node1&#45;&gt;Node5 -->
<g id="edge4" class="edge">
<title>Node1&#45;&gt;Node5</title>
<path fill="none" stroke="midnightblue" d="M570.17,-67.4C554.22,-56.6 532.3,-41.76 516.25,-30.89"/>
<polygon fill="midnightblue" stroke="midnightblue" points="517.81,-27.72 507.56,-25.01 513.88,-33.51 517.81,-27.72"/>
</g>
<!-- Node6 -->
<g id="node6" class="node">
<title>Node6</title>
<g id="a_node6"><a xlink:title=" ">
<polygon fill="white" stroke="#bfbfbf" points="542,-6 542,-25 640,-25 640,-6 542,-6"/>
<text text-anchor="middle" x="591" y="-13" font-family="Helvetica,sans-Serif" font-size="10.00">TimeIntegrator.h</text>
</a>
</g>
</g>
<!-- Node1&#45;&gt;Node6 -->
<g id="edge5" class="edge">
<title>Node1&#45;&gt;Node6</title>
<path fill="none" stroke="midnightblue" d="M591,-67.4C591,-58.06 591,-45.71 591,-35.52"/>
<polygon fill="midnightblue" stroke="midnightblue" points="594.5,-35.19 591,-25.19 587.5,-35.19 594.5,-35.19"/>
</g>
<!-- Node7 -->
<g id="node7" class="node">
<title>Node7</title>
<g id="a_node7"><a xlink:title=" ">
<polygon fill="white" stroke="#bfbfbf" points="658.5,-6 658.5,-25 799.5,-25 799.5,-6 658.5,-6"/>
<text text-anchor="middle" x="729" y="-13" font-family="Helvetica,sans-Serif" font-size="10.00">stk_mesh/base/Entity.hpp</text>
</a>
</g>
</g>
<!-- Node1&#45;&gt;Node7 -->
<g id="edge6" class="edge">
<title>Node1&#45;&gt;Node7</title>
<path fill="none" stroke="midnightblue" d="M620.94,-67.4C644.94,-56.09 678.34,-40.36 701.63,-29.39"/>
<polygon fill="midnightblue" stroke="midnightblue" points="703.38,-32.43 710.94,-25.01 700.4,-26.1 703.38,-32.43"/>
</g>
<!-- Node8 -->
<g id="node8" class="node">
<title>Node8</title>
<g id="a_node8"><a xlink:title=" ">
<polygon fill="white" stroke="#bfbfbf" points="818,-6 818,-25 980,-25 980,-6 818,-6"/>
<text text-anchor="middle" x="899" y="-13" font-family="Helvetica,sans-Serif" font-size="10.00">stk_mesh/base/MetaData.hpp</text>
</a>
</g>
</g>
<!-- Node1&#45;&gt;Node8 -->
<g id="edge7" class="edge">
<title>Node1&#45;&gt;Node8</title>
<path fill="none" stroke="midnightblue" d="M657.45,-67.48C714.82,-55.37 796.45,-38.14 848.57,-27.14"/>
<polygon fill="midnightblue" stroke="midnightblue" points="849.53,-30.52 858.59,-25.03 848.08,-23.67 849.53,-30.52"/>
</g>
<!-- Node9 -->
<g id="node9" class="node">
<title>Node9</title>
<g id="a_node9"><a xlink:title=" ">
<polygon fill="white" stroke="#bfbfbf" points="998.5,-6 998.5,-25 1157.5,-25 1157.5,-6 998.5,-6"/>
<text text-anchor="middle" x="1078" y="-13" font-family="Helvetica,sans-Serif" font-size="10.00">stk_mesh/base/BulkData.hpp</text>
</a>
</g>
</g>
<!-- Node1&#45;&gt;Node9 -->
<g id="edge8" class="edge">
<title>Node1&#45;&gt;Node9</title>
<path fill="none" stroke="midnightblue" d="M676.13,-71.58C756.8,-61.97 881.29,-46.6 989,-31 998.31,-29.65 1008.16,-28.14 1017.78,-26.61"/>
<polygon fill="midnightblue" stroke="midnightblue" points="1018.37,-30.06 1027.69,-25.02 1017.26,-23.15 1018.37,-30.06"/>
</g>
<!-- Node10 -->
<g id="node10" class="node">
<title>Node10</title>
<g id="a_node10"><a xlink:title=" ">
<polygon fill="white" stroke="#bfbfbf" points="1175.5,-6 1175.5,-25 1312.5,-25 1312.5,-6 1175.5,-6"/>
<text text-anchor="middle" x="1244" y="-13" font-family="Helvetica,sans-Serif" font-size="10.00">stk_mesh/base/Field.hpp</text>
</a>
</g>
</g>
<!-- Node1&#45;&gt;Node10 -->
<g id="edge9" class="edge">
<title>Node1&#45;&gt;Node10</title>
<path fill="none" stroke="midnightblue" d="M676.2,-76.67C788.88,-69.67 993.47,-54.89 1167,-31 1175.43,-29.84 1184.33,-28.38 1192.98,-26.84"/>
<polygon fill="midnightblue" stroke="midnightblue" points="1193.76,-30.25 1202.96,-25 1192.49,-23.37 1193.76,-30.25"/>
</g>
</g>
</svg>
