<?xml version="1.0" encoding="UTF-8" standalone="no"?>
<!DOCTYPE svg PUBLIC "-//W3C//DTD SVG 1.1//EN"
 "http://www.w3.org/Graphics/SVG/1.1/DTD/svg11.dtd">
<!-- Generated by graphviz version 2.43.0 (0)
 -->
<!-- Title: VariableDensityContinuitySrcNodeSuppAlg.C Pages: 1 -->
<svg width="1307pt" height="106pt"
 viewBox="0.00 0.00 1306.50 106.00" xmlns="http://www.w3.org/2000/svg" xmlns:xlink="http://www.w3.org/1999/xlink">
<g id="graph0" class="graph" transform="scale(1 1) rotate(0) translate(4 102)">
<title>VariableDensityContinuitySrcNodeSuppAlg.C</title>
<polygon fill="white" stroke="transparent" points="-4,4 -4,-102 1302.5,-102 1302.5,4 -4,4"/>
<!-- Node1 -->
<g id="node1" class="node">
<title>Node1</title>
<g id="a_node1"><a xlink:title=" ">
<polygon fill="#bfbfbf" stroke="black" points="505,-67.5 505,-97.5 649,-97.5 649,-67.5 505,-67.5"/>
<text text-anchor="start" x="513" y="-85.5" font-family="Helvetica,sans-Serif" font-size="10.00">VariableDensityContinuity</text>
<text text-anchor="middle" x="577" y="-74.5" font-family="Helvetica,sans-Serif" font-size="10.00">SrcNodeSuppAlg.C</text>
</a>
</g>
</g>
<!-- Node2 -->
<g id="node2" class="node">
<title>Node2</title>
<g id="a_node2"><a xlink:title=" ">
<polygon fill="white" stroke="#bfbfbf" points="0,-0.5 0,-30.5 168,-30.5 168,-0.5 0,-0.5"/>
<text text-anchor="start" x="8" y="-18.5" font-family="Helvetica,sans-Serif" font-size="10.00">user_functions/VariableDensity</text>
<text text-anchor="middle" x="84" y="-7.5" font-family="Helvetica,sans-Serif" font-size="10.00">ContinuitySrcNodeSuppAlg.h</text>
</a>
</g>
</g>
<!-- Node1&#45;&gt;Node2 -->
<g id="edge1" class="edge">
<title>Node1&#45;&gt;Node2</title>
<path fill="none" stroke="midnightblue" d="M504.65,-73.01C426.66,-63.71 298.6,-48.02 178.26,-31.15"/>
<polygon fill="midnightblue" stroke="midnightblue" points="178.52,-27.66 168.13,-29.73 177.55,-34.59 178.52,-27.66"/>
</g>
<!-- Node3 -->
<g id="node3" class="node">
<title>Node3</title>
<g id="a_node3"><a xlink:title=" ">
<polygon fill="white" stroke="#bfbfbf" points="186.5,-6 186.5,-25 327.5,-25 327.5,-6 186.5,-6"/>
<text text-anchor="middle" x="257" y="-13" font-family="Helvetica,sans-Serif" font-size="10.00">SupplementalAlgorithm.h</text>
</a>
</g>
</g>
<!-- Node1&#45;&gt;Node3 -->
<g id="edge2" class="edge">
<title>Node1&#45;&gt;Node3</title>
<path fill="none" stroke="midnightblue" d="M507.96,-67.48C448.24,-55.34 363.2,-38.07 309.06,-27.07"/>
<polygon fill="midnightblue" stroke="midnightblue" points="309.48,-23.59 298.99,-25.03 308.09,-30.45 309.48,-23.59"/>
</g>
<!-- Node4 -->
<g id="node4" class="node">
<title>Node4</title>
<g id="a_node4"><a xlink:title=" ">
<polygon fill="white" stroke="#bfbfbf" points="346,-6 346,-25 434,-25 434,-6 346,-6"/>
<text text-anchor="middle" x="390" y="-13" font-family="Helvetica,sans-Serif" font-size="10.00">FieldTypeDef.h</text>
</a>
</g>
</g>
<!-- Node1&#45;&gt;Node4 -->
<g id="edge3" class="edge">
<title>Node1&#45;&gt;Node4</title>
<path fill="none" stroke="midnightblue" d="M536.42,-67.4C502.89,-55.74 455.8,-39.37 424.17,-28.38"/>
<polygon fill="midnightblue" stroke="midnightblue" points="425.07,-24.98 414.47,-25.01 422.77,-31.6 425.07,-24.98"/>
</g>
<!-- Node5 -->
<g id="node5" class="node">
<title>Node5</title>
<g id="a_node5"><a xlink:title=" ">
<polygon fill="white" stroke="#bfbfbf" points="452.5,-6 452.5,-25 509.5,-25 509.5,-6 452.5,-6"/>
<text text-anchor="middle" x="481" y="-13" font-family="Helvetica,sans-Serif" font-size="10.00">Realm.h</text>
</a>
</g>
</g>
<!-- Node1&#45;&gt;Node5 -->
<g id="edge4" class="edge">
<title>Node1&#45;&gt;Node5</title>
<path fill="none" stroke="midnightblue" d="M556.17,-67.4C540.22,-56.6 518.3,-41.76 502.25,-30.89"/>
<polygon fill="midnightblue" stroke="midnightblue" points="503.81,-27.72 493.56,-25.01 499.88,-33.51 503.81,-27.72"/>
</g>
<!-- Node6 -->
<g id="node6" class="node">
<title>Node6</title>
<g id="a_node6"><a xlink:title=" ">
<polygon fill="white" stroke="#bfbfbf" points="528,-6 528,-25 626,-25 626,-6 528,-6"/>
<text text-anchor="middle" x="577" y="-13" font-family="Helvetica,sans-Serif" font-size="10.00">TimeIntegrator.h</text>
</a>
</g>
</g>
<!-- Node1&#45;&gt;Node6 -->
<g id="edge5" class="edge">
<title>Node1&#45;&gt;Node6</title>
<path fill="none" stroke="midnightblue" d="M577,-67.4C577,-58.06 577,-45.71 577,-35.52"/>
<polygon fill="midnightblue" stroke="midnightblue" points="580.5,-35.19 577,-25.19 573.5,-35.19 580.5,-35.19"/>
</g>
<!-- Node7 -->
<g id="node7" class="node">
<title>Node7</title>
<g id="a_node7"><a xlink:title=" ">
<polygon fill="white" stroke="#bfbfbf" points="644.5,-6 644.5,-25 785.5,-25 785.5,-6 644.5,-6"/>
<text text-anchor="middle" x="715" y="-13" font-family="Helvetica,sans-Serif" font-size="10.00">stk_mesh/base/Entity.hpp</text>
</a>
</g>
</g>
<!-- Node1&#45;&gt;Node7 -->
<g id="edge6" class="edge">
<title>Node1&#45;&gt;Node7</title>
<path fill="none" stroke="midnightblue" d="M606.94,-67.4C630.94,-56.09 664.34,-40.36 687.63,-29.39"/>
<polygon fill="midnightblue" stroke="midnightblue" points="689.38,-32.43 696.94,-25.01 686.4,-26.1 689.38,-32.43"/>
</g>
<!-- Node8 -->
<g id="node8" class="node">
<title>Node8</title>
<g id="a_node8"><a xlink:title=" ">
<polygon fill="white" stroke="#bfbfbf" points="804,-6 804,-25 966,-25 966,-6 804,-6"/>
<text text-anchor="middle" x="885" y="-13" font-family="Helvetica,sans-Serif" font-size="10.00">stk_mesh/base/MetaData.hpp</text>
</a>
</g>
</g>
<!-- Node1&#45;&gt;Node8 -->
<g id="edge7" class="edge">
<title>Node1&#45;&gt;Node8</title>
<path fill="none" stroke="midnightblue" d="M643.45,-67.48C700.82,-55.37 782.45,-38.14 834.57,-27.14"/>
<polygon fill="midnightblue" stroke="midnightblue" points="835.53,-30.52 844.59,-25.03 834.08,-23.67 835.53,-30.52"/>
</g>
<!-- Node9 -->
<g id="node9" class="node">
<title>Node9</title>
<g id="a_node9"><a xlink:title=" ">
<polygon fill="white" stroke="#bfbfbf" points="984.5,-6 984.5,-25 1143.5,-25 1143.5,-6 984.5,-6"/>
<text text-anchor="middle" x="1064" y="-13" font-family="Helvetica,sans-Serif" font-size="10.00">stk_mesh/base/BulkData.hpp</text>
</a>
</g>
</g>
<!-- Node1&#45;&gt;Node9 -->
<g id="edge8" class="edge">
<title>Node1&#45;&gt;Node9</title>
<path fill="none" stroke="midnightblue" d="M649,-73.14C728.8,-63.69 861.26,-47.48 975,-31 984.31,-29.65 994.16,-28.14 1003.78,-26.61"/>
<polygon fill="midnightblue" stroke="midnightblue" points="1004.37,-30.06 1013.69,-25.02 1003.26,-23.15 1004.37,-30.06"/>
</g>
<!-- Node10 -->
<g id="node10" class="node">
<title>Node10</title>
<g id="a_node10"><a xlink:title=" ">
<polygon fill="white" stroke="#bfbfbf" points="1161.5,-6 1161.5,-25 1298.5,-25 1298.5,-6 1161.5,-6"/>
<text text-anchor="middle" x="1230" y="-13" font-family="Helvetica,sans-Serif" font-size="10.00">stk_mesh/base/Field.hpp</text>
</a>
</g>
</g>
<!-- Node1&#45;&gt;Node10 -->
<g id="edge9" class="edge">
<title>Node1&#45;&gt;Node10</title>
<path fill="none" stroke="midnightblue" d="M649.09,-77.47C758.42,-70.84 972.51,-55.85 1153,-31 1161.43,-29.84 1170.33,-28.38 1178.98,-26.84"/>
<polygon fill="midnightblue" stroke="midnightblue" points="1179.76,-30.25 1188.96,-25 1178.49,-23.37 1179.76,-30.25"/>
</g>
</g>
</svg>
