<?xml version="1.0" encoding="UTF-8" standalone="no"?>
<!DOCTYPE svg PUBLIC "-//W3C//DTD SVG 1.1//EN"
 "http://www.w3.org/Graphics/SVG/1.1/DTD/svg11.dtd">
<!-- Generated by graphviz version 2.43.0 (0)
 -->
<!-- Title: VolumeOfFluidEquationSystem.C Pages: 1 -->
<!--zoomable 95 -->
<svg id="main" version="1.1" xmlns="http://www.w3.org/2000/svg" xmlns:xlink="http://www.w3.org/1999/xlink" xml:space="preserve" onload="init(evt)">
<style type="text/css"><![CDATA[
.edge:hover path { stroke: red; }
.edge:hover polygon { stroke: red; fill: red; }
]]></style>
<script type="text/javascript"><![CDATA[
var edges = document.getElementsByTagName('g');
if (edges && edges.length) {
  for (var i=0;i<edges.length;i++) {
    if (edges[i].id.substr(0,4)=='edge') {
      edges[i].setAttribute('class','edge');
    }
  }
}
]]></script>
        <defs>
                <circle id="rim" cx="0" cy="0" r="7"/>
                <circle id="rim2" cx="0" cy="0" r="3.5"/>
                <g id="zoomPlus">
                        <use xlink:href="#rim" fill="#404040">
                                <set attributeName="fill" to="#808080" begin="zoomplus.mouseover" end="zoomplus.mouseout"/>
                        </use>
                        <path d="M-4,0h8M0,-4v8" fill="none" stroke="white" stroke-width="1.5" pointer-events="none"/>
                </g>
                <g id="zoomMin">
                        <use xlink:href="#rim" fill="#404040">
                                <set attributeName="fill" to="#808080" begin="zoomminus.mouseover" end="zoomminus.mouseout"/>
                        </use>
                        <path d="M-4,0h8" fill="none" stroke="white" stroke-width="1.5" pointer-events="none"/>
                </g>
                <g id="dirArrow">
                        <path fill="none" stroke="white" stroke-width="1.5" d="M0,-3.0v7 M-2.5,-0.5L0,-3.0L2.5,-0.5"/>
                </g>
               <g id="resetDef">
                       <use xlink:href="#rim2" fill="#404040">
                               <set attributeName="fill" to="#808080" begin="reset.mouseover" end="reset.mouseout"/>
                       </use>
               </g>
        </defs>

<script type="text/javascript">
var viewWidth = 5320;
var viewHeight = 95;
var sectionId = 'dynsection-0';
</script>
<script xlink:href="svgpan.js"/>
<svg id="graph" class="graph">
<g id="viewport">
<title>VolumeOfFluidEquationSystem.C</title>
<polygon fill="white" stroke="transparent" points="-4,4 -4,-91 5315.5,-91 5315.5,4 -4,4"/>
<!-- Node1 -->
<g id="node1" class="node">
<title>Node1</title>
<g id="a_node1"><a xlink:title=" ">
<polygon fill="#bfbfbf" stroke="black" points="2200,-67.5 2200,-86.5 2378,-86.5 2378,-67.5 2200,-67.5"/>
<text text-anchor="middle" x="2289" y="-74.5" font-family="Helvetica,sans-Serif" font-size="10.00">VolumeOfFluidEquationSystem.C</text>
</a>
</g>
</g>
<!-- Node2 -->
<g id="node2" class="node">
<title>Node2</title>
<g id="a_node2"><a xlink:title=" ">
<polygon fill="white" stroke="#bfbfbf" points="0,-0.5 0,-30.5 134,-30.5 134,-0.5 0,-0.5"/>
<text text-anchor="start" x="8" y="-18.5" font-family="Helvetica,sans-Serif" font-size="10.00">property_evaluator</text>
<text text-anchor="middle" x="67" y="-7.5" font-family="Helvetica,sans-Serif" font-size="10.00">/MaterialPropertyData.h</text>
</a>
</g>
</g>
<!-- Node1&#45;&gt;Node2 -->
<g id="edge1" class="edge">
<title>Node1&#45;&gt;Node2</title>
<path fill="none" stroke="midnightblue" d="M2199.92,-76.12C1850.51,-76.3 572.31,-73.98 144.31,-30.98"/>
<polygon fill="midnightblue" stroke="midnightblue" points="144.35,-27.46 134.05,-29.92 143.64,-34.43 144.35,-27.46"/>
</g>
<!-- Node3 -->
<g id="node3" class="node">
<title>Node3</title>
<g id="a_node3"><a xlink:title=" ">
<polygon fill="white" stroke="#bfbfbf" points="152.5,-6 152.5,-25 329.5,-25 329.5,-6 152.5,-6"/>
<text text-anchor="middle" x="241" y="-13" font-family="Helvetica,sans-Serif" font-size="10.00">VolumeOfFluidEquationSystem.h</text>
</a>
</g>
</g>
<!-- Node1&#45;&gt;Node3 -->
<g id="edge2" class="edge">
<title>Node1&#45;&gt;Node3</title>
<path fill="none" stroke="midnightblue" d="M2199.98,-75.43C1868.65,-73.08 707,-62.71 338,-31 325.55,-29.93 312.27,-28.28 299.65,-26.48"/>
<polygon fill="midnightblue" stroke="midnightblue" points="300.11,-23.01 289.71,-25 299.09,-29.93 300.11,-23.01"/>
</g>
<!-- Node4 -->
<g id="node4" class="node">
<title>Node4</title>
<g id="a_node4"><a xlink:title=" ">
<polygon fill="white" stroke="#bfbfbf" points="347,-0.5 347,-30.5 523,-30.5 523,-0.5 347,-0.5"/>
<text text-anchor="start" x="355" y="-18.5" font-family="Helvetica,sans-Serif" font-size="10.00">ProjectedNodalGradientEquation</text>
<text text-anchor="middle" x="435" y="-7.5" font-family="Helvetica,sans-Serif" font-size="10.00">System.h</text>
</a>
</g>
</g>
<!-- Node1&#45;&gt;Node4 -->
<g id="edge3" class="edge">
<title>Node1&#45;&gt;Node4</title>
<path fill="none" stroke="midnightblue" d="M2199.92,-75.17C1893.2,-72.07 881.09,-59.94 533.33,-31.02"/>
<polygon fill="midnightblue" stroke="midnightblue" points="533.49,-27.52 523.23,-30.16 532.9,-34.5 533.49,-27.52"/>
</g>
<!-- Node5 -->
<g id="node5" class="node">
<title>Node5</title>
<g id="a_node5"><a xlink:title=" ">
<polygon fill="white" stroke="#bfbfbf" points="541.5,-6 541.5,-25 624.5,-25 624.5,-6 541.5,-6"/>
<text text-anchor="middle" x="583" y="-13" font-family="Helvetica,sans-Serif" font-size="10.00">NaluParsing.h</text>
</a>
</g>
</g>
<!-- Node1&#45;&gt;Node5 -->
<g id="edge4" class="edge">
<title>Node1&#45;&gt;Node5</title>
<path fill="none" stroke="midnightblue" d="M2199.78,-74.91C1877.96,-70.78 787.74,-55.13 633,-31 628.07,-30.23 622.94,-29.12 617.92,-27.85"/>
<polygon fill="midnightblue" stroke="midnightblue" points="618.47,-24.37 607.9,-25.07 616.6,-31.11 618.47,-24.37"/>
</g>
<!-- Node6 -->
<g id="node6" class="node">
<title>Node6</title>
<g id="a_node6"><a xlink:title=" ">
<polygon fill="white" stroke="#bfbfbf" points="642.5,-6 642.5,-25 701.5,-25 701.5,-6 642.5,-6"/>
<text text-anchor="middle" x="672" y="-13" font-family="Helvetica,sans-Serif" font-size="10.00">Enums.h</text>
</a>
</g>
</g>
<!-- Node1&#45;&gt;Node6 -->
<g id="edge5" class="edge">
<title>Node1&#45;&gt;Node6</title>
<path fill="none" stroke="midnightblue" d="M2199.91,-75.16C1888.1,-71.97 856.86,-59.39 711,-31 707.56,-30.33 704.03,-29.4 700.56,-28.32"/>
<polygon fill="midnightblue" stroke="midnightblue" points="701.67,-25 691.08,-25.01 699.37,-31.61 701.67,-25"/>
</g>
<!-- Node7 -->
<g id="node7" class="node">
<title>Node7</title>
<g id="a_node7"><a xlink:title=" ">
<polygon fill="white" stroke="#bfbfbf" points="720,-6 720,-25 812,-25 812,-6 720,-6"/>
<text text-anchor="middle" x="766" y="-13" font-family="Helvetica,sans-Serif" font-size="10.00">LinearSolvers.h</text>
</a>
</g>
</g>
<!-- Node1&#45;&gt;Node7 -->
<g id="edge6" class="edge">
<title>Node1&#45;&gt;Node7</title>
<path fill="none" stroke="midnightblue" d="M2199.96,-75.92C1924.59,-75.24 1089.26,-69.96 821,-31 815.18,-30.15 809.09,-28.92 803.17,-27.52"/>
<polygon fill="midnightblue" stroke="midnightblue" points="804,-24.12 793.44,-25.04 802.27,-30.9 804,-24.12"/>
</g>
<!-- Node8 -->
<g id="node8" class="node">
<title>Node8</title>
<g id="a_node8"><a xlink:title=" ">
<polygon fill="white" stroke="#bfbfbf" points="830,-6 830,-25 916,-25 916,-6 830,-6"/>
<text text-anchor="middle" x="873" y="-13" font-family="Helvetica,sans-Serif" font-size="10.00">LinearSolver.h</text>
</a>
</g>
</g>
<!-- Node1&#45;&gt;Node8 -->
<g id="edge7" class="edge">
<title>Node1&#45;&gt;Node8</title>
<path fill="none" stroke="midnightblue" d="M2199.81,-75.83C1937.57,-74.91 1171.92,-68.94 925,-31 919.75,-30.19 914.28,-29.03 908.94,-27.72"/>
<polygon fill="midnightblue" stroke="midnightblue" points="909.49,-24.24 898.92,-25.04 907.68,-31 909.49,-24.24"/>
</g>
<!-- Node9 -->
<g id="node9" class="node">
<title>Node9</title>
<g id="a_node9"><a xlink:title=" ">
<polygon fill="white" stroke="#bfbfbf" points="934,-6 934,-25 1026,-25 1026,-6 934,-6"/>
<text text-anchor="middle" x="980" y="-13" font-family="Helvetica,sans-Serif" font-size="10.00">LinearSystem.h</text>
</a>
</g>
</g>
<!-- Node1&#45;&gt;Node9 -->
<g id="edge8" class="edge">
<title>Node1&#45;&gt;Node9</title>
<path fill="none" stroke="midnightblue" d="M2199.6,-75.37C1951.85,-73.2 1259.93,-64.26 1035,-31 1029.18,-30.14 1023.09,-28.89 1017.17,-27.49"/>
<polygon fill="midnightblue" stroke="midnightblue" points="1018,-24.09 1007.45,-25.02 1016.28,-30.87 1018,-24.09"/>
</g>
<!-- Node10 -->
<g id="node10" class="node">
<title>Node10</title>
<g id="a_node10"><a xlink:title=" ">
<polygon fill="white" stroke="#bfbfbf" points="1044,-6 1044,-25 1106,-25 1106,-6 1044,-6"/>
<text text-anchor="middle" x="1075" y="-13" font-family="Helvetica,sans-Serif" font-size="10.00">Realms.h</text>
</a>
</g>
</g>
<!-- Node1&#45;&gt;Node10 -->
<g id="edge9" class="edge">
<title>Node1&#45;&gt;Node10</title>
<path fill="none" stroke="midnightblue" d="M2199.63,-76.14C1962.68,-75.93 1322.31,-71.52 1115,-31 1111.56,-30.33 1108.02,-29.41 1104.54,-28.35"/>
<polygon fill="midnightblue" stroke="midnightblue" points="1105.6,-25.02 1095,-25.12 1103.35,-31.65 1105.6,-25.02"/>
</g>
<!-- Node11 -->
<g id="node11" class="node">
<title>Node11</title>
<g id="a_node11"><a xlink:title=" ">
<polygon fill="white" stroke="#bfbfbf" points="1124.5,-6 1124.5,-25 1181.5,-25 1181.5,-6 1124.5,-6"/>
<text text-anchor="middle" x="1153" y="-13" font-family="Helvetica,sans-Serif" font-size="10.00">Realm.h</text>
</a>
</g>
</g>
<!-- Node1&#45;&gt;Node11 -->
<g id="edge10" class="edge">
<title>Node1&#45;&gt;Node11</title>
<path fill="none" stroke="midnightblue" d="M2199.68,-76.04C1973.57,-75.56 1382.9,-70.45 1191,-31 1187.92,-30.37 1184.76,-29.51 1181.64,-28.54"/>
<polygon fill="midnightblue" stroke="midnightblue" points="1182.56,-25.15 1171.97,-25.12 1180.23,-31.75 1182.56,-25.15"/>
</g>
<!-- Node12 -->
<g id="node12" class="node">
<title>Node12</title>
<g id="a_node12"><a xlink:title=" ">
<polygon fill="white" stroke="#bfbfbf" points="1200,-6 1200,-25 1278,-25 1278,-6 1200,-6"/>
<text text-anchor="middle" x="1239" y="-13" font-family="Helvetica,sans-Serif" font-size="10.00">Simulation.h</text>
</a>
</g>
</g>
<!-- Node1&#45;&gt;Node12 -->
<g id="edge11" class="edge">
<title>Node1&#45;&gt;Node12</title>
<path fill="none" stroke="midnightblue" d="M2199.95,-74.83C1988.55,-71.6 1461.12,-60.73 1287,-31 1282.44,-30.22 1277.7,-29.14 1273.05,-27.91"/>
<polygon fill="midnightblue" stroke="midnightblue" points="1273.72,-24.46 1263.14,-25.07 1271.78,-31.19 1273.72,-24.46"/>
</g>
<!-- Node13 -->
<g id="node13" class="node">
<title>Node13</title>
<g id="a_node13"><a xlink:title=" ">
<polygon fill="white" stroke="#bfbfbf" points="1296,-6 1296,-25 1418,-25 1418,-6 1296,-6"/>
<text text-anchor="middle" x="1357" y="-13" font-family="Helvetica,sans-Serif" font-size="10.00">CopyFieldAlgorithm.h</text>
</a>
</g>
</g>
<!-- Node1&#45;&gt;Node13 -->
<g id="edge12" class="edge">
<title>Node1&#45;&gt;Node13</title>
<path fill="none" stroke="midnightblue" d="M2199.87,-75.8C2042.99,-74.46 1707.53,-67.16 1427,-31 1419.12,-29.98 1410.81,-28.57 1402.77,-27.02"/>
<polygon fill="midnightblue" stroke="midnightblue" points="1403.29,-23.55 1392.79,-25.01 1401.9,-30.42 1403.29,-23.55"/>
</g>
<!-- Node14 -->
<g id="node14" class="node">
<title>Node14</title>
<g id="a_node14"><a xlink:title=" ">
<polygon fill="white" stroke="#bfbfbf" points="1436.5,-6 1436.5,-25 1539.5,-25 1539.5,-6 1436.5,-6"/>
<text text-anchor="middle" x="1488" y="-13" font-family="Helvetica,sans-Serif" font-size="10.00">SolutionOptions.h</text>
</a>
</g>
</g>
<!-- Node1&#45;&gt;Node14 -->
<g id="edge13" class="edge">
<title>Node1&#45;&gt;Node14</title>
<path fill="none" stroke="midnightblue" d="M2199.92,-75.53C2060.4,-73.69 1782.16,-65.54 1549,-31 1542.64,-30.06 1535.97,-28.78 1529.47,-27.37"/>
<polygon fill="midnightblue" stroke="midnightblue" points="1529.99,-23.9 1519.46,-25.07 1528.42,-30.72 1529.99,-23.9"/>
</g>
<!-- Node15 -->
<g id="node15" class="node">
<title>Node15</title>
<g id="a_node15"><a xlink:title=" ">
<polygon fill="white" stroke="#bfbfbf" points="1558,-6 1558,-25 1692,-25 1692,-6 1558,-6"/>
<text text-anchor="middle" x="1625" y="-13" font-family="Helvetica,sans-Serif" font-size="10.00">SolverAlgorithmDriver.h</text>
</a>
</g>
</g>
<!-- Node1&#45;&gt;Node15 -->
<g id="edge14" class="edge">
<title>Node1&#45;&gt;Node15</title>
<path fill="none" stroke="midnightblue" d="M2199.52,-72.28C2083.97,-66.75 1876.82,-54.43 1701,-31 1692.58,-29.88 1683.68,-28.43 1675.05,-26.87"/>
<polygon fill="midnightblue" stroke="midnightblue" points="1675.57,-23.41 1665.09,-25.02 1674.29,-30.29 1675.57,-23.41"/>
</g>
<!-- Node16 -->
<g id="node16" class="node">
<title>Node16</title>
<g id="a_node16"><a xlink:title=" ">
<polygon fill="white" stroke="#bfbfbf" points="1710.5,-6 1710.5,-25 1909.5,-25 1909.5,-6 1710.5,-6"/>
<text text-anchor="middle" x="1810" y="-13" font-family="Helvetica,sans-Serif" font-size="10.00">AssembleNGPNodeSolverAlgorithm.h</text>
</a>
</g>
</g>
<!-- Node1&#45;&gt;Node16 -->
<g id="edge15" class="edge">
<title>Node1&#45;&gt;Node16</title>
<path fill="none" stroke="midnightblue" d="M2216.45,-67.48C2141.64,-58.62 2021.62,-44.24 1918,-31 1906.61,-29.54 1894.54,-27.96 1882.77,-26.4"/>
<polygon fill="midnightblue" stroke="midnightblue" points="1882.89,-22.88 1872.52,-25.03 1881.97,-29.82 1882.89,-22.88"/>
</g>
<!-- Node17 -->
<g id="node17" class="node">
<title>Node17</title>
<g id="a_node17"><a xlink:title=" ">
<polygon fill="white" stroke="#bfbfbf" points="1927.5,-6 1927.5,-25 1992.5,-25 1992.5,-6 1927.5,-6"/>
<text text-anchor="middle" x="1960" y="-13" font-family="Helvetica,sans-Serif" font-size="10.00">stdexcept</text>
</a>
</g>
</g>
<!-- Node1&#45;&gt;Node17 -->
<g id="edge16" class="edge">
<title>Node1&#45;&gt;Node17</title>
<path fill="none" stroke="midnightblue" d="M2210.29,-67.47C2152.2,-60.25 2071.5,-48.3 2002,-31 1998.78,-30.2 1995.46,-29.26 1992.16,-28.25"/>
<polygon fill="midnightblue" stroke="midnightblue" points="1993.04,-24.85 1982.45,-25.07 1990.86,-31.51 1993.04,-24.85"/>
</g>
<!-- Node18 -->
<g id="node18" class="node">
<title>Node18</title>
<g id="a_node18"><a xlink:title=" ">
<polygon fill="white" stroke="#bfbfbf" points="2011,-6 2011,-25 2145,-25 2145,-6 2011,-6"/>
<text text-anchor="middle" x="2078" y="-13" font-family="Helvetica,sans-Serif" font-size="10.00">AuxFunctionAlgorithm.h</text>
</a>
</g>
</g>
<!-- Node1&#45;&gt;Node18 -->
<g id="edge17" class="edge">
<title>Node1&#45;&gt;Node18</title>
<path fill="none" stroke="midnightblue" d="M2258.77,-67.48C2221.71,-57.03 2158.81,-39.29 2117.84,-27.73"/>
<polygon fill="midnightblue" stroke="midnightblue" points="2118.75,-24.35 2108.18,-25.01 2116.85,-31.09 2118.75,-24.35"/>
</g>
<!-- Node19 -->
<g id="node19" class="node">
<title>Node19</title>
<g id="a_node19"><a xlink:title=" ">
<polygon fill="white" stroke="#bfbfbf" points="2163.5,-6 2163.5,-25 2292.5,-25 2292.5,-6 2163.5,-6"/>
<text text-anchor="middle" x="2228" y="-13" font-family="Helvetica,sans-Serif" font-size="10.00">ConstantAuxFunction.h</text>
</a>
</g>
</g>
<!-- Node1&#45;&gt;Node19 -->
<g id="edge18" class="edge">
<title>Node1&#45;&gt;Node19</title>
<path fill="none" stroke="midnightblue" d="M2280.26,-67.48C2270.84,-58.28 2255.64,-43.46 2244.05,-32.16"/>
<polygon fill="midnightblue" stroke="midnightblue" points="2246.33,-29.49 2236.72,-25.01 2241.44,-34.5 2246.33,-29.49"/>
</g>
<!-- Node20 -->
<g id="node20" class="node">
<title>Node20</title>
<g id="a_node20"><a xlink:title=" ">
<polygon fill="white" stroke="#bfbfbf" points="2311,-6 2311,-25 2391,-25 2391,-6 2311,-6"/>
<text text-anchor="middle" x="2351" y="-13" font-family="Helvetica,sans-Serif" font-size="10.00">DirichletBC.h</text>
</a>
</g>
</g>
<!-- Node1&#45;&gt;Node20 -->
<g id="edge19" class="edge">
<title>Node1&#45;&gt;Node20</title>
<path fill="none" stroke="midnightblue" d="M2297.88,-67.48C2307.46,-58.28 2322.91,-43.46 2334.69,-32.16"/>
<polygon fill="midnightblue" stroke="midnightblue" points="2337.34,-34.46 2342.13,-25.01 2332.49,-29.41 2337.34,-34.46"/>
</g>
<!-- Node21 -->
<g id="node21" class="node">
<title>Node21</title>
<g id="a_node21"><a xlink:title=" ">
<polygon fill="white" stroke="#bfbfbf" points="2409,-0.5 2409,-30.5 2561,-30.5 2561,-0.5 2409,-0.5"/>
<text text-anchor="start" x="2417" y="-18.5" font-family="Helvetica,sans-Serif" font-size="10.00">edge_kernels/VOFAdvection</text>
<text text-anchor="middle" x="2485" y="-7.5" font-family="Helvetica,sans-Serif" font-size="10.00">EdgeAlg.h</text>
</a>
</g>
</g>
<!-- Node1&#45;&gt;Node21 -->
<g id="edge20" class="edge">
<title>Node1&#45;&gt;Node21</title>
<path fill="none" stroke="midnightblue" d="M2317.08,-67.48C2346.11,-58.66 2392.21,-44.67 2428.77,-33.57"/>
<polygon fill="midnightblue" stroke="midnightblue" points="2430.25,-36.78 2438.81,-30.52 2428.22,-30.08 2430.25,-36.78"/>
</g>
<!-- Node22 -->
<g id="node22" class="node">
<title>Node22</title>
<g id="a_node22"><a xlink:title=" ">
<polygon fill="white" stroke="#bfbfbf" points="2579,-0.5 2579,-30.5 2731,-30.5 2731,-0.5 2579,-0.5"/>
<text text-anchor="start" x="2587" y="-18.5" font-family="Helvetica,sans-Serif" font-size="10.00">user_functions/ZalesakDisk</text>
<text text-anchor="middle" x="2655" y="-7.5" font-family="Helvetica,sans-Serif" font-size="10.00">MassFlowRateKernel.h</text>
</a>
</g>
</g>
<!-- Node1&#45;&gt;Node22 -->
<g id="edge21" class="edge">
<title>Node1&#45;&gt;Node22</title>
<path fill="none" stroke="midnightblue" d="M2343.16,-67.49C2397.61,-58.9 2484.25,-45.14 2568.55,-31.23"/>
<polygon fill="midnightblue" stroke="midnightblue" points="2569.25,-34.66 2578.55,-29.58 2568.11,-27.76 2569.25,-34.66"/>
</g>
<!-- Node23 -->
<g id="node23" class="node">
<title>Node23</title>
<g id="a_node23"><a xlink:title=" ">
<polygon fill="white" stroke="#bfbfbf" points="2749,-0.5 2749,-30.5 2913,-30.5 2913,-0.5 2749,-0.5"/>
<text text-anchor="start" x="2757" y="-18.5" font-family="Helvetica,sans-Serif" font-size="10.00">user_functions/ZalesakSphere</text>
<text text-anchor="middle" x="2831" y="-7.5" font-family="Helvetica,sans-Serif" font-size="10.00">MassFlowRateKernel.h</text>
</a>
</g>
</g>
<!-- Node1&#45;&gt;Node23 -->
<g id="edge22" class="edge">
<title>Node1&#45;&gt;Node23</title>
<path fill="none" stroke="midnightblue" d="M2378.17,-68.65C2466.97,-60.98 2607.4,-47.9 2738.47,-31.15"/>
<polygon fill="midnightblue" stroke="midnightblue" points="2739.22,-34.58 2748.69,-29.84 2738.33,-27.64 2739.22,-34.58"/>
</g>
<!-- Node24 -->
<g id="node24" class="node">
<title>Node24</title>
<g id="a_node24"><a xlink:title=" ">
<polygon fill="white" stroke="#bfbfbf" points="2931,-6 2931,-25 3103,-25 3103,-6 2931,-6"/>
<text text-anchor="middle" x="3017" y="-13" font-family="Helvetica,sans-Serif" font-size="10.00">node_kernels/NodeKernelUtils.h</text>
</a>
</g>
</g>
<!-- Node1&#45;&gt;Node24 -->
<g id="edge23" class="edge">
<title>Node1&#45;&gt;Node24</title>
<path fill="none" stroke="midnightblue" d="M2378.05,-71.93C2500.75,-65.81 2728.61,-52.6 2922,-31 2933.16,-29.75 2945.01,-28.16 2956.43,-26.49"/>
<polygon fill="midnightblue" stroke="midnightblue" points="2956.95,-29.95 2966.32,-25.01 2955.91,-23.03 2956.95,-29.95"/>
</g>
<!-- Node25 -->
<g id="node25" class="node">
<title>Node25</title>
<g id="a_node25"><a xlink:title=" ">
<polygon fill="white" stroke="#bfbfbf" points="3121,-0.5 3121,-30.5 3297,-30.5 3297,-0.5 3121,-0.5"/>
<text text-anchor="start" x="3129" y="-18.5" font-family="Helvetica,sans-Serif" font-size="10.00">node_kernels/VOFMassBDFNode</text>
<text text-anchor="middle" x="3209" y="-7.5" font-family="Helvetica,sans-Serif" font-size="10.00">Kernel.h</text>
</a>
</g>
</g>
<!-- Node1&#45;&gt;Node25 -->
<g id="edge24" class="edge">
<title>Node1&#45;&gt;Node25</title>
<path fill="none" stroke="midnightblue" d="M2378.12,-73.86C2527.51,-69.68 2838.09,-58.39 3110.67,-31.07"/>
<polygon fill="midnightblue" stroke="midnightblue" points="3111.16,-34.54 3120.76,-30.05 3110.45,-27.57 3111.16,-34.54"/>
</g>
<!-- Node26 -->
<g id="node26" class="node">
<title>Node26</title>
<g id="a_node26"><a xlink:title=" ">
<polygon fill="white" stroke="#bfbfbf" points="3314.5,-6 3314.5,-25 3499.5,-25 3499.5,-6 3314.5,-6"/>
<text text-anchor="middle" x="3407" y="-13" font-family="Helvetica,sans-Serif" font-size="10.00">node_kernels/VOFGclNodeKernel.h</text>
</a>
</g>
</g>
<!-- Node1&#45;&gt;Node26 -->
<g id="edge25" class="edge">
<title>Node1&#45;&gt;Node26</title>
<path fill="none" stroke="midnightblue" d="M2378.31,-75C2555.55,-72.36 2964.19,-63.02 3306,-31 3318.53,-29.83 3331.87,-28.19 3344.62,-26.43"/>
<polygon fill="midnightblue" stroke="midnightblue" points="3345.28,-29.88 3354.7,-25.01 3344.3,-22.94 3345.28,-29.88"/>
</g>
<!-- Node27 -->
<g id="node27" class="node">
<title>Node27</title>
<g id="a_node27"><a xlink:title=" ">
<polygon fill="white" stroke="#bfbfbf" points="3517.5,-0.5 3517.5,-30.5 3664.5,-30.5 3664.5,-0.5 3517.5,-0.5"/>
<text text-anchor="start" x="3525.5" y="-18.5" font-family="Helvetica,sans-Serif" font-size="10.00">ngp_algorithms/NodalGrad</text>
<text text-anchor="middle" x="3591" y="-7.5" font-family="Helvetica,sans-Serif" font-size="10.00">EdgeAlg.h</text>
</a>
</g>
</g>
<!-- Node1&#45;&gt;Node27 -->
<g id="edge26" class="edge">
<title>Node1&#45;&gt;Node27</title>
<path fill="none" stroke="midnightblue" d="M2378.03,-74.31C2617.06,-69.54 3270.17,-54.76 3507.03,-31.09"/>
<polygon fill="midnightblue" stroke="midnightblue" points="3507.72,-34.53 3517.31,-30.03 3507,-27.57 3507.72,-34.53"/>
</g>
<!-- Node28 -->
<g id="node28" class="node">
<title>Node28</title>
<g id="a_node28"><a xlink:title=" ">
<polygon fill="white" stroke="#bfbfbf" points="3682.5,-0.5 3682.5,-30.5 3829.5,-30.5 3829.5,-0.5 3682.5,-0.5"/>
<text text-anchor="start" x="3690.5" y="-18.5" font-family="Helvetica,sans-Serif" font-size="10.00">ngp_algorithms/NodalGrad</text>
<text text-anchor="middle" x="3756" y="-7.5" font-family="Helvetica,sans-Serif" font-size="10.00">BndryElemAlg.h</text>
</a>
</g>
</g>
<!-- Node1&#45;&gt;Node28 -->
<g id="edge27" class="edge">
<title>Node1&#45;&gt;Node28</title>
<path fill="none" stroke="midnightblue" d="M2378.47,-74.76C2640.08,-70.88 3401.73,-57.64 3672.13,-31.07"/>
<polygon fill="midnightblue" stroke="midnightblue" points="3672.72,-34.53 3682.31,-30.04 3672.01,-27.57 3672.72,-34.53"/>
</g>
<!-- Node29 -->
<g id="node29" class="node">
<title>Node29</title>
<g id="a_node29"><a xlink:title=" ">
<polygon fill="white" stroke="#bfbfbf" points="3847.5,-6 3847.5,-25 3992.5,-25 3992.5,-6 3847.5,-6"/>
<text text-anchor="middle" x="3920" y="-13" font-family="Helvetica,sans-Serif" font-size="10.00">stk_topology/topology.hpp</text>
</a>
</g>
</g>
<!-- Node1&#45;&gt;Node29 -->
<g id="edge28" class="edge">
<title>Node1&#45;&gt;Node29</title>
<path fill="none" stroke="midnightblue" d="M2378.08,-75.15C2663.42,-72.15 3552.72,-60.61 3839,-31 3848.7,-30 3858.99,-28.5 3868.87,-26.84"/>
<polygon fill="midnightblue" stroke="midnightblue" points="3869.72,-30.24 3878.96,-25.06 3868.51,-23.35 3869.72,-30.24"/>
</g>
<!-- Node30 -->
<g id="node30" class="node">
<title>Node30</title>
<g id="a_node30"><a xlink:title=" ">
<polygon fill="white" stroke="#bfbfbf" points="4010.5,-6 4010.5,-25 4151.5,-25 4151.5,-6 4010.5,-6"/>
<text text-anchor="middle" x="4081" y="-13" font-family="Helvetica,sans-Serif" font-size="10.00">ngp_utils/NgpFieldBLAS.h</text>
</a>
</g>
</g>
<!-- Node1&#45;&gt;Node30 -->
<g id="edge29" class="edge">
<title>Node1&#45;&gt;Node30</title>
<path fill="none" stroke="midnightblue" d="M2378.25,-75.49C2683.21,-73.44 3682.53,-64.31 4002,-31 4011.57,-30 4021.73,-28.49 4031.45,-26.81"/>
<polygon fill="midnightblue" stroke="midnightblue" points="4032.17,-30.24 4041.39,-25.01 4030.93,-23.35 4032.17,-30.24"/>
</g>
<!-- Node31 -->
<g id="node31" class="node">
<title>Node31</title>
<g id="a_node31"><a xlink:title=" ">
<polygon fill="white" stroke="#bfbfbf" points="4170,-6 4170,-25 4308,-25 4308,-6 4170,-6"/>
<text text-anchor="middle" x="4239" y="-13" font-family="Helvetica,sans-Serif" font-size="10.00">ngp_utils/NgpLoopUtils.h</text>
</a>
</g>
</g>
<!-- Node1&#45;&gt;Node31 -->
<g id="edge30" class="edge">
<title>Node1&#45;&gt;Node31</title>
<path fill="none" stroke="midnightblue" d="M2378.03,-75.75C2700.78,-74.53 3808.86,-67.73 4161,-31 4170.36,-30.02 4180.27,-28.54 4189.78,-26.88"/>
<polygon fill="midnightblue" stroke="midnightblue" points="4190.69,-30.27 4199.9,-25.03 4189.43,-23.39 4190.69,-30.27"/>
</g>
<!-- Node32 -->
<g id="node32" class="node">
<title>Node32</title>
<g id="a_node32"><a xlink:title=" ">
<polygon fill="white" stroke="#bfbfbf" points="4326,-6 4326,-25 4464,-25 4464,-6 4326,-6"/>
<text text-anchor="middle" x="4395" y="-13" font-family="Helvetica,sans-Serif" font-size="10.00">ngp_utils/NgpFieldUtils.h</text>
</a>
</g>
</g>
<!-- Node1&#45;&gt;Node32 -->
<g id="edge31" class="edge">
<title>Node1&#45;&gt;Node32</title>
<path fill="none" stroke="midnightblue" d="M2378.06,-75.94C2717.82,-75.41 3932.76,-70.71 4317,-31 4326.36,-30.03 4336.27,-28.55 4345.78,-26.89"/>
<polygon fill="midnightblue" stroke="midnightblue" points="4346.69,-30.29 4355.9,-25.05 4345.43,-23.4 4346.69,-30.29"/>
</g>
<!-- Node33 -->
<g id="node33" class="node">
<title>Node33</title>
<g id="a_node33"><a xlink:title=" ">
<polygon fill="white" stroke="#bfbfbf" points="4482.5,-6 4482.5,-25 4603.5,-25 4603.5,-6 4482.5,-6"/>
<text text-anchor="middle" x="4543" y="-13" font-family="Helvetica,sans-Serif" font-size="10.00">stk_io/IossBridge.hpp</text>
</a>
</g>
</g>
<!-- Node1&#45;&gt;Node33 -->
<g id="edge32" class="edge">
<title>Node1&#45;&gt;Node33</title>
<path fill="none" stroke="midnightblue" d="M2378.16,-76.35C2734.5,-77.39 4057.05,-77.96 4473,-31 4481.15,-30.08 4489.77,-28.67 4498.05,-27.08"/>
<polygon fill="midnightblue" stroke="midnightblue" points="4498.84,-30.49 4507.95,-25.07 4497.46,-23.63 4498.84,-30.49"/>
</g>
<!-- Node34 -->
<g id="node34" class="node">
<title>Node34</title>
<g id="a_node34"><a xlink:title=" ">
<polygon fill="white" stroke="#bfbfbf" points="4622,-0.5 4622,-30.5 4774,-30.5 4774,-0.5 4622,-0.5"/>
<text text-anchor="start" x="4630" y="-18.5" font-family="Helvetica,sans-Serif" font-size="10.00">user_functions/ZalesakDisk</text>
<text text-anchor="middle" x="4698" y="-7.5" font-family="Helvetica,sans-Serif" font-size="10.00">VOFAuxFunction.h</text>
</a>
</g>
</g>
<!-- Node1&#45;&gt;Node34 -->
<g id="edge33" class="edge">
<title>Node1&#45;&gt;Node34</title>
<path fill="none" stroke="midnightblue" d="M2378.12,-76.06C2745.75,-76.02 4146.57,-73.14 4611.48,-31.02"/>
<polygon fill="midnightblue" stroke="midnightblue" points="4611.98,-34.49 4621.62,-30.08 4611.34,-27.52 4611.98,-34.49"/>
</g>
<!-- Node35 -->
<g id="node35" class="node">
<title>Node35</title>
<g id="a_node35"><a xlink:title=" ">
<polygon fill="white" stroke="#bfbfbf" points="4792,-0.5 4792,-30.5 4956,-30.5 4956,-0.5 4792,-0.5"/>
<text text-anchor="start" x="4800" y="-18.5" font-family="Helvetica,sans-Serif" font-size="10.00">user_functions/ZalesakSphere</text>
<text text-anchor="middle" x="4874" y="-7.5" font-family="Helvetica,sans-Serif" font-size="10.00">VOFAuxFunction.h</text>
</a>
</g>
</g>
<!-- Node1&#45;&gt;Node35 -->
<g id="edge34" class="edge">
<title>Node1&#45;&gt;Node35</title>
<path fill="none" stroke="midnightblue" d="M2378.01,-76.07C2762.17,-76.09 4280.78,-73.51 4781.53,-31.02"/>
<polygon fill="midnightblue" stroke="midnightblue" points="4782.06,-34.49 4791.72,-30.14 4781.46,-27.51 4782.06,-34.49"/>
</g>
<!-- Node36 -->
<g id="node36" class="node">
<title>Node36</title>
<g id="a_node36"><a xlink:title=" ">
<polygon fill="white" stroke="#bfbfbf" points="4974,-0.5 4974,-30.5 5138,-30.5 5138,-0.5 4974,-0.5"/>
<text text-anchor="start" x="4982" y="-18.5" font-family="Helvetica,sans-Serif" font-size="10.00">user_functions/DropletVOFAux</text>
<text text-anchor="middle" x="5056" y="-7.5" font-family="Helvetica,sans-Serif" font-size="10.00">Function.h</text>
</a>
</g>
</g>
<!-- Node1&#45;&gt;Node36 -->
<g id="edge35" class="edge">
<title>Node1&#45;&gt;Node36</title>
<path fill="none" stroke="midnightblue" d="M2378.33,-76.19C2780.31,-76.81 4424.94,-76.49 4963.54,-31.02"/>
<polygon fill="midnightblue" stroke="midnightblue" points="4964.06,-34.49 4973.72,-30.14 4963.46,-27.51 4964.06,-34.49"/>
</g>
<!-- Node37 -->
<g id="node37" class="node">
<title>Node37</title>
<g id="a_node37"><a xlink:title=" ">
<polygon fill="white" stroke="#bfbfbf" points="5156.5,-0.5 5156.5,-30.5 5311.5,-30.5 5311.5,-0.5 5156.5,-0.5"/>
<text text-anchor="start" x="5164.5" y="-18.5" font-family="Helvetica,sans-Serif" font-size="10.00">user_functions/SloshingTank</text>
<text text-anchor="middle" x="5234" y="-7.5" font-family="Helvetica,sans-Serif" font-size="10.00">VOFAuxFunction.h</text>
</a>
</g>
</g>
<!-- Node1&#45;&gt;Node37 -->
<g id="edge36" class="edge">
<title>Node1&#45;&gt;Node37</title>
<path fill="none" stroke="midnightblue" d="M2378.04,-75.39C2825.62,-72.22 4820.63,-56.82 5145.86,-30.93"/>
<polygon fill="midnightblue" stroke="midnightblue" points="5146.62,-34.38 5156.29,-30.04 5146.03,-27.4 5146.62,-34.38"/>
</g>
</g>
</svg>
        <g id="navigator" transform="translate(0 0)" fill="#404254">
                <rect fill="#f2f5e9" fill-opacity="0.5" stroke="#606060" stroke-width=".5" x="0" y="0" width="60" height="60"/>
                <use id="zoomplus" xlink:href="#zoomPlus" x="17" y="9" onmousedown="handleZoom(evt,'in')"/>
                <use id="zoomminus" xlink:href="#zoomMin" x="42" y="9" onmousedown="handleZoom(evt,'out')"/>
                <use id="reset" xlink:href="#resetDef" x="30" y="36" onmousedown="handleReset()"/>
                <g id="arrowUp" xlink:href="#dirArrow" transform="translate(30 24)" onmousedown="handlePan(0,-1)">
                  <use xlink:href="#rim" fill="#404040">
                        <set attributeName="fill" to="#808080" begin="arrowUp.mouseover" end="arrowUp.mouseout"/>
                  </use>
                  <path fill="none" stroke="white" stroke-width="1.5" d="M0,-3.0v7 M-2.5,-0.5L0,-3.0L2.5,-0.5"/>
                </g>
                <g id="arrowRight" xlink:href="#dirArrow" transform="rotate(90) translate(36 -43)" onmousedown="handlePan(1,0)">
                  <use xlink:href="#rim" fill="#404040">
                        <set attributeName="fill" to="#808080" begin="arrowRight.mouseover" end="arrowRight.mouseout"/>
                  </use>
                  <path fill="none" stroke="white" stroke-width="1.5" d="M0,-3.0v7 M-2.5,-0.5L0,-3.0L2.5,-0.5"/>
                </g>
                <g id="arrowDown" xlink:href="#dirArrow" transform="rotate(180) translate(-30 -48)" onmousedown="handlePan(0,1)">
                  <use xlink:href="#rim" fill="#404040">
                        <set attributeName="fill" to="#808080" begin="arrowDown.mouseover" end="arrowDown.mouseout"/>
                  </use>
                  <path fill="none" stroke="white" stroke-width="1.5" d="M0,-3.0v7 M-2.5,-0.5L0,-3.0L2.5,-0.5"/>
                </g>
                <g id="arrowLeft" xlink:href="#dirArrow" transform="rotate(270) translate(-36 17)" onmousedown="handlePan(-1,0)">
                  <use xlink:href="#rim" fill="#404040">
                        <set attributeName="fill" to="#808080" begin="arrowLeft.mouseover" end="arrowLeft.mouseout"/>
                  </use>
                  <path fill="none" stroke="white" stroke-width="1.5" d="M0,-3.0v7 M-2.5,-0.5L0,-3.0L2.5,-0.5"/>
                </g>
        </g>
        <svg viewBox="0 0 15 15" width="100%" height="30px" preserveAspectRatio="xMaxYMin meet">
         <g id="arrow_out" transform="scale(0.3 0.3)">
          <a xlink:href="_volume_of_fluid_equation_system_8_c__incl_org.svg" target="_base">
           <rect id="button" ry="5" rx="5" y="6" x="6" height="38" width="38"
                fill="#f2f5e9" fill-opacity="0.5" stroke="#606060" stroke-width="1.0"/>
           <path id="arrow"
             d="M 11.500037,31.436501 C 11.940474,20.09759 22.043105,11.32322 32.158766,21.979434 L 37.068811,17.246167 C 37.068811,17.246167 37.088388,32 37.088388,32 L 22.160133,31.978069 C 22.160133,31.978069 26.997745,27.140456 26.997745,27.140456 C 18.528582,18.264221 13.291696,25.230495 11.500037,31.436501 z"
             style="fill:#404040;"/>
          </a>
         </g>
        </svg>
</svg>
