<?xml version="1.0" encoding="UTF-8" standalone="no"?>
<!DOCTYPE svg PUBLIC "-//W3C//DTD SVG 1.1//EN"
 "http://www.w3.org/Graphics/SVG/1.1/DTD/svg11.dtd">
<!-- Generated by graphviz version 2.43.0 (0)
 -->
<!-- Title: WallDistEdgeSolverAlg.C Pages: 1 -->
<svg width="439pt" height="95pt"
 viewBox="0.00 0.00 438.50 95.00" xmlns="http://www.w3.org/2000/svg" xmlns:xlink="http://www.w3.org/1999/xlink">
<g id="graph0" class="graph" transform="scale(1 1) rotate(0) translate(4 91)">
<title>WallDistEdgeSolverAlg.C</title>
<polygon fill="white" stroke="transparent" points="-4,4 -4,-91 434.5,-91 434.5,4 -4,4"/>
<!-- Node1 -->
<g id="node1" class="node">
<title>Node1</title>
<g id="a_node1"><a xlink:title=" ">
<polygon fill="#bfbfbf" stroke="black" points="150,-67.5 150,-86.5 287,-86.5 287,-67.5 150,-67.5"/>
<text text-anchor="middle" x="218.5" y="-74.5" font-family="Helvetica,sans-Serif" font-size="10.00">WallDistEdgeSolverAlg.C</text>
</a>
</g>
</g>
<!-- Node2 -->
<g id="node2" class="node">
<title>Node2</title>
<g id="a_node2"><a xlink:title=" ">
<polygon fill="white" stroke="#bfbfbf" points="0,-0.5 0,-30.5 149,-30.5 149,-0.5 0,-0.5"/>
<text text-anchor="start" x="8" y="-18.5" font-family="Helvetica,sans-Serif" font-size="10.00">edge_kernels/WallDistEdge</text>
<text text-anchor="middle" x="74.5" y="-7.5" font-family="Helvetica,sans-Serif" font-size="10.00">SolverAlg.h</text>
</a>
</g>
</g>
<!-- Node1&#45;&gt;Node2 -->
<g id="edge1" class="edge">
<title>Node1&#45;&gt;Node2</title>
<path fill="none" stroke="midnightblue" d="M197.87,-67.48C177.09,-58.89 144.4,-45.38 117.89,-34.43"/>
<polygon fill="midnightblue" stroke="midnightblue" points="119.02,-31.11 108.44,-30.52 116.34,-37.58 119.02,-31.11"/>
</g>
<!-- Node3 -->
<g id="node3" class="node">
<title>Node3</title>
<g id="a_node3"><a xlink:title=" ">
<polygon fill="white" stroke="#bfbfbf" points="167,-6 167,-25 270,-25 270,-6 167,-6"/>
<text text-anchor="middle" x="218.5" y="-13" font-family="Helvetica,sans-Serif" font-size="10.00">utils/StkHelpers.h</text>
</a>
</g>
</g>
<!-- Node1&#45;&gt;Node3 -->
<g id="edge2" class="edge">
<title>Node1&#45;&gt;Node3</title>
<path fill="none" stroke="midnightblue" d="M218.5,-67.48C218.5,-59.08 218.5,-45.98 218.5,-35.16"/>
<polygon fill="midnightblue" stroke="midnightblue" points="222,-35.01 218.5,-25.01 215,-35.01 222,-35.01"/>
</g>
<!-- Node4 -->
<g id="node4" class="node">
<title>Node4</title>
<g id="a_node4"><a xlink:title=" ">
<polygon fill="white" stroke="#bfbfbf" points="288.5,-6 288.5,-25 430.5,-25 430.5,-6 288.5,-6"/>
<text text-anchor="middle" x="359.5" y="-13" font-family="Helvetica,sans-Serif" font-size="10.00">stk_mesh/base/Types.hpp</text>
</a>
</g>
</g>
<!-- Node1&#45;&gt;Node4 -->
<g id="edge3" class="edge">
<title>Node1&#45;&gt;Node4</title>
<path fill="none" stroke="midnightblue" d="M238.7,-67.48C262.57,-57.4 302.5,-40.55 329.87,-29"/>
<polygon fill="midnightblue" stroke="midnightblue" points="331.48,-32.12 339.34,-25.01 328.76,-25.67 331.48,-32.12"/>
</g>
</g>
</svg>
