<?xml version="1.0" encoding="UTF-8" standalone="no"?>
<!DOCTYPE svg PUBLIC "-//W3C//DTD SVG 1.1//EN"
 "http://www.w3.org/Graphics/SVG/1.1/DTD/svg11.dtd">
<!-- Generated by graphviz version 2.43.0 (0)
 -->
<!-- Title: WallDistElemKernel.C Pages: 1 -->
<svg width="1407pt" height="95pt"
 viewBox="0.00 0.00 1407.00 95.00" xmlns="http://www.w3.org/2000/svg" xmlns:xlink="http://www.w3.org/1999/xlink">
<g id="graph0" class="graph" transform="scale(1 1) rotate(0) translate(4 91)">
<title>WallDistElemKernel.C</title>
<polygon fill="white" stroke="transparent" points="-4,4 -4,-91 1403,-91 1403,4 -4,4"/>
<!-- Node1 -->
<g id="node1" class="node">
<title>Node1</title>
<g id="a_node1"><a xlink:title=" ">
<polygon fill="#bfbfbf" stroke="black" points="700.5,-67.5 700.5,-86.5 822.5,-86.5 822.5,-67.5 700.5,-67.5"/>
<text text-anchor="middle" x="761.5" y="-74.5" font-family="Helvetica,sans-Serif" font-size="10.00">WallDistElemKernel.C</text>
</a>
</g>
</g>
<!-- Node2 -->
<g id="node2" class="node">
<title>Node2</title>
<g id="a_node2"><a xlink:title=" ">
<polygon fill="white" stroke="#bfbfbf" points="0,-6 0,-25 155,-25 155,-6 0,-6"/>
<text text-anchor="middle" x="77.5" y="-13" font-family="Helvetica,sans-Serif" font-size="10.00">kernel/WallDistElemKernel.h</text>
</a>
</g>
</g>
<!-- Node1&#45;&gt;Node2 -->
<g id="edge1" class="edge">
<title>Node1&#45;&gt;Node2</title>
<path fill="none" stroke="midnightblue" d="M700.3,-73.21C591.99,-67.86 359.53,-54.55 164.5,-31 154.58,-29.8 144.07,-28.27 133.9,-26.66"/>
<polygon fill="midnightblue" stroke="midnightblue" points="134.33,-23.18 123.89,-25.03 133.2,-30.09 134.33,-23.18"/>
</g>
<!-- Node3 -->
<g id="node3" class="node">
<title>Node3</title>
<g id="a_node3"><a xlink:title=" ">
<polygon fill="white" stroke="#bfbfbf" points="173.5,-6 173.5,-25 241.5,-25 241.5,-6 173.5,-6"/>
<text text-anchor="middle" x="207.5" y="-13" font-family="Helvetica,sans-Serif" font-size="10.00">AlgTraits.h</text>
</a>
</g>
</g>
<!-- Node1&#45;&gt;Node3 -->
<g id="edge2" class="edge">
<title>Node1&#45;&gt;Node3</title>
<path fill="none" stroke="midnightblue" d="M700.25,-75.28C603.65,-73.1 410.45,-64.51 250.5,-31 246.81,-30.23 243,-29.24 239.25,-28.14"/>
<polygon fill="midnightblue" stroke="midnightblue" points="240.13,-24.75 229.54,-25.05 238.01,-31.42 240.13,-24.75"/>
</g>
<!-- Node4 -->
<g id="node4" class="node">
<title>Node4</title>
<g id="a_node4"><a xlink:title=" ">
<polygon fill="white" stroke="#bfbfbf" points="260,-6 260,-25 443,-25 443,-6 260,-6"/>
<text text-anchor="middle" x="351.5" y="-13" font-family="Helvetica,sans-Serif" font-size="10.00">master_element/MasterElement.h</text>
</a>
</g>
</g>
<!-- Node1&#45;&gt;Node4 -->
<g id="edge3" class="edge">
<title>Node1&#45;&gt;Node4</title>
<path fill="none" stroke="midnightblue" d="M702.76,-67.48C628.17,-56.65 499.67,-38 420.49,-26.51"/>
<polygon fill="midnightblue" stroke="midnightblue" points="420.53,-22.98 410.13,-25.01 419.53,-29.91 420.53,-22.98"/>
</g>
<!-- Node5 -->
<g id="node5" class="node">
<title>Node5</title>
<g id="a_node5"><a xlink:title=" ">
<polygon fill="white" stroke="#bfbfbf" points="461.5,-0.5 461.5,-30.5 635.5,-30.5 635.5,-0.5 461.5,-0.5"/>
<text text-anchor="start" x="469.5" y="-18.5" font-family="Helvetica,sans-Serif" font-size="10.00">master_element/MasterElement</text>
<text text-anchor="middle" x="548.5" y="-7.5" font-family="Helvetica,sans-Serif" font-size="10.00">Repo.h</text>
</a>
</g>
</g>
<!-- Node1&#45;&gt;Node5 -->
<g id="edge4" class="edge">
<title>Node1&#45;&gt;Node5</title>
<path fill="none" stroke="midnightblue" d="M730.98,-67.48C699.1,-58.57 648.27,-44.37 608.34,-33.22"/>
<polygon fill="midnightblue" stroke="midnightblue" points="609.27,-29.84 598.7,-30.52 607.39,-36.58 609.27,-29.84"/>
</g>
<!-- Node6 -->
<g id="node6" class="node">
<title>Node6</title>
<g id="a_node6"><a xlink:title=" ">
<polygon fill="white" stroke="#bfbfbf" points="653.5,-6 653.5,-25 751.5,-25 751.5,-6 653.5,-6"/>
<text text-anchor="middle" x="702.5" y="-13" font-family="Helvetica,sans-Serif" font-size="10.00">TimeIntegrator.h</text>
</a>
</g>
</g>
<!-- Node1&#45;&gt;Node6 -->
<g id="edge5" class="edge">
<title>Node1&#45;&gt;Node6</title>
<path fill="none" stroke="midnightblue" d="M753.05,-67.48C743.93,-58.28 729.23,-43.46 718.02,-32.16"/>
<polygon fill="midnightblue" stroke="midnightblue" points="720.46,-29.65 710.94,-25.01 715.49,-34.57 720.46,-29.65"/>
</g>
<!-- Node7 -->
<g id="node7" class="node">
<title>Node7</title>
<g id="a_node7"><a xlink:title=" ">
<polygon fill="white" stroke="#bfbfbf" points="770,-6 770,-25 873,-25 873,-6 770,-6"/>
<text text-anchor="middle" x="821.5" y="-13" font-family="Helvetica,sans-Serif" font-size="10.00">SolutionOptions.h</text>
</a>
</g>
</g>
<!-- Node1&#45;&gt;Node7 -->
<g id="edge6" class="edge">
<title>Node1&#45;&gt;Node7</title>
<path fill="none" stroke="midnightblue" d="M770.1,-67.48C779.36,-58.28 794.32,-43.46 805.71,-32.16"/>
<polygon fill="midnightblue" stroke="midnightblue" points="808.28,-34.54 812.92,-25.01 803.35,-29.57 808.28,-34.54"/>
</g>
<!-- Node8 -->
<g id="node8" class="node">
<title>Node8</title>
<g id="a_node8"><a xlink:title=" ">
<polygon fill="white" stroke="#bfbfbf" points="891,-6 891,-25 992,-25 992,-6 891,-6"/>
<text text-anchor="middle" x="941.5" y="-13" font-family="Helvetica,sans-Serif" font-size="10.00">BuildTemplates.h</text>
</a>
</g>
</g>
<!-- Node1&#45;&gt;Node8 -->
<g id="edge7" class="edge">
<title>Node1&#45;&gt;Node8</title>
<path fill="none" stroke="midnightblue" d="M787.29,-67.48C818.43,-57.18 870.98,-39.81 905.95,-28.25"/>
<polygon fill="midnightblue" stroke="midnightblue" points="907.36,-31.47 915.76,-25.01 905.16,-24.82 907.36,-31.47"/>
</g>
<!-- Node9 -->
<g id="node9" class="node">
<title>Node9</title>
<g id="a_node9"><a xlink:title=" ">
<polygon fill="white" stroke="#bfbfbf" points="1010,-6 1010,-25 1101,-25 1101,-6 1010,-6"/>
<text text-anchor="middle" x="1055.5" y="-13" font-family="Helvetica,sans-Serif" font-size="10.00">ScratchViews.h</text>
</a>
</g>
</g>
<!-- Node1&#45;&gt;Node9 -->
<g id="edge8" class="edge">
<title>Node1&#45;&gt;Node9</title>
<path fill="none" stroke="midnightblue" d="M813.24,-67.48C862,-59.18 937.02,-45.68 1001.5,-31 1005.99,-29.98 1010.66,-28.84 1015.31,-27.66"/>
<polygon fill="midnightblue" stroke="midnightblue" points="1016.54,-30.95 1025.33,-25.04 1014.77,-24.18 1016.54,-30.95"/>
</g>
<!-- Node10 -->
<g id="node10" class="node">
<title>Node10</title>
<g id="a_node10"><a xlink:title=" ">
<polygon fill="white" stroke="#bfbfbf" points="1119,-6 1119,-25 1222,-25 1222,-6 1119,-6"/>
<text text-anchor="middle" x="1170.5" y="-13" font-family="Helvetica,sans-Serif" font-size="10.00">utils/StkHelpers.h</text>
</a>
</g>
</g>
<!-- Node1&#45;&gt;Node10 -->
<g id="edge9" class="edge">
<title>Node1&#45;&gt;Node10</title>
<path fill="none" stroke="midnightblue" d="M822.65,-70.15C892.58,-63 1010.32,-49.51 1110.5,-31 1116.24,-29.94 1122.25,-28.67 1128.16,-27.34"/>
<polygon fill="midnightblue" stroke="midnightblue" points="1129,-30.74 1137.94,-25.05 1127.41,-23.92 1129,-30.74"/>
</g>
<!-- Node11 -->
<g id="node11" class="node">
<title>Node11</title>
<g id="a_node11"><a xlink:title=" ">
<polygon fill="white" stroke="#bfbfbf" points="1240,-6 1240,-25 1399,-25 1399,-6 1240,-6"/>
<text text-anchor="middle" x="1319.5" y="-13" font-family="Helvetica,sans-Serif" font-size="10.00">stk_mesh/base/BulkData.hpp</text>
</a>
</g>
</g>
<!-- Node1&#45;&gt;Node11 -->
<g id="edge10" class="edge">
<title>Node1&#45;&gt;Node11</title>
<path fill="none" stroke="midnightblue" d="M822.86,-71.46C912.75,-64.51 1085.39,-50.01 1231.5,-31 1241.07,-29.75 1251.2,-28.26 1261.05,-26.7"/>
<polygon fill="midnightblue" stroke="midnightblue" points="1261.86,-30.12 1271.17,-25.07 1260.74,-23.21 1261.86,-30.12"/>
</g>
</g>
</svg>
