<?xml version="1.0" encoding="UTF-8" standalone="no"?>
<!DOCTYPE svg PUBLIC "-//W3C//DTD SVG 1.1//EN"
 "http://www.w3.org/Graphics/SVG/1.1/DTD/svg11.dtd">
<!-- Generated by graphviz version 2.43.0 (0)
 -->
<!-- Title: WallDistEquationSystem.C Pages: 1 -->
<!--zoomable 95 -->
<svg id="main" version="1.1" xmlns="http://www.w3.org/2000/svg" xmlns:xlink="http://www.w3.org/1999/xlink" xml:space="preserve" onload="init(evt)">
<style type="text/css"><![CDATA[
.edge:hover path { stroke: red; }
.edge:hover polygon { stroke: red; fill: red; }
]]></style>
<script type="text/javascript"><![CDATA[
var edges = document.getElementsByTagName('g');
if (edges && edges.length) {
  for (var i=0;i<edges.length;i++) {
    if (edges[i].id.substr(0,4)=='edge') {
      edges[i].setAttribute('class','edge');
    }
  }
}
]]></script>
        <defs>
                <circle id="rim" cx="0" cy="0" r="7"/>
                <circle id="rim2" cx="0" cy="0" r="3.5"/>
                <g id="zoomPlus">
                        <use xlink:href="#rim" fill="#404040">
                                <set attributeName="fill" to="#808080" begin="zoomplus.mouseover" end="zoomplus.mouseout"/>
                        </use>
                        <path d="M-4,0h8M0,-4v8" fill="none" stroke="white" stroke-width="1.5" pointer-events="none"/>
                </g>
                <g id="zoomMin">
                        <use xlink:href="#rim" fill="#404040">
                                <set attributeName="fill" to="#808080" begin="zoomminus.mouseover" end="zoomminus.mouseout"/>
                        </use>
                        <path d="M-4,0h8" fill="none" stroke="white" stroke-width="1.5" pointer-events="none"/>
                </g>
                <g id="dirArrow">
                        <path fill="none" stroke="white" stroke-width="1.5" d="M0,-3.0v7 M-2.5,-0.5L0,-3.0L2.5,-0.5"/>
                </g>
               <g id="resetDef">
                       <use xlink:href="#rim2" fill="#404040">
                               <set attributeName="fill" to="#808080" begin="reset.mouseover" end="reset.mouseout"/>
                       </use>
               </g>
        </defs>

<script type="text/javascript">
var viewWidth = 6303;
var viewHeight = 95;
var sectionId = 'dynsection-0';
</script>
<script xlink:href="svgpan.js"/>
<svg id="graph" class="graph">
<g id="viewport">
<title>WallDistEquationSystem.C</title>
<polygon fill="white" stroke="transparent" points="-4,4 -4,-91 6298.5,-91 6298.5,4 -4,4"/>
<!-- Node1 -->
<g id="node1" class="node">
<title>Node1</title>
<g id="a_node1"><a xlink:title=" ">
<polygon fill="#bfbfbf" stroke="black" points="2619,-67.5 2619,-86.5 2765,-86.5 2765,-67.5 2619,-67.5"/>
<text text-anchor="middle" x="2692" y="-74.5" font-family="Helvetica,sans-Serif" font-size="10.00">WallDistEquationSystem.C</text>
</a>
</g>
</g>
<!-- Node2 -->
<g id="node2" class="node">
<title>Node2</title>
<g id="a_node2"><a xlink:title=" ">
<polygon fill="white" stroke="#bfbfbf" points="0,-6 0,-25 146,-25 146,-6 0,-6"/>
<text text-anchor="middle" x="73" y="-13" font-family="Helvetica,sans-Serif" font-size="10.00">WallDistEquationSystem.h</text>
</a>
</g>
</g>
<!-- Node1&#45;&gt;Node2 -->
<g id="edge1" class="edge">
<title>Node1&#45;&gt;Node2</title>
<path fill="none" stroke="midnightblue" d="M2618.78,-76.26C2256.32,-77.29 651.71,-79.02 155,-31 144.96,-30.03 134.31,-28.51 124.12,-26.82"/>
<polygon fill="midnightblue" stroke="midnightblue" points="124.57,-23.34 114.12,-25.08 123.37,-30.24 124.57,-23.34"/>
</g>
<!-- Node3 -->
<g id="node3" class="node">
<title>Node3</title>
<g id="a_node3"><a xlink:title=" ">
<polygon fill="white" stroke="#bfbfbf" points="164,-0.5 164,-30.5 340,-30.5 340,-0.5 164,-0.5"/>
<text text-anchor="start" x="172" y="-18.5" font-family="Helvetica,sans-Serif" font-size="10.00">AssembleWallDistNonConformal</text>
<text text-anchor="middle" x="252" y="-7.5" font-family="Helvetica,sans-Serif" font-size="10.00">Algorithm.h</text>
</a>
</g>
</g>
<!-- Node1&#45;&gt;Node3 -->
<g id="edge2" class="edge">
<title>Node1&#45;&gt;Node3</title>
<path fill="none" stroke="midnightblue" d="M2618.76,-75.87C2275.89,-75.06 826.46,-69.44 350.27,-31.01"/>
<polygon fill="midnightblue" stroke="midnightblue" points="350.48,-27.52 340.23,-30.18 349.91,-34.49 350.48,-27.52"/>
</g>
<!-- Node4 -->
<g id="node4" class="node">
<title>Node4</title>
<g id="a_node4"><a xlink:title=" ">
<polygon fill="white" stroke="#bfbfbf" points="358,-6 358,-25 444,-25 444,-6 358,-6"/>
<text text-anchor="middle" x="401" y="-13" font-family="Helvetica,sans-Serif" font-size="10.00">AuxFunction.h</text>
</a>
</g>
</g>
<!-- Node1&#45;&gt;Node4 -->
<g id="edge3" class="edge">
<title>Node1&#45;&gt;Node4</title>
<path fill="none" stroke="midnightblue" d="M2618.93,-75.62C2257.66,-73.62 670.93,-63.05 453,-31 447.55,-30.2 441.87,-29 436.34,-27.63"/>
<polygon fill="midnightblue" stroke="midnightblue" points="437.21,-24.24 426.64,-25.03 435.4,-31 437.21,-24.24"/>
</g>
<!-- Node5 -->
<g id="node5" class="node">
<title>Node5</title>
<g id="a_node5"><a xlink:title=" ">
<polygon fill="white" stroke="#bfbfbf" points="462,-6 462,-25 596,-25 596,-6 462,-6"/>
<text text-anchor="middle" x="529" y="-13" font-family="Helvetica,sans-Serif" font-size="10.00">AuxFunctionAlgorithm.h</text>
</a>
</g>
</g>
<!-- Node1&#45;&gt;Node5 -->
<g id="edge4" class="edge">
<title>Node1&#45;&gt;Node5</title>
<path fill="none" stroke="midnightblue" d="M2618.84,-76.06C2297.28,-76.08 1007.65,-73.45 605,-31 595.88,-30.04 586.21,-28.56 576.94,-26.9"/>
<polygon fill="midnightblue" stroke="midnightblue" points="577.56,-23.46 567.09,-25.06 576.27,-30.34 577.56,-23.46"/>
</g>
<!-- Node6 -->
<g id="node6" class="node">
<title>Node6</title>
<g id="a_node6"><a xlink:title=" ">
<polygon fill="white" stroke="#bfbfbf" points="614.5,-6 614.5,-25 743.5,-25 743.5,-6 614.5,-6"/>
<text text-anchor="middle" x="679" y="-13" font-family="Helvetica,sans-Serif" font-size="10.00">ConstantAuxFunction.h</text>
</a>
</g>
</g>
<!-- Node1&#45;&gt;Node6 -->
<g id="edge5" class="edge">
<title>Node1&#45;&gt;Node6</title>
<path fill="none" stroke="midnightblue" d="M2618.92,-75.97C2311.86,-75.58 1124.88,-71.45 753,-31 744.21,-30.04 734.9,-28.58 725.96,-26.95"/>
<polygon fill="midnightblue" stroke="midnightblue" points="726.56,-23.5 716.08,-25.05 725.24,-30.37 726.56,-23.5"/>
</g>
<!-- Node7 -->
<g id="node7" class="node">
<title>Node7</title>
<g id="a_node7"><a xlink:title=" ">
<polygon fill="white" stroke="#bfbfbf" points="762,-6 762,-25 884,-25 884,-6 762,-6"/>
<text text-anchor="middle" x="823" y="-13" font-family="Helvetica,sans-Serif" font-size="10.00">CopyFieldAlgorithm.h</text>
</a>
</g>
</g>
<!-- Node1&#45;&gt;Node7 -->
<g id="edge6" class="edge">
<title>Node1&#45;&gt;Node7</title>
<path fill="none" stroke="midnightblue" d="M2618.55,-75.92C2325.02,-75.32 1235.57,-70.44 893,-31 884.85,-30.06 876.24,-28.64 867.95,-27.05"/>
<polygon fill="midnightblue" stroke="midnightblue" points="868.55,-23.6 858.05,-25.04 867.16,-30.46 868.55,-23.6"/>
</g>
<!-- Node8 -->
<g id="node8" class="node">
<title>Node8</title>
<g id="a_node8"><a xlink:title=" ">
<polygon fill="white" stroke="#bfbfbf" points="902,-6 902,-25 982,-25 982,-6 902,-6"/>
<text text-anchor="middle" x="942" y="-13" font-family="Helvetica,sans-Serif" font-size="10.00">DirichletBC.h</text>
</a>
</g>
</g>
<!-- Node1&#45;&gt;Node8 -->
<g id="edge7" class="edge">
<title>Node1&#45;&gt;Node8</title>
<path fill="none" stroke="midnightblue" d="M2618.78,-75.19C2313.84,-71.66 1152.98,-56.66 991,-31 986.11,-30.23 981.02,-29.1 976.06,-27.81"/>
<polygon fill="midnightblue" stroke="midnightblue" points="976.71,-24.36 966.14,-25 974.81,-31.1 976.71,-24.36"/>
</g>
<!-- Node9 -->
<g id="node9" class="node">
<title>Node9</title>
<g id="a_node9"><a xlink:title=" ">
<polygon fill="white" stroke="#bfbfbf" points="1000.5,-6 1000.5,-25 1059.5,-25 1059.5,-6 1000.5,-6"/>
<text text-anchor="middle" x="1030" y="-13" font-family="Helvetica,sans-Serif" font-size="10.00">Enums.h</text>
</a>
</g>
</g>
<!-- Node1&#45;&gt;Node9 -->
<g id="edge8" class="edge">
<title>Node1&#45;&gt;Node9</title>
<path fill="none" stroke="midnightblue" d="M2618.81,-75.42C2322.58,-72.87 1221.02,-61.4 1068,-31 1064.74,-30.35 1061.4,-29.46 1058.12,-28.42"/>
<polygon fill="midnightblue" stroke="midnightblue" points="1059.17,-25.08 1048.57,-25.02 1056.82,-31.67 1059.17,-25.08"/>
</g>
<!-- Node10 -->
<g id="node10" class="node">
<title>Node10</title>
<g id="a_node10"><a xlink:title=" ">
<polygon fill="white" stroke="#bfbfbf" points="1077.5,-6 1077.5,-25 1196.5,-25 1196.5,-6 1077.5,-6"/>
<text text-anchor="middle" x="1137" y="-13" font-family="Helvetica,sans-Serif" font-size="10.00">ElemDataRequests.h</text>
</a>
</g>
</g>
<!-- Node1&#45;&gt;Node10 -->
<g id="edge9" class="edge">
<title>Node1&#45;&gt;Node10</title>
<path fill="none" stroke="midnightblue" d="M2618.8,-75.53C2359.22,-73.58 1483.37,-64.61 1205,-31 1197.16,-30.05 1188.89,-28.64 1180.92,-27.07"/>
<polygon fill="midnightblue" stroke="midnightblue" points="1181.55,-23.63 1171.04,-25.01 1180.12,-30.48 1181.55,-23.63"/>
</g>
<!-- Node11 -->
<g id="node11" class="node">
<title>Node11</title>
<g id="a_node11"><a xlink:title=" ">
<polygon fill="white" stroke="#bfbfbf" points="1214.5,-6 1214.5,-25 1319.5,-25 1319.5,-6 1214.5,-6"/>
<text text-anchor="middle" x="1267" y="-13" font-family="Helvetica,sans-Serif" font-size="10.00">EquationSystem.h</text>
</a>
</g>
</g>
<!-- Node1&#45;&gt;Node11 -->
<g id="edge10" class="edge">
<title>Node1&#45;&gt;Node11</title>
<path fill="none" stroke="midnightblue" d="M2618.59,-75.48C2373.04,-73.44 1581.62,-64.38 1329,-31 1322.15,-30.1 1314.95,-28.77 1307.98,-27.28"/>
<polygon fill="midnightblue" stroke="midnightblue" points="1308.53,-23.81 1298,-25.01 1306.98,-30.64 1308.53,-23.81"/>
</g>
<!-- Node12 -->
<g id="node12" class="node">
<title>Node12</title>
<g id="a_node12"><a xlink:title=" ">
<polygon fill="white" stroke="#bfbfbf" points="1338,-6 1338,-25 1448,-25 1448,-6 1338,-6"/>
<text text-anchor="middle" x="1393" y="-13" font-family="Helvetica,sans-Serif" font-size="10.00">EquationSystems.h</text>
</a>
</g>
</g>
<!-- Node1&#45;&gt;Node12 -->
<g id="edge11" class="edge">
<title>Node1&#45;&gt;Node12</title>
<path fill="none" stroke="midnightblue" d="M2618.76,-75.12C2388.91,-72.09 1683.71,-60.55 1457,-31 1450.02,-30.09 1442.67,-28.77 1435.55,-27.3"/>
<polygon fill="midnightblue" stroke="midnightblue" points="1435.87,-23.79 1425.35,-25.06 1434.36,-30.62 1435.87,-23.79"/>
</g>
<!-- Node13 -->
<g id="node13" class="node">
<title>Node13</title>
<g id="a_node13"><a xlink:title=" ">
<polygon fill="white" stroke="#bfbfbf" points="1466,-6 1466,-25 1552,-25 1552,-6 1466,-6"/>
<text text-anchor="middle" x="1509" y="-13" font-family="Helvetica,sans-Serif" font-size="10.00">LinearSolver.h</text>
</a>
</g>
</g>
<!-- Node1&#45;&gt;Node13 -->
<g id="edge12" class="edge">
<title>Node1&#45;&gt;Node13</title>
<path fill="none" stroke="midnightblue" d="M2618.82,-75.3C2402.08,-72.9 1765.93,-63.2 1561,-31 1555.75,-30.18 1550.28,-29.01 1544.94,-27.68"/>
<polygon fill="midnightblue" stroke="midnightblue" points="1545.49,-24.21 1534.93,-25 1543.68,-30.97 1545.49,-24.21"/>
</g>
<!-- Node14 -->
<g id="node14" class="node">
<title>Node14</title>
<g id="a_node14"><a xlink:title=" ">
<polygon fill="white" stroke="#bfbfbf" points="1570,-6 1570,-25 1662,-25 1662,-6 1570,-6"/>
<text text-anchor="middle" x="1616" y="-13" font-family="Helvetica,sans-Serif" font-size="10.00">LinearSolvers.h</text>
</a>
</g>
</g>
<!-- Node1&#45;&gt;Node14 -->
<g id="edge13" class="edge">
<title>Node1&#45;&gt;Node14</title>
<path fill="none" stroke="midnightblue" d="M2618.84,-74.81C2416.8,-71.18 1853.98,-58.82 1671,-31 1665.39,-30.15 1659.52,-28.94 1653.8,-27.59"/>
<polygon fill="midnightblue" stroke="midnightblue" points="1654.29,-24.11 1643.74,-25.05 1652.57,-30.89 1654.29,-24.11"/>
</g>
<!-- Node15 -->
<g id="node15" class="node">
<title>Node15</title>
<g id="a_node15"><a xlink:title=" ">
<polygon fill="white" stroke="#bfbfbf" points="1680,-6 1680,-25 1772,-25 1772,-6 1680,-6"/>
<text text-anchor="middle" x="1726" y="-13" font-family="Helvetica,sans-Serif" font-size="10.00">LinearSystem.h</text>
</a>
</g>
</g>
<!-- Node1&#45;&gt;Node15 -->
<g id="edge14" class="edge">
<title>Node1&#45;&gt;Node15</title>
<path fill="none" stroke="midnightblue" d="M2618.75,-74.35C2432.07,-69.83 1941.89,-55.9 1781,-31 1775.39,-30.13 1769.52,-28.92 1763.8,-27.57"/>
<polygon fill="midnightblue" stroke="midnightblue" points="1764.3,-24.08 1753.74,-25.02 1762.58,-30.87 1764.3,-24.08"/>
</g>
<!-- Node16 -->
<g id="node16" class="node">
<title>Node16</title>
<g id="a_node16"><a xlink:title=" ">
<polygon fill="white" stroke="#bfbfbf" points="1790.5,-6 1790.5,-25 1873.5,-25 1873.5,-6 1790.5,-6"/>
<text text-anchor="middle" x="1832" y="-13" font-family="Helvetica,sans-Serif" font-size="10.00">NaluParsing.h</text>
</a>
</g>
</g>
<!-- Node1&#45;&gt;Node16 -->
<g id="edge15" class="edge">
<title>Node1&#45;&gt;Node16</title>
<path fill="none" stroke="midnightblue" d="M2618.86,-74C2447.38,-68.99 2023.38,-54.56 1883,-31 1877.91,-30.15 1872.6,-28.97 1867.42,-27.66"/>
<polygon fill="midnightblue" stroke="midnightblue" points="1868.26,-24.26 1857.69,-25 1866.42,-31.01 1868.26,-24.26"/>
</g>
<!-- Node17 -->
<g id="node17" class="node">
<title>Node17</title>
<g id="a_node17"><a xlink:title=" ">
<polygon fill="white" stroke="#bfbfbf" points="1892,-6 1892,-25 2030,-25 2030,-6 1892,-6"/>
<text text-anchor="middle" x="1961" y="-13" font-family="Helvetica,sans-Serif" font-size="10.00">NonConformalManager.h</text>
</a>
</g>
</g>
<!-- Node1&#45;&gt;Node17 -->
<g id="edge16" class="edge">
<title>Node1&#45;&gt;Node17</title>
<path fill="none" stroke="midnightblue" d="M2618.77,-73.7C2497.71,-69.28 2248.4,-57.59 2039,-31 2030.26,-29.89 2021.03,-28.43 2012.08,-26.87"/>
<polygon fill="midnightblue" stroke="midnightblue" points="2012.61,-23.4 2002.15,-25.07 2011.37,-30.29 2012.61,-23.4"/>
</g>
<!-- Node18 -->
<g id="node18" class="node">
<title>Node18</title>
<g id="a_node18"><a xlink:title=" ">
<polygon fill="white" stroke="#bfbfbf" points="2048.5,-6 2048.5,-25 2105.5,-25 2105.5,-6 2048.5,-6"/>
<text text-anchor="middle" x="2077" y="-13" font-family="Helvetica,sans-Serif" font-size="10.00">Realm.h</text>
</a>
</g>
</g>
<!-- Node1&#45;&gt;Node18 -->
<g id="edge17" class="edge">
<title>Node1&#45;&gt;Node18</title>
<path fill="none" stroke="midnightblue" d="M2618.59,-76.95C2508,-76.89 2292.68,-70.95 2115,-31 2112,-30.32 2108.91,-29.46 2105.87,-28.49"/>
<polygon fill="midnightblue" stroke="midnightblue" points="2106.99,-25.17 2096.39,-25.13 2104.65,-31.77 2106.99,-25.17"/>
</g>
<!-- Node19 -->
<g id="node19" class="node">
<title>Node19</title>
<g id="a_node19"><a xlink:title=" ">
<polygon fill="white" stroke="#bfbfbf" points="2124,-6 2124,-25 2186,-25 2186,-6 2124,-6"/>
<text text-anchor="middle" x="2155" y="-13" font-family="Helvetica,sans-Serif" font-size="10.00">Realms.h</text>
</a>
</g>
</g>
<!-- Node1&#45;&gt;Node19 -->
<g id="edge18" class="edge">
<title>Node1&#45;&gt;Node19</title>
<path fill="none" stroke="midnightblue" d="M2618.67,-75.23C2520.9,-72.88 2342.99,-63.94 2195,-31 2191.76,-30.28 2188.42,-29.36 2185.11,-28.34"/>
<polygon fill="midnightblue" stroke="midnightblue" points="2186.05,-24.96 2175.46,-25.06 2183.8,-31.59 2186.05,-24.96"/>
</g>
<!-- Node20 -->
<g id="node20" class="node">
<title>Node20</title>
<g id="a_node20"><a xlink:title=" ">
<polygon fill="white" stroke="#bfbfbf" points="2204,-6 2204,-25 2282,-25 2282,-6 2204,-6"/>
<text text-anchor="middle" x="2243" y="-13" font-family="Helvetica,sans-Serif" font-size="10.00">Simulation.h</text>
</a>
</g>
</g>
<!-- Node1&#45;&gt;Node20 -->
<g id="edge19" class="edge">
<title>Node1&#45;&gt;Node20</title>
<path fill="none" stroke="midnightblue" d="M2618.94,-71.8C2538.08,-66.23 2404.23,-54.25 2291,-31 2286.78,-30.13 2282.4,-29.06 2278.07,-27.89"/>
<polygon fill="midnightblue" stroke="midnightblue" points="2278.77,-24.45 2268.19,-25.05 2276.83,-31.18 2278.77,-24.45"/>
</g>
<!-- Node21 -->
<g id="node21" class="node">
<title>Node21</title>
<g id="a_node21"><a xlink:title=" ">
<polygon fill="white" stroke="#bfbfbf" points="2300.5,-6 2300.5,-25 2403.5,-25 2403.5,-6 2300.5,-6"/>
<text text-anchor="middle" x="2352" y="-13" font-family="Helvetica,sans-Serif" font-size="10.00">SolutionOptions.h</text>
</a>
</g>
</g>
<!-- Node1&#45;&gt;Node21 -->
<g id="edge20" class="edge">
<title>Node1&#45;&gt;Node21</title>
<path fill="none" stroke="midnightblue" d="M2631.09,-67.49C2574.41,-59.26 2487.7,-45.88 2413,-31 2407.53,-29.91 2401.8,-28.68 2396.14,-27.4"/>
<polygon fill="midnightblue" stroke="midnightblue" points="2396.63,-23.92 2386.1,-25.07 2395.05,-30.74 2396.63,-23.92"/>
</g>
<!-- Node22 -->
<g id="node22" class="node">
<title>Node22</title>
<g id="a_node22"><a xlink:title=" ">
<polygon fill="white" stroke="#bfbfbf" points="2422,-6 2422,-25 2526,-25 2526,-6 2422,-6"/>
<text text-anchor="middle" x="2474" y="-13" font-family="Helvetica,sans-Serif" font-size="10.00">SolverAlgorithm.h</text>
</a>
</g>
</g>
<!-- Node1&#45;&gt;Node22 -->
<g id="edge21" class="edge">
<title>Node1&#45;&gt;Node22</title>
<path fill="none" stroke="midnightblue" d="M2660.77,-67.48C2622.4,-57 2557.21,-39.21 2514.89,-27.66"/>
<polygon fill="midnightblue" stroke="midnightblue" points="2515.74,-24.27 2505.18,-25.01 2513.9,-31.02 2515.74,-24.27"/>
</g>
<!-- Node23 -->
<g id="node23" class="node">
<title>Node23</title>
<g id="a_node23"><a xlink:title=" ">
<polygon fill="white" stroke="#bfbfbf" points="2544,-6 2544,-25 2678,-25 2678,-6 2544,-6"/>
<text text-anchor="middle" x="2611" y="-13" font-family="Helvetica,sans-Serif" font-size="10.00">SolverAlgorithmDriver.h</text>
</a>
</g>
</g>
<!-- Node1&#45;&gt;Node23 -->
<g id="edge22" class="edge">
<title>Node1&#45;&gt;Node23</title>
<path fill="none" stroke="midnightblue" d="M2680.39,-67.48C2667.52,-58.02 2646.53,-42.6 2630.99,-31.19"/>
<polygon fill="midnightblue" stroke="midnightblue" points="2632.72,-28.11 2622.58,-25.01 2628.57,-33.75 2632.72,-28.11"/>
</g>
<!-- Node24 -->
<g id="node24" class="node">
<title>Node24</title>
<g id="a_node24"><a xlink:title=" ">
<polygon fill="white" stroke="#bfbfbf" points="2696.5,-6 2696.5,-25 2851.5,-25 2851.5,-6 2696.5,-6"/>
<text text-anchor="middle" x="2774" y="-13" font-family="Helvetica,sans-Serif" font-size="10.00">kernel/WallDistElemKernel.h</text>
</a>
</g>
</g>
<!-- Node1&#45;&gt;Node24 -->
<g id="edge23" class="edge">
<title>Node1&#45;&gt;Node24</title>
<path fill="none" stroke="midnightblue" d="M2703.75,-67.48C2716.78,-58.02 2738.04,-42.6 2753.76,-31.19"/>
<polygon fill="midnightblue" stroke="midnightblue" points="2756.23,-33.71 2762.27,-25.01 2752.12,-28.05 2756.23,-33.71"/>
</g>
<!-- Node25 -->
<g id="node25" class="node">
<title>Node25</title>
<g id="a_node25"><a xlink:title=" ">
<polygon fill="white" stroke="#bfbfbf" points="2869.5,-6 2869.5,-25 2992.5,-25 2992.5,-6 2869.5,-6"/>
<text text-anchor="middle" x="2931" y="-13" font-family="Helvetica,sans-Serif" font-size="10.00">kernel/KernelBuilder.h</text>
</a>
</g>
</g>
<!-- Node1&#45;&gt;Node25 -->
<g id="edge24" class="edge">
<title>Node1&#45;&gt;Node25</title>
<path fill="none" stroke="midnightblue" d="M2726.24,-67.48C2768.57,-56.94 2840.68,-38.99 2887.05,-27.44"/>
<polygon fill="midnightblue" stroke="midnightblue" points="2887.96,-30.82 2896.82,-25.01 2886.27,-24.03 2887.96,-30.82"/>
</g>
<!-- Node26 -->
<g id="node26" class="node">
<title>Node26</title>
<g id="a_node26"><a xlink:title=" ">
<polygon fill="white" stroke="#bfbfbf" points="3010.5,-0.5 3010.5,-30.5 3159.5,-30.5 3159.5,-0.5 3010.5,-0.5"/>
<text text-anchor="start" x="3018.5" y="-18.5" font-family="Helvetica,sans-Serif" font-size="10.00">edge_kernels/WallDistEdge</text>
<text text-anchor="middle" x="3085" y="-7.5" font-family="Helvetica,sans-Serif" font-size="10.00">SolverAlg.h</text>
</a>
</g>
</g>
<!-- Node1&#45;&gt;Node26 -->
<g id="edge25" class="edge">
<title>Node1&#45;&gt;Node26</title>
<path fill="none" stroke="midnightblue" d="M2754.43,-67.48C2814.88,-59.1 2909.41,-45.68 3000.43,-31.23"/>
<polygon fill="midnightblue" stroke="midnightblue" points="3001.04,-34.67 3010.36,-29.64 2999.93,-27.76 3001.04,-34.67"/>
</g>
<!-- Node27 -->
<g id="node27" class="node">
<title>Node27</title>
<g id="a_node27"><a xlink:title=" ">
<polygon fill="white" stroke="#bfbfbf" points="3177.5,-6 3177.5,-25 3376.5,-25 3376.5,-6 3177.5,-6"/>
<text text-anchor="middle" x="3277" y="-13" font-family="Helvetica,sans-Serif" font-size="10.00">AssembleNGPNodeSolverAlgorithm.h</text>
</a>
</g>
</g>
<!-- Node1&#45;&gt;Node27 -->
<g id="edge26" class="edge">
<title>Node1&#45;&gt;Node27</title>
<path fill="none" stroke="midnightblue" d="M2765.23,-69.99C2858.94,-62.1 3026.24,-47.31 3169,-31 3181.24,-29.6 3194.23,-27.98 3206.81,-26.33"/>
<polygon fill="midnightblue" stroke="midnightblue" points="3207.33,-29.79 3216.79,-25.01 3206.41,-22.85 3207.33,-29.79"/>
</g>
<!-- Node28 -->
<g id="node28" class="node">
<title>Node28</title>
<g id="a_node28"><a xlink:title=" ">
<polygon fill="white" stroke="#bfbfbf" points="3395,-6 3395,-25 3567,-25 3567,-6 3395,-6"/>
<text text-anchor="middle" x="3481" y="-13" font-family="Helvetica,sans-Serif" font-size="10.00">node_kernels/NodeKernelUtils.h</text>
</a>
</g>
</g>
<!-- Node1&#45;&gt;Node28 -->
<g id="edge27" class="edge">
<title>Node1&#45;&gt;Node28</title>
<path fill="none" stroke="midnightblue" d="M2765.12,-73.35C2891.84,-68.28 3160.34,-55.49 3386,-31 3397.16,-29.79 3409.02,-28.21 3420.43,-26.55"/>
<polygon fill="midnightblue" stroke="midnightblue" points="3420.95,-30.01 3430.32,-25.07 3419.92,-23.09 3420.95,-30.01"/>
</g>
<!-- Node29 -->
<g id="node29" class="node">
<title>Node29</title>
<g id="a_node29"><a xlink:title=" ">
<polygon fill="white" stroke="#bfbfbf" points="3585,-0.5 3585,-30.5 3735,-30.5 3735,-0.5 3585,-0.5"/>
<text text-anchor="start" x="3593" y="-18.5" font-family="Helvetica,sans-Serif" font-size="10.00">node_kernels/WallDistNode</text>
<text text-anchor="middle" x="3660" y="-7.5" font-family="Helvetica,sans-Serif" font-size="10.00">Kernel.h</text>
</a>
</g>
</g>
<!-- Node1&#45;&gt;Node29 -->
<g id="edge28" class="edge">
<title>Node1&#45;&gt;Node29</title>
<path fill="none" stroke="midnightblue" d="M2765.01,-75.24C2914.95,-73.05 3268.57,-64.56 3574.99,-31.01"/>
<polygon fill="midnightblue" stroke="midnightblue" points="3575.4,-34.49 3584.96,-29.91 3574.63,-27.53 3575.4,-34.49"/>
</g>
<!-- Node30 -->
<g id="node30" class="node">
<title>Node30</title>
<g id="a_node30"><a xlink:title=" ">
<polygon fill="white" stroke="#bfbfbf" points="3753.5,-0.5 3753.5,-30.5 3900.5,-30.5 3900.5,-0.5 3753.5,-0.5"/>
<text text-anchor="start" x="3761.5" y="-18.5" font-family="Helvetica,sans-Serif" font-size="10.00">ngp_algorithms/NodalGrad</text>
<text text-anchor="middle" x="3827" y="-7.5" font-family="Helvetica,sans-Serif" font-size="10.00">EdgeAlg.h</text>
</a>
</g>
</g>
<!-- Node1&#45;&gt;Node30 -->
<g id="edge29" class="edge">
<title>Node1&#45;&gt;Node30</title>
<path fill="none" stroke="midnightblue" d="M2765.26,-76.14C2935.31,-75.76 3370.07,-70.72 3743.12,-30.98"/>
<polygon fill="midnightblue" stroke="midnightblue" points="3743.74,-34.44 3753.3,-29.89 3742.99,-27.48 3743.74,-34.44"/>
</g>
<!-- Node31 -->
<g id="node31" class="node">
<title>Node31</title>
<g id="a_node31"><a xlink:title=" ">
<polygon fill="white" stroke="#bfbfbf" points="3918.5,-0.5 3918.5,-30.5 4065.5,-30.5 4065.5,-0.5 3918.5,-0.5"/>
<text text-anchor="start" x="3926.5" y="-18.5" font-family="Helvetica,sans-Serif" font-size="10.00">ngp_algorithms/NodalGrad</text>
<text text-anchor="middle" x="3992" y="-7.5" font-family="Helvetica,sans-Serif" font-size="10.00">ElemAlg.h</text>
</a>
</g>
</g>
<!-- Node1&#45;&gt;Node31 -->
<g id="edge30" class="edge">
<title>Node1&#45;&gt;Node31</title>
<path fill="none" stroke="midnightblue" d="M2765.38,-74.62C2989.93,-70.19 3666.64,-55.24 3908.18,-31.07"/>
<polygon fill="midnightblue" stroke="midnightblue" points="3908.72,-34.53 3918.31,-30.03 3908,-27.57 3908.72,-34.53"/>
</g>
<!-- Node32 -->
<g id="node32" class="node">
<title>Node32</title>
<g id="a_node32"><a xlink:title=" ">
<polygon fill="white" stroke="#bfbfbf" points="4083.5,-0.5 4083.5,-30.5 4230.5,-30.5 4230.5,-0.5 4083.5,-0.5"/>
<text text-anchor="start" x="4091.5" y="-18.5" font-family="Helvetica,sans-Serif" font-size="10.00">ngp_algorithms/NodalGrad</text>
<text text-anchor="middle" x="4157" y="-7.5" font-family="Helvetica,sans-Serif" font-size="10.00">BndryElemAlg.h</text>
</a>
</g>
</g>
<!-- Node1&#45;&gt;Node32 -->
<g id="edge31" class="edge">
<title>Node1&#45;&gt;Node32</title>
<path fill="none" stroke="midnightblue" d="M2765.13,-75C3009.56,-71.43 3797.83,-58.16 4073.34,-31.05"/>
<polygon fill="midnightblue" stroke="midnightblue" points="4073.72,-34.53 4083.31,-30.04 4073.01,-27.57 4073.72,-34.53"/>
</g>
<!-- Node33 -->
<g id="node33" class="node">
<title>Node33</title>
<g id="a_node33"><a xlink:title=" ">
<polygon fill="white" stroke="#bfbfbf" points="4248.5,-6 4248.5,-25 4417.5,-25 4417.5,-6 4248.5,-6"/>
<text text-anchor="middle" x="4333" y="-13" font-family="Helvetica,sans-Serif" font-size="10.00">ngp_algorithms/NgpAlgDriver.h</text>
</a>
</g>
</g>
<!-- Node1&#45;&gt;Node33 -->
<g id="edge32" class="edge">
<title>Node1&#45;&gt;Node33</title>
<path fill="none" stroke="midnightblue" d="M2765.37,-75.09C3031.87,-71.6 3948.34,-57.87 4240,-31 4251.58,-29.93 4263.91,-28.34 4275.67,-26.59"/>
<polygon fill="midnightblue" stroke="midnightblue" points="4276.48,-30.01 4285.83,-25.03 4275.42,-23.09 4276.48,-30.01"/>
</g>
<!-- Node34 -->
<g id="node34" class="node">
<title>Node34</title>
<g id="a_node34"><a xlink:title=" ">
<polygon fill="white" stroke="#bfbfbf" points="4436,-6 4436,-25 4574,-25 4574,-6 4436,-6"/>
<text text-anchor="middle" x="4505" y="-13" font-family="Helvetica,sans-Serif" font-size="10.00">ngp_utils/NgpLoopUtils.h</text>
</a>
</g>
</g>
<!-- Node1&#45;&gt;Node34 -->
<g id="edge33" class="edge">
<title>Node1&#45;&gt;Node34</title>
<path fill="none" stroke="midnightblue" d="M2765.24,-75.64C3051.76,-74 4097.19,-65.71 4427,-31 4436.36,-30.02 4446.27,-28.52 4455.78,-26.87"/>
<polygon fill="midnightblue" stroke="midnightblue" points="4456.69,-30.26 4465.9,-25.02 4455.43,-23.37 4456.69,-30.26"/>
</g>
<!-- Node35 -->
<g id="node35" class="node">
<title>Node35</title>
<g id="a_node35"><a xlink:title=" ">
<polygon fill="white" stroke="#bfbfbf" points="4592,-6 4592,-25 4712,-25 4712,-6 4592,-6"/>
<text text-anchor="middle" x="4652" y="-13" font-family="Helvetica,sans-Serif" font-size="10.00">ngp_utils/NgpTypes.h</text>
</a>
</g>
</g>
<!-- Node1&#45;&gt;Node35 -->
<g id="edge34" class="edge">
<title>Node1&#45;&gt;Node35</title>
<path fill="none" stroke="midnightblue" d="M2765.07,-76.05C3067.36,-75.99 4221.32,-72.95 4583,-31 4590.95,-30.08 4599.34,-28.68 4607.43,-27.11"/>
<polygon fill="midnightblue" stroke="midnightblue" points="4608.36,-30.49 4617.46,-25.05 4606.96,-23.64 4608.36,-30.49"/>
</g>
<!-- Node36 -->
<g id="node36" class="node">
<title>Node36</title>
<g id="a_node36"><a xlink:title=" ">
<polygon fill="white" stroke="#bfbfbf" points="4730,-0.5 4730,-30.5 4890,-30.5 4890,-0.5 4730,-0.5"/>
<text text-anchor="start" x="4738" y="-18.5" font-family="Helvetica,sans-Serif" font-size="10.00">overset/UpdateOversetFringe</text>
<text text-anchor="middle" x="4810" y="-7.5" font-family="Helvetica,sans-Serif" font-size="10.00">AlgorithmDriver.h</text>
</a>
</g>
</g>
<!-- Node1&#45;&gt;Node36 -->
<g id="edge35" class="edge">
<title>Node1&#45;&gt;Node36</title>
<path fill="none" stroke="midnightblue" d="M2765.22,-75.74C3078.6,-74.44 4309.24,-67.14 4719.41,-31.04"/>
<polygon fill="midnightblue" stroke="midnightblue" points="4719.89,-34.51 4729.53,-30.12 4719.26,-27.54 4719.89,-34.51"/>
</g>
<!-- Node37 -->
<g id="node37" class="node">
<title>Node37</title>
<g id="a_node37"><a xlink:title=" ">
<polygon fill="white" stroke="#bfbfbf" points="4908,-0.5 4908,-30.5 5072,-30.5 5072,-0.5 4908,-0.5"/>
<text text-anchor="start" x="4916" y="-18.5" font-family="Helvetica,sans-Serif" font-size="10.00">overset/AssembleOversetWall</text>
<text text-anchor="middle" x="4990" y="-7.5" font-family="Helvetica,sans-Serif" font-size="10.00">DistAlgorithm.h</text>
</a>
</g>
</g>
<!-- Node1&#45;&gt;Node37 -->
<g id="edge36" class="edge">
<title>Node1&#45;&gt;Node37</title>
<path fill="none" stroke="midnightblue" d="M2765.12,-75.86C3095.28,-75.04 4450.04,-69.39 4897.64,-31.01"/>
<polygon fill="midnightblue" stroke="midnightblue" points="4898.07,-34.49 4907.72,-30.13 4897.46,-27.52 4898.07,-34.49"/>
</g>
<!-- Node38 -->
<g id="node38" class="node">
<title>Node38</title>
<g id="a_node38"><a xlink:title=" ">
<polygon fill="white" stroke="#bfbfbf" points="5090.5,-6 5090.5,-25 5223.5,-25 5223.5,-6 5090.5,-6"/>
<text text-anchor="middle" x="5157" y="-13" font-family="Helvetica,sans-Serif" font-size="10.00">stk_mesh/base/Part.hpp</text>
</a>
</g>
</g>
<!-- Node1&#45;&gt;Node38 -->
<g id="edge37" class="edge">
<title>Node1&#45;&gt;Node38</title>
<path fill="none" stroke="midnightblue" d="M2765.26,-76.3C3114.83,-77.45 4615.53,-79.43 5081,-31 5090.22,-30.04 5100,-28.54 5109.36,-26.87"/>
<polygon fill="midnightblue" stroke="midnightblue" points="5110.12,-30.29 5119.3,-25 5108.83,-23.41 5110.12,-30.29"/>
</g>
<!-- Node39 -->
<g id="node39" class="node">
<title>Node39</title>
<g id="a_node39"><a xlink:title=" ">
<polygon fill="white" stroke="#bfbfbf" points="5242,-6 5242,-25 5404,-25 5404,-6 5242,-6"/>
<text text-anchor="middle" x="5323" y="-13" font-family="Helvetica,sans-Serif" font-size="10.00">stk_mesh/base/MetaData.hpp</text>
</a>
</g>
</g>
<!-- Node1&#45;&gt;Node39 -->
<g id="edge38" class="edge">
<title>Node1&#45;&gt;Node39</title>
<path fill="none" stroke="midnightblue" d="M2765.02,-76.11C3127.4,-76.43 4735.01,-75.3 5233,-31 5244.34,-29.99 5256.41,-28.4 5267.91,-26.64"/>
<polygon fill="midnightblue" stroke="midnightblue" points="5268.51,-30.09 5277.83,-25.06 5267.41,-23.18 5268.51,-30.09"/>
</g>
<!-- Node40 -->
<g id="node40" class="node">
<title>Node40</title>
<g id="a_node40"><a xlink:title=" ">
<polygon fill="white" stroke="#bfbfbf" points="5422.5,-6 5422.5,-25 5581.5,-25 5581.5,-6 5422.5,-6"/>
<text text-anchor="middle" x="5502" y="-13" font-family="Helvetica,sans-Serif" font-size="10.00">stk_mesh/base/BulkData.hpp</text>
</a>
</g>
</g>
<!-- Node1&#45;&gt;Node40 -->
<g id="edge39" class="edge">
<title>Node1&#45;&gt;Node40</title>
<path fill="none" stroke="midnightblue" d="M2765.14,-76.23C3143.03,-77.17 4877.41,-78.8 5413,-31 5424.1,-30.01 5435.91,-28.45 5447.18,-26.71"/>
<polygon fill="midnightblue" stroke="midnightblue" points="5448.02,-30.12 5457.34,-25.08 5446.91,-23.21 5448.02,-30.12"/>
</g>
<!-- Node41 -->
<g id="node41" class="node">
<title>Node41</title>
<g id="a_node41"><a xlink:title=" ">
<polygon fill="white" stroke="#bfbfbf" points="5599.5,-6 5599.5,-25 5736.5,-25 5736.5,-6 5599.5,-6"/>
<text text-anchor="middle" x="5668" y="-13" font-family="Helvetica,sans-Serif" font-size="10.00">stk_mesh/base/Field.hpp</text>
</a>
</g>
</g>
<!-- Node1&#45;&gt;Node41 -->
<g id="edge40" class="edge">
<title>Node1&#45;&gt;Node41</title>
<path fill="none" stroke="midnightblue" d="M2765.34,-75.61C3187.87,-73.27 5302.73,-60.16 5591,-31 5600.34,-30.05 5610.25,-28.57 5619.73,-26.89"/>
<polygon fill="midnightblue" stroke="midnightblue" points="5620.61,-30.29 5629.8,-25.02 5619.33,-23.41 5620.61,-30.29"/>
</g>
<!-- Node42 -->
<g id="node42" class="node">
<title>Node42</title>
<g id="a_node42"><a xlink:title=" ">
<polygon fill="white" stroke="#bfbfbf" points="5754.5,-6 5754.5,-25 5927.5,-25 5927.5,-6 5754.5,-6"/>
<text text-anchor="middle" x="5841" y="-13" font-family="Helvetica,sans-Serif" font-size="10.00">stk_mesh/base/FieldParallel.hpp</text>
</a>
</g>
</g>
<!-- Node1&#45;&gt;Node42 -->
<g id="edge41" class="edge">
<title>Node1&#45;&gt;Node42</title>
<path fill="none" stroke="midnightblue" d="M2765.23,-76.28C3170.31,-77.63 5140.28,-81.45 5746,-31 5758.21,-29.98 5771.23,-28.36 5783.6,-26.55"/>
<polygon fill="midnightblue" stroke="midnightblue" points="5784.43,-29.97 5793.8,-25.01 5783.38,-23.05 5784.43,-29.97"/>
</g>
<!-- Node43 -->
<g id="node43" class="node">
<title>Node43</title>
<g id="a_node43"><a xlink:title=" ">
<polygon fill="white" stroke="#bfbfbf" points="5945.5,-6 5945.5,-25 6090.5,-25 6090.5,-6 5945.5,-6"/>
<text text-anchor="middle" x="6018" y="-13" font-family="Helvetica,sans-Serif" font-size="10.00">stk_topology/topology.hpp</text>
</a>
</g>
</g>
<!-- Node1&#45;&gt;Node43 -->
<g id="edge42" class="edge">
<title>Node1&#45;&gt;Node43</title>
<path fill="none" stroke="midnightblue" d="M2765.09,-75.7C3216.1,-73.78 5612.05,-62.13 5937,-31 5947.03,-30.04 5957.67,-28.51 5967.84,-26.79"/>
<polygon fill="midnightblue" stroke="midnightblue" points="5968.56,-30.22 5977.8,-25.03 5967.35,-23.33 5968.56,-30.22"/>
</g>
<!-- Node44 -->
<g id="node44" class="node">
<title>Node44</title>
<g id="a_node44"><a xlink:title=" ">
<polygon fill="white" stroke="#bfbfbf" points="6108.5,-6 6108.5,-25 6229.5,-25 6229.5,-6 6108.5,-6"/>
<text text-anchor="middle" x="6169" y="-13" font-family="Helvetica,sans-Serif" font-size="10.00">stk_io/IossBridge.hpp</text>
</a>
</g>
</g>
<!-- Node1&#45;&gt;Node44 -->
<g id="edge43" class="edge">
<title>Node1&#45;&gt;Node44</title>
<path fill="none" stroke="midnightblue" d="M2765.36,-75.89C3230.29,-75.05 5758.42,-68.78 6100,-31 6108.13,-30.1 6116.72,-28.68 6124.97,-27.08"/>
<polygon fill="midnightblue" stroke="midnightblue" points="6125.73,-30.5 6134.82,-25.05 6124.32,-23.64 6125.73,-30.5"/>
</g>
<!-- Node45 -->
<g id="node45" class="node">
<title>Node45</title>
<g id="a_node45"><a xlink:title=" ">
<polygon fill="white" stroke="#bfbfbf" points="6247.5,-6 6247.5,-25 6294.5,-25 6294.5,-6 6247.5,-6"/>
<text text-anchor="middle" x="6271" y="-13" font-family="Helvetica,sans-Serif" font-size="10.00">cmath</text>
</a>
</g>
</g>
<!-- Node1&#45;&gt;Node45 -->
<g id="edge44" class="edge">
<title>Node1&#45;&gt;Node45</title>
<path fill="none" stroke="midnightblue" d="M2765.32,-75.92C3257.25,-75.3 6063.55,-70.06 6239,-31 6241.36,-30.47 6243.76,-29.76 6246.12,-28.94"/>
<polygon fill="midnightblue" stroke="midnightblue" points="6247.59,-32.12 6255.5,-25.07 6244.92,-25.65 6247.59,-32.12"/>
</g>
</g>
</svg>
        <g id="navigator" transform="translate(0 0)" fill="#404254">
                <rect fill="#f2f5e9" fill-opacity="0.5" stroke="#606060" stroke-width=".5" x="0" y="0" width="60" height="60"/>
                <use id="zoomplus" xlink:href="#zoomPlus" x="17" y="9" onmousedown="handleZoom(evt,'in')"/>
                <use id="zoomminus" xlink:href="#zoomMin" x="42" y="9" onmousedown="handleZoom(evt,'out')"/>
                <use id="reset" xlink:href="#resetDef" x="30" y="36" onmousedown="handleReset()"/>
                <g id="arrowUp" xlink:href="#dirArrow" transform="translate(30 24)" onmousedown="handlePan(0,-1)">
                  <use xlink:href="#rim" fill="#404040">
                        <set attributeName="fill" to="#808080" begin="arrowUp.mouseover" end="arrowUp.mouseout"/>
                  </use>
                  <path fill="none" stroke="white" stroke-width="1.5" d="M0,-3.0v7 M-2.5,-0.5L0,-3.0L2.5,-0.5"/>
                </g>
                <g id="arrowRight" xlink:href="#dirArrow" transform="rotate(90) translate(36 -43)" onmousedown="handlePan(1,0)">
                  <use xlink:href="#rim" fill="#404040">
                        <set attributeName="fill" to="#808080" begin="arrowRight.mouseover" end="arrowRight.mouseout"/>
                  </use>
                  <path fill="none" stroke="white" stroke-width="1.5" d="M0,-3.0v7 M-2.5,-0.5L0,-3.0L2.5,-0.5"/>
                </g>
                <g id="arrowDown" xlink:href="#dirArrow" transform="rotate(180) translate(-30 -48)" onmousedown="handlePan(0,1)">
                  <use xlink:href="#rim" fill="#404040">
                        <set attributeName="fill" to="#808080" begin="arrowDown.mouseover" end="arrowDown.mouseout"/>
                  </use>
                  <path fill="none" stroke="white" stroke-width="1.5" d="M0,-3.0v7 M-2.5,-0.5L0,-3.0L2.5,-0.5"/>
                </g>
                <g id="arrowLeft" xlink:href="#dirArrow" transform="rotate(270) translate(-36 17)" onmousedown="handlePan(-1,0)">
                  <use xlink:href="#rim" fill="#404040">
                        <set attributeName="fill" to="#808080" begin="arrowLeft.mouseover" end="arrowLeft.mouseout"/>
                  </use>
                  <path fill="none" stroke="white" stroke-width="1.5" d="M0,-3.0v7 M-2.5,-0.5L0,-3.0L2.5,-0.5"/>
                </g>
        </g>
        <svg viewBox="0 0 15 15" width="100%" height="30px" preserveAspectRatio="xMaxYMin meet">
         <g id="arrow_out" transform="scale(0.3 0.3)">
          <a xlink:href="_wall_dist_equation_system_8_c__incl_org.svg" target="_base">
           <rect id="button" ry="5" rx="5" y="6" x="6" height="38" width="38"
                fill="#f2f5e9" fill-opacity="0.5" stroke="#606060" stroke-width="1.0"/>
           <path id="arrow"
             d="M 11.500037,31.436501 C 11.940474,20.09759 22.043105,11.32322 32.158766,21.979434 L 37.068811,17.246167 C 37.068811,17.246167 37.088388,32 37.088388,32 L 22.160133,31.978069 C 22.160133,31.978069 26.997745,27.140456 26.997745,27.140456 C 18.528582,18.264221 13.291696,25.230495 11.500037,31.436501 z"
             style="fill:#404040;"/>
          </a>
         </g>
        </svg>
</svg>
