<?xml version="1.0" encoding="UTF-8" standalone="no"?>
<!DOCTYPE svg PUBLIC "-//W3C//DTD SVG 1.1//EN"
 "http://www.w3.org/Graphics/SVG/1.1/DTD/svg11.dtd">
<!-- Generated by graphviz version 2.43.0 (0)
 -->
<!-- Title: WilcoxKOmegaEquationSystem.C Pages: 1 -->
<!--zoomable 95 -->
<svg id="main" version="1.1" xmlns="http://www.w3.org/2000/svg" xmlns:xlink="http://www.w3.org/1999/xlink" xml:space="preserve" onload="init(evt)">
<style type="text/css"><![CDATA[
.edge:hover path { stroke: red; }
.edge:hover polygon { stroke: red; fill: red; }
]]></style>
<script type="text/javascript"><![CDATA[
var edges = document.getElementsByTagName('g');
if (edges && edges.length) {
  for (var i=0;i<edges.length;i++) {
    if (edges[i].id.substr(0,4)=='edge') {
      edges[i].setAttribute('class','edge');
    }
  }
}
]]></script>
        <defs>
                <circle id="rim" cx="0" cy="0" r="7"/>
                <circle id="rim2" cx="0" cy="0" r="3.5"/>
                <g id="zoomPlus">
                        <use xlink:href="#rim" fill="#404040">
                                <set attributeName="fill" to="#808080" begin="zoomplus.mouseover" end="zoomplus.mouseout"/>
                        </use>
                        <path d="M-4,0h8M0,-4v8" fill="none" stroke="white" stroke-width="1.5" pointer-events="none"/>
                </g>
                <g id="zoomMin">
                        <use xlink:href="#rim" fill="#404040">
                                <set attributeName="fill" to="#808080" begin="zoomminus.mouseover" end="zoomminus.mouseout"/>
                        </use>
                        <path d="M-4,0h8" fill="none" stroke="white" stroke-width="1.5" pointer-events="none"/>
                </g>
                <g id="dirArrow">
                        <path fill="none" stroke="white" stroke-width="1.5" d="M0,-3.0v7 M-2.5,-0.5L0,-3.0L2.5,-0.5"/>
                </g>
               <g id="resetDef">
                       <use xlink:href="#rim2" fill="#404040">
                               <set attributeName="fill" to="#808080" begin="reset.mouseover" end="reset.mouseout"/>
                       </use>
               </g>
        </defs>

<script type="text/javascript">
var viewWidth = 3855;
var viewHeight = 95;
var sectionId = 'dynsection-0';
</script>
<script xlink:href="svgpan.js"/>
<svg id="graph" class="graph">
<g id="viewport">
<title>WilcoxKOmegaEquationSystem.C</title>
<polygon fill="white" stroke="transparent" points="-4,4 -4,-91 3850.5,-91 3850.5,4 -4,4"/>
<!-- Node1 -->
<g id="node1" class="node">
<title>Node1</title>
<g id="a_node1"><a xlink:title=" ">
<polygon fill="#bfbfbf" stroke="black" points="1851.5,-67.5 1851.5,-86.5 2031.5,-86.5 2031.5,-67.5 1851.5,-67.5"/>
<text text-anchor="middle" x="1941.5" y="-74.5" font-family="Helvetica,sans-Serif" font-size="10.00">WilcoxKOmegaEquationSystem.C</text>
</a>
</g>
</g>
<!-- Node2 -->
<g id="node2" class="node">
<title>Node2</title>
<g id="a_node2"><a xlink:title=" ">
<polygon fill="white" stroke="#bfbfbf" points="0,-6 0,-25 179,-25 179,-6 0,-6"/>
<text text-anchor="middle" x="89.5" y="-13" font-family="Helvetica,sans-Serif" font-size="10.00">WilcoxKOmegaEquationSystem.h</text>
</a>
</g>
</g>
<!-- Node1&#45;&gt;Node2 -->
<g id="edge1" class="edge">
<title>Node1&#45;&gt;Node2</title>
<path fill="none" stroke="midnightblue" d="M1851.23,-75.13C1540.4,-71.92 515.54,-59.37 187.5,-31 174.99,-29.92 161.65,-28.27 148.97,-26.48"/>
<polygon fill="midnightblue" stroke="midnightblue" points="149.37,-23 138.97,-25.01 148.35,-29.92 149.37,-23"/>
</g>
<!-- Node3 -->
<g id="node3" class="node">
<title>Node3</title>
<g id="a_node3"><a xlink:title=" ">
<polygon fill="white" stroke="#bfbfbf" points="197,-6 197,-25 300,-25 300,-6 197,-6"/>
<text text-anchor="middle" x="248.5" y="-13" font-family="Helvetica,sans-Serif" font-size="10.00">AlgorithmDriver.h</text>
</a>
</g>
</g>
<!-- Node1&#45;&gt;Node3 -->
<g id="edge2" class="edge">
<title>Node1&#45;&gt;Node3</title>
<path fill="none" stroke="midnightblue" d="M1851.48,-76C1554.92,-75.62 610.37,-71.18 308.5,-31 302.02,-30.14 295.21,-28.86 288.61,-27.42"/>
<polygon fill="midnightblue" stroke="midnightblue" points="289.02,-23.92 278.48,-25.05 287.42,-30.73 289.02,-23.92"/>
</g>
<!-- Node4 -->
<g id="node4" class="node">
<title>Node4</title>
<g id="a_node4"><a xlink:title=" ">
<polygon fill="white" stroke="#bfbfbf" points="318,-6 318,-25 413,-25 413,-6 318,-6"/>
<text text-anchor="middle" x="365.5" y="-13" font-family="Helvetica,sans-Serif" font-size="10.00">FieldFunctions.h</text>
</a>
</g>
</g>
<!-- Node1&#45;&gt;Node4 -->
<g id="edge3" class="edge">
<title>Node1&#45;&gt;Node4</title>
<path fill="none" stroke="midnightblue" d="M1851.31,-75.97C1568.29,-75.48 700.02,-70.67 421.5,-31 415.58,-30.16 409.38,-28.92 403.35,-27.52"/>
<polygon fill="midnightblue" stroke="midnightblue" points="404,-24.07 393.45,-25.05 402.31,-30.87 404,-24.07"/>
</g>
<!-- Node5 -->
<g id="node5" class="node">
<title>Node5</title>
<g id="a_node5"><a xlink:title=" ">
<polygon fill="white" stroke="#bfbfbf" points="431,-6 431,-25 614,-25 614,-6 431,-6"/>
<text text-anchor="middle" x="522.5" y="-13" font-family="Helvetica,sans-Serif" font-size="10.00">master_element/MasterElement.h</text>
</a>
</g>
</g>
<!-- Node1&#45;&gt;Node5 -->
<g id="edge4" class="edge">
<title>Node1&#45;&gt;Node5</title>
<path fill="none" stroke="midnightblue" d="M1851.41,-76.29C1637.78,-76.23 1083.9,-71.79 623.5,-31 610.83,-29.88 597.32,-28.24 584.44,-26.47"/>
<polygon fill="midnightblue" stroke="midnightblue" points="584.67,-22.97 574.28,-25.03 583.68,-29.9 584.67,-22.97"/>
</g>
<!-- Node6 -->
<g id="node6" class="node">
<title>Node6</title>
<g id="a_node6"><a xlink:title=" ">
<polygon fill="white" stroke="#bfbfbf" points="632.5,-0.5 632.5,-30.5 806.5,-30.5 806.5,-0.5 632.5,-0.5"/>
<text text-anchor="start" x="640.5" y="-18.5" font-family="Helvetica,sans-Serif" font-size="10.00">master_element/MasterElement</text>
<text text-anchor="middle" x="719.5" y="-7.5" font-family="Helvetica,sans-Serif" font-size="10.00">Repo.h</text>
</a>
</g>
</g>
<!-- Node1&#45;&gt;Node6 -->
<g id="edge5" class="edge">
<title>Node1&#45;&gt;Node6</title>
<path fill="none" stroke="midnightblue" d="M1851.15,-75.75C1661.36,-74.51 1207.27,-67.67 816.65,-31.03"/>
<polygon fill="midnightblue" stroke="midnightblue" points="816.85,-27.54 806.57,-30.08 816.2,-34.5 816.85,-27.54"/>
</g>
<!-- Node7 -->
<g id="node7" class="node">
<title>Node7</title>
<g id="a_node7"><a xlink:title=" ">
<polygon fill="white" stroke="#bfbfbf" points="825,-6 825,-25 890,-25 890,-6 825,-6"/>
<text text-anchor="middle" x="857.5" y="-13" font-family="Helvetica,sans-Serif" font-size="10.00">NaluEnv.h</text>
</a>
</g>
</g>
<!-- Node1&#45;&gt;Node7 -->
<g id="edge6" class="edge">
<title>Node1&#45;&gt;Node7</title>
<path fill="none" stroke="midnightblue" d="M1851.14,-75.53C1632.51,-73.84 1079.66,-66.13 898.5,-31 894.98,-30.32 891.36,-29.39 887.8,-28.33"/>
<polygon fill="midnightblue" stroke="midnightblue" points="888.62,-24.92 878.02,-25.1 886.42,-31.56 888.62,-24.92"/>
</g>
<!-- Node8 -->
<g id="node8" class="node">
<title>Node8</title>
<g id="a_node8"><a xlink:title=" ">
<polygon fill="white" stroke="#bfbfbf" points="908,-6 908,-25 991,-25 991,-6 908,-6"/>
<text text-anchor="middle" x="949.5" y="-13" font-family="Helvetica,sans-Serif" font-size="10.00">NaluParsing.h</text>
</a>
</g>
</g>
<!-- Node1&#45;&gt;Node8 -->
<g id="edge7" class="edge">
<title>Node1&#45;&gt;Node8</title>
<path fill="none" stroke="midnightblue" d="M1851.19,-74.32C1648.48,-70.11 1162.41,-57.53 1000.5,-31 995.41,-30.17 990.1,-29 984.91,-27.69"/>
<polygon fill="midnightblue" stroke="midnightblue" points="985.75,-24.29 975.18,-25.04 983.91,-31.05 985.75,-24.29"/>
</g>
<!-- Node9 -->
<g id="node9" class="node">
<title>Node9</title>
<g id="a_node9"><a xlink:title=" ">
<polygon fill="white" stroke="#bfbfbf" points="1009.5,-0.5 1009.5,-30.5 1183.5,-30.5 1183.5,-0.5 1009.5,-0.5"/>
<text text-anchor="start" x="1017.5" y="-18.5" font-family="Helvetica,sans-Serif" font-size="10.00">SpecificDissipationRateEquation</text>
<text text-anchor="middle" x="1096.5" y="-7.5" font-family="Helvetica,sans-Serif" font-size="10.00">System.h</text>
</a>
</g>
</g>
<!-- Node1&#45;&gt;Node9 -->
<g id="edge8" class="edge">
<title>Node1&#45;&gt;Node9</title>
<path fill="none" stroke="midnightblue" d="M1851.36,-73.2C1712.38,-68.31 1437.23,-56.31 1193.69,-31.06"/>
<polygon fill="midnightblue" stroke="midnightblue" points="1193.89,-27.56 1183.58,-30 1193.16,-34.52 1193.89,-27.56"/>
</g>
<!-- Node10 -->
<g id="node10" class="node">
<title>Node10</title>
<g id="a_node10"><a xlink:title=" ">
<polygon fill="white" stroke="#bfbfbf" points="1202,-6 1202,-25 1305,-25 1305,-6 1202,-6"/>
<text text-anchor="middle" x="1253.5" y="-13" font-family="Helvetica,sans-Serif" font-size="10.00">SolutionOptions.h</text>
</a>
</g>
</g>
<!-- Node1&#45;&gt;Node10 -->
<g id="edge9" class="edge">
<title>Node1&#45;&gt;Node10</title>
<path fill="none" stroke="midnightblue" d="M1851.28,-74.22C1728.82,-70.74 1503.46,-60.55 1313.5,-31 1307.25,-30.03 1300.68,-28.73 1294.29,-27.31"/>
<polygon fill="midnightblue" stroke="midnightblue" points="1294.98,-23.88 1284.45,-25.01 1293.39,-30.7 1294.98,-23.88"/>
</g>
<!-- Node11 -->
<g id="node11" class="node">
<title>Node11</title>
<g id="a_node11"><a xlink:title=" ">
<polygon fill="white" stroke="#bfbfbf" points="1323,-0.5 1323,-30.5 1470,-30.5 1470,-0.5 1323,-0.5"/>
<text text-anchor="start" x="1331" y="-18.5" font-family="Helvetica,sans-Serif" font-size="10.00">TurbKineticEnergyEquation</text>
<text text-anchor="middle" x="1396.5" y="-7.5" font-family="Helvetica,sans-Serif" font-size="10.00">System.h</text>
</a>
</g>
</g>
<!-- Node1&#45;&gt;Node11 -->
<g id="edge10" class="edge">
<title>Node1&#45;&gt;Node11</title>
<path fill="none" stroke="midnightblue" d="M1851.2,-69.32C1759.99,-62.1 1614.82,-49.29 1480.29,-31.18"/>
<polygon fill="midnightblue" stroke="midnightblue" points="1480.59,-27.69 1470.21,-29.81 1479.65,-34.63 1480.59,-27.69"/>
</g>
<!-- Node12 -->
<g id="node12" class="node">
<title>Node12</title>
<g id="a_node12"><a xlink:title=" ">
<polygon fill="white" stroke="#bfbfbf" points="1488,-6 1488,-25 1545,-25 1545,-6 1488,-6"/>
<text text-anchor="middle" x="1516.5" y="-13" font-family="Helvetica,sans-Serif" font-size="10.00">Realm.h</text>
</a>
</g>
</g>
<!-- Node1&#45;&gt;Node12 -->
<g id="edge11" class="edge">
<title>Node1&#45;&gt;Node12</title>
<path fill="none" stroke="midnightblue" d="M1851.23,-71.86C1772.07,-66.73 1654.36,-55.45 1554.5,-31 1551.67,-30.31 1548.77,-29.46 1545.89,-28.53"/>
<polygon fill="midnightblue" stroke="midnightblue" points="1546.91,-25.18 1536.32,-25.13 1544.57,-31.78 1546.91,-25.18"/>
</g>
<!-- Node13 -->
<g id="node13" class="node">
<title>Node13</title>
<g id="a_node13"><a xlink:title=" ">
<polygon fill="white" stroke="#bfbfbf" points="1563.5,-6 1563.5,-25 1651.5,-25 1651.5,-6 1563.5,-6"/>
<text text-anchor="middle" x="1607.5" y="-13" font-family="Helvetica,sans-Serif" font-size="10.00">FieldTypeDef.h</text>
</a>
</g>
</g>
<!-- Node1&#45;&gt;Node13 -->
<g id="edge12" class="edge">
<title>Node1&#45;&gt;Node13</title>
<path fill="none" stroke="midnightblue" d="M1875.55,-67.49C1818.36,-59.63 1733.54,-46.79 1660.5,-31 1655.85,-29.99 1651,-28.83 1646.2,-27.61"/>
<polygon fill="midnightblue" stroke="midnightblue" points="1647.08,-24.22 1636.52,-25.05 1645.29,-30.99 1647.08,-24.22"/>
</g>
<!-- Node14 -->
<g id="node14" class="node">
<title>Node14</title>
<g id="a_node14"><a xlink:title=" ">
<polygon fill="white" stroke="#bfbfbf" points="1669.5,-0.5 1669.5,-30.5 1829.5,-30.5 1829.5,-0.5 1669.5,-0.5"/>
<text text-anchor="start" x="1677.5" y="-18.5" font-family="Helvetica,sans-Serif" font-size="10.00">ngp_algorithms/GeometryAlg</text>
<text text-anchor="middle" x="1749.5" y="-7.5" font-family="Helvetica,sans-Serif" font-size="10.00">Driver.h</text>
</a>
</g>
</g>
<!-- Node1&#45;&gt;Node14 -->
<g id="edge13" class="edge">
<title>Node1&#45;&gt;Node14</title>
<path fill="none" stroke="midnightblue" d="M1913.99,-67.48C1885.56,-58.66 1840.4,-44.67 1804.58,-33.57"/>
<polygon fill="midnightblue" stroke="midnightblue" points="1805.34,-30.14 1794.75,-30.52 1803.27,-36.83 1805.34,-30.14"/>
</g>
<!-- Node15 -->
<g id="node15" class="node">
<title>Node15</title>
<g id="a_node15"><a xlink:title=" ">
<polygon fill="white" stroke="#bfbfbf" points="1847.5,-0.5 1847.5,-30.5 2035.5,-30.5 2035.5,-0.5 1847.5,-0.5"/>
<text text-anchor="start" x="1855.5" y="-18.5" font-family="Helvetica,sans-Serif" font-size="10.00">ngp_algorithms/WallFuncGeometry</text>
<text text-anchor="middle" x="1941.5" y="-7.5" font-family="Helvetica,sans-Serif" font-size="10.00">Alg.h</text>
</a>
</g>
</g>
<!-- Node1&#45;&gt;Node15 -->
<g id="edge14" class="edge">
<title>Node1&#45;&gt;Node15</title>
<path fill="none" stroke="midnightblue" d="M1941.5,-67.48C1941.5,-60.47 1941.5,-50.19 1941.5,-40.7"/>
<polygon fill="midnightblue" stroke="midnightblue" points="1945,-40.52 1941.5,-30.52 1938,-40.52 1945,-40.52"/>
</g>
<!-- Node16 -->
<g id="node16" class="node">
<title>Node16</title>
<g id="a_node16"><a xlink:title=" ">
<polygon fill="white" stroke="#bfbfbf" points="2053.5,-6 2053.5,-25 2191.5,-25 2191.5,-6 2053.5,-6"/>
<text text-anchor="middle" x="2122.5" y="-13" font-family="Helvetica,sans-Serif" font-size="10.00">ngp_utils/NgpLoopUtils.h</text>
</a>
</g>
</g>
<!-- Node1&#45;&gt;Node16 -->
<g id="edge15" class="edge">
<title>Node1&#45;&gt;Node16</title>
<path fill="none" stroke="midnightblue" d="M1967.43,-67.48C1998.75,-57.18 2051.59,-39.81 2086.76,-28.25"/>
<polygon fill="midnightblue" stroke="midnightblue" points="2088.21,-31.46 2096.62,-25.01 2086.02,-24.81 2088.21,-31.46"/>
</g>
<!-- Node17 -->
<g id="node17" class="node">
<title>Node17</title>
<g id="a_node17"><a xlink:title=" ">
<polygon fill="white" stroke="#bfbfbf" points="2209.5,-6 2209.5,-25 2347.5,-25 2347.5,-6 2209.5,-6"/>
<text text-anchor="middle" x="2278.5" y="-13" font-family="Helvetica,sans-Serif" font-size="10.00">ngp_utils/NgpFieldUtils.h</text>
</a>
</g>
</g>
<!-- Node1&#45;&gt;Node17 -->
<g id="edge16" class="edge">
<title>Node1&#45;&gt;Node17</title>
<path fill="none" stroke="midnightblue" d="M1991.67,-67.46C2043.86,-58.54 2127.96,-44.04 2200.5,-31 2207.85,-29.68 2215.59,-28.27 2223.22,-26.86"/>
<polygon fill="midnightblue" stroke="midnightblue" points="2223.95,-30.28 2233.15,-25.02 2222.68,-23.4 2223.95,-30.28"/>
</g>
<!-- Node18 -->
<g id="node18" class="node">
<title>Node18</title>
<g id="a_node18"><a xlink:title=" ">
<polygon fill="white" stroke="#bfbfbf" points="2366,-6 2366,-25 2507,-25 2507,-6 2366,-6"/>
<text text-anchor="middle" x="2436.5" y="-13" font-family="Helvetica,sans-Serif" font-size="10.00">ngp_utils/NgpFieldBLAS.h</text>
</a>
</g>
</g>
<!-- Node1&#45;&gt;Node18 -->
<g id="edge17" class="edge">
<title>Node1&#45;&gt;Node18</title>
<path fill="none" stroke="midnightblue" d="M2031.59,-68.1C2115.81,-60.27 2244.97,-47.13 2356.5,-31 2364.93,-29.78 2373.84,-28.33 2382.53,-26.82"/>
<polygon fill="midnightblue" stroke="midnightblue" points="2383.34,-30.23 2392.58,-25.04 2382.12,-23.34 2383.34,-30.23"/>
</g>
<!-- Node19 -->
<g id="node19" class="node">
<title>Node19</title>
<g id="a_node19"><a xlink:title=" ">
<polygon fill="white" stroke="#bfbfbf" points="2525.5,-6 2525.5,-25 2677.5,-25 2677.5,-6 2525.5,-6"/>
<text text-anchor="middle" x="2601.5" y="-13" font-family="Helvetica,sans-Serif" font-size="10.00">stk_util/parallel/Parallel.hpp</text>
</a>
</g>
</g>
<!-- Node1&#45;&gt;Node19 -->
<g id="edge18" class="edge">
<title>Node1&#45;&gt;Node19</title>
<path fill="none" stroke="midnightblue" d="M2031.89,-71.47C2145.36,-65.2 2345.83,-52.19 2516.5,-31 2526.09,-29.81 2536.25,-28.3 2546.09,-26.7"/>
<polygon fill="midnightblue" stroke="midnightblue" points="2546.89,-30.11 2556.18,-25.02 2545.74,-23.21 2546.89,-30.11"/>
</g>
<!-- Node20 -->
<g id="node20" class="node">
<title>Node20</title>
<g id="a_node20"><a xlink:title=" ">
<polygon fill="white" stroke="#bfbfbf" points="2696,-6 2696,-25 2799,-25 2799,-6 2696,-6"/>
<text text-anchor="middle" x="2747.5" y="-13" font-family="Helvetica,sans-Serif" font-size="10.00">utils/StkHelpers.h</text>
</a>
</g>
</g>
<!-- Node1&#45;&gt;Node20 -->
<g id="edge19" class="edge">
<title>Node1&#45;&gt;Node20</title>
<path fill="none" stroke="midnightblue" d="M2031.75,-75.57C2172.41,-73.77 2452.09,-65.67 2686.5,-31 2692.86,-30.06 2699.53,-28.78 2706.03,-27.37"/>
<polygon fill="midnightblue" stroke="midnightblue" points="2707.08,-30.72 2716.04,-25.08 2705.51,-23.9 2707.08,-30.72"/>
</g>
<!-- Node21 -->
<g id="node21" class="node">
<title>Node21</title>
<g id="a_node21"><a xlink:title=" ">
<polygon fill="white" stroke="#bfbfbf" points="2817,-6 2817,-25 2976,-25 2976,-6 2817,-6"/>
<text text-anchor="middle" x="2896.5" y="-13" font-family="Helvetica,sans-Serif" font-size="10.00">stk_mesh/base/BulkData.hpp</text>
</a>
</g>
</g>
<!-- Node1&#45;&gt;Node21 -->
<g id="edge20" class="edge">
<title>Node1&#45;&gt;Node21</title>
<path fill="none" stroke="midnightblue" d="M2031.63,-74.63C2189.47,-71.49 2526.03,-61.51 2808.5,-31 2818.88,-29.88 2829.9,-28.34 2840.5,-26.69"/>
<polygon fill="midnightblue" stroke="midnightblue" points="2841.19,-30.12 2850.5,-25.07 2840.07,-23.21 2841.19,-30.12"/>
</g>
<!-- Node22 -->
<g id="node22" class="node">
<title>Node22</title>
<g id="a_node22"><a xlink:title=" ">
<polygon fill="white" stroke="#bfbfbf" points="2994,-6 2994,-25 3131,-25 3131,-6 2994,-6"/>
<text text-anchor="middle" x="3062.5" y="-13" font-family="Helvetica,sans-Serif" font-size="10.00">stk_mesh/base/Field.hpp</text>
</a>
</g>
</g>
<!-- Node1&#45;&gt;Node22 -->
<g id="edge21" class="edge">
<title>Node1&#45;&gt;Node22</title>
<path fill="none" stroke="midnightblue" d="M2031.57,-76.44C2212.81,-76.38 2634.28,-71.43 2985.5,-31 2994.43,-29.97 3003.89,-28.51 3013,-26.9"/>
<polygon fill="midnightblue" stroke="midnightblue" points="3013.9,-30.29 3023.1,-25.04 3012.63,-23.41 3013.9,-30.29"/>
</g>
<!-- Node23 -->
<g id="node23" class="node">
<title>Node23</title>
<g id="a_node23"><a xlink:title=" ">
<polygon fill="white" stroke="#bfbfbf" points="3149,-6 3149,-25 3322,-25 3322,-6 3149,-6"/>
<text text-anchor="middle" x="3235.5" y="-13" font-family="Helvetica,sans-Serif" font-size="10.00">stk_mesh/base/FieldParallel.hpp</text>
</a>
</g>
</g>
<!-- Node1&#45;&gt;Node23 -->
<g id="edge22" class="edge">
<title>Node1&#45;&gt;Node23</title>
<path fill="none" stroke="midnightblue" d="M2031.6,-76.12C2231.59,-75.61 2727.56,-70.13 3140.5,-31 3152.31,-29.88 3164.88,-28.27 3176.89,-26.51"/>
<polygon fill="midnightblue" stroke="midnightblue" points="3177.45,-29.97 3186.81,-25.02 3176.41,-23.05 3177.45,-29.97"/>
</g>
<!-- Node24 -->
<g id="node24" class="node">
<title>Node24</title>
<g id="a_node24"><a xlink:title=" ">
<polygon fill="white" stroke="#bfbfbf" points="3340.5,-6 3340.5,-25 3502.5,-25 3502.5,-6 3340.5,-6"/>
<text text-anchor="middle" x="3421.5" y="-13" font-family="Helvetica,sans-Serif" font-size="10.00">stk_mesh/base/MetaData.hpp</text>
</a>
</g>
</g>
<!-- Node1&#45;&gt;Node24 -->
<g id="edge23" class="edge">
<title>Node1&#45;&gt;Node24</title>
<path fill="none" stroke="midnightblue" d="M2031.75,-74.58C2298.08,-70.16 3077.95,-55.43 3331.5,-31 3342.6,-29.93 3354.4,-28.35 3365.68,-26.63"/>
<polygon fill="midnightblue" stroke="midnightblue" points="3366.53,-30.03 3375.86,-25.01 3365.43,-23.12 3366.53,-30.03"/>
</g>
<!-- Node25 -->
<g id="node25" class="node">
<title>Node25</title>
<g id="a_node25"><a xlink:title=" ">
<polygon fill="white" stroke="#bfbfbf" points="3521,-6 3521,-25 3642,-25 3642,-6 3521,-6"/>
<text text-anchor="middle" x="3581.5" y="-13" font-family="Helvetica,sans-Serif" font-size="10.00">stk_io/IossBridge.hpp</text>
</a>
</g>
</g>
<!-- Node1&#45;&gt;Node25 -->
<g id="edge24" class="edge">
<title>Node1&#45;&gt;Node25</title>
<path fill="none" stroke="midnightblue" d="M2031.52,-75.5C2320.36,-73.56 3221.88,-64.88 3511.5,-31 3519.65,-30.05 3528.26,-28.62 3536.55,-27.02"/>
<polygon fill="midnightblue" stroke="midnightblue" points="3537.34,-30.44 3546.44,-25.02 3535.95,-23.57 3537.34,-30.44"/>
</g>
<!-- Node26 -->
<g id="node26" class="node">
<title>Node26</title>
<g id="a_node26"><a xlink:title=" ">
<polygon fill="white" stroke="#bfbfbf" points="3660,-6 3660,-25 3707,-25 3707,-6 3660,-6"/>
<text text-anchor="middle" x="3683.5" y="-13" font-family="Helvetica,sans-Serif" font-size="10.00">cmath</text>
</a>
</g>
</g>
<!-- Node1&#45;&gt;Node26 -->
<g id="edge25" class="edge">
<title>Node1&#45;&gt;Node26</title>
<path fill="none" stroke="midnightblue" d="M2031.78,-75.72C2362.06,-74.41 3493.58,-67.29 3651.5,-31 3653.86,-30.46 3656.25,-29.74 3658.62,-28.9"/>
<polygon fill="midnightblue" stroke="midnightblue" points="3660.08,-32.08 3667.99,-25.03 3657.41,-25.62 3660.08,-32.08"/>
</g>
<!-- Node27 -->
<g id="node27" class="node">
<title>Node27</title>
<g id="a_node27"><a xlink:title=" ">
<polygon fill="white" stroke="#bfbfbf" points="3725,-6 3725,-25 3772,-25 3772,-6 3725,-6"/>
<text text-anchor="middle" x="3748.5" y="-13" font-family="Helvetica,sans-Serif" font-size="10.00">vector</text>
</a>
</g>
</g>
<!-- Node1&#45;&gt;Node27 -->
<g id="edge26" class="edge">
<title>Node1&#45;&gt;Node27</title>
<path fill="none" stroke="midnightblue" d="M2031.71,-75.82C2369.96,-74.84 3552,-68.72 3716.5,-31 3718.86,-30.46 3721.25,-29.74 3723.62,-28.91"/>
<polygon fill="midnightblue" stroke="midnightblue" points="3725.08,-32.09 3732.99,-25.03 3722.41,-25.62 3725.08,-32.09"/>
</g>
<!-- Node28 -->
<g id="node28" class="node">
<title>Node28</title>
<g id="a_node28"><a xlink:title=" ">
<polygon fill="white" stroke="#bfbfbf" points="3790.5,-6 3790.5,-25 3846.5,-25 3846.5,-6 3790.5,-6"/>
<text text-anchor="middle" x="3818.5" y="-13" font-family="Helvetica,sans-Serif" font-size="10.00">iomanip</text>
</a>
</g>
</g>
<!-- Node1&#45;&gt;Node28 -->
<g id="edge27" class="edge">
<title>Node1&#45;&gt;Node28</title>
<path fill="none" stroke="midnightblue" d="M2031.68,-75.63C2377.67,-73.98 3609.47,-65.69 3781.5,-31 3784.58,-30.38 3787.73,-29.52 3790.84,-28.53"/>
<polygon fill="midnightblue" stroke="midnightblue" points="3792.24,-31.74 3800.44,-25.03 3789.85,-25.16 3792.24,-31.74"/>
</g>
</g>
</svg>
        <g id="navigator" transform="translate(0 0)" fill="#404254">
                <rect fill="#f2f5e9" fill-opacity="0.5" stroke="#606060" stroke-width=".5" x="0" y="0" width="60" height="60"/>
                <use id="zoomplus" xlink:href="#zoomPlus" x="17" y="9" onmousedown="handleZoom(evt,'in')"/>
                <use id="zoomminus" xlink:href="#zoomMin" x="42" y="9" onmousedown="handleZoom(evt,'out')"/>
                <use id="reset" xlink:href="#resetDef" x="30" y="36" onmousedown="handleReset()"/>
                <g id="arrowUp" xlink:href="#dirArrow" transform="translate(30 24)" onmousedown="handlePan(0,-1)">
                  <use xlink:href="#rim" fill="#404040">
                        <set attributeName="fill" to="#808080" begin="arrowUp.mouseover" end="arrowUp.mouseout"/>
                  </use>
                  <path fill="none" stroke="white" stroke-width="1.5" d="M0,-3.0v7 M-2.5,-0.5L0,-3.0L2.5,-0.5"/>
                </g>
                <g id="arrowRight" xlink:href="#dirArrow" transform="rotate(90) translate(36 -43)" onmousedown="handlePan(1,0)">
                  <use xlink:href="#rim" fill="#404040">
                        <set attributeName="fill" to="#808080" begin="arrowRight.mouseover" end="arrowRight.mouseout"/>
                  </use>
                  <path fill="none" stroke="white" stroke-width="1.5" d="M0,-3.0v7 M-2.5,-0.5L0,-3.0L2.5,-0.5"/>
                </g>
                <g id="arrowDown" xlink:href="#dirArrow" transform="rotate(180) translate(-30 -48)" onmousedown="handlePan(0,1)">
                  <use xlink:href="#rim" fill="#404040">
                        <set attributeName="fill" to="#808080" begin="arrowDown.mouseover" end="arrowDown.mouseout"/>
                  </use>
                  <path fill="none" stroke="white" stroke-width="1.5" d="M0,-3.0v7 M-2.5,-0.5L0,-3.0L2.5,-0.5"/>
                </g>
                <g id="arrowLeft" xlink:href="#dirArrow" transform="rotate(270) translate(-36 17)" onmousedown="handlePan(-1,0)">
                  <use xlink:href="#rim" fill="#404040">
                        <set attributeName="fill" to="#808080" begin="arrowLeft.mouseover" end="arrowLeft.mouseout"/>
                  </use>
                  <path fill="none" stroke="white" stroke-width="1.5" d="M0,-3.0v7 M-2.5,-0.5L0,-3.0L2.5,-0.5"/>
                </g>
        </g>
        <svg viewBox="0 0 15 15" width="100%" height="30px" preserveAspectRatio="xMaxYMin meet">
         <g id="arrow_out" transform="scale(0.3 0.3)">
          <a xlink:href="_wilcox_k_omega_equation_system_8_c__incl_org.svg" target="_base">
           <rect id="button" ry="5" rx="5" y="6" x="6" height="38" width="38"
                fill="#f2f5e9" fill-opacity="0.5" stroke="#606060" stroke-width="1.0"/>
           <path id="arrow"
             d="M 11.500037,31.436501 C 11.940474,20.09759 22.043105,11.32322 32.158766,21.979434 L 37.068811,17.246167 C 37.068811,17.246167 37.088388,32 37.088388,32 L 22.160133,31.978069 C 22.160133,31.978069 26.997745,27.140456 26.997745,27.140456 C 18.528582,18.264221 13.291696,25.230495 11.500037,31.436501 z"
             style="fill:#404040;"/>
          </a>
         </g>
        </svg>
</svg>
