<?xml version="1.0" encoding="UTF-8" standalone="no"?>
<!DOCTYPE svg PUBLIC "-//W3C//DTD SVG 1.1//EN"
 "http://www.w3.org/Graphics/SVG/1.1/DTD/svg11.dtd">
<!-- Generated by graphviz version 2.43.0 (0)
 -->
<!-- Title: WindEnergyTaylorVortexPressureAuxFunction.C Pages: 1 -->
<svg width="575pt" height="106pt"
 viewBox="0.00 0.00 575.00 106.00" xmlns="http://www.w3.org/2000/svg" xmlns:xlink="http://www.w3.org/1999/xlink">
<g id="graph0" class="graph" transform="scale(1 1) rotate(0) translate(4 102)">
<title>WindEnergyTaylorVortexPressureAuxFunction.C</title>
<polygon fill="white" stroke="transparent" points="-4,4 -4,-102 571,-102 571,4 -4,4"/>
<!-- Node1 -->
<g id="node1" class="node">
<title>Node1</title>
<g id="a_node1"><a xlink:title=" ">
<polygon fill="#bfbfbf" stroke="black" points="256,-67.5 256,-97.5 434,-97.5 434,-67.5 256,-67.5"/>
<text text-anchor="start" x="264" y="-85.5" font-family="Helvetica,sans-Serif" font-size="10.00">WindEnergyTaylorVortexPressure</text>
<text text-anchor="middle" x="345" y="-74.5" font-family="Helvetica,sans-Serif" font-size="10.00">AuxFunction.C</text>
</a>
</g>
</g>
<!-- Node2 -->
<g id="node2" class="node">
<title>Node2</title>
<g id="a_node2"><a xlink:title=" ">
<polygon fill="white" stroke="#bfbfbf" points="0,-0.5 0,-30.5 188,-30.5 188,-0.5 0,-0.5"/>
<text text-anchor="start" x="8" y="-18.5" font-family="Helvetica,sans-Serif" font-size="10.00">user_functions/WindEnergy</text>
<text text-anchor="middle" x="94" y="-7.5" font-family="Helvetica,sans-Serif" font-size="10.00">TaylorVortexPressureAuxFunction.h</text>
</a>
</g>
</g>
<!-- Node1&#45;&gt;Node2 -->
<g id="edge1" class="edge">
<title>Node1&#45;&gt;Node2</title>
<path fill="none" stroke="midnightblue" d="M290.85,-67.48C251.97,-57.41 199.42,-43.8 158.39,-33.17"/>
<polygon fill="midnightblue" stroke="midnightblue" points="159.05,-29.73 148.49,-30.61 157.29,-36.51 159.05,-29.73"/>
</g>
<!-- Node3 -->
<g id="node3" class="node">
<title>Node3</title>
<g id="a_node3"><a xlink:title=" ">
<polygon fill="white" stroke="#bfbfbf" points="206.5,-6 206.5,-25 271.5,-25 271.5,-6 206.5,-6"/>
<text text-anchor="middle" x="239" y="-13" font-family="Helvetica,sans-Serif" font-size="10.00">NaluEnv.h</text>
</a>
</g>
</g>
<!-- Node1&#45;&gt;Node3 -->
<g id="edge2" class="edge">
<title>Node1&#45;&gt;Node3</title>
<path fill="none" stroke="midnightblue" d="M322,-67.4C304.06,-56.39 279.28,-41.2 261.48,-30.28"/>
<polygon fill="midnightblue" stroke="midnightblue" points="263.23,-27.25 252.87,-25.01 259.57,-33.22 263.23,-27.25"/>
</g>
<!-- Node4 -->
<g id="node4" class="node">
<title>Node4</title>
<g id="a_node4"><a xlink:title=" ">
<polygon fill="white" stroke="#bfbfbf" points="289.5,-6 289.5,-25 336.5,-25 336.5,-6 289.5,-6"/>
<text text-anchor="middle" x="313" y="-13" font-family="Helvetica,sans-Serif" font-size="10.00">cmath</text>
</a>
</g>
</g>
<!-- Node1&#45;&gt;Node4 -->
<g id="edge3" class="edge">
<title>Node1&#45;&gt;Node4</title>
<path fill="none" stroke="midnightblue" d="M338.06,-67.4C333.26,-57.66 326.86,-44.65 321.72,-34.21"/>
<polygon fill="midnightblue" stroke="midnightblue" points="324.84,-32.62 317.28,-25.19 318.56,-35.71 324.84,-32.62"/>
</g>
<!-- Node5 -->
<g id="node5" class="node">
<title>Node5</title>
<g id="a_node5"><a xlink:title=" ">
<polygon fill="white" stroke="#bfbfbf" points="354.5,-6 354.5,-25 401.5,-25 401.5,-6 354.5,-6"/>
<text text-anchor="middle" x="378" y="-13" font-family="Helvetica,sans-Serif" font-size="10.00">vector</text>
</a>
</g>
</g>
<!-- Node1&#45;&gt;Node5 -->
<g id="edge4" class="edge">
<title>Node1&#45;&gt;Node5</title>
<path fill="none" stroke="midnightblue" d="M352.16,-67.4C357.1,-57.66 363.71,-44.65 369.01,-34.21"/>
<polygon fill="midnightblue" stroke="midnightblue" points="372.18,-35.7 373.59,-25.19 365.94,-32.53 372.18,-35.7"/>
</g>
<!-- Node6 -->
<g id="node6" class="node">
<title>Node6</title>
<g id="a_node6"><a xlink:title=" ">
<polygon fill="white" stroke="#bfbfbf" points="419.5,-6 419.5,-25 484.5,-25 484.5,-6 419.5,-6"/>
<text text-anchor="middle" x="452" y="-13" font-family="Helvetica,sans-Serif" font-size="10.00">stdexcept</text>
</a>
</g>
</g>
<!-- Node1&#45;&gt;Node6 -->
<g id="edge5" class="edge">
<title>Node1&#45;&gt;Node6</title>
<path fill="none" stroke="midnightblue" d="M368.22,-67.4C386.33,-56.39 411.34,-41.2 429.31,-30.28"/>
<polygon fill="midnightblue" stroke="midnightblue" points="431.27,-33.19 438,-25.01 427.63,-27.21 431.27,-33.19"/>
</g>
<!-- Node7 -->
<g id="node7" class="node">
<title>Node7</title>
<g id="a_node7"><a xlink:title=" ">
<polygon fill="white" stroke="#bfbfbf" points="503,-6 503,-25 567,-25 567,-6 503,-6"/>
<text text-anchor="middle" x="535" y="-13" font-family="Helvetica,sans-Serif" font-size="10.00">algorithm</text>
</a>
</g>
</g>
<!-- Node1&#45;&gt;Node7 -->
<g id="edge6" class="edge">
<title>Node1&#45;&gt;Node7</title>
<path fill="none" stroke="midnightblue" d="M386.8,-67.5C416.69,-57.44 457.87,-43.51 494,-31 496.37,-30.18 498.82,-29.33 501.28,-28.46"/>
<polygon fill="midnightblue" stroke="midnightblue" points="502.46,-31.76 510.74,-25.14 500.14,-25.16 502.46,-31.76"/>
</g>
</g>
</svg>
