<?xml version="1.0" encoding="UTF-8" standalone="no"?>
<!DOCTYPE svg PUBLIC "-//W3C//DTD SVG 1.1//EN"
 "http://www.w3.org/Graphics/SVG/1.1/DTD/svg11.dtd">
<!-- Generated by graphviz version 2.43.0 (0)
 -->
<!-- Title: WindEnergyTaylorVortexAuxFunction.C Pages: 1 -->
<svg width="536pt" height="106pt"
 viewBox="0.00 0.00 535.50 106.00" xmlns="http://www.w3.org/2000/svg" xmlns:xlink="http://www.w3.org/1999/xlink">
<g id="graph0" class="graph" transform="scale(1 1) rotate(0) translate(4 102)">
<title>WindEnergyTaylorVortexAuxFunction.C</title>
<polygon fill="white" stroke="transparent" points="-4,4 -4,-102 531.5,-102 531.5,4 -4,4"/>
<!-- Node1 -->
<g id="node1" class="node">
<title>Node1</title>
<g id="a_node1"><a xlink:title=" ">
<polygon fill="#bfbfbf" stroke="black" points="228,-67.5 228,-97.5 383,-97.5 383,-67.5 228,-67.5"/>
<text text-anchor="start" x="236" y="-85.5" font-family="Helvetica,sans-Serif" font-size="10.00">WindEnergyTaylorVortexAux</text>
<text text-anchor="middle" x="305.5" y="-74.5" font-family="Helvetica,sans-Serif" font-size="10.00">Function.C</text>
</a>
</g>
</g>
<!-- Node2 -->
<g id="node2" class="node">
<title>Node2</title>
<g id="a_node2"><a xlink:title=" ">
<polygon fill="white" stroke="#bfbfbf" points="0,-0.5 0,-30.5 149,-30.5 149,-0.5 0,-0.5"/>
<text text-anchor="start" x="8" y="-18.5" font-family="Helvetica,sans-Serif" font-size="10.00">user_functions/WindEnergy</text>
<text text-anchor="middle" x="74.5" y="-7.5" font-family="Helvetica,sans-Serif" font-size="10.00">TaylorVortexAuxFunction.h</text>
</a>
</g>
</g>
<!-- Node1&#45;&gt;Node2 -->
<g id="edge1" class="edge">
<title>Node1&#45;&gt;Node2</title>
<path fill="none" stroke="midnightblue" d="M255.66,-67.48C220.11,-57.47 172.13,-43.97 134.48,-33.38"/>
<polygon fill="midnightblue" stroke="midnightblue" points="135.22,-29.95 124.65,-30.61 133.33,-36.69 135.22,-29.95"/>
</g>
<!-- Node3 -->
<g id="node3" class="node">
<title>Node3</title>
<g id="a_node3"><a xlink:title=" ">
<polygon fill="white" stroke="#bfbfbf" points="167,-6 167,-25 232,-25 232,-6 167,-6"/>
<text text-anchor="middle" x="199.5" y="-13" font-family="Helvetica,sans-Serif" font-size="10.00">NaluEnv.h</text>
</a>
</g>
</g>
<!-- Node1&#45;&gt;Node3 -->
<g id="edge2" class="edge">
<title>Node1&#45;&gt;Node3</title>
<path fill="none" stroke="midnightblue" d="M282.5,-67.4C264.56,-56.39 239.78,-41.2 221.98,-30.28"/>
<polygon fill="midnightblue" stroke="midnightblue" points="223.73,-27.25 213.37,-25.01 220.07,-33.22 223.73,-27.25"/>
</g>
<!-- Node4 -->
<g id="node4" class="node">
<title>Node4</title>
<g id="a_node4"><a xlink:title=" ">
<polygon fill="white" stroke="#bfbfbf" points="250,-6 250,-25 297,-25 297,-6 250,-6"/>
<text text-anchor="middle" x="273.5" y="-13" font-family="Helvetica,sans-Serif" font-size="10.00">cmath</text>
</a>
</g>
</g>
<!-- Node1&#45;&gt;Node4 -->
<g id="edge3" class="edge">
<title>Node1&#45;&gt;Node4</title>
<path fill="none" stroke="midnightblue" d="M298.56,-67.4C293.76,-57.66 287.36,-44.65 282.22,-34.21"/>
<polygon fill="midnightblue" stroke="midnightblue" points="285.34,-32.62 277.78,-25.19 279.06,-35.71 285.34,-32.62"/>
</g>
<!-- Node5 -->
<g id="node5" class="node">
<title>Node5</title>
<g id="a_node5"><a xlink:title=" ">
<polygon fill="white" stroke="#bfbfbf" points="315,-6 315,-25 362,-25 362,-6 315,-6"/>
<text text-anchor="middle" x="338.5" y="-13" font-family="Helvetica,sans-Serif" font-size="10.00">vector</text>
</a>
</g>
</g>
<!-- Node1&#45;&gt;Node5 -->
<g id="edge4" class="edge">
<title>Node1&#45;&gt;Node5</title>
<path fill="none" stroke="midnightblue" d="M312.66,-67.4C317.6,-57.66 324.21,-44.65 329.51,-34.21"/>
<polygon fill="midnightblue" stroke="midnightblue" points="332.68,-35.7 334.09,-25.19 326.44,-32.53 332.68,-35.7"/>
</g>
<!-- Node6 -->
<g id="node6" class="node">
<title>Node6</title>
<g id="a_node6"><a xlink:title=" ">
<polygon fill="white" stroke="#bfbfbf" points="380,-6 380,-25 445,-25 445,-6 380,-6"/>
<text text-anchor="middle" x="412.5" y="-13" font-family="Helvetica,sans-Serif" font-size="10.00">stdexcept</text>
</a>
</g>
</g>
<!-- Node1&#45;&gt;Node6 -->
<g id="edge5" class="edge">
<title>Node1&#45;&gt;Node6</title>
<path fill="none" stroke="midnightblue" d="M328.72,-67.4C346.83,-56.39 371.84,-41.2 389.81,-30.28"/>
<polygon fill="midnightblue" stroke="midnightblue" points="391.77,-33.19 398.5,-25.01 388.13,-27.21 391.77,-33.19"/>
</g>
<!-- Node7 -->
<g id="node7" class="node">
<title>Node7</title>
<g id="a_node7"><a xlink:title=" ">
<polygon fill="white" stroke="#bfbfbf" points="463.5,-6 463.5,-25 527.5,-25 527.5,-6 463.5,-6"/>
<text text-anchor="middle" x="495.5" y="-13" font-family="Helvetica,sans-Serif" font-size="10.00">algorithm</text>
</a>
</g>
</g>
<!-- Node1&#45;&gt;Node7 -->
<g id="edge6" class="edge">
<title>Node1&#45;&gt;Node7</title>
<path fill="none" stroke="midnightblue" d="M347.3,-67.5C377.19,-57.44 418.37,-43.51 454.5,-31 456.87,-30.18 459.32,-29.33 461.78,-28.46"/>
<polygon fill="midnightblue" stroke="midnightblue" points="462.96,-31.76 471.24,-25.14 460.64,-25.16 462.96,-31.76"/>
</g>
</g>
</svg>
