<?xml version="1.0" encoding="UTF-8" standalone="no"?>
<!DOCTYPE svg PUBLIC "-//W3C//DTD SVG 1.1//EN"
 "http://www.w3.org/Graphics/SVG/1.1/DTD/svg11.dtd">
<!-- Generated by graphviz version 2.43.0 (0)
 -->
<!-- Title: ZalesakDiskMassFlowRateKernel.C Pages: 1 -->
<svg width="1165pt" height="95pt"
 viewBox="0.00 0.00 1165.00 95.00" xmlns="http://www.w3.org/2000/svg" xmlns:xlink="http://www.w3.org/1999/xlink">
<g id="graph0" class="graph" transform="scale(1 1) rotate(0) translate(4 91)">
<title>ZalesakDiskMassFlowRateKernel.C</title>
<polygon fill="white" stroke="transparent" points="-4,4 -4,-91 1161,-91 1161,4 -4,4"/>
<!-- Node1 -->
<g id="node1" class="node">
<title>Node1</title>
<g id="a_node1"><a xlink:title=" ">
<polygon fill="#bfbfbf" stroke="black" points="425.5,-67.5 425.5,-86.5 614.5,-86.5 614.5,-67.5 425.5,-67.5"/>
<text text-anchor="middle" x="520" y="-74.5" font-family="Helvetica,sans-Serif" font-size="10.00">ZalesakDiskMassFlowRateKernel.C</text>
</a>
</g>
</g>
<!-- Node2 -->
<g id="node2" class="node">
<title>Node2</title>
<g id="a_node2"><a xlink:title=" ">
<polygon fill="white" stroke="#bfbfbf" points="0,-0.5 0,-30.5 152,-30.5 152,-0.5 0,-0.5"/>
<text text-anchor="start" x="8" y="-18.5" font-family="Helvetica,sans-Serif" font-size="10.00">user_functions/ZalesakDisk</text>
<text text-anchor="middle" x="76" y="-7.5" font-family="Helvetica,sans-Serif" font-size="10.00">MassFlowRateKernel.h</text>
</a>
</g>
</g>
<!-- Node1&#45;&gt;Node2 -->
<g id="edge1" class="edge">
<title>Node1&#45;&gt;Node2</title>
<path fill="none" stroke="midnightblue" d="M444.23,-67.49C373.75,-59.35 265.58,-46.28 162.4,-31.17"/>
<polygon fill="midnightblue" stroke="midnightblue" points="162.83,-27.7 152.43,-29.7 161.81,-34.62 162.83,-27.7"/>
</g>
<!-- Node3 -->
<g id="node3" class="node">
<title>Node3</title>
<g id="a_node3"><a xlink:title=" ">
<polygon fill="white" stroke="#bfbfbf" points="170.5,-6 170.5,-25 275.5,-25 275.5,-6 170.5,-6"/>
<text text-anchor="middle" x="223" y="-13" font-family="Helvetica,sans-Serif" font-size="10.00">EquationSystem.h</text>
</a>
</g>
</g>
<!-- Node1&#45;&gt;Node3 -->
<g id="edge2" class="edge">
<title>Node1&#45;&gt;Node3</title>
<path fill="none" stroke="midnightblue" d="M471.96,-67.49C424.18,-58.88 348.85,-44.88 284,-31 278.68,-29.86 273.11,-28.61 267.59,-27.34"/>
<polygon fill="midnightblue" stroke="midnightblue" points="268.31,-23.92 257.78,-25.05 266.72,-30.73 268.31,-23.92"/>
</g>
<!-- Node4 -->
<g id="node4" class="node">
<title>Node4</title>
<g id="a_node4"><a xlink:title=" ">
<polygon fill="white" stroke="#bfbfbf" points="293.5,-6 293.5,-25 390.5,-25 390.5,-6 293.5,-6"/>
<text text-anchor="middle" x="342" y="-13" font-family="Helvetica,sans-Serif" font-size="10.00">PecletFunction.h</text>
</a>
</g>
</g>
<!-- Node1&#45;&gt;Node4 -->
<g id="edge3" class="edge">
<title>Node1&#45;&gt;Node4</title>
<path fill="none" stroke="midnightblue" d="M494.5,-67.48C463.7,-57.18 411.73,-39.81 377.15,-28.25"/>
<polygon fill="midnightblue" stroke="midnightblue" points="378.05,-24.86 367.46,-25.01 375.83,-31.5 378.05,-24.86"/>
</g>
<!-- Node5 -->
<g id="node5" class="node">
<title>Node5</title>
<g id="a_node5"><a xlink:title=" ">
<polygon fill="white" stroke="#bfbfbf" points="408.5,-6 408.5,-25 511.5,-25 511.5,-6 408.5,-6"/>
<text text-anchor="middle" x="460" y="-13" font-family="Helvetica,sans-Serif" font-size="10.00">SolutionOptions.h</text>
</a>
</g>
</g>
<!-- Node1&#45;&gt;Node5 -->
<g id="edge4" class="edge">
<title>Node1&#45;&gt;Node5</title>
<path fill="none" stroke="midnightblue" d="M511.4,-67.48C502.14,-58.28 487.18,-43.46 475.79,-32.16"/>
<polygon fill="midnightblue" stroke="midnightblue" points="478.15,-29.57 468.58,-25.01 473.22,-34.54 478.15,-29.57"/>
</g>
<!-- Node6 -->
<g id="node6" class="node">
<title>Node6</title>
<g id="a_node6"><a xlink:title=" ">
<polygon fill="white" stroke="#bfbfbf" points="529.5,-6 529.5,-25 632.5,-25 632.5,-6 529.5,-6"/>
<text text-anchor="middle" x="581" y="-13" font-family="Helvetica,sans-Serif" font-size="10.00">utils/StkHelpers.h</text>
</a>
</g>
</g>
<!-- Node1&#45;&gt;Node6 -->
<g id="edge5" class="edge">
<title>Node1&#45;&gt;Node6</title>
<path fill="none" stroke="midnightblue" d="M528.74,-67.48C538.16,-58.28 553.36,-43.46 564.95,-32.16"/>
<polygon fill="midnightblue" stroke="midnightblue" points="567.56,-34.5 572.28,-25.01 562.67,-29.49 567.56,-34.5"/>
</g>
<!-- Node7 -->
<g id="node7" class="node">
<title>Node7</title>
<g id="a_node7"><a xlink:title=" ">
<polygon fill="white" stroke="#bfbfbf" points="651,-6 651,-25 821,-25 821,-6 651,-6"/>
<text text-anchor="middle" x="736" y="-13" font-family="Helvetica,sans-Serif" font-size="10.00">edge_kernels/EdgeKernelUtils.h</text>
</a>
</g>
</g>
<!-- Node1&#45;&gt;Node7 -->
<g id="edge6" class="edge">
<title>Node1&#45;&gt;Node7</title>
<path fill="none" stroke="midnightblue" d="M550.95,-67.48C588.88,-57.03 653.28,-39.29 695.22,-27.73"/>
<polygon fill="midnightblue" stroke="midnightblue" points="696.4,-31.04 705.11,-25.01 694.54,-24.29 696.4,-31.04"/>
</g>
<!-- Node8 -->
<g id="node8" class="node">
<title>Node8</title>
<g id="a_node8"><a xlink:title=" ">
<polygon fill="white" stroke="#bfbfbf" points="839.5,-6 839.5,-25 996.5,-25 996.5,-6 839.5,-6"/>
<text text-anchor="middle" x="918" y="-13" font-family="Helvetica,sans-Serif" font-size="10.00">stk_mesh/base/NgpField.hpp</text>
</a>
</g>
</g>
<!-- Node1&#45;&gt;Node8 -->
<g id="edge7" class="edge">
<title>Node1&#45;&gt;Node8</title>
<path fill="none" stroke="midnightblue" d="M581.22,-67.47C643.79,-58.66 743.74,-44.37 830,-31 838.78,-29.64 848.05,-28.16 857.15,-26.68"/>
<polygon fill="midnightblue" stroke="midnightblue" points="858,-30.09 867.3,-25.02 856.87,-23.18 858,-30.09"/>
</g>
<!-- Node9 -->
<g id="node9" class="node">
<title>Node9</title>
<g id="a_node9"><a xlink:title=" ">
<polygon fill="white" stroke="#bfbfbf" points="1015,-6 1015,-25 1157,-25 1157,-6 1015,-6"/>
<text text-anchor="middle" x="1086" y="-13" font-family="Helvetica,sans-Serif" font-size="10.00">stk_mesh/base/Types.hpp</text>
</a>
</g>
</g>
<!-- Node1&#45;&gt;Node9 -->
<g id="edge8" class="edge">
<title>Node1&#45;&gt;Node9</title>
<path fill="none" stroke="midnightblue" d="M614.81,-69.67C712.97,-62.55 870.62,-49.5 1006,-31 1014.74,-29.81 1023.98,-28.33 1032.95,-26.78"/>
<polygon fill="midnightblue" stroke="midnightblue" points="1033.69,-30.21 1042.93,-25.02 1032.47,-23.31 1033.69,-30.21"/>
</g>
</g>
</svg>
