<?xml version="1.0" encoding="UTF-8" standalone="no"?>
<!DOCTYPE svg PUBLIC "-//W3C//DTD SVG 1.1//EN"
 "http://www.w3.org/Graphics/SVG/1.1/DTD/svg11.dtd">
<!-- Generated by graphviz version 2.43.0 (0)
 -->
<!-- Title: ZalesakSphereVOFAuxFunction.C Pages: 1 -->
<svg width="468pt" height="95pt"
 viewBox="0.00 0.00 467.50 95.00" xmlns="http://www.w3.org/2000/svg" xmlns:xlink="http://www.w3.org/1999/xlink">
<g id="graph0" class="graph" transform="scale(1 1) rotate(0) translate(4 91)">
<title>ZalesakSphereVOFAuxFunction.C</title>
<polygon fill="white" stroke="transparent" points="-4,4 -4,-91 463.5,-91 463.5,4 -4,4"/>
<!-- Node1 -->
<g id="node1" class="node">
<title>Node1</title>
<g id="a_node1"><a xlink:title=" ">
<polygon fill="#bfbfbf" stroke="black" points="199,-67.5 199,-86.5 377,-86.5 377,-67.5 199,-67.5"/>
<text text-anchor="middle" x="288" y="-74.5" font-family="Helvetica,sans-Serif" font-size="10.00">ZalesakSphereVOFAuxFunction.C</text>
</a>
</g>
</g>
<!-- Node2 -->
<g id="node2" class="node">
<title>Node2</title>
<g id="a_node2"><a xlink:title=" ">
<polygon fill="white" stroke="#bfbfbf" points="0,-0.5 0,-30.5 164,-30.5 164,-0.5 0,-0.5"/>
<text text-anchor="start" x="8" y="-18.5" font-family="Helvetica,sans-Serif" font-size="10.00">user_functions/ZalesakSphere</text>
<text text-anchor="middle" x="82" y="-7.5" font-family="Helvetica,sans-Serif" font-size="10.00">VOFAuxFunction.h</text>
</a>
</g>
</g>
<!-- Node1&#45;&gt;Node2 -->
<g id="edge1" class="edge">
<title>Node1&#45;&gt;Node2</title>
<path fill="none" stroke="midnightblue" d="M258.49,-67.48C227.85,-58.63 179.11,-44.55 140.61,-33.43"/>
<polygon fill="midnightblue" stroke="midnightblue" points="141.13,-29.94 130.55,-30.52 139.19,-36.66 141.13,-29.94"/>
</g>
<!-- Node3 -->
<g id="node3" class="node">
<title>Node3</title>
<g id="a_node3"><a xlink:title=" ">
<polygon fill="white" stroke="#bfbfbf" points="182,-6 182,-25 246,-25 246,-6 182,-6"/>
<text text-anchor="middle" x="214" y="-13" font-family="Helvetica,sans-Serif" font-size="10.00">algorithm</text>
</a>
</g>
</g>
<!-- Node1&#45;&gt;Node3 -->
<g id="edge2" class="edge">
<title>Node1&#45;&gt;Node3</title>
<path fill="none" stroke="midnightblue" d="M277.4,-67.48C265.75,-58.11 246.81,-42.88 232.67,-31.51"/>
<polygon fill="midnightblue" stroke="midnightblue" points="234.57,-28.55 224.58,-25.01 230.18,-34 234.57,-28.55"/>
</g>
<!-- Node4 -->
<g id="node4" class="node">
<title>Node4</title>
<g id="a_node4"><a xlink:title=" ">
<polygon fill="white" stroke="#bfbfbf" points="264.5,-6 264.5,-25 311.5,-25 311.5,-6 264.5,-6"/>
<text text-anchor="middle" x="288" y="-13" font-family="Helvetica,sans-Serif" font-size="10.00">cmath</text>
</a>
</g>
</g>
<!-- Node1&#45;&gt;Node4 -->
<g id="edge3" class="edge">
<title>Node1&#45;&gt;Node4</title>
<path fill="none" stroke="midnightblue" d="M288,-67.48C288,-59.08 288,-45.98 288,-35.16"/>
<polygon fill="midnightblue" stroke="midnightblue" points="291.5,-35.01 288,-25.01 284.5,-35.01 291.5,-35.01"/>
</g>
<!-- Node5 -->
<g id="node5" class="node">
<title>Node5</title>
<g id="a_node5"><a xlink:title=" ">
<polygon fill="white" stroke="#bfbfbf" points="329.5,-6 329.5,-25 376.5,-25 376.5,-6 329.5,-6"/>
<text text-anchor="middle" x="353" y="-13" font-family="Helvetica,sans-Serif" font-size="10.00">vector</text>
</a>
</g>
</g>
<!-- Node1&#45;&gt;Node5 -->
<g id="edge4" class="edge">
<title>Node1&#45;&gt;Node5</title>
<path fill="none" stroke="midnightblue" d="M297.31,-67.48C307.45,-58.2 323.86,-43.17 336.25,-31.83"/>
<polygon fill="midnightblue" stroke="midnightblue" points="338.69,-34.34 343.7,-25.01 333.96,-29.18 338.69,-34.34"/>
</g>
<!-- Node6 -->
<g id="node6" class="node">
<title>Node6</title>
<g id="a_node6"><a xlink:title=" ">
<polygon fill="white" stroke="#bfbfbf" points="394.5,-6 394.5,-25 459.5,-25 459.5,-6 394.5,-6"/>
<text text-anchor="middle" x="427" y="-13" font-family="Helvetica,sans-Serif" font-size="10.00">stdexcept</text>
</a>
</g>
</g>
<!-- Node1&#45;&gt;Node6 -->
<g id="edge5" class="edge">
<title>Node1&#45;&gt;Node6</title>
<path fill="none" stroke="midnightblue" d="M307.92,-67.48C331.45,-57.4 370.81,-40.55 397.79,-29"/>
<polygon fill="midnightblue" stroke="midnightblue" points="399.31,-32.16 407.12,-25.01 396.55,-25.73 399.31,-32.16"/>
</g>
</g>
</svg>
