<?xml version="1.0" encoding="UTF-8" standalone="no"?>
<!DOCTYPE svg PUBLIC "-//W3C//DTD SVG 1.1//EN"
 "http://www.w3.org/Graphics/SVG/1.1/DTD/svg11.dtd">
<!-- Generated by graphviz version 2.43.0 (0)
 -->
<!-- Title: ZalesakSphereMassFlowRateKernel.C Pages: 1 -->
<svg width="1177pt" height="106pt"
 viewBox="0.00 0.00 1177.00 106.00" xmlns="http://www.w3.org/2000/svg" xmlns:xlink="http://www.w3.org/1999/xlink">
<g id="graph0" class="graph" transform="scale(1 1) rotate(0) translate(4 102)">
<title>ZalesakSphereMassFlowRateKernel.C</title>
<polygon fill="white" stroke="transparent" points="-4,4 -4,-102 1173,-102 1173,4 -4,4"/>
<!-- Node1 -->
<g id="node1" class="node">
<title>Node1</title>
<g id="a_node1"><a xlink:title=" ">
<polygon fill="#bfbfbf" stroke="black" points="451.5,-67.5 451.5,-97.5 612.5,-97.5 612.5,-67.5 451.5,-67.5"/>
<text text-anchor="start" x="459.5" y="-85.5" font-family="Helvetica,sans-Serif" font-size="10.00">ZalesakSphereMassFlowRate</text>
<text text-anchor="middle" x="532" y="-74.5" font-family="Helvetica,sans-Serif" font-size="10.00">Kernel.C</text>
</a>
</g>
</g>
<!-- Node2 -->
<g id="node2" class="node">
<title>Node2</title>
<g id="a_node2"><a xlink:title=" ">
<polygon fill="white" stroke="#bfbfbf" points="0,-0.5 0,-30.5 164,-30.5 164,-0.5 0,-0.5"/>
<text text-anchor="start" x="8" y="-18.5" font-family="Helvetica,sans-Serif" font-size="10.00">user_functions/ZalesakSphere</text>
<text text-anchor="middle" x="82" y="-7.5" font-family="Helvetica,sans-Serif" font-size="10.00">MassFlowRateKernel.h</text>
</a>
</g>
</g>
<!-- Node1&#45;&gt;Node2 -->
<g id="edge1" class="edge">
<title>Node1&#45;&gt;Node2</title>
<path fill="none" stroke="midnightblue" d="M451.38,-70.59C380.93,-60.95 275.6,-46.31 174.42,-31.2"/>
<polygon fill="midnightblue" stroke="midnightblue" points="174.74,-27.71 164.33,-29.69 173.7,-34.63 174.74,-27.71"/>
</g>
<!-- Node3 -->
<g id="node3" class="node">
<title>Node3</title>
<g id="a_node3"><a xlink:title=" ">
<polygon fill="white" stroke="#bfbfbf" points="182.5,-6 182.5,-25 287.5,-25 287.5,-6 182.5,-6"/>
<text text-anchor="middle" x="235" y="-13" font-family="Helvetica,sans-Serif" font-size="10.00">EquationSystem.h</text>
</a>
</g>
</g>
<!-- Node1&#45;&gt;Node3 -->
<g id="edge2" class="edge">
<title>Node1&#45;&gt;Node3</title>
<path fill="none" stroke="midnightblue" d="M464.52,-67.48C417.27,-57.56 352.71,-43.81 296,-31 290.95,-29.86 285.68,-28.64 280.43,-27.42"/>
<polygon fill="midnightblue" stroke="midnightblue" points="280.99,-23.95 270.45,-25.07 279.38,-30.77 280.99,-23.95"/>
</g>
<!-- Node4 -->
<g id="node4" class="node">
<title>Node4</title>
<g id="a_node4"><a xlink:title=" ">
<polygon fill="white" stroke="#bfbfbf" points="305.5,-6 305.5,-25 402.5,-25 402.5,-6 305.5,-6"/>
<text text-anchor="middle" x="354" y="-13" font-family="Helvetica,sans-Serif" font-size="10.00">PecletFunction.h</text>
</a>
</g>
</g>
<!-- Node1&#45;&gt;Node4 -->
<g id="edge3" class="edge">
<title>Node1&#45;&gt;Node4</title>
<path fill="none" stroke="midnightblue" d="M493.38,-67.4C461.59,-55.79 417.02,-39.51 386.91,-28.52"/>
<polygon fill="midnightblue" stroke="midnightblue" points="387.89,-25.15 377.3,-25.01 385.49,-31.72 387.89,-25.15"/>
</g>
<!-- Node5 -->
<g id="node5" class="node">
<title>Node5</title>
<g id="a_node5"><a xlink:title=" ">
<polygon fill="white" stroke="#bfbfbf" points="420.5,-6 420.5,-25 523.5,-25 523.5,-6 420.5,-6"/>
<text text-anchor="middle" x="472" y="-13" font-family="Helvetica,sans-Serif" font-size="10.00">SolutionOptions.h</text>
</a>
</g>
</g>
<!-- Node1&#45;&gt;Node5 -->
<g id="edge4" class="edge">
<title>Node1&#45;&gt;Node5</title>
<path fill="none" stroke="midnightblue" d="M518.98,-67.4C509.53,-57.16 496.73,-43.3 486.88,-32.62"/>
<polygon fill="midnightblue" stroke="midnightblue" points="489.38,-30.17 480.03,-25.19 484.24,-34.92 489.38,-30.17"/>
</g>
<!-- Node6 -->
<g id="node6" class="node">
<title>Node6</title>
<g id="a_node6"><a xlink:title=" ">
<polygon fill="white" stroke="#bfbfbf" points="541.5,-6 541.5,-25 644.5,-25 644.5,-6 541.5,-6"/>
<text text-anchor="middle" x="593" y="-13" font-family="Helvetica,sans-Serif" font-size="10.00">utils/StkHelpers.h</text>
</a>
</g>
</g>
<!-- Node1&#45;&gt;Node6 -->
<g id="edge5" class="edge">
<title>Node1&#45;&gt;Node6</title>
<path fill="none" stroke="midnightblue" d="M545.24,-67.4C554.84,-57.16 567.85,-43.3 577.87,-32.62"/>
<polygon fill="midnightblue" stroke="midnightblue" points="580.55,-34.88 584.84,-25.19 575.45,-30.09 580.55,-34.88"/>
</g>
<!-- Node7 -->
<g id="node7" class="node">
<title>Node7</title>
<g id="a_node7"><a xlink:title=" ">
<polygon fill="white" stroke="#bfbfbf" points="663,-6 663,-25 833,-25 833,-6 663,-6"/>
<text text-anchor="middle" x="748" y="-13" font-family="Helvetica,sans-Serif" font-size="10.00">edge_kernels/EdgeKernelUtils.h</text>
</a>
</g>
</g>
<!-- Node1&#45;&gt;Node7 -->
<g id="edge6" class="edge">
<title>Node1&#45;&gt;Node7</title>
<path fill="none" stroke="midnightblue" d="M578.6,-67.48C617.83,-55.67 673.23,-39 709.85,-27.98"/>
<polygon fill="midnightblue" stroke="midnightblue" points="711.09,-31.26 719.66,-25.03 709.07,-24.56 711.09,-31.26"/>
</g>
<!-- Node8 -->
<g id="node8" class="node">
<title>Node8</title>
<g id="a_node8"><a xlink:title=" ">
<polygon fill="white" stroke="#bfbfbf" points="851.5,-6 851.5,-25 1008.5,-25 1008.5,-6 851.5,-6"/>
<text text-anchor="middle" x="930" y="-13" font-family="Helvetica,sans-Serif" font-size="10.00">stk_mesh/base/NgpField.hpp</text>
</a>
</g>
</g>
<!-- Node1&#45;&gt;Node8 -->
<g id="edge7" class="edge">
<title>Node1&#45;&gt;Node8</title>
<path fill="none" stroke="midnightblue" d="M612.62,-68.41C675.19,-58.24 764.11,-43.76 842,-31 850.55,-29.6 859.56,-28.12 868.43,-26.66"/>
<polygon fill="midnightblue" stroke="midnightblue" points="869.05,-30.1 878.35,-25.03 867.92,-23.2 869.05,-30.1"/>
</g>
<!-- Node9 -->
<g id="node9" class="node">
<title>Node9</title>
<g id="a_node9"><a xlink:title=" ">
<polygon fill="white" stroke="#bfbfbf" points="1027,-6 1027,-25 1169,-25 1169,-6 1027,-6"/>
<text text-anchor="middle" x="1098" y="-13" font-family="Helvetica,sans-Serif" font-size="10.00">stk_mesh/base/Types.hpp</text>
</a>
</g>
</g>
<!-- Node1&#45;&gt;Node9 -->
<g id="edge8" class="edge">
<title>Node1&#45;&gt;Node9</title>
<path fill="none" stroke="midnightblue" d="M612.63,-75C709.24,-66.79 875.86,-51.24 1018,-31 1026.63,-29.77 1035.75,-28.29 1044.63,-26.75"/>
<polygon fill="midnightblue" stroke="midnightblue" points="1045.27,-30.19 1054.5,-25 1044.04,-23.3 1045.27,-30.19"/>
</g>
</g>
</svg>
