<?xml version="1.0" encoding="UTF-8" standalone="no"?>
<!DOCTYPE svg PUBLIC "-//W3C//DTD SVG 1.1//EN"
 "http://www.w3.org/Graphics/SVG/1.1/DTD/svg11.dtd">
<!-- Generated by graphviz version 2.43.0 (0)
 -->
<!-- Title: ZalesakDiskVOFAuxFunction.C Pages: 1 -->
<svg width="456pt" height="95pt"
 viewBox="0.00 0.00 455.50 95.00" xmlns="http://www.w3.org/2000/svg" xmlns:xlink="http://www.w3.org/1999/xlink">
<g id="graph0" class="graph" transform="scale(1 1) rotate(0) translate(4 91)">
<title>ZalesakDiskVOFAuxFunction.C</title>
<polygon fill="white" stroke="transparent" points="-4,4 -4,-91 451.5,-91 451.5,4 -4,4"/>
<!-- Node1 -->
<g id="node1" class="node">
<title>Node1</title>
<g id="a_node1"><a xlink:title=" ">
<polygon fill="#bfbfbf" stroke="black" points="193,-67.5 193,-86.5 359,-86.5 359,-67.5 193,-67.5"/>
<text text-anchor="middle" x="276" y="-74.5" font-family="Helvetica,sans-Serif" font-size="10.00">ZalesakDiskVOFAuxFunction.C</text>
</a>
</g>
</g>
<!-- Node2 -->
<g id="node2" class="node">
<title>Node2</title>
<g id="a_node2"><a xlink:title=" ">
<polygon fill="white" stroke="#bfbfbf" points="0,-0.5 0,-30.5 152,-30.5 152,-0.5 0,-0.5"/>
<text text-anchor="start" x="8" y="-18.5" font-family="Helvetica,sans-Serif" font-size="10.00">user_functions/ZalesakDisk</text>
<text text-anchor="middle" x="76" y="-7.5" font-family="Helvetica,sans-Serif" font-size="10.00">VOFAuxFunction.h</text>
</a>
</g>
</g>
<!-- Node1&#45;&gt;Node2 -->
<g id="edge1" class="edge">
<title>Node1&#45;&gt;Node2</title>
<path fill="none" stroke="midnightblue" d="M247.34,-67.48C217.6,-58.63 170.28,-44.55 132.9,-33.43"/>
<polygon fill="midnightblue" stroke="midnightblue" points="133.72,-30.02 123.14,-30.52 131.72,-36.73 133.72,-30.02"/>
</g>
<!-- Node3 -->
<g id="node3" class="node">
<title>Node3</title>
<g id="a_node3"><a xlink:title=" ">
<polygon fill="white" stroke="#bfbfbf" points="170,-6 170,-25 234,-25 234,-6 170,-6"/>
<text text-anchor="middle" x="202" y="-13" font-family="Helvetica,sans-Serif" font-size="10.00">algorithm</text>
</a>
</g>
</g>
<!-- Node1&#45;&gt;Node3 -->
<g id="edge2" class="edge">
<title>Node1&#45;&gt;Node3</title>
<path fill="none" stroke="midnightblue" d="M265.4,-67.48C253.75,-58.11 234.81,-42.88 220.67,-31.51"/>
<polygon fill="midnightblue" stroke="midnightblue" points="222.57,-28.55 212.58,-25.01 218.18,-34 222.57,-28.55"/>
</g>
<!-- Node4 -->
<g id="node4" class="node">
<title>Node4</title>
<g id="a_node4"><a xlink:title=" ">
<polygon fill="white" stroke="#bfbfbf" points="252.5,-6 252.5,-25 299.5,-25 299.5,-6 252.5,-6"/>
<text text-anchor="middle" x="276" y="-13" font-family="Helvetica,sans-Serif" font-size="10.00">cmath</text>
</a>
</g>
</g>
<!-- Node1&#45;&gt;Node4 -->
<g id="edge3" class="edge">
<title>Node1&#45;&gt;Node4</title>
<path fill="none" stroke="midnightblue" d="M276,-67.48C276,-59.08 276,-45.98 276,-35.16"/>
<polygon fill="midnightblue" stroke="midnightblue" points="279.5,-35.01 276,-25.01 272.5,-35.01 279.5,-35.01"/>
</g>
<!-- Node5 -->
<g id="node5" class="node">
<title>Node5</title>
<g id="a_node5"><a xlink:title=" ">
<polygon fill="white" stroke="#bfbfbf" points="317.5,-6 317.5,-25 364.5,-25 364.5,-6 317.5,-6"/>
<text text-anchor="middle" x="341" y="-13" font-family="Helvetica,sans-Serif" font-size="10.00">vector</text>
</a>
</g>
</g>
<!-- Node1&#45;&gt;Node5 -->
<g id="edge4" class="edge">
<title>Node1&#45;&gt;Node5</title>
<path fill="none" stroke="midnightblue" d="M285.31,-67.48C295.45,-58.2 311.86,-43.17 324.25,-31.83"/>
<polygon fill="midnightblue" stroke="midnightblue" points="326.69,-34.34 331.7,-25.01 321.96,-29.18 326.69,-34.34"/>
</g>
<!-- Node6 -->
<g id="node6" class="node">
<title>Node6</title>
<g id="a_node6"><a xlink:title=" ">
<polygon fill="white" stroke="#bfbfbf" points="382.5,-6 382.5,-25 447.5,-25 447.5,-6 382.5,-6"/>
<text text-anchor="middle" x="415" y="-13" font-family="Helvetica,sans-Serif" font-size="10.00">stdexcept</text>
</a>
</g>
</g>
<!-- Node1&#45;&gt;Node6 -->
<g id="edge5" class="edge">
<title>Node1&#45;&gt;Node6</title>
<path fill="none" stroke="midnightblue" d="M295.92,-67.48C319.45,-57.4 358.81,-40.55 385.79,-29"/>
<polygon fill="midnightblue" stroke="midnightblue" points="387.31,-32.16 395.12,-25.01 384.55,-25.73 387.31,-32.16"/>
</g>
</g>
</svg>
